<svg xmlns="http://www.w3.org/2000/svg" xmlns:xlink="http://www.w3.org/1999/xlink" width="290" height="198.957" viewBox="0 0 290 198.957">
  <defs>
    <filter id="Rectángulo_408761" x="0" y="0" width="290" height="198.957" filterUnits="userSpaceOnUse">
      <feOffset dx="6" dy="7" input="SourceAlpha"/>
      <feGaussianBlur stdDeviation="3" result="blur"/>
      <feFlood flood-opacity="0.161"/>
      <feComposite operator="in" in2="blur"/>
      <feComposite in="SourceGraphic"/>
    </filter>
    <filter id="Rectángulo_408538" x="0" y="0" width="290" height="198.957" filterUnits="userSpaceOnUse">
      <feOffset dx="6" dy="7" input="SourceAlpha"/>
      <feGaussianBlur stdDeviation="3" result="blur-2"/>
      <feFlood flood-opacity="0.161"/>
      <feComposite operator="in" in2="blur-2"/>
      <feComposite in="SourceGraphic"/>
    </filter>
    <clipPath id="clip-path">
      <g transform="matrix(1, 0, 0, 1, 0, 0)" filter="url(#Rectángulo_408761)">
        <rect id="Rectángulo_408761-2" data-name="Rectángulo 408761" width="272" height="180.957" rx="8" transform="translate(2426.23 -8984.55)" fill="#4d637e" opacity="0.38"/>
      </g>
    </clipPath>
  </defs>
  <g id="Grupo_1199978" data-name="Grupo 1199978" transform="translate(-202.233 -2374.359)">
    <g transform="matrix(1, 0, 0, 1, 202.23, 2374.36)" filter="url(#Rectángulo_408538)">
      <rect id="Rectángulo_408538-2" data-name="Rectángulo 408538" width="272" height="180.957" rx="8" transform="translate(3 2)" fill="#4d637e"/>
    </g>
    <g id="Enmascarar_grupo_1098811" data-name="Enmascarar grupo 1098811" transform="translate(-2221 11360.906)" clip-path="url(#clip-path)">
      <g id="_207362104_b5e171bb-c23c-4121-8e85-ab7a54119adf" data-name="207362104_b5e171bb-c23c-4121-8e85-ab7a54119adf" transform="translate(2401.381 -8984.547)">
        <path id="Trazado_1032229" data-name="Trazado 1032229" d="M0,0H321.347a1.465,1.465,0,0,1,.276.628,33.812,33.812,0,0,1,.007,3.925l.009,9.276.014,30.69,0,80.108-.012,23.59-.007,6.806a24.816,24.816,0,0,1-.007,3.077,1.156,1.156,0,0,1-.27.54,1.5,1.5,0,0,1,.27.638c.164,1.667.025,3.5.028,5.178l0,11.486-.014,3.241a5.89,5.89,0,0,1-.037,1.347,1.368,1.368,0,0,1-.251.426H0V0Z" fill="#6baec4"/>
        <path id="Trazado_1032230" data-name="Trazado 1032230" d="M1200.463,296.442a1.5,1.5,0,0,1,1.066.28c.053.423.088.466-.136.82a7.036,7.036,0,0,1-3,.209c-.355-.024-.521.013-.806-.209A13.837,13.837,0,0,1,1200.463,296.442Z" transform="translate(-985.957 -244.056)" fill="#f2ece3"/>
        <path id="Trazado_1032231" data-name="Trazado 1032231" d="M1278.645,299.662l1.292-.072a.828.828,0,0,1,.408.779l-.3.36a7.416,7.416,0,0,1-2.578.206,2.249,2.249,0,0,1-1.193-.173Z" transform="translate(-1050.733 -246.648)" fill="#f2ece3"/>
        <path id="Trazado_1032232" data-name="Trazado 1032232" d="M1225.92,245.772c.6.032.664,0,1.1.456l-.035.487a6,6,0,0,1-2.667,1.743,1.693,1.693,0,0,1-.511.3C1224.02,247.844,1225.333,246.561,1225.92,245.772Z" transform="translate(-1007.544 -202.34)" fill="#f2ece3"/>
        <path id="Trazado_1032233" data-name="Trazado 1032233" d="M1198.65,333.174a10.691,10.691,0,0,1,3.312,1.169,1.368,1.368,0,0,1,.779.822l-.4.433-.281.222C1200.739,335.683,1199.781,333.85,1198.65,333.174Z" transform="translate(-986.83 -274.297)" fill="#f2ece3"/>
        <path id="Trazado_1032234" data-name="Trazado 1032234" d="M1374.295,165.753c.566-.016.555-.018.974.361a.775.775,0,0,1-.081.788,9.166,9.166,0,0,1-3.363,1.365,1.927,1.927,0,0,1-.514.177l.016-.177Z" transform="translate(-1128.978 -136.457)" fill="#f2ece3"/>
        <path id="Trazado_1032235" data-name="Trazado 1032235" d="M1359.48,309.48a2.151,2.151,0,0,1,1.589.178c.193.53.2.512-.037,1.022-.7.5-2.142.167-2.969.094l-1.723-.373C1357.315,310,1358.464,309.82,1359.48,309.48Z" transform="translate(-1116.653 -254.738)" fill="#f2ece3"/>
        <path id="Trazado_1032236" data-name="Trazado 1032236" d="M90.573,766.978a7.74,7.74,0,0,1,1.452,2.646l1.433,2.253-.1.011a1.687,1.687,0,0,1-1.442-.468C90.691,770.248,90.607,768.556,90.573,766.978Z" transform="translate(-74.567 -631.441)" fill="#cd7944"/>
        <path id="Trazado_1032237" data-name="Trazado 1032237" d="M1289.26,201.686l.475-.105c.46-.042.555.059.9.333.058.315.168.536-.018.826-.482.75-2.35,1.246-3.172,1.45-.346.143-.482.266-.852.167.785-.97,1.827-1.667,2.621-2.609Z" transform="translate(-1059.229 -165.95)" fill="#f2ece3"/>
        <path id="Trazado_1032238" data-name="Trazado 1032238" d="M1328.088,248.443a1.65,1.65,0,0,1,1.036.256,1.144,1.144,0,0,1,.016,1.017c-.9.636-2.716.642-3.817.77a3.087,3.087,0,0,1-.753.022C1324.885,249.834,1327.288,248.781,1328.088,248.443Z" transform="translate(-1090.498 -204.539)" fill="#f2ece3"/>
        <path id="Trazado_1032239" data-name="Trazado 1032239" d="M1411.313,229.771a1.379,1.379,0,0,1,1.156.315.922.922,0,0,1-.007.864c-.967.941-3.064.908-4.351,1.039a6.743,6.743,0,0,1-.9.02C1407.6,231.259,1410.449,230.154,1411.313,229.771Z" transform="translate(-1158.534 -189.166)" fill="#f2ece3"/>
        <path id="Trazado_1032240" data-name="Trazado 1032240" d="M176.819,762.453l2.169-4.447c.069,2.182.068,4.109-1.531,5.823a2.483,2.483,0,0,1-1.64.831l.005-.116A10.316,10.316,0,0,0,176.819,762.453Z" transform="translate(-144.747 -624.055)" fill="#cd7944"/>
        <path id="Trazado_1032241" data-name="Trazado 1032241" d="M132.32,730.61l.1,3.648a5.72,5.72,0,0,1-.033,1.413.561.561,0,0,0,.01.32,3.513,3.513,0,0,1-.023,1.014l-.072.06a2.394,2.394,0,0,0-.492.539,2.942,2.942,0,0,1-.622-1.106C130.456,734.3,131.317,732.546,132.32,730.61Z" transform="translate(-107.778 -601.5)" fill="#cd7944"/>
        <path id="Trazado_1032242" data-name="Trazado 1032242" d="M90.573,764.891l.044-.447c.585-.042,1.854.987,2.31,1.384a3.5,3.5,0,0,1,1.479,2.445,3,3,0,0,1-.215,1.248l-.61.25-.122.019-1.433-2.253A7.738,7.738,0,0,0,90.573,764.891Z" transform="translate(-74.567 -629.354)" fill="#b45a2d"/>
        <path id="Trazado_1032243" data-name="Trazado 1032243" d="M172.827,755.376l.9-.524.147.124-.063.433-2.169,4.447a10.317,10.317,0,0,1-1,2.091l-.617-.357-.132-.194a2.77,2.77,0,0,1-.321-.764c-.243-1.18.519-2.382,1.172-3.291A5.823,5.823,0,0,1,172.827,755.376Z" transform="translate(-139.572 -621.458)" fill="#b45a2d"/>
        <path id="Trazado_1032244" data-name="Trazado 1032244" d="M178.5,757.818c-.4,1.247-.921,2.326-1.421,3.52l-.123.056a5.1,5.1,0,0,1-.467-.441,1.794,1.794,0,0,0-.066-1.17A5.822,5.822,0,0,1,178.5,757.818Z" transform="translate(-145.25 -623.9)" fill="#cd7944"/>
        <path id="Trazado_1032245" data-name="Trazado 1032245" d="M170.75,768.933a1.794,1.794,0,0,1,.066,1.17,5.1,5.1,0,0,0,.467.441,8.777,8.777,0,0,1-1.384,2.444,2.77,2.77,0,0,1-.321-.764C169.334,771.044,170.1,769.842,170.75,768.933Z" transform="translate(-139.572 -633.05)" fill="#cd7944"/>
        <path id="Trazado_1032246" data-name="Trazado 1032246" d="M136.476,727.231l.325-.725c.643.457,1.828,3.169,1.965,3.993s.2,2.551-.335,3.261a3.839,3.839,0,0,1-1.1.95l-.562-.019-.8-.466a2.4,2.4,0,0,1,.493-.539l.072-.06a3.513,3.513,0,0,0,.023-1.014.561.561,0,0,1-.01-.32,5.723,5.723,0,0,0,.033-1.413Z" transform="translate(-111.935 -598.121)" fill="#b45a2d"/>
        <path id="Trazado_1032247" data-name="Trazado 1032247" d="M1294.478,462.848a4.976,4.976,0,0,1-2,.494,17.01,17.01,0,0,1-11.294-4.217,1.541,1.541,0,0,1-.622-1.35l.327-.309c.993-.818,4.648-.517,5.909-.387,2.67.276,6.022,1.434,7.708,3.626a1.6,1.6,0,0,1,.495,1.365l-.067.464Z" transform="translate(-1091.695 -376.172)" fill="#cd7944"/>
        <path id="Trazado_1032248" data-name="Trazado 1032248" d="M1413.669,402.6l-.037-.066c-.421-.72-1.03-1.25-1.421-2.017-1.573-3.088-1.458-7.215-.615-10.5a5.034,5.034,0,0,1,1.237-2.457c.4-.095.534-.16.9.075,1.516.965,2.509,4.658,2.82,6.368.482,2.637.56,5.8-1.064,8.09a2.641,2.641,0,0,1-.454.494l-.023.019A1.948,1.948,0,0,1,1413.669,402.6Z" transform="translate(-1199.074 -318.997)" fill="#cd7944"/>
        <path id="Trazado_1032249" data-name="Trazado 1032249" d="M1547.91,534.972c.316-.8.424-1.659.779-2.442a15.076,15.076,0,0,1,7.744-7.062c1.007-.433,2.808-1.2,3.895-.981l.3.354c-.355,3.1-3.05,6.277-5.406,8.159-1.847,1.477-4.25,2.783-6.669,2.539A2.618,2.618,0,0,0,1547.91,534.972Z" transform="translate(-1311.8 -431.771)" fill="#cd7944"/>
        <path id="Trazado_1032250" data-name="Trazado 1032250" d="M1297.641,370.823l-.283.107a4.494,4.494,0,0,1-3.3-.557c-3.023-1.578-7.047-5.333-8.048-8.685a1.358,1.358,0,0,1,.048-1.2,4.427,4.427,0,0,1,2.919.2c3.66,1.242,7.355,3.864,9.055,7.4a2.206,2.206,0,0,1,.219,2.023l-.1.425Z" transform="translate(-1096.086 -296.633)" fill="#cd7944"/>
        <path id="Trazado_1032251" data-name="Trazado 1032251" d="M1522.85,427.826a10.944,10.944,0,0,1,6.058-6.033,16.457,16.457,0,0,1,5.648-1.276,6.56,6.56,0,0,1,2.446.148,1.375,1.375,0,0,1,.5.353,1.846,1.846,0,0,1-.534,1.393,16.96,16.96,0,0,1-10.716,6.367,10.668,10.668,0,0,1-2.729-.036A1.992,1.992,0,0,0,1522.85,427.826Z" transform="translate(-1291.168 -346.169)" fill="#cd7944"/>
        <path id="Trazado_1032252" data-name="Trazado 1032252" d="M1490.11,327.61l.021-.072c.226-.862.041-1.858.239-2.782a13.9,13.9,0,0,1,6.18-8.782,7.977,7.977,0,0,1,2.781-1.253c.375.139.369.209.565.54.157,3.616-2.138,7.889-4.531,10.484a6.891,6.891,0,0,1-4.4,2.516l-.1,0Z" transform="translate(-1264.214 -259.105)" fill="#cd7944"/>
        <path id="Trazado_1032253" data-name="Trazado 1032253" d="M1093.83,383.771a50.317,50.317,0,0,1,5.448,2.277l12.324,5.468,3.536,1.678a5.673,5.673,0,0,1,1.444.825l-.145.1-25.247-6.214C1092.256,386.952,1093.1,385.036,1093.83,383.771Z" transform="translate(-898.36 -315.953)" fill="#825f2c"/>
        <path id="Trazado_1032254" data-name="Trazado 1032254" d="M1459.991,584a2.621,2.621,0,0,1,.647.567c-.6,1.5-6.282,5.486-6.358,6.332a11.7,11.7,0,0,1-.922,3.055,27.945,27.945,0,0,1-8.361,11.3,11.318,11.318,0,0,1-3.877,2.321,4.461,4.461,0,0,0,.1-1.756c.792-.9,1.276-2.788,1.848-3.911a31.341,31.341,0,0,1,3.837-5.808,30.081,30.081,0,0,1,3.884-3.947l2.63-1.987c1.15-.957,2.195-2.057,3.289-3.077,1.064-.992,2.221-1.939,3.211-3Z" transform="translate(-1223.882 -480.796)" fill="#095148"/>
        <path id="Trazado_1032255" data-name="Trazado 1032255" d="M1003.383,826.152c-.062-.846-1.179-1.921-1.82-2.481a9.667,9.667,0,0,0-6.692-2.382,7.638,7.638,0,0,1,5.725-.493,7.058,7.058,0,0,1,2.589,1.872A27.789,27.789,0,0,0,999.176,811a14.339,14.339,0,0,1,5.878,8.152,26.527,26.527,0,0,0,.714,3.006c.894-2.9,2.281-5.467,5.068-6.921a10.547,10.547,0,0,1,3.446-1.081c-2.967,1.735-4.289,3.917-5.51,7.07,1.9-1.366,3.909-2.386,6.323-1.989a6.578,6.578,0,0,1,3.676,2.1l.09.155a6.717,6.717,0,0,0-5.34-.169,10.66,10.66,0,0,0-4.186,3.209,6.947,6.947,0,0,1-1.371,1.618Z" transform="translate(-819.062 -667.684)" fill="#097b83"/>
        <path id="Trazado_1032256" data-name="Trazado 1032256" d="M1376.711,387.656l.76.654-.01.169c-.073.716-1.474,2.273-1.9,2.966a51.071,51.071,0,0,0-2.628,4.729,59.609,59.609,0,0,0-5.024,17.252,50.09,50.09,0,0,1,7.892-7.988l3.351-2.494,2.336-1.459a3.414,3.414,0,0,0,1.009-.676,1.992,1.992,0,0,1,.67.916,58.771,58.771,0,0,0-9.967,7.585l-2.741,2.87c-.732.842-1.792,2.805-2.727,3.263a9.334,9.334,0,0,1-2.571-.138.823.823,0,0,0-.03-.353,6.863,6.863,0,0,0-1.027-1.533c-2.658-3.5-6.733-5.544-10.506-7.59l.454-.313.067-.464a13,13,0,0,1,2.612,1.139,24.872,24.872,0,0,1,8.735,7.076.75.75,0,0,0-.016-.2,22.349,22.349,0,0,0-.765-2.408,38.2,38.2,0,0,0-8.288-13.412,34.049,34.049,0,0,0-4.027-3.9l.513-.283.1-.425a6.59,6.59,0,0,1,2.315,1.786,44.963,44.963,0,0,1,8.323,10.968l1.255,2.408a3.432,3.432,0,0,0,.546,1l.125-4.136a4.182,4.182,0,0,0-.134-1.91,1.949,1.949,0,0,0,1.347,0l.023-.019a5.242,5.242,0,0,1,.221,2.438l.062,4.692A67.7,67.7,0,0,1,1373.857,392C1374.723,390.486,1375.846,389.151,1376.711,387.656Z" transform="translate(-1150.815 -319.151)" fill="#095148"/>
        <path id="Trazado_1032257" data-name="Trazado 1032257" d="M1447.49,62.15a8.753,8.753,0,0,1,6.012,1.065,7.531,7.531,0,0,1,3.245,5.108,12.7,12.7,0,0,1,1.891-.1,10.671,10.671,0,0,1,7.821,4.07l-16.844,0-18.6-.01a8.4,8.4,0,0,1,2.016-2.054,11.355,11.355,0,0,1,8.762-1.988,7,7,0,0,1,.587-1.957A8.033,8.033,0,0,1,1447.49,62.15Z" transform="translate(-1178.128 -51.076)" fill="#f2ece3"/>
        <path id="Trazado_1032258" data-name="Trazado 1032258" d="M243.91,143.331a8.81,8.81,0,0,1,4.291.85c2.4,1.173,3.5,3.163,4.326,5.6a8.924,8.924,0,0,1,3.547.122,7.135,7.135,0,0,1,4.257,3.73l-16.892-.051L226.6,153.57a7.34,7.34,0,0,1,2.92-3.755,9.608,9.608,0,0,1,7.5-1.294,9.415,9.415,0,0,1,1.091-1.885A8.381,8.381,0,0,1,243.91,143.331Z" transform="translate(-186.552 -117.995)" fill="#f2ece3"/>
        <path id="Trazado_1032259" data-name="Trazado 1032259" d="M53.332,772.844a79.275,79.275,0,0,1,.047,15.242l2.088-5.859a50.861,50.861,0,0,1,2.93-5.839l.617.357-.005.116-4.579,11.278a29.743,29.743,0,0,1,2.291-3.224c3.285-3.746,7.583-6.485,11.8-9.067a47.509,47.509,0,0,1-6.479,8.9c-1.055,1.047-2.43,1.849-3.421,2.926,1.26-.625,2.42-1.417,3.664-2.071a62.661,62.661,0,0,1,9.292-3.981,70.77,70.77,0,0,1-9.145,6.573,73.865,73.865,0,0,1-8.731,4.817l.052,1.881-2.052,0,.078-2.034a86.633,86.633,0,0,1-17.838-10.775c1.834.6,3.68,1.149,5.474,1.867,2.205.882,4.286,1.947,6.42,2.981-.883-.9-1.9-1.66-2.794-2.56a33.262,33.262,0,0,1-5.942-8.678,10.235,10.235,0,0,1,2.241,1.322C43.7,779.8,48.7,783.6,51.39,788.132l.177-.059-.189-1.062c-.5-.4-1.112-2.616-1.383-3.283l-3.042-7.057.61-.25a70.875,70.875,0,0,1,3.3,6.782,12.043,12.043,0,0,1,.918,2.584,17.637,17.637,0,0,1,.752,2.431c.3-1.925-.045-3.978.2-5.938l.042-9.456Z" transform="translate(-27.94 -636.255)" fill="#716932"/>
        <path id="Trazado_1032260" data-name="Trazado 1032260" d="M873.071,451.244a13.244,13.244,0,0,0,3.043,1.5,7.182,7.182,0,0,0,2.212,0,41.17,41.17,0,0,0,6.037-.924c7.751-1.787,13.328-6.54,18.115-12.69a54.323,54.323,0,0,0,3.336-4.589,1.331,1.331,0,0,1,.157.65,12.018,12.018,0,0,1-.479,2.107l-1.14,4.094c-.56,1.934-.99,3.952-1.686,5.84A4.108,4.108,0,0,1,901.382,449a28.558,28.558,0,0,1-5.012,3.136c-2.76,1.52-5.61,3.044-8.486,4.326l-5.091,1.984-.753,4-12.29-1.387a12.676,12.676,0,0,1,.774-6.279A17.492,17.492,0,0,1,873.071,451.244Z" transform="translate(-715.991 -357.752)" fill="#cd7944"/>
        <path id="Trazado_1032261" data-name="Trazado 1032261" d="M880.711,139.153c4.054-4.27,7.769-8.077,14.027-8.242a18.678,18.678,0,0,1,5.663.665,52.712,52.712,0,0,1,8.625,3.813c4.16,2.081,9.1,4.28,12.5,7.538a15.305,15.305,0,0,1,4.565,10.746,43.215,43.215,0,0,1-.824,7.036,9.145,9.145,0,0,1-.277,1.8,2.6,2.6,0,0,1-.359.407,4.207,4.207,0,0,0-1.249-.451l-2.6-.862-5.321-2.037a167.378,167.378,0,0,1-19.186-9.331A75.193,75.193,0,0,1,880.711,139.153Z" transform="translate(-725.076 -107.77)" fill="#f0b259"/>
        <path id="Trazado_1032262" data-name="Trazado 1032262" d="M743.933,177.588A75.19,75.19,0,0,0,759.5,188.673,167.383,167.383,0,0,0,778.683,198L784,200.042l2.6.862a4.207,4.207,0,0,1,1.249.451c.449.823-.152,2.505-.3,3.413a11.767,11.767,0,0,1-.332,1.993,1.1,1.1,0,0,1-.254.383,22.992,22.992,0,0,1,3.9,2.458,74.66,74.66,0,0,1,15.652,14.123.934.934,0,0,1,0,.548,5.675,5.675,0,0,0-1.444-.825l-3.536-1.678L789.217,216.3a50.32,50.32,0,0,0-5.448-2.278l-.111-.139a12.591,12.591,0,0,0-2.645-1.168l-6.811-2.949a10.347,10.347,0,0,0-3.294-1.2l-.2-.14c-.4-.543-1.993-1.063-2.663-1.368l-6.006-2.792L757,201.748l-21.123-12.076a16.264,16.264,0,0,0-3.632,4.663,132.211,132.211,0,0,1-15.481-11.743,11.905,11.905,0,0,1-2.087-1.862c-.191-.284-.066-.481,0-.8,2.492-.554,21.168,2.732,23.644,4.157Z" transform="translate(-588.298 -146.205)" fill="#f0b259"/>
        <path id="Trazado_1032263" data-name="Trazado 1032263" d="M714.678,190.818l.132.06c1.526.685,3.213,1.069,4.782,1.675a103.174,103.174,0,0,1,13.235,6.242,25.06,25.06,0,0,1,3.049,1.769,16.265,16.265,0,0,0-3.632,4.663,132.214,132.214,0,0,1-15.481-11.743,11.907,11.907,0,0,1-2.087-1.862C714.485,191.337,714.61,191.141,714.678,190.818Z" transform="translate(-588.298 -157.097)" fill="#825f2c"/>
        <path id="Trazado_1032264" data-name="Trazado 1032264" d="M854.567,177.588a75.194,75.194,0,0,0,15.563,11.085A167.382,167.382,0,0,0,889.316,198l5.321,2.037,2.6.862a4.208,4.208,0,0,1,1.249.451c.449.823-.152,2.505-.3,3.413a11.773,11.773,0,0,1-.332,1.993,1.1,1.1,0,0,1-.254.383,2.852,2.852,0,0,1-.182,1.435l-.175.063c-14.017-4.445-27.032-11.131-39.544-18.774-2.892-1.766-6.209-3.55-8.746-5.785Z" transform="translate(-698.931 -146.205)" fill="#bc6936"/>
        <path id="Trazado_1032265" data-name="Trazado 1032265" d="M25.81,897.1l15.421-.129,6.44.023-.742,6.031a60.6,60.6,0,0,0,.94,16.394H0V896.985l23.757.116Z" transform="translate(0 -738.461)" fill="#b45a2d"/>
        <path id="Trazado_1032266" data-name="Trazado 1032266" d="M233.318,896.97l6.44.023-.742,6.031-2.172-1.336A7.15,7.15,0,0,1,233.318,896.97Z" transform="translate(-192.087 -738.461)" fill="#bc6936"/>
        <path id="Trazado_1032267" data-name="Trazado 1032267" d="M1041.057,896.719l12.84.047,29.095.038,10.423.018a24.522,24.522,0,0,1,4.328.092,6.964,6.964,0,0,1,1.518,1.935l2.25,3.24,8.4,11.976a49.126,49.126,0,0,1,3.374,4.911l-.5.235h-61.721l.12-.392-11.472-15.928c-1.325-1.815-2.508-3.811-3.935-5.539a1.888,1.888,0,0,0-.705-.553l1.408-.077Z" transform="translate(-852.157 -738.255)" fill="#cd7944"/>
        <path id="Trazado_1032268" data-name="Trazado 1032268" d="M1403.585,897.193l13.51-.077,23.584-.04,16.968.021c2.54.007,5.326-.225,7.839.039a1.494,1.494,0,0,1,.27.638c.164,1.667.025,3.5.028,5.178l0,11.486-.014,3.241a5.907,5.907,0,0,1-.037,1.347,1.364,1.364,0,0,1-.251.426h-60.72l.5-.235a49.168,49.168,0,0,0-3.374-4.911l-8.4-11.976-2.25-3.24a6.96,6.96,0,0,0-1.518-1.935,32.772,32.772,0,0,0,5.012-.067,23.06,23.06,0,0,0,5.34,0Z" transform="translate(-1144.135 -738.494)" fill="#cd7944"/>
        <path id="Trazado_1032269" data-name="Trazado 1032269" d="M1394.732,897.447a23.06,23.06,0,0,0,5.34,0l3.513.1c1.387.652,2.891,1.088,4.337,1.6l8.156,2.831,12.946,4.527c.816.251,8.721,11.181,10.021,12.906l-.03.392h-34.253l.5-.235a49.147,49.147,0,0,0-3.374-4.911l-8.4-11.976-2.25-3.24a6.964,6.964,0,0,0-1.518-1.935A32.779,32.779,0,0,0,1394.732,897.447Z" transform="translate(-1144.135 -738.854)" fill="#e7924d"/>
        <path id="Trazado_1032270" data-name="Trazado 1032270" d="M696.042,896.841c.864.189,1.728.489,2.605.592a12.748,12.748,0,0,0,4.751-.571l26.68.038a1.886,1.886,0,0,1,.705.553c1.428,1.728,2.61,3.723,3.936,5.539l11.472,15.927-.12.392H665.534l-.921-14.174,4.789-.567,1.213-3.512,1.495-4.185,21.4,0Z" transform="translate(-547.165 -738.355)" fill="#bc6936"/>
        <path id="Trazado_1032271" data-name="Trazado 1032271" d="M672.109,897.014l21.4,0a1.151,1.151,0,0,1,.614.393c.854,1.047,1.58,2.25,2.355,3.358l4.1,5.809,9.044,12.881H665.534l-.921-14.174,4.789-.567,1.213-3.511Z" transform="translate(-547.165 -738.494)" fill="#b45a2d"/>
        <path id="Trazado_1032272" data-name="Trazado 1032272" d="M670.615,920.712a79.619,79.619,0,0,1,8.319,11.3,31.352,31.352,0,0,1,3.393,6.951H665.534l-.921-14.174,4.789-.567Z" transform="translate(-547.165 -758.008)" fill="#193451"/>
        <path id="Trazado_1032273" data-name="Trazado 1032273" d="M733,500.47a21.908,21.908,0,0,0,6.17,5.051,17.5,17.5,0,0,0-2.546,3.54,12.675,12.675,0,0,0-.774,6.279l12.29,1.387,1.984.2L748.9,530.939l-1.8,20.285-.571,6.3a23.674,23.674,0,0,1-.643,4.965,11.72,11.72,0,0,1-12.321,8.62c-.877-.1-1.741-.4-2.605-.592l-2.531.03-21.4,0,6.45-17.418,12.227-32.66a25.744,25.744,0,0,0,.982-2.8,94.383,94.383,0,0,0,1.573-9.539,18.938,18.938,0,0,0,.448-4.857l.258-.821Z" transform="translate(-582.089 -412.029)" fill="#7b2a23"/>
        <path id="Trazado_1032274" data-name="Trazado 1032274" d="M820.011,500.47a21.907,21.907,0,0,0,6.17,5.051,17.492,17.492,0,0,0-2.547,3.54,12.676,12.676,0,0,0-.774,6.279l-1.35-.127a6.772,6.772,0,0,0-.772,2.382l-1.546,6.108L815.7,537.235c-.481-.684-.5-2.571-.657-3.464l-2.327-13.3a25.756,25.756,0,0,0,.982-2.8,94.382,94.382,0,0,0,1.573-9.539,18.937,18.937,0,0,0,.448-4.857l.258-.821Z" transform="translate(-669.101 -412.029)" fill="#6baec4"/>
        <path id="Trazado_1032275" data-name="Trazado 1032275" d="M713.483,646.306l12.227-32.66,2.327,13.3c.158.893.176,2.78.657,3.464l-2.761,10.626c-1.6,6-3.772,12.468-.151,18.214a13.714,13.714,0,0,0,4.585,4.189l.6.251-2.531.03-21.4,0Z" transform="translate(-582.089 -505.205)" fill="#586c65"/>
        <path id="Trazado_1032276" data-name="Trazado 1032276" d="M713.483,798.464l4.219,6.9a49.569,49.569,0,0,0,2.623,4.33,16.073,16.073,0,0,0,9.289,5.79l.752.109.6.251-2.531.03-21.4,0Z" transform="translate(-582.089 -657.363)" fill="#6baec4"/>
        <path id="Trazado_1032277" data-name="Trazado 1032277" d="M1186.549,544.11a9.331,9.331,0,0,0,2.571.138,1.679,1.679,0,0,1,.226.628c.115,1.2.033,2.5.039,3.709l.05,7.381.081,11.9c.007,1.647.184,3.479.023,5.107a4.46,4.46,0,0,1-.1,1.756,48.026,48.026,0,0,1,.115,7.12l.094,14.728.034,3.268a6.677,6.677,0,0,0,.071,1.576,72.633,72.633,0,0,1,6.259-13.822,82.613,82.613,0,0,1,6.121-8.706c6.565-8.372,14.925-16.57,24.252-21.79-2.5,6.025-6.079,11.3-9.9,16.545a201.231,201.231,0,0,1-17.93,21.255l.125.143a101.753,101.753,0,0,1,9.26-7.756,106.365,106.365,0,0,1,20.828-11.754,43.11,43.11,0,0,1,12.04-3.585c-6.355,7.676-13.8,13.712-21.984,19.342a147.846,147.846,0,0,1-18,10.75,94.171,94.171,0,0,1-10.114,4.506,23.057,23.057,0,0,1-5.34,0,6.722,6.722,0,0,0-1.769-.812l-4.453-2a122.362,122.362,0,0,1-13.5-7.228,151.694,151.694,0,0,1-30.224-24.934,98.156,98.156,0,0,1,36.372,18.33c2.251,1.845,4.321,3.9,6.4,5.931a13.017,13.017,0,0,0-2-2.692l-9.8-11.481-4.218-5.3a102.88,102.88,0,0,1-10.978-19.319,84.218,84.218,0,0,1,8.032,5.863,87.139,87.139,0,0,1,12.153,11.545,84.106,84.106,0,0,1,15.328,27.708c.27-2.841.03-5.911.009-8.776l-.055-16.935c0-.872.212-7.879.046-8.2a28.625,28.625,0,0,0-2.957-1.432,38.363,38.363,0,0,1-5.487-3.4,56.2,56.2,0,0,1-13.947-15.161,48.69,48.69,0,0,1,19.464,13.7,47.4,47.4,0,0,1,2.949,4.1l-.037-13.047.019-5.859A9.683,9.683,0,0,0,1186.549,544.11Z" transform="translate(-972.203 -447.957)" fill="#825f2c"/>
        <path id="Trazado_1032278" data-name="Trazado 1032278" d="M762.842,245.967l21.123,12.076L789,260.564l6.006,2.792c.67.305,2.265.825,2.663,1.368l.2.14a10.348,10.348,0,0,1,3.294,1.2l6.811,2.949a12.594,12.594,0,0,1,2.645,1.168l.111.139c-.728,1.265-1.575,3.181-2.64,4.135-.1.444-.187.463-.548.754.09.768-1.642,3.1-2.163,3.786a1.78,1.78,0,0,1-.3.3,54.354,54.354,0,0,1-3.336,4.589c-4.787,6.149-10.364,10.9-18.115,12.69a41.184,41.184,0,0,1-6.037.924,7.182,7.182,0,0,1-2.212,0,13.243,13.243,0,0,1-3.043-1.5,21.909,21.909,0,0,1-6.17-5.051l-4.029,1.978-2.061.923-4.732,1.788a24.211,24.211,0,0,0-3.32,1.394l-.133-.042a29.624,29.624,0,0,1-1.219-5.02L748.09,276.2a42.383,42.383,0,0,1-.76-6.186l.208.046c2.5.41,5.553-2.205,7.442-3.634a5.372,5.372,0,0,0,1.454-1.813,10.22,10.22,0,0,0,.542-3.553,47.713,47.713,0,0,1,.442-4.867,21.346,21.346,0,0,1,1.793-5.568A16.264,16.264,0,0,1,762.842,245.967Z" transform="translate(-615.264 -202.501)" fill="#e7924d"/>
        <path id="Trazado_1032279" data-name="Trazado 1032279" d="M987.925,352.11l.2.14a3.07,3.07,0,0,1-1.479,1.819,6.793,6.793,0,0,1-2.244.839,8.161,8.161,0,0,1-3.523.045,4.055,4.055,0,0,1-2.461-1.527l.238-.234a13.861,13.861,0,0,0,3.1.14C983.51,353.219,986.46,353.13,987.925,352.11Z" transform="translate(-805.515 -289.887)" fill="#1e1410"/>
        <path id="Trazado_1032280" data-name="Trazado 1032280" d="M911.561,472.651a10.416,10.416,0,0,1,3.805.2A8.082,8.082,0,0,1,920.359,477c-1.453-.57-2.766-1.513-4.263-2.094-3.284-1.29-7.018-.568-10.183.655a11.817,11.817,0,0,1,4.117-2.512Z" transform="translate(-745.824 -389.055)" fill="#cd7944"/>
        <path id="Trazado_1032281" data-name="Trazado 1032281" d="M1041.706,419.046a2.746,2.746,0,0,1,1.723.334,2.436,2.436,0,0,1,1,1.553,2.967,2.967,0,0,1-.495,2.236,2.8,2.8,0,0,1-2.14,1.131,2.63,2.63,0,0,1-1.048-.14,2.084,2.084,0,0,1-1.209-1.192,3.036,3.036,0,0,1-.042-2.035A3.209,3.209,0,0,1,1041.706,419.046Z" transform="translate(-855.672 -344.985)" fill="#f2ece3"/>
        <path id="Trazado_1032282" data-name="Trazado 1032282" d="M1044.612,423.512a2.415,2.415,0,0,1,1.3.213,1.563,1.563,0,0,1,.728,1.069,2.177,2.177,0,0,1-.385,1.521,2.42,2.42,0,0,1-1.71,1.026,1,1,0,0,1-.509-.065,1.558,1.558,0,0,1-1.025-.937,2.006,2.006,0,0,1,.021-1.531A2.441,2.441,0,0,1,1044.612,423.512Z" transform="translate(-858.578 -348.666)" fill="#1e1410"/>
        <path id="Trazado_1032283" data-name="Trazado 1032283" d="M966.2,377.652a5.239,5.239,0,0,1,1.456.042,2.236,2.236,0,0,1,1.455,1.094,2.587,2.587,0,0,1,.271,1.9,3.51,3.51,0,0,1-2.026,2.1,3.568,3.568,0,0,1-1.589-.031,2.311,2.311,0,0,1-1.392-1.284,2.68,2.68,0,0,1-.11-2.014A3.092,3.092,0,0,1,966.2,377.652Z" transform="translate(-793.747 -310.891)" fill="#f2ece3"/>
        <path id="Trazado_1032284" data-name="Trazado 1032284" d="M969.422,381.321l.5.022a1.743,1.743,0,0,1,1.351.687,1.889,1.889,0,0,1,.336,1.505c-.187.844-1,1.286-1.671,1.7a3.636,3.636,0,0,1-1.044-.028,1.793,1.793,0,0,1-1.084-.878,2.418,2.418,0,0,1-.053-1.74A2.489,2.489,0,0,1,969.422,381.321Z" transform="translate(-796.625 -313.936)" fill="#1e1410"/>
        <path id="Trazado_1032285" data-name="Trazado 1032285" d="M983.229,382.508a4.275,4.275,0,0,1,.292.735,6.473,6.473,0,0,1-.232,1.449l-1.14,5.476a60.058,60.058,0,0,1-1.877,7.856,4.841,4.841,0,0,1-1.52-.608l-4.1-1.909-2.252-1.238a23.066,23.066,0,0,1,4.358.965l2.444-4.705,2.741-4.9a16.659,16.659,0,0,0,1.181-2.215A2.258,2.258,0,0,0,983.229,382.508Z" transform="translate(-800.563 -314.913)" fill="#cd7944"/>
        <path id="Trazado_1032286" data-name="Trazado 1032286" d="M941.968,314.3l5.039,2.521,6.006,2.792c.67.305,2.266.825,2.663,1.368-1.465,1.02-4.414,1.109-6.171,1.222a13.429,13.429,0,0,0-3.071-1.715l-7.188-3.893Z" transform="translate(-773.266 -258.762)" fill="#cd7944"/>
        <path id="Trazado_1032287" data-name="Trazado 1032287" d="M808.133,411.408a15.945,15.945,0,0,1-2.441-8.8c.04-4.579,1.614-10.539,4.958-13.837-.875,1.621-2.124,3.41-2.357,5.261a11.761,11.761,0,0,0,.377,3.811,26.7,26.7,0,0,0,5.554,10.668l-4.029,1.978Z" transform="translate(-663.313 -320.066)" fill="#cd7944"/>
        <path id="Trazado_1032288" data-name="Trazado 1032288" d="M1016,352.9a10.347,10.347,0,0,1,3.294,1.2l6.811,2.949a12.6,12.6,0,0,1,2.646,1.168l.111.139c-.728,1.265-1.575,3.181-2.64,4.135-.1.444-.187.463-.548.754l-.585.164a.743.743,0,0,1-.656.194c-1.642-.154-3.683-2.312-4.741-3.453l.049-.358c-.378-.672-6.174-3.249-7.464-4.232a6.79,6.79,0,0,0,2.244-.839A3.07,3.07,0,0,0,1016,352.9Z" transform="translate(-833.394 -290.54)" fill="#cd7944"/>
        <path id="Trazado_1032289" data-name="Trazado 1032289" d="M1054.24,385.062c.247-.655.385-1.477.972-1.9.472.026.723-.027,1.066.365.549.63.86,1.486,1.4,2.14.615.741,1.965,1.437,2.312,2.276l-.357.378a.743.743,0,0,1-.656.194C1057.34,388.361,1055.3,386.2,1054.24,385.062Z" transform="translate(-867.939 -315.45)" fill="#1e1410"/>
        <path id="Trazado_1032290" data-name="Trazado 1032290" d="M798.486,245.967l21.123,12.076-2.722,2.295a26.041,26.041,0,0,1-9.159,4.817c.657-1.722,1.183-3.48.375-5.271a3.9,3.9,0,0,0-2.352-2.225,5.386,5.386,0,0,0-3.9.405,6.05,6.05,0,0,0-2.758,3.61,6.134,6.134,0,0,0,.463,4.922,8.47,8.47,0,0,0,.947,1.258c.092.111.062.069.106.222a8.183,8.183,0,0,1-6.438.39,11.932,11.932,0,0,1-3.549-2.036,5.371,5.371,0,0,0,1.454-1.813,10.218,10.218,0,0,0,.542-3.553,47.73,47.73,0,0,1,.442-4.867,21.348,21.348,0,0,1,1.793-5.568A16.264,16.264,0,0,1,798.486,245.967Z" transform="translate(-650.907 -202.501)" fill="#193451"/>
        <path id="Trazado_1032291" data-name="Trazado 1032291" d="M341.007,378.932c2.195-.128,4.426-.01,6.624.029a8.593,8.593,0,0,1,1.773.032,1.527,1.527,0,0,1,.249.184,1.183,1.183,0,0,1,.137.261,42.4,42.4,0,0,0,.76,6.186l2.591,15.758a29.632,29.632,0,0,0,1.219,5.021l.133.042a24.217,24.217,0,0,1,3.32-1.394l4.732-1.788,2.061-.924-.258.821a18.938,18.938,0,0,1-.448,4.857,94.38,94.38,0,0,1-1.573,9.539,25.764,25.764,0,0,1-.982,2.805l-12.227,32.66-6.45,17.418-1.494,4.185-1.213,3.512-4.789.567.921,14.174h-70.5a60.6,60.6,0,0,1-.94-16.394l.742-6.031,1.819-7.563.809-2.522-2.356-1.337A157.638,157.638,0,0,1,278.891,426.3,152.867,152.867,0,0,1,298.115,398a73.721,73.721,0,0,1,8.664-8.416,39.5,39.5,0,0,1,5.3-3.912,37.375,37.375,0,0,1,6.131-2.647C325.624,380.367,333.2,379.489,341.007,378.932Z" transform="translate(-217.725 -311.921)" fill="#097b83"/>
        <path id="Trazado_1032292" data-name="Trazado 1032292" d="M784.056,511.661l-.258.821-4.828,11.677-2.6-4.316-2.428-4.076a24.211,24.211,0,0,1,3.32-1.394l4.732-1.788Z" transform="translate(-637.174 -421.242)" fill="#f2ece3"/>
        <path id="Trazado_1032293" data-name="Trazado 1032293" d="M740.836,534.654l.133.042,2.428,4.076-5.526,12.873-3.979-.982,6.486-15.714Z" transform="translate(-604.201 -440.172)" fill="#1e4c70"/>
        <path id="Trazado_1032294" data-name="Trazado 1032294" d="M697.632,378.932c2.2-.128,4.426-.01,6.624.029a8.592,8.592,0,0,1,1.773.032,1.522,1.522,0,0,1,.249.184,1.182,1.182,0,0,1,.137.261,42.393,42.393,0,0,0,.76,6.186l2.591,15.758a29.63,29.63,0,0,0,1.219,5.021l-.459.3L698.207,412Z" transform="translate(-574.349 -311.921)" fill="#f2ece3"/>
        <path id="Trazado_1032295" data-name="Trazado 1032295" d="M539.148,763.221c.321.211.342.226.42.6a26.838,26.838,0,0,1,.283,3.519l.339,5.591-2.609,0,.25,3.4h-20a5.86,5.86,0,0,0-1.2,0c-.019.005-.241.153-.25.161l-.07.1-.593-3.69-2.393.121L512.485,766a6.848,6.848,0,0,1-.179-2.585l.5-.124,17.81.011A69.766,69.766,0,0,0,539.148,763.221Z" transform="translate(-421.698 -628.348)" fill="#f2ece3"/>
        <path id="Trazado_1032296" data-name="Trazado 1032296" d="M532.038,818l21.863.029.25,3.4h-20a5.86,5.86,0,0,0-1.2,0c-.019.005-.241.153-.25.161l-.07.1Z" transform="translate(-438.019 -673.447)" fill="#bc6936"/>
        <path id="Trazado_1032297" data-name="Trazado 1032297" d="M556.915,837.22l1.315,18.8.921,14.174H539.738l-1.823-13.777-.3-2.13-2.219-16.807.07-.1c.008-.008.23-.155.25-.161a5.856,5.856,0,0,1,1.2,0Z" transform="translate(-440.782 -689.239)" fill="#e7924d"/>
        <path id="Trazado_1032298" data-name="Trazado 1032298" d="M268.024,840.032c14.161,8.376,30.389,13.727,46.532,16.6l.3,2.131,1.823,13.776H265.594a60.6,60.6,0,0,1-.94-16.394l.742-6.031,1.819-7.563Z" transform="translate(-217.725 -691.585)" fill="#1e4c70"/>
        <path id="Trazado_1032299" data-name="Trazado 1032299" d="M280.864,840.032c14.161,8.376,30.389,13.727,46.532,16.6l.3,2.131-.224.334a42.542,42.542,0,0,1-7.762-1.252,139.715,139.715,0,0,1-32.924-11.376l-4.343-2.349a13.163,13.163,0,0,1-2.388-1.569Z" transform="translate(-230.565 -691.585)" fill="#193451"/>
        <path id="Trazado_1032300" data-name="Trazado 1032300" d="M495.506,475.091l.017-.087a11.5,11.5,0,0,0-.2-2.881l-.578-5.683-2.49-25-.7-6.985a25.281,25.281,0,0,1-.2-6.643,17.283,17.283,0,0,1,6.695-11.568,15.1,15.1,0,0,1,11.128-2.935,14.88,14.88,0,0,1,10,6.186,15.117,15.117,0,0,1,2.757,11.031l-1.061,5.389a17.135,17.135,0,0,0-.478,2.634c-.081,1.992.12,4.071.216,6.063l.321,8.349.537,16.234.133,3.922a4.519,4.519,0,0,0,.244,1.9,69.771,69.771,0,0,1-8.535.078Z" transform="translate(-404.401 -340.15)" fill="#6baec4"/>
      </g>
    </g>
  </g>
</svg>
