<svg xmlns="http://www.w3.org/2000/svg" xmlns:xlink="http://www.w3.org/1999/xlink" width="118" height="118" viewBox="0 0 118 118">
  <defs>
    <filter id="Trazado_896985" x="0" y="0" width="118" height="118" filterUnits="userSpaceOnUse">
      <feOffset dy="3" input="SourceAlpha"/>
      <feGaussianBlur stdDeviation="3" result="blur"/>
      <feFlood flood-opacity="0.161"/>
      <feComposite operator="in" in2="blur"/>
      <feComposite in="SourceGraphic"/>
    </filter>
  </defs>
  <g id="Grupo_1200012" data-name="Grupo 1200012" transform="translate(-197.84 -4278.889)">
    <g id="Grupo_1198723" data-name="Grupo 1198723" transform="translate(0.95 -182.434)">
      <g id="Grupo_1198139" data-name="Grupo 1198139" transform="translate(-129 615.322)">
        <g id="Grupo_1111318" data-name="Grupo 1111318" transform="translate(334.891 3852)">
          <g id="Grupo_1109826" data-name="Grupo 1109826" transform="translate(0)">
            <g id="Grupo_1098742" data-name="Grupo 1098742" transform="translate(0 0)">
              <g transform="matrix(1, 0, 0, 1, -9, -6)" filter="url(#Trazado_896985)">
                <g id="Trazado_896985-2" data-name="Trazado 896985" transform="translate(9 6)" fill="#fc0" opacity="0.859">
                  <path d="M 49.99993515014648 99.5 C 43.31726837158203 99.5 36.83476257324219 98.19129943847656 30.73248100280762 95.61025238037109 C 24.83812141418457 93.11714172363281 19.54434776306152 89.54795837402344 14.99820137023926 85.00179290771484 C 10.45204162597656 80.45565032958984 6.88285493850708 75.16187286376953 4.389748573303223 69.26751708984375 C 1.808695197105408 63.16523742675781 0.5000017881393433 56.6827278137207 0.5000017881393433 50.00006103515625 C 0.5000017881393433 43.31726455688477 1.808695197105408 36.83475494384766 4.389748573303223 30.73247528076172 C 6.88285493850708 24.83811569213867 10.45204162597656 19.54434204101562 14.99820137023926 14.99819660186768 C 19.54434776306152 10.45203590393066 24.83812141418457 6.88284969329834 30.73248100280762 4.389742851257324 C 36.83476257324219 1.808689475059509 43.31726837158203 0.4999961853027344 49.99993515014648 0.4999961853027344 C 56.68260192871094 0.4999961853027344 63.16510772705078 1.808689475059509 69.26738739013672 4.389742851257324 C 75.16175079345703 6.88284969329834 80.45552062988281 10.45203590393066 85.00167083740234 14.99819660186768 C 89.54782867431641 19.54434204101562 93.11701202392578 24.83811569213867 95.61012268066406 30.73247528076172 C 98.19117736816406 36.83475494384766 99.49987030029297 43.31726455688477 99.49987030029297 49.99993133544922 C 99.49987030029297 56.6827278137207 98.19117736816406 63.16523742675781 95.61012268066406 69.26751708984375 C 93.11701202392578 75.16187286376953 89.54782867431641 80.45565032958984 85.00167083740234 85.00179290771484 C 80.45552062988281 89.54795837402344 75.16175079345703 93.11714172363281 69.26738739013672 95.61025238037109 C 63.16510772705078 98.19129943847656 56.68260192871094 99.5 49.99993515014648 99.5 Z" stroke="none"/>
                  <path d="M 49.99993515014648 0.9999923706054688 C 43.38454818725586 0.9999923706054688 36.96757507324219 2.29541015625 30.92725372314453 4.850250244140625 C 25.09249877929688 7.318145751953125 19.85213470458984 10.85135650634766 15.35174560546875 15.35174560546875 C 10.85136413574219 19.85212707519531 7.318145751953125 25.09249114990234 4.850257873535156 30.92724609375 C 2.295417785644531 36.96757125854492 1 43.38454437255859 1 50.00006103515625 C 1 56.61544799804688 2.295417785644531 63.03242111206055 4.850257873535156 69.07273864746094 C 7.318145751953125 74.90750122070312 10.85136413574219 80.14786529541016 15.35174560546875 84.64824676513672 C 19.85213470458984 89.14863586425781 25.09249877929688 92.68184661865234 30.92725372314453 95.14974212646484 C 36.96757507324219 97.70458221435547 43.38454818725586 99 49.99993515014648 99 C 56.61532211303711 99 63.03229522705078 97.70458221435547 69.07261657714844 95.14974212646484 C 74.90737915039062 92.68184661865234 80.14773559570312 89.14863586425781 84.64812469482422 84.64824676513672 C 89.14850616455078 80.14786529541016 92.68172454833984 74.90750122070312 95.14961242675781 69.07273864746094 C 97.70445251464844 63.03242111206055 98.99987030029297 56.61544799804688 98.99987030029297 49.99993133544922 C 98.99987030029297 43.38454437255859 97.70445251464844 36.96757125854492 95.14961242675781 30.92724609375 C 92.68172454833984 25.09249114990234 89.14850616455078 19.85212707519531 84.64812469482422 15.35174560546875 C 80.14773559570312 10.85135650634766 74.90737915039062 7.318145751953125 69.07261657714844 4.850250244140625 C 63.03229522705078 2.29541015625 56.61532211303711 0.9999923706054688 49.99993515014648 0.9999923706054688 M 49.99993515014648 -7.62939453125e-06 C 77.6141357421875 -7.62939453125e-06 99.99987030029297 22.38572692871094 99.99987030029297 49.99993133544922 L 99.99987030029297 50.00006103515625 C 99.99987030029297 77.61426544189453 77.6141357421875 100 49.99993515014648 100 C 22.38573455810547 100 0 77.61426544189453 0 50.00006103515625 L 0 49.99993133544922 C 0 22.38572692871094 22.38573455810547 -7.62939453125e-06 49.99993515014648 -7.62939453125e-06 Z" stroke="none" fill="#fff"/>
                </g>
              </g>
              <g id="Rectángulo_400907" data-name="Rectángulo 400907" transform="translate(0)" fill="none" stroke="#fff" stroke-width="1">
                <rect width="100" height="100" rx="50" stroke="none"/>
                <rect x="0.5" y="0.5" width="99" height="99" rx="49.5" fill="none"/>
              </g>
            </g>
          </g>
        </g>
      </g>
    </g>
    <g id="identidad-de-genero" transform="translate(195.529 4305.805)">
      <g id="Grupo_1200010" data-name="Grupo 1200010" transform="translate(36.221 0.883)">
        <path id="Trazado_1032322" data-name="Trazado 1032322" d="M87.057,340.133l-.118-.416a1.538,1.538,0,0,1-1.388-1.529V337.5H75.025a11.231,11.231,0,0,0-11.231,11.231v6.971a1.455,1.455,0,0,0,1.455,1.455h21.69l.118-.432Z" transform="translate(-61.328 -298.658)" fill="#8ac9fe"/>
        <g id="Grupo_1200009" data-name="Grupo 1200009" transform="translate(0)">
          <g id="Grupo_1200004" data-name="Grupo 1200004">
            <g id="Grupo_1200003" data-name="Grupo 1200003">
              <path id="Trazado_1032323" data-name="Trazado 1032323" d="M53.9,113.518a4.33,4.33,0,0,0,4.33,4.33H61.4a1.177,1.177,0,0,1,1.177,1.177v4.913a11.154,11.154,0,0,1,1.592-.115H74.576v-7.772H70.412a1.65,1.65,0,0,1-1.648-1.648v-2.454a.2.2,0,0,1,.2-.2,2.549,2.549,0,0,0,2.546-2.546v-4.249a2.549,2.549,0,0,0-2.546-2.546h-1.5a2.559,2.559,0,0,0-2.386,1.666.316.316,0,0,1-.3.2H63.588a.321.321,0,0,1-.317-.266l-1.424-8.082a.9.9,0,0,0-.889-.746H54.246L53.9,95.3v7.954a2.184,2.184,0,0,1-.338,1.166l-1.772,2.8a1.931,1.931,0,0,0,.437,2.567,3.381,3.381,0,0,0,1.673.673v3.052Z" transform="translate(-50.471 -84.862)" fill="#d78878"/>
              <g id="Grupo_1200002" data-name="Grupo 1200002" transform="translate(20.399 31.191)">
                <path id="Trazado_1032324" data-name="Trazado 1032324" d="M216.145,272.479h3.706v7.772h-3.706Z" transform="translate(-216.145 -272.479)" fill="#c96e59"/>
              </g>
              <path id="Trazado_1032325" data-name="Trazado 1032325" d="M67.07,18.143a9.023,9.023,0,0,1,2.871-6.6A7.2,7.2,0,0,0,63.467,7.5H46.284a3.431,3.431,0,0,0-2.993,5.109l2.989,5.33h7.056a.785.785,0,0,1,.773.649l1.424,8.082a.439.439,0,0,0,.433.363h1.189a.434.434,0,0,0,.408-.278,2.435,2.435,0,0,1,2.275-1.589h1.5a2.436,2.436,0,0,1,2.429,2.429v4.249a2.436,2.436,0,0,1-2.429,2.429.318.318,0,0,0-.318.318v2.453a1.766,1.766,0,0,0,1.766,1.766H67.07V18.143Z" transform="translate(-42.848 -7.5)" fill="#5a5a5a"/>
              <path id="Trazado_1032326" data-name="Trazado 1032326" d="M222.933,18.25a7.253,7.253,0,0,0-2.994-3.146,9.152,9.152,0,0,0-3.688,7.35V32.823a2.411,2.411,0,0,1,.51,1.48v4.249a2.411,2.411,0,0,1-.51,1.48v5.485h3.811V24.852A9.023,9.023,0,0,1,222.933,18.25Z" transform="translate(-195.839 -14.209)" fill="#444"/>
            </g>
            <path id="Trazado_1032327" data-name="Trazado 1032327" d="M63.794,473v2.253a1.455,1.455,0,0,0,1.455,1.455h21.69V473Z" transform="translate(-61.328 -418.205)" fill="#60b7ff"/>
          </g>
          <g id="Grupo_1200008" data-name="Grupo 1200008" transform="translate(11.437 1.478)">
            <path id="Trazado_1032328" data-name="Trazado 1032328" d="M319.826,101.405a2.215,2.215,0,0,1-1.054-1.867V89.89a14.634,14.634,0,0,1-5.18,6.083,18.181,18.181,0,0,1-6.362,2.607.214.214,0,0,1-.042,0,.194.194,0,0,1-.139-.057,2.523,2.523,0,0,0-1.836-.787h-.83a3.222,3.222,0,0,0-3.219,3.219v3.576a2.553,2.553,0,0,0,2.546,2.546.2.2,0,0,1,.2.2v9a4.956,4.956,0,0,1-.791,2.69l-.117.182h2.92a13.425,13.425,0,0,1,4.032.617v-5.415a1.177,1.177,0,0,1,1.177-1.177h3.309a4.331,4.331,0,0,0,4.331-4.33V105.8a2.384,2.384,0,0,0,1.054-4.391Z" transform="translate(-282.195 -81.669)" fill="#ffcebf"/>
            <g id="Grupo_1200005" data-name="Grupo 1200005" transform="translate(24.681 31.51)">
              <path id="Trazado_1032329" data-name="Trazado 1032329" d="M349.68,289.5v4.245a13.393,13.393,0,0,1,3.079.582v-5.415a1.177,1.177,0,0,1,1.177-1.177h-2.491A1.766,1.766,0,0,0,349.68,289.5Z" transform="translate(-349.68 -287.738)" fill="#ffb09e"/>
            </g>
            <path id="Trazado_1032330" data-name="Trazado 1032330" d="M269.971,337.5h-2.846a4.974,4.974,0,0,1-4.141,2.222h-2.418c-.05,0-.1,0-.149-.008V357.16h21.69a1.455,1.455,0,0,0,1.455-1.455v-4.612A13.59,13.59,0,0,0,269.971,337.5Z" transform="translate(-246.242 -300.135)" fill="#fe93d3"/>
            <path id="Trazado_1032331" data-name="Trazado 1032331" d="M277.01,354.173a13.528,13.528,0,0,1,2.546,7.92v4.3a1.766,1.766,0,0,1-1.766,1.766H260.417v3.708h21.69a1.455,1.455,0,0,0,1.455-1.455V365.8A13.583,13.583,0,0,0,277.01,354.173Z" transform="translate(-246.243 -314.843)" fill="#fe73c5"/>
            <g id="Grupo_1200006" data-name="Grupo 1200006" transform="translate(0 43.02)">
              <path id="Trazado_1032332" data-name="Trazado 1032332" d="M312.755,399.526v-9.452a4.553,4.553,0,1,0-9.106,0v9.452Z" transform="translate(-284.386 -385.521)" fill="#feaee1"/>
              <path id="Trazado_1032333" data-name="Trazado 1032333" d="M303.649,473h9.106v3.708h-9.106Z" transform="translate(-284.386 -462.703)" fill="#fe93d3"/>
              <path id="Trazado_1032334" data-name="Trazado 1032334" d="M149.111,399.526v-9.452a4.553,4.553,0,1,0-9.106,0v9.452Z" transform="translate(-140.005 -385.521)" fill="#b3dafe"/>
              <path id="Trazado_1032335" data-name="Trazado 1032335" d="M140.005,473h9.106v3.708h-9.106Z" transform="translate(-140.005 -462.703)" fill="#8ac9fe"/>
            </g>
            <path id="Trazado_1032336" data-name="Trazado 1032336" d="M267.521,20.052H256.795a9.166,9.166,0,0,0-9.166,9.166V58.1a1.654,1.654,0,0,0,1.654,1.654H251.7a5.093,5.093,0,0,0,5.094-5.093v-9a.319.319,0,0,0-.313-.322,2.436,2.436,0,0,1-2.434-2.429V39.341a3.11,3.11,0,0,1,3.1-3.1h.83a2.421,2.421,0,0,1,1.751.751.314.314,0,0,0,.29.087,18.251,18.251,0,0,0,6.4-2.624,14.811,14.811,0,0,0,5.885-7.828,5.03,5.03,0,0,0-4.787-6.574Z" transform="translate(-234.96 -20.052)" fill="#ffd15b"/>
            <g id="Grupo_1200007" data-name="Grupo 1200007" transform="translate(12.668 0.547)">
              <path id="Trazado_1032337" data-name="Trazado 1032337" d="M256.481,221.366a2.436,2.436,0,0,1-2.35-1.811v7.554a5.093,5.093,0,0,1-5.094,5.094h-1.409v1.922a1.654,1.654,0,0,0,1.654,1.654H251.7a5.093,5.093,0,0,0,5.094-5.094v-9A.319.319,0,0,0,256.481,221.366Z" transform="translate(-247.628 -196.618)" fill="#ffc344"/>
              <path id="Trazado_1032338" data-name="Trazado 1032338" d="M318.55,24.7a5,5,0,0,1-.163,2.451,14.811,14.811,0,0,1-5.885,7.828,17.764,17.764,0,0,1-4.282,2.059,11.384,11.384,0,0,1-2.643.528,3.029,3.029,0,0,0-2.7,2.966v2.2a3.113,3.113,0,0,1,3.018-2.392h.83a2.421,2.421,0,0,1,1.751.751.309.309,0,0,0,.286.088,18.252,18.252,0,0,0,6.407-2.625,14.81,14.81,0,0,0,5.885-7.828A5.033,5.033,0,0,0,318.55,24.7Z" transform="translate(-296.371 -24.699)" fill="#ffc344"/>
            </g>
          </g>
        </g>
      </g>
      <g id="Grupo_1200011" data-name="Grupo 1200011" transform="translate(35.337 0)">
        <path id="Trazado_1032339" data-name="Trazado 1032339" d="M99.424,147.64v-1.59a.883.883,0,1,0-1.766,0v1.59a.883.883,0,0,0,1.766,0Z" transform="translate(-90.322 -128.079)"/>
        <path id="Trazado_1032340" data-name="Trazado 1032340" d="M107.536,216.024a.883.883,0,0,0-.883.883,2.03,2.03,0,0,1-2.028,2.028.883.883,0,1,0,0,1.766,3.8,3.8,0,0,0,3.793-3.793A.883.883,0,0,0,107.536,216.024Z" transform="translate(-95.691 -190.595)"/>
        <path id="Trazado_1032341" data-name="Trazado 1032341" d="M410.973,156.727a.883.883,0,0,0,.883-.883v-1.59a.883.883,0,0,0-1.766,0v1.59A.883.883,0,0,0,410.973,156.727Z" transform="translate(-365.977 -135.317)"/>
        <path id="Trazado_1032342" data-name="Trazado 1032342" d="M386.715,220.7a.883.883,0,1,0,0-1.766,2.03,2.03,0,0,1-2.028-2.028.883.883,0,0,0-1.766,0A3.8,3.8,0,0,0,386.715,220.7Z" transform="translate(-342.007 -190.595)"/>
        <path id="Trazado_1032343" data-name="Trazado 1032343" d="M76.6,34.753H79.9a5.219,5.219,0,0,0,5.213-5.213V27.193a3.269,3.269,0,0,0,.642-5.843,1.331,1.331,0,0,1-.642-1.121V11.058a16.055,16.055,0,0,0,.727-1.852,5.912,5.912,0,0,0-5.627-7.728h-3.25a.883.883,0,0,0,0,1.766h3.25a4.147,4.147,0,0,1,3.947,5.42,13.969,13.969,0,0,1-5.532,7.363,17.342,17.342,0,0,1-5.81,2.435,3.325,3.325,0,0,0-2.146-.795h-.83a3.988,3.988,0,0,0-3.984,3.984v3.576a3.323,3.323,0,0,0,2.746,3.263v8.484A4.215,4.215,0,0,1,64.4,41.185H61.98c-.024,0-.047,0-.071,0H61.9a.772.772,0,0,1-.689-.767V11.526a8.293,8.293,0,0,1,8.283-8.283h3.356a.883.883,0,1,0,0-1.766H69.492a10,10,0,0,0-6.007,2A8.057,8.057,0,0,0,56.841,0H39.657a4.314,4.314,0,0,0-3.763,6.424l2.876,5.129v7.724a1.3,1.3,0,0,1-.2.694l-1.773,2.8a2.825,2.825,0,0,0,.651,3.743,4.426,4.426,0,0,0,1.323.684v2.338a5.219,5.219,0,0,0,5.213,5.213h3.165a.3.3,0,0,1,.294.294V39.1a12.049,12.049,0,0,0-4.093,1.678.883.883,0,1,0,.958,1.483,10.309,10.309,0,0,1,5.609-1.651h9.535a2.54,2.54,0,0,0,1.5,2.118V48.85a.883.883,0,1,0,1.766,0v-5.9H64.4a5.969,5.969,0,0,0,4.738-2.339h2.25A12.722,12.722,0,0,1,84.093,53.318V57.93a.573.573,0,0,1-.572.572H76.91V49.934a5.436,5.436,0,0,0-10.872,0V58.5H62.714V52.97a.883.883,0,0,0-1.766,0V58.5h-3.3V49.934a5.436,5.436,0,0,0-10.872,0V58.5H40.142a.573.573,0,0,1-.572-.572V50.959a10.271,10.271,0,0,1,1.979-6.087.883.883,0,0,0-1.427-1.04A12.024,12.024,0,0,0,37.8,50.959V57.93a2.341,2.341,0,0,0,2.338,2.338H83.521a2.341,2.341,0,0,0,2.338-2.338V53.318A14.5,14.5,0,0,0,76.3,39.7V35.047a.3.3,0,0,1,.294-.294ZM37.458,3.026a2.524,2.524,0,0,1,2.2-1.26H56.841a6.3,6.3,0,0,1,5.318,2.9,10.01,10.01,0,0,0-2.715,6.859V31.309H56.162a.884.884,0,0,1-.883-.883V28.49a3.317,3.317,0,0,0,2.746-3.263V20.977a3.315,3.315,0,0,0-3.311-3.311h-1.5a3.327,3.327,0,0,0-2.976,1.867h-.525l-1.359-7.716a1.665,1.665,0,0,0-1.643-1.379H40.17L37.434,5.56a2.524,2.524,0,0,1,.024-2.534Zm11.75,35.842v-3.82a2.062,2.062,0,0,0-2.06-2.06H43.984a3.452,3.452,0,0,1-3.448-3.448V26.487a.883.883,0,0,0-.8-.879,2.5,2.5,0,0,1-1.219-.5,1.049,1.049,0,0,1-.224-1.392l1.773-2.8a3.062,3.062,0,0,0,.474-1.638V12.2h6.091l1.409,8a1.32,1.32,0,0,0,1.3,1.093h1.189a1.321,1.321,0,0,0,1.236-.854,1.554,1.554,0,0,1,1.448-1.014h1.5a1.548,1.548,0,0,1,1.546,1.546v4.249a1.548,1.548,0,0,1-1.546,1.546,1.2,1.2,0,0,0-1.2,1.2v2.454a2.652,2.652,0,0,0,2.649,2.649h3.281v5.771H49.918c-.238,0-.474.009-.71.022ZM48.54,58.5V49.934a3.67,3.67,0,0,1,7.341,0V58.5Zm19.263,0V49.934a3.67,3.67,0,0,1,7.341,0V58.5Zm3.583-19.657H70.073a5.949,5.949,0,0,0,.3-1.871v-9a1.218,1.218,0,0,0-.355-.856,1.181,1.181,0,0,0-.84-.349h0a1.553,1.553,0,0,1-1.549-1.546V21.65a2.221,2.221,0,0,1,2.218-2.218h.83a1.531,1.531,0,0,1,1.113.479,1.2,1.2,0,0,0,1.107.34,19.179,19.179,0,0,0,6.71-2.752,15.38,15.38,0,0,0,3.745-3.518v6.248a3.087,3.087,0,0,0,1.466,2.614,1.5,1.5,0,0,1-.663,2.765.883.883,0,0,0-.8.879V29.54A3.452,3.452,0,0,1,79.9,32.987H76.6a2.062,2.062,0,0,0-2.06,2.06v4.144a14.457,14.457,0,0,0-3.149-.346Z" transform="translate(-35.337 0)"/>
      </g>
    </g>
  </g>
</svg>
