<svg xmlns="http://www.w3.org/2000/svg" xmlns:xlink="http://www.w3.org/1999/xlink" width="118" height="118" viewBox="0 0 118 118">
  <defs>
    <filter id="Trazado_896985" x="0" y="0" width="118" height="118" filterUnits="userSpaceOnUse">
      <feOffset dy="3" input="SourceAlpha"/>
      <feGaussianBlur stdDeviation="3" result="blur"/>
      <feFlood flood-opacity="0.161"/>
      <feComposite operator="in" in2="blur"/>
      <feComposite in="SourceGraphic"/>
    </filter>
  </defs>
  <g id="Grupo_1200068" data-name="Grupo 1200068" transform="translate(-617.84 -4278.889)">
    <g id="Grupo_1198724" data-name="Grupo 1198724" transform="translate(0.95 -182.434)">
      <g id="Grupo_1198140" data-name="Grupo 1198140" transform="translate(291 615.322)">
        <g id="Grupo_1111318" data-name="Grupo 1111318" transform="translate(334.891 3852)">
          <g id="Grupo_1109826" data-name="Grupo 1109826" transform="translate(0)">
            <g id="Grupo_1098742" data-name="Grupo 1098742" transform="translate(0 0)">
              <g transform="matrix(1, 0, 0, 1, -9, -6)" filter="url(#Trazado_896985)">
                <g id="Trazado_896985-2" data-name="Trazado 896985" transform="translate(9 6)" fill="#fc0" opacity="0.859">
                  <path d="M 49.99993515014648 99.5 C 43.31726837158203 99.5 36.83476257324219 98.19129943847656 30.73248100280762 95.61025238037109 C 24.83812141418457 93.11714172363281 19.54434776306152 89.54795837402344 14.99820137023926 85.00179290771484 C 10.45204162597656 80.45565032958984 6.88285493850708 75.16187286376953 4.389748573303223 69.26751708984375 C 1.808695197105408 63.16523742675781 0.5000017881393433 56.6827278137207 0.5000017881393433 50.00006103515625 C 0.5000017881393433 43.31726455688477 1.808695197105408 36.83475494384766 4.389748573303223 30.73247528076172 C 6.88285493850708 24.83811569213867 10.45204162597656 19.54434204101562 14.99820137023926 14.99819660186768 C 19.54434776306152 10.45203590393066 24.83812141418457 6.88284969329834 30.73248100280762 4.389742851257324 C 36.83476257324219 1.808689475059509 43.31726837158203 0.4999961853027344 49.99993515014648 0.4999961853027344 C 56.68260192871094 0.4999961853027344 63.16510772705078 1.808689475059509 69.26738739013672 4.389742851257324 C 75.16175079345703 6.88284969329834 80.45552062988281 10.45203590393066 85.00167083740234 14.99819660186768 C 89.54782867431641 19.54434204101562 93.11701202392578 24.83811569213867 95.61012268066406 30.73247528076172 C 98.19117736816406 36.83475494384766 99.49987030029297 43.31726455688477 99.49987030029297 49.99993133544922 C 99.49987030029297 56.6827278137207 98.19117736816406 63.16523742675781 95.61012268066406 69.26751708984375 C 93.11701202392578 75.16187286376953 89.54782867431641 80.45565032958984 85.00167083740234 85.00179290771484 C 80.45552062988281 89.54795837402344 75.16175079345703 93.11714172363281 69.26738739013672 95.61025238037109 C 63.16510772705078 98.19129943847656 56.68260192871094 99.5 49.99993515014648 99.5 Z" stroke="none"/>
                  <path d="M 49.99993515014648 0.9999923706054688 C 43.38454818725586 0.9999923706054688 36.96757507324219 2.29541015625 30.92725372314453 4.850250244140625 C 25.09249877929688 7.318145751953125 19.85213470458984 10.85135650634766 15.35174560546875 15.35174560546875 C 10.85136413574219 19.85212707519531 7.318145751953125 25.09249114990234 4.850257873535156 30.92724609375 C 2.295417785644531 36.96757125854492 1 43.38454437255859 1 50.00006103515625 C 1 56.61544799804688 2.295417785644531 63.03242111206055 4.850257873535156 69.07273864746094 C 7.318145751953125 74.90750122070312 10.85136413574219 80.14786529541016 15.35174560546875 84.64824676513672 C 19.85213470458984 89.14863586425781 25.09249877929688 92.68184661865234 30.92725372314453 95.14974212646484 C 36.96757507324219 97.70458221435547 43.38454818725586 99 49.99993515014648 99 C 56.61532211303711 99 63.03229522705078 97.70458221435547 69.07261657714844 95.14974212646484 C 74.90737915039062 92.68184661865234 80.14773559570312 89.14863586425781 84.64812469482422 84.64824676513672 C 89.14850616455078 80.14786529541016 92.68172454833984 74.90750122070312 95.14961242675781 69.07273864746094 C 97.70445251464844 63.03242111206055 98.99987030029297 56.61544799804688 98.99987030029297 49.99993133544922 C 98.99987030029297 43.38454437255859 97.70445251464844 36.96757125854492 95.14961242675781 30.92724609375 C 92.68172454833984 25.09249114990234 89.14850616455078 19.85212707519531 84.64812469482422 15.35174560546875 C 80.14773559570312 10.85135650634766 74.90737915039062 7.318145751953125 69.07261657714844 4.850250244140625 C 63.03229522705078 2.29541015625 56.61532211303711 0.9999923706054688 49.99993515014648 0.9999923706054688 M 49.99993515014648 -7.62939453125e-06 C 77.6141357421875 -7.62939453125e-06 99.99987030029297 22.38572692871094 99.99987030029297 49.99993133544922 L 99.99987030029297 50.00006103515625 C 99.99987030029297 77.61426544189453 77.6141357421875 100 49.99993515014648 100 C 22.38573455810547 100 0 77.61426544189453 0 50.00006103515625 L 0 49.99993133544922 C 0 22.38572692871094 22.38573455810547 -7.62939453125e-06 49.99993515014648 -7.62939453125e-06 Z" stroke="none" fill="#fff"/>
                </g>
              </g>
              <g id="Rectángulo_400907" data-name="Rectángulo 400907" transform="translate(0)" fill="none" stroke="#fff" stroke-width="1">
                <rect width="100" height="100" rx="50" stroke="none"/>
                <rect x="0.5" y="0.5" width="99" height="99" rx="49.5" fill="none"/>
              </g>
            </g>
          </g>
        </g>
      </g>
    </g>
    <g id="book_2501781" transform="translate(641.186 4294.772)">
      <g id="Grupo_1200021" data-name="Grupo 1200021" transform="translate(4.131 1.126)">
        <g id="Grupo_1200013" data-name="Grupo 1200013" transform="translate(15.764)">
          <path id="Trazado_1032344" data-name="Trazado 1032344" d="M31.506,11.112a2.239,2.239,0,0,0-2.241-2.241c-1.239,0-4.5,1-4.5,2.241s3.265,2.252,4.5,2.252A2.242,2.242,0,0,0,31.506,11.112Zm4.515,4.515a2.24,2.24,0,0,0,2.241,2.241c1.25,0,4.5-1,4.5-2.241s-3.254-2.252-4.5-2.252a2.247,2.247,0,0,0-2.241,2.241Zm-2.207,7.882-8.331,6.655a15.763,15.763,0,1,1,16.63-.034Z" transform="translate(-18.005 -1)" fill="#5d9cec"/>
        </g>
        <g id="Grupo_1200014" data-name="Grupo 1200014" transform="translate(0 40.548)">
          <path id="Trazado_1032345" data-name="Trazado 1032345" d="M7.372,61.771H31.018a4.5,4.5,0,0,1,4.5,4.5H4V37.01H7.372Z" transform="translate(-4.005 -37.01)" fill="#656d78"/>
        </g>
        <g id="Grupo_1200015" data-name="Grupo 1200015" transform="translate(22.52 7.871)">
          <path id="Trazado_1032346" data-name="Trazado 1032346" d="M28.509,7.99a2.246,2.246,0,0,1,0,4.493c-1.239,0-4.5-1-4.5-2.252S27.27,7.99,28.509,7.99Z" transform="translate(-24.005 -7.99)" fill="#a0d468"/>
        </g>
        <g id="Grupo_1200016" data-name="Grupo 1200016" transform="translate(31.517 40.548)">
          <path id="Trazado_1032347" data-name="Trazado 1032347" d="M63.523,37.01V66.275H32a4.5,4.5,0,0,1,4.5-4.5H60.145V37.01Z" transform="translate(-31.995 -37.01)" fill="#656d78"/>
        </g>
        <g id="Grupo_1200017" data-name="Grupo 1200017" transform="translate(33.78 12.375)">
          <path id="Trazado_1032348" data-name="Trazado 1032348" d="M36.246,11.99c1.25,0,4.5,1.012,4.5,2.252s-3.254,2.241-4.5,2.241A2.24,2.24,0,0,1,34,14.242v-.011A2.247,2.247,0,0,1,36.246,11.99Z" transform="translate(-34.005 -11.99)" fill="#a0d468"/>
        </g>
        <g id="Grupo_1200018" data-name="Grupo 1200018" transform="translate(23.242 22.509)">
          <path id="Trazado_1032349" data-name="Trazado 1032349" d="M32.977,20.99l8.3,6.621a15.707,15.707,0,0,1-16.63.034Z" transform="translate(-24.646 -20.99)" fill="#965353"/>
        </g>
        <g id="Grupo_1200019" data-name="Grupo 1200019" transform="translate(3.367 36.033)">
          <path id="Trazado_1032350" data-name="Trazado 1032350" d="M35.145,37.515V66.78a4.5,4.5,0,0,0-4.5-4.5H7V33H30.641a4.505,4.505,0,0,1,4.5,4.515Z" transform="translate(-6.995 -33)" fill="#f5f7fa"/>
        </g>
        <g id="Grupo_1200020" data-name="Grupo 1200020" transform="translate(31.517 36.033)">
          <path id="Trazado_1032351" data-name="Trazado 1032351" d="M36.5,62.276a4.5,4.5,0,0,0-4.5,4.5V37.515A4.505,4.505,0,0,1,36.5,33H60.145V62.276Z" transform="translate(-31.995 -33)" fill="#e6e9ed"/>
        </g>
      </g>
      <g id="Grupo_1200067" data-name="Grupo 1200067" transform="translate(3.003 0.001)">
        <g id="Grupo_1200022" data-name="Grupo 1200022" transform="translate(0 40.546)">
          <path id="Trazado_1032352" data-name="Trazado 1032352" d="M67.179,67.526H4.129A1.125,1.125,0,0,1,3,66.4V37.135a1.125,1.125,0,0,1,1.126-1.126H7.506a1.126,1.126,0,1,1,0,2.252H5.255V65.274h60.8V38.261H63.8a1.126,1.126,0,1,1,0-2.252h3.377a1.125,1.125,0,0,1,1.126,1.126V66.4A1.125,1.125,0,0,1,67.179,67.526Z" transform="translate(-3.003 -36.009)"/>
        </g>
        <g id="Grupo_1200028" data-name="Grupo 1200028" transform="translate(31.525 36.039)">
          <g id="Grupo_1200023" data-name="Grupo 1200023">
            <path id="Trazado_1032353" data-name="Trazado 1032353" d="M32.126,38.765A1.125,1.125,0,0,1,31,37.639a5.638,5.638,0,0,1,5.63-5.632,1.126,1.126,0,1,1,0,2.252,3.383,3.383,0,0,0-3.378,3.38A1.125,1.125,0,0,1,32.126,38.765Z" transform="translate(-31 -32.007)"/>
          </g>
          <g id="Grupo_1200024" data-name="Grupo 1200024" transform="translate(4.504)">
            <path id="Trazado_1032354" data-name="Trazado 1032354" d="M59.77,34.259H36.126a1.126,1.126,0,0,1,0-2.252H59.77a1.126,1.126,0,0,1,0,2.252Z" transform="translate(-35 -32.007)"/>
          </g>
          <g id="Grupo_1200025" data-name="Grupo 1200025" transform="translate(0 29.267)">
            <path id="Trazado_1032355" data-name="Trazado 1032355" d="M32.126,64.755A1.125,1.125,0,0,1,31,63.629,5.636,5.636,0,0,1,36.63,58a1.126,1.126,0,1,1,0,2.252,3.382,3.382,0,0,0-3.378,3.378A1.125,1.125,0,0,1,32.126,64.755Z" transform="translate(-31 -57.999)"/>
          </g>
          <g id="Grupo_1200026" data-name="Grupo 1200026" transform="translate(4.504 29.267)">
            <path id="Trazado_1032356" data-name="Trazado 1032356" d="M59.77,60.251H36.126a1.126,1.126,0,1,1,0-2.252H59.77a1.126,1.126,0,1,1,0,2.252Z" transform="translate(-35 -57.999)"/>
          </g>
          <g id="Grupo_1200027" data-name="Grupo 1200027" transform="translate(28.148)">
            <path id="Trazado_1032357" data-name="Trazado 1032357" d="M57.124,63.526A1.125,1.125,0,0,1,56,62.4V33.133a1.126,1.126,0,0,1,2.252,0V62.4A1.125,1.125,0,0,1,57.124,63.526Z" transform="translate(-55.998 -32.007)"/>
          </g>
        </g>
        <g id="Grupo_1200034" data-name="Grupo 1200034" transform="translate(3.377 36.039)">
          <g id="Grupo_1200029" data-name="Grupo 1200029" transform="translate(23.644)">
            <path id="Trazado_1032358" data-name="Trazado 1032358" d="M32.63,38.765A1.125,1.125,0,0,1,31.5,37.639a3.383,3.383,0,0,0-3.378-3.38,1.126,1.126,0,1,1,0-2.252,5.638,5.638,0,0,1,5.63,5.632A1.125,1.125,0,0,1,32.63,38.765Z" transform="translate(-27 -32.007)"/>
          </g>
          <g id="Grupo_1200030" data-name="Grupo 1200030" transform="translate(0)">
            <path id="Trazado_1032359" data-name="Trazado 1032359" d="M30.772,34.259H7.128a1.126,1.126,0,0,1,0-2.252H30.772a1.126,1.126,0,0,1,0,2.252Z" transform="translate(-6.002 -32.007)"/>
          </g>
          <g id="Grupo_1200031" data-name="Grupo 1200031" transform="translate(23.644 29.267)">
            <path id="Trazado_1032360" data-name="Trazado 1032360" d="M32.63,64.755A1.125,1.125,0,0,1,31.5,63.629a3.382,3.382,0,0,0-3.378-3.378,1.126,1.126,0,1,1,0-2.252,5.636,5.636,0,0,1,5.63,5.63A1.125,1.125,0,0,1,32.63,64.755Z" transform="translate(-27 -57.999)"/>
          </g>
          <g id="Grupo_1200032" data-name="Grupo 1200032" transform="translate(0 29.267)">
            <path id="Trazado_1032361" data-name="Trazado 1032361" d="M30.772,60.251H7.128a1.126,1.126,0,1,1,0-2.252H30.772a1.126,1.126,0,1,1,0,2.252Z" transform="translate(-6.002 -57.999)"/>
          </g>
          <g id="Grupo_1200033" data-name="Grupo 1200033">
            <path id="Trazado_1032362" data-name="Trazado 1032362" d="M7.128,63.526A1.125,1.125,0,0,1,6,62.4V33.133a1.126,1.126,0,0,1,2.252,0V62.4A1.125,1.125,0,0,1,7.128,63.526Z" transform="translate(-6.002 -32.007)"/>
          </g>
        </g>
        <g id="Grupo_1200035" data-name="Grupo 1200035" transform="translate(31.525 40.546)">
          <path id="Trazado_1032363" data-name="Trazado 1032363" d="M32.126,67.526A1.125,1.125,0,0,1,31,66.4V37.135a1.126,1.126,0,0,1,2.252,0V66.4A1.125,1.125,0,0,1,32.126,67.526Z" transform="translate(-31 -36.009)"/>
        </g>
        <g id="Grupo_1200046" data-name="Grupo 1200046" transform="translate(9.007 41.669)">
          <g id="Grupo_1200036" data-name="Grupo 1200036">
            <path id="Trazado_1032364" data-name="Trazado 1032364" d="M22.26,39.259H12.128a1.126,1.126,0,1,1,0-2.252H22.26a1.126,1.126,0,1,1,0,2.252Z" transform="translate(-11.002 -37.007)"/>
          </g>
          <g id="Grupo_1200037" data-name="Grupo 1200037" transform="translate(0 9.013)">
            <path id="Trazado_1032365" data-name="Trazado 1032365" d="M20.01,47.263H12.128a1.126,1.126,0,0,1,0-2.252H20.01a1.126,1.126,0,0,1,0,2.252Z" transform="translate(-11.002 -45.011)"/>
          </g>
          <g id="Grupo_1200038" data-name="Grupo 1200038" transform="translate(12.386 9.013)">
            <path id="Trazado_1032366" data-name="Trazado 1032366" d="M27.63,47.263h-4.5a1.126,1.126,0,0,1,0-2.252h4.5a1.126,1.126,0,0,1,0,2.252Z" transform="translate(-22.002 -45.011)"/>
          </g>
          <g id="Grupo_1200039" data-name="Grupo 1200039" transform="translate(4.504 4.506)">
            <path id="Trazado_1032367" data-name="Trazado 1032367" d="M28.512,43.261H16.128a1.126,1.126,0,1,1,0-2.252H28.512a1.126,1.126,0,0,1,0,2.252Z" transform="translate(-15.002 -41.009)"/>
          </g>
          <g id="Grupo_1200040" data-name="Grupo 1200040" transform="translate(0 4.506)">
            <path id="Trazado_1032368" data-name="Trazado 1032368" d="M13.254,43.261H12.128a1.126,1.126,0,1,1,0-2.252h1.126a1.126,1.126,0,1,1,0,2.252Z" transform="translate(-11.002 -41.009)"/>
          </g>
          <g id="Grupo_1200041" data-name="Grupo 1200041" transform="translate(14.636)">
            <path id="Trazado_1032369" data-name="Trazado 1032369" d="M27.378,39.259H25.126a1.126,1.126,0,1,1,0-2.252h2.252a1.126,1.126,0,1,1,0,2.252Z" transform="translate(-24 -37.007)"/>
          </g>
          <g id="Grupo_1200042" data-name="Grupo 1200042" transform="translate(0 13.519)">
            <path id="Trazado_1032370" data-name="Trazado 1032370" d="M23.386,51.265H12.128a1.126,1.126,0,0,1,0-2.252H23.386a1.126,1.126,0,0,1,0,2.252Z" transform="translate(-11.002 -49.013)"/>
          </g>
          <g id="Grupo_1200043" data-name="Grupo 1200043" transform="translate(15.762 13.519)">
            <path id="Trazado_1032371" data-name="Trazado 1032371" d="M27.252,51.265H26.126a1.126,1.126,0,0,1,0-2.252h1.126a1.126,1.126,0,0,1,0,2.252Z" transform="translate(-25 -49.013)"/>
          </g>
          <g id="Grupo_1200044" data-name="Grupo 1200044" transform="translate(0 18.025)">
            <path id="Trazado_1032372" data-name="Trazado 1032372" d="M16.632,55.267h-4.5a1.126,1.126,0,1,1,0-2.252h4.5a1.126,1.126,0,1,1,0,2.252Z" transform="translate(-11.002 -53.015)"/>
          </g>
          <g id="Grupo_1200045" data-name="Grupo 1200045" transform="translate(9.008 18.025)">
            <path id="Trazado_1032373" data-name="Trazado 1032373" d="M28.008,55.267h-7.88a1.126,1.126,0,1,1,0-2.252h7.88a1.126,1.126,0,1,1,0,2.252Z" transform="translate(-19.002 -53.015)"/>
          </g>
        </g>
        <g id="Grupo_1200057" data-name="Grupo 1200057" transform="translate(37.174 41.659)">
          <g id="Grupo_1200047" data-name="Grupo 1200047" transform="translate(6.756)">
            <path id="Trazado_1032374" data-name="Trazado 1032374" d="M53.275,39.25H43.143a1.126,1.126,0,1,1,0-2.252H53.275a1.126,1.126,0,1,1,0,2.252Z" transform="translate(-42.017 -36.998)"/>
          </g>
          <g id="Grupo_1200048" data-name="Grupo 1200048" transform="translate(9.006 9.013)">
            <path id="Trazado_1032375" data-name="Trazado 1032375" d="M53.023,47.254H45.141a1.126,1.126,0,1,1,0-2.252h7.882a1.126,1.126,0,0,1,0,2.252Z" transform="translate(-44.015 -45.002)"/>
          </g>
          <g id="Grupo_1200049" data-name="Grupo 1200049" transform="translate(0 9.013)">
            <path id="Trazado_1032376" data-name="Trazado 1032376" d="M41.645,47.254h-4.5a1.126,1.126,0,1,1,0-2.252h4.5a1.126,1.126,0,0,1,0,2.252Z" transform="translate(-36.017 -45.002)"/>
          </g>
          <g id="Grupo_1200050" data-name="Grupo 1200050" transform="translate(0 4.506)">
            <path id="Trazado_1032377" data-name="Trazado 1032377" d="M49.527,43.252H37.143a1.126,1.126,0,1,1,0-2.252H49.527a1.126,1.126,0,0,1,0,2.252Z" transform="translate(-36.017 -41)"/>
          </g>
          <g id="Grupo_1200051" data-name="Grupo 1200051" transform="translate(15.762 4.506)">
            <path id="Trazado_1032378" data-name="Trazado 1032378" d="M52.267,43.252H51.141a1.126,1.126,0,0,1,0-2.252h1.126a1.126,1.126,0,0,1,0,2.252Z" transform="translate(-50.015 -41)"/>
          </g>
          <g id="Grupo_1200052" data-name="Grupo 1200052">
            <path id="Trazado_1032379" data-name="Trazado 1032379" d="M39.4,39.25H37.143a1.126,1.126,0,1,1,0-2.252H39.4a1.126,1.126,0,0,1,0,2.252Z" transform="translate(-36.017 -36.998)"/>
          </g>
          <g id="Grupo_1200053" data-name="Grupo 1200053" transform="translate(5.63 13.519)">
            <path id="Trazado_1032380" data-name="Trazado 1032380" d="M53.4,51.256H42.143a1.126,1.126,0,1,1,0-2.252H53.4a1.126,1.126,0,1,1,0,2.252Z" transform="translate(-41.017 -49.004)"/>
          </g>
          <g id="Grupo_1200054" data-name="Grupo 1200054" transform="translate(0 13.519)">
            <path id="Trazado_1032381" data-name="Trazado 1032381" d="M38.269,51.256H37.143a1.126,1.126,0,1,1,0-2.252h1.126a1.126,1.126,0,1,1,0,2.252Z" transform="translate(-36.017 -49.004)"/>
          </g>
          <g id="Grupo_1200055" data-name="Grupo 1200055" transform="translate(12.384 18.025)">
            <path id="Trazado_1032382" data-name="Trazado 1032382" d="M52.645,55.258h-4.5a1.126,1.126,0,1,1,0-2.252h4.5a1.126,1.126,0,1,1,0,2.252Z" transform="translate(-47.015 -53.006)"/>
          </g>
          <g id="Grupo_1200056" data-name="Grupo 1200056" transform="translate(0 18.025)">
            <path id="Trazado_1032383" data-name="Trazado 1032383" d="M45.023,55.258h-7.88a1.126,1.126,0,1,1,0-2.252h7.88a1.126,1.126,0,1,1,0,2.252Z" transform="translate(-36.017 -53.006)"/>
          </g>
        </g>
        <g id="Grupo_1200058" data-name="Grupo 1200058" transform="translate(15.764)">
          <path id="Trazado_1032384" data-name="Trazado 1032384" d="M33.893,33.781a16.89,16.89,0,1,1,16.89-16.89A16.909,16.909,0,0,1,33.893,33.781Zm0-31.528A14.638,14.638,0,1,0,48.531,16.891,14.655,14.655,0,0,0,33.893,2.253Z" transform="translate(-17.003 -0.001)"/>
        </g>
        <g id="Grupo_1200059" data-name="Grupo 1200059" transform="translate(23.232 22.505)">
          <path id="Trazado_1032385" data-name="Trazado 1032385" d="M24.762,28.906a1.126,1.126,0,0,1-.7-2.005L32.4,20.234a1.126,1.126,0,1,1,1.405,1.759L25.464,28.66A1.116,1.116,0,0,1,24.762,28.906Z" transform="translate(-23.635 -19.987)"/>
        </g>
        <g id="Grupo_1200060" data-name="Grupo 1200060" transform="translate(31.575 22.505)">
          <path id="Trazado_1032386" data-name="Trazado 1032386" d="M40.479,28.871a1.116,1.116,0,0,1-.7-.247l-8.31-6.632a1.126,1.126,0,0,1,1.405-1.759l8.31,6.632a1.126,1.126,0,0,1-.7,2.005Z" transform="translate(-31.044 -19.988)"/>
        </g>
        <g id="Grupo_1200066" data-name="Grupo 1200066" transform="translate(22.525 7.87)">
          <g id="Grupo_1200061" data-name="Grupo 1200061" transform="translate(9.002 4.5)">
            <path id="Trazado_1032387" data-name="Trazado 1032387" d="M32.128,23.374A1.125,1.125,0,0,1,31,22.248V12.112a1.126,1.126,0,1,1,2.252,0V22.248A1.125,1.125,0,0,1,32.128,23.374Z" transform="translate(-31.002 -10.986)"/>
          </g>
          <g id="Grupo_1200062" data-name="Grupo 1200062" transform="translate(11.259 4.509)">
            <path id="Trazado_1032388" data-name="Trazado 1032388" d="M36.378,17.741a3.374,3.374,0,0,1,0-6.747c1.311,0,5.628,1.052,5.628,3.374S37.689,17.741,36.378,17.741Zm0-4.5a1.122,1.122,0,0,0,0,2.243,6.99,6.99,0,0,0,3.278-1.122A7,7,0,0,0,36.378,13.246Z" transform="translate(-33.006 -10.994)"/>
          </g>
          <g id="Grupo_1200063" data-name="Grupo 1200063" transform="translate(9.002 6.752)">
            <path id="Trazado_1032389" data-name="Trazado 1032389" d="M32.128,17.495A1.125,1.125,0,0,1,31,16.369a3.386,3.386,0,0,1,3.381-3.383,1.126,1.126,0,0,1,0,2.252,1.131,1.131,0,0,0-1.129,1.131A1.125,1.125,0,0,1,32.128,17.495Z" transform="translate(-31.002 -12.986)"/>
          </g>
          <g id="Grupo_1200064" data-name="Grupo 1200064">
            <path id="Trazado_1032390" data-name="Trazado 1032390" d="M28.635,13.737c-1.311,0-5.628-1.052-5.628-3.374S27.324,6.99,28.635,6.99a3.374,3.374,0,0,1,0,6.747Zm-3.278-3.374a6.99,6.99,0,0,0,3.278,1.122,1.122,1.122,0,0,0,0-2.243A7,7,0,0,0,25.357,10.364Z" transform="translate(-23.007 -6.99)"/>
          </g>
          <g id="Grupo_1200065" data-name="Grupo 1200065" transform="translate(6.749 2.243)">
            <path id="Trazado_1032391" data-name="Trazado 1032391" d="M32.382,13.491a1.125,1.125,0,0,1-1.126-1.126,1.131,1.131,0,0,0-1.129-1.131,1.126,1.126,0,0,1,0-2.252,3.386,3.386,0,0,1,3.381,3.383A1.125,1.125,0,0,1,32.382,13.491Z" transform="translate(-29.001 -8.982)"/>
          </g>
        </g>
      </g>
    </g>
  </g>
</svg>
