<svg xmlns="http://www.w3.org/2000/svg" width="191" height="172.699" viewBox="0 0 191 172.699">
  <g id="Grupo_1200104" data-name="Grupo 1200104" transform="translate(-1179.233 -6540.933)">
    <rect id="Rectángulo_408557" data-name="Rectángulo 408557" width="191" height="172.699" rx="8" transform="translate(1179.233 6540.933)" fill="#6c8bb1"/>
    <g id="agriculture_18007581" transform="translate(1185.53 6559.739)">
      <g id="Grupo_1200103" data-name="Grupo 1200103" transform="translate(31.271 1.847)">
        <path id="Trazado_1034069" data-name="Trazado 1034069" d="M134.568,89.861a47.136,47.136,0,0,0,5.841-14.128l5.116-1.293,6.238-1.571a58.075,58.075,0,0,0,0-15.863l-6.238-1.571-5.116-1.293a46.868,46.868,0,0,0-5.841-14.13l2.7-4.525,3.3-5.528A58.569,58.569,0,0,0,129.347,18.75l-5.52,3.3-4.525,2.7a47.026,47.026,0,0,0-14.128-5.841l-1.293-5.123-1.571-6.238a58.666,58.666,0,0,0-15.863,0L84.87,13.785,83.584,18.9a47.075,47.075,0,0,0-14.129,5.849l-4.525-2.7-5.527-3.3a57.671,57.671,0,0,0-5.991,5.22,60.325,60.325,0,0,0-5.228,5.989l3.306,5.527,2.7,4.525A47.156,47.156,0,0,0,48.342,54.14l-5.116,1.293-6.237,1.573a58.368,58.368,0,0,0,0,15.863l6.238,1.571,5.116,1.293A47.155,47.155,0,0,0,54.191,89.86l-2.7,4.525-3.306,5.528a60.324,60.324,0,0,0,5.228,5.989,57.673,57.673,0,0,0,5.991,5.22l5.527-3.3,4.525-2.7a46.866,46.866,0,0,0,14.129,5.842l1.286,5.116,1.578,6.238a58.1,58.1,0,0,0,15.863,0l1.57-6.238,1.293-5.108a47.236,47.236,0,0,0,14.128-5.849l4.525,2.7,5.52,3.3a58.52,58.52,0,0,0,6-5.22,60.243,60.243,0,0,0,5.22-5.989l-3.3-5.527Z" transform="translate(-36.443 -7.006)" fill="#ffab02" fill-rule="evenodd"/>
        <path id="Trazado_1034070" data-name="Trazado 1034070" d="M180.165,150.718a36.406,36.406,0,1,0-51.486,0A36.406,36.406,0,0,0,180.165,150.718Z" transform="translate(-96.49 -67.047)" fill="#d5e3f2" fill-rule="evenodd"/>
        <path id="Trazado_1034071" data-name="Trazado 1034071" d="M272.125,189.792c-8.07-1.563-13.455,1.518-16.125,9.312C264.085,200.7,269.447,197.563,272.125,189.792Z" transform="translate(-198.067 -141.273)" fill="#a0d82c" fill-rule="evenodd"/>
        <path id="Trazado_1034072" data-name="Trazado 1034072" d="M244.7,121.472c-5.385,6.207-5.415,12.415,0,18.623C250.123,133.887,250.093,127.679,244.7,121.472Z" transform="translate(-186.768 -91.269)" fill="#a0d82c" fill-rule="evenodd"/>
        <path id="Trazado_1034073" data-name="Trazado 1034073" d="M194.885,189.792c8.07-1.563,13.462,1.518,16.125,9.312C202.925,200.7,197.57,197.563,194.885,189.792Z" transform="translate(-153.077 -141.273)" fill="#a0d82c" fill-rule="evenodd"/>
        <path id="Trazado_1034074" data-name="Trazado 1034074" d="M272.125,240.928c-8.07-1.563-13.455,1.511-16.125,9.3C264.085,251.825,269.447,248.691,272.125,240.928Z" transform="translate(-198.067 -178.917)" fill="#a0d82c" fill-rule="evenodd"/>
        <path id="Trazado_1034075" data-name="Trazado 1034075" d="M194.885,240.928c8.07-1.563,13.462,1.511,16.125,9.3C202.925,251.825,197.57,248.691,194.885,240.928Z" transform="translate(-153.077 -178.917)" fill="#a0d82c" fill-rule="evenodd"/>
        <path id="Trazado_1034076" data-name="Trazado 1034076" d="M228.959,278.993a55.453,55.453,0,0,1,24.1,5.475,58.127,58.127,0,0,1-79.748,49.93,55.646,55.646,0,0,1,55.645-55.4Z" transform="translate(-137.198 -207.229)" fill="#a0d82c" fill-rule="evenodd"/>
        <path id="Trazado_1034077" data-name="Trazado 1034077" d="M271.618,326.87a55.563,55.563,0,0,1,12.251,1.354A58.175,58.175,0,0,1,216.8,372.956,55.657,55.657,0,0,1,271.618,326.87Z" transform="translate(-169.208 -242.474)" fill="#8ec423" fill-rule="evenodd"/>
        <path id="Trazado_1034078" data-name="Trazado 1034078" d="M271,406.913a55.661,55.661,0,0,1,49.384-34.972A58.119,58.119,0,0,1,271,406.913Z" transform="translate(-209.11 -275.654)" fill="#85b81f" fill-rule="evenodd"/>
        <path id="Trazado_1034079" data-name="Trazado 1034079" d="M60.481,281.941a55.647,55.647,0,0,1,55.636,54.627,58.124,58.124,0,0,1-79.689-49.175,55.339,55.339,0,0,1,24.053-5.452Z" transform="translate(-36.428 -209.399)" fill="#85b81f" fill-rule="evenodd"/>
        <path id="Trazado_1034080" data-name="Trazado 1034080" d="M51.705,326.814a55.666,55.666,0,0,1,54.866,46.3,58.7,58.7,0,0,1-9.162.718,58.108,58.108,0,0,1-56.809-45.9,55.5,55.5,0,0,1,11.108-1.114Z" transform="translate(-39.499 -242.433)" fill="#8ec423" fill-rule="evenodd"/>
        <path id="Trazado_1034081" data-name="Trazado 1034081" d="M52.983,370.326a55.691,55.691,0,0,1,47.843,35.256A58.144,58.144,0,0,1,52.983,370.326Z" transform="translate(-48.615 -274.465)" fill="#a0d82c" fill-rule="evenodd"/>
        <path id="Trazado_1034082" data-name="Trazado 1034082" d="M55.933,29.954a59.269,59.269,0,0,1,5.22-5.989q1.335-1.324,2.722-2.55L59.4,18.744a57.668,57.668,0,0,0-5.991,5.22,60.324,60.324,0,0,0-5.228,5.989l3.306,5.527,2.7,4.525a47.156,47.156,0,0,0-5.848,14.128l-5.116,1.293L36.989,57a58.368,58.368,0,0,0,0,15.863l6.238,1.571,5.116,1.293a46.478,46.478,0,0,0,1.413,4.846,55.029,55.029,0,0,1,7.427-.935c-.426-1.293-.785-2.6-1.092-3.911l-5.123-1.293L44.73,72.862A58.687,58.687,0,0,1,44.73,57l6.238-1.571,5.123-1.293a46.946,46.946,0,0,1,5.841-14.129l-2.7-4.524Zm35.391-11.06,1.293-5.116,1.571-6.238c1.346-.179,2.708-.322,4.061-.411a58.215,58.215,0,0,0-11.8.411L84.87,13.778l-1.285,5.116a47.53,47.53,0,0,0-10.12,3.62L77.2,24.742A47.076,47.076,0,0,1,91.324,18.894Z" transform="translate(-36.443 -7)" fill="#ed9e00" fill-rule="evenodd"/>
      </g>
      <path id="Trazado_1034083" data-name="Trazado 1034083" d="M147.937,77.419a57.056,57.056,0,0,0-11.508-4.09c.118-.412.232-.824.339-1.237L147.042,69.5a1.847,1.847,0,0,0,1.379-1.539,59.914,59.914,0,0,0,0-16.368,1.847,1.847,0,0,0-1.379-1.539l-10.274-2.591a48.6,48.6,0,0,0-5.217-12.618l5.43-9.1a1.847,1.847,0,0,0-.115-2.064,60.361,60.361,0,0,0-11.572-11.565A1.845,1.845,0,0,0,123.228,12l-9.092,5.429a48.983,48.983,0,0,0-12.614-5.222L98.93,1.935A1.847,1.847,0,0,0,97.388.555a60.53,60.53,0,0,0-16.363,0,1.847,1.847,0,0,0-1.541,1.378L76.891,12.21a48.808,48.808,0,0,0-12.614,5.222L55.178,12a1.847,1.847,0,0,0-2.061.113,59.706,59.706,0,0,0-6.185,5.39,61.643,61.643,0,0,0-5.39,6.177,1.847,1.847,0,0,0-.115,2.066l5.435,9.1A48.822,48.822,0,0,0,41.64,47.462L31.365,50.053a1.848,1.848,0,0,0-1.379,1.539,60.232,60.232,0,0,0,0,16.366A1.847,1.847,0,0,0,31.365,69.5l10.276,2.592q.254.981.548,1.949a56.764,56.764,0,0,0-11.719,4.134,1.847,1.847,0,0,0-1.041,1.812A59.966,59.966,0,0,0,30.557,87.7a.025.025,0,0,0,0,.01.08.08,0,0,1,0,.013,59.97,59.97,0,0,0,52.621,47.066c.029,0,.059.006.089.009q2.932.288,5.91.292a60.285,60.285,0,0,0,9.424-.74c.01,0,.027,0,.046,0s.04-.009.061-.013a59.554,59.554,0,0,0,12.941-3.6c.021-.008.04-.021.061-.031.044-.014.089-.028.132-.047a60.077,60.077,0,0,0,32.347-31.683,1.767,1.767,0,0,0,.087-.2,59.571,59.571,0,0,0,3.433-10.688c.007-.026.016-.053.022-.079s.011-.064.017-.1a59.863,59.863,0,0,0,1.228-8.7,1.847,1.847,0,0,0-1.042-1.79ZM44.968,70.152a1.847,1.847,0,0,0-1.346-1.37L33.492,66.224a56.52,56.52,0,0,1,0-12.9l10.132-2.557A1.847,1.847,0,0,0,44.968,49.4a45.151,45.151,0,0,1,5.62-13.574A1.847,1.847,0,0,0,50.6,33.9l-5.358-8.967a58.427,58.427,0,0,1,4.3-4.821,56.151,56.151,0,0,1,4.82-4.295l8.971,5.353a1.847,1.847,0,0,0,1.921-.017,45.162,45.162,0,0,1,13.574-5.62,1.847,1.847,0,0,0,1.372-1.348L82.76,4.061a56.839,56.839,0,0,1,12.9,0l2.557,10.132a1.847,1.847,0,0,0,1.37,1.346,45.316,45.316,0,0,1,13.576,5.62,1.847,1.847,0,0,0,1.92.016l8.962-5.351a56.655,56.655,0,0,1,9.122,9.114l-5.352,8.969a1.847,1.847,0,0,0,.017,1.921A44.945,44.945,0,0,1,133.44,49.4a1.847,1.847,0,0,0,1.346,1.373l10.132,2.557a56.215,56.215,0,0,1,0,12.9l-10.132,2.557a1.847,1.847,0,0,0-1.347,1.375c-.187.81-.4,1.621-.64,2.426a57.643,57.643,0,0,0-7.279-.763,38.259,38.259,0,1,0-72.365.764,57.8,57.8,0,0,0-7.321.729c-.324-1.038-.616-2.095-.865-3.16ZM89.2,35.048c2.955,4.281,2.955,8.371,0,12.631C86.255,43.419,86.255,39.329,89.2,35.048ZM91.05,75.3a19.838,19.838,0,0,0,1.984.106c6.731,0,11.549-3.732,14.039-10.948a1.847,1.847,0,0,0-1.394-2.416c-6.246-1.214-11.2.183-14.63,4.054V61.815c.676.068,1.336.106,1.979.106,6.741,0,11.56-3.732,14.047-10.953a1.847,1.847,0,0,0-1.4-2.415c-6.246-1.207-11.2.2-14.628,4.07V51.347c5.536-6.708,5.387-13.787-.453-20.51a1.847,1.847,0,0,0-2.789,0c-5.831,6.723-5.981,13.8-.452,20.509v1.271c-3.43-3.871-8.385-5.273-14.629-4.066a1.847,1.847,0,0,0-1.4,2.417c2.494,7.216,7.313,10.953,14.041,10.953a19.8,19.8,0,0,0,1.982-.107V66.1c-3.428-3.87-8.386-5.267-14.63-4.053a1.847,1.847,0,0,0-1.393,2.417c2.493,7.217,7.312,10.949,14.047,10.949a19.763,19.763,0,0,0,1.977-.106V82.29A57.137,57.137,0,0,0,57.1,72.569a34.562,34.562,0,1,1,64.521-.789,56.786,56.786,0,0,0-30.57,9.69Zm.744-3.635c2.214-4.691,5.745-6.732,10.937-6.311-2.232,4.7-5.767,6.739-10.936,6.311Zm0-13.487c2.216-4.684,5.752-6.728,10.935-6.313-2.227,4.7-5.764,6.74-10.933,6.313Zm-5.181,0c-5.166.427-8.7-1.609-10.937-6.313,5.183-.417,8.721,1.628,10.939,6.311Zm0,13.49c-5.165.426-8.7-1.613-10.938-6.313,5.19-.424,8.726,1.62,10.938,6.312ZM38.7,99.876a54.076,54.076,0,0,1,41.81,30.834A56.778,56.778,0,0,1,38.7,99.876Zm50.484,31.518c-1.486,0-2.96-.063-4.42-.179A57.524,57.524,0,0,0,36.943,95.96a55.378,55.378,0,0,1-2.329-7.15,53.46,53.46,0,0,1,39.36,8.751,53.181,53.181,0,0,1,22.2,33.4,56.771,56.771,0,0,1-6.988.434Zm10.64-1.009A56.844,56.844,0,0,0,76.064,94.513a57.466,57.466,0,0,0-42.232-9.32q-.38-2.089-.6-4.228a52.923,52.923,0,0,1,11.653-3.722.146.146,0,0,0,.026-.005,54.2,54.2,0,0,1,10.415-1A53.551,53.551,0,0,1,98.578,97.852a1.811,1.811,0,0,0,.715.987,53.323,53.323,0,0,1,6.86,13.386,1.833,1.833,0,0,0,.257.773,54.458,54.458,0,0,1,2.66,14.771,55.849,55.849,0,0,1-9.248,2.615Zm12.864-4.131a57.5,57.5,0,0,0-2.546-13.625A53.9,53.9,0,0,1,139.49,100.2,56.624,56.624,0,0,1,112.686,126.254Zm28.557-29.9a57.6,57.6,0,0,0-32.414,12.575,56.829,56.829,0,0,0-5.912-11.174,53.73,53.73,0,0,1,40.76-8.733,56.066,56.066,0,0,1-2.434,7.332Zm3.234-10.941a57.418,57.418,0,0,0-43.737,9.355,58.039,58.039,0,0,0-5.39-6q-1.765-1.71-3.651-3.247a53.89,53.89,0,0,1,53.5-5.3Q144.959,82.841,144.476,85.41Z" transform="translate(0)"/>
    </g>
  </g>
</svg>
