<svg xmlns="http://www.w3.org/2000/svg" xmlns:xlink="http://www.w3.org/1999/xlink" width="220" height="156.144" viewBox="0 0 220 156.144">
  <defs>
    <filter id="Rect치ngulo_404858" x="0" y="0" width="220" height="156.144" filterUnits="userSpaceOnUse">
      <feOffset dx="3" dy="6" input="SourceAlpha"/>
      <feGaussianBlur stdDeviation="5" result="blur"/>
      <feFlood flood-opacity="0.161"/>
      <feComposite operator="in" in2="blur"/>
      <feComposite in="SourceGraphic"/>
    </filter>
  </defs>
  <g id="Grupo_1199953" data-name="Grupo 1199953" transform="translate(-624.551 -922)">
    <g id="Grupo_1198726" data-name="Grupo 1198726" transform="translate(636.551 931)">
      <g id="Grupo_1197899" data-name="Grupo 1197899" transform="translate(0 0)">
        <g id="Grupo_1113681" data-name="Grupo 1113681">
          <g transform="matrix(1, 0, 0, 1, -12, -9)" filter="url(#Rect치ngulo_404858)">
            <rect id="Rect치ngulo_404858-2" data-name="Rect치ngulo 404858" width="190" height="126.144" rx="8" transform="translate(12 9)" fill="#4c6929"/>
          </g>
        </g>
      </g>
    </g>
    <g id="juez_7_" data-name="juez (7)" transform="translate(677.402 943.141)">
      <path id="Trazado_1032054" data-name="Trazado 1032054" d="M47,12.464h7.281V27.576H47Z" transform="translate(34.453 9.404)" fill="#955a21"/>
      <path id="Trazado_1032055" data-name="Trazado 1032055" d="M16.437,58.318a6.436,6.436,0,0,1-4.551-10.987l14.5-14.5,18.2-3.641V24.326H55.508v4.867l18.2,3.641,7.281,25.484Z" transform="translate(4.102 19.135)" fill="#5a5b5d"/>
      <path id="Trazado_1032056" data-name="Trazado 1032056" d="M61.047,43.867l-1.99-22.872-.39-4.485A15.884,15.884,0,0,0,42.844,2H39.2A15.881,15.881,0,0,0,23.381,16.507l-.389,4.488L21,43.867Z" transform="translate(13.125 0.82)" fill="#955a21"/>
      <path id="Trazado_1032057" data-name="Trazado 1032057" d="M56.6,20.995l-.39-4.485A15.884,15.884,0,0,0,40.383,2H36.742A15.837,15.837,0,0,0,30.9,3.112a15.813,15.813,0,0,0-4.514,9.753l-.39,4.489L24,40.226H58.269Z" transform="translate(15.586 0.82)" fill="#ab692a"/>
      <path id="Trazado_1032058" data-name="Trazado 1032058" d="M50.484,25.382a12.742,12.742,0,0,1-25.484,0V12.64h6.58A50.908,50.908,0,0,0,50.482,9Z" transform="translate(16.406 6.563)" fill="#deb2ae"/>
      <path id="Trazado_1032059" data-name="Trazado 1032059" d="M28.281,12h-2.73a4.551,4.551,0,0,0,0,9.1h2.73" transform="translate(13.125 9.023)" fill="#deb2ae"/>
      <path id="Trazado_1032060" data-name="Trazado 1032060" d="M39,12h2.73a4.551,4.551,0,0,1,0,9.1H39" transform="translate(27.89 9.023)" fill="#deb2ae"/>
      <path id="Trazado_1032061" data-name="Trazado 1032061" d="M8,47H95.375V76.125H8Z" transform="translate(2.461 37.734)" fill="#ab692a"/>
      <g id="Grupo_1199952" data-name="Grupo 1199952" transform="translate(10.461 90.195)">
        <path id="Trazado_1032062" data-name="Trazado 1032062" d="M8,50H95.375v3.641H8Z" transform="translate(-8 -50)" fill="#b4b5b9"/>
        <path id="Trazado_1032063" data-name="Trazado 1032063" d="M26,69.562V55H47.844V69.562" transform="translate(6.766 -45.898)" fill="#b4b5b9"/>
        <path id="Trazado_1032064" data-name="Trazado 1032064" d="M12,69.562V55H30.2V69.562" transform="translate(-4.719 -45.898)" fill="#b4b5b9"/>
        <path id="Trazado_1032065" data-name="Trazado 1032065" d="M42,69.562V55H60.2V69.562" transform="translate(19.89 -45.898)" fill="#b4b5b9"/>
      </g>
      <path id="Trazado_1032066" data-name="Trazado 1032066" d="M59.562,49.664V26H45V49.664a7.281,7.281,0,1,0,14.562,0Z" transform="translate(32.812 20.508)" fill="#424344"/>
      <path id="Trazado_1032067" data-name="Trazado 1032067" d="M46,30.922V25.461a5.461,5.461,0,1,1,10.922,0v5.461" transform="translate(33.633 15.586)" fill="#fbe2d9"/>
      <path id="Trazado_1032068" data-name="Trazado 1032068" d="M45.2,52.351,42.21,31.6H29.993L27,52.351Z" transform="translate(18.047 25.102)" fill="#dcdddf"/>
      <circle id="Elipse_12198" data-name="Elipse 12198" cx="7.248" cy="7.248" r="7.248" transform="translate(77.411 8.248)" fill="#dc8039"/>
      <circle id="Elipse_12199" data-name="Elipse 12199" cx="3.624" cy="3.624" r="3.624" transform="translate(81.553 12.389)" fill="#955a21"/>
      <path id="Trazado_1032069" data-name="Trazado 1032069" d="M35.319,27,40.78,37.92,21.3,29.805" transform="translate(13.369 21.328)" fill="#b4b5b9"/>
      <path id="Trazado_1032070" data-name="Trazado 1032070" d="M37.461,27,32,37.92l19.483-8.115" transform="translate(22.148 21.328)" fill="#b4b5b9"/>
      <path id="Trazado_1032071" data-name="Trazado 1032071" d="M25,13.641V24.562a12.742,12.742,0,0,0,25.484,0V10a50.91,50.91,0,0,1-18.9,3.641Z" transform="translate(16.406 7.383)" fill="#fbe2d9"/>
      <path id="Trazado_1032072" data-name="Trazado 1032072" d="M39.922,24.32V29.2L34.461,40.12,29,29.2V24.32A12.666,12.666,0,0,0,39.922,24.32Z" transform="translate(19.687 19.13)" fill="#deb2ae"/>
      <path id="Trazado_1032073" data-name="Trazado 1032073" d="M29,26.386V27.5l5.461,10.922L39.922,27.5V26.386a13.9,13.9,0,0,1-10.922,0Z" transform="translate(19.687 20.824)" fill="#fbe2d9"/>
      <path id="Trazado_1032074" data-name="Trazado 1032074" d="M23,37h3.641a5.461,5.461,0,0,1,0,10.922H23" transform="translate(14.766 29.531)" fill="#fbe2d9"/>
      <path id="Trazado_1032075" data-name="Trazado 1032075" d="M29.742,49.562H26.1V38.641H17V35H27.922a1.82,1.82,0,0,1,1.82,1.82Z" transform="translate(9.844 27.891)" fill="#77787c"/>
      <path id="Trazado_1032076" data-name="Trazado 1032076" d="M6,43h94.656v7.281H6Z" transform="translate(0.82 34.453)" fill="#955a21"/>
      <path id="Trazado_1032077" data-name="Trazado 1032077" d="M11.641,46.641H99.015V43H8A3.641,3.641,0,0,0,11.641,46.641Z" transform="translate(2.461 34.453)" fill="#ab692a"/>
      <path id="Trazado_1032078" data-name="Trazado 1032078" d="M6,43h94.656v7.281H6Z" transform="translate(0.82 34.453)" fill="#955a21"/>
      <path id="Trazado_1032079" data-name="Trazado 1032079" d="M13,55H29.383V67.742H13Z" transform="translate(6.562 44.297)" fill="#dcdddf"/>
      <path id="Trazado_1032080" data-name="Trazado 1032080" d="M27,55H47.023V67.742H27Z" transform="translate(18.047 44.297)" fill="#dcdddf"/>
      <path id="Trazado_1032081" data-name="Trazado 1032081" d="M43,55H59.383V67.742H43Z" transform="translate(31.172 44.297)" fill="#dcdddf"/>
      <path id="Trazado_1032082" data-name="Trazado 1032082" d="M99.656,113.859v-27.3h1.82a1.82,1.82,0,0,0,1.82-1.82V77.453a1.82,1.82,0,0,0-1.82-1.82H92.327a9.007,9.007,0,0,0,1.868-5.461V46.508a1.82,1.82,0,0,0-1.82-1.82V41.047a7.214,7.214,0,0,0-1.82-4.769V22.8a9.1,9.1,0,1,0-10.922,0V36.283a7.212,7.212,0,0,0-1.82,4.764v3.641a1.82,1.82,0,0,0-1.82,1.82v3.24L61.429,46.835v-.328H74.172a1.82,1.82,0,0,0,1.82-1.979L74.678,29.421a6.276,6.276,0,0,0-.739-8.5l-.326-3.741A17.606,17.606,0,0,0,55.969,1H52.328A17.6,17.6,0,0,0,34.693,17.168l-.326,3.744a6.276,6.276,0,0,0-.739,8.5L32.3,44.529a1.82,1.82,0,0,0,1.82,1.979H46.867v.329L30.12,50.185a1.82,1.82,0,0,0-.93.5l-14.5,14.5a8.246,8.246,0,0,0-1,10.452H6.82A1.82,1.82,0,0,0,5,77.453v7.281a1.82,1.82,0,0,0,1.82,1.82h1.82v27.3h3.641V93.836H96.015v20.023ZM79.633,70.172V48.328H90.554V70.172a5.461,5.461,0,1,1-10.922,0ZM85.093,10.1a5.461,5.461,0,1,1-5.461,5.461A5.461,5.461,0,0,1,85.093,10.1Zm0,14.562a9.1,9.1,0,0,0,1.82-.182v9.544a7.3,7.3,0,0,0-1.82-.26,7.145,7.145,0,0,0-1.82.258V24.482A9.1,9.1,0,0,0,85.093,24.664ZM81.453,41.047a3.641,3.641,0,0,1,7.281,0v3.641H81.453ZM77.86,75.633H64.826L62.26,57.841l11.557-4.815L76,53.461v16.71A9.007,9.007,0,0,0,77.86,75.633ZM39.586,68.351h1.82a3.641,3.641,0,1,1,0,7.281h-1.82Zm9.1,3.641a7.225,7.225,0,0,0-.6-2.878l1.418-9.83,3.921,1.638h.015a1.793,1.793,0,0,0,1.407.007h.014l3.921-1.638,2.366,16.346H47.681a7.207,7.207,0,0,0,1.007-3.646Zm5.461-29.125A10.933,10.933,0,0,1,43.226,31.945V21.023h4.76A52.463,52.463,0,0,0,65.07,18.18V31.945A10.933,10.933,0,0,1,54.148,42.867Zm0,3.641a14.477,14.477,0,0,0,3.641-.479V47.9L54.148,55.18,50.508,47.9V46.029a14.477,14.477,0,0,0,3.641.479ZM67.42,51.747l-9.449,3.939,2.65-5.3Zm-3.672-8.879a14.519,14.519,0,0,0,4.962-10.922h.91a6.249,6.249,0,0,0,1.6-.228l.968,11.149Zm4.962-20.023h.91a2.73,2.73,0,1,1,0,5.461h-.91Zm-30.4-5.359A13.984,13.984,0,0,1,52.328,4.641h3.641A13.987,13.987,0,0,1,69.985,17.488l.153,1.766c-.177-.013-.335-.051-.517-.051h-.91V15.563a1.82,1.82,0,0,0-2.5-1.691,48.8,48.8,0,0,1-18.227,3.511h-6.58a1.82,1.82,0,0,0-1.82,1.82h-.91c-.182,0-.34.038-.512.051ZM39.586,28.3h-.91a2.73,2.73,0,1,1,0-5.461h.91Zm-2.507,3.413a6.249,6.249,0,0,0,1.6.228h.91a14.519,14.519,0,0,0,4.962,10.922H36.111Zm10.6,18.667,2.645,5.3-9.456-3.939ZM15.922,71.018a4.587,4.587,0,0,1,1.352-3.264L31.382,53.645l3.095-.619,11.557,4.815L44.907,65.65a7.183,7.183,0,0,0-3.5-.939h-1.82a1.82,1.82,0,0,0-1.82-1.82H26.844v3.641h9.1v9.1H20.538a4.622,4.622,0,0,1-4.616-4.614ZM8.641,79.273H99.656v3.641H8.641ZM12.281,90.2V86.554H96.015V90.2Z" transform="translate(0 0)"/>
      <path id="Trazado_1032083" data-name="Trazado 1032083" d="M50.484,70.383V55.82A1.82,1.82,0,0,0,48.664,54H26.82A1.82,1.82,0,0,0,25,55.82V70.383h3.641V57.641h18.2V70.383Z" transform="translate(16.406 43.476)"/>
      <path id="Trazado_1032084" data-name="Trazado 1032084" d="M32.844,70.383V55.82A1.82,1.82,0,0,0,31.023,54H12.82A1.82,1.82,0,0,0,11,55.82V70.383h3.641V57.641H29.2V70.383Z" transform="translate(4.922 43.476)"/>
      <path id="Trazado_1032085" data-name="Trazado 1032085" d="M62.844,70.383V55.82A1.82,1.82,0,0,0,61.023,54H42.82A1.82,1.82,0,0,0,41,55.82V70.383h3.641V57.641H59.2V70.383Z" transform="translate(29.531 43.476)"/>
    </g>
  </g>
</svg>
