<svg xmlns="http://www.w3.org/2000/svg" xmlns:xlink="http://www.w3.org/1999/xlink" width="118" height="118" viewBox="0 0 118 118">
  <defs>
    <filter id="Trazado_896985" x="0" y="0" width="118" height="118" filterUnits="userSpaceOnUse">
      <feOffset dy="3" input="SourceAlpha"/>
      <feGaussianBlur stdDeviation="3" result="blur"/>
      <feFlood flood-opacity="0.161"/>
      <feComposite operator="in" in2="blur"/>
      <feComposite in="SourceGraphic"/>
    </filter>
  </defs>
  <g id="Grupo_1200188" data-name="Grupo 1200188" transform="translate(-1037.84 -8871.136)">
    <g id="Grupo_1198726" data-name="Grupo 1198726" transform="translate(0.95 4409.813)">
      <g id="Grupo_1198141" data-name="Grupo 1198141" transform="translate(711 615.322)">
        <g id="Grupo_1111318" data-name="Grupo 1111318" transform="translate(334.891 3852)">
          <g id="Grupo_1109826" data-name="Grupo 1109826" transform="translate(0)">
            <g id="Grupo_1098742" data-name="Grupo 1098742" transform="translate(0 0)">
              <g transform="matrix(1, 0, 0, 1, -9, -6)" filter="url(#Trazado_896985)">
                <g id="Trazado_896985-2" data-name="Trazado 896985" transform="translate(9 6)" fill="#fc0" opacity="0.859">
                  <path d="M 49.99993515014648 99.5 C 43.31726837158203 99.5 36.83476257324219 98.19129943847656 30.73248100280762 95.61025238037109 C 24.83812141418457 93.11714172363281 19.54434776306152 89.54795837402344 14.99820137023926 85.00179290771484 C 10.45204162597656 80.45565032958984 6.88285493850708 75.16187286376953 4.389748573303223 69.26751708984375 C 1.808695197105408 63.16523742675781 0.5000017881393433 56.6827278137207 0.5000017881393433 50.00006103515625 C 0.5000017881393433 43.31726455688477 1.808695197105408 36.83475494384766 4.389748573303223 30.73247528076172 C 6.88285493850708 24.83811569213867 10.45204162597656 19.54434204101562 14.99820137023926 14.99819660186768 C 19.54434776306152 10.45203590393066 24.83812141418457 6.88284969329834 30.73248100280762 4.389742851257324 C 36.83476257324219 1.808689475059509 43.31726837158203 0.4999961853027344 49.99993515014648 0.4999961853027344 C 56.68260192871094 0.4999961853027344 63.16510772705078 1.808689475059509 69.26738739013672 4.389742851257324 C 75.16175079345703 6.88284969329834 80.45552062988281 10.45203590393066 85.00167083740234 14.99819660186768 C 89.54782867431641 19.54434204101562 93.11701202392578 24.83811569213867 95.61012268066406 30.73247528076172 C 98.19117736816406 36.83475494384766 99.49987030029297 43.31726455688477 99.49987030029297 49.99993133544922 C 99.49987030029297 56.6827278137207 98.19117736816406 63.16523742675781 95.61012268066406 69.26751708984375 C 93.11701202392578 75.16187286376953 89.54782867431641 80.45565032958984 85.00167083740234 85.00179290771484 C 80.45552062988281 89.54795837402344 75.16175079345703 93.11714172363281 69.26738739013672 95.61025238037109 C 63.16510772705078 98.19129943847656 56.68260192871094 99.5 49.99993515014648 99.5 Z" stroke="none"/>
                  <path d="M 49.99993515014648 0.9999923706054688 C 43.38454818725586 0.9999923706054688 36.96757507324219 2.29541015625 30.92725372314453 4.850250244140625 C 25.09249877929688 7.318145751953125 19.85213470458984 10.85135650634766 15.35174560546875 15.35174560546875 C 10.85136413574219 19.85212707519531 7.318145751953125 25.09249114990234 4.850257873535156 30.92724609375 C 2.295417785644531 36.96757125854492 1 43.38454437255859 1 50.00006103515625 C 1 56.61544799804688 2.295417785644531 63.03242111206055 4.850257873535156 69.07273864746094 C 7.318145751953125 74.90750122070312 10.85136413574219 80.14786529541016 15.35174560546875 84.64824676513672 C 19.85213470458984 89.14863586425781 25.09249877929688 92.68184661865234 30.92725372314453 95.14974212646484 C 36.96757507324219 97.70458221435547 43.38454818725586 99 49.99993515014648 99 C 56.61532211303711 99 63.03229522705078 97.70458221435547 69.07261657714844 95.14974212646484 C 74.90737915039062 92.68184661865234 80.14773559570312 89.14863586425781 84.64812469482422 84.64824676513672 C 89.14850616455078 80.14786529541016 92.68172454833984 74.90750122070312 95.14961242675781 69.07273864746094 C 97.70445251464844 63.03242111206055 98.99987030029297 56.61544799804688 98.99987030029297 49.99993133544922 C 98.99987030029297 43.38454437255859 97.70445251464844 36.96757125854492 95.14961242675781 30.92724609375 C 92.68172454833984 25.09249114990234 89.14850616455078 19.85212707519531 84.64812469482422 15.35174560546875 C 80.14773559570312 10.85135650634766 74.90737915039062 7.318145751953125 69.07261657714844 4.850250244140625 C 63.03229522705078 2.29541015625 56.61532211303711 0.9999923706054688 49.99993515014648 0.9999923706054688 M 49.99993515014648 -7.62939453125e-06 C 77.6141357421875 -7.62939453125e-06 99.99987030029297 22.38572692871094 99.99987030029297 49.99993133544922 L 99.99987030029297 50.00006103515625 C 99.99987030029297 77.61426544189453 77.6141357421875 100 49.99993515014648 100 C 22.38573455810547 100 0 77.61426544189453 0 50.00006103515625 L 0 49.99993133544922 C 0 22.38572692871094 22.38573455810547 -7.62939453125e-06 49.99993515014648 -7.62939453125e-06 Z" stroke="none" fill="#fff"/>
                </g>
              </g>
              <g id="Rectángulo_400907" data-name="Rectángulo 400907" transform="translate(0)" fill="none" stroke="#fff" stroke-width="1">
                <rect width="100" height="100" rx="50" stroke="none"/>
                <rect x="0.5" y="0.5" width="99" height="99" rx="49.5" fill="none"/>
              </g>
            </g>
          </g>
        </g>
      </g>
    </g>
    <g id="harvest_10132205" transform="translate(1050.248 8883.181)">
      <g id="Grupo_1200185" data-name="Grupo 1200185" transform="translate(13.92 7.5)">
        <path id="Trazado_1034345" data-name="Trazado 1034345" d="M185.934,25.754H155.213l2.43-12.9A6.565,6.565,0,0,1,164.1,7.5h12.956a6.566,6.566,0,0,1,6.452,5.35Z" transform="translate(-136.143 -7.501)" fill="#99e6fc"/>
        <path id="Trazado_1034346" data-name="Trazado 1034346" d="M300.978,12.85a6.565,6.565,0,0,0-6.452-5.35h-3.509a6.566,6.566,0,0,1,6.452,5.35l2.43,12.9h3.509Z" transform="translate(-253.618 -7.5)" fill="#62dbfb"/>
        <ellipse id="Elipse_12213" data-name="Elipse 12213" cx="23.986" cy="6.2" rx="23.986" ry="6.2" transform="translate(10.444 13.832)" fill="#766e6e"/>
        <path id="Trazado_1034347" data-name="Trazado 1034347" d="M193.81,119.008H182.4a6.784,6.784,0,0,1-6.783-6.783V96.2h24.977v16.022A6.783,6.783,0,0,1,193.81,119.008Z" transform="translate(-153.794 -84.23)" fill="#ffb09e"/>
        <path id="Trazado_1034348" data-name="Trazado 1034348" d="M291.2,96.2v16.022a6.784,6.784,0,0,1-6.784,6.784h3.509a6.784,6.784,0,0,0,6.783-6.784V96.2Z" transform="translate(-247.907 -84.23)" fill="#ffa78f"/>
        <path id="Trazado_1034349" data-name="Trazado 1034349" d="M134.47,88.017c0,.625-.608,4.09-.608,4.09,0-3.424-10.739-6.2-23.986-6.2s-23.986,2.777-23.986,6.2c0,0-.844-3.364-.844-3.943,0-3.424,10.652-6.015,24.831-6.015S134.47,84.592,134.47,88.017Z" transform="translate(-75.446 -72.074)" fill="#c8effe"/>
        <path id="Trazado_1034350" data-name="Trazado 1034350" d="M134.47,88.017c0,.625-.608,4.09-.608,4.09,0-3.424-10.739-6.2-23.986-6.2s-23.986,2.777-23.986,6.2c0,0-.844-3.364-.844-3.943,0-3.424,10.652-6.015,24.831-6.015S134.47,84.592,134.47,88.017Z" transform="translate(-75.446 -72.074)" fill="#c8effe"/>
        <path id="Trazado_1034351" data-name="Trazado 1034351" d="M134.47,88.017c0,.625-.608,4.09-.608,4.09,0-3.424-10.739-6.2-23.986-6.2s-23.986,2.777-23.986,6.2c0,0-.844-3.364-.844-3.943,0-3.424,10.652-6.015,24.831-6.015S134.47,84.592,134.47,88.017Z" transform="translate(-75.446 -72.074)" fill="#c8effe"/>
        <path id="Trazado_1034352" data-name="Trazado 1034352" d="M54.736,319.879h0a8.445,8.445,0,0,0-7.876,5.4L38.213,344.8H49.252l5.484-11.8v9.647h29.02v-22.76Z" transform="translate(-34.934 -277.719)" fill="#99e6fc"/>
        <g id="Grupo_1200183" data-name="Grupo 1200183" transform="translate(45.312 42.16)">
          <rect id="Rectángulo_408781" data-name="Rectángulo 408781" width="3.509" height="22.76" fill="#62dbfb"/>
        </g>
        <rect id="Rectángulo_408782" data-name="Rectángulo 408782" width="8.76" height="7.383" transform="translate(29.932 34.777)" fill="#ffa78f"/>
        <rect id="Rectángulo_408783" data-name="Rectángulo 408783" width="3.612" height="7.383" transform="translate(35.08 34.777)" fill="#f89580"/>
        <rect id="Rectángulo_408784" data-name="Rectángulo 408784" width="4.5" height="12.096" transform="translate(25.432 42.16)" fill="#4f66d0"/>
        <rect id="Rectángulo_408785" data-name="Rectángulo 408785" width="4.5" height="12.096" transform="translate(38.692 42.16)" fill="#4f66d0"/>
        <path id="Trazado_1034353" data-name="Trazado 1034353" d="M375.656,332.992l5.484,11.8h11.039l-8.647-19.52a8.445,8.445,0,0,0-7.876-5.4h0Z" transform="translate(-326.834 -277.719)" fill="#99e6fc"/>
        <path id="Trazado_1034354" data-name="Trazado 1034354" d="M383.533,325.277a8.445,8.445,0,0,0-7.876-5.4v.765a8.442,8.442,0,0,1,4.367,4.633l8.647,19.52h3.509Z" transform="translate(-326.835 -277.719)" fill="#62dbfb"/>
        <path id="Trazado_1034355" data-name="Trazado 1034355" d="M144.3,164.464h-1.35a3.536,3.536,0,0,1-3.536-3.536h0a3.536,3.536,0,0,1,3.536-3.536h1.35Z" transform="translate(-122.474 -137.162)" fill="#ffa78f"/>
        <path id="Trazado_1034356" data-name="Trazado 1034356" d="M147.764,409.5h-41.6a1.228,1.228,0,0,0-1.228,1.228v4.615l2.034,6.979h39.987l2.034-6.979v-4.615A1.228,1.228,0,0,0,147.764,409.5Z" transform="translate(-92.652 -355.244)" fill="#fcd18a"/>
        <path id="Trazado_1034357" data-name="Trazado 1034357" d="M387.66,409.5h-4.592a1.228,1.228,0,0,1,1.228,1.228v4.615l-2.034,6.979h4.592l2.034-6.979v-4.615A1.228,1.228,0,0,0,387.66,409.5Z" transform="translate(-332.548 -355.244)" fill="#fbc56d"/>
        <path id="Trazado_1034358" data-name="Trazado 1034358" d="M360.677,164.464h1.35a3.536,3.536,0,0,0,3.536-3.536h0a3.536,3.536,0,0,0-3.536-3.536h-1.35Z" transform="translate(-313.877 -137.162)" fill="#ffa78f"/>
        <path id="Trazado_1034359" data-name="Trazado 1034359" d="M196.289,163.334s-2.227-2.406-8.183-2.406-8.183,2.406-8.183,2.406l-4.305-5.942v10.242a6.118,6.118,0,0,0,6.118,6.118h12.741a6.118,6.118,0,0,0,6.118-6.118V157.392Z" transform="translate(-153.794 -137.162)" fill="#b98080"/>
        <path id="Trazado_1034360" data-name="Trazado 1034360" d="M298.977,157.39v10.243a6.119,6.119,0,0,1-6.118,6.118H289.35a6.118,6.118,0,0,0,6.117-6.118v-5.4Z" transform="translate(-252.176 -137.16)" fill="#ae6c6c"/>
        <g id="Grupo_1200184" data-name="Grupo 1200184" transform="translate(0 23.715)">
          <path id="Trazado_1034361" data-name="Trazado 1034361" d="M60.07,294.527l1.775,3.54-6.5.513a1.834,1.834,0,0,1-1.784-1.006h0a1.834,1.834,0,0,1,1.5-2.651Z" transform="translate(-48.041 -279.503)" fill="#fef48b"/>
          <path id="Trazado_1034362" data-name="Trazado 1034362" d="M46.921,268.3l1.775,3.54-6.5.513a1.834,1.834,0,0,1-1.784-1.006h0a1.834,1.834,0,0,1,1.5-2.651Z" transform="translate(-36.667 -256.817)" fill="#fef056"/>
          <path id="Trazado_1034363" data-name="Trazado 1034363" d="M33.773,242.075l1.775,3.54-6.5.513a1.834,1.834,0,0,1-1.784-1.006h0a1.834,1.834,0,0,1,1.5-2.651Z" transform="translate(-25.294 -234.13)" fill="#fef48b"/>
          <path id="Trazado_1034364" data-name="Trazado 1034364" d="M20.625,215.848l1.775,3.54-6.5.513a1.834,1.834,0,0,1-1.784-1.006h0a1.834,1.834,0,0,1,1.5-2.651Z" transform="translate(-13.92 -211.443)" fill="#fef056"/>
          <path id="Trazado_1034365" data-name="Trazado 1034365" d="M86.367,346.981l1.775,3.54-6.5.513a1.834,1.834,0,0,1-1.784-1.006h0a1.834,1.834,0,0,1,1.5-2.651Z" transform="translate(-70.789 -324.877)" fill="#fef48b"/>
          <path id="Trazado_1034366" data-name="Trazado 1034366" d="M73.219,320.754l1.775,3.54-6.5.513A1.834,1.834,0,0,1,66.71,323.8h0a1.834,1.834,0,0,1,1.5-2.651Z" transform="translate(-59.416 -302.19)" fill="#fef056"/>
          <path id="Trazado_1034367" data-name="Trazado 1034367" d="M103.046,266.293l1.775,3.54,4.3-4.9a1.834,1.834,0,0,0,.261-2.032h0a1.834,1.834,0,0,0-3.019-.388Z" transform="translate(-91.017 -251.269)" fill="#fef056"/>
          <path id="Trazado_1034368" data-name="Trazado 1034368" d="M89.9,240.067l1.775,3.54,4.3-4.9a1.834,1.834,0,0,0,.261-2.032h0a1.834,1.834,0,0,0-3.018-.388Z" transform="translate(-79.643 -228.583)" fill="#fef48b"/>
          <path id="Trazado_1034369" data-name="Trazado 1034369" d="M76.749,213.841l1.775,3.54,4.3-4.9a1.834,1.834,0,0,0,.261-2.032h0a1.834,1.834,0,0,0-3.018-.388Z" transform="translate(-68.269 -205.896)" fill="#fef056"/>
          <path id="Trazado_1034370" data-name="Trazado 1034370" d="M63.6,187.614l1.775,3.54,4.3-4.9a1.834,1.834,0,0,0,.261-2.032h0a1.834,1.834,0,0,0-3.018-.388Z" transform="translate(-56.896 -183.209)" fill="#fef48b"/>
          <path id="Trazado_1034371" data-name="Trazado 1034371" d="M129.343,318.747l1.775,3.54,4.3-4.9a1.834,1.834,0,0,0,.261-2.032h0a1.834,1.834,0,0,0-3.018-.388Z" transform="translate(-113.765 -296.643)" fill="#fef056"/>
          <path id="Trazado_1034372" data-name="Trazado 1034372" d="M116.2,292.52l1.775,3.54,4.3-4.9a1.834,1.834,0,0,0,.261-2.032h0a1.834,1.834,0,0,0-3.018-.388Z" transform="translate(-102.391 -273.956)" fill="#fef48b"/>
        </g>
      </g>
      <g id="Grupo_1200187" data-name="Grupo 1200187" transform="translate(13.92 7.5)">
        <path id="Trazado_1034373" data-name="Trazado 1034373" d="M175.62,116.83v13.239" transform="translate(-153.796 -102.074)" fill="none" stroke="#000" stroke-linecap="round" stroke-linejoin="round" stroke-miterlimit="10" stroke-width="2"/>
        <path id="Trazado_1034374" data-name="Trazado 1034374" d="M360.68,129.835V116.56" transform="translate(-313.879 -101.841)" fill="none" stroke="#000" stroke-linecap="round" stroke-linejoin="round" stroke-miterlimit="10" stroke-width="2"/>
        <path id="Trazado_1034375" data-name="Trazado 1034375" d="M97.831,120.433c-4.049-1.109-6.531-2.606-6.531-4.253,0-3.424,10.739-6.2,23.986-6.2s23.986,2.776,23.986,6.2c0,1.68-2.583,3.2-6.778,4.32" transform="translate(-80.856 -96.149)" fill="none" stroke="#000" stroke-linecap="round" stroke-linejoin="round" stroke-miterlimit="10" stroke-width="2"/>
        <path id="Trazado_1034376" data-name="Trazado 1034376" d="M134.47,88.017c0,.625-.608,4.09-.608,4.09,0-3.424-10.739-6.2-23.986-6.2s-23.986,2.777-23.986,6.2c0,0-.844-3.364-.844-3.943,0-3.424,10.652-6.015,24.831-6.015S134.47,84.592,134.47,88.017Z" transform="translate(-75.446 -72.074)" fill="none" stroke="#000" stroke-linecap="round" stroke-linejoin="round" stroke-miterlimit="10" stroke-width="2"/>
        <path id="Trazado_1034377" data-name="Trazado 1034377" d="M171.9,13.8l.178-.946a6.565,6.565,0,0,1,6.451-5.35h12.957a6.565,6.565,0,0,1,6.451,5.35l1.069,5.677h0" transform="translate(-150.579 -7.5)" fill="none" stroke="#000" stroke-linecap="round" stroke-linejoin="round" stroke-miterlimit="10" stroke-width="2"/>
        <path id="Trazado_1034378" data-name="Trazado 1034378" d="M244.451,278.61v5.57H235.69v-5.57" transform="translate(-205.759 -242.02)" fill="none" stroke="#000" stroke-linecap="round" stroke-linejoin="round" stroke-miterlimit="10" stroke-width="2"/>
        <path id="Trazado_1034379" data-name="Trazado 1034379" d="M176.282,319.88h26.909v12.1" transform="translate(-154.369 -277.72)" fill="none" stroke="#000" stroke-linecap="round" stroke-linejoin="round" stroke-miterlimit="10" stroke-width="2"/>
        <line id="Línea_820" data-name="Línea 820" x1="2.034" y2="6.979" transform="translate(54.305 60.099)" fill="none" stroke="#000" stroke-linecap="round" stroke-linejoin="round" stroke-miterlimit="10" stroke-width="2"/>
        <line id="Línea_821" data-name="Línea 821" x1="2.034" y1="6.979" transform="translate(12.284 60.099)" fill="none" stroke="#000" stroke-linecap="round" stroke-linejoin="round" stroke-miterlimit="10" stroke-width="2"/>
        <path id="Trazado_1034380" data-name="Trazado 1034380" d="M138.452,415.344H104.936v-4.615a1.228,1.228,0,0,1,1.228-1.228h41.6a1.228,1.228,0,0,1,1.228,1.228v4.615h-5.808" transform="translate(-92.652 -355.245)" fill="none" stroke="#000" stroke-linecap="round" stroke-linejoin="round" stroke-miterlimit="10" stroke-width="2"/>
        <path id="Trazado_1034381" data-name="Trazado 1034381" d="M206.854,327.235v-7.356h-4.5v12.1h4.5" transform="translate(-176.922 -277.719)" fill="none" stroke="#000" stroke-linecap="round" stroke-linejoin="round" stroke-miterlimit="10" stroke-width="2"/>
        <rect id="Rectángulo_408786" data-name="Rectángulo 408786" width="4.5" height="12.096" transform="translate(38.692 42.16)" fill="none" stroke="#000" stroke-linecap="round" stroke-linejoin="round" stroke-miterlimit="10" stroke-width="2"/>
        <path id="Trazado_1034382" data-name="Trazado 1034382" d="M375.66,331.976v-12.1a8.444,8.444,0,0,1,7.875,5.4l8.647,19.52" transform="translate(-326.838 -277.72)" fill="none" stroke="#000" stroke-linecap="round" stroke-linejoin="round" stroke-miterlimit="10" stroke-width="2"/>
        <line id="Línea_822" data-name="Línea 822" x1="7.624" y2="17.211" transform="translate(3.278 49.867)" fill="none" stroke="#000" stroke-linecap="round" stroke-linejoin="round" stroke-miterlimit="10" stroke-width="2"/>
        <path id="Trazado_1034383" data-name="Trazado 1034383" d="M144.3,164.464h-1.35a3.536,3.536,0,0,1-3.536-3.536h0a3.536,3.536,0,0,1,3.536-3.536h1.35Z" transform="translate(-122.474 -137.162)" fill="none" stroke="#000" stroke-linecap="round" stroke-linejoin="round" stroke-miterlimit="10" stroke-width="2"/>
        <path id="Trazado_1034384" data-name="Trazado 1034384" d="M360.677,164.464h1.35a3.536,3.536,0,0,0,3.536-3.536h0a3.536,3.536,0,0,0-3.536-3.536h-1.35Z" transform="translate(-313.877 -137.162)" fill="none" stroke="#000" stroke-linecap="round" stroke-linejoin="round" stroke-miterlimit="10" stroke-width="2"/>
        <line id="Línea_823" data-name="Línea 823" y2="3.115" transform="translate(34.312 20.651)" fill="none" stroke="#000" stroke-linecap="round" stroke-linejoin="round" stroke-miterlimit="10" stroke-width="2"/>
        <path id="Trazado_1034385" data-name="Trazado 1034385" d="M249.052,214.614a5.665,5.665,0,0,0,5.154,0" transform="translate(-217.317 -186.661)" fill="none" stroke="#000" stroke-linecap="round" stroke-linejoin="round" stroke-miterlimit="10" stroke-width="2"/>
        <path id="Trazado_1034386" data-name="Trazado 1034386" d="M196.289,163.334s-2.227-2.406-8.183-2.406-8.183,2.406-8.183,2.406l-4.305-5.942v10.242a6.118,6.118,0,0,0,6.118,6.118h12.741a6.118,6.118,0,0,0,6.118-6.118V157.392Z" transform="translate(-153.794 -137.162)" fill="none" stroke="#000" stroke-linecap="round" stroke-linejoin="round" stroke-miterlimit="10" stroke-width="2"/>
        <g id="Grupo_1200186" data-name="Grupo 1200186" transform="translate(0 23.715)">
          <path id="Trazado_1034387" data-name="Trazado 1034387" d="M60.07,294.527l1.775,3.54-6.5.513a1.834,1.834,0,0,1-1.784-1.006h0a1.834,1.834,0,0,1,1.5-2.651Z" transform="translate(-48.041 -279.503)" fill="none" stroke="#000" stroke-linecap="round" stroke-linejoin="round" stroke-miterlimit="10" stroke-width="2"/>
          <path id="Trazado_1034388" data-name="Trazado 1034388" d="M46.921,268.3l1.775,3.54-6.5.513a1.834,1.834,0,0,1-1.784-1.006h0a1.834,1.834,0,0,1,1.5-2.651Z" transform="translate(-36.667 -256.817)" fill="none" stroke="#000" stroke-linecap="round" stroke-linejoin="round" stroke-miterlimit="10" stroke-width="2"/>
          <path id="Trazado_1034389" data-name="Trazado 1034389" d="M33.773,242.075l1.775,3.54-6.5.513a1.834,1.834,0,0,1-1.784-1.006h0a1.834,1.834,0,0,1,1.5-2.651Z" transform="translate(-25.294 -234.13)" fill="none" stroke="#000" stroke-linecap="round" stroke-linejoin="round" stroke-miterlimit="10" stroke-width="2"/>
          <path id="Trazado_1034390" data-name="Trazado 1034390" d="M20.625,215.848l1.775,3.54-6.5.513a1.834,1.834,0,0,1-1.784-1.006h0a1.834,1.834,0,0,1,1.5-2.651Z" transform="translate(-13.92 -211.443)" fill="none" stroke="#000" stroke-linecap="round" stroke-linejoin="round" stroke-miterlimit="10" stroke-width="2"/>
          <path id="Trazado_1034391" data-name="Trazado 1034391" d="M86.367,346.981l1.775,3.54-6.5.513a1.834,1.834,0,0,1-1.784-1.006h0a1.834,1.834,0,0,1,1.5-2.651Z" transform="translate(-70.789 -324.877)" fill="none" stroke="#000" stroke-linecap="round" stroke-linejoin="round" stroke-miterlimit="10" stroke-width="2"/>
          <path id="Trazado_1034392" data-name="Trazado 1034392" d="M73.219,320.754l1.775,3.54-6.5.513A1.834,1.834,0,0,1,66.71,323.8h0a1.834,1.834,0,0,1,1.5-2.651Z" transform="translate(-59.416 -302.19)" fill="none" stroke="#000" stroke-linecap="round" stroke-linejoin="round" stroke-miterlimit="10" stroke-width="2"/>
          <path id="Trazado_1034393" data-name="Trazado 1034393" d="M103.046,266.293l1.775,3.54,4.3-4.9a1.834,1.834,0,0,0,.261-2.032h0a1.834,1.834,0,0,0-3.019-.388Z" transform="translate(-91.017 -251.269)" fill="none" stroke="#000" stroke-linecap="round" stroke-linejoin="round" stroke-miterlimit="10" stroke-width="2"/>
          <path id="Trazado_1034394" data-name="Trazado 1034394" d="M89.9,240.067l1.775,3.54,4.3-4.9a1.834,1.834,0,0,0,.261-2.032h0a1.834,1.834,0,0,0-3.018-.388Z" transform="translate(-79.643 -228.583)" fill="none" stroke="#000" stroke-linecap="round" stroke-linejoin="round" stroke-miterlimit="10" stroke-width="2"/>
          <path id="Trazado_1034395" data-name="Trazado 1034395" d="M76.749,213.841l1.775,3.54,4.3-4.9a1.834,1.834,0,0,0,.261-2.032h0a1.834,1.834,0,0,0-3.018-.388Z" transform="translate(-68.269 -205.896)" fill="none" stroke="#000" stroke-linecap="round" stroke-linejoin="round" stroke-miterlimit="10" stroke-width="2"/>
          <path id="Trazado_1034396" data-name="Trazado 1034396" d="M63.6,187.614l1.775,3.54,4.3-4.9a1.834,1.834,0,0,0,.261-2.032h0a1.834,1.834,0,0,0-3.018-.388Z" transform="translate(-56.896 -183.209)" fill="none" stroke="#000" stroke-linecap="round" stroke-linejoin="round" stroke-miterlimit="10" stroke-width="2"/>
          <path id="Trazado_1034397" data-name="Trazado 1034397" d="M129.343,318.747l1.775,3.54,4.3-4.9a1.834,1.834,0,0,0,.261-2.032h0a1.834,1.834,0,0,0-3.018-.388Z" transform="translate(-113.765 -296.643)" fill="none" stroke="#000" stroke-linecap="round" stroke-linejoin="round" stroke-miterlimit="10" stroke-width="2"/>
          <path id="Trazado_1034398" data-name="Trazado 1034398" d="M116.2,292.52l1.775,3.54,4.3-4.9a1.834,1.834,0,0,0,.261-2.032h0a1.834,1.834,0,0,0-3.018-.388Z" transform="translate(-102.391 -273.956)" fill="none" stroke="#000" stroke-linecap="round" stroke-linejoin="round" stroke-miterlimit="10" stroke-width="2"/>
          <line id="Línea_824" data-name="Línea 824" x1="14.41" y1="28.745" transform="translate(5.397 1.797)" fill="none" stroke="#000" stroke-linecap="round" stroke-linejoin="round" stroke-miterlimit="10" stroke-width="2"/>
        </g>
        <line id="Línea_825" data-name="Línea 825" y2="2.988" transform="translate(55.54 35.313)" fill="none" stroke="#000" stroke-linecap="round" stroke-linejoin="round" stroke-miterlimit="10" stroke-width="2"/>
        <line id="Línea_826" data-name="Línea 826" x1="2.988" transform="translate(54.046 36.807)" fill="none" stroke="#000" stroke-linecap="round" stroke-linejoin="round" stroke-miterlimit="10" stroke-width="2"/>
        <line id="Línea_827" data-name="Línea 827" transform="translate(60.121 31.253)" fill="none" stroke="#000" stroke-linecap="round" stroke-linejoin="round" stroke-miterlimit="10" stroke-width="2"/>
        <path id="Trazado_1034399" data-name="Trazado 1034399" d="M35.842,179.984l2.438.763.617-2.46" transform="translate(-32.883 -155.237)" fill="none" stroke="#000" stroke-linecap="round" stroke-linejoin="round" stroke-miterlimit="10" stroke-width="2"/>
      </g>
    </g>
  </g>
</svg>
