<svg xmlns="http://www.w3.org/2000/svg" xmlns:xlink="http://www.w3.org/1999/xlink" width="117.999" height="118" viewBox="0 0 117.999 118">
  <defs>
    <filter id="Trazado_874925" x="0" y="0" width="117.999" height="118" filterUnits="userSpaceOnUse">
      <feOffset dy="3" input="SourceAlpha"/>
      <feGaussianBlur stdDeviation="3" result="blur"/>
      <feFlood flood-opacity="0.161"/>
      <feComposite operator="in" in2="blur"/>
      <feComposite in="SourceGraphic"/>
    </filter>
  </defs>
  <g id="Grupo_1200192" data-name="Grupo 1200192" transform="translate(-793.781 -11093.963)">
    <g id="Grupo_1198816" data-name="Grupo 1198816" transform="translate(-5.719 8582.806)">
      <g id="Grupo_1111316" data-name="Grupo 1111316" transform="translate(808.5 2517.157)">
        <g id="Grupo_1109835" data-name="Grupo 1109835" transform="translate(0 0)">
          <g id="Grupo_1107913" data-name="Grupo 1107913" transform="translate(0 0)">
            <g transform="matrix(1, 0, 0, 1, -9, -6)" filter="url(#Trazado_874925)">
              <g id="Trazado_874925-2" data-name="Trazado 874925" transform="translate(9 6)" fill="#9ad354" opacity="0.859">
                <path d="M 49.99972534179688 98.4998779296875 C 43.45164108276367 98.4998779296875 37.10022354125977 97.21776580810547 31.12189674377441 94.68914794921875 C 25.34676742553711 92.24647521972656 20.15985298156738 88.74925994873047 15.70523929595947 84.29464721679688 C 11.25062561035156 79.84004974365234 7.753411293029785 74.65313720703125 5.310725212097168 68.87800598144531 C 2.782111167907715 62.89969253540039 1.499996781349182 56.54829406738281 1.499996781349182 50.00022125244141 C 1.499996781349182 43.45157623291016 2.782111167907715 37.10017776489258 5.310725212097168 31.12186431884766 C 7.753411293029785 25.34673500061035 11.25062561035156 20.15983581542969 15.70523929595947 15.70522117614746 C 20.15985298156738 11.25062084197998 25.34676742553711 7.753406524658203 31.12189674377441 5.31073522567749 C 37.10022354125977 2.782120943069458 43.45164108276367 1.500006556510925 49.99972534179688 1.500006556510925 C 56.54780960083008 1.500006556510925 62.89922714233398 2.782120943069458 68.87755584716797 5.31073522567749 C 74.65267944335938 7.753406524658203 79.839599609375 11.25062084197998 84.29421234130859 15.70522117614746 C 88.74882507324219 20.15983581542969 92.24604034423828 25.34673500061035 94.68872833251953 31.12186431884766 C 97.21733856201172 37.10017776489258 98.49945068359375 43.45157623291016 98.49945068359375 49.99964904785156 C 98.49945068359375 56.54829406738281 97.21733856201172 62.89969253540039 94.68872833251953 68.87800598144531 C 92.24604034423828 74.65313720703125 88.74882507324219 79.84004974365234 84.29421234130859 84.29464721679688 C 79.839599609375 88.74925994873047 74.65267944335938 92.24647521972656 68.87755584716797 94.68914794921875 C 62.89922714233398 97.21776580810547 56.54780960083008 98.4998779296875 49.99972534179688 98.4998779296875 Z" stroke="none"/>
                <path d="M 49.99972534179688 3 C 43.65348052978516 3 37.49866485595703 4.242240905761719 31.70623016357422 6.692230224609375 C 26.10989379882812 9.059272766113281 21.08323669433594 12.44853210449219 16.76589202880859 16.76587677001953 C 12.44855499267578 21.08321380615234 9.059295654296875 26.10985565185547 6.692230224609375 31.70618438720703 C 4.24224853515625 37.49859619140625 3 43.65341186523438 3 50.00022888183594 C 3 56.34645843505859 4.24224853515625 62.50127410888672 6.692230224609375 68.29368591308594 C 9.059295654296875 73.8900146484375 12.44855499267578 78.91665649414062 16.76589202880859 83.23399353027344 C 21.08323669433594 87.55132293701172 26.10989379882812 90.94059753417969 31.70623016357422 93.30764007568359 C 37.49866485595703 95.75762939453125 43.65348052978516 96.99987030029297 49.99972534179688 96.99987030029297 C 56.34597015380859 96.99987030029297 62.50078582763672 95.75762939453125 68.293212890625 93.30764007568359 C 73.88955688476562 90.94059753417969 78.91621398925781 87.55132293701172 83.23355865478516 83.23399353027344 C 87.55089569091797 78.91665649414062 90.94015502929688 73.8900146484375 93.30722045898438 68.29368591308594 C 95.7572021484375 62.50127410888672 96.99945068359375 56.34645843505859 96.99945068359375 49.99964141845703 C 96.99945068359375 43.65341186523438 95.7572021484375 37.49859619140625 93.30722045898438 31.70618438720703 C 90.94015502929688 26.10985565185547 87.55089569091797 21.08321380615234 83.23355865478516 16.76587677001953 C 78.91621398925781 12.44853210449219 73.88955688476562 9.059272766113281 68.293212890625 6.692230224609375 C 62.50078582763672 4.242240905761719 56.34597015380859 3 49.99972534179688 3 M 49.99972534179688 0 C 77.61381530761719 0 99.99945068359375 22.38559722900391 99.99945068359375 49.99964141845703 L 99.99945068359375 50.00022888183594 C 99.99945068359375 77.6142578125 77.61381530761719 99.99987030029297 49.99972534179688 99.99987030029297 C 22.38563537597656 99.99987030029297 0 77.6142578125 0 50.00022888183594 L 0 49.99964141845703 C 0 22.38559722900391 22.38563537597656 0 49.99972534179688 0 Z" stroke="none" fill="#fff"/>
              </g>
            </g>
            <g id="Trazado_874923" data-name="Trazado 874923" transform="translate(0 0)" fill="none">
              <path d="M50,0a50,50,0,0,1,50,50h0A50,50,0,0,1,0,50H0A50,50,0,0,1,50,0Z" stroke="none"/>
              <path d="M 49.99972534179688 3 C 43.65348052978516 3 37.49866485595703 4.242240905761719 31.70623016357422 6.692230224609375 C 26.10989379882812 9.059272766113281 21.08323669433594 12.44853210449219 16.76589202880859 16.76587677001953 C 12.44855499267578 21.08321380615234 9.059295654296875 26.10985565185547 6.692230224609375 31.70618438720703 C 4.24224853515625 37.49859619140625 3 43.65341186523438 3 50.00022888183594 C 3 56.34645843505859 4.24224853515625 62.50127410888672 6.692230224609375 68.29368591308594 C 9.059295654296875 73.8900146484375 12.44855499267578 78.91665649414062 16.76589202880859 83.23399353027344 C 21.08323669433594 87.55132293701172 26.10989379882812 90.94059753417969 31.70623016357422 93.30764007568359 C 37.49866485595703 95.75762939453125 43.65348052978516 96.99987030029297 49.99972534179688 96.99987030029297 C 56.34597015380859 96.99987030029297 62.50078582763672 95.75762939453125 68.293212890625 93.30764007568359 C 73.88955688476562 90.94059753417969 78.91621398925781 87.55132293701172 83.23355865478516 83.23399353027344 C 87.55089569091797 78.91665649414062 90.94015502929688 73.8900146484375 93.30722045898438 68.29368591308594 C 95.7572021484375 62.50127410888672 96.99945068359375 56.34645843505859 96.99945068359375 49.99964141845703 C 96.99945068359375 43.65341186523438 95.7572021484375 37.49859619140625 93.30722045898438 31.70618438720703 C 90.94015502929688 26.10985565185547 87.55089569091797 21.08321380615234 83.23355865478516 16.76587677001953 C 78.91621398925781 12.44853210449219 73.88955688476562 9.059272766113281 68.293212890625 6.692230224609375 C 62.50078582763672 4.242240905761719 56.34597015380859 3 49.99972534179688 3 M 49.99972534179688 0 C 77.61381530761719 0 99.99945068359375 22.38559722900391 99.99945068359375 49.99964141845703 L 99.99945068359375 50.00022888183594 C 99.99945068359375 77.6142578125 77.61381530761719 99.99987030029297 49.99972534179688 99.99987030029297 C 22.38563537597656 99.99987030029297 0 77.6142578125 0 50.00022888183594 L 0 49.99964141845703 C 0 22.38559722900391 22.38563537597656 0 49.99972534179688 0 Z" stroke="none" fill="#fff"/>
            </g>
          </g>
        </g>
      </g>
    </g>
    <g id="america-del-sur" transform="translate(770.891 11119.184)">
      <path id="Trazado_1034400" data-name="Trazado 1034400" d="M109.184,34.255a4.5,4.5,0,0,1-3.4-3.139c-.159.088-.32.173-.483.253a1.647,1.647,0,0,0-.714.669l-3.38,5.99a.666.666,0,0,1-1.16,0l-3.38-5.99a1.65,1.65,0,0,0-.716-.67,10.69,10.69,0,0,1-5.809-7.588,4.287,4.287,0,0,0-.728.534c-3.841,3.779-3.018-.92-5.376-.134s-2.858-2.072-3.144-3.43-2.072-2.072-5.145-1.572-2.93-4.644-3.573-5.716-2.5.5-3.858-2.5c-.774-1.71-2.894-2.672-4.574-3.182a1.139,1.139,0,0,0-1.423,1.427c.88,2.752,1.1,6.251,4.925,10.186,4.787,4.93,10.5,3.5,11.147,5.5s3.43,1.5,5.287,3.787-1.072,3.93-1.643,7.931,3.073,5.5,6.071,7.431,3.432,4.5,2.789,6.5-.286,5.287.143,8.217a22.9,22.9,0,0,1-.857,8.646c-.572,1.858.286,6.288,3.644,7.349s4.573-1.562,2.572-2.2-1.858-3.787-1.358-7.717,4.359-1.572,6-6.788,5.931-2.644,7.36-8.574,5.359-7.145,6.145-10.289-.572-3.858-5.359-4.93Z" transform="translate(-6.599 -6.683)" fill="#43cb8e"/>
      <path id="Trazado_1034401" data-name="Trazado 1034401" d="M96.394,72.554c-1.589-.511-1.825-2.6-1.6-5.405a6.328,6.328,0,0,1-.129-3.305,22.9,22.9,0,0,0,.857-8.646c-.429-2.93-.786-6.216-.143-8.217s.209-4.573-2.789-6.5-6.642-3.43-6.071-7.431c.558-3.9,3.356-5.563,1.77-7.764-2.572,1.826-2.158-1.8-4.252-1.1-2.358.786-2.858-2.072-3.144-3.43s-2.072-2.072-5.145-1.572-2.93-4.644-3.573-5.716-2.5.5-3.858-2.5c-.774-1.71-2.894-2.672-4.574-3.182a1.139,1.139,0,0,0-1.423,1.427c.88,2.752,1.1,6.251,4.925,10.186,4.787,4.93,10.5,3.5,11.147,5.5s3.43,1.5,5.287,3.787-1.072,3.93-1.643,7.931,3.073,5.5,6.071,7.431,3.432,4.5,2.789,6.5-.286,5.287.143,8.217a22.9,22.9,0,0,1-.857,8.646c-.572,1.858.286,6.288,3.644,7.349s4.573-1.562,2.572-2.2Z" transform="translate(-6.599 -6.683)" fill="#00ba66"/>
      <path id="Trazado_1034402" data-name="Trazado 1034402" d="M200.885,40.372a10.611,10.611,0,0,1,2.647-4.579,1.511,1.511,0,0,1-.9-.253c-1.323-.934-5.641,1.011-9.337-1.829s-3.657.467-2.451,2.3c0,0,.311.817,2.684.973s2.334,2.334,3.735,2.607A11.846,11.846,0,0,0,200.885,40.372Z" transform="translate(-117.143 -28.191)" fill="#00ba66"/>
      <path id="Trazado_1034403" data-name="Trazado 1034403" d="M276.864,32.107a10.729,10.729,0,0,0-4.446,20.37,1.659,1.659,0,0,1,.719.673l3.4,6.019a.669.669,0,0,0,1.166,0l3.4-6.019a1.655,1.655,0,0,1,.718-.673,10.729,10.729,0,0,0-4.95-20.371Z" transform="translate(-183.094 -27.758)" fill="#ff8188"/>
      <path id="Trazado_1034404" data-name="Trazado 1034404" d="M277.766,53.152a1.658,1.658,0,0,0-.719-.673,10.732,10.732,0,0,1,2.373-20.123,10.728,10.728,0,0,0-7,20.122,1.659,1.659,0,0,1,.719.673l3.4,6.019a.669.669,0,0,0,1.166,0l1.731-3.068Z" transform="translate(-183.094 -27.759)" fill="#ff656f"/>
      <circle id="Elipse_12214" data-name="Elipse 12214" cx="6.099" cy="6.099" r="6.099" transform="translate(85.644 13.085) rotate(-31.72)" fill="#ff656f"/>
      <path id="Trazado_1034405" data-name="Trazado 1034405" d="M305.21,72.4a6.1,6.1,0,0,1,3.785-5.644,6.1,6.1,0,1,0,0,11.287A6.1,6.1,0,0,1,305.21,72.4Z" transform="translate(-212.658 -57.323)" fill="#ff4756"/>
      <path id="Trazado_1034406" data-name="Trazado 1034406" d="M80.423,18.079a2.231,2.231,0,0,1-.408-.448,2.457,2.457,0,0,0-2.92-1.126c-.475.158-.673.045-.738.007-.636-.366-.941-1.965-1.091-2.683-.162-.769-1.094-3.213-6.3-2.365-1.082.176-1.517-.991-1.988-3.352-.358-1.8-.546-2.692-2.478-2.844-.711-.056-1.273-.1-1.877-1.437C61.688,1.767,59.277.661,57.418.1A2.155,2.155,0,0,0,54.733,2.8c.861,2.695,1.14,6.44,5.164,10.584a15.921,15.921,0,0,0,8.731,4.383c.731.161,2.093.46,2.177.723.477,1.484,1.748,2,2.869,2.456a5.9,5.9,0,0,1,2.6,1.661c.618.76.483,1.227-.361,2.892a13.125,13.125,0,0,0-1.5,4.255c-.587,4.107,2.525,5.991,5.27,7.652.418.253.85.514,1.256.776,2.947,1.9,2.751,4.158,2.372,5.338-.7,2.188-.365,5.462.1,8.675a21.755,21.755,0,0,1-.823,8.2c-.717,2.331.374,7.372,4.308,8.616,2.621.828,4.351-.185,4.767-1.491a2.114,2.114,0,0,0-1.578-2.649c-1.27-.408-1.068-3.424-.661-6.622.166-1.3.713-1.549,1.8-2.034a6.575,6.575,0,0,0,4.16-4.577,4.618,4.618,0,0,1,2.59-3.077,1.015,1.015,0,0,0-.955-1.792,6.6,6.6,0,0,0-3.572,4.258A4.6,4.6,0,0,1,90.4,54.364,4.184,4.184,0,0,0,87.413,58c-.525,4.127-.763,7.906,2.054,8.812a.691.691,0,0,1,.251.127c-.188.293-.99.528-2.207.143-2.751-.87-3.42-4.652-2.98-6.083a23.814,23.814,0,0,0,.892-9.091c-.39-2.662-.762-5.951-.181-7.759.934-2.907-.264-5.773-3.207-7.667-.43-.277-.874-.546-1.3-.806-2.919-1.767-4.689-2.984-4.311-5.628a11.261,11.261,0,0,1,1.3-3.624c.805-1.588,1.638-3.231.126-5.091a7.749,7.749,0,0,0-3.409-2.262c-1.076-.437-1.531-.668-1.7-1.2-.442-1.374-1.94-1.7-3.675-2.085a13.957,13.957,0,0,1-7.71-3.814c-3.614-3.722-3.8-7-4.687-9.788a.1.1,0,0,1,.028-.113.122.122,0,0,1,.133-.034c2.06.625,3.46,1.559,3.944,2.629A3.948,3.948,0,0,0,64.71,7.332c.268.7.437,2.874,1.249,4.378a3.065,3.065,0,0,0,3.332,1.759c1.322-.215,3.747-.376,4.019.929.239,1.149.639,3.073,2.034,3.875a2.841,2.841,0,0,0,2.393.159c.235-.078.259-.086.678.45A2.606,2.606,0,0,0,80.28,20.1a3.836,3.836,0,0,0,2.663-1.252,11.651,11.651,0,0,0,5.468,6.471c.506.276.629.286.751.5l3.38,5.989a1.683,1.683,0,0,0,2.929,0l3.306-5.859a5.215,5.215,0,0,0,3.57,2.578c2.515.563,4.162,1.056,4.6,1.773.144.233.3.686-.009,1.92a7.5,7.5,0,0,1-2,3,15.5,15.5,0,0,0-4.145,7.3,7.574,7.574,0,0,1-.571,1.623,1.015,1.015,0,0,0,1.813.913A9.455,9.455,0,0,0,102.769,43a13.573,13.573,0,0,1,3.679-6.417,9.179,9.179,0,0,0,2.464-3.863,4.467,4.467,0,0,0-.233-3.479c-.834-1.352-2.564-1.944-5.889-2.689a3.2,3.2,0,0,1-2.33-1.746,11.7,11.7,0,0,0,4.808-6.607,1.015,1.015,0,1,0-1.956-.545,9.659,9.659,0,0,1-4.64,5.861,3.244,3.244,0,0,0-1.59,1.312l-3.076,5.451L90.93,24.828a2.655,2.655,0,0,0-1.154-1.083,9.665,9.665,0,1,1,13.739-10.378,1.015,1.015,0,0,0,2-.353A11.718,11.718,0,0,0,86.039,6.48a4.982,4.982,0,0,0-3.089-.419c-1.848.09-4.148.2-6.2-1.375-1.843-1.416-3.246-1.7-4.17-.839-1.14,1.061-.57,3.206.213,4.436.247.477,1.034,1.327,3.506,1.489a2.065,2.065,0,0,1,1.692,1.13,3.134,3.134,0,0,0,1.916,1.46,26.6,26.6,0,0,0,2.572.723,11.923,11.923,0,0,0-.063,3.509,4.191,4.191,0,0,0-.335.284C80.848,18.092,80.42,18.077,80.423,18.079Zm.963-7.388a8.037,8.037,0,0,0-1.092-.322c-.192-.037-.38-.28-.669-.673a4.027,4.027,0,0,0-3.193-1.951,3.4,3.4,0,0,1-1.873-.469c-.01-.017-.02-.033-.031-.049a3.224,3.224,0,0,1-.559-1.813,4.375,4.375,0,0,1,1.544.881c2.642,2.03,5.587,1.888,7.535,1.793a11.709,11.709,0,0,1,1.561-.012,11.545,11.545,0,0,0-1.618,3.031,7.348,7.348,0,0,1-1.6-.418Z" transform="translate(0 0)"/>
      <path id="Trazado_1034407" data-name="Trazado 1034407" d="M300.265,58.909a7.084,7.084,0,1,0,7.084,7.084,7.092,7.092,0,0,0-7.084-7.084Zm0,12.138a5.054,5.054,0,1,1,5.054-5.054A5.059,5.059,0,0,1,300.265,71.047Z" transform="translate(-206.26 -50.934)"/>
    </g>
  </g>
</svg>
