<svg xmlns="http://www.w3.org/2000/svg" xmlns:xlink="http://www.w3.org/1999/xlink" width="118" height="118" viewBox="0 0 118 118">
  <defs>
    <filter id="Trazado_874925" x="0" y="0" width="118" height="118" filterUnits="userSpaceOnUse">
      <feOffset dy="3" input="SourceAlpha"/>
      <feGaussianBlur stdDeviation="3" result="blur"/>
      <feFlood flood-opacity="0.161"/>
      <feComposite operator="in" in2="blur"/>
      <feComposite in="SourceGraphic"/>
    </filter>
  </defs>
  <g id="Grupo_1200193" data-name="Grupo 1200193" transform="translate(-1108.781 -11093.963)">
    <g id="Grupo_1198817" data-name="Grupo 1198817" transform="translate(309.281 8582.806)">
      <g id="Grupo_1111316" data-name="Grupo 1111316" transform="translate(808.5 2517.157)">
        <g id="Grupo_1109835" data-name="Grupo 1109835" transform="translate(0 0)">
          <g id="Grupo_1107913" data-name="Grupo 1107913" transform="translate(0 0)">
            <g transform="matrix(1, 0, 0, 1, -9, -6)" filter="url(#Trazado_874925)">
              <g id="Trazado_874925-2" data-name="Trazado 874925" transform="translate(9 6)" fill="#9ad354" opacity="0.859">
                <path d="M 49.99972534179688 98.4998779296875 C 43.45164108276367 98.4998779296875 37.10022354125977 97.21776580810547 31.12189674377441 94.68914794921875 C 25.34676742553711 92.24647521972656 20.15985298156738 88.74925994873047 15.70523929595947 84.29464721679688 C 11.25062561035156 79.84004974365234 7.753411293029785 74.65313720703125 5.310725212097168 68.87800598144531 C 2.782111167907715 62.89969253540039 1.499996781349182 56.54829406738281 1.499996781349182 50.00022125244141 C 1.499996781349182 43.45157623291016 2.782111167907715 37.10017776489258 5.310725212097168 31.12186431884766 C 7.753411293029785 25.34673500061035 11.25062561035156 20.15983581542969 15.70523929595947 15.70522117614746 C 20.15985298156738 11.25062084197998 25.34676742553711 7.753406524658203 31.12189674377441 5.31073522567749 C 37.10022354125977 2.782120943069458 43.45164108276367 1.500006556510925 49.99972534179688 1.500006556510925 C 56.54780960083008 1.500006556510925 62.89922714233398 2.782120943069458 68.87755584716797 5.31073522567749 C 74.65267944335938 7.753406524658203 79.839599609375 11.25062084197998 84.29421234130859 15.70522117614746 C 88.74882507324219 20.15983581542969 92.24604034423828 25.34673500061035 94.68872833251953 31.12186431884766 C 97.21733856201172 37.10017776489258 98.49945068359375 43.45157623291016 98.49945068359375 49.99964904785156 C 98.49945068359375 56.54829406738281 97.21733856201172 62.89969253540039 94.68872833251953 68.87800598144531 C 92.24604034423828 74.65313720703125 88.74882507324219 79.84004974365234 84.29421234130859 84.29464721679688 C 79.839599609375 88.74925994873047 74.65267944335938 92.24647521972656 68.87755584716797 94.68914794921875 C 62.89922714233398 97.21776580810547 56.54780960083008 98.4998779296875 49.99972534179688 98.4998779296875 Z" stroke="none"/>
                <path d="M 49.99972534179688 3 C 43.65348052978516 3 37.49866485595703 4.242240905761719 31.70623016357422 6.692230224609375 C 26.10989379882812 9.059272766113281 21.08323669433594 12.44853210449219 16.76589202880859 16.76587677001953 C 12.44855499267578 21.08321380615234 9.059295654296875 26.10985565185547 6.692230224609375 31.70618438720703 C 4.24224853515625 37.49859619140625 3 43.65341186523438 3 50.00022888183594 C 3 56.34645843505859 4.24224853515625 62.50127410888672 6.692230224609375 68.29368591308594 C 9.059295654296875 73.8900146484375 12.44855499267578 78.91665649414062 16.76589202880859 83.23399353027344 C 21.08323669433594 87.55132293701172 26.10989379882812 90.94059753417969 31.70623016357422 93.30764007568359 C 37.49866485595703 95.75762939453125 43.65348052978516 96.99987030029297 49.99972534179688 96.99987030029297 C 56.34597015380859 96.99987030029297 62.50078582763672 95.75762939453125 68.293212890625 93.30764007568359 C 73.88955688476562 90.94059753417969 78.91621398925781 87.55132293701172 83.23355865478516 83.23399353027344 C 87.55089569091797 78.91665649414062 90.94015502929688 73.8900146484375 93.30722045898438 68.29368591308594 C 95.7572021484375 62.50127410888672 96.99945068359375 56.34645843505859 96.99945068359375 49.99964141845703 C 96.99945068359375 43.65341186523438 95.7572021484375 37.49859619140625 93.30722045898438 31.70618438720703 C 90.94015502929688 26.10985565185547 87.55089569091797 21.08321380615234 83.23355865478516 16.76587677001953 C 78.91621398925781 12.44853210449219 73.88955688476562 9.059272766113281 68.293212890625 6.692230224609375 C 62.50078582763672 4.242240905761719 56.34597015380859 3 49.99972534179688 3 M 49.99972534179688 0 C 77.61381530761719 0 99.99945068359375 22.38559722900391 99.99945068359375 49.99964141845703 L 99.99945068359375 50.00022888183594 C 99.99945068359375 77.6142578125 77.61381530761719 99.99987030029297 49.99972534179688 99.99987030029297 C 22.38563537597656 99.99987030029297 0 77.6142578125 0 50.00022888183594 L 0 49.99964141845703 C 0 22.38559722900391 22.38563537597656 0 49.99972534179688 0 Z" stroke="none" fill="#fff"/>
              </g>
            </g>
            <g id="Trazado_874923" data-name="Trazado 874923" transform="translate(0 0)" fill="none">
              <path d="M50,0a50,50,0,0,1,50,50h0A50,50,0,0,1,0,50H0A50,50,0,0,1,50,0Z" stroke="none"/>
              <path d="M 49.99972534179688 3 C 43.65348052978516 3 37.49866485595703 4.242240905761719 31.70623016357422 6.692230224609375 C 26.10989379882812 9.059272766113281 21.08323669433594 12.44853210449219 16.76589202880859 16.76587677001953 C 12.44855499267578 21.08321380615234 9.059295654296875 26.10985565185547 6.692230224609375 31.70618438720703 C 4.24224853515625 37.49859619140625 3 43.65341186523438 3 50.00022888183594 C 3 56.34645843505859 4.24224853515625 62.50127410888672 6.692230224609375 68.29368591308594 C 9.059295654296875 73.8900146484375 12.44855499267578 78.91665649414062 16.76589202880859 83.23399353027344 C 21.08323669433594 87.55132293701172 26.10989379882812 90.94059753417969 31.70623016357422 93.30764007568359 C 37.49866485595703 95.75762939453125 43.65348052978516 96.99987030029297 49.99972534179688 96.99987030029297 C 56.34597015380859 96.99987030029297 62.50078582763672 95.75762939453125 68.293212890625 93.30764007568359 C 73.88955688476562 90.94059753417969 78.91621398925781 87.55132293701172 83.23355865478516 83.23399353027344 C 87.55089569091797 78.91665649414062 90.94015502929688 73.8900146484375 93.30722045898438 68.29368591308594 C 95.7572021484375 62.50127410888672 96.99945068359375 56.34645843505859 96.99945068359375 49.99964141845703 C 96.99945068359375 43.65341186523438 95.7572021484375 37.49859619140625 93.30722045898438 31.70618438720703 C 90.94015502929688 26.10985565185547 87.55089569091797 21.08321380615234 83.23355865478516 16.76587677001953 C 78.91621398925781 12.44853210449219 73.88955688476562 9.059272766113281 68.293212890625 6.692230224609375 C 62.50078582763672 4.242240905761719 56.34597015380859 3 49.99972534179688 3 M 49.99972534179688 0 C 77.61381530761719 0 99.99945068359375 22.38559722900391 99.99945068359375 49.99964141845703 L 99.99945068359375 50.00022888183594 C 99.99945068359375 77.6142578125 77.61381530761719 99.99987030029297 49.99972534179688 99.99987030029297 C 22.38563537597656 99.99987030029297 0 77.6142578125 0 50.00022888183594 L 0 49.99964141845703 C 0 22.38559722900391 22.38563537597656 0 49.99972534179688 0 Z" stroke="none" fill="#fff"/>
            </g>
          </g>
        </g>
      </g>
    </g>
    <g id="military_11273325" transform="translate(1100.993 11113.558)">
      <path id="Trazado_1034408" data-name="Trazado 1034408" d="M194.959,339.968v-6.312l-6.017,2.006v5.1a24.448,24.448,0,0,0,.833,6.328l.205.765,3.072,1.253,2.74-2.811h0A24.451,24.451,0,0,1,194.959,339.968Z" transform="translate(-130.961 -284.039)" fill="#6c7fd8"/>
      <path id="Trazado_1034409" data-name="Trazado 1034409" d="M188.942,337.6h3.618a8.41,8.41,0,0,0,2.4-.348v-3.595l-6.017,2.006Z" transform="translate(-130.961 -284.04)" fill="#4f66d0"/>
      <path id="Trazado_1034410" data-name="Trazado 1034410" d="M101.1,19.534A15.5,15.5,0,0,0,86,7.5H82.192L56.751,32.35l-2.413,7.239L72.357,51.623h2.981A6.457,6.457,0,0,0,81.6,46.732l2.031-8.123a4,4,0,0,1,3.882-3.031h3.9Z" transform="translate(-13.739 0)" fill="#9be69d"/>
      <path id="Trazado_1034411" data-name="Trazado 1034411" d="M126.99,209.92h2.981a2.442,2.442,0,0,0,2.372-1.852l2.031-8.123a8.077,8.077,0,0,1,.378-1.144l-.62-2.479A3.228,3.228,0,0,0,131,193.875h-8.737a3.228,3.228,0,0,0-2.888,1.785h0a29.536,29.536,0,0,0-2.3,6.321Z" transform="translate(-68.372 -162.308)" fill="#bbf49b"/>
      <path id="Trazado_1034412" data-name="Trazado 1034412" d="M197.583,430.68l-6.5,1.742a.646.646,0,0,0-.457.791l1.742,6.5a.646.646,0,0,0,.791.457l6.5-1.742a.646.646,0,0,0,.457-.791l-1.742-6.5A.646.646,0,0,0,197.583,430.68Z" transform="translate(-132.407 -368.514)" fill="#dff6fd"/>
      <path id="Trazado_1034413" data-name="Trazado 1034413" d="M209.7,437.638l-1.742-6.5a.646.646,0,0,0-.791-.457l-1.19.319,1.4,5.219a.646.646,0,0,1-.457.791l-5.312,1.423.344,1.283a.646.646,0,0,0,.791.457l6.5-1.742A.646.646,0,0,0,209.7,437.638Z" transform="translate(-141.987 -368.514)" fill="#c5eff9"/>
      <path id="Trazado_1034414" data-name="Trazado 1034414" d="M55.782,260.011a2.836,2.836,0,0,1-2.006-.831l-1.066-1.066A7.22,7.22,0,0,0,47.605,256H40.6l-1.9,5.712a2.583,2.583,0,0,0,1.491,3.215h0a43.437,43.437,0,0,0,16.132,3.107h2.3v-5.186A2.836,2.836,0,0,0,55.782,260.011Z" transform="translate(0 -216.411)" fill="#ffe177"/>
      <path id="Trazado_1034415" data-name="Trazado 1034415" d="M312.476,91.938l-1.91-1.273a4.05,4.05,0,0,0-4.058-.253,2.134,2.134,0,0,0-.955,2.864h0a3.261,3.261,0,0,1-.611,3.764l-1.519,1.519a2.837,2.837,0,0,0-.831,2.006h0a2.836,2.836,0,0,0,2.836,2.836h2.178l5.014-6.017Z" transform="translate(-229.937 -71.833)" fill="#fea95c"/>
      <path id="Trazado_1034416" data-name="Trazado 1034416" d="M195.215,18.866l3.731,1.493a2.152,2.152,0,0,0,2.951-2,1.347,1.347,0,0,1,.745-1.2h0a4.449,4.449,0,0,0,2.3-5.155L203.71,7.5h-3.818l-6.017,8.022Z" transform="translate(-135.257 0)" fill="#fea95c"/>
      <path id="Trazado_1034417" data-name="Trazado 1034417" d="M118.659,260.575a2.836,2.836,0,0,1-2.006-.831l-1.066-1.066a7.219,7.219,0,0,0-4.01-2.031,29.547,29.547,0,0,0-.815,7.03,39.339,39.339,0,0,0,8.432.909h2.3v-1.175A2.836,2.836,0,0,0,118.659,260.575Z" transform="translate(-62.877 -216.974)" fill="#fff0ad"/>
      <path id="Trazado_1034418" data-name="Trazado 1034418" d="M358.184,110.523l-5.082-3.388a1.937,1.937,0,0,1-.816-1.191l-1.146-5.156-.023-.1h-2.8a3.889,3.889,0,0,0-3.889,3.889,5.136,5.136,0,0,1-1.5,3.631,5.136,5.136,0,0,0-1.5,3.631v4.892h16.4a.646.646,0,0,0,.646-.646v-5.025A.647.647,0,0,0,358.184,110.523Z" transform="translate(-263.753 -81.154)" fill="#ffe177"/>
      <path id="Trazado_1034419" data-name="Trazado 1034419" d="M188.969,210.938a4,4,0,0,0-3.882,3.031l-2.031,8.123a6.457,6.457,0,0,1-6.264,4.891h-3.88l2.707,1.808H178.6a6.457,6.457,0,0,0,6.264-4.891l2.031-8.123a4,4,0,0,1,3.882-3.031h3.9l1.092-1.808Z" transform="translate(-117.001 -177.168)" fill="#6fd7a3"/>
      <path id="Trazado_1034420" data-name="Trazado 1034420" d="M55.168,314.987a43.439,43.439,0,0,1-15.851-3,2.58,2.58,0,0,0,1.526,1.7h0A43.438,43.438,0,0,0,56.976,316.8h2.3v-1.808H55.168Z" transform="translate(-0.657 -265.172)" fill="#ffd15b"/>
      <path id="Trazado_1034421" data-name="Trazado 1034421" d="M358.182,170.024l-1.52-1.014v4.768a.646.646,0,0,1-.646.646H341.422v1.808h16.4a.646.646,0,0,0,.646-.646v-5.025A.646.646,0,0,0,358.182,170.024Z" transform="translate(-263.751 -140.654)" fill="#ffd15b"/>
      <path id="Trazado_1034422" data-name="Trazado 1034422" d="M83.522,24.83a6.937,6.937,0,0,1,4.388-4.388h0a3.987,3.987,0,0,0,2.726-3.782h0a2.747,2.747,0,0,1,.8-1.942L92.455,13.7a7.482,7.482,0,0,0,2.191-5.29V7.5h-.74A19.953,19.953,0,0,0,73.954,27.453v1.375a4.518,4.518,0,0,1-.232,1.429l-.7,2.093,7.019-3.509A6.937,6.937,0,0,0,83.522,24.83Z" transform="translate(-30.012 0)" fill="#ffe177"/>
      <circle id="Elipse_12215" data-name="Elipse 12215" cx="2.006" cy="2.006" r="2.006" transform="translate(56.613 35.578)" fill="#6c7fd8"/>
      <path id="Trazado_1034423" data-name="Trazado 1034423" d="M332.011,281.231a.953.953,0,0,1,0-1.348L335.9,276a.953.953,0,0,0,0-1.348l-2.839-2.839a.953.953,0,0,0-1.348,0l-3.885,3.885a.953.953,0,0,1-1.348,0l-3.885-3.885a.953.953,0,0,0-1.348,0L318.4,274.65a.953.953,0,0,0,0,1.348l3.885,3.885a.953.953,0,0,1,0,1.348l-3.885,3.885a.953.953,0,0,0,0,1.348l2.839,2.839a.953.953,0,0,0,1.348,0l3.885-3.885a.953.953,0,0,1,1.348,0l3.885,3.885a.953.953,0,0,0,1.348,0l2.839-2.839a.953.953,0,0,0,0-1.348Z" transform="translate(-243.463 -229.937)" fill="#fe5694"/>
      <path id="Trazado_1034424" data-name="Trazado 1034424" d="M408.1,281.231a.953.953,0,0,1,0-1.348L411.983,276a.953.953,0,0,0,0-1.348l-2.839-2.839a.953.953,0,0,0-1.348,0l-.424.424,2.286,2.286a.953.953,0,0,1,0,1.348l-3.885,3.885a.953.953,0,0,0,0,1.348l3.885,3.885a.953.953,0,0,1,0,1.348l-2.415,2.415.553.553a.953.953,0,0,0,1.348,0l2.839-2.839a.953.953,0,0,0,0-1.348Z" transform="translate(-319.55 -229.937)" fill="#fd3581"/>
      <path id="Trazado_1034425" data-name="Trazado 1034425" d="M236.369,356.711h0a24.45,24.45,0,0,1-.833-6.328v-4.768" transform="translate(-171.538 -294.453)" fill="none" stroke="#000" stroke-linecap="round" stroke-linejoin="round" stroke-miterlimit="10" stroke-width="2"/>
      <path id="Trazado_1034426" data-name="Trazado 1034426" d="M190.12,409.757a24.458,24.458,0,0,0,.681,3.606l.205.765" transform="translate(-131.987 -350.313)" fill="none" stroke="#000" stroke-linecap="round" stroke-linejoin="round" stroke-miterlimit="10" stroke-width="2"/>
      <line id="Línea_828" data-name="Línea 828" y2="3.358" transform="translate(57.981 51.623)" fill="none" stroke="#000" stroke-linecap="round" stroke-linejoin="round" stroke-miterlimit="10" stroke-width="2"/>
      <path id="Trazado_1034427" data-name="Trazado 1034427" d="M288.949,19.534A15.5,15.5,0,0,0,273.845,7.5h-3.807" transform="translate(-201.585 0)" fill="none" stroke="#000" stroke-linecap="round" stroke-linejoin="round" stroke-miterlimit="10" stroke-width="2"/>
      <path id="Trazado_1034428" data-name="Trazado 1034428" d="M193.875,240.983h2.981a6.457,6.457,0,0,0,6.264-4.891l2.031-8.123a4,4,0,0,1,3.882-3.031h3.9" transform="translate(-135.257 -189.36)" fill="none" stroke="#000" stroke-linecap="round" stroke-linejoin="round" stroke-miterlimit="10" stroke-width="2"/>
      <line id="Línea_829" data-name="Línea 829" x1="2.413" y2="7.239" transform="translate(40.599 32.35)" fill="none" stroke="#000" stroke-linecap="round" stroke-linejoin="round" stroke-miterlimit="10" stroke-width="2"/>
      <path id="Trazado_1034429" data-name="Trazado 1034429" d="M197.583,430.68l-6.5,1.742a.646.646,0,0,0-.457.791l1.742,6.5a.646.646,0,0,0,.791.457l6.5-1.742a.646.646,0,0,0,.457-.791l-1.742-6.5A.646.646,0,0,0,197.583,430.68Z" transform="translate(-132.407 -368.514)" fill="none" stroke="#000" stroke-linecap="round" stroke-linejoin="round" stroke-miterlimit="10" stroke-width="2"/>
      <path id="Trazado_1034430" data-name="Trazado 1034430" d="M55.782,260.011a2.836,2.836,0,0,1-2.006-.831l-1.066-1.066A7.22,7.22,0,0,0,47.605,256H40.6l-1.9,5.712a2.583,2.583,0,0,0,1.491,3.215h0a43.437,43.437,0,0,0,16.132,3.107h2.3v-5.186A2.836,2.836,0,0,0,55.782,260.011Z" transform="translate(0 -216.411)" fill="none" stroke="#000" stroke-linecap="round" stroke-linejoin="round" stroke-miterlimit="10" stroke-width="2"/>
      <path id="Trazado_1034431" data-name="Trazado 1034431" d="M312.476,91.938l-1.91-1.273a4.05,4.05,0,0,0-4.058-.253,2.134,2.134,0,0,0-.955,2.864h0a3.261,3.261,0,0,1-.611,3.764l-1.519,1.519a2.837,2.837,0,0,0-.831,2.006h0a2.836,2.836,0,0,0,2.836,2.836h2.178" transform="translate(-229.937 -71.833)" fill="none" stroke="#000" stroke-linecap="round" stroke-linejoin="round" stroke-miterlimit="10" stroke-width="2"/>
      <path id="Trazado_1034432" data-name="Trazado 1034432" d="M204.249,18.866l3.731,1.493a2.152,2.152,0,0,0,2.951-2,1.347,1.347,0,0,1,.745-1.2h0a4.449,4.449,0,0,0,2.3-5.155l-1.233-4.5h-3.818" transform="translate(-144.291 0)" fill="none" stroke="#000" stroke-linecap="round" stroke-linejoin="round" stroke-miterlimit="10" stroke-width="2"/>
      <path id="Trazado_1034433" data-name="Trazado 1034433" d="M126.99,209.92h2.981a2.442,2.442,0,0,0,2.372-1.852l2.031-8.123a8.077,8.077,0,0,1,.378-1.144l-.62-2.479A3.228,3.228,0,0,0,131,193.875h-8.737a3.228,3.228,0,0,0-2.888,1.785h0a29.536,29.536,0,0,0-2.3,6.321" transform="translate(-68.372 -162.308)" fill="none" stroke="#000" stroke-linecap="round" stroke-linejoin="round" stroke-miterlimit="10" stroke-width="2"/>
      <path id="Trazado_1034434" data-name="Trazado 1034434" d="M119.978,193.875h-16.72a8,8,0,0,0-7.773,6.069l-2.031,8.123a2.442,2.442,0,0,1-2.372,1.852H85.8a39.235,39.235,0,0,1-13.385-2.341" transform="translate(-29.482 -162.308)" fill="none" stroke="#000" stroke-linecap="round" stroke-linejoin="round" stroke-miterlimit="10" stroke-width="2"/>
      <path id="Trazado_1034435" data-name="Trazado 1034435" d="M352.33,116.733h5.495a.646.646,0,0,0,.646-.646v-5.026a.646.646,0,0,0-.288-.537l-5.082-3.388a1.937,1.937,0,0,1-.816-1.191l-1.146-5.156-.023-.1h-2.8a3.889,3.889,0,0,0-3.889,3.889,5.136,5.136,0,0,1-1.5,3.631,5.136,5.136,0,0,0-1.5,3.631v4.892h6.387" transform="translate(-263.752 -81.154)" fill="none" stroke="#000" stroke-linecap="round" stroke-linejoin="round" stroke-miterlimit="10" stroke-width="2"/>
      <path id="Trazado_1034436" data-name="Trazado 1034436" d="M78.093,15.284a19.866,19.866,0,0,0-4.139,12.169v1.375a4.518,4.518,0,0,1-.232,1.429l-.7,2.093,7.019-3.509a6.937,6.937,0,0,0,3.479-4.011,6.937,6.937,0,0,1,4.388-4.388h0a3.987,3.987,0,0,0,2.726-3.782h0a2.747,2.747,0,0,1,.8-1.942L92.455,13.7a7.482,7.482,0,0,0,2.191-5.29V7.5h-.74A19.87,19.87,0,0,0,81.3,11.989" transform="translate(-30.012 0)" fill="none" stroke="#000" stroke-linecap="round" stroke-linejoin="round" stroke-miterlimit="10" stroke-width="2"/>
      <circle id="Elipse_12216" data-name="Elipse 12216" cx="2.006" cy="2.006" r="2.006" transform="translate(56.613 35.578)" fill="none" stroke="#000" stroke-linecap="round" stroke-linejoin="round" stroke-miterlimit="10" stroke-width="2"/>
      <path id="Trazado_1034437" data-name="Trazado 1034437" d="M332.011,281.231a.953.953,0,0,1,0-1.348L335.9,276a.953.953,0,0,0,0-1.348l-2.839-2.839a.953.953,0,0,0-1.348,0l-3.885,3.885a.953.953,0,0,1-1.348,0l-3.885-3.885a.953.953,0,0,0-1.348,0L318.4,274.65a.953.953,0,0,0,0,1.348l3.885,3.885a.953.953,0,0,1,0,1.348l-3.885,3.885a.953.953,0,0,0,0,1.348l2.839,2.839a.953.953,0,0,0,1.348,0l3.885-3.885a.953.953,0,0,1,1.348,0l3.885,3.885a.953.953,0,0,0,1.348,0l2.839-2.839a.953.953,0,0,0,0-1.348Z" transform="translate(-243.463 -229.937)" fill="none" stroke="#000" stroke-linecap="round" stroke-linejoin="round" stroke-miterlimit="10" stroke-width="2"/>
      <path id="Trazado_1034438" data-name="Trazado 1034438" d="M111.576,256.647a29.548,29.548,0,0,0-.815,7.03" transform="translate(-62.876 -216.974)" fill="none" stroke="#000" stroke-linecap="round" stroke-linejoin="round" stroke-miterlimit="10" stroke-width="2"/>
    </g>
  </g>
</svg>
