<svg xmlns="http://www.w3.org/2000/svg" xmlns:xlink="http://www.w3.org/1999/xlink" width="117.999" height="118" viewBox="0 0 117.999 118">
  <defs>
    <filter id="Trazado_874925" x="0" y="0" width="117.999" height="118" filterUnits="userSpaceOnUse">
      <feOffset dy="3" input="SourceAlpha"/>
      <feGaussianBlur stdDeviation="3" result="blur"/>
      <feFlood flood-opacity="0.161"/>
      <feComposite operator="in" in2="blur"/>
      <feComposite in="SourceGraphic"/>
    </filter>
  </defs>
  <g id="Grupo_1200210" data-name="Grupo 1200210" transform="translate(-2108.781 120.037)">
    <g id="Grupo_1198821" data-name="Grupo 1198821" transform="translate(1309.281 -2631.194)">
      <g id="Grupo_1111316" data-name="Grupo 1111316" transform="translate(808.5 2517.157)">
        <g id="Grupo_1109835" data-name="Grupo 1109835" transform="translate(0 0)">
          <g id="Grupo_1107913" data-name="Grupo 1107913" transform="translate(0 0)">
            <g transform="matrix(1, 0, 0, 1, -9, -6)" filter="url(#Trazado_874925)">
              <g id="Trazado_874925-2" data-name="Trazado 874925" transform="translate(9 6)" fill="#9ad354" opacity="0.859">
                <path d="M 49.99972534179688 98.4998779296875 C 43.45164108276367 98.4998779296875 37.10022354125977 97.21776580810547 31.12189674377441 94.68914794921875 C 25.34676742553711 92.24647521972656 20.15985298156738 88.74925994873047 15.70523929595947 84.29464721679688 C 11.25062561035156 79.84004974365234 7.753411293029785 74.65313720703125 5.310725212097168 68.87800598144531 C 2.782111167907715 62.89969253540039 1.499996781349182 56.54829406738281 1.499996781349182 50.00022125244141 C 1.499996781349182 43.45157623291016 2.782111167907715 37.10017776489258 5.310725212097168 31.12186431884766 C 7.753411293029785 25.34673500061035 11.25062561035156 20.15983581542969 15.70523929595947 15.70522117614746 C 20.15985298156738 11.25062084197998 25.34676742553711 7.753406524658203 31.12189674377441 5.31073522567749 C 37.10022354125977 2.782120943069458 43.45164108276367 1.500006556510925 49.99972534179688 1.500006556510925 C 56.54780960083008 1.500006556510925 62.89922714233398 2.782120943069458 68.87755584716797 5.31073522567749 C 74.65267944335938 7.753406524658203 79.839599609375 11.25062084197998 84.29421234130859 15.70522117614746 C 88.74882507324219 20.15983581542969 92.24604034423828 25.34673500061035 94.68872833251953 31.12186431884766 C 97.21733856201172 37.10017776489258 98.49945068359375 43.45157623291016 98.49945068359375 49.99964904785156 C 98.49945068359375 56.54829406738281 97.21733856201172 62.89969253540039 94.68872833251953 68.87800598144531 C 92.24604034423828 74.65313720703125 88.74882507324219 79.84004974365234 84.29421234130859 84.29464721679688 C 79.839599609375 88.74925994873047 74.65267944335938 92.24647521972656 68.87755584716797 94.68914794921875 C 62.89922714233398 97.21776580810547 56.54780960083008 98.4998779296875 49.99972534179688 98.4998779296875 Z" stroke="none"/>
                <path d="M 49.99972534179688 3 C 43.65348052978516 3 37.49866485595703 4.242240905761719 31.70623016357422 6.692230224609375 C 26.10989379882812 9.059272766113281 21.08323669433594 12.44853210449219 16.76589202880859 16.76587677001953 C 12.44855499267578 21.08321380615234 9.059295654296875 26.10985565185547 6.692230224609375 31.70618438720703 C 4.24224853515625 37.49859619140625 3 43.65341186523438 3 50.00022888183594 C 3 56.34645843505859 4.24224853515625 62.50127410888672 6.692230224609375 68.29368591308594 C 9.059295654296875 73.8900146484375 12.44855499267578 78.91665649414062 16.76589202880859 83.23399353027344 C 21.08323669433594 87.55132293701172 26.10989379882812 90.94059753417969 31.70623016357422 93.30764007568359 C 37.49866485595703 95.75762939453125 43.65348052978516 96.99987030029297 49.99972534179688 96.99987030029297 C 56.34597015380859 96.99987030029297 62.50078582763672 95.75762939453125 68.293212890625 93.30764007568359 C 73.88955688476562 90.94059753417969 78.91621398925781 87.55132293701172 83.23355865478516 83.23399353027344 C 87.55089569091797 78.91665649414062 90.94015502929688 73.8900146484375 93.30722045898438 68.29368591308594 C 95.7572021484375 62.50127410888672 96.99945068359375 56.34645843505859 96.99945068359375 49.99964141845703 C 96.99945068359375 43.65341186523438 95.7572021484375 37.49859619140625 93.30722045898438 31.70618438720703 C 90.94015502929688 26.10985565185547 87.55089569091797 21.08321380615234 83.23355865478516 16.76587677001953 C 78.91621398925781 12.44853210449219 73.88955688476562 9.059272766113281 68.293212890625 6.692230224609375 C 62.50078582763672 4.242240905761719 56.34597015380859 3 49.99972534179688 3 M 49.99972534179688 0 C 77.61381530761719 0 99.99945068359375 22.38559722900391 99.99945068359375 49.99964141845703 L 99.99945068359375 50.00022888183594 C 99.99945068359375 77.6142578125 77.61381530761719 99.99987030029297 49.99972534179688 99.99987030029297 C 22.38563537597656 99.99987030029297 0 77.6142578125 0 50.00022888183594 L 0 49.99964141845703 C 0 22.38559722900391 22.38563537597656 0 49.99972534179688 0 Z" stroke="none" fill="#fff"/>
              </g>
            </g>
            <g id="Trazado_874923" data-name="Trazado 874923" transform="translate(0 0)" fill="none">
              <path d="M50,0a50,50,0,0,1,50,50h0A50,50,0,0,1,0,50H0A50,50,0,0,1,50,0Z" stroke="none"/>
              <path d="M 49.99972534179688 3 C 43.65348052978516 3 37.49866485595703 4.242240905761719 31.70623016357422 6.692230224609375 C 26.10989379882812 9.059272766113281 21.08323669433594 12.44853210449219 16.76589202880859 16.76587677001953 C 12.44855499267578 21.08321380615234 9.059295654296875 26.10985565185547 6.692230224609375 31.70618438720703 C 4.24224853515625 37.49859619140625 3 43.65341186523438 3 50.00022888183594 C 3 56.34645843505859 4.24224853515625 62.50127410888672 6.692230224609375 68.29368591308594 C 9.059295654296875 73.8900146484375 12.44855499267578 78.91665649414062 16.76589202880859 83.23399353027344 C 21.08323669433594 87.55132293701172 26.10989379882812 90.94059753417969 31.70623016357422 93.30764007568359 C 37.49866485595703 95.75762939453125 43.65348052978516 96.99987030029297 49.99972534179688 96.99987030029297 C 56.34597015380859 96.99987030029297 62.50078582763672 95.75762939453125 68.293212890625 93.30764007568359 C 73.88955688476562 90.94059753417969 78.91621398925781 87.55132293701172 83.23355865478516 83.23399353027344 C 87.55089569091797 78.91665649414062 90.94015502929688 73.8900146484375 93.30722045898438 68.29368591308594 C 95.7572021484375 62.50127410888672 96.99945068359375 56.34645843505859 96.99945068359375 49.99964141845703 C 96.99945068359375 43.65341186523438 95.7572021484375 37.49859619140625 93.30722045898438 31.70618438720703 C 90.94015502929688 26.10985565185547 87.55089569091797 21.08321380615234 83.23355865478516 16.76587677001953 C 78.91621398925781 12.44853210449219 73.88955688476562 9.059272766113281 68.293212890625 6.692230224609375 C 62.50078582763672 4.242240905761719 56.34597015380859 3 49.99972534179688 3 M 49.99972534179688 0 C 77.61381530761719 0 99.99945068359375 22.38559722900391 99.99945068359375 49.99964141845703 L 99.99945068359375 50.00022888183594 C 99.99945068359375 77.6142578125 77.61381530761719 99.99987030029297 49.99972534179688 99.99987030029297 C 22.38563537597656 99.99987030029297 0 77.6142578125 0 50.00022888183594 L 0 49.99964141845703 C 0 22.38559722900391 22.38563537597656 0 49.99972534179688 0 Z" stroke="none" fill="#fff"/>
            </g>
          </g>
        </g>
      </g>
    </g>
    <g id="alimentos-organicos" transform="translate(2138.331 -93.735)">
      <g id="Grupo_1200208" data-name="Grupo 1200208" transform="translate(0 -0.002)">
        <g id="Grupo_1200207" data-name="Grupo 1200207">
          <ellipse id="Elipse_12217" data-name="Elipse 12217" cx="7.2" cy="7.199" rx="7.2" ry="7.199" transform="translate(29.006 24.567) rotate(-19.141)" fill="#82b339"/>
          <g id="Grupo_1200196" data-name="Grupo 1200196" transform="translate(30.279 11.277)">
            <ellipse id="Elipse_12218" data-name="Elipse 12218" cx="7.091" cy="7.089" rx="7.091" ry="7.089" transform="translate(0 1.409)" fill="#fc435f"/>
            <path id="Trazado_1034470" data-name="Trazado 1034470" d="M311.468,115.547a7.094,7.094,0,0,0-9.356-5.813,7.089,7.089,0,0,1,0,13.4,7.091,7.091,0,0,0,9.355-7.586Z" transform="translate(-297.342 -107.935)" fill="#eb2f4b"/>
            <path id="Trazado_1034471" data-name="Trazado 1034471" d="M279.5,100.409l-1.889-3.085,3.276,1.234,3.675-1.354-1.718,2.785,1.736,2.116-3.27-.191-2.847,2.172Z" transform="translate(-275.68 -97.203)" fill="#aad667"/>
          </g>
          <g id="Grupo_1200198" data-name="Grupo 1200198" transform="translate(0.87 6.579)">
            <path id="Trazado_1034472" data-name="Trazado 1034472" d="M28.825,56.832a6.316,6.316,0,0,0-4.768,4.175A6.335,6.335,0,1,0,25.271,67.2a6.326,6.326,0,1,0,3.554-10.367Z" transform="translate(-12.327 -56.713)" fill="#82b339"/>
            <path id="Trazado_1034473" data-name="Trazado 1034473" d="M26.533,85.522a6.484,6.484,0,0,0-1.085.315A6.465,6.465,0,0,0,13.8,88.111a6.48,6.48,0,1,0,1.368,12.85l1.292,6.594a7.062,7.062,0,1,0,13.861-2.717l-1.292-6.593a6.482,6.482,0,0,0-2.494-12.723Z" transform="translate(-7.502 -79.972)" fill="#aad667"/>
            <g id="Grupo_1200197" data-name="Grupo 1200197" transform="translate(10.29 3.052)">
              <path id="Trazado_1034474" data-name="Trazado 1034474" d="M137.541,108.743a6.462,6.462,0,0,0-8.673-4.805,6.484,6.484,0,0,1-1.069,12.411l1.292,6.593a7.072,7.072,0,0,1-4.605,8.041,7.059,7.059,0,0,0,9.246-8.041l-1.292-6.593A6.476,6.476,0,0,0,137.541,108.743Z" transform="translate(-121.205 -101.129)" fill="#99c94f"/>
              <path id="Trazado_1034475" data-name="Trazado 1034475" d="M99.218,85.836a6.441,6.441,0,0,1,4.634-.009A6.464,6.464,0,0,0,96.2,83.456,6.507,6.507,0,0,1,99.218,85.836Z" transform="translate(-96.203 -83.023)" fill="#99c94f"/>
            </g>
          </g>
          <g id="Grupo_1200201" data-name="Grupo 1200201" transform="translate(41.283 0.871)">
            <path id="Trazado_1034476" data-name="Trazado 1034476" d="M397.994,12.543a2.252,2.252,0,0,0-.865-.153c.014-.032.028-.065.041-.1a3.509,3.509,0,0,0-5.6-3.895,2.258,2.258,0,0,0-3.706,2.564,3.509,3.509,0,0,0,1.909,6.716l-2.205,10.862,3.052.592,2.05-10.062a2.258,2.258,0,0,0,3.781-2.283,2.258,2.258,0,0,0,1.543-4.242Z" transform="translate(-382.19 -7.511)" fill="#aad667"/>
            <g id="Grupo_1200199" data-name="Grupo 1200199" transform="translate(5.378 0)">
              <path id="Trazado_1034477" data-name="Trazado 1034477" d="M421.554,7.983a3.5,3.5,0,0,1,.986.584,2.252,2.252,0,0,0-1.8-.791A3.51,3.51,0,0,1,421.554,7.983Z" transform="translate(-418.592 -7.744)" fill="#aad667" stroke="#99c94f" stroke-miterlimit="10" stroke-width="1"/>
              <path id="Trazado_1034478" data-name="Trazado 1034478" d="M412.639,12.544a2.25,2.25,0,0,0-.865-.153c.014-.032.028-.065.041-.1a3.509,3.509,0,0,0-5.59-3.9,3.51,3.51,0,0,1,.949,3.9c-.013.033-.027.065-.041.1a2.258,2.258,0,1,1-.678,4.4A2.256,2.256,0,0,1,404,19.757l-1.783,8.783,3.052.592,2.05-10.062a2.258,2.258,0,0,0,3.781-2.283,2.258,2.258,0,0,0,1.543-4.242Z" transform="translate(-402.213 -7.512)" fill="#99c94f"/>
            </g>
            <g id="Grupo_1200200" data-name="Grupo 1200200" transform="translate(0 18.237)">
              <path id="Trazado_1034479" data-name="Trazado 1034479" d="M367.836,170.192c.206,5.311-6.294,19.695-9.235,19.124s-3.683-16.358-1.415-21.189a5.538,5.538,0,0,1,10.65,2.065Z" transform="translate(-355.857 -164.708)" fill="#fd9e35"/>
              <path id="Trazado_1034480" data-name="Trazado 1034480" d="M376.243,170.193a5.451,5.451,0,0,0-4.483-5.372,5.341,5.341,0,0,0-3.38.388,5.5,5.5,0,0,1,3.223,4.984c.149,3.859-3.241,12.507-6.235,16.729.43,1.369.979,2.267,1.64,2.4,2.941.57,9.441-13.813,9.235-19.124Z" transform="translate(-364.265 -164.708)" fill="#fd8500"/>
              <path id="Trazado_1034481" data-name="Trazado 1034481" d="M356.388,278.4l3.465.672" transform="translate(-356.326 -265.214)" fill="#fd9e35"/>
            </g>
          </g>
          <g id="Grupo_1200202" data-name="Grupo 1200202" transform="translate(18.562 19.03)">
            <ellipse id="Elipse_12219" data-name="Elipse 12219" cx="7.2" cy="7.199" rx="7.2" ry="7.199" transform="translate(0 5.538) rotate(-19.141)" fill="#fc435f"/>
            <path id="Trazado_1034482" data-name="Trazado 1034482" d="M222.507,188.044a7.167,7.167,0,0,0-3.6.27,7.2,7.2,0,0,1,0,13.631,7.2,7.2,0,1,0,3.6-13.9Z" transform="translate(-212.075 -185.157)" fill="#eb2f4b"/>
            <path id="Trazado_1034483" data-name="Trazado 1034483" d="M212.93,167.657l-.908-3.622,2.846,2.226,4.037-.2-2.551,2.213,1.057,2.62-3.162-1.2-3.474,1.261Z" transform="translate(-204.884 -164.035)" fill="#aad667"/>
          </g>
          <g id="Grupo_1200206" data-name="Grupo 1200206">
            <path id="Trazado_1034484" data-name="Trazado 1034484" d="M7.5,233.146h9.57v31.481H7.5Z" transform="translate(-6.631 -206.098)" fill="#8f5a46"/>
            <path id="Trazado_1034485" data-name="Trazado 1034485" d="M422.005,233.146h9.57v31.481h-9.57Z" transform="translate(-373.048 -206.098)" fill="#8f5a46"/>
            <g id="Grupo_1200203" data-name="Grupo 1200203" transform="translate(0.87 31.616)">
              <path id="Trazado_1034486" data-name="Trazado 1034486" d="M7.5,272.528H65.159v7.712H7.5Z" transform="translate(-7.501 -272.528)" fill="#e8b266"/>
              <path id="Trazado_1034487" data-name="Trazado 1034487" d="M464.5,272.528h4.64v7.712H464.5Z" transform="translate(-411.484 -272.528)" fill="#d9a359"/>
              <path id="Trazado_1034488" data-name="Trazado 1034488" d="M7.5,339.032H65.159v7.712H7.5Z" transform="translate(-7.501 -331.317)" fill="#ffdeb0"/>
              <path id="Trazado_1034489" data-name="Trazado 1034489" d="M464.5,339.032h4.64v7.712H464.5Z" transform="translate(-411.484 -331.317)" fill="#f7c783"/>
              <path id="Trazado_1034490" data-name="Trazado 1034490" d="M7.5,405.505H65.159v7.712H7.5Z" transform="translate(-7.501 -390.078)" fill="#e8b266"/>
              <path id="Trazado_1034491" data-name="Trazado 1034491" d="M464.5,405.505h4.64v7.712H464.5Z" transform="translate(-411.484 -390.078)" fill="#d9a359"/>
            </g>
            <g id="Grupo_1200205" data-name="Grupo 1200205">
              <g id="Grupo_1200204" data-name="Grupo 1200204">
                <path id="Trazado_1034492" data-name="Trazado 1034492" fill="#8f5a46"/>
              </g>
            </g>
          </g>
        </g>
      </g>
      <g id="Grupo_1200209" data-name="Grupo 1200209" transform="translate(0 -0.002)">
        <path id="Trazado_1034493" data-name="Trazado 1034493" d="M58.529,26.176H54.046a10.153,10.153,0,0,0,.086-1.619,6.417,6.417,0,0,0-2.877-5.276l1.111-5.451a3.127,3.127,0,0,0,4.163-2.7A3.129,3.129,0,0,0,57.4,5.09l-.082-.031A4.381,4.381,0,0,0,50.734.628a3.129,3.129,0,0,0-4.876,3.287A4.379,4.379,0,0,0,47.8,11.936l-1.3,6.4a5.822,5.822,0,0,0-1.239.375,8.007,8.007,0,0,0-5.615-6.564l.255-.413a.876.876,0,0,0-1.042-1.273L35.486,11.7l-2.973-1.12a.876.876,0,0,0-1.049,1.269L32.474,13.5a8.02,8.02,0,0,0-3.043,6.841l-.6.03-.492-.385a7.357,7.357,0,0,0-2.557-7.2,7.267,7.267,0,0,0-.132-1.257A7.188,7.188,0,0,0,12.678,8.806a6.865,6.865,0,0,0-.949.169A7.19,7.19,0,0,0,.77,16.406a7.285,7.285,0,0,0,.277,1.013,7.352,7.352,0,0,0,.9,8.757H.871a.87.87,0,0,0-.87.87V58.527a.87.87,0,0,0,.87.87h9.57a.87.87,0,0,0,.87-.87v-2.9H48.088v2.9a.87.87,0,0,0,.87.87h9.57a.87.87,0,0,0,.87-.87V27.046a.87.87,0,0,0-.87-.87Zm-.87,27.707H1.741V47.911H57.659ZM1.741,32.485H57.659v5.971H1.741Zm19.748-4.606a6.321,6.321,0,0,1,3.733-4.7l-1.5,2.292a.886.886,0,0,0,1.025,1.294l3.171-1.151,2.86,1.083q1.3.159,1.115-1.139l-.763-1.893a6.367,6.367,0,0,1,2.67,7.077H21.633A6.323,6.323,0,0,1,21.489,27.878Zm18.938,2.866H35.6a8.382,8.382,0,0,0,.067-3.2,8.077,8.077,0,0,0,5.006-.531c-.131,1.139-.214,2.392-.243,3.728ZM57.659,46.171H1.741V40.2H57.659Zm0-15.427h-7.83V27.916h7.83Zm-5.265-6.12a8.884,8.884,0,0,1-.1,1.551H48.958a.87.87,0,0,0-.87.87v3.7H42.168c.026-1.138.093-2.216.2-3.2l2.6.5a.871.871,0,0,0,.331-1.708l-2.7-.524A11.83,11.83,0,0,1,43.4,22.9a4.683,4.683,0,0,1,5.214-2.822A4.594,4.594,0,0,1,52.394,24.624Zm-5.1-14.584a2.666,2.666,0,0,1-.015-4.912A.87.87,0,0,0,47.7,3.872,1.393,1.393,0,0,1,49.981,2.3a.87.87,0,0,0,1.259.111,2.655,2.655,0,0,1,4.212,2.931.877.877,0,0,0,.789,1.281,1.457,1.457,0,0,1,1.322,1.89,1.384,1.384,0,0,1-1.739.811q-1.243-.133-1.1,1.109a1.4,1.4,0,0,1-2.324,1.4q-1-.695-1.487.421l-1.28,6.283a7.05,7.05,0,0,0-1.345-.268l1.433-7.059a.87.87,0,0,0-1.006-1.029,2.637,2.637,0,0,1-1.42-.139Zm-12.118,3.4a.869.869,0,0,0,.608,0l1.31-.483-.395.64a.87.87,0,0,0,.068,1.009l.476.58-1.286-.075a.868.868,0,0,0-.579.177l-.774.591.329-1.166a.87.87,0,0,0-.1-.69l-.565-.923Zm-2.248,1.971-.707,2.506a.876.876,0,0,0,1.365.928l2.59-1.977,2.948.172a.879.879,0,0,0,.723-1.421l-1.342-1.636.181-.293a6.214,6.214,0,0,1,4.9,6.079,7.408,7.408,0,0,0-1.765,2.383,12.078,12.078,0,0,0-.813,2.657,6.22,6.22,0,0,1-6,.716A8.019,8.019,0,0,0,32.363,22.4l.791-.686a.876.876,0,0,0-.613-1.526l-1.372.068a6.162,6.162,0,0,1,1.759-4.838Zm-2.819,6.633-.647.561a.87.87,0,0,0-.237.983l.313.777-1.3-.493a.87.87,0,0,0-.6,0l-1.022.371.729-1.117a.87.87,0,0,0,.116-.687l-.292-1.163.849.664a.879.879,0,0,0,.579.184ZM17.536,7.551A5.456,5.456,0,0,1,23.9,11.672a7.276,7.276,0,0,0-4.161-.4c-.2.039-.4.088-.6.145A7.344,7.344,0,0,0,14.891,8.9a5.451,5.451,0,0,1,2.646-1.348ZM3.3,11.971A5.444,5.444,0,0,1,9.62,9.862a7.346,7.346,0,0,0-3.132,4.031q-.283.033-.559.087a7.285,7.285,0,0,0-3.5,1.757A5.429,5.429,0,0,1,3.3,11.971ZM4.631,26.1a5.607,5.607,0,0,1,2.56-10.517.87.87,0,0,0,.826-.683A5.595,5.595,0,0,1,18.1,12.935a.87.87,0,0,0,1.03.319,5.664,5.664,0,0,1,.94-.273,5.606,5.606,0,0,1,6.574,4.43,5.631,5.631,0,0,1,.1,1.327l-.506-.4a.876.876,0,0,0-1.38.9l.511,2.039a8.074,8.074,0,0,0-5.53,9.465H17.27l-.5-2.551A5.22,5.22,0,0,0,19.284,26.2a.87.87,0,0,0-1.445-.969,3.5,3.5,0,0,1-1.41,1.22L15.7,22.745a7.519,7.519,0,0,0,3.988-3,.87.87,0,0,0-1.445-.969,5.8,5.8,0,0,1-2.88,2.247L14.537,16.8a.871.871,0,0,0-1.708.335l.828,4.224a5.8,5.8,0,0,1-3.515-.993.87.87,0,0,0-.972,1.443,7.526,7.526,0,0,0,4.219,1.3c.2,0,.4-.01.606-.026l.726,3.706a3.5,3.5,0,0,1-1.767-.6.871.871,0,0,0-.972,1.443,5.252,5.252,0,0,0,3.08.9l.434,2.216H11.312v-3.7a.87.87,0,0,0-.87-.87H4.74a.9.9,0,0,0-.109-.073Zm4.94,1.813v2.829H1.741V27.916Zm0,29.741H1.741V55.623h7.83Zm40.257,0V55.623h7.83v2.034Z" transform="translate(-0.001 0.002)" fill="#060606"/>
        <path id="Trazado_1034494" data-name="Trazado 1034494" d="M42.344,298.265a.871.871,0,0,0,0,1.74A.871.871,0,0,0,42.344,298.265Z" transform="translate(-36.689 -263.663)" fill="#060606"/>
        <path id="Trazado_1034495" data-name="Trazado 1034495" d="M42.344,366.508a.871.871,0,0,0,0-1.74A.871.871,0,0,0,42.344,366.508Z" transform="translate(-36.689 -322.451)" fill="#060606"/>
        <path id="Trazado_1034496" data-name="Trazado 1034496" d="M42.344,433.07a.871.871,0,0,0,0-1.74A.871.871,0,0,0,42.344,433.07Z" transform="translate(-36.689 -381.291)" fill="#060606"/>
        <path id="Trazado_1034497" data-name="Trazado 1034497" d="M455.076,298.265a.871.871,0,0,0,0,1.74A.871.871,0,0,0,455.076,298.265Z" transform="translate(-401.539 -263.663)" fill="#060606"/>
        <path id="Trazado_1034498" data-name="Trazado 1034498" d="M455.076,366.508a.871.871,0,0,0,0-1.74A.871.871,0,0,0,455.076,366.508Z" transform="translate(-401.539 -322.451)" fill="#060606"/>
        <path id="Trazado_1034499" data-name="Trazado 1034499" d="M455.076,433.07a.871.871,0,0,0,0-1.74A.871.871,0,0,0,455.076,433.07Z" transform="translate(-401.539 -381.291)" fill="#060606"/>
      </g>
    </g>
  </g>
</svg>
