<svg xmlns="http://www.w3.org/2000/svg" xmlns:xlink="http://www.w3.org/1999/xlink" width="220" height="179.742" viewBox="0 0 220 179.742">
  <defs>
    <filter id="Rect치ngulo_404858" x="0" y="0" width="220" height="179.742" filterUnits="userSpaceOnUse">
      <feOffset dx="3" dy="6" input="SourceAlpha"/>
      <feGaussianBlur stdDeviation="5" result="blur"/>
      <feFlood flood-opacity="0.161"/>
      <feComposite operator="in" in2="blur"/>
      <feComposite in="SourceGraphic"/>
    </filter>
  </defs>
  <g id="Grupo_1200225" data-name="Grupo 1200225" transform="translate(-613.105 -12073.796)">
    <g id="Grupo_1198823" data-name="Grupo 1198823" transform="translate(625.105 12082.796)">
      <g id="Grupo_1197899" data-name="Grupo 1197899" transform="translate(0 0)">
        <g id="Grupo_1113681" data-name="Grupo 1113681" transform="translate(0 0)">
          <g transform="matrix(1, 0, 0, 1, -12, -9)" filter="url(#Rect치ngulo_404858)">
            <rect id="Rect치ngulo_404858-2" data-name="Rect치ngulo 404858" width="190" height="149.742" rx="8" transform="translate(12 9)" fill="#6b9339"/>
          </g>
        </g>
      </g>
    </g>
    <g id="Layer_1" transform="translate(652.073 12102.348)">
      <g id="Grupo_1200224" data-name="Grupo 1200224" transform="translate(4.952 1.95)">
        <path id="Trazado_1034508" data-name="Trazado 1034508" d="M201.578,150.755v14.266a5.255,5.255,0,0,0-4.392-5.183L180.7,157.1a1.967,1.967,0,0,0-2.291,1.943v7.344a11.5,11.5,0,0,0,1.789,6.182h-5.073c-.869-3.31-.865-6.594-.865-11.171a15.727,15.727,0,0,1,27.32-10.643Z" transform="translate(-87.463 -71.985)" fill="#7d7b79"/>
        <path id="Trazado_1034509" data-name="Trazado 1034509" d="M205.522,175.875v1.386a11.63,11.63,0,0,1-11.583,11.583h-.045a11.614,11.614,0,0,1-11.543-11.6V169.9a1.967,1.967,0,0,1,2.291-1.943l16.487,2.738A5.254,5.254,0,0,1,205.522,175.875Z" transform="translate(-91.408 -82.839)" fill="#ffb69f"/>
        <path id="Trazado_1034510" data-name="Trazado 1034510" d="M52.174,184.182v2.649H7.452V118.75H18.216v21.793H18.21v9.686a11.6,11.6,0,0,0,11.613,11.608v.005A22.339,22.339,0,0,1,52.174,184.182Z" transform="translate(-6.17 -58.873)" fill="#72c2e9"/>
        <g id="Grupo_1200214" data-name="Grupo 1200214" transform="translate(45.998 112.814)">
          <path id="Trazado_1034511" data-name="Trazado 1034511" d="M128.867,237.155H94.678a17.22,17.22,0,0,1,34.189,0Z" transform="translate(-94.678 -222.011)" fill="#13bf6d"/>
        </g>
        <path id="Trazado_1034512" data-name="Trazado 1034512" d="M128.525,185.985v8.4a9.751,9.751,0,0,1-.154,1.754,10.07,10.07,0,0,1-19.831,0,9.578,9.578,0,0,1-.154-1.754v-8.4Z" transform="translate(-55.361 -91.64)" fill="#ffb69f"/>
        <path id="Trazado_1034513" data-name="Trazado 1034513" d="M51.658,161.26v9.686a10.837,10.837,0,0,1-.179,2.022,11.61,11.61,0,0,1-23.042-2.022V161.26Z" transform="translate(-16.398 -79.59)" fill="#ffb69f"/>
        <path id="Trazado_1034514" data-name="Trazado 1034514" d="M52.258,139.533l-2.1-1.439a3.985,3.985,0,0,1-3.914,3.242H33.717a5.271,5.271,0,0,0-5.269,5.271v3.364H51.666l1.452-1.475A5.869,5.869,0,0,0,52.258,139.533Z" transform="translate(-16.402 -68.3)" fill="#7c7b7a"/>
        <g id="Grupo_1200215" data-name="Grupo 1200215" transform="translate(35.084 86.693)">
          <path id="Trazado_1034515" data-name="Trazado 1034515" d="M78.085,174.4a3.34,3.34,0,0,1-3.339,3.339H73.389a10.837,10.837,0,0,0,.179-2.022v-4.661h1.178A3.341,3.341,0,0,1,78.085,174.4Z" transform="translate(-73.389 -171.058)" fill="#ffb69f"/>
          <path id="Trazado_1034516" data-name="Trazado 1034516" d="M104.817,200.289h-1.172a2.9,2.9,0,1,1,0-5.794h1.019v4.04A9.535,9.535,0,0,0,104.817,200.289Z" transform="translate(-86.722 -182.48)" fill="#ffb69f"/>
          <path id="Trazado_1034517" data-name="Trazado 1034517" d="M151.435,197.392a2.893,2.893,0,0,1-2.892,2.9H147.37a9.7,9.7,0,0,0,.154-1.754v-4.04h1.019A2.893,2.893,0,0,1,151.435,197.392Z" transform="translate(-109.444 -182.48)" fill="#ffb69f"/>
        </g>
        <path id="Trazado_1034518" data-name="Trazado 1034518" d="M119.808,164.388H117.1a8.715,8.715,0,0,0-8.715,8.715v2.358h20.139V173.1A8.715,8.715,0,0,0,119.808,164.388Z" transform="translate(-55.36 -81.114)" fill="#f0c020"/>
        <path id="Trazado_1034519" data-name="Trazado 1034519" d="M206.061,123.521v65.634H161.368a22.345,22.345,0,0,1,22.3-21.952h.046A11.632,11.632,0,0,0,195.3,155.618v-32.1Z" transform="translate(-81.182 -61.198)" fill="#fb5e3d"/>
        <path id="Trazado_1034520" data-name="Trazado 1034520" d="M232.93,104.86a5.381,5.381,0,0,0-5.381,5.381v4.184h10.763v-4.184A5.382,5.382,0,0,0,232.93,104.86Z" transform="translate(-113.435 -52.103)" fill="#ffb69f"/>
        <path id="Trazado_1034521" data-name="Trazado 1034521" d="M12.833,100.091a5.381,5.381,0,0,0-5.381,5.381v4.184H18.215v-4.184a5.382,5.382,0,0,0-5.382-5.381Z" transform="translate(-6.17 -49.779)" fill="#ffb69f"/>
        <path id="Trazado_1034522" data-name="Trazado 1034522" d="M122.846,4.447H91.315a6.265,6.265,0,0,0-6.265,6.265V50.734l18.3,13.586a6.264,6.264,0,0,0,7.469,0l18.3-13.586V10.712A6.264,6.264,0,0,0,122.846,4.447Z" transform="translate(-43.988 -3.167)" fill="#efefef"/>
        <g id="Grupo_1200218" data-name="Grupo 1200218" transform="translate(16.16 30.465)">
          <g id="Grupo_1200216" data-name="Grupo 1200216" transform="translate(80.543)">
            <path id="Trazado_1034523" data-name="Trazado 1034523" d="M205.975,67.767c-1.91-.629-3.4-1.036-4.4-5.339a1.364,1.364,0,0,0-2.654,0c-.977,4.207-2.339,4.658-4.4,5.339a1.364,1.364,0,0,0,0,2.587c3.426,1.131,3.814,2.805,4.4,5.339a1.363,1.363,0,0,0,2.655,0c.976-4.207,2.413-4.682,4.4-5.339a1.364,1.364,0,0,0,0-2.587Z" transform="translate(-193.585 -61.377)"/>
            <path id="Trazado_1034524" data-name="Trazado 1034524" d="M206.617,74.152a6.721,6.721,0,0,0-2.011,2.273,7.089,7.089,0,0,0-2.136-2.256,6.807,6.807,0,0,0,2.113-2.375,6.988,6.988,0,0,0,2.034,2.358Z" transform="translate(-197.915 -66.454)" fill="#f0c020"/>
          </g>
          <g id="Grupo_1200217" data-name="Grupo 1200217">
            <path id="Trazado_1034525" data-name="Trazado 1034525" d="M48.864,67.767c-1.91-.629-3.4-1.036-4.4-5.339a1.364,1.364,0,0,0-2.654,0c-.977,4.207-2.339,4.658-4.4,5.339a1.364,1.364,0,0,0,0,2.587c3.426,1.131,3.814,2.805,4.4,5.339a1.363,1.363,0,0,0,2.655,0c.976-4.207,2.413-4.682,4.4-5.339a1.363,1.363,0,0,0,0-2.587Z" transform="translate(-36.474 -61.377)"/>
            <path id="Trazado_1034526" data-name="Trazado 1034526" d="M49.507,74.152A6.721,6.721,0,0,0,47.5,76.425a7.089,7.089,0,0,0-2.136-2.256,6.807,6.807,0,0,0,2.113-2.375A6.977,6.977,0,0,0,49.507,74.152Z" transform="translate(-40.805 -66.454)" fill="#f0c020"/>
          </g>
        </g>
        <g id="Grupo_1200219" data-name="Grupo 1200219" transform="translate(52.478 13.575)">
          <path id="Trazado_1034527" data-name="Trazado 1034527" d="M139.385,69.795h-5.669a5.193,5.193,0,0,0-5.193,5.193v1.547h5.669a5.193,5.193,0,0,0,5.193-5.193Z" transform="translate(-117.652 -48.59)" fill="#f0c020"/>
          <path id="Trazado_1034528" data-name="Trazado 1034528" d="M107.318,69.795h5.669a5.193,5.193,0,0,1,5.193,5.193v1.547h-5.669a5.193,5.193,0,0,1-5.193-5.193Z" transform="translate(-107.318 -48.59)" fill="#f0c020"/>
          <path id="Trazado_1034529" data-name="Trazado 1034529" d="M139.385,49.783h-5.669a5.193,5.193,0,0,0-5.193,5.193v1.547h5.669a5.193,5.193,0,0,0,5.193-5.193Z" transform="translate(-117.652 -38.837)" fill="#f0c020"/>
          <path id="Trazado_1034530" data-name="Trazado 1034530" d="M107.318,49.783h5.669a5.193,5.193,0,0,1,5.193,5.193v1.547h-5.669a5.193,5.193,0,0,1-5.193-5.193Z" transform="translate(-107.318 -38.837)" fill="#f0c020"/>
          <path id="Trazado_1034531" data-name="Trazado 1034531" d="M125.6,36.82a3.074,3.074,0,0,1-3.074-3.074c0-1.7,3.074-5.315,3.074-5.315s3.074,3.617,3.074,5.315A3.074,3.074,0,0,1,125.6,36.82Z" transform="translate(-114.73 -28.431)" fill="#f0c020"/>
        </g>
        <g id="Grupo_1200220" data-name="Grupo 1200220" transform="translate(36.081 16.223)">
          <path id="Trazado_1034532" data-name="Trazado 1034532" d="M80.317,36.092v47.62H75.334V36.092a2.491,2.491,0,1,1,4.983,0Z" transform="translate(-75.334 -33.595)" fill="#f0c020"/>
        </g>
        <g id="Grupo_1200221" data-name="Grupo 1200221" transform="translate(85.121 16.223)">
          <path id="Trazado_1034533" data-name="Trazado 1034533" d="M175.977,36.092v47.62h-4.983V36.092a2.491,2.491,0,1,1,4.983,0Z" transform="translate(-170.994 -33.595)" fill="#f0c020"/>
        </g>
        <path id="Trazado_1034534" data-name="Trazado 1034534" d="M42.074,186.658h.005a4.893,4.893,0,0,0,9.161,0,1.284,1.284,0,0,0-.748-1.651,1.311,1.311,0,0,0-1.651.754,2.337,2.337,0,0,1-2.179,1.507,2.307,2.307,0,0,1-2.184-1.507,1.307,1.307,0,0,0-1.646-.754,1.281,1.281,0,0,0-.759,1.651Z" transform="translate(-23.005 -91.126)"/>
        <path id="Trazado_1034535" data-name="Trazado 1034535" d="M39.334,173.582a1.281,1.281,0,0,0,1.282-1.282v-.683a1.282,1.282,0,0,0-2.563,0v.683A1.281,1.281,0,0,0,39.334,173.582Z" transform="translate(-21.083 -84.013)"/>
        <path id="Trazado_1034536" data-name="Trazado 1034536" d="M60.411,173.582a1.281,1.281,0,0,0,1.282-1.282v-.683a1.282,1.282,0,0,0-2.563,0v.683A1.282,1.282,0,0,0,60.411,173.582Z" transform="translate(-31.355 -84.013)"/>
        <path id="Trazado_1034537" data-name="Trazado 1034537" d="M49.873,177.35a1.281,1.281,0,0,0,1.282-1.282V172.95a1.282,1.282,0,0,0-2.563,0v3.119A1.281,1.281,0,0,0,49.873,177.35Z" transform="translate(-26.22 -84.662)"/>
        <circle id="Elipse_12220" data-name="Elipse 12220" cx="1.282" cy="1.282" r="1.282" transform="translate(21.238 71.755)"/>
        <path id="Trazado_1034538" data-name="Trazado 1034538" d="M128.152,207.918a1.283,1.283,0,0,0-.754-1.651,1.305,1.305,0,0,0-1.646.754,1.852,1.852,0,0,1-3.465,0,1.311,1.311,0,0,0-1.651-.754,1.283,1.283,0,0,0-.754,1.651A4.423,4.423,0,0,0,128.152,207.918Z" transform="translate(-60.924 -101.487)"/>
        <path id="Trazado_1034539" data-name="Trazado 1034539" d="M118.945,195.4v-.593a1.282,1.282,0,1,0-2.563,0v.593a1.282,1.282,0,0,0,2.563,0Z" transform="translate(-59.258 -95.317)"/>
        <path id="Trazado_1034540" data-name="Trazado 1034540" d="M135.946,196.686a1.281,1.281,0,0,0,1.282-1.282v-.593a1.282,1.282,0,1,0-2.563,0v.593A1.282,1.282,0,0,0,135.946,196.686Z" transform="translate(-68.167 -95.317)"/>
        <path id="Trazado_1034541" data-name="Trazado 1034541" d="M126.8,199.954a1.281,1.281,0,0,0,1.282-1.282v-2.705a1.282,1.282,0,1,0-2.563,0v2.705A1.281,1.281,0,0,0,126.8,199.954Z" transform="translate(-63.712 -95.88)"/>
        <path id="Trazado_1034542" data-name="Trazado 1034542" d="M205.1,192.579a1.282,1.282,0,0,0-.754-1.646,1.306,1.306,0,0,0-1.651.748,2.325,2.325,0,0,1-2.174,1.5,2.291,2.291,0,0,1-2.169-1.5,1.311,1.311,0,0,0-1.651-.758,1.285,1.285,0,0,0-.754,1.651,4.885,4.885,0,0,0,9.151,0Z" transform="translate(-97.997 -94.012)"/>
        <path id="Trazado_1034543" data-name="Trazado 1034543" d="M194.5,179.582V178.9a1.282,1.282,0,0,0-2.563,0v.682a1.282,1.282,0,1,0,2.563,0Z" transform="translate(-96.078 -87.562)"/>
        <path id="Trazado_1034544" data-name="Trazado 1034544" d="M214.249,180.864a1.281,1.281,0,0,0,1.282-1.282V178.9a1.282,1.282,0,0,0-2.563,0v.682A1.281,1.281,0,0,0,214.249,180.864Z" transform="translate(-106.328 -87.562)"/>
        <path id="Trazado_1034545" data-name="Trazado 1034545" d="M203.732,185.431a1.281,1.281,0,0,0,1.282-1.282v-3.112a1.282,1.282,0,0,0-2.563,0v3.112A1.281,1.281,0,0,0,203.732,185.431Z" transform="translate(-101.203 -88.603)"/>
        <path id="Trazado_1034546" data-name="Trazado 1034546" d="M131.111,106.7a6.663,6.663,0,1,0-13.326,0c0,.28,0,4.425,0,17.746a17.215,17.215,0,0,0-10.288-3.493h-.026a17.025,17.025,0,0,0-17,17.019c0,4.664-.018,7.98.907,11.5a1.28,1.28,0,0,0,2.476-.652c-.819-3.119-.82-6.291-.82-10.848a14.439,14.439,0,0,1,24.755-10.12v8.554a6.529,6.529,0,0,0-2.9-1.258L98.4,132.41a3.262,3.262,0,0,0-3.783,3.209v7.346a12.9,12.9,0,0,0,6.53,11.2A23.871,23.871,0,0,0,84.737,170.55a18.456,18.456,0,0,0-10.85-9.52,11.293,11.293,0,0,0,5.094-6.685A4.178,4.178,0,0,0,79.4,146v-1.81h2.63a1.282,1.282,0,1,0,0-2.563H79.4V140.55a10.01,10.01,0,0,0-10-10H66.69a10.01,10.01,0,0,0-10,10V146a4.177,4.177,0,0,0,.415,8.344,11.3,11.3,0,0,0,5.083,6.687A18.463,18.463,0,0,0,51.843,169.6a23.693,23.693,0,0,0-16.867-18.474,12.762,12.762,0,0,0,6.088-7.908,4.627,4.627,0,1,0,.431-9.241v-3.22l1.085-1.1a7.15,7.15,0,0,0-1.051-10.925l-2.1-1.435a1.282,1.282,0,0,0-1.984.82,2.708,2.708,0,0,1-2.656,2.2H32.6a1.282,1.282,0,0,0,0,2.563h2.194a5.292,5.292,0,0,0,4.516-2.558l.774.528a4.589,4.589,0,0,1,.672,7l-1.077,1.1H18.28v-2.081a4,4,0,0,1,4.065-3.988,1.283,1.283,0,1,0-.077-2.563,6.523,6.523,0,0,0-3.989,1.372c0-9.945,0-16.959,0-17.434a6.663,6.663,0,1,0-13.326,0v72.265a1.282,1.282,0,0,0,2.563,0v-66.8h8.2c0,18.1-.005,18.9-.005,30.2A12.9,12.9,0,0,0,28.6,152.81,21.088,21.088,0,0,1,49.674,173.87v2.649s0,0,0,0a1.279,1.279,0,0,0,2.548.144,15.938,15.938,0,0,1,31.642,0,1.282,1.282,0,0,0,2.555-.123,21.175,21.175,0,0,1,21.07-20.692,12.924,12.924,0,0,0,12.858-12.863c0-.269,0,2.864,0-30.819h8.2v64.352a1.282,1.282,0,0,0,2.563,0c0-5.037,0-68.409,0-69.819ZM41.5,136.538a2.06,2.06,0,0,1-.019,4.116c.013-.242.02-.489.02-.739v-3.377Zm-2.566-5.026v8.4A10.3,10.3,0,0,1,28.6,150.244h-.023a10.311,10.311,0,0,1-10.305-10.326v-8.4ZM7.515,107.157v-2.9a4.1,4.1,0,1,1,8.2,0v2.9ZM67.73,133.117h.643c1.12,1.326,1.423,5.363,1.423,7.229v1.282h-3.5v-1.282C66.295,136.26,67.191,133.6,67.73,133.117ZM79.4,148.572a1.616,1.616,0,0,1-.009,3.189c.006-.15.009-.3.009-.453v-2.736Zm-2.563-8.021v1.077H72.359v-1.282a21.642,21.642,0,0,0-.995-6.954A7.458,7.458,0,0,1,76.835,140.55Zm-17.579,0a7.465,7.465,0,0,1,5.467-7.158,21.93,21.93,0,0,0-.992,6.953v1.282H59.256Zm-3.913,9.615a1.617,1.617,0,0,1,1.35-1.593v2.738s.011.449.011.451a1.617,1.617,0,0,1-1.361-1.6Zm3.916,1.143c0-1.81,0-5.308,0-7.119H76.835v7.121a8.788,8.788,0,0,1-17.576,0Zm61.089-44.61a4.1,4.1,0,1,1,8.2,0v2.9h-8.2ZM97.176,142.965v-7.346a.689.689,0,0,1,.789-.682l16.5,2.743a3.955,3.955,0,0,1,3.321,3.894v1.4a10.352,10.352,0,0,1-10.32,10.306h-.035A10.35,10.35,0,0,1,97.176,142.965Z" transform="translate(-4.952 -48.561)"/>
        <path id="Trazado_1034547" data-name="Trazado 1034547" d="M73.452,242.67v-8.062a1.282,1.282,0,0,0-2.563,0v8.062a1.282,1.282,0,1,0,2.563,0Z" transform="translate(-37.086 -114.711)"/>
        <path id="Trazado_1034548" data-name="Trazado 1034548" d="M182.415,242.67v-8.062a1.282,1.282,0,1,0-2.563,0v8.062a1.282,1.282,0,1,0,2.563,0Z" transform="translate(-90.19 -114.711)"/>
        <path id="Trazado_1034549" data-name="Trazado 1034549" d="M104.818,38.18v1.547a6.482,6.482,0,0,0,6.474,6.474h4.4v2.29a6.433,6.433,0,0,0-3.92-1.333H106.1a1.281,1.281,0,0,0-1.282,1.282v1.547a6.482,6.482,0,0,0,6.474,6.474h4.4V60a1.282,1.282,0,0,0,2.563,0V56.46h4.388a6.481,6.481,0,0,0,6.474-6.474V48.439a1.281,1.281,0,0,0-1.282-1.282h-5.669a6.431,6.431,0,0,0-3.911,1.327V46.2h4.388a6.481,6.481,0,0,0,6.474-6.474V38.18a1.281,1.281,0,0,0-1.282-1.282h-5.669a6.434,6.434,0,0,0-3.911,1.327V36.712a4.364,4.364,0,0,0,3.075-4.164c0-2.013-2.587-5.212-3.38-6.144a1.325,1.325,0,0,0-1.953,0c-.793.932-3.379,4.131-3.379,6.144a4.364,4.364,0,0,0,3.074,4.164v1.519a6.433,6.433,0,0,0-3.92-1.333H106.1a1.282,1.282,0,0,0-1.281,1.282ZM115.68,53.9h-4.388a3.915,3.915,0,0,1-3.911-3.911V49.72h4.388a3.916,3.916,0,0,1,3.911,3.912Zm6.482-4.176h4.388v.266a3.915,3.915,0,0,1-3.911,3.911h-4.388v-.265A3.916,3.916,0,0,1,122.162,49.721Zm0-10.259h4.388v.265a3.915,3.915,0,0,1-3.911,3.911h-4.388v-.265A3.915,3.915,0,0,1,122.162,39.461ZM116.97,29.3a9.235,9.235,0,0,1,1.793,3.247,1.793,1.793,0,1,1-3.586,0A9.256,9.256,0,0,1,116.97,29.3Zm-9.59,10.16h4.388a3.915,3.915,0,0,1,3.911,3.911v.265h-4.388a3.915,3.915,0,0,1-3.911-3.911Z" transform="translate(-53.621 -13.658)"/>
        <circle id="Elipse_12221" data-name="Elipse 12221" cx="1.282" cy="1.282" r="1.282" transform="translate(57.072 0)"/>
        <path id="Trazado_1034550" data-name="Trazado 1034550" d="M91.262,1.95h-5.9A7.556,7.556,0,0,0,77.815,9.5v7.6a3.741,3.741,0,0,0-1.208-.2,3.78,3.78,0,0,0-3.773,3.778v47.62a1.281,1.281,0,0,0,1.282,1.282H79.1a1.281,1.281,0,0,0,1.282-1.282V52.064L96.629,64.13a7.557,7.557,0,0,0,9,.005l16.248-12.069V68.289a1.281,1.281,0,0,0,1.282,1.282h4.983a1.281,1.281,0,0,0,1.282-1.282V20.669a3.761,3.761,0,0,0-4.98-3.575V9.5a7.556,7.556,0,0,0-7.546-7.546H101.515a1.282,1.282,0,1,0,0,2.563h15.379A5,5,0,0,1,121.877,9.5V20.605c0,.022,0,.043,0,.064V48.875L104.1,62.073a4.98,4.98,0,0,1-5.942,0L80.38,48.874v-28.2c0-.013,0-.026,0-.039V9.5a5,5,0,0,1,4.983-4.983h5.9a1.282,1.282,0,0,0,0-2.563Zm34.391,17.5a1.2,1.2,0,0,1,1.2,1.215V67.008h-2.42V49.547c0-.009,0-.018,0-.028V20.637a1.214,1.214,0,0,1,1.212-1.183ZM75.4,67.007V20.669a1.214,1.214,0,0,1,1.21-1.215,1.2,1.2,0,0,1,1.208,1.194v28.87c0,.006,0,.011,0,.017V67.007Z" transform="translate(-38.034 -1.95)"/>
        <g id="Grupo_1200222" data-name="Grupo 1200222" transform="translate(46.046 5.125)">
          <path id="Trazado_1034551" data-name="Trazado 1034551" d="M127.584,14.51H102.717a1.282,1.282,0,1,1,0-2.563h24.867a1.282,1.282,0,1,1,0,2.563Zm-29.993,0H96.053a1.282,1.282,0,0,1,0-2.563h1.538a1.282,1.282,0,1,1,0,2.563Z" transform="translate(-94.771 -11.947)" fill="#fff"/>
        </g>
        <g id="Grupo_1200223" data-name="Grupo 1200223" transform="translate(44.907 43.706)">
          <path id="Trazado_1034552" data-name="Trazado 1034552" d="M109.3,101.567,93.068,89.516A1.282,1.282,0,1,1,94.6,87.459l16.14,11.985,10.789-8.012a1.282,1.282,0,1,1,1.528,2.058l-10.875,8.076A2.417,2.417,0,0,1,109.3,101.567Zm16.08-11.4a1.282,1.282,0,0,1,.265-1.793l1.235-.917a1.282,1.282,0,0,1,1.528,2.059l-1.235.917A1.282,1.282,0,0,1,125.375,90.168Z" transform="translate(-92.55 -87.206)" fill="#fff"/>
        </g>
      </g>
    </g>
  </g>
</svg>
