<svg xmlns="http://www.w3.org/2000/svg" xmlns:xlink="http://www.w3.org/1999/xlink" width="118" height="118" viewBox="0 0 118 118">
  <defs>
    <filter id="Trazado_896985" x="0" y="0" width="118" height="118" filterUnits="userSpaceOnUse">
      <feOffset dy="3" input="SourceAlpha"/>
      <feGaussianBlur stdDeviation="3" result="blur"/>
      <feFlood flood-opacity="0.161"/>
      <feComposite operator="in" in2="blur"/>
      <feComposite in="SourceGraphic"/>
    </filter>
  </defs>
  <g id="Grupo_1199957" data-name="Grupo 1199957" transform="translate(-582.949 -1651.404)">
    <g id="Grupo_1198734" data-name="Grupo 1198734" transform="translate(-0.051 -1972.07)">
      <g id="Grupo_1198135" data-name="Grupo 1198135" transform="translate(-0.051 -705)">
        <g id="Grupo_1181847" data-name="Grupo 1181847" transform="translate(592.051 4334.475)">
          <g id="Grupo_1111318" data-name="Grupo 1111318" transform="translate(0)">
            <g id="Grupo_1109826" data-name="Grupo 1109826" transform="translate(0 0)">
              <g id="Grupo_1098742" data-name="Grupo 1098742">
                <g transform="matrix(1, 0, 0, 1, -9, -6)" filter="url(#Trazado_896985)">
                  <g id="Trazado_896985-2" data-name="Trazado 896985" transform="translate(9 6)" fill="#9ad354" opacity="0.859">
                    <path d="M 49.99993515014648 99.5 C 43.31726837158203 99.5 36.83476257324219 98.19129943847656 30.73248100280762 95.61025238037109 C 24.83812141418457 93.11714172363281 19.54434776306152 89.54795837402344 14.99820137023926 85.00179290771484 C 10.45204162597656 80.45565032958984 6.88285493850708 75.16187286376953 4.389748573303223 69.26751708984375 C 1.808695197105408 63.16523742675781 0.5000017881393433 56.6827278137207 0.5000017881393433 50.00006103515625 C 0.5000017881393433 43.31726455688477 1.808695197105408 36.83475494384766 4.389748573303223 30.73247528076172 C 6.88285493850708 24.83811569213867 10.45204162597656 19.54434204101562 14.99820137023926 14.99819660186768 C 19.54434776306152 10.45203590393066 24.83812141418457 6.88284969329834 30.73248100280762 4.389742851257324 C 36.83476257324219 1.808689475059509 43.31726837158203 0.4999961853027344 49.99993515014648 0.4999961853027344 C 56.68260192871094 0.4999961853027344 63.16510772705078 1.808689475059509 69.26738739013672 4.389742851257324 C 75.16175079345703 6.88284969329834 80.45552062988281 10.45203590393066 85.00167083740234 14.99819660186768 C 89.54782867431641 19.54434204101562 93.11701202392578 24.83811569213867 95.61012268066406 30.73247528076172 C 98.19117736816406 36.83475494384766 99.49987030029297 43.31726455688477 99.49987030029297 49.99993133544922 C 99.49987030029297 56.6827278137207 98.19117736816406 63.16523742675781 95.61012268066406 69.26751708984375 C 93.11701202392578 75.16187286376953 89.54782867431641 80.45565032958984 85.00167083740234 85.00179290771484 C 80.45552062988281 89.54795837402344 75.16175079345703 93.11714172363281 69.26738739013672 95.61025238037109 C 63.16510772705078 98.19129943847656 56.68260192871094 99.5 49.99993515014648 99.5 Z" stroke="none"/>
                    <path d="M 49.99993515014648 0.9999923706054688 C 43.38454818725586 0.9999923706054688 36.96757507324219 2.29541015625 30.92725372314453 4.850250244140625 C 25.09249877929688 7.318145751953125 19.85213470458984 10.85135650634766 15.35174560546875 15.35174560546875 C 10.85136413574219 19.85212707519531 7.318145751953125 25.09249114990234 4.850257873535156 30.92724609375 C 2.295417785644531 36.96757125854492 1 43.38454437255859 1 50.00006103515625 C 1 56.61544799804688 2.295417785644531 63.03242111206055 4.850257873535156 69.07273864746094 C 7.318145751953125 74.90750122070312 10.85136413574219 80.14786529541016 15.35174560546875 84.64824676513672 C 19.85213470458984 89.14863586425781 25.09249877929688 92.68184661865234 30.92725372314453 95.14974212646484 C 36.96757507324219 97.70458221435547 43.38454818725586 99 49.99993515014648 99 C 56.61532211303711 99 63.03229522705078 97.70458221435547 69.07261657714844 95.14974212646484 C 74.90737915039062 92.68184661865234 80.14773559570312 89.14863586425781 84.64812469482422 84.64824676513672 C 89.14850616455078 80.14786529541016 92.68172454833984 74.90750122070312 95.14961242675781 69.07273864746094 C 97.70445251464844 63.03242111206055 98.99987030029297 56.61544799804688 98.99987030029297 49.99993133544922 C 98.99987030029297 43.38454437255859 97.70445251464844 36.96757125854492 95.14961242675781 30.92724609375 C 92.68172454833984 25.09249114990234 89.14850616455078 19.85212707519531 84.64812469482422 15.35174560546875 C 80.14773559570312 10.85135650634766 74.90737915039062 7.318145751953125 69.07261657714844 4.850250244140625 C 63.03229522705078 2.29541015625 56.61532211303711 0.9999923706054688 49.99993515014648 0.9999923706054688 M 49.99993515014648 -7.62939453125e-06 C 77.6141357421875 -7.62939453125e-06 99.99987030029297 22.38572692871094 99.99987030029297 49.99993133544922 L 99.99987030029297 50.00006103515625 C 99.99987030029297 77.61426544189453 77.6141357421875 100 49.99993515014648 100 C 22.38573455810547 100 0 77.61426544189453 0 50.00006103515625 L 0 49.99993133544922 C 0 22.38572692871094 22.38573455810547 -7.62939453125e-06 49.99993515014648 -7.62939453125e-06 Z" stroke="none" fill="#fff"/>
                  </g>
                </g>
                <g id="Rectángulo_400907" data-name="Rectángulo 400907" transform="translate(0)" fill="none" stroke="#fff" stroke-width="1">
                  <rect width="100" height="100" rx="50" stroke="none"/>
                  <rect x="0.5" y="0.5" width="99" height="99" rx="49.5" fill="none"/>
                </g>
              </g>
            </g>
          </g>
        </g>
      </g>
    </g>
    <g id="employee_1332024" transform="translate(609.633 1670.922)">
      <path id="Trazado_1032108" data-name="Trazado 1032108" d="M54.79,359.061A3.935,3.935,0,0,1,50.855,363H11.713a3.934,3.934,0,0,1-3.936-3.935,17.983,17.983,0,0,1,17.982-17.983H36.809A17.983,17.983,0,0,1,54.79,359.061Zm0,0" transform="translate(-6.73 -295.137)" fill="#d2d2d7"/>
      <path id="Trazado_1032109" data-name="Trazado 1032109" d="M78.3,359.061A3.935,3.935,0,0,1,74.367,363H38.884a3.934,3.934,0,0,1-3.935-3.935,17.982,17.982,0,0,1,17.981-17.983h7.39A17.983,17.983,0,0,1,78.3,359.061Zm0,0" transform="translate(-30.242 -295.137)" fill="#ebebf0"/>
      <path id="Trazado_1032110" data-name="Trazado 1032110" d="M158.562,272.718l-4.375,7.426-4.375-7.426V262.1h8.75Zm0,0" transform="translate(-129.633 -226.795)" fill="#e3a76f"/>
      <path id="Trazado_1032111" data-name="Trazado 1032111" d="M155.785,448.254h-4.4l-2.317,7.482h9.108Zm0,0" transform="translate(-128.991 -387.876)" fill="#6990d7"/>
      <path id="Trazado_1032112" data-name="Trazado 1032112" d="M162.082,408.184H158.1a1.468,1.468,0,0,1-1.464-1.464v-3.526a1.468,1.468,0,0,1,1.464-1.464h3.985a1.468,1.468,0,0,1,1.464,1.464v3.526A1.468,1.468,0,0,1,162.082,408.184Zm0,0" transform="translate(-135.535 -347.62)" fill="#91aee2"/>
      <g id="Grupo_1199956" data-name="Grupo 1199956" transform="translate(6.663 3.786)">
        <path id="Trazado_1032113" data-name="Trazado 1032113" d="M59.691,177.312a5.113,5.113,0,1,1-5.113-5.113A5.112,5.112,0,0,1,59.691,177.312Zm0,0" transform="translate(-49.465 -152.791)" fill="#e3a76f"/>
        <path id="Trazado_1032114" data-name="Trazado 1032114" d="M249.765,177.32a5.113,5.113,0,1,1-5.113-5.113A5.113,5.113,0,0,1,249.765,177.32Zm0,0" transform="translate(-213.937 -152.798)" fill="#e3a76f"/>
        <path id="Trazado_1032115" data-name="Trazado 1032115" d="M106.9,32.5V56.277c0,6.182-7.236,11.379-11.526,12.867a6.636,6.636,0,0,1-2.036.426c-1.68,0-5.071-1.488-8.04-3.894s-5.521-5.729-5.521-9.4V32.5a4.388,4.388,0,0,1,4.388-4.388h18.348A4.387,4.387,0,0,1,106.9,32.5Zm0,0" transform="translate(-75.698 -28.113)" fill="#e3a76f"/>
      </g>
      <path id="Trazado_1032116" data-name="Trazado 1032116" d="M133.063,32.5V56.277c0,5.349-5.418,9.961-9.657,12.071a4.186,4.186,0,0,1-3.728.005,22.9,22.9,0,0,1-4.146-2.677c-2.971-2.406-5.521-5.729-5.521-9.4V32.5a4.388,4.388,0,0,1,4.388-4.388h14.276a4.388,4.388,0,0,1,4.388,4.388Zm0,0" transform="translate(-95.193 -24.327)" fill="#f2bb88"/>
      <path id="Trazado_1032117" data-name="Trazado 1032117" d="M243.04,38.213h-4.175a4.049,4.049,0,0,1-4.049-4.049V26.756a4.049,4.049,0,0,1,4.049-4.049h.878a4.049,4.049,0,0,1,4.049,4.049V37.461a.752.752,0,0,1-.752.751Zm0,0" transform="translate(-203.187 -19.649)" fill="#ae583e"/>
      <path id="Trazado_1032118" data-name="Trazado 1032118" d="M86,8.3V9.666C86,15.18,74.971,25.992,60.391,25.9H57.875c-1.414,0-2.563-.793-2.563-1.769V13.1c0-3.058,3.6-5.538,8.043-5.538H84.921a1.474,1.474,0,0,1,.454.069A.786.786,0,0,1,86,8.3Zm0,0" transform="translate(-47.862 -6.541)" fill="#c0694e"/>
      <path id="Trazado_1032119" data-name="Trazado 1032119" d="M85.376,7.628c-2.524,5.746-12.44,13.736-24.984,13.656H57.876c-1.414,0-2.563-.793-2.563-1.768V13.1c0-3.058,3.6-5.538,8.043-5.538H84.922a1.474,1.474,0,0,1,.454.069Zm0,0" transform="translate(-47.863 -6.541)" fill="#c97e67"/>
      <path id="Trazado_1032120" data-name="Trazado 1032120" d="M102.169,317.734l-3.356,3.5a1.065,1.065,0,0,0-.246,1.059l3.047,9.6a1.775,1.775,0,0,0,2.486.564l6.018-3.9-6.262-10.628a1.065,1.065,0,0,0-1.687-.2Zm0,0" transform="translate(-85.246 -274.653)" fill="#aec2e9"/>
      <path id="Trazado_1032121" data-name="Trazado 1032121" d="M187.89,317.734l3.356,3.5a1.065,1.065,0,0,1,.246,1.059l-3.046,9.6a1.776,1.776,0,0,1-2.487.564l-6.018-3.9,6.262-10.628A1.065,1.065,0,0,1,187.89,317.734Zm0,0" transform="translate(-155.704 -274.653)" fill="#aec2e9"/>
      <path id="Trazado_1032122" data-name="Trazado 1032122" d="M330.639,319.679A13.335,13.335,0,1,1,317.3,306.344,13.335,13.335,0,0,1,330.639,319.679Zm0,0" transform="translate(-263.026 -265.081)" fill="#6990d7"/>
      <path id="Trazado_1032123" data-name="Trazado 1032123" d="M350.044,352.414a9.261,9.261,0,1,1,0-13.1A9.209,9.209,0,0,1,350.044,352.414Zm0,0" transform="translate(-289.215 -291.265)" fill="#1ed688"/>
      <path id="Trazado_1032124" data-name="Trazado 1032124" d="M382.735,354.687a9.209,9.209,0,0,1-4.006,2.354,9.26,9.26,0,0,1,0-17.809,9.261,9.261,0,0,1,4.006,15.456Zm0,0" transform="translate(-321.907 -293.538)" fill="#35e298"/>
      <path id="Trazado_1032125" data-name="Trazado 1032125" d="M68.565,53.208a1.018,1.018,0,0,0-2.027.194,12.308,12.308,0,1,1-.923-3.627,1.018,1.018,0,0,0,1.873-.8,14.364,14.364,0,0,0-26.228-.421,18.7,18.7,0,0,0-4.913-2.592l-3.555-3.708a16.005,16.005,0,0,0,5.732-7.935,6.131,6.131,0,0,0,.311-11.955V19.581H39.8a1.771,1.771,0,0,0,1.77-1.768V7.108A5.068,5.068,0,0,0,39.1,2.762v-1A1.93,1.93,0,0,0,37.007,0H15.441A11.118,11.118,0,0,0,9.177,1.8a5.816,5.816,0,0,0-2.8,4.755V17.589c0,1.488,1.426,2.669,3.3,2.777v2.164a6.131,6.131,0,0,0,.274,11.647,10.948,10.948,0,0,0,.733,2.048,1.018,1.018,0,1,0,1.842-.868c-1.256-2.663-.654-3.455-.813-11.144V20.375a31.827,31.827,0,0,0,18.853-5.632,5.072,5.072,0,0,0,5.062,4.839H36.8c0,13.515.148,13.121-.413,14.787a15.075,15.075,0,0,1-5.344,6.671h0a21.848,21.848,0,0,1-3.161,2,8.45,8.45,0,0,1-3.625,1.192c-2.006,0-6.655-2.454-9.612-5.756a1.018,1.018,0,1,0-1.516,1.359,21.657,21.657,0,0,0,2.9,2.668l-3.344,3.488A19.034,19.034,0,0,0,0,63.9a4.959,4.959,0,0,0,4.953,4.953H44.095a4.935,4.935,0,0,0,3.569-1.524,14.37,14.37,0,0,0,20.9-14.125ZM9.675,31.851a4.092,4.092,0,0,1,0-7.088Zm31.744-3.543a4.1,4.1,0,0,1-2.586,3.806c0-.086,0,.335,0-7.612A4.1,4.1,0,0,1,41.419,28.308ZM12.483,18.339c-2.67,0-2.6.007-2.808-.015-.789-.083-1.26-.5-1.26-.736V6.556c0-2.45,3.218-4.52,7.025-4.52,22.587,0,21.552,0,21.627,0V3.125c0,4.786-10.39,15.319-24.585,15.214Zm23.142-.794a3.033,3.033,0,0,1-3.031-3.031V13.2c2.486-2.059,5.226-5.043,6.18-8.1a3.016,3.016,0,0,1,.759,2V17.545ZM31.378,43.722c.025.026,3.4,3.565,3.418,3.565-.029.088-2.975,9.375-3.016,9.5a.782.782,0,0,1-1,.138l-5.2-3.367c.206-.35,5.784-9.817,5.8-9.84Zm-4.417,13.16v2.2a.453.453,0,0,1-.445.445H22.531a.452.452,0,0,1-.445-.445v-2.2L24.524,55.3ZM28.18,45.139c-.832,1.409-.889,1.5-3.656,6.2-2.864-4.863-2.766-4.693-3.467-5.882,2.661,1.083,4.026,1.144,7.123-.321Zm-10.51-1.417,1.9,3.218s0,0,0,0l0,0s0,0,0,0,0,0,0,0l3.9,6.61c-5.732,3.712-5.406,3.57-5.827,3.463a.664.664,0,0,1-.374-.234l-3.016-9.5,3.418-3.565Zm1.63,23.1H11.681V60.11a1.018,1.018,0,0,0-2.036,0v6.712H4.953A2.92,2.92,0,0,1,2.036,63.9,16.991,16.991,0,0,1,12.425,48.266c3.122,9.808,2.924,9.267,3.019,9.443a2.792,2.792,0,0,0,3.932.93l.675-.437c.068.411-.327,1.9,1.025,2.886Zm2.129,0,1.63-5.26h3.02l1.683,5.26Zm22.666,0H39.4V60.11a1.018,1.018,0,0,0-2.036,0v6.712H29.9l-1.853-5.79a2.475,2.475,0,0,0,.95-1.95V58.2l.675.437a2.766,2.766,0,0,0,4.01-1.11l2.945-9.276a16.683,16.683,0,0,1,3.884,2.294A14.345,14.345,0,0,0,45.867,66.22a2.912,2.912,0,0,1-1.773.6Zm0,0" transform="translate(0)"/>
      <path id="Trazado_1032126" data-name="Trazado 1032126" d="M340.656,348.915a10.317,10.317,0,1,0-4.36.665,1.018,1.018,0,0,0,.07-2.033,8.226,8.226,0,1,1,3.558-.531,1.018,1.018,0,0,0,.731,1.9Zm0,0" transform="translate(-282.671 -284.729)"/>
      <path id="Trazado_1032127" data-name="Trazado 1032127" d="M366.8,366.095a1.018,1.018,0,0,0-1.4.332l-5.177,8.394-1.822-2.489a1.018,1.018,0,1,0-1.643,1.2l2.714,3.71a1.018,1.018,0,0,0,1.688-.067l5.972-9.682A1.018,1.018,0,0,0,366.8,366.095Zm0,0" transform="translate(-308.529 -316.652)"/>
      <path id="Trazado_1032128" data-name="Trazado 1032128" d="M221.734,200.067a1.606,1.606,0,1,0,1.607-1.606A1.606,1.606,0,0,0,221.734,200.067Zm0,0" transform="translate(-191.867 -171.729)"/>
      <path id="Trazado_1032129" data-name="Trazado 1032129" d="M215.793,163.562a1.018,1.018,0,0,0,1.084-1.724c-2.167-1.363-5.646-.69-6.036-.608a1.018,1.018,0,0,0,.415,1.993,9.647,9.647,0,0,1,3.574-.035,3.084,3.084,0,0,1,.962.375Zm0,0" transform="translate(-181.741 -139.308)"/>
      <path id="Trazado_1032130" data-name="Trazado 1032130" d="M120.145,198.461a1.626,1.626,0,1,0,.076,0,.731.731,0,0,0-.076,0Zm0,0" transform="translate(-102.572 -171.729)"/>
      <path id="Trazado_1032131" data-name="Trazado 1032131" d="M106.253,161.231c-.39-.082-3.87-.755-6.036.608a1.019,1.019,0,0,0,.543,1.88c.542,0,.515-.3,1.505-.532a9.659,9.659,0,0,1,3.572.036,1.018,1.018,0,0,0,.416-1.993Zm0,0" transform="translate(-86.307 -139.308)"/>
      <path id="Trazado_1032132" data-name="Trazado 1032132" d="M157.717,251.072a2.073,2.073,0,0,1-4.145,0,1.019,1.019,0,0,0-1.018-1.018c-2.144,0-.819,5.126,3.091,5.126,3.206,0,4.534-3.384,4.02-4.522a1.019,1.019,0,0,0-1.948.414Zm0,0" transform="translate(-131.121 -216.373)"/>
    </g>
  </g>
</svg>
