<svg xmlns="http://www.w3.org/2000/svg" xmlns:xlink="http://www.w3.org/1999/xlink" width="287.854" height="367.961" viewBox="0 0 287.854 367.961">
  <defs>
    <filter id="Rectángulo_408606" x="0" y="0" width="287.854" height="353.9" filterUnits="userSpaceOnUse">
      <feOffset dx="6" dy="7" input="SourceAlpha"/>
      <feGaussianBlur stdDeviation="3" result="blur"/>
      <feFlood flood-opacity="0.161"/>
      <feComposite operator="in" in2="blur"/>
      <feComposite in="SourceGraphic"/>
    </filter>
    <clipPath id="clip-path">
      <rect id="Rectángulo_408700" data-name="Rectángulo 408700" width="270" height="336.34" rx="8" transform="translate(205.07 6081.303)" fill="#d6edba" opacity="0.51"/>
    </clipPath>
    <clipPath id="clip-path-2">
      <rect id="Rectángulo_408699" data-name="Rectángulo 408699" width="770.111" height="673.56" fill="none"/>
    </clipPath>
    <clipPath id="clip-path-3">
      <rect id="Rectángulo_408686" data-name="Rectángulo 408686" width="286.299" height="451.459" transform="translate(73.479 -0.001)" fill="none"/>
    </clipPath>
    <linearGradient id="linear-gradient" x1="-0.257" y1="1.492" x2="-0.253" y2="1.492" gradientUnits="objectBoundingBox">
      <stop offset="0" stop-color="#fff1b6"/>
      <stop offset="0.147" stop-color="#fff1b6"/>
      <stop offset="0.933" stop-color="#54ace2"/>
      <stop offset="1" stop-color="#54ace2"/>
    </linearGradient>
    <clipPath id="clip-path-4">
      <rect id="Rectángulo_408689" data-name="Rectángulo 408689" width="286.299" height="197.716" transform="translate(73.479 219.069)" fill="none"/>
    </clipPath>
    <clipPath id="clip-path-5">
      <rect id="Rectángulo_408687" data-name="Rectángulo 408687" width="233.196" height="85.995" transform="translate(138.216 311.817)" fill="none"/>
    </clipPath>
    <clipPath id="clip-path-6">
      <rect id="Rectángulo_408688" data-name="Rectángulo 408688" width="175.096" height="70.98" transform="translate(7.684 256.875)" fill="none"/>
    </clipPath>
    <clipPath id="clip-path-7">
      <path id="Trazado_918785" data-name="Trazado 918785" d="M73.479,375.608V612.283h286.3V375.608c-94.374,6.223-189.9,5.664-286.3,0" fill="none"/>
    </clipPath>
    <linearGradient id="linear-gradient-2" x1="-0.257" y1="1.259" x2="-0.253" y2="1.259" gradientUnits="objectBoundingBox">
      <stop offset="0" stop-color="#405e2c"/>
      <stop offset="0.147" stop-color="#405e2c"/>
      <stop offset="0.933" stop-color="#899945"/>
      <stop offset="1" stop-color="#899945"/>
    </linearGradient>
    <clipPath id="clip-path-8">
      <path id="Trazado_918787" data-name="Trazado 918787" d="M73.479,398.537v28.085c6.149.2,12.52.3,19.052.3,51.1,0,92.531-6.424,92.531-14.347s-41.428-14.347-92.531-14.347c-6.532,0-12.9.105-19.052.3" fill="none"/>
    </clipPath>
    <clipPath id="clip-path-9">
      <rect id="Rectángulo_408691" data-name="Rectángulo 408691" width="143.208" height="37.135" transform="translate(11.593 381.568)" fill="none"/>
    </clipPath>
    <clipPath id="clip-path-11">
      <path id="Trazado_918793" data-name="Trazado 918793" d="M184.645,379.788c-72.2,44.53-19.175,174.283,9.555,232.5H359.778V473.774c-116.527-50.285-106.89-84.276-100.645-94.032q-37.139.636-74.488.046" fill="none"/>
    </clipPath>
    <clipPath id="clip-path-12">
      <path id="Trazado_918804" data-name="Trazado 918804" d="M184.645,379.788a71.924,71.924,0,0,0-14.522,11.733,174.322,174.322,0,0,0-21.755,62.9c-.474,39.947,14.464,86.052,29.686,122.451a202.253,202.253,0,0,0,31.034,35.412h150.69V473.774c-116.527-50.285-106.89-84.276-100.646-94.032q-37.137.636-74.487.046" fill="none"/>
    </clipPath>
    <clipPath id="clip-path-13">
      <rect id="Rectángulo_408692" data-name="Rectángulo 408692" width="178.907" height="257.298" transform="translate(130.536 353.926)" fill="none"/>
    </clipPath>
    <clipPath id="clip-path-14">
      <rect id="Rectángulo_408693" data-name="Rectángulo 408693" width="521.745" height="284.574" transform="translate(242.291 368.824)" fill="none"/>
    </clipPath>
    <clipPath id="clip-path-17">
      <rect id="Rectángulo_408694" data-name="Rectángulo 408694" width="23.033" height="15.961" transform="translate(85.227 483.821)" fill="none"/>
    </clipPath>
    <clipPath id="clip-path-18">
      <rect id="Rectángulo_408695" data-name="Rectángulo 408695" width="23.034" height="15.96" transform="translate(88.237 536.858)" fill="none"/>
    </clipPath>
    <clipPath id="clip-path-19">
      <path id="Trazado_918819" data-name="Trazado 918819" d="M305.6,449.49c-4.562,1.355,6.1,6.719,6.1,6.719s-10.638.384-7.562,3.525,9.228-1.474,9.228-1.474-1.282,9.1,3.461,7.306-.9-7.69-.9-7.69,9.357,5.255,10.9,1.282-10.254-3.2-10.254-3.2,8.331-3.845,6.537-5.768-8.588.256-8.716,5.127c0,0-3.531-5.993-7.621-5.993a4.088,4.088,0,0,0-1.171.171" fill="none"/>
    </clipPath>
    <clipPath id="clip-path-21">
      <path id="Trazado_918822" data-name="Trazado 918822" d="M326.963,392.3c-5.127,1.524,6.853,7.551,6.853,7.551s-11.954.432-8.5,3.96,10.37-1.656,10.37-1.656-1.441,10.226,3.888,8.21-1.008-8.642-1.008-8.642,10.514,5.9,12.242,1.44-11.522-3.6-11.522-3.6,9.362-4.321,7.346-6.481-9.65.288-9.794,5.76c0,0-3.968-6.733-8.563-6.733a4.6,4.6,0,0,0-1.315.191" fill="none"/>
    </clipPath>
    <clipPath id="clip-path-23">
      <path id="Trazado_918825" data-name="Trazado 918825" d="M295.11,416.955c-4.562,1.355,6.1,6.719,6.1,6.719s-10.638.384-7.562,3.525,9.229-1.474,9.229-1.474-1.282,9.1,3.461,7.306-.9-7.691-.9-7.691,9.358,5.255,10.9,1.283-10.255-3.2-10.255-3.2,8.331-3.845,6.537-5.768-8.587.256-8.716,5.127c0,0-3.531-5.993-7.62-5.993a4.089,4.089,0,0,0-1.171.171" fill="none"/>
    </clipPath>
    <clipPath id="clip-path-24">
      <rect id="Rectángulo_408684" data-name="Rectángulo 408684" width="272" height="298.295" rx="8" transform="translate(205.07 7515)" fill="#d6edba"/>
    </clipPath>
    <clipPath id="clip-path-25">
      <rect id="Rectángulo_408683" data-name="Rectángulo 408683" width="257.473" height="443.94" fill="none"/>
    </clipPath>
    <clipPath id="clip-path-27">
      <rect id="Rectángulo_408645" data-name="Rectángulo 408645" width="171.619" height="24.399" fill="none"/>
    </clipPath>
    <clipPath id="clip-path-28">
      <path id="Trazado_918633" data-name="Trazado 918633" d="M139.514,121.684c1.16,11.175,17.117,39.465,24.5,47.5s30.218-11.549,33.133-17.865c2.268-4.912-14.015-32.2-42.844-46.543a83.171,83.171,0,0,0-27.661-8.306s11.715,14.036,12.874,25.212" transform="translate(-126.64 -96.472)" fill="none"/>
    </clipPath>
    <clipPath id="clip-path-30">
      <path id="Trazado_918637" data-name="Trazado 918637" d="M58.84,275.028l3.332,11.257L50.131,350.371H82.094l21.44-64.477,4.083-9.23,10.033-43.472,1.058,36.174.706,12.447L157.5,287.4c8.852-15.247,13.041-53.094,10.169-94.786l-95.848-1.09C61.4,219.128,62.989,246.268,58.84,275.028" transform="translate(-50.131 -191.521)" fill="none"/>
    </clipPath>
    <clipPath id="clip-path-32">
      <path id="Trazado_918645" data-name="Trazado 918645" d="M104.6,265.971l1.247,99.594s7.424,5.341,14.747,5.044c6.719-.269,13.533-2.422,16.437-1.229,6.07,2.493,24.762,3.827,38-3.217,0,0,10.26-11.893,1.2-18.818-3.667-2.8-25.294-3.725-27.434-15.524-4.146-22.871,7.733-62.3,7.733-62.3s-21.4-4.8-38.977-4.8a56.691,56.691,0,0,0-12.952,1.249" transform="translate(-104.604 -264.722)" fill="none"/>
    </clipPath>
    <clipPath id="clip-path-33">
      <path id="Trazado_918647" data-name="Trazado 918647" d="M161.545,345.451c-3.305,1.982-1.653,6.608-4.3,7.269-1.185.3-4.628-1.133-8.749-2.563-5.073-1.759-11.176-3.519-15.366-2.062-7.5,2.609-17.327,1.514-27.552-3.837l.078,6.184s7.424,5.341,14.747,5.044c6.719-.269,13.533-2.422,16.438-1.229,6.07,2.493,24.762,3.827,38-3.217,0,0,3.805-4.411,4.735-9.425-1.233.158-14.877,1.943-18.03,3.835" transform="translate(-105.581 -341.616)" fill="none"/>
    </clipPath>
    <clipPath id="clip-path-36">
      <path id="Trazado_918657" data-name="Trazado 918657" d="M59.116,267.485s-2.1,37.151-4.952,65.453C52.9,345.475,33.042,346.366,29.036,349.1a20.611,20.611,0,0,0-8.95,17.733c13.484,8.143,33.172,7.806,39.679,5.536,3.115-1.088,10.142,1.558,17.176,2.225,7.665.726,15.758-4.455,15.758-4.455l16.749-99.123c-10.613-3.19-26.263-3.842-37.288-3.842-7.629,0-13.044.312-13.044.312" transform="translate(-20.062 -267.173)" fill="none"/>
    </clipPath>
    <clipPath id="clip-path-37">
      <path id="Trazado_918659" data-name="Trazado 918659" d="M28.215,340.728l-7.764,7a18.535,18.535,0,0,0-.365,4.646c13.484,8.143,33.172,7.806,39.679,5.536,3.115-1.088,10.142,1.558,17.176,2.225,7.665.726,15.758-4.455,15.758-4.455l1.15-6.813-.285.129c-7.327,3.414-14.133,3.048-20.312,2.682a51.547,51.547,0,0,0-9.243-.024c-14.348,1.8-15.584-6.77-18.937-9.037-2.511-1.7-10.714-1.91-14.676-1.91-1.328,0-2.18.024-2.18.024" transform="translate(-20.062 -340.704)" fill="none"/>
    </clipPath>
    <clipPath id="clip-path-40">
      <path id="Trazado_918666" data-name="Trazado 918666" d="M118.853,94.557C83.768,97.7,72.936,111.182,73.909,122.213c.584,6.633-2.657,31.469,3.214,55.726a95.413,95.413,0,0,0-8.864,32.652c34.425,6.17,63.2,7.768,97.89,1.643,0,0,3-16.811-5.231-31.2,3.238-26.5,5.78-52.141,5.366-58.817-1.547-25.018-21.146-24.72-44.853-27.656Z" transform="translate(-68.259 -94.557)" fill="none"/>
    </clipPath>
    <clipPath id="clip-path-41">
      <rect id="Rectángulo_408651" data-name="Rectángulo 408651" width="48.037" height="52.962" fill="none"/>
    </clipPath>
    <clipPath id="clip-path-43">
      <path id="Trazado_918669" data-name="Trazado 918669" d="M102.142,79.055v32.769c7.4,3.089,14.961,2.963,22.669,0V79.055Z" transform="translate(-102.142 -79.055)" fill="none"/>
    </clipPath>
    <clipPath id="clip-path-45">
      <path id="Trazado_918674" data-name="Trazado 918674" d="M82.385,33.685l71.742,3.534s1.242-17.9-2.484-23.364S129.275,4.409,122.02,3.167a3.686,3.686,0,0,0-.616-.049c-8.168,0-36.209,21.984-39.019,30.567" transform="translate(-82.385 -3.118)" fill="none"/>
    </clipPath>
    <clipPath id="clip-path-46">
      <rect id="Rectángulo_408654" data-name="Rectángulo 408654" width="107.538" height="20.781" fill="none"/>
    </clipPath>
    <clipPath id="clip-path-48">
      <path id="Trazado_918677" data-name="Trazado 918677" d="M50.122,54.638c0,19.552,32.573,39.984,73.171,39.984s73.844-20.432,73.844-39.984-32.78-40.7-73.376-40.7-73.638,21.143-73.638,40.7" transform="translate(-50.122 -13.943)" fill="none"/>
    </clipPath>
    <clipPath id="clip-path-50">
      <path id="Trazado_918680" data-name="Trazado 918680" d="M79.973,51.34c-3.3,2.137,1.556,23.34,13.8,25.477s0-15.144,0-15.144c-.847-4.823-8.214-10.729-12.269-10.731a2.775,2.775,0,0,0-1.529.4" transform="translate(-78.964 -50.943)" fill="none"/>
    </clipPath>
    <clipPath id="clip-path-52">
      <path id="Trazado_918683" data-name="Trazado 918683" d="M132.948,61.674s-12.243,17.282,0,15.144,17.1-23.34,13.8-25.477a2.775,2.775,0,0,0-1.529-.4c-4.056,0-11.421,5.908-12.27,10.731" transform="translate(-127.507 -50.943)" fill="none"/>
    </clipPath>
    <clipPath id="clip-path-54">
      <path id="Trazado_918690" data-name="Trazado 918690" d="M87.6,66.64c1.166,14.293,10.6,39.769,28.776,39.769s28.587-25.945,28.775-40.275c.2-14.817-2.233-36.494-28.432-37.083-26.2.589-30.284,23.3-29.12,37.589" transform="translate(-87.425 -29.051)" fill="none"/>
    </clipPath>
    <clipPath id="clip-path-56">
      <path id="Trazado_918696" data-name="Trazado 918696" d="M103.45,77.806s2.079,8.508,10.06,7.559,9.3-10,9.3-10a64.623,64.623,0,0,1-19.361,2.438" transform="translate(-103.45 -75.368)" fill="none"/>
    </clipPath>
    <clipPath id="clip-path-57">
      <rect id="Rectángulo_408660" data-name="Rectángulo 408660" width="37.847" height="12.302" fill="none"/>
    </clipPath>
    <clipPath id="clip-path-59">
      <path id="Trazado_918700" data-name="Trazado 918700" d="M122.618,57.41c-7.247,1.7-7.332,9.59-7.332,9.59s13.268,7.151,17.78-6.738a11.314,11.314,0,0,0-7.782-3.168,11.621,11.621,0,0,0-2.666.316" transform="translate(-115.286 -57.094)" fill="none"/>
    </clipPath>
    <clipPath id="clip-path-60">
      <path id="Trazado_918702" data-name="Trazado 918702" d="M122.416,57.4a8.828,8.828,0,0,0-6.1,4.818c0,.078,0,.156,0,.235a5.542,5.542,0,1,0,7.436-5.289,11.924,11.924,0,0,0-1.332.237" transform="translate(-116.312 -57.16)" fill="none"/>
    </clipPath>
    <clipPath id="clip-path-63">
      <path id="Trazado_918710" data-name="Trazado 918710" d="M92.47,60.262C96.983,74.151,110.248,67,110.248,67s-.084-7.887-7.331-9.59a11.621,11.621,0,0,0-2.666-.316,11.31,11.31,0,0,0-7.781,3.168" transform="translate(-92.47 -57.094)" fill="none"/>
    </clipPath>
    <clipPath id="clip-path-64">
      <path id="Trazado_918712" data-name="Trazado 918712" d="M97.041,62.449a5.541,5.541,0,1,0,11.081,0c0-.079,0-.156,0-.233a8.826,8.826,0,0,0-6.1-4.819,11.992,11.992,0,0,0-1.333-.237,5.626,5.626,0,0,0-3.644,5.289" transform="translate(-97.041 -57.16)" fill="none"/>
    </clipPath>
    <clipPath id="clip-path-67">
      <path id="Trazado_918724" data-name="Trazado 918724" d="M37.135,151.08c2.916,6.316,23.987,26.369,31.368,18.331s25.105-36.794,26.263-47.969,9.4-23.744,9.4-23.744C58.5,102.921,34.22,144.763,37.135,151.08" transform="translate(-36.899 -97.698)" fill="none"/>
    </clipPath>
    <clipPath id="clip-path-69">
      <path id="Trazado_918732" data-name="Trazado 918732" d="M148.28,143.232,94.3,144.314S86.82,114.447,95.44,97.8c-2.964,0-7.52.608-9.285,1.592,0,0-23.651,27.1-11.832,76.889,0,0-7.285,41.245-10.247,50.531,4.827-4.9,25.845,17.066,50.283,20.029,8.14.987,16.883-1.522,24.924-4.033,11.616-3.626,21.771-7.252,26.543-.342,0,0,4.464-48.3-4.085-61.951,0,0,10.4-58.331-4.973-80.775l-7.634-2.545s1.4,27.381-.854,46.041" transform="translate(-64.076 -97.191)" fill="none"/>
    </clipPath>
    <clipPath id="clip-path-70">
      <rect id="Rectángulo_408665" data-name="Rectángulo 408665" width="147.948" height="38.748" fill="none"/>
    </clipPath>
    <clipPath id="clip-path-71">
      <rect id="Rectángulo_408666" data-name="Rectángulo 408666" width="147.947" height="119.915" fill="none"/>
    </clipPath>
    <clipPath id="clip-path-73">
      <path id="Trazado_918735" data-name="Trazado 918735" d="M35.784,142.183c-8.859,2.687-12.575,22.451-9.9,24.893,32.412,29.642,62.348,33.306,62.348,33.306s5.839-5.818-1.754-13.887c-17.519-18.617-28.724-45.1-45.59-45.1a17.5,17.5,0,0,0-5.1.785" transform="translate(-25.031 -141.398)" fill="none"/>
    </clipPath>
    <clipPath id="clip-path-74">
      <rect id="Rectángulo_408668" data-name="Rectángulo 408668" width="91.397" height="65.391" fill="none"/>
    </clipPath>
    <clipPath id="clip-path-76">
      <path id="Trazado_918738" data-name="Trazado 918738" d="M139.423,186.495c-7.594,8.069-1.756,13.887-1.756,13.887s29.108-7.429,61.52-37.072c2.671-2.442-.217-18.441-9.076-21.127a17.489,17.489,0,0,0-5.1-.785c-16.867,0-28.07,26.48-45.59,45.1" transform="translate(-135.524 -141.398)" fill="none"/>
    </clipPath>
    <clipPath id="clip-path-77">
      <rect id="Rectángulo_408670" data-name="Rectángulo 408670" width="91.396" height="65.391" fill="none"/>
    </clipPath>
    <clipPath id="clip-path-79">
      <path id="Trazado_918741" data-name="Trazado 918741" d="M71.589,165.709C61.4,169.4,48.253,187.015,52.947,190.047c23.979,15.487,45.519,11.727,45.519,11.727l-1.088-33.463-18.048,3.54s-2.975-6.338-6.642-6.339a3.227,3.227,0,0,0-1.1.2" transform="translate(-51.967 -165.513)" fill="none"/>
    </clipPath>
    <clipPath id="clip-path-81">
      <path id="Trazado_918747" data-name="Trazado 918747" d="M89.429,148.78a3.929,3.929,0,0,0-1.953,3.717l4.109,56.964c14.684,8.919,29.024,8.51,42.964,0l5.787-56.563a3.943,3.943,0,0,0-1.93-3.828c-6.07-3.493-15.463-5.167-24.765-5.167s-18.516,1.675-24.212,4.878" transform="translate(-87.465 -143.902)" fill="none"/>
    </clipPath>
    <clipPath id="clip-path-83">
      <path id="Trazado_918750" data-name="Trazado 918750" d="M80.987,170.554c-1.972,2.518-2.257,5.512,1.26,8.751a68,68,0,0,0,9.745-3.318c4.8-.132,11.715-.585,13.2-1.459.244-.144,2.58-3.759,1.13-5.675s-12.837-2.2-12.837-2.2c-4.29,0-12.5,3.9-12.5,3.9" transform="translate(-79.543 -166.655)" fill="none"/>
    </clipPath>
    <clipPath id="clip-path-85">
      <path id="Trazado_918753" data-name="Trazado 918753" d="M84.684,176.687c-3.315,2.245-4.137,4.964-2.409,8.166,0,0,22.156-3.54,22.4-3.736s2.208-4.129,0-5.7a7.057,7.057,0,0,0-3.286-.474c-5.79,0-16.707,1.746-16.707,1.746" transform="translate(-81.394 -174.941)" fill="none"/>
    </clipPath>
    <clipPath id="clip-path-87">
      <path id="Trazado_918756" data-name="Trazado 918756" d="M83.332,183.47c-2.245,3.138-2.1,6.016,1.17,8.553,0,0,17.313-1.982,19.128-2.766,1.532-.662,2.143-5.427-.315-6.718a9.854,9.854,0,0,0-3.577-.4c-5.882,0-16.406,1.334-16.406,1.334" transform="translate(-81.819 -182.136)" fill="none"/>
    </clipPath>
    <clipPath id="clip-path-89">
      <path id="Trazado_918759" data-name="Trazado 918759" d="M83.728,190.56l-.906,5.5c5.044,1.168,14.543,1.842,18.455-.584.263-.163,2.4-5.067-.048-6.127a7.683,7.683,0,0,0-2.561-.282,140.512,140.512,0,0,0-14.94,1.491" transform="translate(-82.822 -189.069)" fill="none"/>
    </clipPath>
    <clipPath id="clip-path-91">
      <path id="Trazado_918762" data-name="Trazado 918762" d="M145.23,171.852l-18.048-3.54-1.088,33.463s21.54,3.76,45.519-11.727c4.695-3.032-8.452-20.646-18.642-24.338a3.227,3.227,0,0,0-1.1-.2c-3.667,0-6.642,6.339-6.642,6.339" transform="translate(-126.094 -165.513)" fill="none"/>
    </clipPath>
    <clipPath id="clip-path-93">
      <path id="Trazado_918766" data-name="Trazado 918766" d="M115.074,168.853c-1.45,1.916.886,5.531,1.13,5.675,1.486.874,8.4,1.327,13.2,1.459a68,68,0,0,0,9.745,3.318c3.518-3.239,3.232-6.233,1.26-8.751,0,0-8.21-3.9-12.5-3.9,0,0-11.388.281-12.837,2.2" transform="translate(-114.602 -166.655)" fill="none"/>
    </clipPath>
    <clipPath id="clip-path-95">
      <path id="Trazado_918769" data-name="Trazado 918769" d="M116.239,175.415c-2.208,1.574-.247,5.506,0,5.7s22.4,3.736,22.4,3.736c1.728-3.2.906-5.921-2.409-8.166,0,0-10.917-1.746-16.707-1.746a7.057,7.057,0,0,0-3.286.474" transform="translate(-115.2 -174.941)" fill="none"/>
    </clipPath>
    <clipPath id="clip-path-97">
      <path id="Trazado_918772" data-name="Trazado 918772" d="M117.408,182.539c-2.458,1.291-1.846,6.056-.315,6.718,1.814.784,19.128,2.766,19.128,2.766,3.271-2.537,3.415-5.415,1.17-8.553,0,0-10.525-1.334-16.406-1.334a9.854,9.854,0,0,0-3.577.4" transform="translate(-115.753 -182.136)" fill="none"/>
    </clipPath>
    <clipPath id="clip-path-99">
      <path id="Trazado_918775" data-name="Trazado 918775" d="M118.906,189.351c-2.445,1.06-.312,5.964-.049,6.127,3.912,2.426,13.411,1.752,18.454.584l-.9-5.5a140.512,140.512,0,0,0-14.94-1.491,7.67,7.67,0,0,0-2.56.282" transform="translate(-117.744 -189.069)" fill="none"/>
    </clipPath>
  </defs>
  <g id="Grupo_1200571" data-name="Grupo 1200571" transform="translate(-622.146 -17059.334)">
    <g transform="matrix(1, 0, 0, 1, 622.15, 17059.33)" filter="url(#Rectángulo_408606)">
      <rect id="Rectángulo_408606-2" data-name="Rectángulo 408606" width="269.854" height="335.901" rx="8" transform="translate(3 2)" fill="#4d637e"/>
    </g>
    <g id="Grupo_1199146" data-name="Grupo 1199146" transform="translate(420.076 9614)">
      <g id="Enmascarar_grupo_1098823" data-name="Enmascarar grupo 1098823" transform="translate(0 1366)" clip-path="url(#clip-path)">
        <g id="Grupo_1199145" data-name="Grupo 1199145" transform="translate(124.015 5972.921)">
          <g id="Grupo_1199144" data-name="Grupo 1199144" clip-path="url(#clip-path-2)">
            <g id="Grupo_1199096" data-name="Grupo 1199096">
              <g id="Grupo_1199095" data-name="Grupo 1199095" clip-path="url(#clip-path-3)">
                <rect id="Rectángulo_408685" data-name="Rectángulo 408685" width="286.299" height="451.459" transform="translate(73.479 -0.001)" fill="url(#linear-gradient)"/>
              </g>
            </g>
            <g id="Grupo_1199104" data-name="Grupo 1199104">
              <g id="Grupo_1199103" data-name="Grupo 1199103" transform="translate(0 -113)" clip-path="url(#clip-path-4)">
                <g id="Grupo_1199099" data-name="Grupo 1199099" opacity="0.76">
                  <g id="Grupo_1199098" data-name="Grupo 1199098">
                    <g id="Grupo_1199097" data-name="Grupo 1199097" clip-path="url(#clip-path-5)">
                      <path id="Trazado_918781" data-name="Trazado 918781" d="M328.188,351.48c-26.83,2.591-32.326,13.027-32.918,14.347,1.256-3.018,22.14-55.249-36.447-53.988-37.131.8-39.63,27.254-36.063,47.481-2.739-3.175-5.663-4.755-7.755-3.819-2.7,1.209-3.2,6.239-1.515,12.147a29.242,29.242,0,0,0-17.485-3.4c-20.208,2.565-16.131,27.98-16.131,27.98s-2.412-2.929-20.956-3.652-20.7,6.088-20.7,6.088c134.573,14.02,233.2-23.369,233.2-23.369s-14.568-22.583-43.224-19.817m-99,30.1c.027-.055.051-.115.077-.172.207.491.325.753.325.753s-.138-.21-.4-.581" fill="#fff"/>
                    </g>
                  </g>
                </g>
                <g id="Grupo_1199102" data-name="Grupo 1199102" opacity="0.68">
                  <g id="Grupo_1199101" data-name="Grupo 1199101">
                    <g id="Grupo_1199100" data-name="Grupo 1199100" clip-path="url(#clip-path-6)">
                      <path id="Trazado_918782" data-name="Trazado 918782" d="M44.568,273.773c19.438,5.26,26.112,13.52,26.362,14.452-.5-2.119-8.541-38.674,34.524-30.03,27.294,5.479,25.4,22.914,19.915,35.513,2.47-1.686,4.851-2.317,6.263-1.432,1.822,1.142,1.478,4.46-.6,8.055a24.874,24.874,0,0,1,13.386.14c14.553,4.358,7.956,20.243,7.956,20.243s2.194-1.571,15.983.439,14.421,6.7,14.421,6.7c-101.308-8.92-175.1-38.147-175.1-38.147s16.123-21.553,36.884-15.935" fill="#fff"/>
                    </g>
                  </g>
                </g>
              </g>
            </g>
            <g id="Grupo_1199106" data-name="Grupo 1199106">
              <g id="Grupo_1199105" data-name="Grupo 1199105" clip-path="url(#clip-path-7)">
                <rect id="Rectángulo_408690" data-name="Rectángulo 408690" width="286.299" height="236.675" transform="translate(73.479 375.608)" fill="url(#linear-gradient-2)"/>
                <path id="Trazado_918783" data-name="Trazado 918783" d="M102.386,342.936c43.536,3.022,305.73-6.53,318.443,13.2S137.873,418.632,75.71,416.315s26.676-73.379,26.676-73.379" fill="#cfd159"/>
                <path id="Trazado_918784" data-name="Trazado 918784" d="M0,412.58c0,7.924,41.427,14.347,92.531,14.347s92.53-6.423,92.53-14.347-41.427-14.347-92.53-14.347S0,404.656,0,412.58" fill="#684c35"/>
              </g>
            </g>
            <g id="Grupo_1199111" data-name="Grupo 1199111">
              <g id="Grupo_1199110" data-name="Grupo 1199110" clip-path="url(#clip-path-8)">
                <g id="Grupo_1199109" data-name="Grupo 1199109" opacity="0.47">
                  <g id="Grupo_1199108" data-name="Grupo 1199108">
                    <g id="Grupo_1199107" data-name="Grupo 1199107" clip-path="url(#clip-path-9)">
                      <path id="Trazado_918786" data-name="Trazado 918786" d="M154.8,400.135c0,10.255-32.058,18.568-71.6,18.568s-71.6-8.313-71.6-18.568,32.059-18.568,71.6-18.568,71.6,8.313,71.6,18.568" fill="#c69d6b"/>
                    </g>
                  </g>
                </g>
              </g>
            </g>
            <g id="Grupo_1199113" data-name="Grupo 1199113">
              <g id="Grupo_1199112" data-name="Grupo 1199112" clip-path="url(#clip-path-7)">
                <path id="Trazado_918788" data-name="Trazado 918788" d="M82.707,443.731c0,14.615,35.4,26.462,79.069,26.462s79.07-11.847,79.07-26.462-35.4-26.461-79.07-26.461-79.069,11.847-79.069,26.461" fill="#684c35"/>
                <path id="Trazado_918789" data-name="Trazado 918789" d="M260.318,371.807s-66.2,53.458,159.37,129.828c246.77,83.545,296.288,95.294,296.288,95.294L178.319,634.3S61.4,388.8,230.48,368.824h59.459" fill="#7c5e41"/>
                <path id="Trazado_918790" data-name="Trazado 918790" d="M261.44,376.857s-53.76,48.408,171.816,124.777c246.77,83.545,336.855,155.2,336.855,155.2l-560.648-15.7S59.813,385.655,228.888,365.676s15.159,3.147,15.159,3.147h59.459" fill="#99714a"/>
              </g>
            </g>
            <g id="Grupo_1199115" data-name="Grupo 1199115">
              <g id="Grupo_1199114" data-name="Grupo 1199114" clip-path="url(#clip-path-11)">
                <path id="Trazado_918792" data-name="Trazado 918792" d="M146.743,477.891c0,108.065,102.177,195.669,228.218,195.669s228.218-87.6,228.218-195.669S501,282.222,374.961,282.222s-228.218,87.6-228.218,195.669" fill="#c69d6b"/>
              </g>
            </g>
            <g id="Grupo_1199123" data-name="Grupo 1199123">
              <g id="Grupo_1199122" data-name="Grupo 1199122" clip-path="url(#clip-path-12)">
                <path id="Trazado_918794" data-name="Trazado 918794" d="M431.365,495.248S301.382,532.254,205.63,525.315c0,0,28.679,20.353,24.516,31.918,0,0,285.87-32.843,316.4-29.142s-115.181-32.843-115.181-32.843" fill="#ddad7a"/>
                <path id="Trazado_918795" data-name="Trazado 918795" d="M146.044,422.384s81.914,13.057,134.511.637l30.24,19.872s-106.03,19.6-170.6,8.973h0Z" fill="#ddad7a"/>
                <path id="Trazado_918796" data-name="Trazado 918796" d="M396.068,480.06s-227.767,21.64-255.5,28.1h0l1.363-29.989s143.663-1.033,205.492-22.983Z" fill="#ddad7a"/>
                <path id="Trazado_918797" data-name="Trazado 918797" d="M157.651,403.37s89.865,3.508,108.426,6.452-3.789-16.611-3.789-16.611l-98.476-3.073Z" fill="#ddad7a"/>
                <g id="Grupo_1199118" data-name="Grupo 1199118" opacity="0.5">
                  <g id="Grupo_1199117" data-name="Grupo 1199117">
                    <g id="Grupo_1199116" data-name="Grupo 1199116" clip-path="url(#clip-path-13)">
                      <path id="Trazado_918798" data-name="Trazado 918798" d="M221.407,366.7c-29.174,32.989,15.829,216.083,77.527,235.228s-168.4,4.238-168.4-5S137.068,391.2,137.068,391.2s50.372-40.526,61.116-37.069S221.407,366.7,221.407,366.7" fill="#ddad7a"/>
                    </g>
                  </g>
                </g>
                <path id="Trazado_918799" data-name="Trazado 918799" d="M165.23,445.968c0,2.906,8.287,5.263,18.509,5.263s18.51-2.357,18.51-5.263-8.287-5.263-18.51-5.263-18.509,2.356-18.509,5.263" fill="#efc59e"/>
                <path id="Trazado_918800" data-name="Trazado 918800" d="M188.076,440.7c0,1.924,5.487,3.484,12.255,3.484s12.254-1.56,12.254-3.484-5.486-3.484-12.254-3.484-12.255,1.56-12.255,3.484" fill="#efc59e"/>
                <g id="Grupo_1199121" data-name="Grupo 1199121" opacity="0.3">
                  <g id="Grupo_1199120" data-name="Grupo 1199120">
                    <g id="Grupo_1199119" data-name="Grupo 1199119" clip-path="url(#clip-path-14)">
                      <path id="Trazado_918801" data-name="Trazado 918801" d="M252.207,503.972c0,10.569,30.135,19.138,67.309,19.138s67.309-8.569,67.309-19.138-30.135-19.138-67.309-19.138-67.309,8.568-67.309,19.138" fill="#f7dfcb"/>
                      <path id="Trazado_918802" data-name="Trazado 918802" d="M242.291,489.434c0,2.906,8.287,5.263,18.509,5.263s18.51-2.357,18.51-5.263-8.287-5.263-18.51-5.263-18.509,2.356-18.509,5.263" fill="#f7dfcb"/>
                      <path id="Trazado_918803" data-name="Trazado 918803" d="M253.781,379.514S192.48,486.13,588.172,601.931h0l5.373-67.617-320.41-165.49Z" fill="#f7dfcb"/>
                    </g>
                  </g>
                </g>
              </g>
            </g>
            <g id="Grupo_1199125" data-name="Grupo 1199125">
              <g id="Grupo_1199124" data-name="Grupo 1199124" clip-path="url(#clip-path-11)">
                <path id="Trazado_918805" data-name="Trazado 918805" d="M282.017,390.358s-66.082,2.978-106.868,0c0,0,62.117,5.023,106.2,6.475Z" fill="#99714a"/>
                <path id="Trazado_918806" data-name="Trazado 918806" d="M305.888,405.2s-66.082,2.978-106.868,0c0,0,62.117,5.023,106.2,6.475Z" fill="#99714a"/>
                <path id="Trazado_918807" data-name="Trazado 918807" d="M418.448,475.559s-106.441,6.475-160.084,18.688c0,0,115.333-13.666,159.416-12.213Z" fill="#99714a"/>
                <path id="Trazado_918808" data-name="Trazado 918808" d="M538.834,525.085S381.554,534.653,302.29,552.7c0,0,174.489-24.118,239.627-21.972Z" fill="#99714a"/>
                <path id="Trazado_918809" data-name="Trazado 918809" d="M138.4,421.4s86.317,12.538,147.077,0c0,0-43.574,17.917-145.523,3.413" fill="#99714a"/>
                <path id="Trazado_918810" data-name="Trazado 918810" d="M129.356,478.268s112.175.033,172.934-12.5c0,0-83.587,23.224-172.876,14.582" fill="#99714a"/>
                <path id="Trazado_918811" data-name="Trazado 918811" d="M143.446,523.256s162.369.048,250.315-18.1c0,0-120.989,33.617-250.231,21.107" fill="#99714a"/>
                <path id="Trazado_918812" data-name="Trazado 918812" d="M103.8,448.091s88.522,12.36,148.031,3.052c0,0-44.528,14.865-146.477.362" fill="#99714a"/>
              </g>
            </g>
            <g id="Grupo_1199133" data-name="Grupo 1199133">
              <g id="Grupo_1199132" data-name="Grupo 1199132" clip-path="url(#clip-path-2)">
                <path id="Trazado_918814" data-name="Trazado 918814" d="M307.14,409.959a19.562,19.562,0,0,1,10.1-9.239s-8.286-.259-11.391,5.692c0,0,1.835-10.3-5.939-11.747,0,0,2.317,7.866,1.282,11.23a7.364,7.364,0,0,0-6.986-5.434s5.111,7.884,5.534,10.165l1.014-3.379a7.088,7.088,0,0,1,1.689,2.112,23.611,23.611,0,0,1,1.267-3.548s1.351,3.819,1.52,4.148l-.169-.329,2.45-2.3Z" fill="#cfd159"/>
                <g id="Grupo_1199128" data-name="Grupo 1199128" opacity="0.67">
                  <g id="Grupo_1199127" data-name="Grupo 1199127">
                    <g id="Grupo_1199126" data-name="Grupo 1199126" clip-path="url(#clip-path-17)">
                      <path id="Trazado_918815" data-name="Trazado 918815" d="M95.323,499.115a19.567,19.567,0,0,0-10.1-9.239s8.286-.259,11.391,5.692c0,0-1.835-10.3,5.939-11.747,0,0-2.317,7.866-1.282,11.23a7.364,7.364,0,0,1,6.986-5.434s-5.112,7.884-5.534,10.165l-1.014-3.379a7.072,7.072,0,0,0-1.689,2.112,23.61,23.61,0,0,0-1.267-3.548s-1.352,3.819-1.521,4.148l.169-.329-2.449-2.3Z" fill="#cfd159"/>
                    </g>
                  </g>
                </g>
                <g id="Grupo_1199131" data-name="Grupo 1199131" opacity="0.67">
                  <g id="Grupo_1199130" data-name="Grupo 1199130">
                    <g id="Grupo_1199129" data-name="Grupo 1199129" clip-path="url(#clip-path-18)">
                      <path id="Trazado_918816" data-name="Trazado 918816" d="M98.334,552.151a19.562,19.562,0,0,0-10.1-9.239s8.286-.259,11.391,5.692c0,0-1.835-10.3,5.939-11.747,0,0-2.317,7.866-1.282,11.23a7.364,7.364,0,0,1,6.986-5.434s-5.112,7.884-5.534,10.165l-1.014-3.379a7.072,7.072,0,0,0-1.689,2.112A23.611,23.611,0,0,0,101.767,548s-1.352,3.819-1.521,4.148l.169-.329-2.449-2.3Z" fill="#cfd159"/>
                    </g>
                  </g>
                </g>
                <path id="Trazado_918817" data-name="Trazado 918817" d="M314.388,455.312c.128-4.871,6.921-7.049,8.716-5.127s-6.537,5.768-6.537,5.768,11.792-.769,10.254,3.2-10.9-1.281-10.9-1.281,5.64,5.9.9,7.69-3.46-7.306-3.46-7.306-6.153,4.613-9.229,1.474,7.562-3.525,7.562-3.525-10.662-5.364-6.1-6.719,8.792,5.822,8.792,5.822" fill="#f9d84b"/>
              </g>
            </g>
            <g id="Grupo_1199135" data-name="Grupo 1199135">
              <g id="Grupo_1199134" data-name="Grupo 1199134" clip-path="url(#clip-path-19)">
                <path id="Trazado_918818" data-name="Trazado 918818" d="M312.618,456.668c0,.572.823,1.035,1.839,1.035s1.838-.463,1.838-1.035-.823-1.035-1.838-1.035-1.839.463-1.839,1.035" fill="#ffeea4"/>
              </g>
            </g>
            <g id="Grupo_1199137" data-name="Grupo 1199137">
              <g id="Grupo_1199136" data-name="Grupo 1199136" clip-path="url(#clip-path-2)">
                <path id="Trazado_918820" data-name="Trazado 918820" d="M336.841,398.841c.144-5.473,7.777-7.921,9.794-5.761s-7.346,6.481-7.346,6.481,13.251-.864,11.522,3.6-12.242-1.441-12.242-1.441,6.337,6.626,1.009,8.642-3.889-8.209-3.889-8.209-6.913,5.184-10.37,1.655,8.5-3.96,8.5-3.96-11.98-6.027-6.854-7.55,9.879,6.542,9.879,6.542" fill="#f9d84b"/>
              </g>
            </g>
            <g id="Grupo_1199139" data-name="Grupo 1199139">
              <g id="Grupo_1199138" data-name="Grupo 1199138" clip-path="url(#clip-path-21)">
                <path id="Trazado_918821" data-name="Trazado 918821" d="M334.853,400.364c0,.642.925,1.163,2.066,1.163s2.066-.521,2.066-1.163-.925-1.163-2.066-1.163-2.066.521-2.066,1.163" fill="#ffeea4"/>
              </g>
            </g>
            <g id="Grupo_1199141" data-name="Grupo 1199141">
              <g id="Grupo_1199140" data-name="Grupo 1199140" clip-path="url(#clip-path-2)">
                <path id="Trazado_918823" data-name="Trazado 918823" d="M303.9,422.777c.128-4.871,6.921-7.049,8.716-5.127s-6.537,5.768-6.537,5.768,11.792-.769,10.254,3.2-10.9-1.281-10.9-1.281,5.64,5.9.9,7.69-3.46-7.306-3.46-7.306-6.153,4.613-9.229,1.474,7.562-3.525,7.562-3.525-10.662-5.364-6.1-6.719,8.792,5.822,8.792,5.822" fill="#f9d84b"/>
              </g>
            </g>
            <g id="Grupo_1199143" data-name="Grupo 1199143">
              <g id="Grupo_1199142" data-name="Grupo 1199142" clip-path="url(#clip-path-23)">
                <path id="Trazado_918824" data-name="Trazado 918824" d="M302.132,424.132c0,.572.823,1.035,1.839,1.035s1.838-.463,1.838-1.035-.823-1.035-1.838-1.035-1.839.463-1.839,1.035" fill="#ffeea4"/>
              </g>
            </g>
          </g>
        </g>
      </g>
      <g id="Grupo_1199094" data-name="Grupo 1199094">
        <g id="Enmascarar_grupo_1098822" data-name="Enmascarar grupo 1098822" clip-path="url(#clip-path-24)">
          <g id="Grupo_1199093" data-name="Grupo 1199093" transform="translate(212.334 7510.039)">
            <g id="Grupo_1199092" data-name="Grupo 1199092" clip-path="url(#clip-path-25)">
              <g id="Grupo_1198938" data-name="Grupo 1198938">
                <g id="Grupo_1198937" data-name="Grupo 1198937" clip-path="url(#clip-path-25)">
                  <g id="Grupo_1198936" data-name="Grupo 1198936" transform="translate(22.876 411.249)" opacity="0.68" style="mix-blend-mode: multiply;isolation: isolate">
                    <g id="Grupo_1198935" data-name="Grupo 1198935">
                      <g id="Grupo_1198934" data-name="Grupo 1198934" clip-path="url(#clip-path-27)">
                        <path id="Trazado_918630" data-name="Trazado 918630" d="M190.736,355.863c0,6.736-34.987,12.2-78.146,12.2s-93.473-11.371-93.473-18.107,50.314-6.286,93.473-6.286,78.146,5.46,78.146,12.2" transform="translate(-19.116 -343.66)" fill="#a5977c"/>
                      </g>
                    </g>
                  </g>
                  <path id="Trazado_918631" data-name="Trazado 918631" d="M126.64,96.472a83.192,83.192,0,0,1,27.66,8.306c28.83,14.346,45.113,41.631,42.846,46.543-2.915,6.316-25.754,25.9-33.133,17.865s-23.34-36.329-24.5-47.5S126.64,96.472,126.64,96.472" transform="translate(24.907 18.973)" fill="#b24038"/>
                </g>
              </g>
              <g id="Grupo_1198940" data-name="Grupo 1198940" transform="translate(151.547 115.445)">
                <g id="Grupo_1198939" data-name="Grupo 1198939" clip-path="url(#clip-path-28)">
                  <path id="Trazado_918632" data-name="Trazado 918632" d="M144.207,102.461c0,8.37,18.38,15.153,41.053,15.153s41.053-6.784,41.053-15.153-18.38-15.153-41.053-15.153-41.053,6.784-41.053,15.153" transform="translate(-123.185 -98.274)" fill="#c1504d"/>
                </g>
              </g>
              <g id="Grupo_1198942" data-name="Grupo 1198942">
                <g id="Grupo_1198941" data-name="Grupo 1198941" clip-path="url(#clip-path-25)">
                  <path id="Trazado_918634" data-name="Trazado 918634" d="M195.372,166.318c7.2-17.644-1.8-44.4-17.424-39.659A36.162,36.162,0,0,0,155,147.653c-1.175,2.588,10.794,13.252,10.794,13.252Z" transform="translate(30.469 24.802)" fill="#b24038"/>
                  <path id="Trazado_918635" data-name="Trazado 918635" d="M167.672,192.611c2.872,41.693-1.318,79.539-10.169,94.786l-38.089-5.584-.707-12.447-1.057-36.174-10.034,43.472-4.082,9.23-21.44,64.477H50.13l12.041-64.085-3.33-11.257c4.148-28.761,2.555-55.9,12.983-83.507Z" transform="translate(9.859 37.667)" fill="#43637a"/>
                </g>
              </g>
              <g id="Grupo_1198944" data-name="Grupo 1198944" transform="translate(59.99 229.188)">
                <g id="Grupo_1198943" data-name="Grupo 1198943" clip-path="url(#clip-path-30)">
                  <path id="Trazado_918636" data-name="Trazado 918636" d="M173.046,234.1c-2.867,10.466-12.249,26.268-22.379,26.268s-20.7-17.305-27.016-14.1S107.386,264.2,87.41,260.8s-20.5-20.1-20.5-20.1L22.805,259.523l11.476,45.466,135.377,8.885,16.507-40.2Z" transform="translate(-55.505 -183.146)" fill="#1c3542"/>
                </g>
              </g>
              <g id="Grupo_1198946" data-name="Grupo 1198946">
                <g id="Grupo_1198945" data-name="Grupo 1198945" clip-path="url(#clip-path-25)">
                  <path id="Trazado_918638" data-name="Trazado 918638" d="M156.532,269.52s-34.581-7.753-51.927-3.548l1.246,99.593s7.424,5.341,14.747,5.046c6.719-.272,13.533-2.423,16.438-1.23,6.068,2.493,24.762,3.827,38-3.217,0,0,10.259-11.891,1.2-18.819-3.667-2.8-25.294-3.724-27.434-15.523-4.146-22.871,7.733-62.3,7.733-62.3" transform="translate(20.573 52.064)" fill="#f9d84b"/>
                </g>
              </g>
              <g id="Grupo_1198948" data-name="Grupo 1198948" transform="translate(125.177 316.786)">
                <g id="Grupo_1198947" data-name="Grupo 1198947" clip-path="url(#clip-path-32)">
                  <path id="Trazado_918639" data-name="Trazado 918639" d="M138.755,320.206c-2.671,15.59-13.5,41.777,39.963,44.156,21.835.972-20.395,29.213-25.952,29.974-66.244,9.072-43.026-30.391-43.026-75.686s11.33-77.951,19.949-77.951c6.807,0,17.633-5.931,19.767,26.011.567,8.5-8.258,39.247-10.7,53.5" transform="translate(-104.37 -269.532)" fill="#e0b146"/>
                  <path id="Trazado_918640" data-name="Trazado 918640" d="M156.523,276.8s-39.5-6.669-51.986-3.42l.17,2.052s30.441-1.027,51.816,3.249Z" transform="translate(-104.617 -263.195)" fill="#f9d84b"/>
                  <path id="Trazado_918641" data-name="Trazado 918641" d="M156.655,277.99s-39.5-6.669-51.985-3.42l.17,2.052s30.44-1.027,51.815,3.249Z" transform="translate(-104.591 -262.961)" fill="#e0b146"/>
                  <path id="Trazado_918642" data-name="Trazado 918642" d="M155.791,284.779s-39.5-6.669-51.985-3.42l.17,2.052s30.439-1.027,51.815,3.249Z" transform="translate(-104.761 -261.625)" fill="#f9d84b"/>
                  <path id="Trazado_918643" data-name="Trazado 918643" d="M155.924,285.97s-39.5-6.669-51.985-3.42l.17,2.052s30.439-1.027,51.815,3.249Z" transform="translate(-104.735 -261.391)" fill="#e0b146"/>
                  <path id="Trazado_918644" data-name="Trazado 918644" d="M181.01,341.607s-14.816,1.864-18.12,3.846-1.651,6.608-4.294,7.269-16.519-7.269-24.117-4.625-17.584,1.484-27.953-4.048-7.4,12.977-7.4,12.977l47.9,15.849,38.322-8.59Z" transform="translate(-105.758 -249.601)" fill="#2c385b"/>
                </g>
              </g>
              <g id="Grupo_1198950" data-name="Grupo 1198950" transform="translate(126.346 408.803)">
                <g id="Grupo_1198949" data-name="Grupo 1198949" clip-path="url(#clip-path-33)">
                  <path id="Trazado_918646" data-name="Trazado 918646" d="M114.359,350.219c0,11.6,18.154,21,40.547,21s40.547-9.4,40.547-21-18.154-21-40.547-21-40.547,9.4-40.547,21" transform="translate(-103.855 -344.055)" fill="#19223a"/>
                </g>
              </g>
              <g id="Grupo_1198952" data-name="Grupo 1198952" transform="translate(125.177 316.786)">
                <g id="Grupo_1198951" data-name="Grupo 1198951" clip-path="url(#clip-path-32)">
                  <path id="Trazado_918648" data-name="Trazado 918648" d="M173.464,356.024c-1.63-5.192-29.56-7.337-34.508-16.306s1.632-55.8,13.622-73.108,23.438,58.164,23.438,58.164l10.513,24.744Z" transform="translate(-98.174 -264.858)" fill="#ffefae"/>
                </g>
              </g>
              <g id="Grupo_1198954" data-name="Grupo 1198954">
                <g id="Grupo_1198953" data-name="Grupo 1198953" clip-path="url(#clip-path-25)">
                  <path id="Trazado_918650" data-name="Trazado 918650" d="M59.116,267.485s32.375-1.868,50.333,3.53L92.7,370.138s-8.093,5.18-15.758,4.455c-7.034-.667-14.06-3.311-17.175-2.225-6.51,2.27-26.2,2.608-39.68-5.535a20.612,20.612,0,0,1,8.95-17.735c4.006-2.733,23.866-3.626,25.128-16.162,2.848-28.3,4.952-65.452,4.952-65.452" transform="translate(3.946 52.546)" fill="#f9d84b"/>
                </g>
              </g>
              <g id="Grupo_1198956" data-name="Grupo 1198956" transform="translate(24.007 319.719)">
                <g id="Grupo_1198955" data-name="Grupo 1198955" clip-path="url(#clip-path-36)">
                  <path id="Trazado_918651" data-name="Trazado 918651" d="M40.51,274.706s41.821-4.752,54.733-.633l-.3,2.143s-31.875-2.807-54.543.463Z" transform="translate(-16.061 -266.146)" fill="#f9d84b"/>
                  <path id="Trazado_918652" data-name="Trazado 918652" d="M40.3,275.949s41.821-4.752,54.733-.633l-.3,2.143s-31.875-2.807-54.543.463Z" transform="translate(-16.102 -265.902)" fill="#e0b146"/>
                  <path id="Trazado_918653" data-name="Trazado 918653" d="M40.824,283.12s41.821-4.752,54.733-.633l-.3,2.143s-31.875-2.807-54.543.463Z" transform="translate(-15.999 -264.492)" fill="#f9d84b"/>
                  <path id="Trazado_918654" data-name="Trazado 918654" d="M40.617,284.363s41.821-4.752,54.733-.633l-.3,2.143s-31.875-2.806-54.543.463Z" transform="translate(-16.04 -264.247)" fill="#e0b146"/>
                  <path id="Trazado_918655" data-name="Trazado 918655" d="M68.9,257.893c-4.774,20.616-3.985,80.756-14.613,90.881s-27.812,13.075-27.016,20.683S82.954,379.8,84.279,379.8s12.2-3.31,12.2-3.31l17.766-111.767Z" transform="translate(-18.649 -268.998)" fill="#e0b146"/>
                  <path id="Trazado_918656" data-name="Trazado 918656" d="M18.551,350.972l11.365-10.245s13.5-.381,16.856,1.887,4.589,10.832,18.937,9.037c8.386-1.049,18.363,2.557,29.555-2.658s7.022,14.033,7.022,14.033L51.13,376.932l-39.715-11.19,10.372-13.37" transform="translate(-21.762 -252.712)" fill="#2c385b"/>
                </g>
              </g>
              <g id="Grupo_1198958" data-name="Grupo 1198958" transform="translate(24.007 407.711)">
                <g id="Grupo_1198957" data-name="Grupo 1198957" clip-path="url(#clip-path-37)">
                  <path id="Trazado_918658" data-name="Trazado 918658" d="M89.742,354.834c0,12.952-12.528,23.45-27.981,23.45s-27.981-10.5-27.981-23.45,12.527-23.451,27.981-23.451,27.981,10.5,27.981,23.451" transform="translate(-17.363 -342.537)" fill="#19223a"/>
                </g>
              </g>
              <g id="Grupo_1198960" data-name="Grupo 1198960" transform="translate(24.007 319.719)">
                <g id="Grupo_1198959" data-name="Grupo 1198959" clip-path="url(#clip-path-36)">
                  <path id="Trazado_918660" data-name="Trazado 918660" d="M40.286,274.32s41.821-4.752,54.733-.633" transform="translate(-16.084 -266.222)" fill="#f9d84b"/>
                  <path id="Trazado_918661" data-name="Trazado 918661" d="M40.617,282.734s41.821-4.752,54.733-.633l-.3,2.143s-31.875-2.807-54.543.463Z" transform="translate(-16.04 -264.567)" fill="#f9d84b"/>
                </g>
              </g>
              <g id="Grupo_1198962" data-name="Grupo 1198962">
                <g id="Grupo_1198961" data-name="Grupo 1198961" clip-path="url(#clip-path-25)">
                  <path id="Trazado_918663" data-name="Trazado 918663" d="M68.258,210.591a95.445,95.445,0,0,1,8.864-32.652c-5.87-24.258-2.629-49.094-3.213-55.727-.973-11.03,9.859-24.507,44.943-27.655h2.581c23.7,2.937,43.3,2.64,44.851,27.655.413,6.676-2.128,32.32-5.366,58.818,8.234,14.394,5.229,31.206,5.229,31.206-34.69,6.122-63.464,4.526-97.89-1.644" transform="translate(13.425 18.597)" fill="#b24038"/>
                </g>
              </g>
              <g id="Grupo_1198967" data-name="Grupo 1198967" transform="translate(81.684 113.154)">
                <g id="Grupo_1198966" data-name="Grupo 1198966" clip-path="url(#clip-path-40)">
                  <g id="Grupo_1198965" data-name="Grupo 1198965" transform="translate(27.887 -13.034)" opacity="0.31" style="mix-blend-mode: multiply;isolation: isolate">
                    <g id="Grupo_1198964" data-name="Grupo 1198964">
                      <g id="Grupo_1198963" data-name="Grupo 1198963" clip-path="url(#clip-path-41)">
                        <path id="Trazado_918664" data-name="Trazado 918664" d="M139.6,110.146c0,14.626-10.753,26.481-24.018,26.481s-24.02-11.855-24.02-26.481,10.755-26.481,24.02-26.481S139.6,95.52,139.6,110.146" transform="translate(-91.563 -83.665)" fill="#606060"/>
                      </g>
                    </g>
                  </g>
                  <path id="Trazado_918665" data-name="Trazado 918665" d="M133.236,104.205c0,5.319-8.342,9.632-18.633,9.632s-18.633-4.313-18.633-9.632,8.343-9.632,18.633-9.632,18.633,4.313,18.633,9.632" transform="translate(-62.809 -94.554)" fill="#bf7362"/>
                </g>
              </g>
              <g id="Grupo_1198969" data-name="Grupo 1198969">
                <g id="Grupo_1198968" data-name="Grupo 1198968" clip-path="url(#clip-path-25)">
                  <path id="Trazado_918667" data-name="Trazado 918667" d="M124.811,111.824c-7.708,2.964-15.271,3.089-22.669,0V79.055h22.669Z" transform="translate(20.089 15.548)" fill="#bf7362"/>
                </g>
              </g>
              <g id="Grupo_1198971" data-name="Grupo 1198971" transform="translate(122.231 94.603)">
                <g id="Grupo_1198970" data-name="Grupo 1198970" clip-path="url(#clip-path-43)">
                  <path id="Trazado_918668" data-name="Trazado 918668" d="M97.8,89.108a16.531,16.531,0,1,0,16.531-16.531A16.531,16.531,0,0,0,97.8,89.108" transform="translate(-102.996 -80.329)" fill="#99584d"/>
                </g>
              </g>
              <g id="Grupo_1198973" data-name="Grupo 1198973">
                <g id="Grupo_1198972" data-name="Grupo 1198972" clip-path="url(#clip-path-25)">
                  <path id="Trazado_918670" data-name="Trazado 918670" d="M67.835,37.051S57.944,20.133,58.464,19.3s9.371,14.742,9.371,14.742Z" transform="translate(11.494 3.789)" fill="#fff"/>
                  <path id="Trazado_918671" data-name="Trazado 918671" d="M64.252,36.312s-1.73-18.626-.874-19.257S65.588,33.5,65.588,33.5Z" transform="translate(12.418 3.351)" fill="#fff"/>
                  <path id="Trazado_918672" data-name="Trazado 918672" d="M82.385,33.685C85.27,24.87,114.765,1.924,122.02,3.167s25.894,5.219,29.621,10.687,2.485,23.364,2.485,23.364Z" transform="translate(16.203 0.613)" fill="#e8c0a6"/>
                </g>
              </g>
              <g id="Grupo_1198978" data-name="Grupo 1198978" transform="translate(98.588 3.731)">
                <g id="Grupo_1198977" data-name="Grupo 1198977" clip-path="url(#clip-path-45)">
                  <g id="Grupo_1198976" data-name="Grupo 1198976" transform="translate(-32.805 -3.731)" opacity="0.33">
                    <g id="Grupo_1198975" data-name="Grupo 1198975">
                      <g id="Grupo_1198974" data-name="Grupo 1198974" clip-path="url(#clip-path-46)">
                        <path id="Trazado_918673" data-name="Trazado 918673" d="M54.971,10.391c0,5.739,24.073,10.391,53.769,10.391s53.769-4.651,53.769-10.391S138.435,0,108.74,0,54.971,4.653,54.971,10.391" transform="translate(-54.971)" fill="#fff"/>
                      </g>
                    </g>
                  </g>
                </g>
              </g>
              <g id="Grupo_1198980" data-name="Grupo 1198980">
                <g id="Grupo_1198979" data-name="Grupo 1198979" clip-path="url(#clip-path-25)">
                  <path id="Trazado_918675" data-name="Trazado 918675" d="M197.138,54.638c0,19.552-33.248,39.984-73.846,39.984S50.122,74.191,50.122,54.638s33.041-40.7,73.638-40.7,73.378,21.144,73.378,40.7" transform="translate(9.858 2.742)" fill="#d8a48b"/>
                </g>
              </g>
              <g id="Grupo_1198982" data-name="Grupo 1198982" transform="translate(59.98 16.685)">
                <g id="Grupo_1198981" data-name="Grupo 1198981" clip-path="url(#clip-path-48)">
                  <path id="Trazado_918676" data-name="Trazado 918676" d="M104.744,17.713S68.7,29.447,60.2,43.174C53.311,54.3,56.706,68.839,63.7,76.629S31.741,45.81,31.741,45.81l22-33.3S93.806,5.317,94.043,6.216s10.7,11.5,10.7,11.5" transform="translate(-53.737 -15.478)" fill="#fff"/>
                </g>
              </g>
              <g id="Grupo_1198984" data-name="Grupo 1198984">
                <g id="Grupo_1198983" data-name="Grupo 1198983" clip-path="url(#clip-path-25)">
                  <path id="Trazado_918678" data-name="Trazado 918678" d="M93.772,61.673C92.8,56.151,83.277,49.2,79.974,51.34s1.554,23.34,13.8,25.477,0-15.144,0-15.144" transform="translate(15.53 10.019)" fill="#bf7362"/>
                </g>
              </g>
              <g id="Grupo_1198986" data-name="Grupo 1198986" transform="translate(94.494 60.962)">
                <g id="Grupo_1198985" data-name="Grupo 1198985" clip-path="url(#clip-path-50)">
                  <path id="Trazado_918679" data-name="Trazado 918679" d="M89.076,57.058S82.507,52.3,81,53.346s5.077,20.081,9.968,20.436c0,0-3.762-7.173-4.8-10.047s2.581-1.247,3.291-1.927-.389-4.75-.389-4.75" transform="translate(-78.606 -50.5)" fill="#99584d"/>
                </g>
              </g>
              <g id="Grupo_1198988" data-name="Grupo 1198988">
                <g id="Grupo_1198987" data-name="Grupo 1198987" clip-path="url(#clip-path-25)">
                  <path id="Trazado_918681" data-name="Trazado 918681" d="M132.949,61.673c.972-5.523,10.495-12.472,13.8-10.333s-1.554,23.34-13.8,25.477,0-15.144,0-15.144" transform="translate(25.077 10.019)" fill="#bf7362"/>
                </g>
              </g>
              <g id="Grupo_1198990" data-name="Grupo 1198990" transform="translate(152.584 60.962)">
                <g id="Grupo_1198989" data-name="Grupo 1198989" clip-path="url(#clip-path-52)">
                  <path id="Trazado_918682" data-name="Trazado 918682" d="M135.991,57.058s6.57-4.76,8.074-3.712-5.077,20.081-9.967,20.436c0,0,3.761-7.173,4.8-10.047s-2.581-1.247-3.291-1.927.389-4.75.389-4.75" transform="translate(-126.211 -50.5)" fill="#99584d"/>
                </g>
              </g>
              <g id="Grupo_1198992" data-name="Grupo 1198992">
                <g id="Grupo_1198991" data-name="Grupo 1198991" clip-path="url(#clip-path-25)">
                  <path id="Trazado_918684" data-name="Trazado 918684" d="M116.72,29.051c26.2.589,28.627,22.265,28.432,37.081-.188,14.333-10.6,40.276-28.775,40.276S88.764,80.933,87.6,66.64s2.921-37,29.12-37.589" transform="translate(17.194 5.714)" fill="#ce906e"/>
                </g>
              </g>
              <g id="Grupo_1198994" data-name="Grupo 1198994" transform="translate(104.619 34.765)">
                <g id="Grupo_1198993" data-name="Grupo 1198993" clip-path="url(#clip-path-54)">
                  <path id="Trazado_918685" data-name="Trazado 918685" d="M120.446,71.6c.329,1.172,3.189,1.508,6.387.753s5.523-2.318,5.194-3.49-3.189-1.508-6.387-.753-5.523,2.318-5.194,3.49" transform="translate(-80.936 -21.449)" fill="#bf7362"/>
                  <path id="Trazado_918686" data-name="Trazado 918686" d="M105.9,71.6c-.329,1.172-3.189,1.508-6.387.753s-5.523-2.318-5.194-3.49,3.189-1.508,6.387-.753,5.523,2.318,5.194,3.49" transform="translate(-86.074 -21.449)" fill="#bf7362"/>
                  <path id="Trazado_918687" data-name="Trazado 918687" d="M115.637,71.441c0,1.3-1.535,2.351-3.431,2.351s-3.43-1.052-3.43-2.351,1.412-5.016,3.308-5.016,3.553,3.717,3.553,5.016" transform="translate(-83.225 -21.701)" fill="#d8a48b"/>
                  <path id="Trazado_918688" data-name="Trazado 918688" d="M133.482,58.426c0,4.74-4.111,10.428-9.121,10.428a8.6,8.6,0,1,1,0-17.165c5.01,0,9.121,2,9.121,6.737" transform="translate(-81.945 -24.599)" fill="#bf7362"/>
                  <path id="Trazado_918689" data-name="Trazado 918689" d="M109.7,59.913a8.839,8.839,0,0,1-9.074,8.583c-5.01,0-8.551-6.329-8.551-11.069s3.541-6.1,8.551-6.1a8.839,8.839,0,0,1,9.074,8.583" transform="translate(-86.511 -24.669)" fill="#bf7362"/>
                </g>
              </g>
              <g id="Grupo_1198996" data-name="Grupo 1198996">
                <g id="Grupo_1198995" data-name="Grupo 1198995" clip-path="url(#clip-path-25)">
                  <path id="Trazado_918691" data-name="Trazado 918691" d="M117.432,70.4a14.251,14.251,0,0,1-10.106,0s2.624,3.652,5.054,3.652,5.052-3.652,5.052-3.652" transform="translate(21.108 13.845)" fill="#bf7362"/>
                  <path id="Trazado_918692" data-name="Trazado 918692" d="M122.811,75.367a64.645,64.645,0,0,1-19.361,2.439s2.079,8.507,10.06,7.559,9.3-10,9.3-10" transform="translate(20.346 14.823)" fill="#dce7ea"/>
                </g>
              </g>
              <g id="Grupo_1199001" data-name="Grupo 1199001" transform="translate(123.796 90.191)">
                <g id="Grupo_1199000" data-name="Grupo 1199000" clip-path="url(#clip-path-56)">
                  <g id="Grupo_1198999" data-name="Grupo 1198999" transform="translate(-4.285 2.523)" opacity="0.51">
                    <g id="Grupo_1198998" data-name="Grupo 1198998">
                      <g id="Grupo_1198997" data-name="Grupo 1198997" clip-path="url(#clip-path-57)">
                        <path id="Trazado_918693" data-name="Trazado 918693" d="M99.869,83.627c0,3.4,8.472,6.151,18.923,6.151s18.923-2.754,18.923-6.151-8.472-6.151-18.923-6.151S99.869,80.23,99.869,83.627" transform="translate(-99.869 -77.476)" fill="#fff"/>
                      </g>
                    </g>
                  </g>
                  <path id="Trazado_918694" data-name="Trazado 918694" d="M103.025,76.058c.2.188,2.184,3.316,2.184,3.316l-1.675,3.941Z" transform="translate(-103.534 -75.232)" fill="#9b594e"/>
                  <path id="Trazado_918695" data-name="Trazado 918695" d="M120.378,73.8c-.2.188-2.3,4.194-2.3,4.194l1.79,3.062Z" transform="translate(-100.573 -75.677)" fill="#9b594e"/>
                </g>
              </g>
              <g id="Grupo_1199003" data-name="Grupo 1199003">
                <g id="Grupo_1199002" data-name="Grupo 1199002" clip-path="url(#clip-path-25)">
                  <path id="Trazado_918697" data-name="Trazado 918697" d="M133.066,60.262a11.278,11.278,0,0,0-10.448-2.852c-7.246,1.7-7.331,9.59-7.331,9.59s13.266,7.151,17.779-6.738" transform="translate(22.674 11.229)" fill="#dce7ea"/>
                </g>
              </g>
              <g id="Grupo_1199005" data-name="Grupo 1199005" transform="translate(137.96 68.323)">
                <g id="Grupo_1199004" data-name="Grupo 1199004" clip-path="url(#clip-path-59)">
                  <path id="Trazado_918698" data-name="Trazado 918698" d="M134.786,60.312s-15,.1-20.473,7.029S124.6,73.066,124.6,73.066l10.191-6.87Z" transform="translate(-115.704 -56.461)" fill="#fff"/>
                  <path id="Trazado_918699" data-name="Trazado 918699" d="M116.312,62.5a5.541,5.541,0,1,0,5.541-5.627,5.584,5.584,0,0,0-5.541,5.627" transform="translate(-115.084 -57.136)" fill="#5d6627"/>
                </g>
              </g>
              <g id="Grupo_1199007" data-name="Grupo 1199007" transform="translate(139.187 68.402)">
                <g id="Grupo_1199006" data-name="Grupo 1199006" clip-path="url(#clip-path-60)">
                  <path id="Trazado_918701" data-name="Trazado 918701" d="M111.539,65.424c0,2.092,4.4,3.787,9.818,3.787s9.819-1.7,9.819-3.787-4.4-3.787-9.819-3.787-9.818,1.7-9.818,3.787" transform="translate(-117.251 -56.279)" fill="#899945"/>
                </g>
              </g>
              <g id="Grupo_1199009" data-name="Grupo 1199009" transform="translate(137.96 68.323)">
                <g id="Grupo_1199008" data-name="Grupo 1199008" clip-path="url(#clip-path-59)">
                  <path id="Trazado_918703" data-name="Trazado 918703" d="M117.7,62.228a3.884,3.884,0,1,0,3.883-3.944,3.914,3.914,0,0,0-3.883,3.944" transform="translate(-114.812 -56.86)" fill="#21230b"/>
                </g>
              </g>
              <g id="Grupo_1199011" data-name="Grupo 1199011">
                <g id="Grupo_1199010" data-name="Grupo 1199010" clip-path="url(#clip-path-25)">
                  <path id="Trazado_918705" data-name="Trazado 918705" d="M134.29,61.077s-7.108-3.645-12.313-2.427a8.354,8.354,0,0,0-6.294,5.675s1.172-7.088,8.416-7.831a10.325,10.325,0,0,1,10.191,4.583" transform="translate(22.752 11.097)" fill="#21230b"/>
                  <path id="Trazado_918706" data-name="Trazado 918706" d="M121.069,62.821c0,.547,1.645.991,3.675.991s3.676-.444,3.676-.991-1.645-.99-3.676-.99-3.675.443-3.675.99" transform="translate(23.811 12.161)" fill="#fff"/>
                  <path id="Trazado_918707" data-name="Trazado 918707" d="M92.469,60.262a11.278,11.278,0,0,1,10.448-2.852c7.246,1.7,7.331,9.59,7.331,9.59s-13.266,7.151-17.779-6.738" transform="translate(18.186 11.229)" fill="#dce7ea"/>
                </g>
              </g>
              <g id="Grupo_1199013" data-name="Grupo 1199013" transform="translate(110.656 68.323)">
                <g id="Grupo_1199012" data-name="Grupo 1199012" clip-path="url(#clip-path-63)">
                  <path id="Trazado_918708" data-name="Trazado 918708" d="M91.382,60.312s15,.1,20.471,7.029-10.282,5.725-10.282,5.725L91.382,66.2Z" transform="translate(-92.684 -56.461)" fill="#fff"/>
                  <path id="Trazado_918709" data-name="Trazado 918709" d="M108.122,62.5a5.541,5.541,0,1,1-5.541-5.627,5.584,5.584,0,0,1,5.541,5.627" transform="translate(-91.571 -57.136)" fill="#5d6627"/>
                </g>
              </g>
              <g id="Grupo_1199015" data-name="Grupo 1199015" transform="translate(116.126 68.402)">
                <g id="Grupo_1199014" data-name="Grupo 1199014" clip-path="url(#clip-path-64)">
                  <path id="Trazado_918711" data-name="Trazado 918711" d="M114.3,65.424c0,2.092-4.4,3.787-9.818,3.787s-9.819-1.7-9.819-3.787,4.4-3.787,9.819-3.787,9.818,1.7,9.818,3.787" transform="translate(-97.508 -56.279)" fill="#899945"/>
                </g>
              </g>
              <g id="Grupo_1199017" data-name="Grupo 1199017" transform="translate(110.656 68.323)">
                <g id="Grupo_1199016" data-name="Grupo 1199016" clip-path="url(#clip-path-63)">
                  <path id="Trazado_918713" data-name="Trazado 918713" d="M106.193,62.228a3.885,3.885,0,1,1-3.884-3.944,3.915,3.915,0,0,1,3.884,3.944" transform="translate(-91.299 -56.86)" fill="#21230b"/>
                </g>
              </g>
              <g id="Grupo_1199019" data-name="Grupo 1199019">
                <g id="Grupo_1199018" data-name="Grupo 1199018" clip-path="url(#clip-path-25)">
                  <path id="Trazado_918715" data-name="Trazado 918715" d="M91.382,61.077s7.106-3.645,12.311-2.427a8.352,8.352,0,0,1,6.295,5.675s-1.17-7.088-8.416-7.831a10.322,10.322,0,0,0-10.19,4.583" transform="translate(17.972 11.097)" fill="#21230b"/>
                  <path id="Trazado_918716" data-name="Trazado 918716" d="M102.752,62.821c0,.547-1.645.991-3.675.991s-3.676-.444-3.676-.991,1.645-.99,3.676-.99,3.675.443,3.675.99" transform="translate(18.763 12.161)" fill="#fff"/>
                  <path id="Trazado_918717" data-name="Trazado 918717" d="M132.269,54.348s-10.081-2.239-16.749,2.107c0,0-2.071-1.285-1.209-2.684s12.211-4.164,17.957.577" transform="translate(22.441 10.166)" fill="#21230b"/>
                  <path id="Trazado_918718" data-name="Trazado 918718" d="M91.565,53.989s10.081-2.239,16.749,2.107c0,0,2.071-1.285,1.21-2.684s-12.212-4.164-17.958.577" transform="translate(18.008 10.095)" fill="#21230b"/>
                  <path id="Trazado_918719" data-name="Trazado 918719" d="M133.819,75.963S127.88,86.177,114.266,77.7c-4.216,4.275-8.73,6.945-18.286.69,0,0,6.488-4.845,18.6-5.256s19.235,2.831,19.235,2.831" transform="translate(18.877 14.376)" fill="#21230b"/>
                  <path id="Trazado_918720" data-name="Trazado 918720" d="M88.833,69.407s-.418-23.121,8.158-30.247c0,0,10.771,2.639,19.75,2.639S136.8,39.16,136.8,39.16s7.9,12.534,6.829,32.134l1.229-1.217s7.569-41.735-28.027-41.735S87.791,68.416,87.791,68.416Z" transform="translate(17.173 5.574)" fill="#21230b"/>
                  <path id="Trazado_918721" data-name="Trazado 918721" d="M95.4,37.877s8.684,7.458,20.244,8.224l-1.211-3.247s16.166,5.493,20.663,3.87l-6.034-7.616s5.833,3.665,8.794,4.267l-3.166-7.264-16.913-1.248Z" transform="translate(18.763 6.857)" fill="#21230b"/>
                  <path id="Trazado_918722" data-name="Trazado 918722" d="M104.162,97.7C58.5,102.92,34.22,144.763,37.135,151.079S61.123,177.448,68.5,169.41s25.105-36.793,26.265-47.969S104.162,97.7,104.162,97.7" transform="translate(7.257 19.215)" fill="#b24038"/>
                </g>
              </g>
              <g id="Grupo_1199021" data-name="Grupo 1199021" transform="translate(44.157 116.913)">
                <g id="Grupo_1199020" data-name="Grupo 1199020" clip-path="url(#clip-path-67)">
                  <path id="Trazado_918723" data-name="Trazado 918723" d="M20.255,103.232c0,8.37,18.38,15.153,41.053,15.153s41.053-6.784,41.053-15.153S83.981,88.079,61.308,88.079s-41.053,6.785-41.053,15.153" transform="translate(-40.173 -99.59)" fill="#c1504d"/>
                </g>
              </g>
              <g id="Grupo_1199023" data-name="Grupo 1199023">
                <g id="Grupo_1199022" data-name="Grupo 1199022" clip-path="url(#clip-path-25)">
                  <path id="Trazado_918725" data-name="Trazado 918725" d="M28.239,160.916c-3.72-15.378,5.5-38.984,21.127-34.248a36.172,36.172,0,0,1,22.949,21c1.174,2.588-10.794,13.252-10.794,13.252Z" transform="translate(5.392 24.791)" fill="#b24038"/>
                  <path id="Trazado_918726" data-name="Trazado 918726" d="M149.133,97.191s1.4,27.381-.854,46.041L94.3,144.314S86.819,114.446,95.44,97.8c-2.965,0-7.521.608-9.285,1.59,0,0-23.652,27.106-11.832,76.89,0,0-7.287,41.245-10.247,50.531,4.827-4.9,25.843,17.066,50.282,20.029,19.9,2.413,43.393-16.07,51.469-4.375,0,0,4.462-48.3-4.085-61.951,0,0,10.4-58.331-4.973-80.775Z" transform="translate(12.602 19.115)" fill="#1c3542"/>
                </g>
              </g>
              <g id="Grupo_1199031" data-name="Grupo 1199031" transform="translate(76.678 116.306)">
                <g id="Grupo_1199030" data-name="Grupo 1199030" clip-path="url(#clip-path-69)">
                  <path id="Trazado_918727" data-name="Trazado 918727" d="M209.741,111.629c0,13.106-36.607,23.731-81.765,23.731S46.21,124.735,46.21,111.629,82.817,87.9,127.976,87.9s81.765,10.625,81.765,23.731" transform="translate(-67.59 -99.019)" fill="#437791"/>
                  <path id="Trazado_918728" data-name="Trazado 918728" d="M94.447,136.911s-21.35,1.48-20.98,1.03,23.5-3.314,23.5-3.314Z" transform="translate(-62.23 -89.828)" fill="#1c3542"/>
                  <path id="Trazado_918729" data-name="Trazado 918729" d="M128.68,136.112s-1.212-1.493-.841-1.943,22.912,1.823,22.912,1.823H134.7" transform="translate(-51.549 -89.93)" fill="#1c3542"/>
                  <g id="Grupo_1199026" data-name="Grupo 1199026" transform="translate(-14.053 26.108)" opacity="0.74">
                    <g id="Grupo_1199025" data-name="Grupo 1199025">
                      <g id="Grupo_1199024" data-name="Grupo 1199024" clip-path="url(#clip-path-70)">
                        <path id="Trazado_918730" data-name="Trazado 918730" d="M200.28,138.382c0,10.7-33.119,19.374-73.974,19.374s-73.974-8.675-73.974-19.374,33.119-19.374,73.974-19.374,73.974,8.675,73.974,19.374" transform="translate(-52.332 -119.008)" fill="#43637a"/>
                      </g>
                    </g>
                  </g>
                  <g id="Grupo_1199029" data-name="Grupo 1199029" transform="translate(-17.175 42.259)" opacity="0.52">
                    <g id="Grupo_1199028" data-name="Grupo 1199028">
                      <g id="Grupo_1199027" data-name="Grupo 1199027" clip-path="url(#clip-path-71)">
                        <path id="Trazado_918731" data-name="Trazado 918731" d="M197.671,192.463c0,33.113-33.119,59.958-73.974,59.958s-73.974-26.845-73.974-59.958,33.119-59.958,73.974-59.958,73.974,26.845,73.974,59.958" transform="translate(-49.724 -132.505)" fill="#43637a"/>
                      </g>
                    </g>
                  </g>
                </g>
              </g>
              <g id="Grupo_1199033" data-name="Grupo 1199033">
                <g id="Grupo_1199032" data-name="Grupo 1199032" clip-path="url(#clip-path-25)">
                  <path id="Trazado_918733" data-name="Trazado 918733" d="M88.229,200.382s5.839-5.818-1.756-13.889c-19.226-20.43-30.844-50.326-50.689-44.31-8.859,2.687-12.575,22.451-9.9,24.893,32.412,29.643,62.348,33.306,62.348,33.306" transform="translate(4.923 27.809)" fill="#d8a48b"/>
                </g>
              </g>
              <g id="Grupo_1199038" data-name="Grupo 1199038" transform="translate(29.954 169.207)">
                <g id="Grupo_1199037" data-name="Grupo 1199037" clip-path="url(#clip-path-73)">
                  <g id="Grupo_1199036" data-name="Grupo 1199036" transform="translate(-29.954 4.27)" opacity="0.38">
                    <g id="Grupo_1199035" data-name="Grupo 1199035">
                      <g id="Grupo_1199034" data-name="Grupo 1199034" clip-path="url(#clip-path-74)">
                        <path id="Trazado_918734" data-name="Trazado 918734" d="M62.187,150.083S7.736,131.914.553,164.052s58.057,46.306,58.057,46.306L91.4,185.793l-4.452-21.4Z" transform="translate(0 -144.966)" fill="#bf7362"/>
                      </g>
                    </g>
                  </g>
                </g>
              </g>
              <g id="Grupo_1199040" data-name="Grupo 1199040">
                <g id="Grupo_1199039" data-name="Grupo 1199039" clip-path="url(#clip-path-25)">
                  <path id="Trazado_918736" data-name="Trazado 918736" d="M137.667,200.382s-5.839-5.818,1.756-13.889c19.226-20.43,30.844-50.326,50.689-44.31,8.859,2.687,11.745,18.685,9.076,21.127-32.412,29.643-61.52,37.072-61.52,37.072" transform="translate(26.654 27.809)" fill="#d8a48b"/>
                </g>
              </g>
              <g id="Grupo_1199045" data-name="Grupo 1199045" transform="translate(162.178 169.207)">
                <g id="Grupo_1199044" data-name="Grupo 1199044" clip-path="url(#clip-path-76)">
                  <g id="Grupo_1199043" data-name="Grupo 1199043" transform="translate(3.899 4.27)" opacity="0.38">
                    <g id="Grupo_1199042" data-name="Grupo 1199042">
                      <g id="Grupo_1199041" data-name="Grupo 1199041" clip-path="url(#clip-path-77)">
                        <path id="Trazado_918737" data-name="Trazado 918737" d="M167.992,150.083s54.451-18.169,61.635,13.969-58.055,46.306-58.055,46.306l-32.789-24.565,4.452-21.4Z" transform="translate(-138.782 -144.966)" fill="#bf7362"/>
                      </g>
                    </g>
                  </g>
                </g>
              </g>
              <g id="Grupo_1199047" data-name="Grupo 1199047">
                <g id="Grupo_1199046" data-name="Grupo 1199046" clip-path="url(#clip-path-25)">
                  <path id="Trazado_918739" data-name="Trazado 918739" d="M79.331,171.852s-3.589-7.648-7.741-6.143C61.4,169.4,48.252,187.015,52.948,190.047c23.978,15.486,45.518,11.726,45.518,11.726l-1.088-33.461Z" transform="translate(10.221 32.552)" fill="#e0b146"/>
                </g>
              </g>
              <g id="Grupo_1199049" data-name="Grupo 1199049" transform="translate(62.187 198.065)">
                <g id="Grupo_1199048" data-name="Grupo 1199048" clip-path="url(#clip-path-79)">
                  <path id="Trazado_918740" data-name="Trazado 918740" d="M104.228,193.929c-4.93,11.459-16.065,17.678-24.869,13.891s-11.945-16.15-7.014-27.61,16.065-17.678,24.869-13.891,11.944,16.15,7.014,27.61" transform="translate(-48.418 -165.573)" fill="#cc8240"/>
                </g>
              </g>
              <g id="Grupo_1199051" data-name="Grupo 1199051">
                <g id="Grupo_1199050" data-name="Grupo 1199050" clip-path="url(#clip-path-25)">
                  <path id="Trazado_918742" data-name="Trazado 918742" d="M78.438,172.148l13.734-12.438v9.745Z" transform="translate(15.427 31.411)" fill="#cc8240"/>
                  <path id="Trazado_918743" data-name="Trazado 918743" d="M91.585,209.46,87.475,152.5a3.926,3.926,0,0,1,1.954-3.716c11.391-6.4,36.837-6.7,48.977.288a3.948,3.948,0,0,1,1.93,3.831l-5.788,56.562c-13.939,8.51-28.28,8.918-42.963,0" transform="translate(17.202 28.302)" fill="#996b4d"/>
                </g>
              </g>
              <g id="Grupo_1199053" data-name="Grupo 1199053" transform="translate(104.667 172.204)">
                <g id="Grupo_1199052" data-name="Grupo 1199052" clip-path="url(#clip-path-81)">
                  <path id="Trazado_918744" data-name="Trazado 918744" d="M91.556,188.276c0,32.261,9.4,58.413,20.992,58.413s20.992-26.152,20.992-58.413-9.4-58.411-20.992-58.411-20.992,26.152-20.992,58.411" transform="translate(-86.661 -146.663)" fill="#724a33"/>
                  <path id="Trazado_918745" data-name="Trazado 918745" d="M147.839,151.157c0,4.967-14.251,8.994-31.83,8.994s-31.832-4.027-31.832-8.994,14.251-8.994,31.832-8.994,31.83,4.027,31.83,8.994" transform="translate(-88.112 -144.244)" fill="#996b4d"/>
                  <path id="Trazado_918746" data-name="Trazado 918746" d="M139.148,151.737c0,3.74-11.341,6.772-25.329,6.772s-25.33-3.032-25.33-6.772,11.341-6.772,25.33-6.772,25.329,3.032,25.329,6.772" transform="translate(-87.264 -143.693)" fill="#3a2216"/>
                </g>
              </g>
              <g id="Grupo_1199055" data-name="Grupo 1199055">
                <g id="Grupo_1199054" data-name="Grupo 1199054" clip-path="url(#clip-path-25)">
                  <path id="Trazado_918748" data-name="Trazado 918748" d="M80.987,170.554s8.209-3.9,12.5-3.9c0,0,11.388.282,12.837,2.2s-.887,5.531-1.13,5.675c-1.486.874-8.405,1.328-13.2,1.459a68.044,68.044,0,0,1-9.746,3.318c-3.517-3.238-3.232-6.233-1.26-8.751" transform="translate(15.644 32.777)" fill="#e0b146"/>
                </g>
              </g>
              <g id="Grupo_1199057" data-name="Grupo 1199057" transform="translate(95.187 199.432)">
                <g id="Grupo_1199056" data-name="Grupo 1199056" clip-path="url(#clip-path-83)">
                  <path id="Trazado_918749" data-name="Trazado 918749" d="M92.655,173.583c0,4.276-3.183,7.741-7.108,7.741s-7.108-3.466-7.108-7.741,3.182-7.741,7.108-7.741,7.108,3.466,7.108,7.741" transform="translate(-79.76 -166.815)" fill="#cc8240"/>
                </g>
              </g>
              <g id="Grupo_1199059" data-name="Grupo 1199059">
                <g id="Grupo_1199058" data-name="Grupo 1199058" clip-path="url(#clip-path-25)">
                  <path id="Trazado_918751" data-name="Trazado 918751" d="M84.684,176.687s17.787-2.844,19.993-1.272.245,5.506,0,5.7-22.4,3.736-22.4,3.736c-1.729-3.2-.908-5.921,2.408-8.166" transform="translate(16.008 34.406)" fill="#e0b146"/>
                </g>
              </g>
              <g id="Grupo_1199061" data-name="Grupo 1199061" transform="translate(97.402 209.347)">
                <g id="Grupo_1199060" data-name="Grupo 1199060" clip-path="url(#clip-path-85)">
                  <path id="Trazado_918752" data-name="Trazado 918752" d="M94.01,180.482c0,5.373-3.342,9.729-7.466,9.729s-7.465-4.356-7.465-9.729,3.342-9.729,7.465-9.729,7.466,4.356,7.466,9.729" transform="translate(-81.85 -175.765)" fill="#cc8240"/>
                </g>
              </g>
              <g id="Grupo_1199063" data-name="Grupo 1199063">
                <g id="Grupo_1199062" data-name="Grupo 1199062" clip-path="url(#clip-path-25)">
                  <path id="Trazado_918754" data-name="Trazado 918754" d="M83.332,183.47s17.525-2.221,19.983-.931,1.845,6.056.315,6.718c-1.814.784-19.129,2.766-19.129,2.766-3.271-2.537-3.414-5.415-1.169-8.553" transform="translate(16.092 35.821)" fill="#e0b146"/>
                </g>
              </g>
              <g id="Grupo_1199065" data-name="Grupo 1199065" transform="translate(97.911 217.957)">
                <g id="Grupo_1199064" data-name="Grupo 1199064" clip-path="url(#clip-path-87)">
                  <path id="Trazado_918755" data-name="Trazado 918755" d="M95.3,188.567a7.9,7.9,0,1,1-7.881-8.449,8.179,8.179,0,0,1,7.881,8.449" transform="translate(-82.267 -182.533)" fill="#cc8240"/>
                </g>
              </g>
              <g id="Grupo_1199067" data-name="Grupo 1199067">
                <g id="Grupo_1199066" data-name="Grupo 1199066" clip-path="url(#clip-path-25)">
                  <path id="Trazado_918757" data-name="Trazado 918757" d="M83.729,190.559s15.054-2.268,17.5-1.207.311,5.964.049,6.126c-3.913,2.427-13.412,1.754-18.455.586Z" transform="translate(16.289 37.185)" fill="#e0b146"/>
                </g>
              </g>
              <g id="Grupo_1199069" data-name="Grupo 1199069" transform="translate(99.111 226.254)">
                <g id="Grupo_1199068" data-name="Grupo 1199068" clip-path="url(#clip-path-89)">
                  <path id="Trazado_918758" data-name="Trazado 918758" d="M93.835,193.235c0,8.048-3.959,14.569-8.842,14.569s-8.842-6.522-8.842-14.569,3.959-14.568,8.842-14.568,8.842,6.523,8.842,14.568" transform="translate(-84.134 -191.115)" fill="#cc8240"/>
                </g>
              </g>
              <g id="Grupo_1199071" data-name="Grupo 1199071">
                <g id="Grupo_1199070" data-name="Grupo 1199070" clip-path="url(#clip-path-25)">
                  <path id="Trazado_918760" data-name="Trazado 918760" d="M145.23,171.852s3.589-7.648,7.742-6.143c10.19,3.692,23.336,21.306,18.641,24.338-23.978,15.486-45.518,11.726-45.518,11.726l1.087-33.461Z" transform="translate(24.8 32.552)" fill="#e0b146"/>
                </g>
              </g>
              <g id="Grupo_1199073" data-name="Grupo 1199073" transform="translate(150.893 198.065)">
                <g id="Grupo_1199072" data-name="Grupo 1199072" clip-path="url(#clip-path-91)">
                  <path id="Trazado_918761" data-name="Trazado 918761" d="M118.7,193.929c4.93,11.459,16.065,17.678,24.869,13.891s11.945-16.15,7.014-27.61-16.065-17.678-24.869-13.891-11.945,16.15-7.014,27.61" transform="translate(-128.008 -165.573)" fill="#cc8240"/>
                </g>
              </g>
              <g id="Grupo_1199075" data-name="Grupo 1199075">
                <g id="Grupo_1199074" data-name="Grupo 1199074" clip-path="url(#clip-path-25)">
                  <path id="Trazado_918763" data-name="Trazado 918763" d="M140.215,171.529l-9.576-8.672-.986,7.865Z" transform="translate(25.499 32.029)" fill="#cc8240"/>
                  <path id="Trazado_918764" data-name="Trazado 918764" d="M140.411,170.554s-8.212-3.9-12.5-3.9c0,0-11.388.282-12.837,2.2s.888,5.531,1.13,5.675c1.487.874,8.407,1.328,13.2,1.459a68.043,68.043,0,0,0,9.746,3.318c3.517-3.238,3.232-6.233,1.261-8.751" transform="translate(22.539 32.777)" fill="#e0b146"/>
                </g>
              </g>
              <g id="Grupo_1199077" data-name="Grupo 1199077" transform="translate(137.141 199.432)">
                <g id="Grupo_1199076" data-name="Grupo 1199076" clip-path="url(#clip-path-93)">
                  <path id="Trazado_918765" data-name="Trazado 918765" d="M126.6,173.583c0,4.276,3.182,7.741,7.108,7.741s7.108-3.466,7.108-7.741-3.182-7.741-7.108-7.741-7.108,3.466-7.108,7.741" transform="translate(-112.242 -166.815)" fill="#cc8240"/>
                </g>
              </g>
              <g id="Grupo_1199079" data-name="Grupo 1199079">
                <g id="Grupo_1199078" data-name="Grupo 1199078" clip-path="url(#clip-path-25)">
                  <path id="Trazado_918767" data-name="Trazado 918767" d="M136.231,176.687s-17.787-2.844-19.993-1.272-.245,5.506,0,5.7,22.4,3.736,22.4,3.736c1.729-3.2.908-5.921-2.408-8.166" transform="translate(22.657 34.406)" fill="#e0b146"/>
                </g>
              </g>
              <g id="Grupo_1199081" data-name="Grupo 1199081" transform="translate(137.857 209.347)">
                <g id="Grupo_1199080" data-name="Grupo 1199080" clip-path="url(#clip-path-95)">
                  <path id="Trazado_918768" data-name="Trazado 918768" d="M125.362,180.482c0,5.373,3.342,9.729,7.466,9.729s7.465-4.356,7.465-9.729-3.342-9.729-7.465-9.729-7.466,4.356-7.466,9.729" transform="translate(-113.202 -175.765)" fill="#cc8240"/>
                </g>
              </g>
              <g id="Grupo_1199083" data-name="Grupo 1199083">
                <g id="Grupo_1199082" data-name="Grupo 1199082" clip-path="url(#clip-path-25)">
                  <path id="Trazado_918770" data-name="Trazado 918770" d="M137.391,183.47s-17.525-2.221-19.983-.931-1.845,6.056-.315,6.718c1.814.784,19.128,2.766,19.128,2.766,3.272-2.537,3.415-5.415,1.17-8.553" transform="translate(22.766 35.821)" fill="#e0b146"/>
                </g>
              </g>
              <g id="Grupo_1199085" data-name="Grupo 1199085" transform="translate(138.518 217.957)">
                <g id="Grupo_1199084" data-name="Grupo 1199084" clip-path="url(#clip-path-97)">
                  <path id="Trazado_918771" data-name="Trazado 918771" d="M124.2,188.567a7.9,7.9,0,1,0,7.881-8.449,8.18,8.18,0,0,0-7.881,8.449" transform="translate(-114.09 -182.533)" fill="#cc8240"/>
                </g>
              </g>
              <g id="Grupo_1199087" data-name="Grupo 1199087">
                <g id="Grupo_1199086" data-name="Grupo 1199086" clip-path="url(#clip-path-25)">
                  <path id="Trazado_918773" data-name="Trazado 918773" d="M136.4,190.559s-15.054-2.268-17.5-1.207-.311,5.964-.049,6.126c3.913,2.427,13.412,1.754,18.455.586Z" transform="translate(23.157 37.185)" fill="#e0b146"/>
                </g>
              </g>
              <g id="Grupo_1199089" data-name="Grupo 1199089" transform="translate(140.902 226.254)">
                <g id="Grupo_1199088" data-name="Grupo 1199088" clip-path="url(#clip-path-99)">
                  <path id="Trazado_918774" data-name="Trazado 918774" d="M125.989,193.235c0,8.048,3.959,14.569,8.842,14.569s8.842-6.522,8.842-14.569-3.959-14.568-8.842-14.568-8.842,6.523-8.842,14.568" transform="translate(-116.123 -191.115)" fill="#cc8240"/>
                </g>
              </g>
              <g id="Grupo_1199091" data-name="Grupo 1199091">
                <g id="Grupo_1199090" data-name="Grupo 1199090" clip-path="url(#clip-path-25)">
                  <path id="Trazado_918776" data-name="Trazado 918776" d="M123.568,30.69s14.456,6.628,19.664,20.3l-4.021-1.633c.5,1.633.635,12.279-1.158,17.9,0,0-3.61-24.55-5.313-27.039s-9.171-9.53-9.171-9.53" transform="translate(24.303 6.036)" fill="#21230b"/>
                  <path id="Trazado_918777" data-name="Trazado 918777" d="M112.274,131.613a18.742,18.742,0,0,0-2.215,6.357,18.759,18.759,0,0,0-1.632-2.328,12.394,12.394,0,0,0-1.978-2.272,14.574,14.574,0,0,0-7.115-3.221,14.577,14.577,0,0,0,4.039,6.686,14.28,14.28,0,0,0,6.081,3.025c2.714,8.378,2.718,19.686,2.718,19.686,2.158-9.279.769-15.72-1.215-19.889a19.176,19.176,0,0,0,5.317-5.707,19.389,19.389,0,0,0,2.456-8.791,19.383,19.383,0,0,0-6.455,6.454" transform="translate(19.536 24.615)" fill="#899945"/>
                  <path id="Trazado_918778" data-name="Trazado 918778" d="M115.795,79.016s36.963,7.545,51.733,17.565a393.121,393.121,0,0,0-51.733-17.565" transform="translate(22.774 15.54)" fill="#f9e4c7"/>
                  <path id="Trazado_918779" data-name="Trazado 918779" d="M149.743,90.747A15.761,15.761,0,0,1,163.9,82.675Z" transform="translate(29.45 16.26)" fill="#f9e4c7"/>
                  <path id="Trazado_918780" data-name="Trazado 918780" d="M174.958,90.542a24.48,24.48,0,0,0-25.214-.718Z" transform="translate(29.451 17.043)" fill="#f9e4c7"/>
                </g>
              </g>
            </g>
          </g>
        </g>
      </g>
    </g>
  </g>
</svg>
