<svg xmlns="http://www.w3.org/2000/svg" xmlns:xlink="http://www.w3.org/1999/xlink" width="118" height="118" viewBox="0 0 118 118">
  <defs>
    <filter id="Trazado_896985" x="0" y="0" width="118" height="118" filterUnits="userSpaceOnUse">
      <feOffset dy="3" input="SourceAlpha"/>
      <feGaussianBlur stdDeviation="3" result="blur"/>
      <feFlood flood-opacity="0.161"/>
      <feComposite operator="in" in2="blur"/>
      <feComposite in="SourceGraphic"/>
    </filter>
  </defs>
  <g id="Grupo_1199966" data-name="Grupo 1199966" transform="translate(-899 -1650.93)">
    <g id="Grupo_1198731" data-name="Grupo 1198731" transform="translate(-0.051 -1972.07)">
      <g id="Grupo_1198654" data-name="Grupo 1198654">
        <g id="Grupo_1198136" data-name="Grupo 1198136" transform="translate(0 -705.475)">
          <g id="Grupo_1181848" data-name="Grupo 1181848" transform="translate(908.051 4334.475)">
            <g id="Grupo_1111318" data-name="Grupo 1111318" transform="translate(0)">
              <g id="Grupo_1109826" data-name="Grupo 1109826" transform="translate(0 0)">
                <g id="Grupo_1098742" data-name="Grupo 1098742">
                  <g transform="matrix(1, 0, 0, 1, -9, -6)" filter="url(#Trazado_896985)">
                    <g id="Trazado_896985-2" data-name="Trazado 896985" transform="translate(9 6)" fill="#9ad354" opacity="0.859">
                      <path d="M 49.99993515014648 99.5 C 43.31726837158203 99.5 36.83476257324219 98.19129943847656 30.73248100280762 95.61025238037109 C 24.83812141418457 93.11714172363281 19.54434776306152 89.54795837402344 14.99820137023926 85.00179290771484 C 10.45204162597656 80.45565032958984 6.88285493850708 75.16187286376953 4.389748573303223 69.26751708984375 C 1.808695197105408 63.16523742675781 0.5000017881393433 56.6827278137207 0.5000017881393433 50.00006103515625 C 0.5000017881393433 43.31726455688477 1.808695197105408 36.83475494384766 4.389748573303223 30.73247528076172 C 6.88285493850708 24.83811569213867 10.45204162597656 19.54434204101562 14.99820137023926 14.99819660186768 C 19.54434776306152 10.45203590393066 24.83812141418457 6.88284969329834 30.73248100280762 4.389742851257324 C 36.83476257324219 1.808689475059509 43.31726837158203 0.4999961853027344 49.99993515014648 0.4999961853027344 C 56.68260192871094 0.4999961853027344 63.16510772705078 1.808689475059509 69.26738739013672 4.389742851257324 C 75.16175079345703 6.88284969329834 80.45552062988281 10.45203590393066 85.00167083740234 14.99819660186768 C 89.54782867431641 19.54434204101562 93.11701202392578 24.83811569213867 95.61012268066406 30.73247528076172 C 98.19117736816406 36.83475494384766 99.49987030029297 43.31726455688477 99.49987030029297 49.99993133544922 C 99.49987030029297 56.6827278137207 98.19117736816406 63.16523742675781 95.61012268066406 69.26751708984375 C 93.11701202392578 75.16187286376953 89.54782867431641 80.45565032958984 85.00167083740234 85.00179290771484 C 80.45552062988281 89.54795837402344 75.16175079345703 93.11714172363281 69.26738739013672 95.61025238037109 C 63.16510772705078 98.19129943847656 56.68260192871094 99.5 49.99993515014648 99.5 Z" stroke="none"/>
                      <path d="M 49.99993515014648 0.9999923706054688 C 43.38454818725586 0.9999923706054688 36.96757507324219 2.29541015625 30.92725372314453 4.850250244140625 C 25.09249877929688 7.318145751953125 19.85213470458984 10.85135650634766 15.35174560546875 15.35174560546875 C 10.85136413574219 19.85212707519531 7.318145751953125 25.09249114990234 4.850257873535156 30.92724609375 C 2.295417785644531 36.96757125854492 1 43.38454437255859 1 50.00006103515625 C 1 56.61544799804688 2.295417785644531 63.03242111206055 4.850257873535156 69.07273864746094 C 7.318145751953125 74.90750122070312 10.85136413574219 80.14786529541016 15.35174560546875 84.64824676513672 C 19.85213470458984 89.14863586425781 25.09249877929688 92.68184661865234 30.92725372314453 95.14974212646484 C 36.96757507324219 97.70458221435547 43.38454818725586 99 49.99993515014648 99 C 56.61532211303711 99 63.03229522705078 97.70458221435547 69.07261657714844 95.14974212646484 C 74.90737915039062 92.68184661865234 80.14773559570312 89.14863586425781 84.64812469482422 84.64824676513672 C 89.14850616455078 80.14786529541016 92.68172454833984 74.90750122070312 95.14961242675781 69.07273864746094 C 97.70445251464844 63.03242111206055 98.99987030029297 56.61544799804688 98.99987030029297 49.99993133544922 C 98.99987030029297 43.38454437255859 97.70445251464844 36.96757125854492 95.14961242675781 30.92724609375 C 92.68172454833984 25.09249114990234 89.14850616455078 19.85212707519531 84.64812469482422 15.35174560546875 C 80.14773559570312 10.85135650634766 74.90737915039062 7.318145751953125 69.07261657714844 4.850250244140625 C 63.03229522705078 2.29541015625 56.61532211303711 0.9999923706054688 49.99993515014648 0.9999923706054688 M 49.99993515014648 -7.62939453125e-06 C 77.6141357421875 -7.62939453125e-06 99.99987030029297 22.38572692871094 99.99987030029297 49.99993133544922 L 99.99987030029297 50.00006103515625 C 99.99987030029297 77.61426544189453 77.6141357421875 100 49.99993515014648 100 C 22.38573455810547 100 0 77.61426544189453 0 50.00006103515625 L 0 49.99993133544922 C 0 22.38572692871094 22.38573455810547 -7.62939453125e-06 49.99993515014648 -7.62939453125e-06 Z" stroke="none" fill="#fff"/>
                    </g>
                  </g>
                  <g id="Rectángulo_400907" data-name="Rectángulo 400907" transform="translate(0)" fill="none" stroke="#fff" stroke-width="1">
                    <rect width="100" height="100" rx="50" stroke="none"/>
                    <rect x="0.5" y="0.5" width="99" height="99" rx="49.5" fill="none"/>
                  </g>
                </g>
              </g>
            </g>
          </g>
        </g>
      </g>
    </g>
    <g id="agent_1018648" transform="translate(855.624 1667.127)">
      <g id="Grupo_1199958" data-name="Grupo 1199958" transform="translate(86.824 1.083)">
        <path id="Trazado_1032133" data-name="Trazado 1032133" d="M188.822,7.5a17.606,17.606,0,0,0-17.593,17.579v6.17a2.873,2.873,0,0,1,1.943-.76h1.8V28.405a.723.723,0,0,1,.723-.723h10.974a6.9,6.9,0,0,0,5.5-2.756.724.724,0,0,1,1.16,0,6.9,6.9,0,0,0,5.5,2.756h3.121a.723.723,0,0,1,.723.723v2.084h1.8a2.873,2.873,0,0,1,1.942.76v-6.17A17.606,17.606,0,0,0,188.822,7.5Z" transform="translate(-171.229 -7.5)" fill="#b2762f"/>
        <path id="Trazado_1032134" data-name="Trazado 1032134" d="M175.019,225.837h-1.847a2.873,2.873,0,0,1-1.943-.76v6h5.323A13.728,13.728,0,0,1,175.019,225.837Z" transform="translate(-171.229 -193.647)" fill="#b2762f"/>
        <path id="Trazado_1032135" data-name="Trazado 1032135" d="M352.993,225.838a13.848,13.848,0,0,1-6.007,10.255l3.839,5.379h1.005a7.4,7.4,0,0,1,4.953,1.9V225.078a2.874,2.874,0,0,1-1.942.76Z" transform="translate(-321.597 -193.648)" fill="#b2762f"/>
      </g>
      <g id="Grupo_1199959" data-name="Grupo 1199959" transform="translate(86.824 1.083)" opacity="0.1">
        <path id="Trazado_1032136" data-name="Trazado 1032136" d="M173.172,225.837a2.873,2.873,0,0,1-1.943-.76v6h3.639v-5.239Z" transform="translate(-171.229 -193.647)"/>
        <path id="Trazado_1032137" data-name="Trazado 1032137" d="M173.171,30.489h1.7v-5.41A17.609,17.609,0,0,1,190.64,7.594a17.6,17.6,0,0,0-19.412,17.486v6.17A2.874,2.874,0,0,1,173.171,30.489Z" transform="translate(-171.228 -7.5)"/>
      </g>
      <path id="Trazado_1032138" data-name="Trazado 1032138" d="M186.813,338.562h-1.005l.51.715-4.84,2.893,3.1,3.617-3.34,5.389h1.147v.893a.435.435,0,0,0,.433.433h3.855a.435.435,0,0,0,.433-.433v-.893h3.455a.435.435,0,0,1,.433.433v6.8a.435.435,0,0,1-.433.433H178.93a.435.435,0,0,1-.433-.433V355.6l-4.167,6.723v.1l-.032-.051-.032.051v-.1l-4.723-7.62v4.682a.435.435,0,0,1-.433.433h-15v1.994a.721.721,0,0,0,.721.721h38.69a.721.721,0,0,0,.721-.721V345.988A7.434,7.434,0,0,0,186.813,338.562Z" transform="translate(-69.756 -289.656)" fill="#ef5050"/>
      <path id="Trazado_1032139" data-name="Trazado 1032139" d="M269.918,319.752a.435.435,0,0,1,.433-.433h2.308L276,313.93l-3.1-3.617,4.84-2.893-4.349-6.093a13.835,13.835,0,0,1-12.426,1.608v19.91l4.723,7.62v.1l.032-.051.032.051v-.1l4.167-6.723v-3.99Z" transform="translate(-161.178 -257.799)" fill="#c0272d"/>
      <path id="Trazado_1032140" data-name="Trazado 1032140" d="M272.026,369.161a15.837,15.837,0,0,1-3.544-.4l3.34,11.319c.112.381.3.381.409,0l3.34-11.319A15.838,15.838,0,0,1,272.026,369.161Z" transform="translate(-167.609 -315.489)" fill="#fff"/>
      <g id="Grupo_1199960" data-name="Grupo 1199960" transform="translate(100.873 53.268)" opacity="0.1">
        <path id="Trazado_1032141" data-name="Trazado 1032141" d="M272.026,369.161a15.837,15.837,0,0,1-3.544-.4l3.34,11.319c.112.381.3.381.409,0l1.607-5.445-1.615-5.473Z" transform="translate(-268.482 -368.757)"/>
      </g>
      <path id="Trazado_1032142" data-name="Trazado 1032142" d="M265.6,312.683a13.792,13.792,0,0,1-4.63-.8v4.455l1.086,3.679a15.764,15.764,0,0,0,7.089,0l1.353-4.587v-3.642A13.8,13.8,0,0,1,265.6,312.683Z" transform="translate(-161.18 -266.75)" fill="#ffb98a"/>
      <path id="Trazado_1032143" data-name="Trazado 1032143" d="M265.675,320.59,264.322,316V313.2a13.757,13.757,0,0,1-3.354-.739v4.454l1.086,3.679a15.731,15.731,0,0,0,5.355.3A15.986,15.986,0,0,1,265.675,320.59Z" transform="translate(-161.18 -267.322)" opacity="0.1"/>
      <g id="Grupo_1199961" data-name="Grupo 1199961" transform="translate(85.878 24.072)">
        <path id="Trazado_1032144" data-name="Trazado 1032144" d="M390.419,166.646h-1.8v8.018c0,.4-.018.793-.051,1.183h1.847a2.9,2.9,0,0,0,2.889-2.889v-3.422A2.9,2.9,0,0,0,390.419,166.646Z" transform="translate(-356.23 -166.646)" fill="#ffb98a"/>
        <path id="Trazado_1032145" data-name="Trazado 1032145" d="M169.361,174.664v-8.018h-1.8a2.9,2.9,0,0,0-2.889,2.889v3.422a2.9,2.9,0,0,0,2.889,2.889h1.847C169.379,175.456,169.361,175.062,169.361,174.664Z" transform="translate(-164.676 -166.646)" fill="#ffb98a"/>
      </g>
      <path id="Trazado_1032146" data-name="Trazado 1032146" d="M224.1,129.168h-3.121a6.9,6.9,0,0,1-5.5-2.756.724.724,0,0,0-1.16,0,6.9,6.9,0,0,1-5.5,2.756H197.835a.723.723,0,0,0-.723.723v10.1a13.748,13.748,0,0,0,1.584,6.421H205.9a.435.435,0,0,1,.433.433v6.192a13.856,13.856,0,0,0,18.484-13.047v-10.1A.723.723,0,0,0,224.1,129.168Z" transform="translate(-106.549 -107.903)" fill="#ffd5b3"/>
      <g id="Grupo_1199962" data-name="Grupo 1199962" transform="translate(90.563 21.265)" opacity="0.1">
        <path id="Trazado_1032147" data-name="Trazado 1032147" d="M202.321,164.457a13.744,13.744,0,0,1-1.587-6.421v-10.1a.723.723,0,0,1,.723-.723h-3.622a.723.723,0,0,0-.723.723v10.1a13.748,13.748,0,0,0,1.584,6.421Z" transform="translate(-197.112 -147.211)"/>
      </g>
      <path id="Trazado_1032148" data-name="Trazado 1032148" d="M267.423,250.994a4.325,4.325,0,0,1-4.322-4.318.635.635,0,0,1,.635-.635h7.373a.635.635,0,0,1,.635.635A4.325,4.325,0,0,1,267.423,250.994Z" transform="translate(-163.006 -210.5)" fill="#fb8276"/>
      <g id="Grupo_1199963" data-name="Grupo 1199963" transform="translate(100.095 35.541)" opacity="0.1">
        <path id="Trazado_1032149" data-name="Trazado 1032149" d="M266.722,246.675a.635.635,0,0,1,.635-.635h-3.621a.635.635,0,0,0-.635.635,4.32,4.32,0,0,0,6.132,3.92A4.323,4.323,0,0,1,266.722,246.675Z" transform="translate(-263.101 -246.04)"/>
      </g>
      <path id="Trazado_1032150" data-name="Trazado 1032150" d="M335.012,425.88h-3.455v.893a.435.435,0,0,1-.433.433H327.27a.435.435,0,0,1-.433-.433v-.893h-3.455a.435.435,0,0,0-.433.433v6.8a.435.435,0,0,0,.433.433h11.631a.435.435,0,0,0,.433-.433v-6.8A.435.435,0,0,0,335.012,425.88Z" transform="translate(-214.208 -364.36)" fill="#a2f9f9"/>
      <path id="Trazado_1032151" data-name="Trazado 1032151" d="M326.566,433.113v-6.8a.434.434,0,0,1,.269-.4v-.033H323.38a.435.435,0,0,0-.433.433v6.8a.435.435,0,0,0,.433.433H327A.434.434,0,0,1,326.566,433.113Z" transform="translate(-214.207 -364.36)" opacity="0.1"/>
      <g id="Grupo_1199964" data-name="Grupo 1199964" transform="translate(75.886 38.511)">
        <path id="Trazado_1032152" data-name="Trazado 1032152" d="M354.586,415.423a.435.435,0,0,1-.433.433H350.3a.435.435,0,0,1-.433-.433v-2.377a.435.435,0,0,1,.433-.433h3.855a.435.435,0,0,1,.433.433Z" transform="translate(-313.123 -391.521)" fill="#ffc502"/>
        <path id="Trazado_1032153" data-name="Trazado 1032153" d="M118.977,266.6H95.943a.435.435,0,0,0-.433.433v15.293h.583a1.023,1.023,0,0,1,1.023,1.022v1.15a1.022,1.022,0,1,0,0,2.045v1.15a1.022,1.022,0,1,0,0,2.044v1.15a1.022,1.022,0,1,0,0,2.044v1.15a1.022,1.022,0,0,1-1.023,1.022H95.51v2.713a.435.435,0,0,0,.433.433h23.034a.435.435,0,0,0,.433-.433V267.035A.435.435,0,0,0,118.977,266.6Z" transform="translate(-95.51 -266.602)" fill="#ffc502"/>
      </g>
      <path id="Trazado_1032154" data-name="Trazado 1032154" d="M99.126,297.818V267.035a.435.435,0,0,1,.433-.433H95.943a.435.435,0,0,0-.433.433v15.293h.583a1.023,1.023,0,0,1,1.023,1.022v1.15a1.022,1.022,0,1,0,0,2.045v1.15a1.022,1.022,0,1,0,0,2.044v1.15a1.022,1.022,0,1,0,0,2.044v1.15a1.022,1.022,0,0,1-1.023,1.022H95.51v2.713a.435.435,0,0,0,.433.433h3.616A.435.435,0,0,1,99.126,297.818Z" transform="translate(-19.624 -228.091)" opacity="0.1"/>
      <path id="Trazado_1032155" data-name="Trazado 1032155" d="M152.439,316.435a.724.724,0,0,1-.722.722h-9.038a.724.724,0,0,1-.722-.722v-6.518a1.647,1.647,0,0,1,.575-1.159l4.091-3.107a1.007,1.007,0,0,1,1.15,0l4.091,3.107a1.647,1.647,0,0,1,.575,1.159v6.518Z" transform="translate(-59.361 -261.344)" fill="#5dc647"/>
      <path id="Trazado_1032156" data-name="Trazado 1032156" d="M144.592,317.09v-6.518a1.647,1.647,0,0,1,.575-1.159l3.78-2.871-1.173-.891a1.007,1.007,0,0,0-1.15,0l-4.091,3.107a1.647,1.647,0,0,0-.575,1.159v6.518a.724.724,0,0,0,.722.722H144.6A.671.671,0,0,1,144.592,317.09Z" transform="translate(-59.361 -261.345)" opacity="0.1"/>
      <path id="Trazado_1032157" data-name="Trazado 1032157" d="M170.493,354.061H168.01a.293.293,0,0,0-.276.307v4.362h3.036v-4.362A.294.294,0,0,0,170.493,354.061Z" transform="translate(-81.415 -302.916)" fill="#fff"/>
      <g id="Grupo_1199965" data-name="Grupo 1199965" transform="translate(73.656 54.238)">
        <path id="Trazado_1032158" data-name="Trazado 1032158" d="M83.908,377.644a1.023,1.023,0,0,1-1.023,1.022h-1.79a1.023,1.023,0,0,1-1.023-1.022v-1.15a1.023,1.023,0,0,1,1.023-1.022h1.79a1.023,1.023,0,0,1,1.023,1.022Z" transform="translate(-80.072 -375.472)" fill="#ffd5b3"/>
        <path id="Trazado_1032159" data-name="Trazado 1032159" d="M83.908,399.756a1.023,1.023,0,0,1-1.023,1.022h-1.79a1.023,1.023,0,0,1-1.023-1.022v-1.15a1.023,1.023,0,0,1,1.023-1.022h1.79a1.023,1.023,0,0,1,1.023,1.022Z" transform="translate(-80.072 -394.39)" fill="#ffd5b3"/>
        <path id="Trazado_1032160" data-name="Trazado 1032160" d="M83.908,421.868a1.023,1.023,0,0,1-1.023,1.022h-1.79a1.023,1.023,0,0,1-1.023-1.022v-1.15a1.023,1.023,0,0,1,1.023-1.022h1.79a1.023,1.023,0,0,1,1.023,1.022Z" transform="translate(-80.072 -413.308)" fill="#ffd5b3"/>
        <path id="Trazado_1032161" data-name="Trazado 1032161" d="M83.908,443.982A1.022,1.022,0,0,1,82.885,445h-1.79a1.022,1.022,0,0,1-1.023-1.022v-1.15a1.022,1.022,0,0,1,1.023-1.022h1.79a1.022,1.022,0,0,1,1.023,1.022Z" transform="translate(-80.072 -432.227)" fill="#ffd5b3"/>
      </g>
      <path id="Trazado_1032162" data-name="Trazado 1032162" d="M238.481,175.891a1.083,1.083,0,0,0,1.083-1.083V172.1a1.083,1.083,0,1,0-2.167,0v2.712A1.083,1.083,0,0,0,238.481,175.891Z" transform="translate(-141.016 -146.309)"/>
      <path id="Trazado_1032163" data-name="Trazado 1032163" d="M334.721,175.891a1.083,1.083,0,0,0,1.083-1.083V172.1a1.083,1.083,0,1,0-2.167,0v2.712A1.083,1.083,0,0,0,334.721,175.891Z" transform="translate(-223.353 -146.309)"/>
      <path id="Trazado_1032164" data-name="Trazado 1032164" d="M280.171,185.338h1.345a1.083,1.083,0,0,0,0-2.167h-.983v-3.923a1.083,1.083,0,1,0-2.167,0v4.284A1.808,1.808,0,0,0,280.171,185.338Z" transform="translate(-176.065 -152.429)"/>
      <path id="Trazado_1032165" data-name="Trazado 1032165" d="M138.274,303.22l-6.373-4.841a2.094,2.094,0,0,0-2.461,0l-6.373,4.841a1.083,1.083,0,1,0,1.311,1.725l-.032.022v5.059a1.808,1.808,0,0,0,1.806,1.806h9.038A1.808,1.808,0,0,0,137,310.026v-5.061c-.01-.007-.022-.013-.032-.02a1.083,1.083,0,1,0,1.311-1.725Zm-7.169,6.445h-.869v-2.5h.869Zm2.167,0v-3.278a1.377,1.377,0,0,0-1.36-1.39h-2.483a1.376,1.376,0,0,0-1.359,1.39v3.278h-1.557v-6.341l4.158-3.158,4.157,3.158c0,.059,0,6.342,0,6.342Z" transform="translate(-42.834 -254.935)"/>
      <path id="Trazado_1032166" data-name="Trazado 1032166" d="M154.03,412.538H146.8a1.083,1.083,0,1,0,0,2.167h7.229a1.083,1.083,0,0,0,0-2.167Z" transform="translate(-62.578 -352.946)"/>
      <path id="Trazado_1032167" data-name="Trazado 1032167" d="M162.925,433.968H159.31a1.083,1.083,0,1,0,0,2.167h3.615a1.083,1.083,0,1,0,0-2.167Z" transform="translate(-73.281 -371.28)"/>
      <path id="Trazado_1032168" data-name="Trazado 1032168" d="M124.483,61.609a1.083,1.083,0,0,0,1.083-1.083V56.332a8.481,8.481,0,0,0-2.473-5.991V32.953a3.954,3.954,0,0,0,.947-2.57V26.962a3.954,3.954,0,0,0-.947-2.57V18.662a18.5,18.5,0,0,0-3.539-10.92A1.083,1.083,0,1,0,117.8,9.014a16.349,16.349,0,0,1,3.127,9.649v4.421a3.962,3.962,0,0,0-.859-.095h-.713v-1a1.809,1.809,0,0,0-1.807-1.807h-3.121a5.81,5.81,0,0,1-4.636-2.321,1.807,1.807,0,0,0-2.895,0,5.81,5.81,0,0,1-4.635,2.32H91.286a1.809,1.809,0,0,0-1.807,1.807v1h-.713a3.974,3.974,0,0,0-.859.095V18.662A16.5,16.5,0,0,1,113.631,4.981s.55.383.814.585a1.083,1.083,0,1,0,1.318-1.72c-.3-.229-.923-.664-.925-.665a18.671,18.671,0,0,0-29.1,15.481v5.73a3.954,3.954,0,0,0-.946,2.57v3.422a3.954,3.954,0,0,0,.946,2.57v4.475H76.32A1.518,1.518,0,0,0,74.8,38.945v14.21h-.124a2.108,2.108,0,0,0-2.106,2.106v1.15a2.091,2.091,0,0,0,.266,1.022,2.091,2.091,0,0,0-.266,1.022V59.6a2.09,2.09,0,0,0,.266,1.022,2.092,2.092,0,0,0-.266,1.022V62.8a2.09,2.09,0,0,0,.266,1.022,2.091,2.091,0,0,0-.266,1.022v1.15A2.108,2.108,0,0,0,74.679,68.1H74.8v1.63a1.518,1.518,0,0,0,1.517,1.517h6.948v.911a1.807,1.807,0,0,0,1.8,1.8h38.69a1.806,1.806,0,0,0,1.8-1.8V65.726a1.083,1.083,0,1,0-2.167,0v6.067h-17.01l1.445-2.331a1.518,1.518,0,0,0,1.34.807H120.8a1.518,1.518,0,0,0,1.517-1.517v-6.8a1.518,1.518,0,0,0-1.517-1.517h-2.371v-.4a1.518,1.518,0,0,0-1.517-1.517h-2.3l1.127-1.818a1.083,1.083,0,0,0-.1-1.276l-2.264-2.641,3.737-2.234a1.083,1.083,0,0,0,.453-.539,6.349,6.349,0,0,1,5.829,6.32v4.194A1.083,1.083,0,0,0,124.483,61.609ZM91.646,22.348h10.614a7.991,7.991,0,0,0,6.083-2.828,7.992,7.992,0,0,0,6.083,2.828h2.761V32.09A12.774,12.774,0,0,1,100.87,44.348v-4.1a5.4,5.4,0,0,0,8.952-4.071,1.72,1.72,0,0,0-1.719-1.718H100.73a1.72,1.72,0,0,0-1.719,1.718,5.39,5.39,0,0,0,.148,1.252H92.819a12.672,12.672,0,0,1-1.173-5.338V22.348Zm10.081,29.989-.857-2.905V46.586a14.9,14.9,0,0,0,7.361-.063v1.436a5.048,5.048,0,0,1-.16,1.108l-.965,3.27A14.733,14.733,0,0,1,101.728,52.337Zm4.7,2.3-2.012,6.819L102.4,54.633a16.588,16.588,0,0,0,4.024,0ZM101.21,36.625h6.414a3.239,3.239,0,0,1-6.414,0Zm-10.742.8h-2.56V34.261a3.974,3.974,0,0,0,.859.095h.886A14.8,14.8,0,0,0,90.468,37.428ZM86.961,26.962a1.808,1.808,0,0,1,1.806-1.806h.713v2.309h-.774a1.083,1.083,0,1,0,0,2.167h.774V32.09c0,.033,0,.066,0,.1h-.714a1.808,1.808,0,0,1-1.806-1.806V26.962h0ZM76.409,65.931H74.74V64.9h1.669Zm0-3.194H74.74V61.71h1.669Zm0-3.194H74.74V58.516h1.669Zm0-3.194H74.74V55.321h1.669Zm9.025,15.444v-.548h6.629a1.083,1.083,0,0,0,0-2.167H76.97V68.035a2.108,2.108,0,0,0,1.606-2.043v-1.15a2.09,2.09,0,0,0-.266-1.022,2.092,2.092,0,0,0,.266-1.022v-1.15a2.09,2.09,0,0,0-.266-1.022,2.091,2.091,0,0,0,.266-1.022v-1.15a2.091,2.091,0,0,0-.266-1.022,2.091,2.091,0,0,0,.266-1.022V55.26a2.108,2.108,0,0,0-1.606-2.043V39.595H98.7V69.078H97.192a1.083,1.083,0,0,0,0,2.167h2.162a1.518,1.518,0,0,0,1.517-1.517V68.85l1.824,2.943ZM118.42,62.6h1.735v5.5H109.824V62.6h1.735a1.518,1.518,0,0,0,1.5,1.327h3.855A1.518,1.518,0,0,0,118.42,62.6Zm-4.708-1.916h2.555v1.077h-2.555Zm-2.546-9.1a1.083,1.083,0,0,0-.267,1.635l2.584,3.015-2.6,4.2h-1.705a1.518,1.518,0,0,0-1.517,1.517v3.682l-3.115,5.026-3.671-5.923V57.089l2.3,7.805a1.259,1.259,0,0,0,2.487,0l4.489-15.214a7.064,7.064,0,0,0,.249-1.722V45.766a14.926,14.926,0,0,0,1.526-.778L115,49.294Zm9.761-2.827a8.455,8.455,0,0,0-3.869-.934h-.448l-2.9-4.06a14.929,14.929,0,0,0,5.469-9.407h.886a3.962,3.962,0,0,0,.859-.095v14.5Zm.946-18.374a1.808,1.808,0,0,1-1.806,1.806h-.714c0-.033,0-.066,0-.1V29.632h.774a1.083,1.083,0,0,0,0-2.167h-.774V25.156h.713a1.808,1.808,0,0,1,1.806,1.806Z"/>
    </g>
  </g>
</svg>
