<svg xmlns="http://www.w3.org/2000/svg" xmlns:xlink="http://www.w3.org/1999/xlink" width="118" height="118" viewBox="0 0 118 118">
  <defs>
    <filter id="Elipse_12115" x="0" y="0" width="118" height="118" filterUnits="userSpaceOnUse">
      <feOffset dy="3" input="SourceAlpha"/>
      <feGaussianBlur stdDeviation="3" result="blur"/>
      <feFlood flood-opacity="0.161"/>
      <feComposite operator="in" in2="blur"/>
      <feComposite in="SourceGraphic"/>
    </filter>
  </defs>
  <g id="Grupo_1200572" data-name="Grupo 1200572" transform="translate(-161.949 -17937.734)">
    <g id="Grupo_1198852" data-name="Grupo 1198852" transform="translate(-44 11852.27)">
      <g id="Grupo_1198119" data-name="Grupo 1198119" transform="translate(214.949 6091.466)">
        <g id="Grupo_1182334" data-name="Grupo 1182334">
          <g id="Grupo_1181949" data-name="Grupo 1181949">
            <g transform="matrix(1, 0, 0, 1, -9, -6)" filter="url(#Elipse_12115)">
              <g id="Elipse_12115-2" data-name="Elipse 12115" transform="translate(9 6)" fill="#f4f9ff" stroke="#4d637e" stroke-width="4">
                <circle cx="50" cy="50" r="50" stroke="none"/>
                <circle cx="50" cy="50" r="48" fill="none"/>
              </g>
            </g>
          </g>
        </g>
      </g>
    </g>
    <g id="colombia_4_" data-name="colombia (4)" transform="translate(123.19 17956.145)">
      <path id="Trazado_1036690" data-name="Trazado 1036690" d="M128.374,49l.3-.61a2.355,2.355,0,0,0,.128-1.8l-1.749-5.248a3.534,3.534,0,0,1-.113-1.809l.712-3.558a1.177,1.177,0,0,0-1.154-1.408h-7.351a1.178,1.178,0,0,1-.979-.524l-1.655-2.483a1.177,1.177,0,0,0-.979-.524H107.79a1.177,1.177,0,0,1-1.168-1.031l-.919-7.354a1.177,1.177,0,0,0-1.168-1.031h-.293a1.177,1.177,0,0,1-.98-1.83l5.172-7.757a7.066,7.066,0,0,1,1.639-1.732l.915-.687a1.177,1.177,0,0,0-.706-2.119h-2.069a3.531,3.531,0,0,0-2.5,1.034L101.9,12.351a3.531,3.531,0,0,1-2.5,1.034h-2.96a3.531,3.531,0,0,0-2.5,1.034l-1.807,1.807a2.354,2.354,0,0,0-.69,1.665v1.317a3.531,3.531,0,0,1-.774,2.206l-3.34,4.175a1.177,1.177,0,0,1-1.446.317l-.359-.179a1.177,1.177,0,0,0-1.619.616L82.424,30.06a2.355,2.355,0,0,0,.08,1.927l1.136,2.272a7.061,7.061,0,0,1,.746,3.159v7.3a5.886,5.886,0,0,1-.839,3.028l-1.8,3a14.119,14.119,0,0,1-2.124,2.721L78.37,54.714a1.177,1.177,0,0,0,.208,1.83L85.8,61.058a2.354,2.354,0,0,0,1.992.237l1.355-.452a5.623,5.623,0,0,1,3.313.18l8.861,7.181a2.353,2.353,0,0,1,.934,1.358L103,72.525a1.177,1.177,0,0,0,1.142.892h9.814a.642.642,0,0,1,.574.928l-1.364,2.727a1.177,1.177,0,0,0,.526,1.579l2.618,1.309a.857.857,0,0,0,1.228-.625l2.087-12.522a1.177,1.177,0,0,0-.182-.847l-1.717-2.576a1.177,1.177,0,0,1-.073-1.179l1.785-3.571a1.177,1.177,0,0,0,0-1.053l-.159-.318a1.177,1.177,0,0,1,.923-1.7l9.294-1.033L128.246,50.8a2.354,2.354,0,0,1,.128-1.8Z" transform="translate(-6.399 -6.399)" fill="#ffe07d"/>
      <path id="Trazado_1036691" data-name="Trazado 1036691" d="M117.374,76.546l.311-.622a4.173,4.173,0,0,0-3.732-6.039h-7.976l-.3-1.18a5.888,5.888,0,0,0-2.335-3.394l-10.08-7.056a5.886,5.886,0,0,0-5.236-.762l-.829.276L82.925,55.1a17.662,17.662,0,0,0,1.852-2.542l1.8-3a9.419,9.419,0,0,0,1.342-4.845v-7.3A10.648,10.648,0,0,0,86.8,32.68l-.9-1.8.527-1.317A4.685,4.685,0,0,0,90.092,27.8l3.34-4.175a7.089,7.089,0,0,0,1.548-4.412v-.83l1.463-1.463H99.4a7.016,7.016,0,0,0,4.994-2.068l3.817-3.817h1.045a7.051,7.051,0,0,1,.814-.726l.915-.687a1.177,1.177,0,0,0-.706-2.119h-2.069a3.531,3.531,0,0,0-2.5,1.034L101.9,12.351a3.531,3.531,0,0,1-2.5,1.034h-2.96a3.531,3.531,0,0,0-2.5,1.034l-1.807,1.807a2.354,2.354,0,0,0-.69,1.665v1.317a3.531,3.531,0,0,1-.774,2.206l-3.34,4.175a1.177,1.177,0,0,1-1.446.317l-.359-.179a1.177,1.177,0,0,0-1.619.616L82.425,30.06a2.355,2.355,0,0,0,.08,1.927l1.136,2.272a7.061,7.061,0,0,1,.746,3.159v7.3a5.886,5.886,0,0,1-.839,3.028l-1.8,3a14.119,14.119,0,0,1-2.124,2.721L78.37,54.714a1.177,1.177,0,0,0,.208,1.83L85.8,61.058a2.354,2.354,0,0,0,1.992.237l1.355-.452a2.354,2.354,0,0,1,2.094.3l10.08,7.056a2.353,2.353,0,0,1,.934,1.358L103,72.525a1.177,1.177,0,0,0,1.142.892h9.814a.642.642,0,0,1,.574.928l-1.364,2.727a1.177,1.177,0,0,0,.526,1.579l2.618,1.309a.857.857,0,0,0,1.228-.625l.417-2.5Z" transform="translate(-6.399 -6.399)" fill="#ffd064"/>
      <path id="Trazado_1036692" data-name="Trazado 1036692" d="M158.216,368.226H124.552l.943.589a2.355,2.355,0,0,0,1.992.237l1.355-.452a9.571,9.571,0,0,1,4.341.3l7.833,7.056a2.354,2.354,0,0,1,.934,1.358l.741,2.964a1.177,1.177,0,0,0,1.142.892h9.814a.641.641,0,0,1,.574.928l-1.364,2.727a1.177,1.177,0,0,0,.526,1.579L156,387.718a.857.857,0,0,0,1.228-.625l2.087-12.522a1.178,1.178,0,0,0-.182-.847l-1.717-2.576a1.177,1.177,0,0,1-.073-1.179Z" transform="translate(-46.094 -314.156)" fill="#e5646e"/>
      <path id="Trazado_1036693" data-name="Trazado 1036693" d="M157.069,384.3l.311-.622a4.173,4.173,0,0,0-3.732-6.039h-7.976l-.295-1.18a5.888,5.888,0,0,0-2.335-3.394l-6.917-4.842H124.552l.943.589a2.354,2.354,0,0,0,1.992.237l1.355-.452a2.354,2.354,0,0,1,2.094.3l10.08,7.056a2.353,2.353,0,0,1,.934,1.358l.741,2.964a1.177,1.177,0,0,0,1.142.892h9.814a.642.642,0,0,1,.574.928l-1.364,2.727a1.177,1.177,0,0,0,.526,1.579L156,387.718a.857.857,0,0,0,1.228-.625l.417-2.5Z" transform="translate(-46.094 -314.156)" fill="#db4655"/>
      <path id="Trazado_1036694" data-name="Trazado 1036694" d="M128.376,267.852l.3-.61a2.355,2.355,0,0,0,.128-1.8l-.476-1.429H84.357a5.877,5.877,0,0,1-.808,2.575l-1.8,3a14.123,14.123,0,0,1-2.124,2.72l-1.256,1.256a1.177,1.177,0,0,0,.208,1.83l7.222,4.514a2.355,2.355,0,0,0,1.992.237l1.355-.452a7.22,7.22,0,0,1,2.3-.375h27.073l.914-1.828a1.177,1.177,0,0,0,0-1.053l-.159-.318a1.177,1.177,0,0,1,.923-1.7l9.294-1.033-1.247-3.741A2.354,2.354,0,0,1,128.376,267.852Z" transform="translate(-6.401 -225.248)" fill="#6987eb"/>
      <path id="Trazado_1036695" data-name="Trazado 1036695" d="M86.576,268.407a9.446,9.446,0,0,0,1.309-4.327l0-.065H84.355a5.877,5.877,0,0,1-.808,2.575l-1.8,3a14.119,14.119,0,0,1-2.124,2.721l-1.255,1.255a1.177,1.177,0,0,0,.208,1.83l7.222,4.514a2.354,2.354,0,0,0,1.992.237l1.355-.452a7.221,7.221,0,0,1,2.3-.375h4.981l-1.377-.964L93.267,277.1a5.885,5.885,0,0,0-5.236-.762l-.829.277-4.276-2.673a17.663,17.663,0,0,0,1.852-2.542Z" transform="translate(-6.399 -225.247)" fill="#5069d2"/>
      <path id="Trazado_1036696" data-name="Trazado 1036696" d="M124.938,50.19l-2.046-6.137a1.245,1.245,0,0,1,.068-.957l.3-.61a3.432,3.432,0,0,0,.188-2.638L121.7,34.6a2.434,2.434,0,0,1-.077-1.245l.712-3.558a2.278,2.278,0,0,0-2.234-2.725h-7.351a.076.076,0,0,1-.063-.034l-1.655-2.483a2.274,2.274,0,0,0-1.9-1.015h-7.748a.076.076,0,0,1-.075-.066l-.919-7.354a2.282,2.282,0,0,0-2.261-2h-.293a.076.076,0,0,1-.063-.118l5.172-7.757a5.944,5.944,0,0,1,1.383-1.462l.916-.687a2.247,2.247,0,0,0,.795-2.543A2.248,2.248,0,0,0,103.883,0h-2.069a4.6,4.6,0,0,0-3.276,1.357L94.722,5.174A2.414,2.414,0,0,1,93,5.885h-2.96a4.6,4.6,0,0,0-3.276,1.357L84.96,9.05a3.433,3.433,0,0,0-1.012,2.443v1.317a2.439,2.439,0,0,1-.532,1.518L80.075,18.5a.077.077,0,0,1-.093.02l-.359-.179a2.278,2.278,0,0,0-3.134,1.192L75,23.252a3.458,3.458,0,0,0,.118,2.829l1.136,2.272a5.99,5.99,0,0,1,.629,2.666v7.3a4.785,4.785,0,0,1-.682,2.461l-1.8,3a13.036,13.036,0,0,1-1.959,2.508l-1.255,1.255a2.278,2.278,0,0,0,.4,3.543l7.222,4.513a3.445,3.445,0,0,0,2.924.348l1.392-.464a5.948,5.948,0,0,1,1.885-.306H110.34l-.075.149a2.283,2.283,0,0,0,.142,2.283l1.717,2.576a.076.076,0,0,1,.012.054L110.1,72.429l-2.322-1.161a.076.076,0,0,1-.034-.1l1.828-3.656a1.1,1.1,0,0,0-.985-1.594H97.739a.076.076,0,0,1-.074-.057L96.925,62.9A3.455,3.455,0,0,0,95.554,60.9l-5.162-3.614a1.1,1.1,0,1,0-1.263,1.8l5.162,3.614a1.254,1.254,0,0,1,.5.723l.741,2.963a2.275,2.275,0,0,0,2.21,1.726h9.07l-1.031,2.062a2.281,2.281,0,0,0,1.019,3.057l3.656,1.828a1.1,1.1,0,0,0,1.579-.8L114.309,60.6a2.27,2.27,0,0,0-.352-1.638l-1.717-2.576a.076.076,0,0,1,0-.076l1.785-3.571a2.288,2.288,0,0,0,0-2.038l-.159-.318a.076.076,0,0,1,.059-.109l8.409-.934.517,1.552a1.1,1.1,0,0,0,2.09-.7Zm-11.259-2.11a2.279,2.279,0,0,0-1.786,3.283l.159.318a.076.076,0,0,1,0,.068l-.61,1.219H85.018a8.146,8.146,0,0,0-2.582.419l-1.392.464a1.248,1.248,0,0,1-1.06-.126l-7.222-4.514a.076.076,0,0,1-.014-.118L74,47.839a15.237,15.237,0,0,0,2.29-2.933l1.8-3a6.986,6.986,0,0,0,.817-2.04h33.213a1.1,1.1,0,1,0,0-2.2H79.088V31.019a8.2,8.2,0,0,0-.862-3.651L77.091,25.1a1.254,1.254,0,0,1-.043-1.026l1.487-3.716a.076.076,0,0,1,.1-.04l.359.179a2.29,2.29,0,0,0,2.8-.615l3.34-4.175a4.65,4.65,0,0,0,1.015-2.894V11.493a1.244,1.244,0,0,1,.367-.886L88.326,8.8a2.414,2.414,0,0,1,1.718-.712H93a4.6,4.6,0,0,0,3.276-1.357L100.1,2.914a2.414,2.414,0,0,1,1.718-.712h2.068c.033,0,.055,0,.072.052s0,.065-.026.085l-.916.687a8.141,8.141,0,0,0-1.894,2l-5.172,7.757a2.278,2.278,0,0,0,1.9,3.542h.293a.076.076,0,0,1,.075.066l.919,7.355a2.282,2.282,0,0,0,2.261,2h7.748a.076.076,0,0,1,.063.034l1.655,2.483a2.274,2.274,0,0,0,1.9,1.015H120.1a.076.076,0,0,1,.074.091l-.712,3.558a4.64,4.64,0,0,0,.148,2.374l.79,2.369H116.83a1.1,1.1,0,0,0,0,2.2h4.307l.225.676a1.244,1.244,0,0,1-.068.957l-.3.61a3.433,3.433,0,0,0-.188,2.638l.816,2.449Z"/>
    </g>
  </g>
</svg>
