<svg xmlns="http://www.w3.org/2000/svg" xmlns:xlink="http://www.w3.org/1999/xlink" width="118" height="118" viewBox="0 0 118 118">
  <defs>
    <filter id="Trazado_896985" x="0" y="0" width="118" height="118" filterUnits="userSpaceOnUse">
      <feOffset dy="3" input="SourceAlpha"/>
      <feGaussianBlur stdDeviation="3" result="blur"/>
      <feFlood flood-opacity="0.161"/>
      <feComposite operator="in" in2="blur"/>
      <feComposite in="SourceGraphic"/>
    </filter>
  </defs>
  <g id="Grupo_1200574" data-name="Grupo 1200574" transform="translate(-320.236 -19191.059)">
    <g id="Grupo_1198855" data-name="Grupo 1198855" transform="translate(329.236 19197.059)">
      <g id="Grupo_1198134" data-name="Grupo 1198134">
        <g id="Grupo_1181844" data-name="Grupo 1181844" transform="translate(0)">
          <g id="Grupo_1111318" data-name="Grupo 1111318" transform="translate(0 0)">
            <g id="Grupo_1109826" data-name="Grupo 1109826" transform="translate(0)">
              <g id="Grupo_1098742" data-name="Grupo 1098742">
                <g transform="matrix(1, 0, 0, 1, -9, -6)" filter="url(#Trazado_896985)">
                  <g id="Trazado_896985-2" data-name="Trazado 896985" transform="translate(9 6)" fill="#9ad354" opacity="0.859">
                    <path d="M 49.99993133544922 99.49999237060547 C 43.31726455688477 99.49999237060547 36.83475875854492 98.19129943847656 30.73247718811035 95.61024475097656 C 24.8381175994873 93.11714172363281 19.54434394836426 89.54795074462891 14.99819755554199 85.00179290771484 C 10.4520378112793 80.45564270019531 6.882851123809814 75.16187286376953 4.389744758605957 69.26750946044922 C 1.808691382408142 63.16523361206055 0.4999980032444 56.68272399902344 0.4999980032444 50.00005722045898 C 0.4999980032444 43.3172607421875 1.808691382408142 36.83475112915039 4.389744758605957 30.73247146606445 C 6.882851123809814 24.83811187744141 10.4520378112793 19.54433822631836 14.99819755554199 14.99819278717041 C 19.54434394836426 10.45204544067383 24.8381175994873 6.882845878601074 30.73247718811035 4.389752388000488 C 36.83475875854492 1.808699011802673 43.31726455688477 0.5000057220458984 49.99993133544922 0.5000057220458984 C 56.68259811401367 0.5000057220458984 63.16510391235352 1.808699011802673 69.26738739013672 4.389752388000488 C 75.1617431640625 6.882845878601074 80.45552062988281 10.45204544067383 85.00166320800781 14.99819278717041 C 89.54782104492188 19.54433822631836 93.11701202392578 24.83811187744141 95.61011505126953 30.73247146606445 C 98.19116973876953 36.83475112915039 99.49986267089844 43.3172607421875 99.49986267089844 49.99992752075195 C 99.49986267089844 56.68272399902344 98.19116973876953 63.16523361206055 95.61011505126953 69.26750946044922 C 93.11701202392578 75.16187286376953 89.54782104492188 80.45564270019531 85.00166320800781 85.00179290771484 C 80.45552062988281 89.54795074462891 75.1617431640625 93.11714172363281 69.26738739013672 95.61024475097656 C 63.16510391235352 98.19129943847656 56.68259811401367 99.49999237060547 49.99993133544922 99.49999237060547 Z" stroke="none"/>
                    <path d="M 49.99993133544922 0.9999923706054688 C 43.38454437255859 0.9999923706054688 36.96757125854492 2.295402526855469 30.92725372314453 4.850242614746094 C 25.09249114990234 7.318138122558594 19.85213470458984 10.85134887695312 15.35174560546875 15.35173797607422 C 10.85135650634766 19.85212707519531 7.318145751953125 25.09248352050781 4.850250244140625 30.92724609375 C 2.29541015625 36.96756744384766 1 43.38454055786133 1 50.00005722045898 C 1 56.61544418334961 2.29541015625 63.03241729736328 4.850250244140625 69.07273864746094 C 7.318145751953125 74.90748596191406 10.85135650634766 80.14784240722656 15.35174560546875 84.64823150634766 C 19.85213470458984 89.14863586425781 25.09249114990234 92.68184661865234 30.92725372314453 95.14974212646484 C 36.96757125854492 97.70456695556641 43.38454437255859 98.99997711181641 49.99993133544922 98.99997711181641 C 56.61531829833984 98.99997711181641 63.03229141235352 97.70456695556641 69.07260894775391 95.14974212646484 C 74.90737152099609 92.68184661865234 80.14773559570312 89.14863586425781 84.64811706542969 84.64823150634766 C 89.14850616455078 80.14784240722656 92.68171691894531 74.90748596191406 95.14961242675781 69.07273864746094 C 97.70445251464844 63.03241729736328 98.99986267089844 56.61544418334961 98.99986267089844 49.99992752075195 C 98.99986267089844 43.38454055786133 97.70445251464844 36.96756744384766 95.14961242675781 30.92724609375 C 92.68171691894531 25.09248352050781 89.14850616455078 19.85212707519531 84.64811706542969 15.35173797607422 C 80.14773559570312 10.85134887695312 74.90737152099609 7.318138122558594 69.07260894775391 4.850242614746094 C 63.03229141235352 2.295402526855469 56.61531829833984 0.9999923706054688 49.99993133544922 0.9999923706054688 M 49.99993133544922 -7.62939453125e-06 C 77.6141357421875 -7.62939453125e-06 99.99986267089844 22.38572692871094 99.99986267089844 49.99992752075195 L 99.99986267089844 50.00005722045898 C 99.99986267089844 77.6142578125 77.6141357421875 99.99997711181641 49.99993133544922 99.99997711181641 C 22.38573455810547 99.99997711181641 0 77.6142578125 0 50.00005722045898 L 0 49.99992752075195 C 0 22.38572692871094 22.38573455810547 -7.62939453125e-06 49.99993133544922 -7.62939453125e-06 Z" stroke="none" fill="#fff"/>
                  </g>
                </g>
                <g id="Rectángulo_400907" data-name="Rectángulo 400907" transform="translate(0)" fill="none" stroke="#fff" stroke-width="1">
                  <rect width="100" height="100" rx="50" stroke="none"/>
                  <rect x="0.5" y="0.5" width="99" height="99" rx="49.5" fill="none"/>
                </g>
              </g>
            </g>
          </g>
        </g>
      </g>
    </g>
    <g id="Layer_x0020_1" transform="translate(225.021 19212.818)">
      <path id="Trazado_1036697" data-name="Trazado 1036697" d="M648,1039.926h16.488l-.321-1.926H648Z" transform="translate(-502.018 -996.358)" fill="#b45f4a" fill-rule="evenodd"/>
      <path id="Trazado_1036698" data-name="Trazado 1036698" d="M182.649,1104.457H149.432a.8.8,0,0,1,0-1.6h33.217A.8.8,0,0,1,182.649,1104.457Zm-41.923,0h-7.261a8.458,8.458,0,0,1-8.465-8.425v-2.568a8.466,8.466,0,0,1,8.465-8.465h49.184a.8.8,0,0,1,0,1.6H133.465a6.857,6.857,0,0,0-6.86,6.86v2.527a6.857,6.857,0,0,0,6.86,6.86h7.261A.8.8,0,1,1,140.726,1104.457Z" transform="translate(0 -1041.472)" fill-rule="evenodd"/>
      <path id="Trazado_1036699" data-name="Trazado 1036699" d="M1456.8,1104.217a.8.8,0,0,1-.8-.8v-17.852a.8.8,0,1,1,1.6,0v17.852A.8.8,0,0,1,1456.8,1104.217Z" transform="translate(-1277.604 -1041.232)" fill-rule="evenodd"/>
      <path id="Trazado_1036700" data-name="Trazado 1036700" d="M497.8,1391.2a.8.8,0,0,1-.8-.8V1378.8a.8.8,0,0,1,.8-.8h8.706a.8.8,0,0,1,.8.8V1390.4a.792.792,0,0,1-1.444.441l-3.691-5.175-3.691,5.175A.788.788,0,0,1,497.8,1391.2Zm4.373-7.743a.884.884,0,0,1,.642.361l2.888,4.052V1379.6h-7.1v8.264l2.888-4.052A.894.894,0,0,1,502.175,1383.456Z" transform="translate(-357.076 -1322.718)" fill-rule="evenodd"/>
      <path id="Trazado_1036701" data-name="Trazado 1036701" d="M780.5,310.519a.78.78,0,0,1-.8-.8V284.282a.8.8,0,0,1,1.6,0v25.435A.78.78,0,0,1,780.5,310.519Zm-4.694,0a.758.758,0,0,1-.8-.8V284.282a.8.8,0,0,1,1.6,0v25.435A.78.78,0,0,1,775.8,310.519Z" transform="translate(-623.924 -272.127)" fill-rule="evenodd"/>
      <path id="Trazado_1036702" data-name="Trazado 1036702" d="M701.44,922.135H689.846a.823.823,0,0,1-.762-1.083l1.2-3.49a.82.82,0,0,1,.762-.562h9.187c1.083,0,1.163,2.166,1.926,3.932A.814.814,0,0,1,701.44,922.135Zm-10.471-1.6h9.347l-.642-1.885h-8.064Z" transform="translate(-541.418 -880.212)" fill-rule="evenodd"/>
      <path id="Trazado_1036703" data-name="Trazado 1036703" d="M645.25,1009.814H628.8a.8.8,0,0,1-.8-.8V1005.8a.8.8,0,0,1,.8-.8H645.25a.8.8,0,0,1,.8.8v3.209A.8.8,0,0,1,645.25,1009.814Zm-15.646-1.6h14.843v-1.6H629.6Z" transform="translate(-482.821 -964.682)" fill-rule="evenodd"/>
      <path id="Trazado_1036704" data-name="Trazado 1036704" d="M1306.8,226.65a.8.8,0,0,1-.8-.8V210.562a.8.8,0,1,1,1.6,0v15.285A.8.8,0,0,1,1306.8,226.65Z" transform="translate(-1133.621 -201.335)" fill-rule="evenodd"/>
      <path id="Trazado_1036705" data-name="Trazado 1036705" d="M1092.741,602.032a9.725,9.725,0,0,1-9.749-9.708c0-.441-.04-1.324.8-1.324h17.852c.882,0,.8.883.8,1.324A9.716,9.716,0,0,1,1092.741,602.032Zm-8.1-9.428a8.109,8.109,0,0,0,16.208,0Z" transform="translate(-919.56 -567.291)" fill-rule="evenodd"/>
      <path id="Trazado_1036706" data-name="Trazado 1036706" d="M1101.744,226.41a.776.776,0,0,1-.682-.4l-8.224-14.121-8.224,14.121a.809.809,0,0,1-1.4-.8l8.906-15.285a.8.8,0,0,1,1.4,0l8.906,15.285A.8.8,0,0,1,1101.744,226.41Z" transform="translate(-919.657 -201.095)" fill-rule="evenodd"/>
      <path id="Trazado_1036707" data-name="Trazado 1036707" d="M1248.249,92.579c-4.333,0-4.333-6.579,0-6.579S1252.582,92.579,1248.249,92.579Zm0-4.975a1.685,1.685,0,0,0,0,3.37A1.685,1.685,0,0,0,1248.249,87.6Z" transform="translate(-1075.068 -82.55)" fill-rule="evenodd"/>
      <path id="Trazado_1036708" data-name="Trazado 1036708" d="M361.8,226.65a.8.8,0,0,1-.8-.8V210.562a.8.8,0,1,1,1.6,0v15.285A.8.8,0,0,1,361.8,226.65Z" transform="translate(-226.532 -201.335)" fill-rule="evenodd"/>
      <path id="Trazado_1036709" data-name="Trazado 1036709" d="M148.663,602.032a9.691,9.691,0,0,1-9.708-9.708c0-.441-.08-1.324.8-1.324h17.812c.883,0,.8.883.8,1.324A9.691,9.691,0,0,1,148.663,602.032Zm-8.1-9.428a8.109,8.109,0,0,0,16.207,0Z" transform="translate(-13.393 -567.291)" fill-rule="evenodd"/>
      <path id="Trazado_1036710" data-name="Trazado 1036710" d="M156.8,226.41a.827.827,0,0,1-.682-.4L147.9,211.887l-8.224,14.121a.809.809,0,0,1-1.4-.8l8.946-15.285a.763.763,0,0,1,1.364,0l8.946,15.285A.833.833,0,0,1,156.8,226.41Z" transform="translate(-12.625 -201.095)" fill-rule="evenodd"/>
      <path id="Trazado_1036711" data-name="Trazado 1036711" d="M303.249,92.579c-4.333,0-4.333-6.579,0-6.579C307.542,86,307.542,92.579,303.249,92.579Zm0-4.975a1.685,1.685,0,0,0,0,3.37A1.685,1.685,0,0,0,303.249,87.6Z" transform="translate(-167.979 -82.55)" fill-rule="evenodd"/>
      <path id="Trazado_1036712" data-name="Trazado 1036712" d="M447.3,118.333H436.189a.8.8,0,0,1,0-1.6H447.3A.8.8,0,0,1,447.3,118.333Zm-22.626,0H413.562a.8.8,0,1,1,0-1.6h11.113A.8.8,0,0,1,424.675,118.333ZM447.3,115.6H436.189a.8.8,0,0,1,0-1.6H447.3A.8.8,0,0,1,447.3,115.6Zm-22.626,0H413.562a.8.8,0,1,1,0-1.6h11.113A.8.8,0,0,1,424.675,115.6Z" transform="translate(-276.206 -109.427)" fill-rule="evenodd"/>
      <path id="Trazado_1036713" data-name="Trazado 1036713" d="M692.7,13.439a6.72,6.72,0,1,1,6.74-6.7A6.711,6.711,0,0,1,692.7,13.439Zm0-11.835a5.115,5.115,0,1,0,5.135,5.135A5.111,5.111,0,0,0,692.7,1.6Z" transform="translate(-538.494)" fill-rule="evenodd"/>
      <path id="Trazado_1036714" data-name="Trazado 1036714" d="M769.49,86.1c-4.654,0-4.654-7.1,0-7.1C774.184,79,774.184,86.1,769.49,86.1Zm0-5.5a1.946,1.946,0,0,0,0,3.891A1.946,1.946,0,0,0,769.49,80.6Z" transform="translate(-615.285 -75.831)" fill-rule="evenodd"/>
      <path id="Trazado_1036715" data-name="Trazado 1036715" d="M374.632,1379.6H337.282a.8.8,0,0,1,0-1.6h37.349A.8.8,0,0,1,374.632,1379.6Z" transform="translate(-203.015 -1322.718)" fill-rule="evenodd"/>
      <path id="Trazado_1036716" data-name="Trazado 1036716" d="M374.632,1238.6H337.282a.8.8,0,0,1,0-1.6h37.349A.8.8,0,0,1,374.632,1238.6Z" transform="translate(-203.015 -1187.375)" fill-rule="evenodd"/>
      <path id="Trazado_1036717" data-name="Trazado 1036717" d="M172.662,1129.493h37.349a.8.8,0,0,1,0,1.6H172.662A.8.8,0,0,1,172.662,1129.493Zm15.164,5.657h22.185a.8.8,0,0,1,0,1.6H188.629v4.493h28.163V1125H171.86a6.857,6.857,0,0,0-6.86,6.86v2.528a6.857,6.857,0,0,0,6.86,6.86h6.459v-4.493h-5.657a.8.8,0,0,1,0-1.6h15.164Z" transform="translate(-38.395 -1079.868)" fill="#fff3de" fill-rule="evenodd"/>
      <path id="Trazado_1036718" data-name="Trazado 1036718" d="M544.1,1418H537v8.264l2.888-4.052a.893.893,0,0,1,.682-.361.883.883,0,0,1,.642.361l2.888,4.052Z" transform="translate(-395.472 -1361.113)" fill="#fb2b3a" fill-rule="evenodd"/>
      <path id="Trazado_1036719" data-name="Trazado 1036719" d="M737,958.926h9.347l-.642-1.885L744.02,957h-4.694l-1.685.04Z" transform="translate(-587.448 -918.607)" fill="#b45f4a" fill-rule="evenodd"/>
      <path id="Trazado_1036720" data-name="Trazado 1036720" d="M815,354.509h3.089V331a6.463,6.463,0,0,1-1.565.16A6.343,6.343,0,0,1,815,331Z" transform="translate(-662.319 -317.721)" fill="#b45f4a" fill-rule="evenodd"/>
      <path id="Trazado_1036721" data-name="Trazado 1036721" d="M1124,631a8.109,8.109,0,0,0,16.208,0H1124Z" transform="translate(-958.923 -605.686)" fill="#e59d1f" fill-rule="evenodd"/>
      <path id="Trazado_1036722" data-name="Trazado 1036722" d="M1285.041,128.688a1.581,1.581,0,0,0,1.364.682,1.685,1.685,0,0,0,0-3.37,1.581,1.581,0,0,0-1.364.682c-.04.04-.04.12-.08.16a1.79,1.79,0,0,0,0,1.685C1285,128.568,1285,128.608,1285.041,128.688Z" transform="translate(-1113.223 -120.945)" fill="#feca57" fill-rule="evenodd"/>
      <path id="Trazado_1036723" data-name="Trazado 1036723" d="M1020,155.123h9.067a5.248,5.248,0,0,1,0-1.123H1020a2.472,2.472,0,0,1,.04.562A2.848,2.848,0,0,1,1020,155.123Z" transform="translate(-859.095 -147.822)" fill="#c46f5f" fill-rule="evenodd"/>
      <path id="Trazado_1036724" data-name="Trazado 1036724" d="M807.646,122.891a1.946,1.946,0,0,0,0-3.891A1.946,1.946,0,0,0,807.646,122.891Z" transform="translate(-653.44 -114.226)" fill="#feb64e" fill-rule="evenodd"/>
      <path id="Trazado_1036725" data-name="Trazado 1036725" d="M731.095,41.565c4.694,0,4.694,7.1,0,7.1C726.441,48.665,726.441,41.565,731.095,41.565Zm5.135,3.57a5.115,5.115,0,1,0-5.135,5.095A5.119,5.119,0,0,0,736.23,45.135Z" transform="translate(-576.889 -38.395)" fill="#feca57" fill-rule="evenodd"/>
      <path id="Trazado_1036726" data-name="Trazado 1036726" d="M469.067,154.562V154H460a2.648,2.648,0,0,1,0,1.123h9.067Z" transform="translate(-321.561 -147.822)" fill="#c46f5f" fill-rule="evenodd"/>
      <path id="Trazado_1036727" data-name="Trazado 1036727" d="M342.129,128.527a1.79,1.79,0,0,0,0-1.685.3.3,0,0,1-.08-.16,1.581,1.581,0,0,0-1.364-.682,1.685,1.685,0,1,0,0,3.37,1.581,1.581,0,0,0,1.364-.682A.208.208,0,0,1,342.129,128.527Z" transform="translate(-205.415 -120.945)" fill="#feca57" fill-rule="evenodd"/>
      <path id="Trazado_1036728" data-name="Trazado 1036728" d="M195.207,631H179a8.109,8.109,0,0,0,16.207,0Z" transform="translate(-51.834 -605.686)" fill="#e59d1f" fill-rule="evenodd"/>
    </g>
  </g>
</svg>
