<svg xmlns="http://www.w3.org/2000/svg" xmlns:xlink="http://www.w3.org/1999/xlink" width="118" height="118" viewBox="0 0 118 118">
  <defs>
    <filter id="Trazado_896985" x="0" y="0" width="118" height="118" filterUnits="userSpaceOnUse">
      <feOffset dy="3" input="SourceAlpha"/>
      <feGaussianBlur stdDeviation="3" result="blur"/>
      <feFlood flood-opacity="0.161"/>
      <feComposite operator="in" in2="blur"/>
      <feComposite in="SourceGraphic"/>
    </filter>
  </defs>
  <g id="Grupo_1200576" data-name="Grupo 1200576" transform="translate(-741 -19191.059)">
    <g id="Grupo_1198856" data-name="Grupo 1198856" transform="translate(750 19197.059)">
      <g id="Grupo_1198135" data-name="Grupo 1198135">
        <g id="Grupo_1181847" data-name="Grupo 1181847" transform="translate(0)">
          <g id="Grupo_1111318" data-name="Grupo 1111318" transform="translate(0 0)">
            <g id="Grupo_1109826" data-name="Grupo 1109826" transform="translate(0)">
              <g id="Grupo_1098742" data-name="Grupo 1098742">
                <g transform="matrix(1, 0, 0, 1, -9, -6)" filter="url(#Trazado_896985)">
                  <g id="Trazado_896985-2" data-name="Trazado 896985" transform="translate(9 6)" fill="#9ad354" opacity="0.859">
                    <path d="M 49.99993133544922 99.49999237060547 C 43.31726455688477 99.49999237060547 36.83475875854492 98.19129943847656 30.73247718811035 95.61024475097656 C 24.8381175994873 93.11714172363281 19.54434394836426 89.54795074462891 14.99819755554199 85.00179290771484 C 10.4520378112793 80.45564270019531 6.882851123809814 75.16187286376953 4.389744758605957 69.26750946044922 C 1.808691382408142 63.16523361206055 0.4999980032444 56.68272399902344 0.4999980032444 50.00005722045898 C 0.4999980032444 43.3172607421875 1.808691382408142 36.83475112915039 4.389744758605957 30.73247146606445 C 6.882851123809814 24.83811187744141 10.4520378112793 19.54433822631836 14.99819755554199 14.99819278717041 C 19.54434394836426 10.45204544067383 24.8381175994873 6.882845878601074 30.73247718811035 4.389752388000488 C 36.83475875854492 1.808699011802673 43.31726455688477 0.5000057220458984 49.99993133544922 0.5000057220458984 C 56.68259811401367 0.5000057220458984 63.16510391235352 1.808699011802673 69.26738739013672 4.389752388000488 C 75.1617431640625 6.882845878601074 80.45552062988281 10.45204544067383 85.00166320800781 14.99819278717041 C 89.54782104492188 19.54433822631836 93.11701202392578 24.83811187744141 95.61011505126953 30.73247146606445 C 98.19116973876953 36.83475112915039 99.49986267089844 43.3172607421875 99.49986267089844 49.99992752075195 C 99.49986267089844 56.68272399902344 98.19116973876953 63.16523361206055 95.61011505126953 69.26750946044922 C 93.11701202392578 75.16187286376953 89.54782104492188 80.45564270019531 85.00166320800781 85.00179290771484 C 80.45552062988281 89.54795074462891 75.1617431640625 93.11714172363281 69.26738739013672 95.61024475097656 C 63.16510391235352 98.19129943847656 56.68259811401367 99.49999237060547 49.99993133544922 99.49999237060547 Z" stroke="none"/>
                    <path d="M 49.99993133544922 0.9999923706054688 C 43.38454437255859 0.9999923706054688 36.96757125854492 2.295402526855469 30.92725372314453 4.850242614746094 C 25.09249114990234 7.318138122558594 19.85213470458984 10.85134887695312 15.35174560546875 15.35173797607422 C 10.85135650634766 19.85212707519531 7.318145751953125 25.09248352050781 4.850250244140625 30.92724609375 C 2.29541015625 36.96756744384766 1 43.38454055786133 1 50.00005722045898 C 1 56.61544418334961 2.29541015625 63.03241729736328 4.850250244140625 69.07273864746094 C 7.318145751953125 74.90748596191406 10.85135650634766 80.14784240722656 15.35174560546875 84.64823150634766 C 19.85213470458984 89.14863586425781 25.09249114990234 92.68184661865234 30.92725372314453 95.14974212646484 C 36.96757125854492 97.70456695556641 43.38454437255859 98.99997711181641 49.99993133544922 98.99997711181641 C 56.61531829833984 98.99997711181641 63.03229141235352 97.70456695556641 69.07260894775391 95.14974212646484 C 74.90737152099609 92.68184661865234 80.14773559570312 89.14863586425781 84.64811706542969 84.64823150634766 C 89.14850616455078 80.14784240722656 92.68171691894531 74.90748596191406 95.14961242675781 69.07273864746094 C 97.70445251464844 63.03241729736328 98.99986267089844 56.61544418334961 98.99986267089844 49.99992752075195 C 98.99986267089844 43.38454055786133 97.70445251464844 36.96756744384766 95.14961242675781 30.92724609375 C 92.68171691894531 25.09248352050781 89.14850616455078 19.85212707519531 84.64811706542969 15.35173797607422 C 80.14773559570312 10.85134887695312 74.90737152099609 7.318138122558594 69.07260894775391 4.850242614746094 C 63.03229141235352 2.295402526855469 56.61531829833984 0.9999923706054688 49.99993133544922 0.9999923706054688 M 49.99993133544922 -7.62939453125e-06 C 77.6141357421875 -7.62939453125e-06 99.99986267089844 22.38572692871094 99.99986267089844 49.99992752075195 L 99.99986267089844 50.00005722045898 C 99.99986267089844 77.6142578125 77.6141357421875 99.99997711181641 49.99993133544922 99.99997711181641 C 22.38573455810547 99.99997711181641 0 77.6142578125 0 50.00005722045898 L 0 49.99992752075195 C 0 22.38572692871094 22.38573455810547 -7.62939453125e-06 49.99993133544922 -7.62939453125e-06 Z" stroke="none" fill="#fff"/>
                  </g>
                </g>
                <g id="Rectángulo_400907" data-name="Rectángulo 400907" transform="translate(0)" fill="none" stroke="#fff" stroke-width="1">
                  <rect width="100" height="100" rx="50" stroke="none"/>
                  <rect x="0.5" y="0.5" width="99" height="99" rx="49.5" fill="none"/>
                </g>
              </g>
            </g>
          </g>
        </g>
      </g>
    </g>
    <g id="planeta-tierra" transform="translate(765.275 19212.332)">
      <path id="Trazado_1036729" data-name="Trazado 1036729" d="M60.113,72.326a33.36,33.36,0,1,1,12.21-45.57A33.36,33.36,0,0,1,60.113,72.326Z" transform="translate(-8.702 -8.703)" fill="#78d2fa"/>
      <g id="Grupo_1200575" data-name="Grupo 1200575" transform="translate(1.579 1.455)">
        <path id="Trazado_1036730" data-name="Trazado 1036730" d="M158.349,166.732a2.8,2.8,0,0,0-.907.336c-.251.2.141.463,0,.578-.248.2-.427.557-.957.523-1.107-.071-2.809-1.5-3.82-2.044,1.631-1.678-.949-1.93-1.955-1.846-1.3.109-3.556-.009-4.732.654-.816.46-1.914,2.368-2.572,3.126a14.435,14.435,0,0,0-2.433,3.233,6.415,6.415,0,0,0,6.474,9.329c1.47-.173,3.012-1.1,4.314.123.96.9.452,1.744.706,2.792.22.907,1.224,1.465,1.572,2.3.666,1.6.244,2.6-.231,4.068-.624,1.932.99,4.226,1.618,6.091.316.939,1.238,3.568,2.143,3.98,1.423.647,3.654-1.293,4.5-2.337.664-.816.448-1.645.894-2.409.483-.827,1.094-1.075,1.433-2.141a4.974,4.974,0,0,1,1.514-2.273c1.24-1.349,1.048-2.138.552-3.738-1.03-3.324,2.712-4.878,4.4-7.318,1.76-2.548-1.642-1.7-2.975-2.57-1.371-.9-1.97-2.6-2.631-4.011s-1.208-3.534-2.3-4.693C162.11,167.588,159.546,167.174,158.349,166.732Z" transform="translate(-122.842 -143.438)" fill="#a5dc69"/>
        <path id="Trazado_1036731" data-name="Trazado 1036731" d="M365.581,331.167l-1.6,5.377c-.372,1.253-1.686,5.352-3.531,2.727-.7-1-.131-2.305.26-3.223.493-1.158-.173-1.742.171-2.838.394-1.257,2.017-1.3,2.785-2.184a13.13,13.13,0,0,0,1.257-2.318Z" transform="translate(-312.854 -285.574)" fill="#a5dc69"/>
        <path id="Trazado_1036732" data-name="Trazado 1036732" d="M196.781,27.318a33.326,33.326,0,0,0-26.5-16.6l-4.363,5.472-9.35,3.278-2.508,6.081,3.869,5.42.411-1.146a4.816,4.816,0,0,1,4.533-3.189h6.377l7.33,2.576,2.525,2.41v1.531l3.51,6.723,1.022-.377a16.268,16.268,0,0,0,5.875-3.76l-.847-1.271a.608.608,0,0,1,.506-.946h2.046a2.047,2.047,0,0,1,1.557.718l1.671,1.956a2.049,2.049,0,0,1,.367.63l1.844,5.071.878-.878a3,3,0,0,0,.847-2.09,2.256,2.256,0,0,1,.754-1.646l.672-.6a2.264,2.264,0,0,1,.558-.366A33.364,33.364,0,0,0,196.781,27.318Z" transform="translate(-134.738 -10.721)" fill="#a5dc69"/>
        <path id="Trazado_1036733" data-name="Trazado 1036733" d="M24.442,83.325l1.6-1.71a4.359,4.359,0,0,0,.843-4.634h0a4.867,4.867,0,0,0-3.86-2.971,33.362,33.362,0,0,0-10.61,20.14,27.415,27.415,0,0,1,2.542,2.357,38.217,38.217,0,0,0,4.667-.588l-2.41-3.536,3.461-2.475Z" transform="translate(-12.306 -65.425)" fill="#a5dc69"/>
        <path id="Trazado_1036734" data-name="Trazado 1036734" d="M27.017,287.37a2.863,2.863,0,0,0,1.839-3.608l-.43-1.322a2.863,2.863,0,0,1,0-1.777h0a2.863,2.863,0,0,0-2.172-3.7l-3.371-.659-6.158-4.682-5.091,1.654a33.446,33.446,0,0,0,12.515,22.454l1.517-7.919Z" transform="translate(-11.637 -236.23)" fill="#a5dc69"/>
      </g>
      <path id="Trazado_1036735" data-name="Trazado 1036735" d="M369.358,459.22l-.052.03a1.356,1.356,0,1,0,1.361,2.346l.052-.03a1.356,1.356,0,1,0-1.361-2.346Z" transform="translate(-318.627 -396.77)"/>
      <path id="Trazado_1036736" data-name="Trazado 1036736" d="M64.8,17.374A34.716,34.716,0,0,0,1.2,25.747,34.722,34.722,0,0,0,47.15,67.156a1.356,1.356,0,0,0-.973-2.532,31.8,31.8,0,0,1-30.6-4.205l1.215-6.343.586-.19a4.225,4.225,0,0,0,2.709-5.317l-.43-1.322a1.5,1.5,0,0,1,0-.935,4.22,4.22,0,0,0-3.2-5.457l-3.061-.6L7.491,35.765a1.357,1.357,0,0,0-1.24-.21L2.792,36.678a31.977,31.977,0,0,1,0-3.7c.136.127.225.214.28.27a1.422,1.422,0,0,0,1.325.679,19.7,19.7,0,0,0,2.431-.277c1.144-.169,2.283-.36,2.294-.362a1.356,1.356,0,0,0,.9-2.1L8.351,28.745l2.382-1.7a1.357,1.357,0,0,0,.388-.429l3.693-6.446L16.3,18.571a5.729,5.729,0,0,0,1.106-6.076,6.238,6.238,0,0,0-2.471-2.91A31.963,31.963,0,0,1,34.36,2.738L31.938,5.777,22.957,8.925a1.356,1.356,0,0,0-.805.763l-2.508,6.081a1.357,1.357,0,0,0,.15,1.305l3.663,5.132a12.891,12.891,0,0,0-1.645,2.042c-.267.38-.52.738-.695.939-.152.175-.3.346-.454.515a12.693,12.693,0,0,0-2.181,3.028,8.083,8.083,0,0,0,.671,8.171,7.613,7.613,0,0,0,7.188,3.084,10.56,10.56,0,0,0,1.325-.267c1.163-.288,1.531-.316,1.9.033.181.17.2.2.195.778a5.272,5.272,0,0,0,.121,1.344,4.287,4.287,0,0,0,1.146,1.872,3.04,3.04,0,0,1,.492.627c.423,1.014.239,1.575-.165,2.806q-.052.158-.105.323c-.613,1.9.242,3.781,1,5.443.245.539.476,1.049.628,1.5,1.22,3.619,2.134,4.448,2.868,4.781a2.827,2.827,0,0,0,1.184.251c1.955,0,4-1.816,4.933-2.967a4.169,4.169,0,0,0,.839-1.975,2.162,2.162,0,0,1,.173-.606,3.554,3.554,0,0,1,.445-.572,4.707,4.707,0,0,0,1.109-1.843,2.985,2.985,0,0,1,.92-1.444c.093-.1.193-.205.3-.321,1.807-1.966,1.341-3.468.849-5.058-.415-1.338.311-2.193,2.064-3.827a14.656,14.656,0,0,0,2.154-2.319,2.929,2.929,0,0,0,.574-2.717c-.491-1.138-1.738-1.329-2.739-1.483a4.5,4.5,0,0,1-1.184-.277,6.412,6.412,0,0,1-1.849-2.8c-.1-.22-.2-.438-.3-.649-.176-.377-.353-.833-.539-1.315a11.379,11.379,0,0,0-2-3.734c-.856-.907-2.469-1.344-3.892-1.729-.479-.13-.931-.252-1.229-.362a1.355,1.355,0,0,0-.779-.048,3.52,3.52,0,0,0-1.446.6,1.685,1.685,0,0,0-.483.65,15.514,15.514,0,0,1-1.6-.974l-.026-.017A1.923,1.923,0,0,0,33.1,22.38c-.758-1.6-3.273-1.477-3.769-1.435-.282.024-.638.036-1.016.05-.592.021-1.247.045-1.9.117l.033-.093a3.468,3.468,0,0,1,3.257-2.291h.771a1.356,1.356,0,1,0,0-2.713h-.771a6.191,6.191,0,0,0-5.25,2.928l-2.023-2.834,1.99-4.825L33.2,8.207a1.357,1.357,0,0,0,.612-.434l3.9-4.894A31.987,31.987,0,0,1,62.447,18.73a31.653,31.653,0,0,1,3.2,7.764l-.575.513a3.623,3.623,0,0,0-1.207,2.635c0,.011,0,.022,0,.033L62.924,27.1a3.386,3.386,0,0,0-.611-1.048l-1.671-1.956A3.4,3.4,0,0,0,58.054,22.9H56.009a1.964,1.964,0,0,0-1.635,3.054l.207.311A15.032,15.032,0,0,1,50.1,28.926l-2.8-5.371v-1.2a1.356,1.356,0,0,0-.42-.981l-2.525-2.41a1.358,1.358,0,0,0-.487-.3l-2.273-.8a1.356,1.356,0,1,0-.9,2.559l2,.7,1.894,1.808v.951a1.357,1.357,0,0,0,.154.628l3.51,6.723a1.356,1.356,0,0,0,1.672.645l1.022-.377a17.751,17.751,0,0,0,6.365-4.074,1.356,1.356,0,0,0,.169-1.711l-.072-.108h.648a.69.69,0,0,1,.526.242l1.671,1.956a.689.689,0,0,1,.124.213L62.219,33.1a1.356,1.356,0,0,0,2.234.5l.878-.878a4.235,4.235,0,0,0,1.121-2.039,32.119,32.119,0,0,1-11.925,29.21A1.356,1.356,0,0,0,56.2,62.019a34.723,34.723,0,0,0,8.6-44.645ZM6.414,38.354l5.593,4.253a1.355,1.355,0,0,0,.561.251l3.371.659a1.507,1.507,0,0,1,1.143,1.949,4.193,4.193,0,0,0,0,2.619l.43,1.322a1.509,1.509,0,0,1-.968,1.9l-1.348.438a1.356,1.356,0,0,0-.913,1.035l-1.085,5.663a32.362,32.362,0,0,1-6.179-7.707,31.833,31.833,0,0,1-3.941-11.3ZM2.872,32.62a1.38,1.38,0,0,0,.023.175A1.311,1.311,0,0,1,2.872,32.62ZM14.9,13.528a3.01,3.01,0,0,1-.581,3.192l-1.6,1.71a1.362,1.362,0,0,0-.185.251L8.914,25.007l-3.22,2.3a1.356,1.356,0,0,0-.332,1.867l1.2,1.767c-.694.1-1.317.189-1.731.234-.08-.076-.163-.154-.249-.234-.322-.3-.77-.7-1.438-1.284A32.06,32.06,0,0,1,12.7,11.516,3.526,3.526,0,0,1,14.9,13.528ZM28.412,23.705c.411-.015.8-.028,1.146-.057a3.689,3.689,0,0,1,.578,0,1.356,1.356,0,0,0,.624,1.688c.254.136.609.372.984.622a7.817,7.817,0,0,0,3.391,1.58,2.25,2.25,0,0,0,1.842-.768c.02-.02.038-.04.058-.058a1.453,1.453,0,0,0,.363-.445c.217.062.445.124.678.187a9.033,9.033,0,0,1,2.628.972,9.628,9.628,0,0,1,1.447,2.85c.2.528.4,1.026.613,1.488.093.2.184.4.277.609a8.471,8.471,0,0,0,2.84,3.962,5.607,5.607,0,0,0,2.257.688l.3.047a13.116,13.116,0,0,1-1.721,1.806c-1.679,1.564-3.769,3.51-2.806,6.615.454,1.466.475,1.624-.255,2.419-.1.108-.192.207-.279.3a5.574,5.574,0,0,0-1.529,2.481,2.117,2.117,0,0,1-.552.862,6.064,6.064,0,0,0-.759,1A4.4,4.4,0,0,0,40.04,54a1.662,1.662,0,0,1-.283.8,7.907,7.907,0,0,1-1.712,1.514,2.238,2.238,0,0,1-1.137.453,9.675,9.675,0,0,1-1.461-3.186c-.2-.58-.466-1.177-.728-1.754-.578-1.272-1.175-2.588-.884-3.487q.051-.159.1-.311a5.925,5.925,0,0,0,.091-4.7,4.891,4.891,0,0,0-.987-1.407,2.522,2.522,0,0,1-.518-.688,2.933,2.933,0,0,1-.044-.686,3.364,3.364,0,0,0-1.053-2.777c-1.5-1.4-3.251-.972-4.41-.686a8.509,8.509,0,0,1-.99.206,4.873,4.873,0,0,1-4.669-1.974,5.37,5.37,0,0,1-.421-5.429A10.3,10.3,0,0,1,22.69,27.5c.157-.177.316-.356.475-.539.265-.3.556-.718.863-1.155a9.806,9.806,0,0,1,1.349-1.678A8.7,8.7,0,0,1,28.412,23.705Z" transform="translate(0 0)"/>
      <path id="Trazado_1036737" data-name="Trazado 1036737" d="M353.392,332.819c1.384-.226,2.424-1.665,3.274-4.53l1.6-5.377a1.357,1.357,0,0,0,.011-.734l-.653-2.46a1.356,1.356,0,0,0-2.5-.3c-.149.274-.283.564-.412.845a5.828,5.828,0,0,1-.677,1.23,3,3,0,0,1-.8.472,3.729,3.729,0,0,0-2.259,2.2,3.974,3.974,0,0,0-.09,1.914,1.234,1.234,0,0,1-.035.8l-.014.032c-.432,1.013-1.235,2.9-.109,4.5a2.825,2.825,0,0,0,2.305,1.439A2.206,2.206,0,0,0,353.392,332.819Zm-.448-2.968c-.259-.369.128-1.279.385-1.88l.014-.032a3.817,3.817,0,0,0,.222-2.26,1.422,1.422,0,0,1-.005-.7c.053-.169.371-.333.85-.564.212-.1.446-.215.682-.352l-1.026,3.459a8.228,8.228,0,0,1-1.038,2.444C353,329.93,352.974,329.893,352.944,329.851Z" transform="translate(-302.654 -275.479)"/>
      <path id="Trazado_1036738" data-name="Trazado 1036738" d="M257.849,118.136a1.356,1.356,0,1,0-.9,2.56l.091.032a1.356,1.356,0,1,0,.9-2.56Z" transform="translate(-221.313 -102.044)"/>
    </g>
  </g>
</svg>
