<svg xmlns="http://www.w3.org/2000/svg" xmlns:xlink="http://www.w3.org/1999/xlink" width="118" height="118" viewBox="0 0 118 118">
  <defs>
    <filter id="Trazado_896985" x="0" y="0" width="118" height="118" filterUnits="userSpaceOnUse">
      <feOffset dy="3" input="SourceAlpha"/>
      <feGaussianBlur stdDeviation="3" result="blur"/>
      <feFlood flood-opacity="0.161"/>
      <feComposite operator="in" in2="blur"/>
      <feComposite in="SourceGraphic"/>
    </filter>
  </defs>
  <g id="Grupo_1200579" data-name="Grupo 1200579" transform="translate(-1161 -19191.059)">
    <g id="Grupo_1198857" data-name="Grupo 1198857" transform="translate(1170 19197.059)">
      <g id="Grupo_1198135" data-name="Grupo 1198135">
        <g id="Grupo_1181847" data-name="Grupo 1181847" transform="translate(0)">
          <g id="Grupo_1111318" data-name="Grupo 1111318" transform="translate(0 0)">
            <g id="Grupo_1109826" data-name="Grupo 1109826" transform="translate(0)">
              <g id="Grupo_1098742" data-name="Grupo 1098742">
                <g transform="matrix(1, 0, 0, 1, -9, -6)" filter="url(#Trazado_896985)">
                  <g id="Trazado_896985-2" data-name="Trazado 896985" transform="translate(9 6)" fill="#9ad354" opacity="0.859">
                    <path d="M 49.99993133544922 99.49999237060547 C 43.31726455688477 99.49999237060547 36.83475875854492 98.19129943847656 30.73247718811035 95.61024475097656 C 24.8381175994873 93.11714172363281 19.54434394836426 89.54795074462891 14.99819755554199 85.00179290771484 C 10.4520378112793 80.45564270019531 6.882851123809814 75.16187286376953 4.389744758605957 69.26750946044922 C 1.808691382408142 63.16523361206055 0.4999980032444 56.68272399902344 0.4999980032444 50.00005722045898 C 0.4999980032444 43.3172607421875 1.808691382408142 36.83475112915039 4.389744758605957 30.73247146606445 C 6.882851123809814 24.83811187744141 10.4520378112793 19.54433822631836 14.99819755554199 14.99819278717041 C 19.54434394836426 10.45204544067383 24.8381175994873 6.882845878601074 30.73247718811035 4.389752388000488 C 36.83475875854492 1.808699011802673 43.31726455688477 0.5000057220458984 49.99993133544922 0.5000057220458984 C 56.68259811401367 0.5000057220458984 63.16510391235352 1.808699011802673 69.26738739013672 4.389752388000488 C 75.1617431640625 6.882845878601074 80.45552062988281 10.45204544067383 85.00166320800781 14.99819278717041 C 89.54782104492188 19.54433822631836 93.11701202392578 24.83811187744141 95.61011505126953 30.73247146606445 C 98.19116973876953 36.83475112915039 99.49986267089844 43.3172607421875 99.49986267089844 49.99992752075195 C 99.49986267089844 56.68272399902344 98.19116973876953 63.16523361206055 95.61011505126953 69.26750946044922 C 93.11701202392578 75.16187286376953 89.54782104492188 80.45564270019531 85.00166320800781 85.00179290771484 C 80.45552062988281 89.54795074462891 75.1617431640625 93.11714172363281 69.26738739013672 95.61024475097656 C 63.16510391235352 98.19129943847656 56.68259811401367 99.49999237060547 49.99993133544922 99.49999237060547 Z" stroke="none"/>
                    <path d="M 49.99993133544922 0.9999923706054688 C 43.38454437255859 0.9999923706054688 36.96757125854492 2.295402526855469 30.92725372314453 4.850242614746094 C 25.09249114990234 7.318138122558594 19.85213470458984 10.85134887695312 15.35174560546875 15.35173797607422 C 10.85135650634766 19.85212707519531 7.318145751953125 25.09248352050781 4.850250244140625 30.92724609375 C 2.29541015625 36.96756744384766 1 43.38454055786133 1 50.00005722045898 C 1 56.61544418334961 2.29541015625 63.03241729736328 4.850250244140625 69.07273864746094 C 7.318145751953125 74.90748596191406 10.85135650634766 80.14784240722656 15.35174560546875 84.64823150634766 C 19.85213470458984 89.14863586425781 25.09249114990234 92.68184661865234 30.92725372314453 95.14974212646484 C 36.96757125854492 97.70456695556641 43.38454437255859 98.99997711181641 49.99993133544922 98.99997711181641 C 56.61531829833984 98.99997711181641 63.03229141235352 97.70456695556641 69.07260894775391 95.14974212646484 C 74.90737152099609 92.68184661865234 80.14773559570312 89.14863586425781 84.64811706542969 84.64823150634766 C 89.14850616455078 80.14784240722656 92.68171691894531 74.90748596191406 95.14961242675781 69.07273864746094 C 97.70445251464844 63.03241729736328 98.99986267089844 56.61544418334961 98.99986267089844 49.99992752075195 C 98.99986267089844 43.38454055786133 97.70445251464844 36.96756744384766 95.14961242675781 30.92724609375 C 92.68171691894531 25.09248352050781 89.14850616455078 19.85212707519531 84.64811706542969 15.35173797607422 C 80.14773559570312 10.85134887695312 74.90737152099609 7.318138122558594 69.07260894775391 4.850242614746094 C 63.03229141235352 2.295402526855469 56.61531829833984 0.9999923706054688 49.99993133544922 0.9999923706054688 M 49.99993133544922 -7.62939453125e-06 C 77.6141357421875 -7.62939453125e-06 99.99986267089844 22.38572692871094 99.99986267089844 49.99992752075195 L 99.99986267089844 50.00005722045898 C 99.99986267089844 77.6142578125 77.6141357421875 99.99997711181641 49.99993133544922 99.99997711181641 C 22.38573455810547 99.99997711181641 0 77.6142578125 0 50.00005722045898 L 0 49.99992752075195 C 0 22.38572692871094 22.38573455810547 -7.62939453125e-06 49.99993133544922 -7.62939453125e-06 Z" stroke="none" fill="#fff"/>
                  </g>
                </g>
                <g id="Rectángulo_400907" data-name="Rectángulo 400907" transform="translate(0)" fill="none" stroke="#fff" stroke-width="1">
                  <rect width="100" height="100" rx="50" stroke="none"/>
                  <rect x="0.5" y="0.5" width="99" height="99" rx="49.5" fill="none"/>
                </g>
              </g>
            </g>
          </g>
        </g>
      </g>
    </g>
    <g id="corte_4_" data-name="corte (4)" transform="translate(1188.24 19215.266)">
      <g id="Grupo_1200578" data-name="Grupo 1200578" transform="translate(0.937 0.933)">
        <path id="Trazado_1036739" data-name="Trazado 1036739" d="M112.729,21.777l-1.081-.285-1.325.285L87.194,35.882H133.34l1.3-.656Z" transform="translate(-77.298 -19.756)" fill="#b7aeb8"/>
        <path id="Trazado_1036740" data-name="Trazado 1036740" d="M0,0H6.455V30.645H0Z" transform="translate(14.308 54.232) rotate(180)" fill="#7b6c79"/>
        <path id="Trazado_1036741" data-name="Trazado 1036741" d="M0,0H6.455V30.645H0Z" transform="translate(40.638 54.232) rotate(180)" fill="#938493"/>
        <path id="Trazado_1036742" data-name="Trazado 1036742" d="M0,0H6.455V30.645H0Z" transform="translate(53.803 54.232) rotate(180)" fill="#938493"/>
        <path id="Trazado_1036743" data-name="Trazado 1036743" d="M0,0H6.455V30.645H0Z" transform="translate(27.473 54.232) rotate(180)" fill="#7b6c79"/>
        <path id="Trazado_1036744" data-name="Trazado 1036744" d="M110.108,159.532v5.009l.473.32.332.151.23.046h42.479a1.087,1.087,0,0,0,1.087-1.087v-4.439h-44.6Z" transform="translate(-97.366 -140.653)" fill="#b7aeb8"/>
        <g id="Grupo_1200577" data-name="Grupo 1200577" transform="translate(4.377)">
          <path id="Trazado_1036745" data-name="Trazado 1036745" d="M51.227,163.972v-4.439H42.753v4.439a1.087,1.087,0,0,0,1.087,1.087h8.474A1.087,1.087,0,0,1,51.227,163.972Z" transform="translate(-42.753 -140.654)" fill="#938493"/>
          <path id="Trazado_1036746" data-name="Trazado 1036746" d="M70.895,10.173a4.529,4.529,0,0,1,2.912-.64L71.614,8.186a4.528,4.528,0,0,0-4.755,0l-24.106,14.8L44,23.638h4.96Z" transform="translate(-42.753 -7.512)" fill="#938493"/>
          <path id="Trazado_1036747" data-name="Trazado 1036747" d="M211.319,85.758l-.686-.2-1.49.333L199.517,92h20l.9-.656Z" transform="translate(-180.049 -75.87)" fill="#938493"/>
        </g>
        <path id="Trazado_1036748" data-name="Trazado 1036748" d="M160.536,72.624a4.537,4.537,0,0,1,2.362-.674l-2.409-1.479a4.528,4.528,0,0,0-4.755,0l-11.5,7.061.533.656h6.707Z" transform="translate(-127.25 -62.062)" fill="#7b6c79"/>
        <path id="Trazado_1036749" data-name="Trazado 1036749" d="M127.493,132.082H76.057l-.239.051-.543.574v3.112l.318.489.563.241h51.336a1.087,1.087,0,0,0,1.087-1.087v-2.293A1.087,1.087,0,0,0,127.493,132.082Z" transform="translate(-66.859 -116.612)" fill="#ccc6ce"/>
        <path id="Trazado_1036750" data-name="Trazado 1036750" d="M15.979,135.463v-2.293a1.087,1.087,0,0,1,1.087-1.087H8.592A1.087,1.087,0,0,0,7.5,133.169v2.293a1.087,1.087,0,0,0,1.087,1.087h8.474A1.087,1.087,0,0,1,15.979,135.463Z" transform="translate(-7.505 -116.612)" fill="#b7aeb8"/>
        <path id="Trazado_1036751" data-name="Trazado 1036751" d="M110.108,438.084v-5.009l.473-.32.332-.151.23-.046h42.479a1.087,1.087,0,0,1,1.087,1.087v4.439h-44.6Z" transform="translate(-97.366 -379.772)" fill="#b7aeb8"/>
        <path id="Trazado_1036752" data-name="Trazado 1036752" d="M51.227,433.644v4.439H42.753v-4.439a1.087,1.087,0,0,1,1.087-1.087h8.474A1.087,1.087,0,0,0,51.227,433.644Z" transform="translate(-38.376 -379.771)" fill="#938493"/>
        <path id="Trazado_1036753" data-name="Trazado 1036753" d="M127.493,473H76.057l-.239-.051-.543-.574v-3.112l.318-.489.563-.241h51.336a1.087,1.087,0,0,1,1.087,1.087v2.293A1.087,1.087,0,0,1,127.493,473Z" transform="translate(-66.859 -411.28)" fill="#ccc6ce"/>
        <path id="Trazado_1036754" data-name="Trazado 1036754" d="M15.979,469.619v2.293A1.087,1.087,0,0,0,17.067,473H8.592A1.087,1.087,0,0,1,7.5,471.913v-2.293a1.087,1.087,0,0,1,1.087-1.087h8.474A1.087,1.087,0,0,0,15.979,469.619Z" transform="translate(-7.505 -411.279)" fill="#b7aeb8"/>
      </g>
      <path id="Trazado_1036755" data-name="Trazado 1036755" d="M2.025,63.586h27.6a.931.931,0,1,0,0-1.863H2.025a.156.156,0,0,1-.156-.156V59.274a.156.156,0,0,1,.156-.156H61.571a.156.156,0,0,1,.156.156v2.293a.156.156,0,0,1-.156.156h-27.6a.931.931,0,1,0,0,1.863h27.6a2.021,2.021,0,0,0,2.019-2.019V59.274a2.021,2.021,0,0,0-2.019-2.019H59.213V54.806a2.021,2.021,0,0,0-2.019-2.019H55.672V41.7a.931.931,0,1,0-1.863,0V52.788H49.217V26.27h4.592V37.356a.931.931,0,1,0,1.863,0V26.27h1.522a2.021,2.021,0,0,0,2.019-2.019V21.8h2.359a2.021,2.021,0,0,0,2.019-2.019V17.491a2.021,2.021,0,0,0-2.019-2.019H58.544L34.663.814a5.451,5.451,0,0,0-5.729,0L5.052,15.472H2.025A2.021,2.021,0,0,0,.006,17.491v2.293A2.021,2.021,0,0,0,2.025,21.8H4.383v2.449A2.021,2.021,0,0,0,6.4,26.27H7.859V52.788H6.4a2.021,2.021,0,0,0-2.019,2.019v2.449H2.025A2.021,2.021,0,0,0,.006,59.274v2.293a2.021,2.021,0,0,0,2.019,2.019ZM29.908,2.4a3.6,3.6,0,0,1,3.78,0l21.3,13.071H45.942L34.663,8.549a5.451,5.451,0,0,0-5.729,0L17.654,15.472H8.613ZM42.381,15.472H21.215l8.693-5.336h0a3.6,3.6,0,0,1,3.78,0ZM2.025,19.94a.156.156,0,0,1-.156-.156V17.491a.156.156,0,0,1,.156-.156H61.571a.156.156,0,0,1,.156.156v2.293a.156.156,0,0,1-.156.156ZM6.4,24.408a.156.156,0,0,1-.156-.156V21.8h51.1v2.449a.156.156,0,0,1-.156.156H6.4ZM47.354,26.27V52.788H42.507V26.27Zm-6.71,0V52.788H36.052V26.27Zm-6.455,0V52.788H29.342V26.27Zm-6.71,0V52.788H22.887V26.27Zm-6.455,0V52.788H16.177V26.27Zm-6.71,0V52.788H9.722V26.27ZM6.246,54.806A.156.156,0,0,1,6.4,54.65H57.194a.156.156,0,0,1,.156.156v2.449H6.246Z" transform="translate(0 0)"/>
    </g>
  </g>
</svg>
