<svg xmlns="http://www.w3.org/2000/svg" xmlns:xlink="http://www.w3.org/1999/xlink" width="118" height="118" viewBox="0 0 118 118">
  <defs>
    <filter id="Elipse_12115" x="0" y="0" width="118" height="118" filterUnits="userSpaceOnUse">
      <feOffset dy="3" input="SourceAlpha"/>
      <feGaussianBlur stdDeviation="3" result="blur"/>
      <feFlood flood-opacity="0.161"/>
      <feComposite operator="in" in2="blur"/>
      <feComposite in="SourceGraphic"/>
    </filter>
  </defs>
  <g id="Grupo_1200588" data-name="Grupo 1200588" transform="translate(-161.949 -19555.43)">
    <g id="Grupo_1198858" data-name="Grupo 1198858" transform="translate(-44 13469.964)">
      <g id="Grupo_1198119" data-name="Grupo 1198119" transform="translate(214.949 6091.466)">
        <g id="Grupo_1182334" data-name="Grupo 1182334">
          <g id="Grupo_1181949" data-name="Grupo 1181949">
            <g transform="matrix(1, 0, 0, 1, -9, -6)" filter="url(#Elipse_12115)">
              <g id="Elipse_12115-2" data-name="Elipse 12115" transform="translate(9 6)" fill="#f4f9ff" stroke="#4d637e" stroke-width="4">
                <circle cx="50" cy="50" r="50" stroke="none"/>
                <circle cx="50" cy="50" r="48" fill="none"/>
              </g>
            </g>
          </g>
        </g>
      </g>
    </g>
    <g id="flag_2851044" transform="translate(187.364 19575.828)">
      <g id="Grupo_1200586" data-name="Grupo 1200586" transform="translate(2.051 2.051)">
        <g id="Grupo_1200580" data-name="Grupo 1200580" transform="translate(2.102 22.074)">
          <path id="Trazado_1036756" data-name="Trazado 1036756" d="M18.716,23V49.279H13.1a4.209,4.209,0,0,1-2.975-1.23l-4.11-4.11a6.891,6.891,0,0,1,.746-10.4l5.645-4.236V27.2a4.2,4.2,0,0,1,4.2-4.2Z" transform="translate(-4 -23)" fill="#b4dd7f"/>
        </g>
        <g id="Grupo_1200581" data-name="Grupo 1200581" transform="translate(21.023 25.228)">
          <path id="Trazado_1036757" data-name="Trazado 1036757" d="M60.871,49.651a3.8,3.8,0,0,1,1.482,6.906l-4.615,3.08h-9.46l-7.7,3.427a9.028,9.028,0,0,1-9.544-1.4l-2.638-2.26a9.026,9.026,0,0,1-2.88-4.667L24.9,52.31A4.245,4.245,0,0,0,22,49.293V26c5.256,0,5.256,4.2,10.511,4.2S37.767,26,43.023,26a7.019,7.019,0,0,1,3.153.673v9.282a4.2,4.2,0,0,0,3.679,4.173l2.207.273a4.187,4.187,0,0,1,3.416,2.691l1.409,3.763a4.208,4.208,0,0,0,3.248,2.67Z" transform="translate(-22 -26)" fill="#b4dd7f"/>
        </g>
        <g id="Grupo_1200582" data-name="Grupo 1200582" transform="translate(14.716 0)">
          <path id="Trazado_1036758" data-name="Trazado 1036758" d="M22.307,9.842a4.2,4.2,0,1,1,2.1-3.637A4.193,4.193,0,0,1,22.307,9.842Z" transform="translate(-16 -2)" fill="#e6e9ed"/>
        </g>
        <g id="Grupo_1200583" data-name="Grupo 1200583" transform="translate(21.023 8.409)">
          <path id="Trazado_1036759" data-name="Trazado 1036759" d="M53.534,14.2V31.023c-3.921,0-4.919-2.344-7.358-3.532a7.019,7.019,0,0,0-3.153-.673c-5.256,0-5.256,4.2-10.511,4.2s-5.256-4.2-10.511-4.2V10c5.256,0,5.256,4.2,10.511,4.2S37.767,10,43.023,10,48.279,14.2,53.534,14.2Z" transform="translate(-22 -10)" fill="#fcd770"/>
        </g>
        <g id="Grupo_1200584" data-name="Grupo 1200584" transform="translate(16.818 7.842)">
          <path id="Trazado_1036760" data-name="Trazado 1036760" d="M22.2,10.028V50.139a4.364,4.364,0,0,0-1.177-.168H18V9.46a4.177,4.177,0,0,0,4.2,0Z" transform="translate(-18 -9.46)" fill="#cf9e76"/>
        </g>
        <g id="Grupo_1200585" data-name="Grupo 1200585" transform="translate(0 52.557)">
          <path id="Trazado_1036761" data-name="Trazado 1036761" d="M17.767,57.256l3.2.452a4.855,4.855,0,0,1,4.163,4.8H6.52A4.523,4.523,0,0,1,2,57.992a5.031,5.031,0,0,1,2.428-4.3l.851-.5a8.316,8.316,0,0,1,7.884-.368,8.414,8.414,0,0,1,2.9,2.3Z" transform="translate(-2 -52)" fill="#ccd1d9"/>
        </g>
      </g>
      <g id="Grupo_1200587" data-name="Grupo 1200587" transform="translate(1 1)">
        <path id="Trazado_1036762" data-name="Trazado 1036762" d="M21.163,56.722l-2.783-.4-1.444-1.806A9.378,9.378,0,0,0,4.788,52.336l-.848.509A6.09,6.09,0,0,0,1,58.04a5.574,5.574,0,0,0,5.574,5.574H26.228V62.563a5.928,5.928,0,0,0-5.064-5.84ZM6.574,61.511A3.473,3.473,0,0,1,3.1,58.04a3.979,3.979,0,0,1,1.92-3.393l.848-.509a7.274,7.274,0,0,1,9.42,1.694l.626.783-3.288.658L9.741,56.31,9.076,58.3l3.418,1.139,5.352-1.071,3.018.431a3.821,3.821,0,0,1,3.11,2.708Z" transform="translate(-1 1.557)"/>
        <path id="Trazado_1036763" data-name="Trazado 1036763" d="M62.014,49.889l-.736-.123a3.163,3.163,0,0,1-2.433-2l-1.409-3.757a5.241,5.241,0,0,0-4.271-3.37l-2.2-.275A3.157,3.157,0,0,1,48.2,37.232V29.891c.13.1.261.206.393.311a8.509,8.509,0,0,0,5.914,2.333h1.051V13.614H54.506a6.485,6.485,0,0,1-4.6-1.872,8.664,8.664,0,0,0-11.829,0,6.582,6.582,0,0,1-9.2,0,9.21,9.21,0,0,0-4-2.136,5.208,5.208,0,0,0,1.24-3.35,5.256,5.256,0,1,0-8.409,4.177V23.074H16.665a5.262,5.262,0,0,0-5.256,5.256v1.577L6.18,33.828A7.99,7.99,0,0,0,3,40.189,7.9,7.9,0,0,0,5.328,45.81l4.106,4.106a5.222,5.222,0,0,0,3.717,1.539h8.64a3.151,3.151,0,0,1,3.06,2.388l.608,2.432a10.012,10.012,0,0,0,3.22,5.208l2.637,2.26A10.076,10.076,0,0,0,41.969,65.3l7.5-3.335h9.556l4.879-3.252a4.854,4.854,0,0,0-1.9-8.825ZM33.478,15.716a8.511,8.511,0,0,0,5.914-2.332,6.588,6.588,0,0,1,9.2,0,8.712,8.712,0,0,0,4.863,2.278v14.7a6.855,6.855,0,0,1-3.549-1.8,8.664,8.664,0,0,0-11.829,0,6.582,6.582,0,0,1-9.2,0,8.7,8.7,0,0,0-4.859-2.278V11.591a6.882,6.882,0,0,1,3.546,1.791,8.5,8.5,0,0,0,5.91,2.334ZM20.87,3.1a3.153,3.153,0,1,1-3.153,3.153A3.157,3.157,0,0,1,20.87,3.1ZM10.92,48.43,6.815,44.324A5.809,5.809,0,0,1,5.1,40.189,5.877,5.877,0,0,1,7.441,35.51l6.07-4.553V28.33a3.157,3.157,0,0,1,3.153-3.153h1.051V49.353H13.151a3.136,3.136,0,0,1-2.231-.923Zm8.9.923V11.405a5.257,5.257,0,0,0,2.1,0V49.363c-.044,0-.085-.011-.129-.011Zm42.924,7.612-4.35,2.9H49.028l-7.913,3.517a8.1,8.1,0,0,1-8.431-1.233l-2.637-2.26A7.935,7.935,0,0,1,27.5,55.767l-.608-2.432a5.233,5.233,0,0,0-2.868-3.468V28.41A6.882,6.882,0,0,1,27.569,30.2a8.658,8.658,0,0,0,11.823,0,6.489,6.489,0,0,1,4.6-1.871,6.32,6.32,0,0,1,2.1.324v8.578a5.262,5.262,0,0,0,4.6,5.215l2.2.275a3.146,3.146,0,0,1,2.563,2.021L56.876,48.5a5.27,5.27,0,0,0,4.057,3.338l.735.123a2.752,2.752,0,0,1,1.074,5Z" transform="translate(-0.898 -1)"/>
      </g>
    </g>
  </g>
</svg>
