<svg xmlns="http://www.w3.org/2000/svg" xmlns:xlink="http://www.w3.org/1999/xlink" width="118" height="118" viewBox="0 0 118 118">
  <defs>
    <filter id="Trazado_896985" x="0" y="0" width="118" height="118" filterUnits="userSpaceOnUse">
      <feOffset dy="3" input="SourceAlpha"/>
      <feGaussianBlur stdDeviation="3" result="blur"/>
      <feFlood flood-opacity="0.161"/>
      <feComposite operator="in" in2="blur"/>
      <feComposite in="SourceGraphic"/>
    </filter>
  </defs>
  <g id="Grupo_1200616" data-name="Grupo 1200616" transform="translate(-320.236 -20088.611)">
    <g id="Grupo_1198861" data-name="Grupo 1198861" transform="translate(329.236 20094.611)">
      <g id="Grupo_1198134" data-name="Grupo 1198134">
        <g id="Grupo_1181844" data-name="Grupo 1181844" transform="translate(0)">
          <g id="Grupo_1111318" data-name="Grupo 1111318" transform="translate(0 0)">
            <g id="Grupo_1109826" data-name="Grupo 1109826" transform="translate(0)">
              <g id="Grupo_1098742" data-name="Grupo 1098742">
                <g transform="matrix(1, 0, 0, 1, -9, -6)" filter="url(#Trazado_896985)">
                  <g id="Trazado_896985-2" data-name="Trazado 896985" transform="translate(9 6)" fill="#9ad354" opacity="0.859">
                    <path d="M 49.99993133544922 99.49999237060547 C 43.31726455688477 99.49999237060547 36.83475875854492 98.19129943847656 30.73247718811035 95.61024475097656 C 24.8381175994873 93.11714172363281 19.54434394836426 89.54795074462891 14.99819755554199 85.00179290771484 C 10.4520378112793 80.45564270019531 6.882851123809814 75.16187286376953 4.389744758605957 69.26750946044922 C 1.808691382408142 63.16523361206055 0.4999980032444 56.68272399902344 0.4999980032444 50.00005722045898 C 0.4999980032444 43.3172607421875 1.808691382408142 36.83475112915039 4.389744758605957 30.73247146606445 C 6.882851123809814 24.83811187744141 10.4520378112793 19.54433822631836 14.99819755554199 14.99819278717041 C 19.54434394836426 10.45204544067383 24.8381175994873 6.882845878601074 30.73247718811035 4.389752388000488 C 36.83475875854492 1.808699011802673 43.31726455688477 0.5000057220458984 49.99993133544922 0.5000057220458984 C 56.68259811401367 0.5000057220458984 63.16510391235352 1.808699011802673 69.26738739013672 4.389752388000488 C 75.1617431640625 6.882845878601074 80.45552062988281 10.45204544067383 85.00166320800781 14.99819278717041 C 89.54782104492188 19.54433822631836 93.11701202392578 24.83811187744141 95.61011505126953 30.73247146606445 C 98.19116973876953 36.83475112915039 99.49986267089844 43.3172607421875 99.49986267089844 49.99992752075195 C 99.49986267089844 56.68272399902344 98.19116973876953 63.16523361206055 95.61011505126953 69.26750946044922 C 93.11701202392578 75.16187286376953 89.54782104492188 80.45564270019531 85.00166320800781 85.00179290771484 C 80.45552062988281 89.54795074462891 75.1617431640625 93.11714172363281 69.26738739013672 95.61024475097656 C 63.16510391235352 98.19129943847656 56.68259811401367 99.49999237060547 49.99993133544922 99.49999237060547 Z" stroke="none"/>
                    <path d="M 49.99993133544922 0.9999923706054688 C 43.38454437255859 0.9999923706054688 36.96757125854492 2.295402526855469 30.92725372314453 4.850242614746094 C 25.09249114990234 7.318138122558594 19.85213470458984 10.85134887695312 15.35174560546875 15.35173797607422 C 10.85135650634766 19.85212707519531 7.318145751953125 25.09248352050781 4.850250244140625 30.92724609375 C 2.29541015625 36.96756744384766 1 43.38454055786133 1 50.00005722045898 C 1 56.61544418334961 2.29541015625 63.03241729736328 4.850250244140625 69.07273864746094 C 7.318145751953125 74.90748596191406 10.85135650634766 80.14784240722656 15.35174560546875 84.64823150634766 C 19.85213470458984 89.14863586425781 25.09249114990234 92.68184661865234 30.92725372314453 95.14974212646484 C 36.96757125854492 97.70456695556641 43.38454437255859 98.99997711181641 49.99993133544922 98.99997711181641 C 56.61531829833984 98.99997711181641 63.03229141235352 97.70456695556641 69.07260894775391 95.14974212646484 C 74.90737152099609 92.68184661865234 80.14773559570312 89.14863586425781 84.64811706542969 84.64823150634766 C 89.14850616455078 80.14784240722656 92.68171691894531 74.90748596191406 95.14961242675781 69.07273864746094 C 97.70445251464844 63.03241729736328 98.99986267089844 56.61544418334961 98.99986267089844 49.99992752075195 C 98.99986267089844 43.38454055786133 97.70445251464844 36.96756744384766 95.14961242675781 30.92724609375 C 92.68171691894531 25.09248352050781 89.14850616455078 19.85212707519531 84.64811706542969 15.35173797607422 C 80.14773559570312 10.85134887695312 74.90737152099609 7.318138122558594 69.07260894775391 4.850242614746094 C 63.03229141235352 2.295402526855469 56.61531829833984 0.9999923706054688 49.99993133544922 0.9999923706054688 M 49.99993133544922 -7.62939453125e-06 C 77.6141357421875 -7.62939453125e-06 99.99986267089844 22.38572692871094 99.99986267089844 49.99992752075195 L 99.99986267089844 50.00005722045898 C 99.99986267089844 77.6142578125 77.6141357421875 99.99997711181641 49.99993133544922 99.99997711181641 C 22.38573455810547 99.99997711181641 0 77.6142578125 0 50.00005722045898 L 0 49.99992752075195 C 0 22.38572692871094 22.38573455810547 -7.62939453125e-06 49.99993133544922 -7.62939453125e-06 Z" stroke="none" fill="#fff"/>
                  </g>
                </g>
                <g id="Rectángulo_400907" data-name="Rectángulo 400907" transform="translate(0)" fill="none" stroke="#fff" stroke-width="1">
                  <rect width="100" height="100" rx="50" stroke="none"/>
                  <rect x="0.5" y="0.5" width="99" height="99" rx="49.5" fill="none"/>
                </g>
              </g>
            </g>
          </g>
        </g>
      </g>
    </g>
    <g id="farm_804583" transform="translate(347.035 20112.322)">
      <g id="Grupo_1200611" data-name="Grupo 1200611" transform="translate(23.01 8.912)">
        <rect id="Rectángulo_408853" data-name="Rectángulo 408853" width="15.594" height="16.228" transform="translate(14.453 6.466)" fill="#f4511e"/>
        <path id="Trazado_1036788" data-name="Trazado 1036788" d="M197.381,76.615V92.842H182.928V76.615l2.282-3.423,3.169-1.95,1.775-1.093,4.944,3.043Z" transform="translate(-182.928 -70.149)" fill="#f4511e"/>
      </g>
      <path id="Trazado_1036789" data-name="Trazado 1036789" d="M212.974,166.321v10.6H182.928v-5.3c1.1.039,2.2.119,3.282.24a43.592,43.592,0,0,1,10.424,2.48q.371-.291.747-.572A43.8,43.8,0,0,1,212.974,166.321Z" transform="translate(-159.918 -145.312)" fill="#d84315"/>
      <rect id="Rectángulo_408854" data-name="Rectángulo 408854" width="6.085" height="11.156" transform="translate(27.194 20.449)" fill="#fff"/>
      <path id="Trazado_1036790" data-name="Trazado 1036790" d="M250.862,76.615V79.15h-16.95l-2.727-4.09-4.918-3.026v-.792l1.775-1.093,4.944,3.043,2.282,3.423Z" transform="translate(-197.806 -61.237)" fill="#d84315"/>
      <path id="Trazado_1036791" data-name="Trazado 1036791" d="M261.258,70.149H246.425v.468l4.184,2.575,2.282,3.423h15.594L266.2,73.192Z" transform="translate(-215.428 -61.237)" fill="#b39a7c"/>
      <path id="Trazado_1036792" data-name="Trazado 1036792" d="M222.273,212.492v3.7h-6.085v-4.946A43.251,43.251,0,0,1,222.273,212.492Z" transform="translate(-188.994 -184.582)" fill="#d8d7da"/>
      <circle id="Elipse_12247" data-name="Elipse 12247" cx="4.437" cy="4.437" r="4.437" transform="translate(4.881 4.982)" fill="#f4511e"/>
      <path id="SVGCleanerId_0" d="M219.409,175.976v41.709H177.891c0-.105,0-.21,0-.317a41.44,41.44,0,0,1,41.393-41.393Z" transform="translate(-155.513 -153.751)" fill="#9ccc65"/>
      <path id="Trazado_1036793" data-name="Trazado 1036793" d="M42.454,231.5a41.446,41.446,0,0,0-4.03,3.879q-.93,1.021-1.789,2.1a33.757,33.757,0,0,0-30.589,5.585v-9.142a41.083,41.083,0,0,1,16.072-5.284,41.667,41.667,0,0,1,9.18,0A41.079,41.079,0,0,1,42.454,231.5Z" transform="translate(-5.285 -199.57)" fill="#d4e157"/>
      <g id="Grupo_1200612" data-name="Grupo 1200612" transform="translate(22.376 22.224)">
        <path id="SVGCleanerId_0_1_" d="M219.409,175.976v41.709H177.891c0-.105,0-.21,0-.317a41.44,41.44,0,0,1,41.393-41.393Z" transform="translate(-177.889 -175.975)" fill="#9ccc65"/>
      </g>
      <path id="Trazado_1036794" data-name="Trazado 1036794" d="M254.653,216.291v36.637H218.205c0-.105,0-.212,0-.317a36.362,36.362,0,0,1,36.322-36.322Z" transform="translate(-190.757 -188.995)" fill="#7cb342"/>
      <path id="Trazado_1036795" data-name="Trazado 1036795" d="M272.275,236.45v34.1H238.363c0-.105,0-.212,0-.317a33.824,33.824,0,0,1,33.786-33.786Z" transform="translate(-208.379 -206.618)" fill="#9ccc65"/>
      <path id="Trazado_1036796" data-name="Trazado 1036796" d="M307.519,276.765V305.8H278.68c0-.105,0-.21,0-.317a28.748,28.748,0,0,1,28.715-28.715Z" transform="translate(-243.623 -241.862)" fill="#7cb342"/>
      <path id="Trazado_1036797" data-name="Trazado 1036797" d="M325.14,296.922v26.5h-26.3c0-.105,0-.21,0-.317a26.21,26.21,0,0,1,26.18-26.18Z" transform="translate(-261.245 -259.484)" fill="#9ccc65"/>
      <path id="Trazado_1036798" data-name="Trazado 1036798" d="M360.384,337.237v21.424H339.152c0-.105,0-.212,0-.317a21.132,21.132,0,0,1,21.108-21.108Z" transform="translate(-296.488 -294.728)" fill="#7cb342"/>
      <path id="Trazado_1036799" data-name="Trazado 1036799" d="M378.007,357.394v18.889h-18.7c0-.105,0-.212,0-.317a18.594,18.594,0,0,1,18.573-18.573Z" transform="translate(-314.111 -312.349)" fill="#9ccc65"/>
      <path id="Trazado_1036800" data-name="Trazado 1036800" d="M413.251,397.709v13.817H399.626c0-.105,0-.21,0-.317a13.518,13.518,0,0,1,13.5-13.5Z" transform="translate(-349.355 -347.593)" fill="#7cb342"/>
      <path id="Trazado_1036801" data-name="Trazado 1036801" d="M430.873,417.867v11.282H419.785c0-.105-.005-.21-.005-.317a10.967,10.967,0,0,1,10.966-10.966Z" transform="translate(-366.977 -365.216)" fill="#9ccc65"/>
      <path id="Trazado_1036802" data-name="Trazado 1036802" d="M38.424,270.622q-.93,1.021-1.789,2.1a33.757,33.757,0,0,0-30.589,5.585v-3.145A36.3,36.3,0,0,1,37.382,270.3Z" transform="translate(-5.285 -234.813)" fill="#c0ca33"/>
      <g id="Grupo_1200613" data-name="Grupo 1200613" transform="translate(0.761 36.423)">
        <path id="Trazado_1036803" data-name="Trazado 1036803" d="M36.635,290.348a41.432,41.432,0,0,0-3.058,4.4q-.683,1.133-1.3,2.312a26.166,26.166,0,0,0-26.235,9.526V295.933a33.758,33.758,0,0,1,30.589-5.585Z" transform="translate(-6.046 -288.86)" fill="#d4e157"/>
        <path id="Trazado_1036804" data-name="Trazado 1036804" d="M51.5,409.994a41.324,41.324,0,0,0-1.149,4.965q-.207,1.246-.34,2.514a11.231,11.231,0,0,0-1.175-.063,10.953,10.953,0,0,0-8.994,4.691H31.354A18.578,18.578,0,0,1,51.5,409.994Z" transform="translate(-28.171 -394.589)" fill="#d4e157"/>
      </g>
      <path id="Trazado_1036805" data-name="Trazado 1036805" d="M33.577,329.994q-.683,1.133-1.3,2.312a26.166,26.166,0,0,0-26.235,9.526v-3.86a28.974,28.974,0,0,1,7.849-5.777,28.367,28.367,0,0,1,12.816-3.022,28.788,28.788,0,0,1,6.109.657Z" transform="translate(-5.286 -287.679)" fill="#c0ca33"/>
      <path id="Trazado_1036806" data-name="Trazado 1036806" d="M32.281,349.929a41.044,41.044,0,0,0-2.094,4.754q-.443,1.206-.813,2.446A18.579,18.579,0,0,0,9.23,369.235H6.046v-9.78a26.165,26.165,0,0,1,26.235-9.526Z" transform="translate(-5.285 -305.301)" fill="#d4e157"/>
      <g id="Grupo_1200614" data-name="Grupo 1200614" transform="translate(1.249 49.101)">
        <path id="Trazado_1036807" data-name="Trazado 1036807" d="M33.58,389.927q-.443,1.206-.813,2.446a18.578,18.578,0,0,0-20.145,12.106h-2.7l.309-.858A21.175,21.175,0,0,1,30.1,389.646a21.441,21.441,0,0,1,3.026.217Z" transform="translate(-9.927 -389.646)" fill="#c0ca33"/>
        <path id="Trazado_1036808" data-name="Trazado 1036808" d="M87.841,450.2q-.207,1.246-.34,2.514a11.239,11.239,0,0,0-1.175-.063,10.953,10.953,0,0,0-8.994,4.691H74.239l1.015-1.453a13.52,13.52,0,0,1,11.072-5.773,14,14,0,0,1,1.44.077Z" transform="translate(-66.149 -442.511)" fill="#c0ca33"/>
      </g>
      <path id="Trazado_1036809" data-name="Trazado 1036809" d="M108.775,474.651c0,.107,0,.212,0,.317H98.831a10.953,10.953,0,0,1,8.994-4.691,11.239,11.239,0,0,1,1.175.063A41.4,41.4,0,0,0,108.775,474.651Z" transform="translate(-86.399 -411.034)" fill="#d4e157"/>
      <g id="Grupo_1200615" data-name="Grupo 1200615" transform="translate(0.178 15.188)">
        <rect id="Rectángulo_408855" data-name="Rectángulo 408855" width="6.339" height="1.902" transform="translate(41.912 2.789)" fill="#fff"/>
        <rect id="Rectángulo_408856" data-name="Rectángulo 408856" width="5.325" height="1.902" transform="translate(27.396)" fill="#fff"/>
        <path id="Trazado_1036810" data-name="Trazado 1036810" d="M2.58,290.109l-1.165-1.5a34.524,34.524,0,0,1,11.54-5.892l.532,1.826A32.638,32.638,0,0,0,2.58,290.109Zm29.726-5.427a32.636,32.636,0,0,0-5.4-1.173l.244-1.886a34.554,34.554,0,0,1,5.72,1.242Zm-17.033-.608-.428-1.853a34.759,34.759,0,0,1,6.449-.86l.074,1.9A32.865,32.865,0,0,0,15.274,284.073Zm9.79-.751c-.609-.045-1.231-.072-1.846-.082l.032-1.9c.651.011,1.308.04,1.953.087Z" transform="translate(-1.415 -261.049)" fill="#fff"/>
        <path id="Trazado_1036811" data-name="Trazado 1036811" d="M26.032,415.814l-1.789-.644a19.521,19.521,0,0,1,1.731-3.6l1.62,1A17.586,17.586,0,0,0,26.032,415.814Zm2.583-4.732-1.51-1.155a19.6,19.6,0,0,1,8.4-6.342l.695,1.77A17.7,17.7,0,0,0,28.615,411.081Zm9.294-6.3-.509-1.832a19.429,19.429,0,0,1,1.951-.434l.317,1.875A17.565,17.565,0,0,0,37.91,404.783Zm7.151-.469a17.747,17.747,0,0,0-2.442-.17h-.005c-.384,0-.772.013-1.153.038l-.124-1.9c.423-.028.853-.042,1.277-.042h.006a19.681,19.681,0,0,1,2.7.188Z" transform="translate(-21.372 -366.745)" fill="#fff"/>
        <path id="Trazado_1036812" data-name="Trazado 1036812" d="M230.8,263.954c0-.109,0-.219,0-.328a34.505,34.505,0,0,1,2.3-12.427l1.775.682a32.612,32.612,0,0,0-2.171,11.745c0,.1,0,.2,0,.306Zm4.783-13.78-1.734-.782a35.1,35.1,0,0,1,9.362-12.361l1.224,1.455A33.2,33.2,0,0,0,235.588,250.174Zm10.3-12.836-1.141-1.522c.52-.39,1.057-.769,1.6-1.127l1.053,1.583C246.885,236.611,246.378,236.97,245.886,237.338Zm3.073-2.045-.963-1.64a34.385,34.385,0,0,1,12.2-4.354l.291,1.879A32.491,32.491,0,0,0,248.959,235.293Zm13.363-4.345-.185-1.893c1.123-.11,2.269-.165,3.4-.165l.155,0-.056,1.9h-.1C264.467,230.791,263.384,230.843,262.322,230.947Z" transform="translate(-201.949 -215.197)" fill="#fff"/>
        <path id="Trazado_1036813" data-name="Trazado 1036813" d="M351.751,369.686c0-.109,0-.219,0-.328a19.53,19.53,0,0,1,.633-4.942l1.84.482a17.613,17.613,0,0,0-.572,4.46c0,.1,0,.2,0,.306Zm3.016-6.506-1.78-.669a19.52,19.52,0,0,1,2.53-4.673l1.534,1.124A17.616,17.616,0,0,0,354.767,363.18Zm3.423-5.616-1.412-1.274a19.773,19.773,0,0,1,1.411-1.413l1.276,1.41A17.864,17.864,0,0,0,358.19,357.564Zm2.673-2.416-1.126-1.533a19.5,19.5,0,0,1,4.669-2.534l.671,1.78A17.593,17.593,0,0,0,360.862,355.147Zm5.93-2.835-.484-1.839a19.522,19.522,0,0,1,4.963-.639l.155,0-.056,1.9h-.1A17.63,17.63,0,0,0,366.793,352.312Z" transform="translate(-307.681 -320.929)" fill="#fff"/>
      </g>
      <path id="Trazado_1036814" data-name="Trazado 1036814" d="M406,2.508a.952.952,0,0,1,.951.951h1.9a.951.951,0,1,1,1.9,0h1.9a5.12,5.12,0,0,0-9.508,0h1.9A.952.952,0,0,1,406,2.508Z" transform="translate(-352.439 -0.441)"/>
      <path id="Trazado_1036815" data-name="Trazado 1036815" d="M439.262,69.645A2.856,2.856,0,0,0,436.41,72.5h1.9a.951.951,0,1,1,1.9,0h1.9a.951.951,0,0,1,1.9,0h1.9a66.341,66.341,0,0,0-6.656-2.852Z" transform="translate(-381.515 -60.796)"/>
      <path id="Trazado_1036816" data-name="Trazado 1036816" d="M44.245,3.826l-.425-1.854a9.265,9.265,0,0,0-1.968.693l.83,1.711A7.359,7.359,0,0,1,44.245,3.826Z" transform="translate(-36.587 -1.636)"/>
      <path id="Trazado_1036817" data-name="Trazado 1036817" d="M18.8,17.822l-1.189-1.484a9.416,9.416,0,0,0-1.472,1.475L17.628,19A7.487,7.487,0,0,1,18.8,17.822Z" transform="translate(-14.111 -14.195)"/>
      <path id="Trazado_1036818" data-name="Trazado 1036818" d="M75.633,2.185,76.053.33A9.34,9.34,0,0,0,73.994.1h-.012L73.994,2A7.445,7.445,0,0,1,75.633,2.185Z" transform="translate(-64.676)"/>
      <path id="Trazado_1036819" data-name="Trazado 1036819" d="M129.663,87.586l-1.855-.419a7.362,7.362,0,0,1-.545,1.566l1.714.824A9.268,9.268,0,0,0,129.663,87.586Z" transform="translate(-111.254 -76.114)"/>
      <path id="Trazado_1036820" data-name="Trazado 1036820" d="M7.359,100.6a9.367,9.367,0,0,0,1.112,1.763l1.485-1.188a7.438,7.438,0,0,1-.886-1.4Z" transform="translate(-6.433 -87.134)"/>
      <path id="Trazado_1036821" data-name="Trazado 1036821" d="M29.682,122.868l.827-1.712a7.445,7.445,0,0,1-1.405-.885l-1.187,1.486A9.36,9.36,0,0,0,29.682,122.868Z" transform="translate(-24.406 -105.054)"/>
      <path id="Trazado_1036822" data-name="Trazado 1036822" d="M102.146,8.5a9.367,9.367,0,0,0-1.766-1.109l-.825,1.713a7.447,7.447,0,0,1,1.406.883Z" transform="translate(-87.032 -6.374)"/>
      <path id="Trazado_1036823" data-name="Trazado 1036823" d="M112.1,110.8a7.5,7.5,0,0,1-1.172,1.178l1.191,1.482a9.4,9.4,0,0,0,1.47-1.477Z" transform="translate(-96.977 -96.778)"/>
      <path id="Trazado_1036824" data-name="Trazado 1036824" d="M4.235,42.92l-1.713-.826a9.271,9.271,0,0,0-.689,1.97l1.854.421A7.371,7.371,0,0,1,4.235,42.92Z" transform="translate(-1.602 -36.711)"/>
      <path id="Trazado_1036825" data-name="Trazado 1036825" d="M58.026,131.672l-.423,1.854a9.332,9.332,0,0,0,2.072.232H59.7l-.01-1.9h-.015A7.426,7.426,0,0,1,58.026,131.672Z" transform="translate(-50.357 -115.021)"/>
      <path id="Trazado_1036826" data-name="Trazado 1036826" d="M120.982,30.493l1.71-.831a9.342,9.342,0,0,0-1.115-1.761l-1.483,1.19A7.448,7.448,0,0,1,120.982,30.493Z" transform="translate(-104.988 -24.303)"/>
      <path id="Trazado_1036827" data-name="Trazado 1036827" d="M131.73,59.626l1.9,0a9.343,9.343,0,0,0-.237-2.072l-1.853.427A7.437,7.437,0,0,1,131.73,59.626Z" transform="translate(-114.996 -50.223)"/>
      <path id="Trazado_1036828" data-name="Trazado 1036828" d="M2.088,75.873A7.42,7.42,0,0,1,1.9,74.224H0A9.33,9.33,0,0,0,.234,76.3Z" transform="translate(0 -64.799)"/>
      <path id="Trazado_1036829" data-name="Trazado 1036829" d="M87.358,127.788l.428,1.853a9.279,9.279,0,0,0,1.967-.7l-.832-1.71A7.381,7.381,0,0,1,87.358,127.788Z" transform="translate(-76.369 -111.142)"/>
      <path id="Trazado_1036830" data-name="Trazado 1036830" d="M36.631,31.346a5.388,5.388,0,1,0,5.388,5.388A5.394,5.394,0,0,0,36.631,31.346Zm0,8.874a3.486,3.486,0,1,1,3.486-3.486A3.49,3.49,0,0,1,36.631,40.22Z" transform="translate(-27.313 -27.315)"/>
      <path id="Trazado_1036831" data-name="Trazado 1036831" d="M.082,374.28l1.5,1.168a25.584,25.584,0,0,1,8.1-6.813l-.894-1.678A27.492,27.492,0,0,0,.082,374.28Z" transform="translate(-0.072 -320.71)"/>
      <path id="Trazado_1036832" data-name="Trazado 1036832" d="M3.213,230.405a39.973,39.973,0,0,1,15.157-5.1l-.235-1.887a41.86,41.86,0,0,0-15.875,5.339Z" transform="translate(-1.977 -195.228)"/>
      <path id="Trazado_1036833" data-name="Trazado 1036833" d="M92.637,484.4l1.558,1.09a10.061,10.061,0,0,1,2.2-2.28l-1.143-1.52A11.953,11.953,0,0,0,92.637,484.4Z" transform="translate(-80.984 -421.015)"/>
      <path id="Trazado_1036834" data-name="Trazado 1036834" d="M113.857,83.689l-1.074-1.57q-.768.525-1.508,1.081v-13.4h13.692v6.578a42,42,0,0,0-10.557,4.677l1,1.617a40.06,40.06,0,0,1,13.775-5.339l-.349-1.869q-.991.185-1.968.417V68.566l-2.557-3.836-5.351-3.293H103.368l-.269-.166-5.62,3.459-2.557,3.836v12.78q-.317,0-.634-.005c-1.109,0-2.23.044-3.331.13l.149,1.9c1.053-.082,2.124-.124,3.183-.124a40.732,40.732,0,0,1,4.482.248,40.154,40.154,0,0,1,9.45,2.23,42.463,42.463,0,0,0-8.863,11.311,27.234,27.234,0,0,0-5.068-.477A26.872,26.872,0,0,0,83.346,98.86l.769,1.739a24.985,24.985,0,0,1,10.172-2.142,25.313,25.313,0,0,1,4.166.347,42.242,42.242,0,0,0-3.829,12.97c-.113,0-.226-.005-.337-.005a11.791,11.791,0,0,0-5.4,1.294l.864,1.694a9.9,9.9,0,0,1,4.541-1.086l.139,0q-.138,1.7-.139,3.421c0,.114,0,.227,0,.339l1.9-.045c0-.1,0-.2,0-.294A40.473,40.473,0,0,1,113.857,83.689Zm-7.4-20.35h11.965l4.538,2.792,1.181,1.772H110.834l-2.115-3.173ZM96.823,81.418V69.142l2.007-3.01,4.269-2.627,4.269,2.627,2.007,3.01V84.124q-1.13-.432-2.282-.8V72.975H99.105v8.642l-.126-.015C98.265,81.522,97.545,81.461,96.823,81.418Zm8.367,1.351a42.057,42.057,0,0,0-4.184-.892v-7h4.184Z" transform="translate(-72.862 -53.476)"/>
      <path id="Trazado_1036835" data-name="Trazado 1036835" d="M491.037,168.463l.089,1.9c.634-.03,1.278-.045,1.914-.045h.1l.056-1.9-.155,0C492.374,168.416,491.7,168.432,491.037,168.463Z" transform="translate(-429.271 -147.143)"/>
      <path id="Trazado_1036836" data-name="Trazado 1036836" d="M460.524,171.97c.612-.085,1.232-.157,1.844-.214l-.175-1.894c-.641.059-1.291.135-1.932.224Z" transform="translate(-402.366 -148.408)"/>
      <path id="Trazado_1036837" data-name="Trazado 1036837" d="M291.718,466.111a27.266,27.266,0,0,0-.443,4.9c0,.114,0,.227,0,.339l1.9-.045c0-.1,0-.2,0-.294a25.371,25.371,0,0,1,.412-4.555Z" transform="translate(-254.636 -407.392)"/>
      <path id="Trazado_1036838" data-name="Trazado 1036838" d="M453.3,290.212l.473,1.842a25.227,25.227,0,0,1,6.276-.79h.1l.056-1.9-.155,0A27.13,27.13,0,0,0,453.3,290.212Z" transform="translate(-396.28 -252.876)"/>
      <path id="Trazado_1036839" data-name="Trazado 1036839" d="M405.021,300.573a27.081,27.081,0,0,0-4.786,2.15l.944,1.651a25.169,25.169,0,0,1,4.449-2Z" transform="translate(-349.891 -262.676)"/>
      <path id="Trazado_1036840" data-name="Trazado 1036840" d="M374.272,327.077l1.172,1.5c.479-.375.978-.737,1.482-1.076l-1.061-1.579C375.323,326.284,374.787,326.673,374.272,327.077Z" transform="translate(-327.193 -284.835)"/>
      <path id="Trazado_1036841" data-name="Trazado 1036841" d="M298.18,358.486l1.841.478a25.187,25.187,0,0,1,7.5-12.354l-1.277-1.409A27.083,27.083,0,0,0,298.18,358.486Z" transform="translate(-260.673 -301.69)"/>
      <path id="Trazado_1036842" data-name="Trazado 1036842" d="M413.321,465.248a11.819,11.819,0,0,0-1.1,5.006c0,.118,0,.235.006.352l1.9-.069c0-.094,0-.188,0-.282a9.93,9.93,0,0,1,.923-4.206Z" transform="translate(-360.369 -406.638)"/>
      <path id="Trazado_1036843" data-name="Trazado 1036843" d="M476.39,410.941l.613,1.8a10,10,0,0,1,3.232-.533h.1l.056-1.9-.155,0A11.9,11.9,0,0,0,476.39,410.941Z" transform="translate(-416.466 -358.607)"/>
      <path id="Trazado_1036844" data-name="Trazado 1036844" d="M429.129,425.625l1.561,1.086a10.115,10.115,0,0,1,3.412-3.072l-.916-1.667A12.033,12.033,0,0,0,429.129,425.625Z" transform="translate(-375.15 -368.805)"/>
    </g>
  </g>
</svg>
