<svg xmlns="http://www.w3.org/2000/svg" xmlns:xlink="http://www.w3.org/1999/xlink" width="118" height="118" viewBox="0 0 118 118">
  <defs>
    <filter id="Trazado_896985" x="0" y="0" width="118" height="118" filterUnits="userSpaceOnUse">
      <feOffset dy="3" input="SourceAlpha"/>
      <feGaussianBlur stdDeviation="3" result="blur"/>
      <feFlood flood-opacity="0.161"/>
      <feComposite operator="in" in2="blur"/>
      <feComposite in="SourceGraphic"/>
    </filter>
  </defs>
  <g id="Grupo_1199971" data-name="Grupo 1199971" transform="translate(-1213.008 -1651.404)">
    <g id="Grupo_1198730" data-name="Grupo 1198730" transform="translate(-0.102 -2677.07)">
      <g id="Grupo_1181849" data-name="Grupo 1181849" transform="translate(1222.109 4334.475)">
        <g id="Grupo_1111318" data-name="Grupo 1111318" transform="translate(0)">
          <g id="Grupo_1109826" data-name="Grupo 1109826" transform="translate(0 0)">
            <g id="Grupo_1098742" data-name="Grupo 1098742">
              <g transform="matrix(1, 0, 0, 1, -9, -6)" filter="url(#Trazado_896985)">
                <g id="Trazado_896985-2" data-name="Trazado 896985" transform="translate(9 6)" fill="#9ad354" opacity="0.859">
                  <path d="M 49.99993515014648 99.5 C 43.31726837158203 99.5 36.83476257324219 98.19129943847656 30.73248100280762 95.61025238037109 C 24.83812141418457 93.11714172363281 19.54434776306152 89.54795837402344 14.99820137023926 85.00179290771484 C 10.45204162597656 80.45565032958984 6.88285493850708 75.16187286376953 4.389748573303223 69.26751708984375 C 1.808695197105408 63.16523742675781 0.5000017881393433 56.6827278137207 0.5000017881393433 50.00006103515625 C 0.5000017881393433 43.31726455688477 1.808695197105408 36.83475494384766 4.389748573303223 30.73247528076172 C 6.88285493850708 24.83811569213867 10.45204162597656 19.54434204101562 14.99820137023926 14.99819660186768 C 19.54434776306152 10.45203590393066 24.83812141418457 6.88284969329834 30.73248100280762 4.389742851257324 C 36.83476257324219 1.808689475059509 43.31726837158203 0.4999961853027344 49.99993515014648 0.4999961853027344 C 56.68260192871094 0.4999961853027344 63.16510772705078 1.808689475059509 69.26738739013672 4.389742851257324 C 75.16175079345703 6.88284969329834 80.45552062988281 10.45203590393066 85.00167083740234 14.99819660186768 C 89.54782867431641 19.54434204101562 93.11701202392578 24.83811569213867 95.61012268066406 30.73247528076172 C 98.19117736816406 36.83475494384766 99.49987030029297 43.31726455688477 99.49987030029297 49.99993133544922 C 99.49987030029297 56.6827278137207 98.19117736816406 63.16523742675781 95.61012268066406 69.26751708984375 C 93.11701202392578 75.16187286376953 89.54782867431641 80.45565032958984 85.00167083740234 85.00179290771484 C 80.45552062988281 89.54795837402344 75.16175079345703 93.11714172363281 69.26738739013672 95.61025238037109 C 63.16510772705078 98.19129943847656 56.68260192871094 99.5 49.99993515014648 99.5 Z" stroke="none"/>
                  <path d="M 49.99993515014648 0.9999923706054688 C 43.38454818725586 0.9999923706054688 36.96757507324219 2.29541015625 30.92725372314453 4.850250244140625 C 25.09249877929688 7.318145751953125 19.85213470458984 10.85135650634766 15.35174560546875 15.35174560546875 C 10.85136413574219 19.85212707519531 7.318145751953125 25.09249114990234 4.850257873535156 30.92724609375 C 2.295417785644531 36.96757125854492 1 43.38454437255859 1 50.00006103515625 C 1 56.61544799804688 2.295417785644531 63.03242111206055 4.850257873535156 69.07273864746094 C 7.318145751953125 74.90750122070312 10.85136413574219 80.14786529541016 15.35174560546875 84.64824676513672 C 19.85213470458984 89.14863586425781 25.09249877929688 92.68184661865234 30.92725372314453 95.14974212646484 C 36.96757507324219 97.70458221435547 43.38454818725586 99 49.99993515014648 99 C 56.61532211303711 99 63.03229522705078 97.70458221435547 69.07261657714844 95.14974212646484 C 74.90737915039062 92.68184661865234 80.14773559570312 89.14863586425781 84.64812469482422 84.64824676513672 C 89.14850616455078 80.14786529541016 92.68172454833984 74.90750122070312 95.14961242675781 69.07273864746094 C 97.70445251464844 63.03242111206055 98.99987030029297 56.61544799804688 98.99987030029297 49.99993133544922 C 98.99987030029297 43.38454437255859 97.70445251464844 36.96757125854492 95.14961242675781 30.92724609375 C 92.68172454833984 25.09249114990234 89.14850616455078 19.85212707519531 84.64812469482422 15.35174560546875 C 80.14773559570312 10.85135650634766 74.90737915039062 7.318145751953125 69.07261657714844 4.850250244140625 C 63.03229522705078 2.29541015625 56.61532211303711 0.9999923706054688 49.99993515014648 0.9999923706054688 M 49.99993515014648 -7.62939453125e-06 C 77.6141357421875 -7.62939453125e-06 99.99987030029297 22.38572692871094 99.99987030029297 49.99993133544922 L 99.99987030029297 50.00006103515625 C 99.99987030029297 77.61426544189453 77.6141357421875 100 49.99993515014648 100 C 22.38573455810547 100 0 77.61426544189453 0 50.00006103515625 L 0 49.99993133544922 C 0 22.38572692871094 22.38573455810547 -7.62939453125e-06 49.99993515014648 -7.62939453125e-06 Z" stroke="none" fill="#fff"/>
                </g>
              </g>
              <g id="Rectángulo_400907" data-name="Rectángulo 400907" transform="translate(0)" fill="none" stroke="#fff" stroke-width="1">
                <rect width="100" height="100" rx="50" stroke="none"/>
                <rect x="0.5" y="0.5" width="99" height="99" rx="49.5" fill="none"/>
              </g>
            </g>
          </g>
        </g>
      </g>
    </g>
    <g id="gardener_2814071_1_" data-name="gardener_2814071 (1)" transform="translate(1197.612 1669.89)">
      <g id="Grupo_1199969" data-name="Grupo 1199969" transform="translate(45.245 1.082)">
        <path id="Trazado_1032169" data-name="Trazado 1032169" d="M157.675,376.12l-12.625-7.956-2.471-1.376h-4.7l-2.615,1.376L122.64,376.12A4.592,4.592,0,0,0,120.5,380v6a.878.878,0,0,0,.878.878h4.946l.614-.894,1.5-.393,25.092.834.461.452h4.946a.878.878,0,0,0,.878-.878v-6A4.592,4.592,0,0,0,157.675,376.12Z" transform="translate(-110.569 -314.966)" fill="#fedf30"/>
        <g id="Grupo_1199967" data-name="Grupo 1199967" transform="translate(9.49 18.313)">
          <path id="Trazado_1032170" data-name="Trazado 1032170" d="M117.457,134.469h40.487v15.956H117.457Z" transform="translate(-117.457 -134.469)" fill="#7a6d79"/>
        </g>
        <path id="Trazado_1032171" data-name="Trazado 1032171" d="M185.029,7.5a12.782,12.782,0,0,0-12.182,8.919l4.84,2.951h16.054l3.472-2.948A12.782,12.782,0,0,0,185.029,7.5Z" transform="translate(-155.368 -7.499)" fill="#fee45a"/>
        <path id="Trazado_1032172" data-name="Trazado 1032172" d="M180.472,17.917A12.775,12.775,0,0,1,191.19,9.084a12.779,12.779,0,0,0-18.343,7.334l4.84,2.951h2.419A12.7,12.7,0,0,1,180.472,17.917Z" transform="translate(-155.368 -7.499)" fill="#fedf30"/>
        <g id="XMLID_1174_" transform="translate(16.749 8.138)">
          <g id="Grupo_1199968" data-name="Grupo 1199968">
            <path id="Trazado_1032173" data-name="Trazado 1032173" d="M193.446,67.7l.164,6.86H167.787l.164-6.86a12.813,12.813,0,0,1,.565-3,95.21,95.21,0,0,1,24.366,0A12.8,12.8,0,0,1,193.446,67.7Z" transform="translate(-167.787 -63.922)" fill="#d77f4a"/>
          </g>
        </g>
        <path id="Trazado_1032174" data-name="Trazado 1032174" d="M175.577,69.626a12.726,12.726,0,0,1,1.5-5.2q-4.278.163-8.561.709a12.816,12.816,0,0,0-.565,3l-.164,6.86h7.661Z" transform="translate(-151.038 -56.211)" fill="#c86d36"/>
        <path id="Trazado_1032175" data-name="Trazado 1032175" d="M324.609,211.831a3.217,3.217,0,0,0,3.217-3.217v-2.365a3.217,3.217,0,0,0-3.217-3.217H314.434v8.8h10.175Z" transform="translate(-276.533 -174.829)" fill="#f6a96c"/>
        <path id="Trazado_1032176" data-name="Trazado 1032176" d="M114.069,211.831h-2.521a3.217,3.217,0,0,1-3.217-3.217v-2.365a3.217,3.217,0,0,1,3.217-3.217h7.609v8.8h-5.088Z" transform="translate(-100.158 -174.829)" fill="#ea9b58"/>
        <path id="Trazado_1032177" data-name="Trazado 1032177" d="M232.671,340.039a4.893,4.893,0,1,1-9.785,0v-8.493h9.785v8.493Z" transform="translate(-198.19 -284.807)" fill="#ffbd86"/>
        <path id="Trazado_1032178" data-name="Trazado 1032178" d="M146.909,369.335l-1.859-1.171-.485-.27-1.986-1.106h-4.7l-2.615,1.376L122.64,376.12A4.592,4.592,0,0,0,120.5,380v6a.878.878,0,0,0,.878.878h4.014v-4.332a4.592,4.592,0,0,1,2.143-3.884l4.243-2.674a2.932,2.932,0,0,1,3.429.195,7.736,7.736,0,0,0,5.062,1.786,7.86,7.86,0,0,0,7.668-7.9v-.088Z" transform="translate(-110.569 -314.966)" fill="#fed402"/>
        <path id="Trazado_1032179" data-name="Trazado 1032179" d="M232.671,340.039a4.893,4.893,0,1,1-9.785,0v-8.493h9.785v8.493Z" transform="translate(-198.19 -284.807)" fill="#ffbd86"/>
        <path id="Trazado_1032180" data-name="Trazado 1032180" d="M225.819,331.546h-2.933v8.493a4.893,4.893,0,0,0,4.893,4.893c.133,0,.265-.007.4-.017a4.876,4.876,0,0,1-1.4-3.426v-.744a1.06,1.06,0,0,1,1.067-1.056h.011a18.611,18.611,0,0,0,4.82-.633v-7.509Z" transform="translate(-198.19 -284.807)" fill="#f6a96c"/>
        <path id="Trazado_1032181" data-name="Trazado 1032181" d="M147.98,123.808v19.451a15.749,15.749,0,0,0,6.662,12.875l1.06-2.936,4.982,3.788,4.18,1.474a18.835,18.835,0,0,0,2.3.2,15.774,15.774,0,0,0,12.355-15.4l.125-19.451H147.98Z" transform="translate(-134.088 -107.032)" fill="#ffbd86"/>
        <path id="Trazado_1032182" data-name="Trazado 1032182" d="M156.624,143.777V124.326h23.015l0-.518H147.98v19.451a15.778,15.778,0,0,0,19.182,15.4A15.774,15.774,0,0,1,156.624,143.777Z" transform="translate(-134.088 -107.032)" fill="#f6a96c"/>
        <path id="Trazado_1032183" data-name="Trazado 1032183" d="M170.981,402.288h-4.839V390.966a.788.788,0,0,1,.366-.665l3.263-2.069a.788.788,0,0,1,1.21.665Z" transform="translate(-149.631 -333.211)" fill="#2ed1e2"/>
        <path id="Trazado_1032184" data-name="Trazado 1032184" d="M313.925,401.567h4.839v-10.6a.787.787,0,0,0-.366-.665l-3.263-2.069a.788.788,0,0,0-1.21.665Z" transform="translate(-276.098 -333.211)" fill="#2ed1e2"/>
        <path id="Trazado_1032185" data-name="Trazado 1032185" d="M188.551,471.289v-4.872a1,1,0,0,0-1-1H161.877a1,1,0,0,0-1,1v4.872Z" transform="translate(-145.126 -399.371)" fill="#6bd9e7"/>
        <path id="Trazado_1032186" data-name="Trazado 1032186" d="M110.08,109.419H52.423a.76.76,0,0,1-.76-.76v-1.28a2.523,2.523,0,0,1,1.81-2.424,96.8,96.8,0,0,1,55.564,0,2.523,2.523,0,0,1,1.8,2.422v1.285A.76.76,0,0,1,110.08,109.419Z" transform="translate(-51.663 -87.411)" fill="#fee45a"/>
        <path id="Trazado_1032187" data-name="Trazado 1032187" d="M68.481,107.257a97.794,97.794,0,0,1,34.788-3.823,96.683,96.683,0,0,0-49.8,1.524,2.523,2.523,0,0,0-1.81,2.424v1.28a.76.76,0,0,0,.76.76H66.685A2.52,2.52,0,0,1,68.481,107.257Z" transform="translate(-51.663 -87.415)" fill="#fedf30"/>
        <path id="Trazado_1032188" data-name="Trazado 1032188" d="M232.473,307.572H230.8a3.488,3.488,0,0,1-3.488-3.488v-.878a.442.442,0,0,1,.442-.442h7.769a.442.442,0,0,1,.442.442v.878A3.488,3.488,0,0,1,232.473,307.572Z" transform="translate(-201.973 -260.176)" fill="#f47c7c"/>
      </g>
      <g id="Grupo_1199970" data-name="Grupo 1199970" transform="translate(44.163 0)">
        <path id="Trazado_1032189" data-name="Trazado 1032189" d="M386.7,483.563a1.082,1.082,0,0,0-1.082,1.082v2.171a1.082,1.082,0,1,0,2.164,0v-2.171A1.082,1.082,0,0,0,386.7,483.563Z" transform="translate(-336.365 -413.816)"/>
        <path id="Trazado_1032190" data-name="Trazado 1032190" d="M184.271,484.267a1.082,1.082,0,0,0-1.082,1.082v.636a1.082,1.082,0,1,0,2.164,0v-.636A1.082,1.082,0,0,0,184.271,484.267Z" transform="translate(-163.137 -414.419)"/>
        <path id="Trazado_1032191" data-name="Trazado 1032191" d="M317.507,484.267a1.082,1.082,0,0,0-1.082,1.082v.636a1.082,1.082,0,1,0,2.163,0v-.636A1.082,1.082,0,0,0,317.507,484.267Z" transform="translate(-277.155 -414.419)"/>
        <path id="Trazado_1032192" data-name="Trazado 1032192" d="M102.924,17.583a101.994,101.994,0,0,0-14.086-3.094l-.105-1.564a13.764,13.764,0,0,0-.592-3.172,1.075,1.075,0,0,0-.049-.154A13.859,13.859,0,0,0,71.065.542a1.082,1.082,0,0,0,.6,2.079A11.689,11.689,0,0,1,85.4,8.716a96.693,96.693,0,0,0-21,0,11.711,11.711,0,0,1,3.465-4.2,1.082,1.082,0,0,0-1.3-1.727,13.868,13.868,0,0,0-4.851,6.814,1.054,1.054,0,0,0-.043.136,13.845,13.845,0,0,0-.595,3.182l-.105,1.56a103.979,103.979,0,0,0-14.222,3.1,3.622,3.622,0,0,0-2.589,3.462v1.28a1.844,1.844,0,0,0,1.842,1.842h7.648V29.41A4.285,4.285,0,0,0,52.336,32.5v2.365a4.3,4.3,0,0,0,4.3,4.3h1.524a16.749,16.749,0,0,0,.794,3.583A1.082,1.082,0,0,0,61,42.05a14.658,14.658,0,0,1-.782-4.741V24.171H89.593V37.309a14.687,14.687,0,0,1-26.586,8.609,1.082,1.082,0,1,0-1.752,1.27,16.907,16.907,0,0,0,7.6,5.841v.654l-2.232,1.406a1.868,1.868,0,0,0-1.821.1l-3.263,2.069a1.86,1.86,0,0,0-.868,1.579v0L56.74,61.32a5.644,5.644,0,0,0-2.648,4.8V73a1.082,1.082,0,1,0,2.164,0V66.12a3.492,3.492,0,0,1,1.639-2.97L60.675,61.4v5.124a2.076,2.076,0,0,0-.759,1.605V73a1.082,1.082,0,1,0,2.164,0V68.211H87.588V73a1.082,1.082,0,1,0,2.164,0V68.127a2.076,2.076,0,0,0-.759-1.605V61.4l2.781,1.753a3.492,3.492,0,0,1,1.639,2.97v.1a1.082,1.082,0,1,0,2.164,0v-.1a5.644,5.644,0,0,0-2.648-4.8l-3.935-2.48v0a1.86,1.86,0,0,0-.868-1.579l-3.263-2.069a1.868,1.868,0,0,0-1.821-.1l-2.232-1.406v-.591A16.894,16.894,0,0,0,91.653,39.165H93.32a4.3,4.3,0,0,0,4.3-4.3V32.5A4.285,4.285,0,0,0,96.3,29.41V24.171h7.359a1.844,1.844,0,0,0,1.842-1.842V21.044a3.622,3.622,0,0,0-2.58-3.46ZM78.644,53.741v2.573a3.811,3.811,0,0,1-7.622,0V53.7a16.791,16.791,0,0,0,7.622.039ZM62.838,66.048V59l2.675-1.7v8.746ZM86.829,59v7.05H84.154V57.3ZM81.99,56.985v9.063H67.677V56.985l1.182-.745v.074a5.974,5.974,0,0,0,11.949,0V56.24ZM63.238,13.071a11.679,11.679,0,0,1,.332-2.081,94.524,94.524,0,0,1,22.671,0,11.643,11.643,0,0,1,.333,2.079L86.65,14.2a96.136,96.136,0,0,0-11.744-.729H74.9a96.621,96.621,0,0,0-11.738.726ZM54.5,34.866V32.5a2.138,2.138,0,0,1,2.135-2.135h1.42V37h-1.42A2.138,2.138,0,0,1,54.5,34.866ZM58.055,28.2h-1.42a4.3,4.3,0,0,0-.819.079V24.171h2.239V28.2Zm37.4,6.664A2.138,2.138,0,0,1,93.321,37H91.756V30.366h1.564A2.138,2.138,0,0,1,95.456,32.5Zm-1.316-6.585a4.3,4.3,0,0,0-.819-.079H91.756V24.171h2.383v4.111Zm9.2-6.274H46.327v-.959a1.447,1.447,0,0,1,1.031-1.386A101.6,101.6,0,0,1,62.1,16.514l25.607,0a99.66,99.66,0,0,1,14.6,3.141,1.448,1.448,0,0,1,1.028,1.385v.964Z" transform="translate(-44.163 0)"/>
        <path id="Trazado_1032193" data-name="Trazado 1032193" d="M196.941,223.82v1.7a1.082,1.082,0,0,0,2.163,0v-1.7a1.082,1.082,0,1,0-2.163,0Z" transform="translate(-174.905 -190.611)"/>
        <path id="Trazado_1032194" data-name="Trazado 1032194" d="M180.977,194.7a1.082,1.082,0,1,0,1.476,1.582,2.025,2.025,0,0,1,3.228,0,1.082,1.082,0,1,0,1.476-1.582,4.121,4.121,0,0,0-6.18,0Z" transform="translate(-160.95 -165.425)"/>
        <path id="Trazado_1032195" data-name="Trazado 1032195" d="M302.673,223.82v1.7a1.082,1.082,0,0,0,2.164,0v-1.7a1.082,1.082,0,0,0-2.164,0Z" transform="translate(-265.387 -190.611)"/>
        <path id="Trazado_1032196" data-name="Trazado 1032196" d="M292.151,196.572a1.082,1.082,0,0,0,.738-1.873,4.121,4.121,0,0,0-6.18,0,1.082,1.082,0,1,0,1.476,1.582,2.025,2.025,0,0,1,3.228,0A1.077,1.077,0,0,0,292.151,196.572Z" transform="translate(-251.431 -165.424)"/>
        <path id="Trazado_1032197" data-name="Trazado 1032197" d="M237.943,248.128a.869.869,0,1,1,1.739,0,1.082,1.082,0,1,0,2.164,0,3.033,3.033,0,0,0-6.066,0,1.082,1.082,0,1,0,2.163,0Z" transform="translate(-208.141 -209.744)"/>
        <path id="Trazado_1032198" data-name="Trazado 1032198" d="M219.808,296.787v.878a4.575,4.575,0,0,0,4.57,4.57h1.678a4.575,4.575,0,0,0,4.57-4.57v-.878a1.526,1.526,0,0,0-1.524-1.524h-7.769A1.526,1.526,0,0,0,219.808,296.787Zm2.164.639h6.49v.239a2.409,2.409,0,0,1-2.406,2.406h-1.678a2.409,2.409,0,0,1-2.406-2.406v-.239Z" transform="translate(-194.474 -252.676)"/>
      </g>
    </g>
  </g>
</svg>
