<svg xmlns="http://www.w3.org/2000/svg" xmlns:xlink="http://www.w3.org/1999/xlink" width="220" height="194" viewBox="0 0 220 194">
  <defs>
    <filter id="Rectángulo_404858" x="0" y="0" width="220" height="194" filterUnits="userSpaceOnUse">
      <feOffset dx="3" dy="6" input="SourceAlpha"/>
      <feGaussianBlur stdDeviation="5" result="blur"/>
      <feFlood flood-opacity="0.161"/>
      <feComposite operator="in" in2="blur"/>
      <feComposite in="SourceGraphic"/>
    </filter>
  </defs>
  <g id="Grupo_1199378" data-name="Grupo 1199378" transform="translate(-205.05 -913)">
    <g id="Grupo_1198228" data-name="Grupo 1198228" transform="translate(217.05 922.156)">
      <g id="Grupo_1197899" data-name="Grupo 1197899" transform="translate(0 -0.156)">
        <g id="Grupo_1113681" data-name="Grupo 1113681" transform="translate(0 0)">
          <g transform="matrix(1, 0, 0, 1, -12, -9)" filter="url(#Rectángulo_404858)">
            <rect id="Rectángulo_404858-2" data-name="Rectángulo 404858" width="190" height="164" rx="8" transform="translate(12 9)" fill="#4c6929"/>
          </g>
        </g>
      </g>
    </g>
    <g id="sustainable-energy_6575861" transform="translate(244.621 936.587)">
      <g id="Grupo_1199371" data-name="Grupo 1199371" transform="translate(7.5 7.5)">
        <circle id="Elipse_12175" data-name="Elipse 12175" cx="37.401" cy="37.401" r="37.401" transform="translate(22.528 22.528)" fill="#f5f8f9"/>
        <ellipse id="Elipse_12176" data-name="Elipse 12176" cx="24.117" cy="12.782" rx="24.117" ry="12.782" transform="translate(35.813 82.479)" fill="#d2af8c"/>
        <g id="Grupo_1199367" data-name="Grupo 1199367">
          <path id="Trazado_1031008" data-name="Trazado 1031008" d="M122.442,53.571a52.722,52.722,0,0,0-5.208-12.557,2.421,2.421,0,0,1,.375-2.925l2.8-2.8a2.412,2.412,0,0,0,0-3.411L106.771,18.232a2.412,2.412,0,0,0-3.411,0l-2.8,2.8a2.421,2.421,0,0,1-2.925.375A52.73,52.73,0,0,0,85.075,16.2a2.421,2.421,0,0,1-1.8-2.332V9.912A2.412,2.412,0,0,0,80.862,7.5H61.569a2.412,2.412,0,0,0-2.412,2.412V13.87a2.42,2.42,0,0,1-1.8,2.332A52.722,52.722,0,0,0,44.8,21.411a2.421,2.421,0,0,1-2.925-.375l-2.8-2.8a2.412,2.412,0,0,0-3.411,0L22.018,31.874a2.412,2.412,0,0,0,0,3.411l2.8,2.8a2.421,2.421,0,0,1,.375,2.925q-.861,1.5-1.626,3.053c-1.483,3.018-1.371,6.585-2.264,9.892a2.42,2.42,0,0,1-2.332,1.8L14.9,56.916a2.412,2.412,0,0,0-2.412,2.412L13.474,74.9a2.412,2.412,0,0,0,2.412,2.412h3.959a2.42,2.42,0,0,1,2.332,1.8c1.2,4.444,2.29,9.042,4.534,12.943a2.421,2.421,0,0,1-.375,2.925l-2.189,3.648a2.412,2.412,0,0,0,0,3.411l13.027,12.8a2.412,2.412,0,0,0,3.411,0l2.8-2.8a2.421,2.421,0,0,1,2.925-.375c3.9,2.245,7.64,4.792,12.084,5.992a2.42,2.42,0,0,1,1.8,2.332v3.959a2.412,2.412,0,0,0,2.412,2.412l16.908-.657a2.412,2.412,0,0,0,2.412-2.412v-3.959a2.42,2.42,0,0,1,1.8-2.332c3.616-.976,8.421-.664,11.688-2.342q1.122-.576,2.214-1.2a2.421,2.421,0,0,1,2.925.375l2.8,2.8a2.412,2.412,0,0,0,3.411,0l13.642-13.642a2.412,2.412,0,0,0,0-3.411l-2.8-2.8a2.421,2.421,0,0,1-.375-2.925,52.73,52.73,0,0,0,5.208-12.557,2.42,2.42,0,0,1,2.332-1.8h3.959a2.412,2.412,0,0,0,2.412-2.412V57.784a2.412,2.412,0,0,0-2.412-2.412h-3.959A2.422,2.422,0,0,1,122.442,53.571ZM71.216,102.037A34.607,34.607,0,1,1,105.823,67.43,34.607,34.607,0,0,1,71.216,102.037Z" transform="translate(-11.286 -7.5)" fill="#878382"/>
          <g id="Grupo_1199366" data-name="Grupo 1199366" transform="translate(0 36.567)">
            <path id="Trazado_1031009" data-name="Trazado 1031009" d="M80.453,230.721a61.526,61.526,0,0,1-60.668-71.6,52.646,52.646,0,0,0-3.582,9.5,2.421,2.421,0,0,1-2.332,1.8H9.912A2.412,2.412,0,0,0,7.5,172.841v19.293a2.412,2.412,0,0,0,2.412,2.412H13.87a2.42,2.42,0,0,1,2.332,1.8A52.722,52.722,0,0,0,21.411,208.9a2.421,2.421,0,0,1-.375,2.925l-2.8,2.8a2.412,2.412,0,0,0,0,3.411l13.642,13.642a2.412,2.412,0,0,0,3.411,0l2.8-2.8a2.421,2.421,0,0,1,2.925-.375,52.729,52.729,0,0,0,12.557,5.208,2.42,2.42,0,0,1,1.8,2.332v3.959a2.412,2.412,0,0,0,2.412,2.412H77.076a2.412,2.412,0,0,0,2.412-2.412v-3.959a2.42,2.42,0,0,1,1.8-2.332,52.644,52.644,0,0,0,10.344-4.007A61.853,61.853,0,0,1,80.453,230.721Z" transform="translate(-7.5 -159.125)" fill="#7a7473"/>
          </g>
        </g>
        <g id="Grupo_1199370" data-name="Grupo 1199370" transform="translate(34.117 12.494)">
          <g id="Grupo_1199368" data-name="Grupo 1199368" transform="translate(7.995)">
            <path id="Trazado_1031010" data-name="Trazado 1031010" d="M200.232,59.4l2.122,1.6a15.712,15.712,0,0,0,7.283,3.017l2.632.368a.482.482,0,0,1,.411.411l.369,2.632a15.709,15.709,0,0,0,3.017,7.283l1.6,2.122a.482.482,0,0,1,0,.581l-1.6,2.122a15.712,15.712,0,0,0-3.017,7.283l-.369,2.632a.482.482,0,0,1-.411.411l-2.632.369a15.709,15.709,0,0,0-7.283,3.017l-2.122,1.6a.482.482,0,0,1-.581,0l-2.122-1.6a15.712,15.712,0,0,0-7.283-3.017l-2.632-.369a.482.482,0,0,1-.411-.411l-.369-2.632a15.709,15.709,0,0,0-3.017-7.283l-1.6-2.122a.482.482,0,0,1,0-.581l1.6-2.122a15.712,15.712,0,0,0,3.017-7.283L187.2,64.8a.482.482,0,0,1,.411-.411l2.632-.368A15.709,15.709,0,0,0,197.529,61l2.122-1.6A.482.482,0,0,1,200.232,59.4Z" transform="translate(-182.12 -59.306)" fill="#fee45a"/>
            <circle id="Elipse_12177" data-name="Elipse 12177" cx="7.838" cy="7.838" r="7.838" transform="translate(9.984 9.984)" fill="#ffd15b"/>
          </g>
          <g id="Grupo_1199369" data-name="Grupo 1199369" transform="translate(0 38.754)">
            <path id="Trazado_1031011" data-name="Trazado 1031011" d="M200.593,221.184a.719.719,0,0,0-.592-.721c-2.487-.451-12.248-1.773-18.551,3.84-5.21,4.64-6.375,11.84-6.618,15.549a.048.048,0,0,1-.1,0c-.244-3.709-1.414-10.909-6.624-15.549-6.3-5.613-16.065-4.291-18.551-3.84a.719.719,0,0,0-.592.721c.041,2.468.619,11.934,6.9,17.53,5.261,4.684,12.809,4.437,16.582,3.942a5.1,5.1,0,0,0,2.332-.9,5.1,5.1,0,0,0,2.331.9c3.77.495,11.315.742,16.575-3.942C199.974,233.119,200.552,223.653,200.593,221.184Z" transform="translate(-148.969 -220)" fill="#b4e555"/>
          </g>
        </g>
      </g>
      <g id="Grupo_1199377" data-name="Grupo 1199377" transform="translate(7.5 7.5)">
        <path id="Trazado_1031012" data-name="Trazado 1031012" d="M173.054,355.14c4.333-3.4,11.675-5.64,20-5.64s15.664,2.235,20,5.635" transform="translate(-133.128 -267.021)" fill="none" stroke="#000" stroke-linecap="round" stroke-linejoin="round" stroke-miterlimit="10" stroke-width="2.5"/>
        <path id="Trazado_1031013" data-name="Trazado 1031013" d="M106.83,22.077l-3.845-3.845a2.412,2.412,0,0,0-3.411,0l-2.8,2.8a2.421,2.421,0,0,1-2.925.375A52.73,52.73,0,0,0,81.289,16.2a2.421,2.421,0,0,1-1.8-2.332V9.912A2.412,2.412,0,0,0,77.076,7.5H57.783a2.412,2.412,0,0,0-2.412,2.412V13.87a2.42,2.42,0,0,1-1.8,2.332,52.722,52.722,0,0,0-12.557,5.208,2.421,2.421,0,0,1-2.925-.375l-2.8-2.8a2.412,2.412,0,0,0-3.411,0L18.232,31.874a2.412,2.412,0,0,0,0,3.411l2.8,2.8a2.421,2.421,0,0,1,.375,2.925A52.73,52.73,0,0,0,16.2,53.57a2.421,2.421,0,0,1-2.332,1.8H9.912A2.412,2.412,0,0,0,7.5,57.783V77.076a2.412,2.412,0,0,0,2.412,2.412H13.87a2.42,2.42,0,0,1,2.332,1.8,52.722,52.722,0,0,0,5.208,12.557,2.421,2.421,0,0,1-.375,2.925l-2.8,2.8a2.412,2.412,0,0,0,0,3.411l13.642,13.642a2.412,2.412,0,0,0,3.411,0l2.8-2.8a2.421,2.421,0,0,1,2.925-.375,52.73,52.73,0,0,0,12.557,5.208,2.42,2.42,0,0,1,1.8,2.332v3.959a2.412,2.412,0,0,0,2.412,2.412H77.076a2.412,2.412,0,0,0,2.412-2.412v-3.959a2.42,2.42,0,0,1,1.8-2.332,52.722,52.722,0,0,0,12.557-5.208,2.421,2.421,0,0,1,2.925.375l2.8,2.8a2.412,2.412,0,0,0,3.411,0l13.642-13.642a2.412,2.412,0,0,0,0-3.411l-2.8-2.8a2.421,2.421,0,0,1-.375-2.925,52.73,52.73,0,0,0,5.208-12.557,2.42,2.42,0,0,1,2.332-1.8h3.959a2.412,2.412,0,0,0,2.412-2.412V57.784a2.412,2.412,0,0,0-2.412-2.412h-3.959a2.42,2.42,0,0,1-2.332-1.8,52.722,52.722,0,0,0-5.208-12.557,2.421,2.421,0,0,1,.375-2.925l2.8-2.8a2.412,2.412,0,0,0,0-3.411l-3.794-3.794M32.826,67.917q0-.243,0-.488a34.587,34.587,0,0,1,16.664-29.6m35.887,0A34.612,34.612,0,1,1,33.964,76.28" transform="translate(-7.5 -7.5)" fill="none" stroke="#000" stroke-linecap="round" stroke-linejoin="round" stroke-miterlimit="10" stroke-width="2.5"/>
        <g id="Grupo_1199376" data-name="Grupo 1199376" transform="translate(34.115 12.372)">
          <g id="Grupo_1199372" data-name="Grupo 1199372" transform="translate(7.871)">
            <path id="Trazado_1031014" data-name="Trazado 1031014" d="M199.538,58.8l2.412,1.82a15.712,15.712,0,0,0,7.283,3.017l2.993.419.419,2.993a15.709,15.709,0,0,0,3.017,7.283l1.82,2.412-1.82,2.412a15.712,15.712,0,0,0-3.017,7.283l-.419,2.993-2.993.419a15.71,15.71,0,0,0-7.283,3.017l-2.412,1.819-2.412-1.82a15.712,15.712,0,0,0-7.283-3.017l-2.993-.419-.419-2.993a15.709,15.709,0,0,0-3.017-7.283l-1.82-2.412,1.82-2.412a15.712,15.712,0,0,0,3.017-7.283l.419-2.993,2.993-.419a15.709,15.709,0,0,0,7.283-3.017Z" transform="translate(-181.594 -58.8)" fill="none" stroke="#000" stroke-linecap="round" stroke-linejoin="round" stroke-miterlimit="10" stroke-width="2.5"/>
            <path id="Trazado_1031015" data-name="Trazado 1031015" d="M229.344,100.961a7.83,7.83,0,1,1-5.637,5.782" transform="translate(-213.394 -90.599)" fill="none" stroke="#000" stroke-linecap="round" stroke-linejoin="round" stroke-miterlimit="10" stroke-width="2.5"/>
          </g>
          <g id="Grupo_1199375" data-name="Grupo 1199375" transform="translate(0 38.875)">
            <g id="Grupo_1199373" data-name="Grupo 1199373" transform="translate(25.814 0)">
              <path id="Trazado_1031016" data-name="Trazado 1031016" d="M279.134,232.985a29.867,29.867,0,0,0,2.676-12.4s-11.874-2.754-19.143,3.722-6.632,17.925-6.669,17.941c0,0,10.5,2.655,17.782-2.624" transform="translate(-255.997 -219.999)" fill="none" stroke="#000" stroke-linecap="round" stroke-linejoin="round" stroke-miterlimit="10" stroke-width="2.5"/>
            </g>
            <g id="Grupo_1199374" data-name="Grupo 1199374" transform="translate(0 0)">
              <path id="Trazado_1031017" data-name="Trazado 1031017" d="M168.1,224.3c7.265,6.472,6.632,17.924,6.669,17.942,0,0-11.639,2.944-18.91-3.531s-6.9-18.133-6.9-18.133S160.834,217.825,168.1,224.3Z" transform="translate(-148.957 -219.998)" fill="none" stroke="#000" stroke-linecap="round" stroke-linejoin="round" stroke-miterlimit="10" stroke-width="2.5"/>
            </g>
            <line id="Línea_692" data-name="Línea 692" x1="12.901" y2="10.79" transform="translate(25.815 11.456)" fill="none" stroke="#000" stroke-linecap="round" stroke-linejoin="round" stroke-miterlimit="10" stroke-width="2.5"/>
            <line id="Línea_693" data-name="Línea 693" x2="12.901" y2="10.79" transform="translate(12.914 11.456)" fill="none" stroke="#000" stroke-linecap="round" stroke-linejoin="round" stroke-miterlimit="10" stroke-width="2.5"/>
          </g>
        </g>
        <line id="Línea_694" data-name="Línea 694" y2="8.865" transform="translate(59.93 73.493)" fill="none" stroke="#000" stroke-linecap="round" stroke-linejoin="round" stroke-miterlimit="10" stroke-width="2.5"/>
      </g>
    </g>
  </g>
</svg>
