<svg xmlns="http://www.w3.org/2000/svg" xmlns:xlink="http://www.w3.org/1999/xlink" width="117.999" height="118" viewBox="0 0 117.999 118">
  <defs>
    <filter id="Trazado_874925" x="0" y="0" width="117.999" height="118" filterUnits="userSpaceOnUse">
      <feOffset dy="3" input="SourceAlpha"/>
      <feGaussianBlur stdDeviation="3" result="blur"/>
      <feFlood flood-opacity="0.161"/>
      <feComposite operator="in" in2="blur"/>
      <feComposite in="SourceGraphic"/>
    </filter>
  </defs>
  <g id="Grupo_1199421" data-name="Grupo 1199421" transform="translate(-793.782 -1841.427)">
    <g id="Grupo_1198308" data-name="Grupo 1198308" transform="translate(-5.719 -669.73)">
      <g id="Grupo_1111316" data-name="Grupo 1111316" transform="translate(808.5 2517.157)">
        <g id="Grupo_1109835" data-name="Grupo 1109835" transform="translate(0 0)">
          <g id="Grupo_1107913" data-name="Grupo 1107913" transform="translate(0 0)">
            <g transform="matrix(1, 0, 0, 1, -9, -6)" filter="url(#Trazado_874925)">
              <g id="Trazado_874925-2" data-name="Trazado 874925" transform="translate(9 6)" fill="#9ad354" opacity="0.859">
                <path d="M 49.99972534179688 98.4998779296875 C 43.45164108276367 98.4998779296875 37.10022354125977 97.21776580810547 31.12189674377441 94.68914794921875 C 25.34676742553711 92.24647521972656 20.15985298156738 88.74925994873047 15.70523929595947 84.29464721679688 C 11.25062561035156 79.84004974365234 7.753411293029785 74.65313720703125 5.310725212097168 68.87800598144531 C 2.782111167907715 62.89969253540039 1.499996781349182 56.54829406738281 1.499996781349182 50.00022125244141 C 1.499996781349182 43.45157623291016 2.782111167907715 37.10017776489258 5.310725212097168 31.12186431884766 C 7.753411293029785 25.34673500061035 11.25062561035156 20.15983581542969 15.70523929595947 15.70522117614746 C 20.15985298156738 11.25062084197998 25.34676742553711 7.753406524658203 31.12189674377441 5.31073522567749 C 37.10022354125977 2.782120943069458 43.45164108276367 1.500006556510925 49.99972534179688 1.500006556510925 C 56.54780960083008 1.500006556510925 62.89922714233398 2.782120943069458 68.87755584716797 5.31073522567749 C 74.65267944335938 7.753406524658203 79.839599609375 11.25062084197998 84.29421234130859 15.70522117614746 C 88.74882507324219 20.15983581542969 92.24604034423828 25.34673500061035 94.68872833251953 31.12186431884766 C 97.21733856201172 37.10017776489258 98.49945068359375 43.45157623291016 98.49945068359375 49.99964904785156 C 98.49945068359375 56.54829406738281 97.21733856201172 62.89969253540039 94.68872833251953 68.87800598144531 C 92.24604034423828 74.65313720703125 88.74882507324219 79.84004974365234 84.29421234130859 84.29464721679688 C 79.839599609375 88.74925994873047 74.65267944335938 92.24647521972656 68.87755584716797 94.68914794921875 C 62.89922714233398 97.21776580810547 56.54780960083008 98.4998779296875 49.99972534179688 98.4998779296875 Z" stroke="none"/>
                <path d="M 49.99972534179688 3 C 43.65348052978516 3 37.49866485595703 4.242240905761719 31.70623016357422 6.692230224609375 C 26.10989379882812 9.059272766113281 21.08323669433594 12.44853210449219 16.76589202880859 16.76587677001953 C 12.44855499267578 21.08321380615234 9.059295654296875 26.10985565185547 6.692230224609375 31.70618438720703 C 4.24224853515625 37.49859619140625 3 43.65341186523438 3 50.00022888183594 C 3 56.34645843505859 4.24224853515625 62.50127410888672 6.692230224609375 68.29368591308594 C 9.059295654296875 73.8900146484375 12.44855499267578 78.91665649414062 16.76589202880859 83.23399353027344 C 21.08323669433594 87.55132293701172 26.10989379882812 90.94059753417969 31.70623016357422 93.30764007568359 C 37.49866485595703 95.75762939453125 43.65348052978516 96.99987030029297 49.99972534179688 96.99987030029297 C 56.34597015380859 96.99987030029297 62.50078582763672 95.75762939453125 68.293212890625 93.30764007568359 C 73.88955688476562 90.94059753417969 78.91621398925781 87.55132293701172 83.23355865478516 83.23399353027344 C 87.55089569091797 78.91665649414062 90.94015502929688 73.8900146484375 93.30722045898438 68.29368591308594 C 95.7572021484375 62.50127410888672 96.99945068359375 56.34645843505859 96.99945068359375 49.99964141845703 C 96.99945068359375 43.65341186523438 95.7572021484375 37.49859619140625 93.30722045898438 31.70618438720703 C 90.94015502929688 26.10985565185547 87.55089569091797 21.08321380615234 83.23355865478516 16.76587677001953 C 78.91621398925781 12.44853210449219 73.88955688476562 9.059272766113281 68.293212890625 6.692230224609375 C 62.50078582763672 4.242240905761719 56.34597015380859 3 49.99972534179688 3 M 49.99972534179688 0 C 77.61381530761719 0 99.99945068359375 22.38559722900391 99.99945068359375 49.99964141845703 L 99.99945068359375 50.00022888183594 C 99.99945068359375 77.6142578125 77.61381530761719 99.99987030029297 49.99972534179688 99.99987030029297 C 22.38563537597656 99.99987030029297 0 77.6142578125 0 50.00022888183594 L 0 49.99964141845703 C 0 22.38559722900391 22.38563537597656 0 49.99972534179688 0 Z" stroke="none" fill="#fff"/>
              </g>
            </g>
            <g id="Trazado_874923" data-name="Trazado 874923" transform="translate(0 0)" fill="none">
              <path d="M50,0a50,50,0,0,1,50,50h0A50,50,0,0,1,0,50H0A50,50,0,0,1,50,0Z" stroke="none"/>
              <path d="M 49.99972534179688 3 C 43.65348052978516 3 37.49866485595703 4.242240905761719 31.70623016357422 6.692230224609375 C 26.10989379882812 9.059272766113281 21.08323669433594 12.44853210449219 16.76589202880859 16.76587677001953 C 12.44855499267578 21.08321380615234 9.059295654296875 26.10985565185547 6.692230224609375 31.70618438720703 C 4.24224853515625 37.49859619140625 3 43.65341186523438 3 50.00022888183594 C 3 56.34645843505859 4.24224853515625 62.50127410888672 6.692230224609375 68.29368591308594 C 9.059295654296875 73.8900146484375 12.44855499267578 78.91665649414062 16.76589202880859 83.23399353027344 C 21.08323669433594 87.55132293701172 26.10989379882812 90.94059753417969 31.70623016357422 93.30764007568359 C 37.49866485595703 95.75762939453125 43.65348052978516 96.99987030029297 49.99972534179688 96.99987030029297 C 56.34597015380859 96.99987030029297 62.50078582763672 95.75762939453125 68.293212890625 93.30764007568359 C 73.88955688476562 90.94059753417969 78.91621398925781 87.55132293701172 83.23355865478516 83.23399353027344 C 87.55089569091797 78.91665649414062 90.94015502929688 73.8900146484375 93.30722045898438 68.29368591308594 C 95.7572021484375 62.50127410888672 96.99945068359375 56.34645843505859 96.99945068359375 49.99964141845703 C 96.99945068359375 43.65341186523438 95.7572021484375 37.49859619140625 93.30722045898438 31.70618438720703 C 90.94015502929688 26.10985565185547 87.55089569091797 21.08321380615234 83.23355865478516 16.76587677001953 C 78.91621398925781 12.44853210449219 73.88955688476562 9.059272766113281 68.293212890625 6.692230224609375 C 62.50078582763672 4.242240905761719 56.34597015380859 3 49.99972534179688 3 M 49.99972534179688 0 C 77.61381530761719 0 99.99945068359375 22.38559722900391 99.99945068359375 49.99964141845703 L 99.99945068359375 50.00022888183594 C 99.99945068359375 77.6142578125 77.61381530761719 99.99987030029297 49.99972534179688 99.99987030029297 C 22.38563537597656 99.99987030029297 0 77.6142578125 0 50.00022888183594 L 0 49.99964141845703 C 0 22.38559722900391 22.38563537597656 0 49.99972534179688 0 Z" stroke="none" fill="#fff"/>
            </g>
          </g>
        </g>
      </g>
    </g>
    <g id="farmer_8239819" transform="translate(807.882 1858.461)">
      <g id="Grupo_1199418" data-name="Grupo 1199418" transform="translate(16.801 7.5)">
        <path id="Trazado_1031214" data-name="Trazado 1031214" d="M121.55,175.212H110.639a6.426,6.426,0,0,1-6.426-6.426V158.169h23.762v10.617A6.426,6.426,0,0,1,121.55,175.212Z" transform="translate(-93.762 -140.155)" fill="#ffdfcf"/>
        <path id="Trazado_1031215" data-name="Trazado 1031215" d="M225.64,158.169v10.617a6.426,6.426,0,0,1-6.426,6.426H222.8a6.426,6.426,0,0,0,6.426-6.426V158.169Z" transform="translate(-195.014 -140.155)" fill="#ffcebf"/>
        <rect id="Rectángulo_408679" data-name="Rectángulo 408679" width="7.17" height="5.138" transform="translate(18.747 35.057)" fill="#ffcebf"/>
        <rect id="Rectángulo_408680" data-name="Rectángulo 408680" width="3.587" height="5.138" transform="translate(22.329 35.057)" fill="#ffb09e"/>
        <path id="Trazado_1031216" data-name="Trazado 1031216" d="M23.749,343.7H54.393a6.947,6.947,0,0,1,6.947,6.947V362.92H18.872a2.07,2.07,0,0,1-2.07-2.07V350.642A6.947,6.947,0,0,1,23.749,343.7Z" transform="translate(-16.802 -303.5)" fill="#6c7fd8"/>
        <path id="Trazado_1031217" data-name="Trazado 1031217" d="M127.975,20.971H104.213l.805-4.076,1.306-6.774A3.233,3.233,0,0,1,109.5,7.5H122.69a3.233,3.233,0,0,1,3.174,2.621L127.17,16.9Z" transform="translate(-93.762 -7.5)" fill="#fd6930"/>
        <path id="Trazado_1031218" data-name="Trazado 1031218" d="M236.818,16.9l-1.306-6.774A3.233,3.233,0,0,0,232.337,7.5H228.75a3.233,3.233,0,0,1,3.174,2.621L233.23,16.9l.805,4.076h3.587Z" transform="translate(-203.41 -7.5)" fill="#fd5426"/>
        <path id="Trazado_1031219" data-name="Trazado 1031219" d="M77.167,124.719H42.694a2.271,2.271,0,0,1-2.271-2.271h0a2.271,2.271,0,0,1,2.271-2.271H77.167a2.271,2.271,0,0,1,2.271,2.271h0A2.271,2.271,0,0,1,77.167,124.719Z" transform="translate(-37.599 -106.706)" fill="#fd6930"/>
        <path id="Trazado_1031220" data-name="Trazado 1031220" d="M321.341,120.176h-3.587a2.271,2.271,0,0,1,2.271,2.271h0a2.271,2.271,0,0,1-2.271,2.271h3.587a2.271,2.271,0,0,0,2.271-2.271h0A2.271,2.271,0,0,0,321.341,120.176Z" transform="translate(-281.773 -106.705)" fill="#fd5426"/>
        <path id="Trazado_1031221" data-name="Trazado 1031221" d="M127.975,90.158H104.213l.805-4.076H127.17Z" transform="translate(-93.762 -76.687)" fill="#fef48b"/>
        <path id="Trazado_1031222" data-name="Trazado 1031222" d="M269.811,86.082h-3.587l.805,4.076h3.587Z" transform="translate(-236.404 -76.687)" fill="#fef056"/>
        <path id="Trazado_1031223" data-name="Trazado 1031223" d="M76.271,164.415H73.831a1.354,1.354,0,0,1-1.354-1.354v-3.538a1.354,1.354,0,0,1,1.354-1.354h2.441v6.245Z" transform="translate(-65.821 -140.156)" fill="#ffcebf"/>
        <path id="Trazado_1031224" data-name="Trazado 1031224" d="M302.966,164.415h2.441a1.354,1.354,0,0,0,1.354-1.354v-3.538a1.354,1.354,0,0,0-1.354-1.354h-2.441Z" transform="translate(-268.753 -140.156)" fill="#ffcebf"/>
        <path id="Trazado_1031225" data-name="Trazado 1031225" d="M304.186,342.971a2.742,2.742,0,0,0-1.922-4.7c-2.329-.036-2.743,2.441-2.743,2.3a2.752,2.752,0,0,0-3.4-2.664,2.741,2.741,0,0,0-4.213-2.392,2.743,2.743,0,0,0-4.85,2.546,2.742,2.742,0,0,0-3.7,3.4,2.743,2.743,0,1,0-.148,5.481s18.987.724,19.051.724a2.742,2.742,0,0,0,1.922-4.7Z" transform="translate(-248.947 -295.119)" fill="#00c27a"/>
        <g id="Grupo_1199417" data-name="Grupo 1199417" transform="translate(50.486 43.154)">
          <path id="Trazado_1031226" data-name="Trazado 1031226" d="M444.637,370.93a2.8,2.8,0,0,0-3.124-2.464,2.429,2.429,0,0,0-1.414.648,2.729,2.729,0,0,1,.483,3.623.726.726,0,0,0,0,.815,2.742,2.742,0,0,1-1.507,4.184l2.831.107a2.742,2.742,0,0,0,1.922-4.7A2.735,2.735,0,0,0,444.637,370.93Z" transform="translate(-439.076 -368.447)" fill="#08b865"/>
        </g>
        <path id="Trazado_1031227" data-name="Trazado 1031227" d="M142.517,362.92H137.43L131.052,343.7h5.087Z" transform="translate(-117.393 -303.5)" fill="#c68d7a"/>
        <path id="Trazado_1031228" data-name="Trazado 1031228" d="M291.547,440.982H270.991a1.925,1.925,0,0,1-1.86-1.431l-1.413-5.332a1.482,1.482,0,0,1,1.433-1.862h24.237a1.482,1.482,0,0,1,1.433,1.862l-1.413,5.332A1.925,1.925,0,0,1,291.547,440.982Z" transform="translate(-237.675 -381.562)" fill="#c68d7a"/>
        <path id="Trazado_1031229" data-name="Trazado 1031229" d="M442.82,432.357h-3.587a1.482,1.482,0,0,1,1.433,1.862l-1.413,5.332a1.925,1.925,0,0,1-1.86,1.431h3.587a1.924,1.924,0,0,0,1.86-1.431l1.413-5.332A1.482,1.482,0,0,0,442.82,432.357Z" transform="translate(-387.107 -381.562)" fill="#bc7c63"/>
      </g>
      <g id="Grupo_1199420" data-name="Grupo 1199420" transform="translate(16.801 7.5)">
        <path id="Trazado_1031230" data-name="Trazado 1031230" d="M121.55,175.212H110.639a6.426,6.426,0,0,1-6.426-6.426V158.169h23.762v10.617A6.426,6.426,0,0,1,121.55,175.212Z" transform="translate(-93.762 -140.155)" fill="none" stroke="#000" stroke-linecap="round" stroke-linejoin="round" stroke-miterlimit="10" stroke-width="2.5"/>
        <rect id="Rectángulo_408681" data-name="Rectángulo 408681" width="7.17" height="5.138" transform="translate(18.747 35.057)" fill="none" stroke="#000" stroke-linecap="round" stroke-linejoin="round" stroke-miterlimit="10" stroke-width="2.5"/>
        <path id="Trazado_1031231" data-name="Trazado 1031231" d="M131.052,343.69h23.932a6.938,6.938,0,0,1,.776.043" transform="translate(-117.392 -303.496)" fill="none" stroke="#000" stroke-linecap="round" stroke-linejoin="round" stroke-miterlimit="10" stroke-width="2.5"/>
        <path id="Trazado_1031232" data-name="Trazado 1031232" d="M50.373,362.916h-31.5a2.07,2.07,0,0,1-2.07-2.07V350.637a6.948,6.948,0,0,1,6.947-6.947H26.27" transform="translate(-16.801 -303.496)" fill="none" stroke="#000" stroke-linecap="round" stroke-linejoin="round" stroke-miterlimit="10" stroke-width="2.5"/>
        <path id="Trazado_1031233" data-name="Trazado 1031233" d="M77.167,124.719H42.694a2.271,2.271,0,0,1-2.271-2.271h0a2.271,2.271,0,0,1,2.271-2.271H77.167a2.271,2.271,0,0,1,2.271,2.271h0A2.271,2.271,0,0,1,77.167,124.719Z" transform="translate(-37.599 -106.706)" fill="none" stroke="#000" stroke-linecap="round" stroke-linejoin="round" stroke-miterlimit="10" stroke-width="2.5"/>
        <path id="Trazado_1031234" data-name="Trazado 1031234" d="M127.975,90.158H104.213l.805-4.076H127.17Z" transform="translate(-93.762 -76.687)" fill="none" stroke="#000" stroke-linecap="round" stroke-linejoin="round" stroke-miterlimit="10" stroke-width="2.5"/>
        <path id="Trazado_1031235" data-name="Trazado 1031235" d="M127.17,16.9l.805,4.076H104.213l.805-4.076,1.306-6.774A3.233,3.233,0,0,1,109.5,7.5H122.69a3.233,3.233,0,0,1,3.174,2.621l.5,2.618" transform="translate(-93.762 -7.5)" fill="none" stroke="#000" stroke-linecap="round" stroke-linejoin="round" stroke-miterlimit="10" stroke-width="2.5"/>
        <path id="Trazado_1031236" data-name="Trazado 1031236" d="M76.271,164.415H73.831a1.354,1.354,0,0,1-1.354-1.354v-3.538a1.354,1.354,0,0,1,1.354-1.354h2.441v6.245Z" transform="translate(-65.821 -140.156)" fill="none" stroke="#000" stroke-linecap="round" stroke-linejoin="round" stroke-miterlimit="10" stroke-width="2.5"/>
        <path id="Trazado_1031237" data-name="Trazado 1031237" d="M302.966,164.415h2.441a1.354,1.354,0,0,0,1.354-1.354v-3.538a1.354,1.354,0,0,0-1.354-1.354h-2.441Z" transform="translate(-268.753 -140.156)" fill="none" stroke="#000" stroke-linecap="round" stroke-linejoin="round" stroke-miterlimit="10" stroke-width="2.5"/>
        <path id="Trazado_1031238" data-name="Trazado 1031238" d="M291.547,440.982H270.991a1.925,1.925,0,0,1-1.86-1.431l-1.413-5.332a1.482,1.482,0,0,1,1.433-1.862h24.237a1.482,1.482,0,0,1,1.433,1.862l-1.413,5.332A1.925,1.925,0,0,1,291.547,440.982Z" transform="translate(-237.675 -381.562)" fill="none" stroke="#000" stroke-linecap="round" stroke-linejoin="round" stroke-miterlimit="10" stroke-width="2.5"/>
        <path id="Trazado_1031239" data-name="Trazado 1031239" d="M304.82,345.921a2.745,2.745,0,0,0-.634-2.952,2.742,2.742,0,0,0-1.922-4.7c-2.329-.037-2.743,2.44-2.743,2.3a2.751,2.751,0,0,0-3.4-2.663,2.741,2.741,0,0,0-4.214-2.392,2.742,2.742,0,0,0-4.849,2.545,2.743,2.743,0,0,0-3.7,3.4,2.742,2.742,0,0,0-2.289,4.451" transform="translate(-248.947 -295.118)" fill="none" stroke="#000" stroke-linecap="round" stroke-linejoin="round" stroke-miterlimit="10" stroke-width="2.5"/>
        <path id="Trazado_1031240" data-name="Trazado 1031240" d="M337.165,393.074l1.515,1.515,1.552-1.552" transform="translate(-298.863 -346.943)" fill="none" stroke="#000" stroke-linecap="round" stroke-linejoin="round" stroke-miterlimit="10" stroke-width="2.5"/>
        <path id="Trazado_1031241" data-name="Trazado 1031241" d="M451.914,352.524l1.515,1.874,1.552-1.91" transform="translate(-399.893 -311.241)" fill="none" stroke="#000" stroke-linecap="round" stroke-linejoin="round" stroke-miterlimit="10" stroke-width="2.5"/>
        <line id="Línea_720" data-name="Línea 720" transform="translate(47.683 47.616)" fill="none" stroke="#000" stroke-linecap="round" stroke-linejoin="round" stroke-miterlimit="10" stroke-width="2.5"/>
        <line id="Línea_721" data-name="Línea 721" transform="translate(44.107 43.863)" fill="none" stroke="#000" stroke-linecap="round" stroke-linejoin="round" stroke-miterlimit="10" stroke-width="2.5"/>
        <path id="Trazado_1031242" data-name="Trazado 1031242" d="M133.015,456.9h-22.35v-6.464" transform="translate(-99.443 -397.479)" fill="none" stroke="#000" stroke-linecap="round" stroke-linejoin="round" stroke-miterlimit="10" stroke-width="2.5"/>
        <g id="Grupo_1199419" data-name="Grupo 1199419" transform="translate(15.667 22.3)">
          <line id="Línea_722" data-name="Línea 722" y2="1.665" fill="none" stroke="#000" stroke-linecap="round" stroke-linejoin="round" stroke-miterlimit="10" stroke-width="2.5"/>
          <line id="Línea_723" data-name="Línea 723" y2="1.665" transform="translate(13.204)" fill="none" stroke="#000" stroke-linecap="round" stroke-linejoin="round" stroke-miterlimit="10" stroke-width="2.5"/>
        </g>
        <path id="Trazado_1031243" data-name="Trazado 1031243" d="M187.4,233.617a5.24,5.24,0,0,0,3.747,0" transform="translate(-166.999 -206.583)" fill="none" stroke="#000" stroke-linecap="round" stroke-linejoin="round" stroke-miterlimit="10" stroke-width="2.5"/>
        <path id="Trazado_1031244" data-name="Trazado 1031244" d="M142.517,362.92H137.43L131.052,343.7h5.087Z" transform="translate(-117.392 -303.5)" fill="none" stroke="#000" stroke-linecap="round" stroke-linejoin="round" stroke-miterlimit="10" stroke-width="2.5"/>
      </g>
    </g>
  </g>
</svg>
