<svg xmlns="http://www.w3.org/2000/svg" xmlns:xlink="http://www.w3.org/1999/xlink" width="118" height="118" viewBox="0 0 118 118">
  <defs>
    <filter id="Trazado_874925" x="0" y="0" width="117.999" height="118" filterUnits="userSpaceOnUse">
      <feOffset dy="3" input="SourceAlpha"/>
      <feGaussianBlur stdDeviation="3" result="blur"/>
      <feFlood flood-opacity="0.161"/>
      <feComposite operator="in" in2="blur"/>
      <feComposite in="SourceGraphic"/>
    </filter>
  </defs>
  <g id="Grupo_1199424" data-name="Grupo 1199424" transform="translate(-1108.781 -1841.427)">
    <g id="Grupo_1198309" data-name="Grupo 1198309" transform="translate(309.281 -669.73)">
      <g id="Grupo_1111316" data-name="Grupo 1111316" transform="translate(808.5 2517.157)">
        <g id="Grupo_1109835" data-name="Grupo 1109835" transform="translate(0 0)">
          <g id="Grupo_1107913" data-name="Grupo 1107913" transform="translate(0 0)">
            <g transform="matrix(1, 0, 0, 1, -9, -6)" filter="url(#Trazado_874925)">
              <g id="Trazado_874925-2" data-name="Trazado 874925" transform="translate(9 6)" fill="#9ad354" opacity="0.859">
                <path d="M 49.99972534179688 98.4998779296875 C 43.45164108276367 98.4998779296875 37.10022354125977 97.21776580810547 31.12189674377441 94.68914794921875 C 25.34676742553711 92.24647521972656 20.15985298156738 88.74925994873047 15.70523929595947 84.29464721679688 C 11.25062561035156 79.84004974365234 7.753411293029785 74.65313720703125 5.310725212097168 68.87800598144531 C 2.782111167907715 62.89969253540039 1.499996781349182 56.54829406738281 1.499996781349182 50.00022125244141 C 1.499996781349182 43.45157623291016 2.782111167907715 37.10017776489258 5.310725212097168 31.12186431884766 C 7.753411293029785 25.34673500061035 11.25062561035156 20.15983581542969 15.70523929595947 15.70522117614746 C 20.15985298156738 11.25062084197998 25.34676742553711 7.753406524658203 31.12189674377441 5.31073522567749 C 37.10022354125977 2.782120943069458 43.45164108276367 1.500006556510925 49.99972534179688 1.500006556510925 C 56.54780960083008 1.500006556510925 62.89922714233398 2.782120943069458 68.87755584716797 5.31073522567749 C 74.65267944335938 7.753406524658203 79.839599609375 11.25062084197998 84.29421234130859 15.70522117614746 C 88.74882507324219 20.15983581542969 92.24604034423828 25.34673500061035 94.68872833251953 31.12186431884766 C 97.21733856201172 37.10017776489258 98.49945068359375 43.45157623291016 98.49945068359375 49.99964904785156 C 98.49945068359375 56.54829406738281 97.21733856201172 62.89969253540039 94.68872833251953 68.87800598144531 C 92.24604034423828 74.65313720703125 88.74882507324219 79.84004974365234 84.29421234130859 84.29464721679688 C 79.839599609375 88.74925994873047 74.65267944335938 92.24647521972656 68.87755584716797 94.68914794921875 C 62.89922714233398 97.21776580810547 56.54780960083008 98.4998779296875 49.99972534179688 98.4998779296875 Z" stroke="none"/>
                <path d="M 49.99972534179688 3 C 43.65348052978516 3 37.49866485595703 4.242240905761719 31.70623016357422 6.692230224609375 C 26.10989379882812 9.059272766113281 21.08323669433594 12.44853210449219 16.76589202880859 16.76587677001953 C 12.44855499267578 21.08321380615234 9.059295654296875 26.10985565185547 6.692230224609375 31.70618438720703 C 4.24224853515625 37.49859619140625 3 43.65341186523438 3 50.00022888183594 C 3 56.34645843505859 4.24224853515625 62.50127410888672 6.692230224609375 68.29368591308594 C 9.059295654296875 73.8900146484375 12.44855499267578 78.91665649414062 16.76589202880859 83.23399353027344 C 21.08323669433594 87.55132293701172 26.10989379882812 90.94059753417969 31.70623016357422 93.30764007568359 C 37.49866485595703 95.75762939453125 43.65348052978516 96.99987030029297 49.99972534179688 96.99987030029297 C 56.34597015380859 96.99987030029297 62.50078582763672 95.75762939453125 68.293212890625 93.30764007568359 C 73.88955688476562 90.94059753417969 78.91621398925781 87.55132293701172 83.23355865478516 83.23399353027344 C 87.55089569091797 78.91665649414062 90.94015502929688 73.8900146484375 93.30722045898438 68.29368591308594 C 95.7572021484375 62.50127410888672 96.99945068359375 56.34645843505859 96.99945068359375 49.99964141845703 C 96.99945068359375 43.65341186523438 95.7572021484375 37.49859619140625 93.30722045898438 31.70618438720703 C 90.94015502929688 26.10985565185547 87.55089569091797 21.08321380615234 83.23355865478516 16.76587677001953 C 78.91621398925781 12.44853210449219 73.88955688476562 9.059272766113281 68.293212890625 6.692230224609375 C 62.50078582763672 4.242240905761719 56.34597015380859 3 49.99972534179688 3 M 49.99972534179688 0 C 77.61381530761719 0 99.99945068359375 22.38559722900391 99.99945068359375 49.99964141845703 L 99.99945068359375 50.00022888183594 C 99.99945068359375 77.6142578125 77.61381530761719 99.99987030029297 49.99972534179688 99.99987030029297 C 22.38563537597656 99.99987030029297 0 77.6142578125 0 50.00022888183594 L 0 49.99964141845703 C 0 22.38559722900391 22.38563537597656 0 49.99972534179688 0 Z" stroke="none" fill="#fff"/>
              </g>
            </g>
            <g id="Trazado_874923" data-name="Trazado 874923" transform="translate(0 0)" fill="none">
              <path d="M50,0a50,50,0,0,1,50,50h0A50,50,0,0,1,0,50H0A50,50,0,0,1,50,0Z" stroke="none"/>
              <path d="M 49.99972534179688 3 C 43.65348052978516 3 37.49866485595703 4.242240905761719 31.70623016357422 6.692230224609375 C 26.10989379882812 9.059272766113281 21.08323669433594 12.44853210449219 16.76589202880859 16.76587677001953 C 12.44855499267578 21.08321380615234 9.059295654296875 26.10985565185547 6.692230224609375 31.70618438720703 C 4.24224853515625 37.49859619140625 3 43.65341186523438 3 50.00022888183594 C 3 56.34645843505859 4.24224853515625 62.50127410888672 6.692230224609375 68.29368591308594 C 9.059295654296875 73.8900146484375 12.44855499267578 78.91665649414062 16.76589202880859 83.23399353027344 C 21.08323669433594 87.55132293701172 26.10989379882812 90.94059753417969 31.70623016357422 93.30764007568359 C 37.49866485595703 95.75762939453125 43.65348052978516 96.99987030029297 49.99972534179688 96.99987030029297 C 56.34597015380859 96.99987030029297 62.50078582763672 95.75762939453125 68.293212890625 93.30764007568359 C 73.88955688476562 90.94059753417969 78.91621398925781 87.55132293701172 83.23355865478516 83.23399353027344 C 87.55089569091797 78.91665649414062 90.94015502929688 73.8900146484375 93.30722045898438 68.29368591308594 C 95.7572021484375 62.50127410888672 96.99945068359375 56.34645843505859 96.99945068359375 49.99964141845703 C 96.99945068359375 43.65341186523438 95.7572021484375 37.49859619140625 93.30722045898438 31.70618438720703 C 90.94015502929688 26.10985565185547 87.55089569091797 21.08321380615234 83.23355865478516 16.76587677001953 C 78.91621398925781 12.44853210449219 73.88955688476562 9.059272766113281 68.293212890625 6.692230224609375 C 62.50078582763672 4.242240905761719 56.34597015380859 3 49.99972534179688 3 M 49.99972534179688 0 C 77.61381530761719 0 99.99945068359375 22.38559722900391 99.99945068359375 49.99964141845703 L 99.99945068359375 50.00022888183594 C 99.99945068359375 77.6142578125 77.61381530761719 99.99987030029297 49.99972534179688 99.99987030029297 C 22.38563537597656 99.99987030029297 0 77.6142578125 0 50.00022888183594 L 0 49.99964141845703 C 0 22.38559722900391 22.38563537597656 0 49.99972534179688 0 Z" stroke="none" fill="#fff"/>
            </g>
          </g>
        </g>
      </g>
    </g>
    <g id="pobreza" transform="translate(1078.481 1863.42)">
      <path id="Trazado_1031245" data-name="Trazado 1031245" d="M127.962,65.583H101.507a6.613,6.613,0,0,1-6.613-6.613V27.341a19.841,19.841,0,0,1,39.681,0V58.97A6.613,6.613,0,0,1,127.962,65.583Z" transform="translate(-26.995 -6.504)" fill="#6c5e69"/>
      <path id="Trazado_1031246" data-name="Trazado 1031246" d="M233.487,7.5c-.556,0-1.105.024-1.649.069a19.842,19.842,0,0,1,18.191,19.772V58.97a6.613,6.613,0,0,1-6.613,6.613h3.3a6.613,6.613,0,0,0,6.613-6.613V27.341A19.841,19.841,0,0,0,233.487,7.5Z" transform="translate(-145.747 -6.504)" fill="#574d56"/>
      <path id="Trazado_1031247" data-name="Trazado 1031247" d="M149.856,302.1H115.551V285.959a14.86,14.86,0,0,1,14.86-14.86H135a14.86,14.86,0,0,1,14.86,14.86Z" transform="translate(-44.908 -235.087)" fill="#ff7d7d"/>
      <path id="Trazado_1031248" data-name="Trazado 1031248" d="M235.838,271.1h-4a14.86,14.86,0,0,1,14.86,14.86V302.1h4V285.959A14.86,14.86,0,0,0,235.838,271.1Z" transform="translate(-145.749 -235.087)" fill="#ff6161"/>
      <path id="Trazado_1031249" data-name="Trazado 1031249" d="M171.454,149.494a11.217,11.217,0,0,1-11.217-11.217V127.414c5.828.611,10.128.073,12.678-1.779,1.955,1.8,5.141,2.454,9.755,1.779v10.863A11.217,11.217,0,0,1,171.454,149.494Z" transform="translate(-83.658 -108.946)" fill="#ffd3a3"/>
      <g id="Grupo_1199422" data-name="Grupo 1199422" transform="translate(85.82 18.468)">
        <path id="Trazado_1031250" data-name="Trazado 1031250" d="M239.041,139.277v10.616a11.217,11.217,0,0,1-9.241,11.039,11.208,11.208,0,0,0,13.192-11.039V139.03A21.612,21.612,0,0,1,239.041,139.277Z" transform="translate(-229.8 -139.03)" fill="#ffbe84"/>
      </g>
      <path id="Trazado_1031251" data-name="Trazado 1031251" d="M115.551,319.629v2.382l4.188.208a2.962,2.962,0,0,0,2.991-2.129l1.1-3.777a2.962,2.962,0,0,0-.886-3.051l-3.786-3.335A14.8,14.8,0,0,0,115.551,319.629Z" transform="translate(-44.908 -268.757)" fill="#fff485"/>
      <g id="Grupo_1199423" data-name="Grupo 1199423" transform="translate(63.764 0)">
        <path id="Trazado_1031252" data-name="Trazado 1031252" d="M203.083,186.056v.921a1,1,0,1,0,1.993,0v-.921a1,1,0,0,0-1.993,0Z" transform="translate(-184.576 -160.477)"/>
        <path id="Trazado_1031253" data-name="Trazado 1031253" d="M271.267,186.056v.921a1,1,0,1,0,1.993,0v-.921a1,1,0,0,0-1.993,0Z" transform="translate(-243.703 -160.477)"/>
        <path id="Trazado_1031254" data-name="Trazado 1031254" d="M221.7,239.564a1,1,0,0,0,1.046,1.7,2.68,2.68,0,0,1,3.078,0,1,1,0,1,0,1.046-1.7A4.661,4.661,0,0,0,221.7,239.564Z" transform="translate(-200.313 -207.062)"/>
        <path id="Trazado_1031255" data-name="Trazado 1031255" d="M266.764,328.918a.992.992,0,0,0,.625-.221l.725-.585a1,1,0,0,0-1.251-1.551l-.725.585a1,1,0,0,0,.626,1.772Z" transform="translate(-238.933 -282.99)"/>
        <path id="Trazado_1031256" data-name="Trazado 1031256" d="M205.442,422.2l-.77-.469a1,1,0,0,0-1.037,1.7l.77.469a1,1,0,0,0,1.037-1.7Z" transform="translate(-184.64 -365.581)"/>
        <path id="Trazado_1031257" data-name="Trazado 1031257" d="M263.923,457.722l-.788.375a1,1,0,1,0,.857,1.8l.788-.375a1,1,0,1,0-.857-1.8Z" transform="translate(-236.159 -396.835)"/>
        <path id="Trazado_1031258" data-name="Trazado 1031258" d="M249.729,370.182a1,1,0,0,0,1.409,0l.74-.74.066.054a1,1,0,0,0,1.345-1.465l.223-.223.073.059a1,1,0,0,0,1.339-1.471l.49-.49a1,1,0,0,0-1.409-1.409l-.633.633-.173-.14a1,1,0,0,0-1.255,1.548l.011.009-.217.217-.18-.146a1,1,0,1,0-1.255,1.548l.018.014-.592.592A1,1,0,0,0,249.729,370.182Z" transform="translate(-224.773 -315.825)"/>
        <path id="Trazado_1031259" data-name="Trazado 1031259" d="M114.786,46.539l-6.21-18.919V26.036l1.255-.98a1,1,0,1,0-1.227-1.57l-.028.022v-2.67a20.726,20.726,0,0,0-1.535-7.851l1.2-1.065a1,1,0,1,0-1.323-1.49l-.759.673a20.99,20.99,0,0,0-7.522-8.02l.288-.421a1,1,0,0,0-1.644-1.125l-.4.579A20.844,20.844,0,0,0,78.5,2.157a1,1,0,1,0,.885,1.786,18.652,18.652,0,0,1,8.354-1.95,18.866,18.866,0,0,1,18.844,18.844V52.466a5.607,5.607,0,0,1-.64,2.607v-4.2a15.87,15.87,0,0,0-8.5-14.05,12.53,12.53,0,0,0,.794-1.156,1,1,0,1,0-1.7-1.035,10.221,10.221,0,0,1-18.961-5.3V19.563c5.226.434,9.044-.1,11.616-1.639,2.044,1.508,5,2.07,8.825,1.673v9.734a10.3,10.3,0,0,1-.2,2.022,1,1,0,1,0,1.954.392,12.3,12.3,0,0,0,.24-2.414V18.468a1,1,0,0,0-1.14-.986c-4.168.609-7.174.1-8.936-1.526a1,1,0,0,0-1.26-.073c-2.275,1.653-6.309,2.19-11.989,1.594a1,1,0,0,0-1.1.991V29.331a12.152,12.152,0,0,0,2.57,7.487,15.872,15.872,0,0,0-8.507,14.054V55.28a5.6,5.6,0,0,1-.751-2.814V20.837A18.723,18.723,0,0,1,76.279,5.879,1,1,0,0,0,75.066,4.3,21.078,21.078,0,0,0,71.157,8.2l-.609-.51a1,1,0,0,0-1.28,1.527l.751.629a20.592,20.592,0,0,0-2.761,7.12l-1.33.586a1,1,0,1,0,.8,1.823l.228-.1q-.057.773-.057,1.557v6.505l-1.027-.469a1,1,0,1,0-.827,1.813l1.216.555L65.241,30.4a1,1,0,0,0,1.5,1.316l.166-.189v4.8L63.782,52.71a1,1,0,1,0,1.957.373L66.9,46.977v5.489a7.559,7.559,0,0,0,2.744,5.851v8.7a1,1,0,0,0,1,1H82.973a1,1,0,0,0,0-1.993H80.239V57.233a1,1,0,0,0-1.993,0V66.02H71.64V54.3l3.142.156c.067,0,.134,0,.2,0a3.943,3.943,0,0,0,3.69-2.537l1.1.381a1,1,0,0,0,.651-1.883l-1.182-.408.184-.631,1.419.47a1,1,0,0,0,.626-1.891l-1.505-.5a3.975,3.975,0,0,0-1.272-3.706l-3.022-2.662a13.847,13.847,0,0,1,3.888-2.753,12.218,12.218,0,0,0,16.483.007,13.876,13.876,0,0,1,7.908,12.523V66.02H97.345V57.233a1,1,0,1,0-1.993,0V66.02H86.825a1,1,0,0,0,0,1.993h18.123a1,1,0,0,0,1-1V58.222a7.588,7.588,0,0,0,2.632-5.756V41.937l1.7,12.037a1,1,0,1,0,1.973-.279l-2.109-14.914,2.75,8.379a1,1,0,1,0,1.893-.621ZM77.378,45.252a1.973,1.973,0,0,1,.588,2.024l-1.1,3.777a1.96,1.96,0,0,1-1.984,1.413l-3.241-.161V50.872a13.862,13.862,0,0,1,2.734-8.266Z" transform="translate(-63.764 0)"/>
      </g>
    </g>
  </g>
</svg>
