<svg xmlns="http://www.w3.org/2000/svg" xmlns:xlink="http://www.w3.org/1999/xlink" width="118" height="118" viewBox="0 0 118 118">
  <defs>
    <filter id="Trazado_874925" x="0" y="0" width="117.999" height="118" filterUnits="userSpaceOnUse">
      <feOffset dy="3" input="SourceAlpha"/>
      <feGaussianBlur stdDeviation="3" result="blur"/>
      <feFlood flood-opacity="0.161"/>
      <feComposite operator="in" in2="blur"/>
      <feComposite in="SourceGraphic"/>
    </filter>
  </defs>
  <g id="Grupo_1199450" data-name="Grupo 1199450" transform="translate(1241 9766.573)">
    <g id="Grupo_1198312" data-name="Grupo 1198312" transform="translate(-2040.5 -12277.73)">
      <g id="Grupo_1111316" data-name="Grupo 1111316" transform="translate(808.5 2517.157)">
        <g id="Grupo_1109835" data-name="Grupo 1109835" transform="translate(0 0)">
          <g id="Grupo_1107913" data-name="Grupo 1107913" transform="translate(0 0)">
            <g transform="matrix(1, 0, 0, 1, -9, -6)" filter="url(#Trazado_874925)">
              <g id="Trazado_874925-2" data-name="Trazado 874925" transform="translate(9 6)" fill="#9ad354" opacity="0.859">
                <path d="M 49.99972534179688 98.4998779296875 C 43.45164108276367 98.4998779296875 37.10022354125977 97.21776580810547 31.12189674377441 94.68914794921875 C 25.34676742553711 92.24647521972656 20.15985298156738 88.74925994873047 15.70523929595947 84.29464721679688 C 11.25062561035156 79.84004974365234 7.753411293029785 74.65313720703125 5.310725212097168 68.87800598144531 C 2.782111167907715 62.89969253540039 1.499996781349182 56.54829406738281 1.499996781349182 50.00022125244141 C 1.499996781349182 43.45157623291016 2.782111167907715 37.10017776489258 5.310725212097168 31.12186431884766 C 7.753411293029785 25.34673500061035 11.25062561035156 20.15983581542969 15.70523929595947 15.70522117614746 C 20.15985298156738 11.25062084197998 25.34676742553711 7.753406524658203 31.12189674377441 5.31073522567749 C 37.10022354125977 2.782120943069458 43.45164108276367 1.500006556510925 49.99972534179688 1.500006556510925 C 56.54780960083008 1.500006556510925 62.89922714233398 2.782120943069458 68.87755584716797 5.31073522567749 C 74.65267944335938 7.753406524658203 79.839599609375 11.25062084197998 84.29421234130859 15.70522117614746 C 88.74882507324219 20.15983581542969 92.24604034423828 25.34673500061035 94.68872833251953 31.12186431884766 C 97.21733856201172 37.10017776489258 98.49945068359375 43.45157623291016 98.49945068359375 49.99964904785156 C 98.49945068359375 56.54829406738281 97.21733856201172 62.89969253540039 94.68872833251953 68.87800598144531 C 92.24604034423828 74.65313720703125 88.74882507324219 79.84004974365234 84.29421234130859 84.29464721679688 C 79.839599609375 88.74925994873047 74.65267944335938 92.24647521972656 68.87755584716797 94.68914794921875 C 62.89922714233398 97.21776580810547 56.54780960083008 98.4998779296875 49.99972534179688 98.4998779296875 Z" stroke="none"/>
                <path d="M 49.99972534179688 3 C 43.65348052978516 3 37.49866485595703 4.242240905761719 31.70623016357422 6.692230224609375 C 26.10989379882812 9.059272766113281 21.08323669433594 12.44853210449219 16.76589202880859 16.76587677001953 C 12.44855499267578 21.08321380615234 9.059295654296875 26.10985565185547 6.692230224609375 31.70618438720703 C 4.24224853515625 37.49859619140625 3 43.65341186523438 3 50.00022888183594 C 3 56.34645843505859 4.24224853515625 62.50127410888672 6.692230224609375 68.29368591308594 C 9.059295654296875 73.8900146484375 12.44855499267578 78.91665649414062 16.76589202880859 83.23399353027344 C 21.08323669433594 87.55132293701172 26.10989379882812 90.94059753417969 31.70623016357422 93.30764007568359 C 37.49866485595703 95.75762939453125 43.65348052978516 96.99987030029297 49.99972534179688 96.99987030029297 C 56.34597015380859 96.99987030029297 62.50078582763672 95.75762939453125 68.293212890625 93.30764007568359 C 73.88955688476562 90.94059753417969 78.91621398925781 87.55132293701172 83.23355865478516 83.23399353027344 C 87.55089569091797 78.91665649414062 90.94015502929688 73.8900146484375 93.30722045898438 68.29368591308594 C 95.7572021484375 62.50127410888672 96.99945068359375 56.34645843505859 96.99945068359375 49.99964141845703 C 96.99945068359375 43.65341186523438 95.7572021484375 37.49859619140625 93.30722045898438 31.70618438720703 C 90.94015502929688 26.10985565185547 87.55089569091797 21.08321380615234 83.23355865478516 16.76587677001953 C 78.91621398925781 12.44853210449219 73.88955688476562 9.059272766113281 68.293212890625 6.692230224609375 C 62.50078582763672 4.242240905761719 56.34597015380859 3 49.99972534179688 3 M 49.99972534179688 0 C 77.61381530761719 0 99.99945068359375 22.38559722900391 99.99945068359375 49.99964141845703 L 99.99945068359375 50.00022888183594 C 99.99945068359375 77.6142578125 77.61381530761719 99.99987030029297 49.99972534179688 99.99987030029297 C 22.38563537597656 99.99987030029297 0 77.6142578125 0 50.00022888183594 L 0 49.99964141845703 C 0 22.38559722900391 22.38563537597656 0 49.99972534179688 0 Z" stroke="none" fill="#fff"/>
              </g>
            </g>
            <g id="Trazado_874923" data-name="Trazado 874923" transform="translate(0 0)" fill="none">
              <path d="M50,0a50,50,0,0,1,50,50h0A50,50,0,0,1,0,50H0A50,50,0,0,1,50,0Z" stroke="none"/>
              <path d="M 49.99972534179688 3 C 43.65348052978516 3 37.49866485595703 4.242240905761719 31.70623016357422 6.692230224609375 C 26.10989379882812 9.059272766113281 21.08323669433594 12.44853210449219 16.76589202880859 16.76587677001953 C 12.44855499267578 21.08321380615234 9.059295654296875 26.10985565185547 6.692230224609375 31.70618438720703 C 4.24224853515625 37.49859619140625 3 43.65341186523438 3 50.00022888183594 C 3 56.34645843505859 4.24224853515625 62.50127410888672 6.692230224609375 68.29368591308594 C 9.059295654296875 73.8900146484375 12.44855499267578 78.91665649414062 16.76589202880859 83.23399353027344 C 21.08323669433594 87.55132293701172 26.10989379882812 90.94059753417969 31.70623016357422 93.30764007568359 C 37.49866485595703 95.75762939453125 43.65348052978516 96.99987030029297 49.99972534179688 96.99987030029297 C 56.34597015380859 96.99987030029297 62.50078582763672 95.75762939453125 68.293212890625 93.30764007568359 C 73.88955688476562 90.94059753417969 78.91621398925781 87.55132293701172 83.23355865478516 83.23399353027344 C 87.55089569091797 78.91665649414062 90.94015502929688 73.8900146484375 93.30722045898438 68.29368591308594 C 95.7572021484375 62.50127410888672 96.99945068359375 56.34645843505859 96.99945068359375 49.99964141845703 C 96.99945068359375 43.65341186523438 95.7572021484375 37.49859619140625 93.30722045898438 31.70618438720703 C 90.94015502929688 26.10985565185547 87.55089569091797 21.08321380615234 83.23355865478516 16.76587677001953 C 78.91621398925781 12.44853210449219 73.88955688476562 9.059272766113281 68.293212890625 6.692230224609375 C 62.50078582763672 4.242240905761719 56.34597015380859 3 49.99972534179688 3 M 49.99972534179688 0 C 77.61381530761719 0 99.99945068359375 22.38559722900391 99.99945068359375 49.99964141845703 L 99.99945068359375 50.00022888183594 C 99.99945068359375 77.6142578125 77.61381530761719 99.99987030029297 49.99972534179688 99.99987030029297 C 22.38563537597656 99.99987030029297 0 77.6142578125 0 50.00022888183594 L 0 49.99964141845703 C 0 22.38559722900391 22.38563537597656 0 49.99972534179688 0 Z" stroke="none" fill="#fff"/>
            </g>
          </g>
        </g>
      </g>
    </g>
    <g id="good-quality_10132366" transform="translate(-1244.048 -9747.846)">
      <g id="Grupo_1199444" data-name="Grupo 1199444" transform="translate(33.688 7.5)">
        <path id="Trazado_1031293" data-name="Trazado 1031293" d="M33.688,240.813,40.644,222.9l.589-4.9a24.414,24.414,0,0,1,2.412-8.024l2.757-5.5a3.514,3.514,0,0,1,4.335-1.732h0A3.514,3.514,0,0,1,53,206.687l-1.44,7.7,1.551,1.771a3.619,3.619,0,0,0,3.291,1.189l18.592-2.96,5.711-7.3a3.447,3.447,0,0,1,3.97-1.088h0a3.447,3.447,0,0,1,1.787,4.835l-4.908,9.195a9.321,9.321,0,0,1-4.852,4.3L59,231.187l-2.068,9.626Z" transform="translate(-33.688 -177.799)" fill="#ffcebf"/>
        <path id="Trazado_1031294" data-name="Trazado 1031294" d="M152.319,217.125l-1.372.218a3.617,3.617,0,0,1-3.291-1.189l-.6-.689a2.959,2.959,0,0,1-.683-2.494l1.176-6.283a3.506,3.506,0,0,0-1.807-3.75,3.512,3.512,0,0,1,5.1,3.75l-1.44,7.7,1.551,1.77A3.622,3.622,0,0,0,152.319,217.125Z" transform="translate(-131.532 -177.799)" fill="#ffb09e"/>
        <path id="Trazado_1031295" data-name="Trazado 1031295" d="M224.269,231.442a3.419,3.419,0,0,1-.407,1.619l-4.908,9.195a9.321,9.321,0,0,1-4.852,4.3l-17.7,6.866-2.068,9.626h-3.3l1.771-8.24a2.629,2.629,0,0,1,1.619-1.9l16.374-6.353a9.325,9.325,0,0,0,4.852-4.3l4.908-9.195a3.444,3.444,0,0,0-1.393-4.651,3.448,3.448,0,0,1,5.1,3.032Z" transform="translate(-171.09 -200.035)" fill="#ffb09e"/>
        <g id="Grupo_1199442" data-name="Grupo 1199442" transform="translate(11.477 3.467)">
          <path id="Trazado_1031296" data-name="Trazado 1031296" d="M145.571,110.081l-5.021.519-5.021-.519a10.262,10.262,0,0,0-9.4,4.235h0a10.262,10.262,0,0,0-.409,11.328l5.163,8.438a7.229,7.229,0,0,0,6.167,3.456h0a7.227,7.227,0,0,0,2.167-.332l1.334-.419,1.334.419a7.228,7.228,0,0,0,2.167.332h0a7.229,7.229,0,0,0,6.167-3.456l5.163-8.438a10.262,10.262,0,0,0-.409-11.328h0A10.262,10.262,0,0,0,145.571,110.081Z" transform="translate(-124.212 -100.494)" fill="#fe646f"/>
          <path id="Trazado_1031297" data-name="Trazado 1031297" d="M277.147,125.647l-5.163,8.439a7.229,7.229,0,0,1-8.325,3.127,7.105,7.105,0,0,0,1.379-.593,7.236,7.236,0,0,0,2.632-2.533l5.163-8.439a10.26,10.26,0,0,0-6.8-15.428l1.3-.134a10.261,10.261,0,0,1,9.808,15.562Z" transform="translate(-245.979 -100.498)" fill="#fd4755"/>
          <g id="Grupo_1199441" data-name="Grupo 1199441" transform="translate(13.616)">
            <path id="Trazado_1031298" data-name="Trazado 1031298" d="M237.489,35.368s-1.381-1.7-3.932,1.038-1.873,5.192-1.873,5.192,2.5.5,5.047-2.235S237.489,35.368,237.489,35.368Z" transform="translate(-231.603 -34.846)" fill="#80d261"/>
          </g>
        </g>
        <path id="Trazado_1031299" data-name="Trazado 1031299" d="M370.788,161.886l-1.83-1.205-1.721,1.165a1.172,1.172,0,0,1-1.829-.971v-8.714h7.2v8.747A1.172,1.172,0,0,1,370.788,161.886Z" transform="translate(-323.351 -133.82)" fill="#6c7fd8"/>
        <path id="Trazado_1031300" data-name="Trazado 1031300" d="M399.457,152.16v8.747a1.172,1.172,0,0,1-1.817.979l-1.481-.976v-8.75Z" transform="translate(-350.202 -133.819)" fill="#4f66d0"/>
        <g id="Grupo_1199443" data-name="Grupo 1199443" transform="translate(34.851 0)">
          <path id="Trazado_1031301" data-name="Trazado 1031301" d="M320.907,7.93h0a3.129,3.129,0,0,1,4.607,1.908h0a3.129,3.129,0,0,0,2.235,2.235h0a3.129,3.129,0,0,1,1.908,4.607h0a3.129,3.129,0,0,0,0,3.16h0a3.129,3.129,0,0,1-1.908,4.607h0a3.129,3.129,0,0,0-2.235,2.235h0a3.129,3.129,0,0,1-4.607,1.908h0a3.129,3.129,0,0,0-3.16,0h0a3.129,3.129,0,0,1-4.607-1.908h0a3.129,3.129,0,0,0-2.235-2.235h0A3.129,3.129,0,0,1,309,19.841h0a3.129,3.129,0,0,0,0-3.16h0a3.129,3.129,0,0,1,1.908-4.607h0a3.129,3.129,0,0,0,2.235-2.235h0a3.129,3.129,0,0,1,4.607-1.908h0A3.13,3.13,0,0,0,320.907,7.93Z" transform="translate(-308.566 -7.5)" fill="#fef056"/>
          <path id="Trazado_1031302" data-name="Trazado 1031302" d="M398.587,19.841a3.129,3.129,0,0,1,0-3.16h0a3.129,3.129,0,0,0-1.908-4.607h0a3.129,3.129,0,0,1-2.235-2.235h0a3.129,3.129,0,0,0-4.607-1.908h0a3.128,3.128,0,0,1-2.333.335,12.126,12.126,0,0,1,5.023,10.049,12.166,12.166,0,0,1-4.806,9.9,3.128,3.128,0,0,1,2.116.38h0a3.129,3.129,0,0,0,4.607-1.908h0a3.129,3.129,0,0,1,2.235-2.235h0a3.129,3.129,0,0,0,1.908-4.607Z" transform="translate(-377.496 -7.5)" fill="#fee903"/>
          <circle id="Elipse_12187" data-name="Elipse 12187" cx="6.424" cy="6.424" r="6.424" transform="translate(4.336 4.336)" fill="#fef48b"/>
        </g>
        <path id="Trazado_1031303" data-name="Trazado 1031303" d="M416.5,47.26a13.063,13.063,0,0,1,.072,11.4,6.424,6.424,0,0,0-.072-11.4Z" transform="translate(-367.967 -42.219)" fill="#fef056"/>
      </g>
      <g id="Grupo_1199449" data-name="Grupo 1199449" transform="translate(33.688 7.5)">
        <path id="Trazado_1031304" data-name="Trazado 1031304" d="M33.689,259.2l6.956-17.916.588-4.9a24.423,24.423,0,0,1,2.413-8.024l2.391-4.775" transform="translate(-33.689 -196.184)" fill="none" stroke="#000" stroke-linecap="round" stroke-linejoin="round" stroke-miterlimit="10" stroke-width="2"/>
        <line id="Línea_734" data-name="Línea 734" x1="2.068" y2="9.626" transform="translate(23.248 53.388)" fill="none" stroke="#000" stroke-linecap="round" stroke-linejoin="round" stroke-miterlimit="10" stroke-width="2"/>
        <path id="Trazado_1031305" data-name="Trazado 1031305" d="M273.969,237.246l3.918-.624,5.711-7.3a3.447,3.447,0,0,1,5.757,3.747l-4.908,9.195a9.321,9.321,0,0,1-4.852,4.3l-13.552,5.258" transform="translate(-236.583 -200.037)" fill="none" stroke="#000" stroke-linecap="round" stroke-linejoin="round" stroke-miterlimit="10" stroke-width="2"/>
        <g id="Grupo_1199445" data-name="Grupo 1199445" transform="translate(5.642 5.302)">
          <line id="Línea_735" data-name="Línea 735" y2="2.87" transform="translate(1.435 3.9)" fill="none" stroke="#000" stroke-linecap="round" stroke-linejoin="round" stroke-miterlimit="10" stroke-width="2"/>
          <line id="Línea_736" data-name="Línea 736" x1="2.87" transform="translate(0 5.335)" fill="none" stroke="#000" stroke-linecap="round" stroke-linejoin="round" stroke-miterlimit="10" stroke-width="2"/>
          <line id="Línea_737" data-name="Línea 737" transform="translate(5.835)" fill="none" stroke="#000" stroke-linecap="round" stroke-linejoin="round" stroke-miterlimit="10" stroke-width="2"/>
        </g>
        <g id="Grupo_1199447" data-name="Grupo 1199447" transform="translate(11.477 3.467)">
          <path id="Trazado_1031306" data-name="Trazado 1031306" d="M140.548,110.6l-5.021-.519a10.26,10.26,0,0,0-10.447,14.342l5.515,9.193.285.465a7.228,7.228,0,0,0,7.262,3.373,7.377,7.377,0,0,0,1.071-.249l1.334-.42,1.333.42a7.23,7.23,0,0,0,8.334-3.124l5.163-8.439c.087-.143.172-.289.252-.436" transform="translate(-124.209 -100.497)" fill="none" stroke="#000" stroke-linecap="round" stroke-linejoin="round" stroke-miterlimit="10" stroke-width="2"/>
          <path id="Trazado_1031307" data-name="Trazado 1031307" d="M290.751,110.088a9.838,9.838,0,0,0-1.079-.058,10.219,10.219,0,0,0-1.057.055l-.59.061" transform="translate(-267.254 -100.498)" fill="none" stroke="#000" stroke-linecap="round" stroke-linejoin="round" stroke-miterlimit="10" stroke-width="2"/>
          <line id="Línea_738" data-name="Línea 738" x1="4.915" y1="6.237" transform="translate(11.424 3.869)" fill="none" stroke="#000" stroke-linecap="round" stroke-linejoin="round" stroke-miterlimit="10" stroke-width="2"/>
          <g id="Grupo_1199446" data-name="Grupo 1199446" transform="translate(13.616)">
            <path id="Trazado_1031308" data-name="Trazado 1031308" d="M237.489,35.368s-1.381-1.7-3.932,1.038-1.873,5.192-1.873,5.192,2.5.5,5.047-2.235S237.489,35.368,237.489,35.368Z" transform="translate(-231.603 -34.846)" fill="none" stroke="#000" stroke-linecap="round" stroke-linejoin="round" stroke-miterlimit="10" stroke-width="2"/>
          </g>
        </g>
        <g id="Grupo_1199448" data-name="Grupo 1199448" transform="translate(34.851 0)">
          <path id="Trazado_1031309" data-name="Trazado 1031309" d="M320.907,7.93h0a3.129,3.129,0,0,1,4.607,1.908h0a3.129,3.129,0,0,0,2.235,2.235h0a3.129,3.129,0,0,1,1.908,4.607h0a3.129,3.129,0,0,0,0,3.16h0a3.129,3.129,0,0,1-1.908,4.607h0a3.129,3.129,0,0,0-2.235,2.235h0a3.129,3.129,0,0,1-4.607,1.908h0a3.129,3.129,0,0,0-3.16,0h0a3.129,3.129,0,0,1-4.607-1.908h0a3.129,3.129,0,0,0-2.235-2.235h0A3.129,3.129,0,0,1,309,19.841h0a3.129,3.129,0,0,0,0-3.16h0a3.129,3.129,0,0,1,1.908-4.607h0a3.129,3.129,0,0,0,2.235-2.235h0a3.129,3.129,0,0,1,4.607-1.908h0A3.13,3.13,0,0,0,320.907,7.93Z" transform="translate(-308.566 -7.5)" fill="none" stroke="#000" stroke-linecap="round" stroke-linejoin="round" stroke-miterlimit="10" stroke-width="2"/>
          <path id="Trazado_1031310" data-name="Trazado 1031310" d="M375.981,81.735l1.794,1.545,2.633-3.089" transform="translate(-367.434 -70.974)" fill="none" stroke="#000" stroke-linecap="round" stroke-linejoin="round" stroke-miterlimit="10" stroke-width="2"/>
          <circle id="Elipse_12188" data-name="Elipse 12188" cx="6.424" cy="6.424" r="6.424" transform="translate(4.336 4.336)" fill="none" stroke="#000" stroke-linecap="round" stroke-linejoin="round" stroke-miterlimit="10" stroke-width="2"/>
        </g>
        <path id="Trazado_1031311" data-name="Trazado 1031311" d="M372.606,176.94v5.605a1.172,1.172,0,0,1-1.817.979l-1.83-1.206-1.722,1.165a1.172,1.172,0,0,1-1.828-.971v-5.558" transform="translate(-323.351 -155.457)" fill="none" stroke="#000" stroke-linecap="round" stroke-linejoin="round" stroke-miterlimit="10" stroke-width="2"/>
        <path id="Trazado_1031312" data-name="Trazado 1031312" d="M178.235,325.233s-2.818-1.053-5.636,2.118" transform="translate(-154.987 -284.802)" fill="none" stroke="#000" stroke-linecap="round" stroke-linejoin="round" stroke-miterlimit="10" stroke-width="2"/>
      </g>
    </g>
  </g>
</svg>
