<svg xmlns="http://www.w3.org/2000/svg" xmlns:xlink="http://www.w3.org/1999/xlink" width="118" height="118" viewBox="0 0 118 118">
  <defs>
    <filter id="Trazado_874925" x="0" y="0" width="117.999" height="118" filterUnits="userSpaceOnUse">
      <feOffset dy="3" input="SourceAlpha"/>
      <feGaussianBlur stdDeviation="3" result="blur"/>
      <feFlood flood-opacity="0.161"/>
      <feComposite operator="in" in2="blur"/>
      <feComposite in="SourceGraphic"/>
    </filter>
    <clipPath id="clip-path">
      <path id="path11445" d="M0-682.665H66.164V-616.5H0Z" transform="translate(0 682.665)"/>
    </clipPath>
  </defs>
  <g id="Grupo_1199454" data-name="Grupo 1199454" transform="translate(1241.25 9359.573)">
    <g id="Grupo_1198314" data-name="Grupo 1198314" transform="translate(-2040.75 -11870.73)">
      <g id="Grupo_1111316" data-name="Grupo 1111316" transform="translate(808.5 2517.157)">
        <g id="Grupo_1109835" data-name="Grupo 1109835" transform="translate(0 0)">
          <g id="Grupo_1107913" data-name="Grupo 1107913" transform="translate(0 0)">
            <g transform="matrix(1, 0, 0, 1, -9, -6)" filter="url(#Trazado_874925)">
              <g id="Trazado_874925-2" data-name="Trazado 874925" transform="translate(9 6)" fill="#9ad354" opacity="0.859">
                <path d="M 49.99972534179688 98.4998779296875 C 43.45164108276367 98.4998779296875 37.10022354125977 97.21776580810547 31.12189674377441 94.68914794921875 C 25.34676742553711 92.24647521972656 20.15985298156738 88.74925994873047 15.70523929595947 84.29464721679688 C 11.25062561035156 79.84004974365234 7.753411293029785 74.65313720703125 5.310725212097168 68.87800598144531 C 2.782111167907715 62.89969253540039 1.499996781349182 56.54829406738281 1.499996781349182 50.00022125244141 C 1.499996781349182 43.45157623291016 2.782111167907715 37.10017776489258 5.310725212097168 31.12186431884766 C 7.753411293029785 25.34673500061035 11.25062561035156 20.15983581542969 15.70523929595947 15.70522117614746 C 20.15985298156738 11.25062084197998 25.34676742553711 7.753406524658203 31.12189674377441 5.31073522567749 C 37.10022354125977 2.782120943069458 43.45164108276367 1.500006556510925 49.99972534179688 1.500006556510925 C 56.54780960083008 1.500006556510925 62.89922714233398 2.782120943069458 68.87755584716797 5.31073522567749 C 74.65267944335938 7.753406524658203 79.839599609375 11.25062084197998 84.29421234130859 15.70522117614746 C 88.74882507324219 20.15983581542969 92.24604034423828 25.34673500061035 94.68872833251953 31.12186431884766 C 97.21733856201172 37.10017776489258 98.49945068359375 43.45157623291016 98.49945068359375 49.99964904785156 C 98.49945068359375 56.54829406738281 97.21733856201172 62.89969253540039 94.68872833251953 68.87800598144531 C 92.24604034423828 74.65313720703125 88.74882507324219 79.84004974365234 84.29421234130859 84.29464721679688 C 79.839599609375 88.74925994873047 74.65267944335938 92.24647521972656 68.87755584716797 94.68914794921875 C 62.89922714233398 97.21776580810547 56.54780960083008 98.4998779296875 49.99972534179688 98.4998779296875 Z" stroke="none"/>
                <path d="M 49.99972534179688 3 C 43.65348052978516 3 37.49866485595703 4.242240905761719 31.70623016357422 6.692230224609375 C 26.10989379882812 9.059272766113281 21.08323669433594 12.44853210449219 16.76589202880859 16.76587677001953 C 12.44855499267578 21.08321380615234 9.059295654296875 26.10985565185547 6.692230224609375 31.70618438720703 C 4.24224853515625 37.49859619140625 3 43.65341186523438 3 50.00022888183594 C 3 56.34645843505859 4.24224853515625 62.50127410888672 6.692230224609375 68.29368591308594 C 9.059295654296875 73.8900146484375 12.44855499267578 78.91665649414062 16.76589202880859 83.23399353027344 C 21.08323669433594 87.55132293701172 26.10989379882812 90.94059753417969 31.70623016357422 93.30764007568359 C 37.49866485595703 95.75762939453125 43.65348052978516 96.99987030029297 49.99972534179688 96.99987030029297 C 56.34597015380859 96.99987030029297 62.50078582763672 95.75762939453125 68.293212890625 93.30764007568359 C 73.88955688476562 90.94059753417969 78.91621398925781 87.55132293701172 83.23355865478516 83.23399353027344 C 87.55089569091797 78.91665649414062 90.94015502929688 73.8900146484375 93.30722045898438 68.29368591308594 C 95.7572021484375 62.50127410888672 96.99945068359375 56.34645843505859 96.99945068359375 49.99964141845703 C 96.99945068359375 43.65341186523438 95.7572021484375 37.49859619140625 93.30722045898438 31.70618438720703 C 90.94015502929688 26.10985565185547 87.55089569091797 21.08321380615234 83.23355865478516 16.76587677001953 C 78.91621398925781 12.44853210449219 73.88955688476562 9.059272766113281 68.293212890625 6.692230224609375 C 62.50078582763672 4.242240905761719 56.34597015380859 3 49.99972534179688 3 M 49.99972534179688 0 C 77.61381530761719 0 99.99945068359375 22.38559722900391 99.99945068359375 49.99964141845703 L 99.99945068359375 50.00022888183594 C 99.99945068359375 77.6142578125 77.61381530761719 99.99987030029297 49.99972534179688 99.99987030029297 C 22.38563537597656 99.99987030029297 0 77.6142578125 0 50.00022888183594 L 0 49.99964141845703 C 0 22.38559722900391 22.38563537597656 0 49.99972534179688 0 Z" stroke="none" fill="#fff"/>
              </g>
            </g>
            <g id="Trazado_874923" data-name="Trazado 874923" transform="translate(0 0)" fill="none">
              <path d="M50,0a50,50,0,0,1,50,50h0A50,50,0,0,1,0,50H0A50,50,0,0,1,50,0Z" stroke="none"/>
              <path d="M 49.99972534179688 3 C 43.65348052978516 3 37.49866485595703 4.242240905761719 31.70623016357422 6.692230224609375 C 26.10989379882812 9.059272766113281 21.08323669433594 12.44853210449219 16.76589202880859 16.76587677001953 C 12.44855499267578 21.08321380615234 9.059295654296875 26.10985565185547 6.692230224609375 31.70618438720703 C 4.24224853515625 37.49859619140625 3 43.65341186523438 3 50.00022888183594 C 3 56.34645843505859 4.24224853515625 62.50127410888672 6.692230224609375 68.29368591308594 C 9.059295654296875 73.8900146484375 12.44855499267578 78.91665649414062 16.76589202880859 83.23399353027344 C 21.08323669433594 87.55132293701172 26.10989379882812 90.94059753417969 31.70623016357422 93.30764007568359 C 37.49866485595703 95.75762939453125 43.65348052978516 96.99987030029297 49.99972534179688 96.99987030029297 C 56.34597015380859 96.99987030029297 62.50078582763672 95.75762939453125 68.293212890625 93.30764007568359 C 73.88955688476562 90.94059753417969 78.91621398925781 87.55132293701172 83.23355865478516 83.23399353027344 C 87.55089569091797 78.91665649414062 90.94015502929688 73.8900146484375 93.30722045898438 68.29368591308594 C 95.7572021484375 62.50127410888672 96.99945068359375 56.34645843505859 96.99945068359375 49.99964141845703 C 96.99945068359375 43.65341186523438 95.7572021484375 37.49859619140625 93.30722045898438 31.70618438720703 C 90.94015502929688 26.10985565185547 87.55089569091797 21.08321380615234 83.23355865478516 16.76587677001953 C 78.91621398925781 12.44853210449219 73.88955688476562 9.059272766113281 68.293212890625 6.692230224609375 C 62.50078582763672 4.242240905761719 56.34597015380859 3 49.99972534179688 3 M 49.99972534179688 0 C 77.61381530761719 0 99.99945068359375 22.38559722900391 99.99945068359375 49.99964141845703 L 99.99945068359375 50.00022888183594 C 99.99945068359375 77.6142578125 77.61381530761719 99.99987030029297 49.99972534179688 99.99987030029297 C 22.38563537597656 99.99987030029297 0 77.6142578125 0 50.00022888183594 L 0 49.99964141845703 C 0 22.38559722900391 22.38563537597656 0 49.99972534179688 0 Z" stroke="none" fill="#fff"/>
            </g>
          </g>
        </g>
      </g>
    </g>
    <g id="g11439" transform="translate(-1215.332 -8651.99)">
      <g id="g11441" transform="translate(0 -682.665)">
        <g id="g11443" clip-path="url(#clip-path)">
          <g id="g11449" transform="translate(3.877 6.784)">
            <path id="path11451" d="M-272.127-544.255h0a29.205,29.205,0,0,1-29.205-29.205,29.205,29.205,0,0,1,29.205-29.205,29.205,29.205,0,0,1,29.205,29.205,29.205,29.205,0,0,1-29.205,29.205" transform="translate(301.333 602.665)" fill="#6f6571"/>
          </g>
          <g id="g11453" transform="translate(31.144 6.784)">
            <path id="path11455" d="M-290.189-272.127a29.119,29.119,0,0,1-8.553,20.652,29.119,29.119,0,0,1-20.652,8.554q-.977,0-1.938-.063a29.115,29.115,0,0,0,18.713-8.49,29.119,29.119,0,0,0,8.553-20.652,29.119,29.119,0,0,0-8.553-20.652,29.116,29.116,0,0,0-18.713-8.49q.961-.062,1.938-.063a29.119,29.119,0,0,1,20.652,8.554,29.119,29.119,0,0,1,8.553,20.652" transform="translate(321.333 301.333)" fill="#5d5360"/>
          </g>
          <g id="g11457" transform="translate(36.959 9.192)">
            <path id="path11459" d="M-236-249.695a29.323,29.323,0,0,1-.177,3.231h-7.269a1.751,1.751,0,0,0-1.729,1.746v3.662a4.74,4.74,0,0,1-.65,2.389l-4.02,6.855a2.65,2.65,0,0,1-1.765,1.285,2.623,2.623,0,0,1-2.362-.709,2.58,2.58,0,0,1-.765-1.834v-4.571a2.385,2.385,0,0,0-1.773-2.3l-3.043-.823a2.386,2.386,0,0,1-1.774-2.3v-7.007a2.346,2.346,0,0,1,2.345-2.345h9.026a2.383,2.383,0,0,0,1.675-.682,2.292,2.292,0,0,0,.689-1.8,2.369,2.369,0,0,0-2.384-2.168h-1.2a2.377,2.377,0,0,1-2.4-2.356v-17.076a29.156,29.156,0,0,1,4.448,2.413,29.351,29.351,0,0,1,4.573,3.733,29.111,29.111,0,0,1,8.552,20.5c0,.05,0,.1,0,.15" transform="translate(261.333 276.493)" fill="#8c858e"/>
          </g>
          <g id="g11461" transform="translate(44.712 9.192)">
            <path id="path11463" d="M-163.758-249.695a29.319,29.319,0,0,1-.177,3.231h-3.877a29.319,29.319,0,0,0,.177-3.231,29.119,29.119,0,0,0-8.553-20.652,29.383,29.383,0,0,0-5.145-4.1v-2.046a29.155,29.155,0,0,1,4.448,2.413,29.351,29.351,0,0,1,4.573,3.733,29.111,29.111,0,0,1,8.552,20.5c0,.05,0,.1,0,.15" transform="translate(181.333 276.493)" fill="#7f7882"/>
          </g>
          <g id="g11465" transform="translate(3.877 6.784)">
            <path id="path11467" d="M-272.127,0V58.41a29.2,29.2,0,0,1-29.205-29.205,29.119,29.119,0,0,1,8.554-20.652A29.119,29.119,0,0,1-272.127,0" transform="translate(301.333)" fill="#71ddf9"/>
          </g>
          <g id="g11469" transform="translate(31.144 6.784)">
            <path id="path11471" d="M-18.062,0V.256Q-19.021.128-20,.063-19.039,0-18.062,0" transform="translate(20)" fill="#23c7f7"/>
          </g>
          <g id="g11473" transform="translate(31.144 64.939)">
            <path id="path11475" d="M-18.062,0V.256q-.977,0-1.938-.063Q-19.021.129-18.062,0" transform="translate(20)" fill="#23c7f7"/>
          </g>
          <g id="g11477" transform="translate(5.113 10.612)">
            <path id="path11479" d="M-156.413-180.17v.992a2.387,2.387,0,0,0,2.379,2.393h2.508a2.346,2.346,0,0,1,2.347,2.345v4.385a2.376,2.376,0,0,1-1.48,2.2l-3.2,1.3a2.381,2.381,0,0,0-1.427,1.7l-1.7,7.777a2.374,2.374,0,0,1-2.316,1.87h-1.832a2.344,2.344,0,0,1-2.281-1.8l-2.33-9.779a2.354,2.354,0,0,0-1.247-1.561l-1.251-.616a2.347,2.347,0,0,1-1.309-2.105v-3.374a2.348,2.348,0,0,1,2.347-2.344h3.574a2.379,2.379,0,0,0,2.366-2.393v-.992a2.379,2.379,0,0,0-2.366-2.393H-173.2a29.2,29.2,0,0,1,7.317-12.217,29.332,29.332,0,0,1,6.186-4.726l9.671,6.761a1.936,1.936,0,0,1,.846,1.6v6.642a1.938,1.938,0,0,1-1.938,1.938h-2.917a2.387,2.387,0,0,0-2.379,2.393" transform="translate(173.2 199.506)" fill="#ccf49f"/>
          </g>
          <g id="g11481" transform="translate(42.451 0.969)">
            <path id="path11483" d="M-105.961-211.922h0a11.372,11.372,0,0,1-11.372-11.372,11.372,11.372,0,0,1,11.372-11.372,11.372,11.372,0,0,1,11.372,11.372,11.372,11.372,0,0,1-11.372,11.372" transform="translate(117.333 234.666)" fill="#fc8d94"/>
          </g>
          <g id="g11485" transform="translate(51.884 0.969)">
            <path id="path11487" d="M-124.023-105.961a11.332,11.332,0,0,1-3.331,8.04,11.332,11.332,0,0,1-8.04,3.331,11.54,11.54,0,0,1-1.938-.164,11.336,11.336,0,0,0,6.1-3.167,11.332,11.332,0,0,0,3.331-8.04,11.332,11.332,0,0,0-3.331-8.04,11.336,11.336,0,0,0-6.1-3.167,11.541,11.541,0,0,1,1.938-.164,11.332,11.332,0,0,1,8.04,3.331,11.332,11.332,0,0,1,3.331,8.04" transform="translate(137.333 117.333)" fill="#f77289"/>
          </g>
          <g id="g11489" transform="translate(0.969 0.969)">
            <path id="path11491" d="M-105.961-211.922h0a11.372,11.372,0,0,1-11.372-11.372,11.372,11.372,0,0,1,11.372-11.372,11.372,11.372,0,0,1,11.372,11.372,11.372,11.372,0,0,1-11.372,11.372" transform="translate(117.333 234.666)" fill="#c3aff0"/>
          </g>
          <g id="g11493" transform="translate(10.403 0.969)">
            <path id="path11495" d="M-124.023-105.961a11.332,11.332,0,0,1-3.331,8.04,11.332,11.332,0,0,1-8.04,3.331,11.54,11.54,0,0,1-1.938-.164,11.336,11.336,0,0,0,6.1-3.167,11.332,11.332,0,0,0,3.331-8.04,11.332,11.332,0,0,0-3.331-8.04,11.336,11.336,0,0,0-6.1-3.167,11.541,11.541,0,0,1,1.938-.164,11.332,11.332,0,0,1,8.04,3.331,11.332,11.332,0,0,1,3.331,8.04" transform="translate(137.333 117.333)" fill="#ad96ed"/>
          </g>
          <g id="g11497" transform="translate(5.726 14.252)">
            <path id="path11499" d="M0-123.959H8.96a2.379,2.379,0,0,1,2.366,2.393v.993A2.379,2.379,0,0,1,8.96-118.18H5.386a2.346,2.346,0,0,0-2.346,2.344v3.375a2.347,2.347,0,0,0,1.309,2.1l1.251.616a2.353,2.353,0,0,1,1.246,1.561L9.175-98.4a2.345,2.345,0,0,0,2.282,1.8h1.831A2.373,2.373,0,0,0,15.6-98.47l1.7-7.777a2.38,2.38,0,0,1,1.426-1.7l3.2-1.3a2.377,2.377,0,0,0,1.479-2.2v-4.385a2.346,2.346,0,0,0-2.346-2.346H18.553a2.386,2.386,0,0,1-2.379-2.393v-.993a2.386,2.386,0,0,1,2.379-2.393h2.916a1.938,1.938,0,0,0,1.938-1.938v-6.643a1.938,1.938,0,0,0-.846-1.6l-4.574-3.121" transform="translate(0 137.262)" fill="none" stroke="#000" stroke-linecap="round" stroke-linejoin="round" stroke-miterlimit="10" stroke-width="2"/>
          </g>
          <g id="g11501" transform="translate(36.959 19.665)">
            <path id="path11503" d="M-228.971-182.215h-6.691a1.751,1.751,0,0,0-1.729,1.745v3.663a4.73,4.73,0,0,1-.651,2.39l-4.02,6.856a2.647,2.647,0,0,1-1.765,1.284,2.621,2.621,0,0,1-2.362-.708,2.58,2.58,0,0,1-.765-1.835v-4.57a2.386,2.386,0,0,0-1.773-2.3l-3.043-.822a2.388,2.388,0,0,1-1.775-2.3v-7.006a2.346,2.346,0,0,1,2.346-2.346h9.026a2.378,2.378,0,0,0,1.674-.682,2.291,2.291,0,0,0,.69-1.8,2.369,2.369,0,0,0-2.385-2.168h-1.2a2.377,2.377,0,0,1-2.4-2.356v-6.6" transform="translate(253.545 201.77)" fill="none" stroke="#000" stroke-linecap="round" stroke-linejoin="round" stroke-miterlimit="10" stroke-width="2"/>
          </g>
          <g id="g11505" transform="translate(23.435 6.784)">
            <path id="path11507" d="M0-15.195a29.344,29.344,0,0,1,19.552.092" transform="translate(0 16.825)" fill="none" stroke="#000" stroke-linecap="round" stroke-linejoin="round" stroke-miterlimit="10" stroke-width="2"/>
          </g>
          <g id="g11509" transform="translate(3.877 22.816)">
            <path id="path11511" d="M-430.336-344.191a29.073,29.073,0,0,1-16.979,5.44,29.205,29.205,0,0,1-29.205-29.205,29.082,29.082,0,0,1,3.133-13.174" transform="translate(476.52 381.13)" fill="none" stroke="#000" stroke-linecap="round" stroke-linejoin="round" stroke-miterlimit="10" stroke-width="2"/>
          </g>
          <g id="g11513" transform="translate(53.526 22.645)">
            <path id="path11515" d="M-51.63,0a29.08,29.08,0,0,1,3.22,13.345A29.117,29.117,0,0,1-57.171,34.2" transform="translate(57.171)" fill="none" stroke="#000" stroke-linecap="round" stroke-linejoin="round" stroke-miterlimit="10" stroke-width="2"/>
          </g>
          <g id="g11517" transform="translate(42.451 0.969)">
            <path id="path11519" d="M-105.961-211.922h0a11.372,11.372,0,0,1-11.372-11.372,11.372,11.372,0,0,1,11.372-11.372,11.372,11.372,0,0,1,11.372,11.372A11.372,11.372,0,0,1-105.961-211.922Z" transform="translate(117.333 234.666)" fill="none" stroke="#000" stroke-linecap="round" stroke-linejoin="round" stroke-miterlimit="10" stroke-width="2"/>
          </g>
          <g id="g11521" transform="translate(0.969 0.969)">
            <path id="path11523" d="M-61.578-9.715a11.33,11.33,0,0,1,4.763-1.043A11.372,11.372,0,0,1-45.443.615,11.372,11.372,0,0,1-56.815,11.987,11.372,11.372,0,0,1-68.187.615a11.331,11.331,0,0,1,2.949-7.64" transform="translate(68.187 10.757)" fill="none" stroke="#000" stroke-linecap="round" stroke-linejoin="round" stroke-miterlimit="10" stroke-width="2"/>
          </g>
          <g id="g11525" transform="translate(7.506 9.129)">
            <path id="path11527" d="M0-31.607,2.957-28.65a.259.259,0,0,0,.366,0L9.671-35" transform="translate(0 34.999)" fill="none" stroke="#000" stroke-linecap="round" stroke-linejoin="round" stroke-miterlimit="10" stroke-width="2"/>
          </g>
          <g id="g11529" transform="translate(49.482 8.001)">
            <path id="path11531" d="M0-80.887l8.681-8.681" transform="translate(0 89.568)" fill="none" stroke="#000" stroke-linecap="round" stroke-linejoin="round" stroke-miterlimit="10" stroke-width="2"/>
          </g>
          <g id="g11533" transform="translate(49.482 8.001)">
            <path id="path11535" d="M0,0,8.681,8.681" fill="none" stroke="#000" stroke-linecap="round" stroke-linejoin="round" stroke-miterlimit="10" stroke-width="2"/>
          </g>
          <g id="g11537" transform="translate(33.082 6.849)">
            <path id="path11539" d="M0,0V58.318" fill="none" stroke="#000" stroke-linecap="round" stroke-linejoin="round" stroke-miterlimit="10" stroke-width="2"/>
          </g>
        </g>
      </g>
    </g>
  </g>
</svg>
