<svg xmlns="http://www.w3.org/2000/svg" xmlns:xlink="http://www.w3.org/1999/xlink" width="118" height="118" viewBox="0 0 118 118">
  <defs>
    <filter id="Trazado_896985" x="0" y="0" width="118" height="118" filterUnits="userSpaceOnUse">
      <feOffset dy="3" input="SourceAlpha"/>
      <feGaussianBlur stdDeviation="3" result="blur"/>
      <feFlood flood-opacity="0.161"/>
      <feComposite operator="in" in2="blur"/>
      <feComposite in="SourceGraphic"/>
    </filter>
    <clipPath id="clip-path">
      <path id="path23" d="M0-682.665H72.186v72.186H0Z" transform="translate(0 682.665)"/>
    </clipPath>
  </defs>
  <g id="Grupo_1199845" data-name="Grupo 1199845" transform="translate(-264.95 -6135.797)">
    <g id="Grupo_1198624" data-name="Grupo 1198624" transform="translate(-3.05 2512.322)">
      <g id="Grupo_1198134" data-name="Grupo 1198134" transform="translate(-0.051 -705)">
        <g id="Grupo_1181844" data-name="Grupo 1181844" transform="translate(277.051 4334.475)">
          <g id="Grupo_1111318" data-name="Grupo 1111318" transform="translate(0)">
            <g id="Grupo_1109826" data-name="Grupo 1109826" transform="translate(0 0)">
              <g id="Grupo_1098742" data-name="Grupo 1098742">
                <g transform="matrix(1, 0, 0, 1, -9, -6)" filter="url(#Trazado_896985)">
                  <g id="Trazado_896985-2" data-name="Trazado 896985" transform="translate(9 6)" fill="#9ad354" opacity="0.859">
                    <path d="M 49.99993515014648 99.5 C 43.31726837158203 99.5 36.83476257324219 98.19129943847656 30.73248100280762 95.61025238037109 C 24.83812141418457 93.11714172363281 19.54434776306152 89.54795837402344 14.99820137023926 85.00179290771484 C 10.45204162597656 80.45565032958984 6.88285493850708 75.16187286376953 4.389748573303223 69.26751708984375 C 1.808695197105408 63.16523742675781 0.5000017881393433 56.6827278137207 0.5000017881393433 50.00006103515625 C 0.5000017881393433 43.31726455688477 1.808695197105408 36.83475494384766 4.389748573303223 30.73247528076172 C 6.88285493850708 24.83811569213867 10.45204162597656 19.54434204101562 14.99820137023926 14.99819660186768 C 19.54434776306152 10.45203590393066 24.83812141418457 6.88284969329834 30.73248100280762 4.389742851257324 C 36.83476257324219 1.808689475059509 43.31726837158203 0.4999961853027344 49.99993515014648 0.4999961853027344 C 56.68260192871094 0.4999961853027344 63.16510772705078 1.808689475059509 69.26738739013672 4.389742851257324 C 75.16175079345703 6.88284969329834 80.45552062988281 10.45203590393066 85.00167083740234 14.99819660186768 C 89.54782867431641 19.54434204101562 93.11701202392578 24.83811569213867 95.61012268066406 30.73247528076172 C 98.19117736816406 36.83475494384766 99.49987030029297 43.31726455688477 99.49987030029297 49.99993133544922 C 99.49987030029297 56.6827278137207 98.19117736816406 63.16523742675781 95.61012268066406 69.26751708984375 C 93.11701202392578 75.16187286376953 89.54782867431641 80.45565032958984 85.00167083740234 85.00179290771484 C 80.45552062988281 89.54795837402344 75.16175079345703 93.11714172363281 69.26738739013672 95.61025238037109 C 63.16510772705078 98.19129943847656 56.68260192871094 99.5 49.99993515014648 99.5 Z" stroke="none"/>
                    <path d="M 49.99993515014648 0.9999923706054688 C 43.38454818725586 0.9999923706054688 36.96757507324219 2.29541015625 30.92725372314453 4.850250244140625 C 25.09249877929688 7.318145751953125 19.85213470458984 10.85135650634766 15.35174560546875 15.35174560546875 C 10.85136413574219 19.85212707519531 7.318145751953125 25.09249114990234 4.850257873535156 30.92724609375 C 2.295417785644531 36.96757125854492 1 43.38454437255859 1 50.00006103515625 C 1 56.61544799804688 2.295417785644531 63.03242111206055 4.850257873535156 69.07273864746094 C 7.318145751953125 74.90750122070312 10.85136413574219 80.14786529541016 15.35174560546875 84.64824676513672 C 19.85213470458984 89.14863586425781 25.09249877929688 92.68184661865234 30.92725372314453 95.14974212646484 C 36.96757507324219 97.70458221435547 43.38454818725586 99 49.99993515014648 99 C 56.61532211303711 99 63.03229522705078 97.70458221435547 69.07261657714844 95.14974212646484 C 74.90737915039062 92.68184661865234 80.14773559570312 89.14863586425781 84.64812469482422 84.64824676513672 C 89.14850616455078 80.14786529541016 92.68172454833984 74.90750122070312 95.14961242675781 69.07273864746094 C 97.70445251464844 63.03242111206055 98.99987030029297 56.61544799804688 98.99987030029297 49.99993133544922 C 98.99987030029297 43.38454437255859 97.70445251464844 36.96757125854492 95.14961242675781 30.92724609375 C 92.68172454833984 25.09249114990234 89.14850616455078 19.85212707519531 84.64812469482422 15.35174560546875 C 80.14773559570312 10.85135650634766 74.90737915039062 7.318145751953125 69.07261657714844 4.850250244140625 C 63.03229522705078 2.29541015625 56.61532211303711 0.9999923706054688 49.99993515014648 0.9999923706054688 M 49.99993515014648 -7.62939453125e-06 C 77.6141357421875 -7.62939453125e-06 99.99987030029297 22.38572692871094 99.99987030029297 49.99993133544922 L 99.99987030029297 50.00006103515625 C 99.99987030029297 77.61426544189453 77.6141357421875 100 49.99993515014648 100 C 22.38573455810547 100 0 77.61426544189453 0 50.00006103515625 L 0 49.99993133544922 C 0 22.38572692871094 22.38573455810547 -7.62939453125e-06 49.99993515014648 -7.62939453125e-06 Z" stroke="none" fill="#fff"/>
                  </g>
                </g>
                <g id="Rectángulo_400907" data-name="Rectángulo 400907" transform="translate(0)" fill="none" stroke="#fff" stroke-width="1">
                  <rect width="100" height="100" rx="50" stroke="none"/>
                  <rect x="0.5" y="0.5" width="99" height="99" rx="49.5" fill="none"/>
                </g>
              </g>
            </g>
          </g>
        </g>
      </g>
    </g>
    <g id="g15" transform="translate(287.907 6841.563)">
      <path id="path17" d="M322.934-368.515H318v-28.258h4.935Z" transform="translate(-284.374 -255.662)" fill="#fff0ad"/>
      <g id="g19" transform="translate(0 -682.665)">
        <g id="g21" clip-path="url(#clip-path)">
          <g id="g27" transform="translate(24.353 47.95)">
            <path id="path29" d="M-198.565-150.692h-23.479l2.013-15.847a2.256,2.256,0,0,1,2.238-1.972h14.978a2.256,2.256,0,0,1,2.238,1.972Z" transform="translate(222.045 168.51)" fill="#ffe177"/>
          </g>
          <g id="g31" transform="translate(24.353 47.95)">
            <path id="path33" d="M-65.758,0A2.257,2.257,0,0,0-68,1.971l-2.013,15.847h-3.525L-71.52,1.971A2.257,2.257,0,0,1-69.282,0Z" transform="translate(73.533)" fill="#ffd15c"/>
          </g>
          <g id="g35" transform="translate(21.51 63.969)">
            <path id="path37" d="M-237.127-46.945h-26.911a1.128,1.128,0,0,1-1.128-1.128v-3.3a1.128,1.128,0,0,1,1.128-1.128h26.911A1.128,1.128,0,0,1-236-51.368v3.3a1.128,1.128,0,0,1-1.128,1.128" transform="translate(265.166 52.496)" fill="#fff0ad"/>
          </g>
          <g id="g39" transform="translate(1.057 28.656)">
            <path id="path41" d="M-583.055-41.732h-67.815A1.128,1.128,0,0,1-652-42.86v-2.679a1.128,1.128,0,0,1,1.128-1.128h67.815a1.128,1.128,0,0,1,1.128,1.128v2.679a1.128,1.128,0,0,1-1.128,1.128" transform="translate(651.998 46.667)" fill="#fff0ad"/>
          </g>
          <g id="g43" transform="translate(30.382 25.412)">
            <path id="path45" d="M-96.6-48.3a5.712,5.712,0,0,1-5.712,5.712,5.711,5.711,0,0,1-5.711-5.712,5.711,5.711,0,0,1,5.711-5.712A5.712,5.712,0,0,1-96.6-48.3" transform="translate(108.028 54.015)" fill="#ffe177"/>
          </g>
          <g id="g47" transform="translate(3.172 19.429)">
            <path id="path49" d="M-137.2-78.035h-11.711a4.512,4.512,0,0,1-4.512-4.512v-3.588a1.128,1.128,0,0,1,1.128-1.128h18.478a1.128,1.128,0,0,1,1.128,1.128v3.588a4.512,4.512,0,0,1-4.512,4.512" transform="translate(153.418 87.262)" fill="#ffe177"/>
          </g>
          <g id="g51" transform="translate(50.394 19.429)">
            <path id="path53" d="M-137.2-78.035h-11.711a4.512,4.512,0,0,1-4.512-4.512v-3.588a1.128,1.128,0,0,1,1.128-1.128h18.478a1.128,1.128,0,0,1,1.128,1.128v3.588a4.512,4.512,0,0,1-4.512,4.512" transform="translate(153.418 87.262)" fill="#ffe177"/>
          </g>
          <g id="g55" transform="translate(21.509 63.969)">
            <path id="path57" d="M-39.347-46.942h-3.525A1.128,1.128,0,0,1-44-48.07v-3.295a1.128,1.128,0,0,1,1.128-1.128h3.525a1.128,1.128,0,0,0-1.128,1.128v3.295a1.128,1.128,0,0,0,1.128,1.128" transform="translate(44 52.493)" fill="#ffe177"/>
          </g>
          <g id="g59" transform="translate(1.057 28.656)">
            <path id="path61" d="M-39.347-41.732h-3.525A1.128,1.128,0,0,1-44-42.86v-2.679a1.128,1.128,0,0,1,1.128-1.128h3.525a1.128,1.128,0,0,0-1.128,1.128v2.679a1.128,1.128,0,0,0,1.128,1.128" transform="translate(44 46.667)" fill="#ffe177"/>
          </g>
          <g id="g63" transform="translate(30.382 25.412)">
            <path id="path65" d="M-63.206-94.255a5.694,5.694,0,0,1-1.762.278,5.712,5.712,0,0,1-5.711-5.711,5.712,5.712,0,0,1,5.711-5.711,5.693,5.693,0,0,1,1.762.278,5.713,5.713,0,0,0-3.949,5.434,5.713,5.713,0,0,0,3.949,5.434" transform="translate(70.68 105.4)" fill="#ffd15c"/>
          </g>
          <g id="g67" transform="translate(3.172 19.428)">
            <path id="path69" d="M-67.963-78.039h-3.525A4.512,4.512,0,0,1-76-82.55v-3.588a1.128,1.128,0,0,1,1.128-1.128h3.525a1.128,1.128,0,0,0-1.128,1.128v3.588a4.512,4.512,0,0,0,4.512,4.512" transform="translate(76 87.266)" fill="#ffd15c"/>
          </g>
          <g id="g71" transform="translate(50.395 19.428)">
            <path id="path73" d="M-67.963-78.039h-3.525A4.511,4.511,0,0,1-76-82.55v-3.588a1.128,1.128,0,0,1,1.128-1.128h3.525a1.128,1.128,0,0,0-1.128,1.128v3.588a4.511,4.511,0,0,0,4.512,4.512" transform="translate(76 87.266)" fill="#ffd15c"/>
          </g>
          <g id="g75" transform="translate(54.02 3.882)">
            <path id="path77" d="M-4.931-.725a.62.62,0,0,0-.5.5A5.208,5.208,0,0,0-3.987,4.4,5.209,5.209,0,0,0,.644,5.845a.62.62,0,0,0,.5-.5A5.208,5.208,0,0,0-.3.717,5.208,5.208,0,0,0-4.931-.725" transform="translate(5.515 0.811)" fill="#a2e62e"/>
          </g>
          <g id="g79" transform="translate(60.761 3.882)">
            <path id="path81" d="M-52.08-.725a.619.619,0,0,1,.5.5A5.208,5.208,0,0,1-53.024,4.4a5.209,5.209,0,0,1-4.631,1.441.62.62,0,0,1-.5-.5A5.208,5.208,0,0,1-56.711.717,5.209,5.209,0,0,1-52.08-.725" transform="translate(58.239 0.811)" fill="#bbec6c"/>
          </g>
          <g id="g83" transform="translate(21.509 63.969)">
            <path id="path85" d="M-181.88,0h6.533a1.128,1.128,0,0,1,1.128,1.128V4.423a1.128,1.128,0,0,1-1.128,1.128h-26.912a1.128,1.128,0,0,1-1.128-1.128V1.128A1.128,1.128,0,0,1-202.258,0h15.444" transform="translate(203.386)" fill="none" stroke="#000" stroke-linecap="round" stroke-linejoin="round" stroke-miterlimit="10" stroke-width="2"/>
          </g>
          <g id="g87" transform="translate(24.581 47.95)">
            <path id="path89" d="M0-135.474l1.785-14.048a2.257,2.257,0,0,1,2.237-1.971H19a2.257,2.257,0,0,1,2.237,1.971l1.785,14.048" transform="translate(0 151.493)" fill="none" stroke="#000" stroke-linecap="round" stroke-linejoin="round" stroke-miterlimit="10" stroke-width="2"/>
          </g>
          <g id="g91" transform="translate(33.626 36.276)">
            <path id="path93" d="M0-98.726V-110.4" transform="translate(0 110.4)" fill="none" stroke="#000" stroke-linecap="round" stroke-linejoin="round" stroke-miterlimit="10" stroke-width="2"/>
          </g>
          <g id="g95" transform="translate(38.56 36.276)">
            <path id="path97" d="M0-98.726V-110.4" transform="translate(0 110.4)" fill="none" stroke="#000" stroke-linecap="round" stroke-linejoin="round" stroke-miterlimit="10" stroke-width="2"/>
          </g>
          <g id="g99" transform="translate(41.246 28.656)">
            <path id="path101" d="M0,0H28.755a1.128,1.128,0,0,1,1.128,1.128V3.807a1.128,1.128,0,0,1-1.128,1.128H0" fill="none" stroke="#000" stroke-linecap="round" stroke-linejoin="round" stroke-miterlimit="10" stroke-width="2"/>
          </g>
          <g id="g103" transform="translate(1.057 28.656)">
            <path id="path105" d="M-67.343-41.732h-6.835a1.128,1.128,0,0,1-1.128-1.128v-2.679a1.128,1.128,0,0,1,1.128-1.128h28.755" transform="translate(75.306 46.667)" fill="none" stroke="#000" stroke-linecap="round" stroke-linejoin="round" stroke-miterlimit="10" stroke-width="2"/>
          </g>
          <g id="g107" transform="translate(13.955 33.59)">
            <path id="path109" d="M-143.641,0h-16.985" transform="translate(160.626)" fill="none" stroke="#000" stroke-linecap="round" stroke-linejoin="round" stroke-miterlimit="10" stroke-width="2"/>
          </g>
          <g id="g111" transform="translate(30.382 25.412)">
            <path id="path113" d="M-96.6-48.3a5.712,5.712,0,0,1-5.712,5.712,5.711,5.711,0,0,1-5.711-5.712,5.711,5.711,0,0,1,5.711-5.712A5.712,5.712,0,0,1-96.6-48.3Z" transform="translate(108.028 54.015)" fill="none" stroke="#000" stroke-linecap="round" stroke-linejoin="round" stroke-miterlimit="10" stroke-width="2"/>
          </g>
          <g id="g115" transform="translate(10.952 3.972)">
            <path id="path117" d="M-39.161-6.469a3.141,3.141,0,0,0-2.892-.637,2.05,2.05,0,0,0-.871,3.375,9.884,9.884,0,0,0,2.71,1.283c2.713.959,1.71,4.786-1.05,4.8a3.694,3.694,0,0,1-2.527-.68" transform="translate(43.792 7.234)" fill="none" stroke="#000" stroke-linecap="round" stroke-linejoin="round" stroke-miterlimit="10" stroke-width="2"/>
          </g>
          <g id="g119" transform="translate(13.478 13.562)">
            <path id="path121" d="M0-11.816v-1.4" transform="translate(0 13.213)" fill="none" stroke="#000" stroke-linecap="round" stroke-linejoin="round" stroke-miterlimit="10" stroke-width="2"/>
          </g>
          <g id="g123" transform="translate(13.478 2.666)">
            <path id="path125" d="M0-10.958v-1.3" transform="translate(0 12.253)" fill="none" stroke="#000" stroke-linecap="round" stroke-linejoin="round" stroke-miterlimit="10" stroke-width="2"/>
          </g>
          <g id="g127" transform="translate(3.172 19.429)">
            <path id="path129" d="M-137.2-78.035h-11.711a4.512,4.512,0,0,1-4.512-4.512v-3.588a1.128,1.128,0,0,1,1.128-1.128h18.478a1.128,1.128,0,0,1,1.128,1.128v3.588A4.512,4.512,0,0,1-137.2-78.035Z" transform="translate(153.418 87.262)" fill="none" stroke="#000" stroke-linecap="round" stroke-linejoin="round" stroke-miterlimit="10" stroke-width="2"/>
          </g>
          <g id="g131" transform="translate(3.172 23.376)">
            <path id="path133" d="M0,0H20.734" fill="none" stroke="#000" stroke-linecap="round" stroke-linejoin="round" stroke-miterlimit="10" stroke-width="2"/>
          </g>
          <g id="g135" transform="translate(50.394 19.429)">
            <path id="path137" d="M-137.2-78.035h-11.711a4.512,4.512,0,0,1-4.512-4.512v-3.588a1.128,1.128,0,0,1,1.128-1.128h18.478a1.128,1.128,0,0,1,1.128,1.128v3.588A4.512,4.512,0,0,1-137.2-78.035Z" transform="translate(153.418 87.262)" fill="none" stroke="#000" stroke-linecap="round" stroke-linejoin="round" stroke-miterlimit="10" stroke-width="2"/>
          </g>
          <g id="g139" transform="translate(50.394 23.376)">
            <path id="path141" d="M0,0H20.734" fill="none" stroke="#000" stroke-linecap="round" stroke-linejoin="round" stroke-miterlimit="10" stroke-width="2"/>
          </g>
          <g id="g143" transform="translate(54.02 3.882)">
            <path id="path145" d="M-4.931-.725a.62.62,0,0,0-.5.5A5.208,5.208,0,0,0-3.987,4.4,5.209,5.209,0,0,0,.644,5.845a.62.62,0,0,0,.5-.5A5.208,5.208,0,0,0-.3.717,5.208,5.208,0,0,0-4.931-.725Z" transform="translate(5.515 0.811)" fill="none" stroke="#000" stroke-linecap="round" stroke-linejoin="round" stroke-miterlimit="10" stroke-width="2"/>
          </g>
          <g id="g147" transform="translate(60.761 3.882)">
            <path id="path149" d="M-52.08-.725a.619.619,0,0,1,.5.5A5.208,5.208,0,0,1-53.024,4.4a5.209,5.209,0,0,1-4.631,1.441.62.62,0,0,1-.5-.5A5.208,5.208,0,0,1-56.711.717,5.209,5.209,0,0,1-52.08-.725Z" transform="translate(58.239 0.811)" fill="none" stroke="#000" stroke-linecap="round" stroke-linejoin="round" stroke-miterlimit="10" stroke-width="2"/>
          </g>
          <g id="g151" transform="translate(60.761 9.343)">
            <path id="path153" d="M0,0V5.458" fill="none" stroke="#000" stroke-linecap="round" stroke-linejoin="round" stroke-miterlimit="10" stroke-width="2"/>
          </g>
        </g>
      </g>
    </g>
  </g>
</svg>
