<svg xmlns="http://www.w3.org/2000/svg" xmlns:xlink="http://www.w3.org/1999/xlink" width="118" height="118" viewBox="0 0 118 118">
  <defs>
    <filter id="Trazado_896985" x="0" y="0" width="118" height="118" filterUnits="userSpaceOnUse">
      <feOffset dy="3" input="SourceAlpha"/>
      <feGaussianBlur stdDeviation="3" result="blur"/>
      <feFlood flood-opacity="0.161"/>
      <feComposite operator="in" in2="blur"/>
      <feComposite in="SourceGraphic"/>
    </filter>
  </defs>
  <g id="Grupo_1199854" data-name="Grupo 1199854" transform="translate(-579.95 -6135.797)">
    <g id="Grupo_1198625" data-name="Grupo 1198625" transform="translate(-3.05 2512.322)">
      <g id="Grupo_1198135" data-name="Grupo 1198135" transform="translate(-0.051 -705)">
        <g id="Grupo_1181847" data-name="Grupo 1181847" transform="translate(592.051 4334.475)">
          <g id="Grupo_1111318" data-name="Grupo 1111318" transform="translate(0)">
            <g id="Grupo_1109826" data-name="Grupo 1109826" transform="translate(0 0)">
              <g id="Grupo_1098742" data-name="Grupo 1098742">
                <g transform="matrix(1, 0, 0, 1, -9, -6)" filter="url(#Trazado_896985)">
                  <g id="Trazado_896985-2" data-name="Trazado 896985" transform="translate(9 6)" fill="#9ad354" opacity="0.859">
                    <path d="M 49.99993515014648 99.5 C 43.31726837158203 99.5 36.83476257324219 98.19129943847656 30.73248100280762 95.61025238037109 C 24.83812141418457 93.11714172363281 19.54434776306152 89.54795837402344 14.99820137023926 85.00179290771484 C 10.45204162597656 80.45565032958984 6.88285493850708 75.16187286376953 4.389748573303223 69.26751708984375 C 1.808695197105408 63.16523742675781 0.5000017881393433 56.6827278137207 0.5000017881393433 50.00006103515625 C 0.5000017881393433 43.31726455688477 1.808695197105408 36.83475494384766 4.389748573303223 30.73247528076172 C 6.88285493850708 24.83811569213867 10.45204162597656 19.54434204101562 14.99820137023926 14.99819660186768 C 19.54434776306152 10.45203590393066 24.83812141418457 6.88284969329834 30.73248100280762 4.389742851257324 C 36.83476257324219 1.808689475059509 43.31726837158203 0.4999961853027344 49.99993515014648 0.4999961853027344 C 56.68260192871094 0.4999961853027344 63.16510772705078 1.808689475059509 69.26738739013672 4.389742851257324 C 75.16175079345703 6.88284969329834 80.45552062988281 10.45203590393066 85.00167083740234 14.99819660186768 C 89.54782867431641 19.54434204101562 93.11701202392578 24.83811569213867 95.61012268066406 30.73247528076172 C 98.19117736816406 36.83475494384766 99.49987030029297 43.31726455688477 99.49987030029297 49.99993133544922 C 99.49987030029297 56.6827278137207 98.19117736816406 63.16523742675781 95.61012268066406 69.26751708984375 C 93.11701202392578 75.16187286376953 89.54782867431641 80.45565032958984 85.00167083740234 85.00179290771484 C 80.45552062988281 89.54795837402344 75.16175079345703 93.11714172363281 69.26738739013672 95.61025238037109 C 63.16510772705078 98.19129943847656 56.68260192871094 99.5 49.99993515014648 99.5 Z" stroke="none"/>
                    <path d="M 49.99993515014648 0.9999923706054688 C 43.38454818725586 0.9999923706054688 36.96757507324219 2.29541015625 30.92725372314453 4.850250244140625 C 25.09249877929688 7.318145751953125 19.85213470458984 10.85135650634766 15.35174560546875 15.35174560546875 C 10.85136413574219 19.85212707519531 7.318145751953125 25.09249114990234 4.850257873535156 30.92724609375 C 2.295417785644531 36.96757125854492 1 43.38454437255859 1 50.00006103515625 C 1 56.61544799804688 2.295417785644531 63.03242111206055 4.850257873535156 69.07273864746094 C 7.318145751953125 74.90750122070312 10.85136413574219 80.14786529541016 15.35174560546875 84.64824676513672 C 19.85213470458984 89.14863586425781 25.09249877929688 92.68184661865234 30.92725372314453 95.14974212646484 C 36.96757507324219 97.70458221435547 43.38454818725586 99 49.99993515014648 99 C 56.61532211303711 99 63.03229522705078 97.70458221435547 69.07261657714844 95.14974212646484 C 74.90737915039062 92.68184661865234 80.14773559570312 89.14863586425781 84.64812469482422 84.64824676513672 C 89.14850616455078 80.14786529541016 92.68172454833984 74.90750122070312 95.14961242675781 69.07273864746094 C 97.70445251464844 63.03242111206055 98.99987030029297 56.61544799804688 98.99987030029297 49.99993133544922 C 98.99987030029297 43.38454437255859 97.70445251464844 36.96757125854492 95.14961242675781 30.92724609375 C 92.68172454833984 25.09249114990234 89.14850616455078 19.85212707519531 84.64812469482422 15.35174560546875 C 80.14773559570312 10.85135650634766 74.90737915039062 7.318145751953125 69.07261657714844 4.850250244140625 C 63.03229522705078 2.29541015625 56.61532211303711 0.9999923706054688 49.99993515014648 0.9999923706054688 M 49.99993515014648 -7.62939453125e-06 C 77.6141357421875 -7.62939453125e-06 99.99987030029297 22.38572692871094 99.99987030029297 49.99993133544922 L 99.99987030029297 50.00006103515625 C 99.99987030029297 77.61426544189453 77.6141357421875 100 49.99993515014648 100 C 22.38573455810547 100 0 77.61426544189453 0 50.00006103515625 L 0 49.99993133544922 C 0 22.38572692871094 22.38573455810547 -7.62939453125e-06 49.99993515014648 -7.62939453125e-06 Z" stroke="none" fill="#fff"/>
                  </g>
                </g>
                <g id="Rectángulo_400907" data-name="Rectángulo 400907" transform="translate(0)" fill="none" stroke="#fff" stroke-width="1">
                  <rect width="100" height="100" rx="50" stroke="none"/>
                  <rect x="0.5" y="0.5" width="99" height="99" rx="49.5" fill="none"/>
                </g>
              </g>
            </g>
          </g>
        </g>
      </g>
    </g>
    <g id="food_10008905" transform="translate(599.061 6151.907)">
      <path id="Trazado_1031540" data-name="Trazado 1031540" d="M25.953,126.554a9.522,9.522,0,0,1-6.479,12A9.522,9.522,0,0,1,7.863,131.4c-1.419-5.3,1.64-12.7,3.7-15.836.568-.865,1.058-1.405,1.358-1.486a2.759,2.759,0,0,1,1.411.366C17.492,115.856,24.458,120.976,25.953,126.554Z" transform="translate(0 -92.674)" fill="#80d261"/>
      <path id="Trazado_1031541" data-name="Trazado 1031541" d="M344.79,213.972h-.162a11.159,11.159,0,0,1-10.97-10.94,11.209,11.209,0,0,1,.233-2.476l3.553-17.025a6.517,6.517,0,0,1,6.379-5.186h1.933a6.517,6.517,0,0,1,6.379,5.186l3.553,17.025a11.21,11.21,0,0,1,.235,2.284,11.134,11.134,0,0,1-11.134,11.134Z" transform="translate(-283.646 -148.575)" fill="#4fc123"/>
      <path id="Trazado_1031542" data-name="Trazado 1031542" d="M141.865,106.968l-3.285,3.285a8.692,8.692,0,0,1-12.292,0L123,106.968a19.39,19.39,0,0,1-5.366-17.179l5.791-31.853a4.68,4.68,0,0,1,4.6-3.843h8.8a4.68,4.68,0,0,1,4.6,3.843l5.791,31.853A19.39,19.39,0,0,1,141.865,106.968Z" transform="translate(-95.509 -40.52)" fill="#fe9738"/>
      <path id="Trazado_1031543" data-name="Trazado 1031543" d="M195.49,89.79,189.7,57.937a4.68,4.68,0,0,0-4.6-3.843h-1.853l4.9,26.954a28.257,28.257,0,0,1-7.82,25.035h0a8.68,8.68,0,0,1-7.507,2.439l1.732,1.732a8.692,8.692,0,0,0,12.292,0l3.285-3.285A19.39,19.39,0,0,0,195.49,89.79Z" transform="translate(-143.768 -40.521)" fill="#fe860a"/>
      <path id="Trazado_1031544" data-name="Trazado 1031544" d="M301.987,340.337a8.071,8.071,0,0,0-4.381.071,4.965,4.965,0,0,1-2.787,0,8.071,8.071,0,0,0-4.381-.071c-4.984,1.335-7.726,7.267-6.123,13.248a12.417,12.417,0,0,0,4.6,6.88,5.825,5.825,0,0,0,6.35.187,1.9,1.9,0,0,1,1.9,0,5.825,5.825,0,0,0,6.35-.187,12.418,12.418,0,0,0,4.6-6.88C309.712,347.6,306.971,341.672,301.987,340.337Z" transform="translate(-240.337 -289.221)" fill="#e94444"/>
      <path id="Trazado_1031545" data-name="Trazado 1031545" d="M391.542,340.337a8.071,8.071,0,0,0-4.381.071q-.162.047-.326.083c4.661,1.59,7.164,7.319,5.617,13.094a12.418,12.418,0,0,1-4.6,6.88,5.427,5.427,0,0,1-.688.423,5.773,5.773,0,0,0,5.9-.423,12.418,12.418,0,0,0,4.6-6.88C399.268,347.6,396.526,341.672,391.542,340.337Z" transform="translate(-329.893 -289.221)" fill="#d83131"/>
      <path id="Trazado_1031546" data-name="Trazado 1031546" d="M91.907,248.98l1.346,6.725h-8.1l1.473-7.365a7.821,7.821,0,0,1,2.139-4l2.363-2.363a.978.978,0,0,1,1.382,0l1.481,1.48a.978.978,0,0,1,0,1.383L92.8,246.036A3.259,3.259,0,0,0,91.907,248.98Z" transform="translate(-67.534 -203.67)" fill="#47a920"/>
      <path id="Trazado_1031547" data-name="Trazado 1031547" d="M31.83,319.895l-4.8-.632h0a.678.678,0,0,1-.352-.148,4.184,4.184,0,0,0-2.711-.988H18.828a4.184,4.184,0,0,0-2.711.988.677.677,0,0,1-.352.148h0l-4.8.632a3.974,3.974,0,0,0-3.3,5.052l4.376,15.017a3.407,3.407,0,0,0,3.715,2.424l1.2-.158a3.4,3.4,0,0,0,1.2-.4.644.644,0,0,1,.658.019,3.6,3.6,0,0,0,1.939.565h1.281a3.6,3.6,0,0,0,1.939-.565.644.644,0,0,1,.658-.019,3.4,3.4,0,0,0,1.2.4l1.2.158a3.406,3.406,0,0,0,3.715-2.424l4.376-15.017A3.975,3.975,0,0,0,31.83,319.895Z" transform="translate(-0.001 -270.139)" fill="#ffc344"/>
      <line id="Línea_742" data-name="Línea 742" x2="4.828" y2="18.017" transform="translate(14.291 26.536)" fill="none" stroke="#000" stroke-linecap="round" stroke-linejoin="round" stroke-miterlimit="10" stroke-width="2"/>
      <line id="Línea_743" data-name="Línea 743" x2="4.333" y2="3.401" transform="translate(12.417 32.313)" fill="none" stroke="#000" stroke-linecap="round" stroke-linejoin="round" stroke-miterlimit="10" stroke-width="2"/>
      <line id="Línea_744" data-name="Línea 744" x2="4.333" y2="3.401" transform="translate(14.352 39.534)" fill="none" stroke="#000" stroke-linecap="round" stroke-linejoin="round" stroke-miterlimit="10" stroke-width="2"/>
      <line id="Línea_745" data-name="Línea 745" x1="2.107" y2="5.25" transform="translate(17.613 33.686)" fill="none" stroke="#000" stroke-linecap="round" stroke-linejoin="round" stroke-miterlimit="10" stroke-width="2"/>
      <g id="Grupo_1199847" data-name="Grupo 1199847" transform="translate(60.133 37.865)">
        <g id="Grupo_1199846" data-name="Grupo 1199846">
          <line id="Línea_746" data-name="Línea 746" fill="none" stroke="#000" stroke-linecap="round" stroke-linejoin="round" stroke-miterlimit="10" stroke-width="2"/>
        </g>
      </g>
      <g id="Grupo_1199849" data-name="Grupo 1199849" transform="translate(64.181 41.914)">
        <g id="Grupo_1199848" data-name="Grupo 1199848">
          <line id="Línea_747" data-name="Línea 747" fill="none" stroke="#000" stroke-linecap="round" stroke-linejoin="round" stroke-miterlimit="10" stroke-width="2"/>
        </g>
      </g>
      <g id="Grupo_1199851" data-name="Grupo 1199851" transform="translate(58.108 43.938)">
        <g id="Grupo_1199850" data-name="Grupo 1199850">
          <line id="Línea_748" data-name="Línea 748" fill="none" stroke="#000" stroke-linecap="round" stroke-linejoin="round" stroke-miterlimit="10" stroke-width="2"/>
        </g>
      </g>
      <g id="Grupo_1199853" data-name="Grupo 1199853" transform="translate(66.205 47.937)">
        <g id="Grupo_1199852" data-name="Grupo 1199852">
          <line id="Línea_749" data-name="Línea 749" fill="none" stroke="#000" stroke-linecap="round" stroke-linejoin="round" stroke-miterlimit="10" stroke-width="2"/>
        </g>
      </g>
      <line id="Línea_750" data-name="Línea 750" y1="8.194" x2="1.49" transform="translate(28.718 27.455)" fill="none" stroke="#000" stroke-linecap="round" stroke-linejoin="round" stroke-miterlimit="10" stroke-width="2"/>
      <line id="Línea_751" data-name="Línea 751" x2="2.945" y2="16.195" transform="translate(42.589 21.67)" fill="none" stroke="#000" stroke-linecap="round" stroke-linejoin="round" stroke-miterlimit="10" stroke-width="2"/>
      <path id="Trazado_1031548" data-name="Trazado 1031548" d="M233.255,13.573v-2.7a3.259,3.259,0,0,1,.954-2.3l1.07-1.07" transform="translate(-196.331 0)" fill="none" stroke="#000" stroke-linecap="round" stroke-linejoin="round" stroke-miterlimit="10" stroke-width="2"/>
      <path id="Trazado_1031549" data-name="Trazado 1031549" d="M301.987,340.337a8.071,8.071,0,0,0-4.381.071,4.965,4.965,0,0,1-2.787,0,8.071,8.071,0,0,0-4.381-.071c-4.984,1.335-7.726,7.267-6.123,13.248a12.417,12.417,0,0,0,4.6,6.88,5.825,5.825,0,0,0,6.35.187,1.9,1.9,0,0,1,1.9,0,5.825,5.825,0,0,0,6.35-.187,12.418,12.418,0,0,0,4.6-6.88C309.712,347.6,306.971,341.672,301.987,340.337Z" transform="translate(-240.337 -289.221)" fill="none" stroke="#000" stroke-linecap="round" stroke-linejoin="round" stroke-miterlimit="10" stroke-width="2"/>
      <line id="Línea_752" data-name="Línea 752" y2="5.606" transform="translate(55.875 47.987)" fill="none" stroke="#000" stroke-linecap="round" stroke-linejoin="round" stroke-miterlimit="10" stroke-width="2"/>
      <path id="Trazado_1031550" data-name="Trazado 1031550" d="M32.817,332.874l2.31-7.927a3.974,3.974,0,0,0-3.3-5.052l-4.8-.632h0a.678.678,0,0,1-.352-.148,4.184,4.184,0,0,0-2.711-.988H18.828a4.184,4.184,0,0,0-2.711.988.677.677,0,0,1-.352.148h0l-4.8.632a3.974,3.974,0,0,0-3.3,5.052l4.376,15.017a3.407,3.407,0,0,0,3.715,2.424l1.2-.158a3.4,3.4,0,0,0,1.2-.4.644.644,0,0,1,.658.019,3.6,3.6,0,0,0,1.939.565h1.281a3.6,3.6,0,0,0,1.939-.565.644.644,0,0,1,.658-.019,3.4,3.4,0,0,0,1.2.4l1.2.158a3.406,3.406,0,0,0,3.715-2.424l.746-2.558" transform="translate(-0.001 -270.139)" fill="none" stroke="#000" stroke-linecap="round" stroke-linejoin="round" stroke-miterlimit="10" stroke-width="2"/>
      <path id="Trazado_1031551" data-name="Trazado 1031551" d="M78.188,457.5l.472,3.066a3.606,3.606,0,0,0,1.627,2.494" transform="translate(-61.475 -391.344)" fill="none" stroke="#000" stroke-linecap="round" stroke-linejoin="round" stroke-miterlimit="10" stroke-width="2"/>
      <path id="Trazado_1031552" data-name="Trazado 1031552" d="M63.591,325.709a4.2,4.2,0,0,0-1.451,3.863l.5,3.246" transform="translate(-47.475 -276.734)" fill="none" stroke="#000" stroke-linecap="round" stroke-linejoin="round" stroke-miterlimit="10" stroke-width="2"/>
      <path id="Trazado_1031553" data-name="Trazado 1031553" d="M136,457.5l-.472,3.066a3.606,3.606,0,0,1-1.627,2.494" transform="translate(-109.924 -391.344)" fill="none" stroke="#000" stroke-linecap="round" stroke-linejoin="round" stroke-miterlimit="10" stroke-width="2"/>
      <path id="Trazado_1031554" data-name="Trazado 1031554" d="M154.583,325.709a4.2,4.2,0,0,1,1.451,3.863l-.5,3.246" transform="translate(-127.913 -276.734)" fill="none" stroke="#000" stroke-linecap="round" stroke-linejoin="round" stroke-miterlimit="10" stroke-width="2"/>
      <line id="Línea_753" data-name="Línea 753" y1="2.024" transform="translate(57.096 15.597)" fill="none" stroke="#000" stroke-linecap="round" stroke-linejoin="round" stroke-miterlimit="10" stroke-width="2"/>
      <line id="Línea_754" data-name="Línea 754" y1="2.024" transform="translate(57.096 23.695)" fill="none" stroke="#000" stroke-linecap="round" stroke-linejoin="round" stroke-miterlimit="10" stroke-width="2"/>
      <line id="Línea_755" data-name="Línea 755" x2="2.024" transform="translate(60.133 20.658)" fill="none" stroke="#000" stroke-linecap="round" stroke-linejoin="round" stroke-miterlimit="10" stroke-width="2"/>
      <line id="Línea_756" data-name="Línea 756" x2="2.024" transform="translate(52.035 20.658)" fill="none" stroke="#000" stroke-linecap="round" stroke-linejoin="round" stroke-miterlimit="10" stroke-width="2"/>
      <line id="Línea_757" data-name="Línea 757" y1="2.024" transform="translate(18.633 7.5)" fill="none" stroke="#000" stroke-linecap="round" stroke-linejoin="round" stroke-miterlimit="10" stroke-width="2"/>
      <line id="Línea_758" data-name="Línea 758" y1="2.024" transform="translate(18.633 15.597)" fill="none" stroke="#000" stroke-linecap="round" stroke-linejoin="round" stroke-miterlimit="10" stroke-width="2"/>
      <line id="Línea_759" data-name="Línea 759" x2="2.024" transform="translate(21.67 12.561)" fill="none" stroke="#000" stroke-linecap="round" stroke-linejoin="round" stroke-miterlimit="10" stroke-width="2"/>
      <line id="Línea_760" data-name="Línea 760" x2="2.024" transform="translate(13.573 12.561)" fill="none" stroke="#000" stroke-linecap="round" stroke-linejoin="round" stroke-miterlimit="10" stroke-width="2"/>
      <path id="Trazado_1031555" data-name="Trazado 1031555" d="M25.261,124.709c-2.31-4.829-8.122-9.009-10.934-10.262a2.759,2.759,0,0,0-1.411-.366c-.3.08-.79.62-1.358,1.486C9.5,118.7,6.444,126.106,7.864,131.4a9.525,9.525,0,0,0,10.96,7.3" transform="translate(-0.001 -92.675)" fill="none" stroke="#000" stroke-linecap="round" stroke-linejoin="round" stroke-miterlimit="10" stroke-width="2"/>
      <path id="Trazado_1031556" data-name="Trazado 1031556" d="M97.842,251.769l-.558-2.789a3.258,3.258,0,0,1,.892-2.944l1.194-1.193a.978.978,0,0,0,0-1.383l-1.481-1.48a.978.978,0,0,0-1.382,0l-2.363,2.363a7.821,7.821,0,0,0-2.139,4l-.667,3.335" transform="translate(-72.911 -203.67)" fill="none" stroke="#000" stroke-linecap="round" stroke-linejoin="round" stroke-miterlimit="10" stroke-width="2"/>
      <path id="Trazado_1031557" data-name="Trazado 1031557" d="M186.1,470.252a8.692,8.692,0,0,0,12.292,0l2.205-2.205" transform="translate(-155.322 -400.519)" fill="none" stroke="#000" stroke-linecap="round" stroke-linejoin="round" stroke-miterlimit="10" stroke-width="2"/>
      <line id="Línea_761" data-name="Línea 761" x1="2.058" y2="11.32" transform="translate(24.17 26.712)" fill="none" stroke="#000" stroke-linecap="round" stroke-linejoin="round" stroke-miterlimit="10" stroke-width="2"/>
      <path id="Trazado_1031558" data-name="Trazado 1031558" d="M182.43,91.37q-.077-.791-.221-1.581l-5.791-31.853a4.68,4.68,0,0,0-4.6-3.843h-8.8a4.68,4.68,0,0,0-4.6,3.843l-.862,4.741" transform="translate(-130.488 -40.521)" fill="none" stroke="#000" stroke-linecap="round" stroke-linejoin="round" stroke-miterlimit="10" stroke-width="2"/>
      <path id="Trazado_1031559" data-name="Trazado 1031559" d="M361.009,184.887l-.283-1.358a6.517,6.517,0,0,0-6.38-5.186h-1.932a6.517,6.517,0,0,0-6.38,5.186l-2.5,11.983" transform="translate(-292.235 -148.576)" fill="none" stroke="#000" stroke-linecap="round" stroke-linejoin="round" stroke-miterlimit="10" stroke-width="2"/>
      <path id="Trazado_1031560" data-name="Trazado 1031560" d="M472.181,285.571a11.342,11.342,0,0,0,.951-.85,11.061,11.061,0,0,0,3.261-7.873,11.2,11.2,0,0,0-.235-2.284l-2.32-11.118" transform="translate(-404.115 -222.586)" fill="none" stroke="#000" stroke-linecap="round" stroke-linejoin="round" stroke-miterlimit="10" stroke-width="2"/>
    </g>
  </g>
</svg>
