<svg xmlns="http://www.w3.org/2000/svg" xmlns:xlink="http://www.w3.org/1999/xlink" width="118" height="118" viewBox="0 0 118 118">
  <defs>
    <filter id="Trazado_896985" x="0" y="0" width="118" height="118" filterUnits="userSpaceOnUse">
      <feOffset dy="3" input="SourceAlpha"/>
      <feGaussianBlur stdDeviation="3" result="blur"/>
      <feFlood flood-opacity="0.161"/>
      <feComposite operator="in" in2="blur"/>
      <feComposite in="SourceGraphic"/>
    </filter>
  </defs>
  <g id="Grupo_1199879" data-name="Grupo 1199879" transform="translate(-1210.008 -6135.797)">
    <g id="Grupo_1198137" data-name="Grupo 1198137" transform="translate(-3.101 1807.322)">
      <g id="Grupo_1181849" data-name="Grupo 1181849" transform="translate(1222.109 4334.475)">
        <g id="Grupo_1111318" data-name="Grupo 1111318" transform="translate(0)">
          <g id="Grupo_1109826" data-name="Grupo 1109826" transform="translate(0 0)">
            <g id="Grupo_1098742" data-name="Grupo 1098742">
              <g transform="matrix(1, 0, 0, 1, -9, -6)" filter="url(#Trazado_896985)">
                <g id="Trazado_896985-2" data-name="Trazado 896985" transform="translate(9 6)" fill="#9ad354" opacity="0.859">
                  <path d="M 49.99993515014648 99.5 C 43.31726837158203 99.5 36.83476257324219 98.19129943847656 30.73248100280762 95.61025238037109 C 24.83812141418457 93.11714172363281 19.54434776306152 89.54795837402344 14.99820137023926 85.00179290771484 C 10.45204162597656 80.45565032958984 6.88285493850708 75.16187286376953 4.389748573303223 69.26751708984375 C 1.808695197105408 63.16523742675781 0.5000017881393433 56.6827278137207 0.5000017881393433 50.00006103515625 C 0.5000017881393433 43.31726455688477 1.808695197105408 36.83475494384766 4.389748573303223 30.73247528076172 C 6.88285493850708 24.83811569213867 10.45204162597656 19.54434204101562 14.99820137023926 14.99819660186768 C 19.54434776306152 10.45203590393066 24.83812141418457 6.88284969329834 30.73248100280762 4.389742851257324 C 36.83476257324219 1.808689475059509 43.31726837158203 0.4999961853027344 49.99993515014648 0.4999961853027344 C 56.68260192871094 0.4999961853027344 63.16510772705078 1.808689475059509 69.26738739013672 4.389742851257324 C 75.16175079345703 6.88284969329834 80.45552062988281 10.45203590393066 85.00167083740234 14.99819660186768 C 89.54782867431641 19.54434204101562 93.11701202392578 24.83811569213867 95.61012268066406 30.73247528076172 C 98.19117736816406 36.83475494384766 99.49987030029297 43.31726455688477 99.49987030029297 49.99993133544922 C 99.49987030029297 56.6827278137207 98.19117736816406 63.16523742675781 95.61012268066406 69.26751708984375 C 93.11701202392578 75.16187286376953 89.54782867431641 80.45565032958984 85.00167083740234 85.00179290771484 C 80.45552062988281 89.54795837402344 75.16175079345703 93.11714172363281 69.26738739013672 95.61025238037109 C 63.16510772705078 98.19129943847656 56.68260192871094 99.5 49.99993515014648 99.5 Z" stroke="none"/>
                  <path d="M 49.99993515014648 0.9999923706054688 C 43.38454818725586 0.9999923706054688 36.96757507324219 2.29541015625 30.92725372314453 4.850250244140625 C 25.09249877929688 7.318145751953125 19.85213470458984 10.85135650634766 15.35174560546875 15.35174560546875 C 10.85136413574219 19.85212707519531 7.318145751953125 25.09249114990234 4.850257873535156 30.92724609375 C 2.295417785644531 36.96757125854492 1 43.38454437255859 1 50.00006103515625 C 1 56.61544799804688 2.295417785644531 63.03242111206055 4.850257873535156 69.07273864746094 C 7.318145751953125 74.90750122070312 10.85136413574219 80.14786529541016 15.35174560546875 84.64824676513672 C 19.85213470458984 89.14863586425781 25.09249877929688 92.68184661865234 30.92725372314453 95.14974212646484 C 36.96757507324219 97.70458221435547 43.38454818725586 99 49.99993515014648 99 C 56.61532211303711 99 63.03229522705078 97.70458221435547 69.07261657714844 95.14974212646484 C 74.90737915039062 92.68184661865234 80.14773559570312 89.14863586425781 84.64812469482422 84.64824676513672 C 89.14850616455078 80.14786529541016 92.68172454833984 74.90750122070312 95.14961242675781 69.07273864746094 C 97.70445251464844 63.03242111206055 98.99987030029297 56.61544799804688 98.99987030029297 49.99993133544922 C 98.99987030029297 43.38454437255859 97.70445251464844 36.96757125854492 95.14961242675781 30.92724609375 C 92.68172454833984 25.09249114990234 89.14850616455078 19.85212707519531 84.64812469482422 15.35174560546875 C 80.14773559570312 10.85135650634766 74.90737915039062 7.318145751953125 69.07261657714844 4.850250244140625 C 63.03229522705078 2.29541015625 56.61532211303711 0.9999923706054688 49.99993515014648 0.9999923706054688 M 49.99993515014648 -7.62939453125e-06 C 77.6141357421875 -7.62939453125e-06 99.99987030029297 22.38572692871094 99.99987030029297 49.99993133544922 L 99.99987030029297 50.00006103515625 C 99.99987030029297 77.61426544189453 77.6141357421875 100 49.99993515014648 100 C 22.38573455810547 100 0 77.61426544189453 0 50.00006103515625 L 0 49.99993133544922 C 0 22.38572692871094 22.38573455810547 -7.62939453125e-06 49.99993515014648 -7.62939453125e-06 Z" stroke="none" fill="#fff"/>
                </g>
              </g>
              <g id="Rectángulo_400907" data-name="Rectángulo 400907" transform="translate(0)" fill="none" stroke="#fff" stroke-width="1">
                <rect width="100" height="100" rx="50" stroke="none"/>
                <rect x="0.5" y="0.5" width="99" height="99" rx="49.5" fill="none"/>
              </g>
            </g>
          </g>
        </g>
      </g>
    </g>
    <g id="biodiversidad" transform="translate(1232.982 6155.258)">
      <path id="Trazado_1031585" data-name="Trazado 1031585" d="M21.937,7.035a8.717,8.717,0,0,0-9.385,10.322h0A8.717,8.717,0,0,0,21.937,7.035Z" transform="translate(1.466 1.042)" fill="#36b385"/>
      <path id="Trazado_1031586" data-name="Trazado 1031586" d="M13.547,17.7A8.717,8.717,0,0,1,4.162,7.382h0A8.717,8.717,0,0,1,13.547,17.7Z" transform="translate(0.159 0.707)" fill="#3abf8e"/>
      <ellipse id="Elipse_12192" data-name="Elipse 12192" cx="28.896" cy="26.584" rx="28.896" ry="26.584" transform="translate(7.626 18.445)" fill="#4db4ff"/>
      <ellipse id="Elipse_12193" data-name="Elipse 12193" cx="24.272" cy="21.961" rx="24.272" ry="21.961" transform="translate(12.249 23.068)" fill="#5ebbff"/>
      <ellipse id="Elipse_12194" data-name="Elipse 12194" cx="21.961" cy="19.649" rx="21.961" ry="19.649" transform="translate(14.561 25.38)" fill="#73c3ff"/>
      <path id="Trazado_1031587" data-name="Trazado 1031587" d="M24.834,17.75l-1.329,2.323a6.141,6.141,0,0,0-.37,5.351,6.289,6.289,0,0,1,.439,2.289,6.14,6.14,0,0,1-1.04,3.433L20.72,33.862a2.236,2.236,0,0,0,.277,2.8,2.236,2.236,0,0,1,.659,1.572,2.2,2.2,0,0,1-1.237,1.988l-1.26.636a6.387,6.387,0,0,0-3.444,4.67l-.15.9a6.37,6.37,0,0,0,1.318,5.051,6.424,6.424,0,0,1,.428,7.4l-1.56,2.485A25.5,25.5,0,0,1,7,42.311C7,31.238,14.363,21.738,24.834,17.75Z" transform="translate(0.626 2.718)" fill="#3ecc98"/>
      <path id="Trazado_1031588" data-name="Trazado 1031588" d="M53.463,56.4a4.624,4.624,0,0,0-2.427-1.214l-1.78-.3a2.845,2.845,0,0,1-2.312-2.242,2.844,2.844,0,0,0-4.2-1.907l-4.011,2.3a2.854,2.854,0,0,1-1.41.37H33.351a3.556,3.556,0,0,0-3.19,1.976l-.347.67a3.557,3.557,0,0,1-3.19,1.976,3.581,3.581,0,0,0-3.317,2.242l-.647,1.607c.717.277,1.456.52,2.208.728h.023A31.1,31.1,0,0,0,33.455,63.8a30.163,30.163,0,0,0,20.007-7.409Z" transform="translate(3.066 7.8)" fill="#3ecc98"/>
      <path id="Trazado_1031589" data-name="Trazado 1031589" d="M59.575,51.076,50.71,46.638a2.117,2.117,0,0,1-1.179-1.907V38.709a2.112,2.112,0,0,0-.462-1.329l-3.433-4.288a2.125,2.125,0,0,0-1.9-.786l-8.218.913a2.131,2.131,0,0,1-1.745-.613l-2.393-2.393a2.121,2.121,0,0,1,0-3.005,2.134,2.134,0,0,0,.589-1.93l-.809-4.011a2.155,2.155,0,0,1,.139-1.26l1.711-3.988c15.581.393,28.075,12.136,28.075,26.561a24.524,24.524,0,0,1-1.514,8.5Z" transform="translate(4.328 2.448)" fill="#3ecc98"/>
      <path id="Trazado_1031590" data-name="Trazado 1031590" d="M23.505,20.073a6.141,6.141,0,0,0-.37,5.351,5.643,5.643,0,0,1,.231.751,19.131,19.131,0,0,0-9.432,16.135,18.1,18.1,0,0,0,4.1,11.42,6.445,6.445,0,0,1,.243,1.757,6.315,6.315,0,0,1-.971,3.387l-1.56,2.485A25.5,25.5,0,0,1,7,42.311C7,31.238,14.363,21.738,24.834,17.75Z" transform="translate(0.626 2.718)" fill="#3abf8e"/>
      <path id="Trazado_1031591" data-name="Trazado 1031591" d="M53.463,56.087A30.163,30.163,0,0,1,33.455,63.5a31.1,31.1,0,0,1-8.565-1.19c-.012,0-.012-.012-.023-.012-.751-.208-1.491-.451-2.208-.728l.647-1.607a3.581,3.581,0,0,1,3.317-2.242A3.507,3.507,0,0,0,29.5,56.237,24.078,24.078,0,0,0,46.967,52.4a2.827,2.827,0,0,0,2.289,2.173l1.78.3a4.624,4.624,0,0,1,2.427,1.214Z" transform="translate(3.066 8.117)" fill="#3abf8e"/>
      <path id="Trazado_1031592" data-name="Trazado 1031592" d="M61.04,42.581a24.524,24.524,0,0,1-1.514,8.5l-6.253-3.132a17.585,17.585,0,0,0,.832-5.363c0-10.853-9.836-19.649-21.961-19.649-.231,0-.462,0-.693.012l-.335-1.676a2.156,2.156,0,0,1,.139-1.26l1.711-3.988C48.545,16.413,61.04,28.156,61.04,42.581Z" transform="translate(4.378 2.448)" fill="#3abf8e"/>
      <g id="Grupo_1199878" data-name="Grupo 1199878" transform="translate(7.626 0.309)">
        <path id="Trazado_1031593" data-name="Trazado 1031593" d="M23.505,20.073a6.172,6.172,0,0,0-.774,3.791c-6.692,3.907-11.107,10.715-11.107,18.447A20.763,20.763,0,0,0,18.05,57.187a6.056,6.056,0,0,1-.74,1.688l-1.56,2.485A25.5,25.5,0,0,1,7,42.311C7,31.238,14.363,21.738,24.834,17.75Z" transform="translate(-7 2.409)" fill="#36b385"/>
        <path id="Trazado_1031594" data-name="Trazado 1031594" d="M53.463,55.838a30.163,30.163,0,0,1-20.007,7.409,31.1,31.1,0,0,1-8.565-1.19c-.012,0-.012-.012-.023-.012-.751-.208-1.491-.451-2.208-.728l.647-1.607a3.554,3.554,0,0,1,2.635-2.161,26.7,26.7,0,0,0,7.513,1.075A25.8,25.8,0,0,0,48.342,54a2.777,2.777,0,0,0,.913.324l1.78.3A4.624,4.624,0,0,1,53.463,55.838Z" transform="translate(-4.56 8.058)" fill="#36b385"/>
        <path id="Trazado_1031595" data-name="Trazado 1031595" d="M61.036,42.581a24.524,24.524,0,0,1-1.514,8.5L55.361,49a20.117,20.117,0,0,0,1.052-6.415c0-12.125-10.865-21.961-24.272-21.961-.347,0-.693.012-1.04.023a2.041,2.041,0,0,1,.15-.636l1.711-3.988C48.541,16.413,61.036,28.156,61.036,42.581Z" transform="translate(-3.245 2.139)" fill="#36b385"/>
        <path id="Trazado_1031596" data-name="Trazado 1031596" d="M45.42,2.034a6.777,6.777,0,0,0-7.293,8.033h0A6.777,6.777,0,0,0,45.42,2.034Z" transform="translate(-2.169 -0.045)" fill="#36b385"/>
        <path id="Trazado_1031597" data-name="Trazado 1031597" d="M38.89,10.32A6.777,6.777,0,0,1,31.6,2.287h0A6.777,6.777,0,0,1,38.89,10.32Z" transform="translate(-3.187 -0.309)" fill="#36b385"/>
        <path id="Trazado_1031598" data-name="Trazado 1031598" d="M43.014,36.535a7.756,7.756,0,0,0-8.345,9.177h0A7.756,7.756,0,0,0,43.014,36.535Z" transform="translate(-2.71 5.331)" fill="#36b385"/>
        <path id="Trazado_1031599" data-name="Trazado 1031599" d="M35.554,46.011a7.756,7.756,0,0,1-8.345-9.177h0A7.756,7.756,0,0,1,35.554,46.011Z" transform="translate(-3.873 5.031)" fill="#36b385"/>
        <path id="Trazado_1031600" data-name="Trazado 1031600" d="M61.014,10.535a7.756,7.756,0,0,0-8.345,9.177h0a7.756,7.756,0,0,0,8.345-9.177Z" transform="translate(0.094 1.279)" fill="#36b385"/>
        <path id="Trazado_1031601" data-name="Trazado 1031601" d="M53.554,20.011a7.756,7.756,0,0,1-8.345-9.177h0A7.756,7.756,0,0,1,53.554,20.011Z" transform="translate(-1.068 0.98)" fill="#36b385"/>
      </g>
      <path id="Trazado_1031602" data-name="Trazado 1031602" d="M38.02,11.38V24.117a1.156,1.156,0,1,0,2.312,0V11.38A7.8,7.8,0,0,0,45.81,8.8a7.856,7.856,0,0,0,1.919-6.831A1.153,1.153,0,0,0,46.7,1.035,7.85,7.85,0,0,0,40.077,3.6a8.529,8.529,0,0,0-.913,1.237,7.88,7.88,0,0,0-7.536-3.8,1.165,1.165,0,0,0-1.029.936A7.891,7.891,0,0,0,32.518,8.8,7.8,7.8,0,0,0,38,11.38ZM41.8,5.15a5.585,5.585,0,0,1,3.768-1.826A5.512,5.512,0,0,1,44.1,7.242a5.585,5.585,0,0,1-3.768,1.826A5.61,5.61,0,0,1,41.8,5.138Zm-5.247,0A5.591,5.591,0,0,1,38.02,9.08a5.635,5.635,0,0,1-5.236-5.744,5.585,5.585,0,0,1,3.768,1.826Z" transform="translate(4.281 0.107)"/>
      <path id="Trazado_1031603" data-name="Trazado 1031603" d="M34.694,47.046V59.194a1.156,1.156,0,0,0,2.312,0V47.046a8.9,8.9,0,0,0,8.472-10.564,1.153,1.153,0,0,0-1.029-.936,8.861,8.861,0,0,0-7.432,2.878A9.18,9.18,0,0,0,35.85,40.03a8.621,8.621,0,0,0-1.167-1.607,8.861,8.861,0,0,0-7.432-2.878,1.165,1.165,0,0,0-1.029.936,8.9,8.9,0,0,0,8.472,10.564Zm4.034-7.074a6.523,6.523,0,0,1,4.589-2.15,6.6,6.6,0,0,1-6.3,6.923A6.561,6.561,0,0,1,38.728,39.972Zm-5.744,0a6.527,6.527,0,0,1,1.711,4.774,6.6,6.6,0,0,1-6.3-6.923A6.544,6.544,0,0,1,32.983,39.972Z" transform="translate(3.596 5.484)"/>
      <path id="Trazado_1031604" data-name="Trazado 1031604" d="M44.232,10.472A8.9,8.9,0,0,0,52.7,21.036V38.963a1.156,1.156,0,1,0,2.312,0V21.036a8.9,8.9,0,0,0,8.472-10.564,1.153,1.153,0,0,0-1.029-.936,8.861,8.861,0,0,0-7.432,2.878A9.18,9.18,0,0,0,53.86,14.02a8.622,8.622,0,0,0-1.167-1.607,8.861,8.861,0,0,0-7.432-2.878,1.165,1.165,0,0,0-1.029.936Zm12.494,3.5a6.523,6.523,0,0,1,4.589-2.15,6.6,6.6,0,0,1-6.3,6.923A6.561,6.561,0,0,1,56.726,13.974Zm-5.744,0a6.527,6.527,0,0,1,1.711,4.774,6.6,6.6,0,0,1-6.3-6.923A6.544,6.544,0,0,1,50.982,13.974Z" transform="translate(6.402 1.431)"/>
      <path id="Trazado_1031605" data-name="Trazado 1031605" d="M12.711,18.7V36.053a1.156,1.156,0,1,0,2.312,0V18.7A9.869,9.869,0,0,0,24.547,6.972a1.153,1.153,0,0,0-1.029-.936,9.791,9.791,0,0,0-8.241,3.19,10.484,10.484,0,0,0-1.422,2.023,10,10,0,0,0-1.422-2.023,9.778,9.778,0,0,0-8.241-3.19,1.165,1.165,0,0,0-1.029.936,9.79,9.79,0,0,0,2.393,8.507A9.755,9.755,0,0,0,12.688,18.7Zm4.277-7.917a7.491,7.491,0,0,1,5.4-2.473,7.571,7.571,0,0,1-7.351,8.079A7.467,7.467,0,0,1,16.988,10.787ZM5.337,8.313a7.491,7.491,0,0,1,5.4,2.473,7.482,7.482,0,0,1,1.953,5.606A7.571,7.571,0,0,1,5.337,8.313Z" transform="translate(0 0.885)"/>
      <path id="Trazado_1031606" data-name="Trazado 1031606" d="M11.086,27.32A26.037,26.037,0,0,0,6,42.738c0,15.292,13.477,27.74,30.051,27.74S66.1,58.03,66.1,42.738a25.892,25.892,0,0,0-4.011-13.824v5.074a23.323,23.323,0,0,1,.659,15.627l-7.929-3.86a.958.958,0,0,1-.543-.867V38.866a3.174,3.174,0,0,0-.74-2.046l-3.525-4.288A3.39,3.39,0,0,0,47,31.319l-8.449.913a1.024,1.024,0,0,1-.832-.277l-2.462-2.393a.976.976,0,0,1-.3-.682.964.964,0,0,1,.289-.682,3.26,3.26,0,0,0,.936-2.982l-.832-4a.994.994,0,0,1,.069-.578l1.445-3.283a29.427,29.427,0,0,1,3.8.324V15.345a32.129,32.129,0,0,0-4.623-.335A31.369,31.369,0,0,0,15.7,22.349v3.144a27.605,27.605,0,0,1,6.577-4.808,7.253,7.253,0,0,0-.069,5.606,5.036,5.036,0,0,1,.358,1.872,4.94,4.94,0,0,1-.844,2.786l-1.826,2.728a3.392,3.392,0,0,0,.428,4.253,1.061,1.061,0,0,1,.324.751,1.051,1.051,0,0,1-.6.959l-1.26.636a7.559,7.559,0,0,0-4.069,5.513l-.15.9a7.482,7.482,0,0,0,1.56,5.964,5.255,5.255,0,0,1,.347,6.057l-.809,1.283A24.229,24.229,0,0,1,8.289,42.761a23.508,23.508,0,0,1,2.774-11.073V27.343ZM17.94,51.176a5.181,5.181,0,0,1-1.075-4.138l.15-.9a5.264,5.264,0,0,1,2.82-3.826l1.248-.636a3.36,3.36,0,0,0,1.884-3.028,3.4,3.4,0,0,0-.994-2.393,1.1,1.1,0,0,1-.139-1.341L23.649,32.2a7.276,7.276,0,0,0,1.237-4.08,7.455,7.455,0,0,0-.52-2.716,4.961,4.961,0,0,1,.3-4.346l1.11-1.953a29.787,29.787,0,0,1,8.5-1.757l-1.029,2.346a3.2,3.2,0,0,0-.22,1.942l.832,4a.96.96,0,0,1-.277.89,3.238,3.238,0,0,0-.994,2.323,3.192,3.192,0,0,0,.994,2.323l2.462,2.393a3.482,3.482,0,0,0,2.774.948l8.461-.913a1.031,1.031,0,0,1,.89.358l3.537,4.3a.905.905,0,0,1,.208.6v6.022a3.227,3.227,0,0,0,1.872,2.936L61.977,51.8A25.356,25.356,0,0,1,56,60.388a5.813,5.813,0,0,0-2.15-.844l-1.78-.3A1.7,1.7,0,0,1,50.7,57.914a4.009,4.009,0,0,0-5.906-2.682l-3.479,2V59.81a2.983,2.983,0,0,0,.624-.266l4-2.3a1.669,1.669,0,0,1,1.549-.069,1.651,1.651,0,0,1,.948,1.2,4.032,4.032,0,0,0,3.248,3.155l1.78.3a3.084,3.084,0,0,1,.659.185,29.088,29.088,0,0,1-18.042,6.137,29.826,29.826,0,0,1-9.27-1.468L27,66.2a2.431,2.431,0,0,1,2.242-1.514,4.7,4.7,0,0,0,4.219-2.6l.358-.693a2.374,2.374,0,0,1,2.15-1.329h.717V57.752h-.717a4.7,4.7,0,0,0-4.219,2.6l-.358.693a2.374,2.374,0,0,1-2.15,1.329,4.719,4.719,0,0,0-4.392,2.97l-.22.532a28.1,28.1,0,0,1-7.2-4.334L18.46,59.9a7.582,7.582,0,0,0-.5-8.75Z" transform="translate(0.47 2.291)"/>
      <path id="Trazado_1031607" data-name="Trazado 1031607" d="M52.171,26.422V23.117A30.523,30.523,0,0,0,40,16.17v2.416A27.992,27.992,0,0,1,52.171,26.422Z" transform="translate(5.768 2.472)"/>
    </g>
  </g>
</svg>
