<svg xmlns="http://www.w3.org/2000/svg" xmlns:xlink="http://www.w3.org/1999/xlink" width="118" height="118" viewBox="0 0 118 118">
  <defs>
    <filter id="Trazado_896985" x="0" y="0" width="118" height="118" filterUnits="userSpaceOnUse">
      <feOffset dy="3" input="SourceAlpha"/>
      <feGaussianBlur stdDeviation="3" result="blur"/>
      <feFlood flood-opacity="0.161"/>
      <feComposite operator="in" in2="blur"/>
      <feComposite in="SourceGraphic"/>
    </filter>
  </defs>
  <g id="Grupo_1199930" data-name="Grupo 1199930" transform="translate(-896 -8294.476)">
    <g id="Grupo_1198707" data-name="Grupo 1198707" transform="translate(-3.05 4671.476)">
      <g id="Grupo_1198654" data-name="Grupo 1198654">
        <g id="Grupo_1198136" data-name="Grupo 1198136" transform="translate(0 -705.475)">
          <g id="Grupo_1181848" data-name="Grupo 1181848" transform="translate(908.051 4334.475)">
            <g id="Grupo_1111318" data-name="Grupo 1111318" transform="translate(0)">
              <g id="Grupo_1109826" data-name="Grupo 1109826" transform="translate(0 0)">
                <g id="Grupo_1098742" data-name="Grupo 1098742">
                  <g transform="matrix(1, 0, 0, 1, -9, -6)" filter="url(#Trazado_896985)">
                    <g id="Trazado_896985-2" data-name="Trazado 896985" transform="translate(9 6)" fill="#9ad354" opacity="0.859">
                      <path d="M 49.99993515014648 99.5 C 43.31726837158203 99.5 36.83476257324219 98.19129943847656 30.73248100280762 95.61025238037109 C 24.83812141418457 93.11714172363281 19.54434776306152 89.54795837402344 14.99820137023926 85.00179290771484 C 10.45204162597656 80.45565032958984 6.88285493850708 75.16187286376953 4.389748573303223 69.26751708984375 C 1.808695197105408 63.16523742675781 0.5000017881393433 56.6827278137207 0.5000017881393433 50.00006103515625 C 0.5000017881393433 43.31726455688477 1.808695197105408 36.83475494384766 4.389748573303223 30.73247528076172 C 6.88285493850708 24.83811569213867 10.45204162597656 19.54434204101562 14.99820137023926 14.99819660186768 C 19.54434776306152 10.45203590393066 24.83812141418457 6.88284969329834 30.73248100280762 4.389742851257324 C 36.83476257324219 1.808689475059509 43.31726837158203 0.4999961853027344 49.99993515014648 0.4999961853027344 C 56.68260192871094 0.4999961853027344 63.16510772705078 1.808689475059509 69.26738739013672 4.389742851257324 C 75.16175079345703 6.88284969329834 80.45552062988281 10.45203590393066 85.00167083740234 14.99819660186768 C 89.54782867431641 19.54434204101562 93.11701202392578 24.83811569213867 95.61012268066406 30.73247528076172 C 98.19117736816406 36.83475494384766 99.49987030029297 43.31726455688477 99.49987030029297 49.99993133544922 C 99.49987030029297 56.6827278137207 98.19117736816406 63.16523742675781 95.61012268066406 69.26751708984375 C 93.11701202392578 75.16187286376953 89.54782867431641 80.45565032958984 85.00167083740234 85.00179290771484 C 80.45552062988281 89.54795837402344 75.16175079345703 93.11714172363281 69.26738739013672 95.61025238037109 C 63.16510772705078 98.19129943847656 56.68260192871094 99.5 49.99993515014648 99.5 Z" stroke="none"/>
                      <path d="M 49.99993515014648 0.9999923706054688 C 43.38454818725586 0.9999923706054688 36.96757507324219 2.29541015625 30.92725372314453 4.850250244140625 C 25.09249877929688 7.318145751953125 19.85213470458984 10.85135650634766 15.35174560546875 15.35174560546875 C 10.85136413574219 19.85212707519531 7.318145751953125 25.09249114990234 4.850257873535156 30.92724609375 C 2.295417785644531 36.96757125854492 1 43.38454437255859 1 50.00006103515625 C 1 56.61544799804688 2.295417785644531 63.03242111206055 4.850257873535156 69.07273864746094 C 7.318145751953125 74.90750122070312 10.85136413574219 80.14786529541016 15.35174560546875 84.64824676513672 C 19.85213470458984 89.14863586425781 25.09249877929688 92.68184661865234 30.92725372314453 95.14974212646484 C 36.96757507324219 97.70458221435547 43.38454818725586 99 49.99993515014648 99 C 56.61532211303711 99 63.03229522705078 97.70458221435547 69.07261657714844 95.14974212646484 C 74.90737915039062 92.68184661865234 80.14773559570312 89.14863586425781 84.64812469482422 84.64824676513672 C 89.14850616455078 80.14786529541016 92.68172454833984 74.90750122070312 95.14961242675781 69.07273864746094 C 97.70445251464844 63.03242111206055 98.99987030029297 56.61544799804688 98.99987030029297 49.99993133544922 C 98.99987030029297 43.38454437255859 97.70445251464844 36.96757125854492 95.14961242675781 30.92724609375 C 92.68172454833984 25.09249114990234 89.14850616455078 19.85212707519531 84.64812469482422 15.35174560546875 C 80.14773559570312 10.85135650634766 74.90737915039062 7.318145751953125 69.07261657714844 4.850250244140625 C 63.03229522705078 2.29541015625 56.61532211303711 0.9999923706054688 49.99993515014648 0.9999923706054688 M 49.99993515014648 -7.62939453125e-06 C 77.6141357421875 -7.62939453125e-06 99.99987030029297 22.38572692871094 99.99987030029297 49.99993133544922 L 99.99987030029297 50.00006103515625 C 99.99987030029297 77.61426544189453 77.6141357421875 100 49.99993515014648 100 C 22.38573455810547 100 0 77.61426544189453 0 50.00006103515625 L 0 49.99993133544922 C 0 22.38572692871094 22.38573455810547 -7.62939453125e-06 49.99993515014648 -7.62939453125e-06 Z" stroke="none" fill="#fff"/>
                    </g>
                  </g>
                  <g id="Rectángulo_400907" data-name="Rectángulo 400907" transform="translate(0)" fill="none" stroke="#fff" stroke-width="1">
                    <rect width="100" height="100" rx="50" stroke="none"/>
                    <rect x="0.5" y="0.5" width="99" height="99" rx="49.5" fill="none"/>
                  </g>
                </g>
              </g>
            </g>
          </g>
        </g>
      </g>
    </g>
    <g id="Layer_25" data-name="Layer 25" transform="translate(922.462 8318.412)">
      <path id="Trazado_1031936" data-name="Trazado 1031936" d="M58.534,10.981,44.629,9.209a2.007,2.007,0,0,1-1.476-.9l-2.331-3.5A4.063,4.063,0,0,0,37.439,3H27.53a4.063,4.063,0,0,0-3.383,1.812l-2.331,3.5a2.007,2.007,0,0,1-1.476.9L6.435,10.981A1.613,1.613,0,0,0,6.618,14.2H20.444a2.036,2.036,0,0,1,1.439.6l.247.247a4.072,4.072,0,0,0,2.88,1.193h14.95a4.072,4.072,0,0,0,2.88-1.193l.246-.246a2.036,2.036,0,0,1,1.439-.6H58.35a1.613,1.613,0,0,0,.183-3.217Z" transform="translate(0.054 0.018)" fill="#2488ff"/>
      <path id="Trazado_1031937" data-name="Trazado 1031937" d="M6.435,13.017,20.34,11.245a2.007,2.007,0,0,0,1.476-.9l2.331-3.5A4.063,4.063,0,0,1,27.53,5.036h9.909a4.063,4.063,0,0,1,3.383,1.812l2.331,3.5a2.007,2.007,0,0,0,1.476.9l13.905,1.771A1.611,1.611,0,0,1,59.6,13.6a1.6,1.6,0,0,0,.372-1.018,1.616,1.616,0,0,0-1.435-1.6L44.629,9.209a2.007,2.007,0,0,1-1.476-.9l-2.331-3.5A4.063,4.063,0,0,0,37.439,3H27.53a4.063,4.063,0,0,0-3.383,1.812l-2.331,3.5a2.007,2.007,0,0,1-1.476.9L6.435,10.981A1.616,1.616,0,0,0,5,12.579,1.6,1.6,0,0,0,5.372,13.6a1.611,1.611,0,0,1,1.064-.58Z" transform="translate(0.054 0.018)" fill="#006df0"/>
      <path id="Trazado_1031938" data-name="Trazado 1031938" d="M59.688,4H50.527a1.527,1.527,0,0,0,0,3.054h9.161a1.527,1.527,0,1,0,0-3.054Z" transform="translate(0.843 0.036)" fill="#ffcd00"/>
      <path id="Trazado_1031939" data-name="Trazado 1031939" d="M3,5.527A1.527,1.527,0,0,0,4.527,7.054h9.161a1.527,1.527,0,1,0,0-3.054H4.527A1.527,1.527,0,0,0,3,5.527Z" transform="translate(0.018 0.036)" fill="#ffcd00"/>
      <path id="Trazado_1031940" data-name="Trazado 1031940" d="M47.682,26.521a1.588,1.588,0,1,0,3.1-.69L48.054,14H45Z" transform="translate(0.772 0.215)" fill="#58595b"/>
      <path id="Trazado_1031941" data-name="Trazado 1031941" d="M13.32,25.826a1.589,1.589,0,1,0,3.1.694L19.1,14H16.049Z" transform="translate(0.202 0.215)" fill="#58595b"/>
      <path id="Trazado_1031942" data-name="Trazado 1031942" d="M30,16h4.072v5.09H30Z" transform="translate(0.502 0.251)" fill="#004fac"/>
      <path id="Trazado_1031943" data-name="Trazado 1031943" d="M15.108,50.036V48H13.072A4.072,4.072,0,0,0,9,52.072v2.036h2.036A4.072,4.072,0,0,0,15.108,50.036Z" transform="translate(0.126 0.825)" fill="#7ed63e"/>
      <path id="Trazado_1031944" data-name="Trazado 1031944" d="M5.036,42H3v2.036a4.072,4.072,0,0,0,4.072,4.072H9.108V46.072A4.072,4.072,0,0,0,5.036,42Z" transform="translate(0.018 0.718)" fill="#91dc5a"/>
      <path id="Trazado_1031945" data-name="Trazado 1031945" d="M5.036,51H3v2.036a4.072,4.072,0,0,0,4.072,4.072H9.108V55.072A4.072,4.072,0,0,0,5.036,51Z" transform="translate(0.018 0.879)" fill="#5eac24"/>
      <path id="Trazado_1031946" data-name="Trazado 1031946" d="M36.036,48H34v2.036a4.072,4.072,0,0,0,4.072,4.072h2.036V52.072A4.072,4.072,0,0,0,36.036,48Z" transform="translate(0.574 0.825)" fill="#7ed63e"/>
      <path id="Trazado_1031947" data-name="Trazado 1031947" d="M46.108,44.036V42H44.072A4.072,4.072,0,0,0,40,46.072v2.036h2.036A4.072,4.072,0,0,0,46.108,44.036Z" transform="translate(0.682 0.718)" fill="#91dc5a"/>
      <path id="Trazado_1031948" data-name="Trazado 1031948" d="M46.108,53.036V51H44.072A4.072,4.072,0,0,0,40,55.072v2.036h2.036A4.072,4.072,0,0,0,46.108,53.036Z" transform="translate(0.682 0.879)" fill="#5eac24"/>
      <path id="Trazado_1031949" data-name="Trazado 1031949" d="M51.036,48H49v2.036a4.072,4.072,0,0,0,4.072,4.072h2.036V52.072A4.072,4.072,0,0,0,51.036,48Z" transform="translate(0.843 0.825)" fill="#7ed63e"/>
      <path id="Trazado_1031950" data-name="Trazado 1031950" d="M55,46.072v2.036h2.036a4.072,4.072,0,0,0,4.072-4.072V42H59.072A4.072,4.072,0,0,0,55,46.072Z" transform="translate(0.951 0.718)" fill="#91dc5a"/>
      <path id="Trazado_1031951" data-name="Trazado 1031951" d="M57.036,57.108a4.072,4.072,0,0,0,4.072-4.072V51H59.072A4.072,4.072,0,0,0,55,55.072v2.036Z" transform="translate(0.951 0.879)" fill="#5eac24"/>
      <path id="Trazado_1031952" data-name="Trazado 1031952" d="M20.036,48H18v2.036a4.072,4.072,0,0,0,4.072,4.072h2.036V52.072A4.072,4.072,0,0,0,20.036,48Z" transform="translate(0.287 0.825)" fill="#7ed63e"/>
      <path id="Trazado_1031953" data-name="Trazado 1031953" d="M30.108,44.036V42H28.072A4.072,4.072,0,0,0,24,46.072v2.036h2.036A4.072,4.072,0,0,0,30.108,44.036Z" transform="translate(0.395 0.718)" fill="#91dc5a"/>
      <path id="Trazado_1031954" data-name="Trazado 1031954" d="M30.108,53.036V51H28.072A4.072,4.072,0,0,0,24,55.072v2.036h2.036A4.072,4.072,0,0,0,30.108,53.036Z" transform="translate(0.395 0.879)" fill="#5eac24"/>
      <path id="Trazado_1031955" data-name="Trazado 1031955" d="M26.036,21A2.036,2.036,0,0,0,24,23.036v2.036H40.287V23.036A2.036,2.036,0,0,0,38.251,21Z" transform="translate(0.395 0.341)" fill="#6d6e71"/>
      <g id="Grupo_1199929" data-name="Grupo 1199929" transform="translate(2 2)">
        <path id="Trazado_1031956" data-name="Trazado 1031956" d="M60.532,8.108a2.545,2.545,0,1,0,0-5.09H51.37a2.545,2.545,0,1,0,0,5.09h3.563V9.5L44.784,8.22a1.018,1.018,0,0,1-.733-.448L41.72,4.27A5.058,5.058,0,0,0,37.5,2H27.581a5.058,5.058,0,0,0-4.224,2.27l-2.331,3.5a1.018,1.018,0,0,1-.763.448L10.144,9.5V8.108h3.563a2.545,2.545,0,0,0,0-5.09H4.545a2.545,2.545,0,1,0,0,5.09H8.108V9.767l-1.731.224a2.629,2.629,0,0,0,.3,5.242h8.3L12.526,25.81a2.609,2.609,0,0,0,1.72,3.064,2.545,2.545,0,0,0,.825.132,2.647,2.647,0,0,0,1.293-.346,2.59,2.59,0,0,0,1.252-1.71L20.13,15.233H20.5a1.008,1.008,0,0,1,.723.3l.244.254a5.084,5.084,0,0,0,3.6,1.486h4.418v3.054H26.431a3.063,3.063,0,0,0-3.054,3.054v4.072a1.018,1.018,0,0,0,2.036,0V26.431H31.52v1.018a1.018,1.018,0,1,0,2.036,0V26.431h6.108v1.018a1.018,1.018,0,0,0,2.036,0V23.377a3.063,3.063,0,0,0-3.054-3.054H35.592V17.269H40.01a5.084,5.084,0,0,0,3.6-1.486l.244-.254a1.071,1.071,0,0,1,.723-.3h.366L47.461,26.95a2.59,2.59,0,0,0,1.252,1.71,2.647,2.647,0,0,0,1.293.346,2.545,2.545,0,0,0,.825-.132A2.606,2.606,0,0,0,52.612,26.4a2.907,2.907,0,0,0-.061-.59L50.108,15.233h8.3a2.63,2.63,0,0,0,.316-5.242l-1.751-.224V8.108ZM4.545,6.072a.509.509,0,1,1,0-1.018h9.161a.509.509,0,1,1,0,1.018ZM15.63,26.522a.565.565,0,0,1-.743.417.577.577,0,0,1-.377-.672l2.555-11.035h.977Zm23.016-4.163a1.018,1.018,0,0,1,1.018,1.018v1.018H25.413V23.377a1.018,1.018,0,0,1,1.018-1.018ZM31.52,20.323V17.269h2.036v3.054Zm19.046,5.945a.577.577,0,0,1-.377.672.565.565,0,0,1-.743-.417L47.034,15.233h.977Zm7.909-14.261A.611.611,0,0,1,59,12.6a.6.6,0,0,1-.6.6H44.581a3.009,3.009,0,0,0-2.158.9l-.254.244a3.009,3.009,0,0,1-2.158.9H25.067a3.054,3.054,0,0,1-2.158-.9l-.254-.244a3.009,3.009,0,0,0-2.158-.9H6.672a.6.6,0,0,1-.6-.6.611.611,0,0,1,.55-.59L20.5,10.235a3,3,0,0,0,2.219-1.344l2.331-3.5a3.054,3.054,0,0,1,2.535-1.354H37.5A3.054,3.054,0,0,1,40.03,5.39l2.331,3.5a3,3,0,0,0,2.189,1.344ZM51.37,6.072a.509.509,0,1,1,0-1.018h9.161a.509.509,0,1,1,0,1.018Z" transform="translate(-2 -2)" fill="#231f20"/>
        <path id="Trazado_1031957" data-name="Trazado 1031957" d="M40.207,12.637a1.018,1.018,0,0,0,1.694-1.13L39.865,8.453a1.018,1.018,0,1,0-1.694,1.13Z" transform="translate(-1.354 -1.892)" fill="#231f20"/>
        <path id="Trazado_1031958" data-name="Trazado 1031958" d="M37,13.676a1.018,1.018,0,1,0,1.694-1.13L36.656,9.492a1.018,1.018,0,1,0-1.694,1.13Z" transform="translate(-1.412 -1.874)" fill="#231f20"/>
        <path id="Trazado_1031959" data-name="Trazado 1031959" d="M23.018,13.09a1.018,1.018,0,0,0,.848-.453L25.9,9.583a1.018,1.018,0,0,0-1.694-1.13l-2.036,3.054a1.018,1.018,0,0,0,.846,1.583Z" transform="translate(-1.641 -1.892)" fill="#231f20"/>
        <path id="Trazado_1031960" data-name="Trazado 1031960" d="M25.485,14.23a1.018,1.018,0,0,0,1.412-.283l2.036-3.054a1.018,1.018,0,1,0-1.694-1.129L25.2,12.818A1.018,1.018,0,0,0,25.485,14.23Z" transform="translate(-1.587 -1.869)" fill="#231f20"/>
        <path id="Trazado_1031961" data-name="Trazado 1031961" d="M57.987,49.144a5.09,5.09,0,0,0,5.09-5.09V42.018A1.018,1.018,0,0,0,62.059,41H60.023a5.09,5.09,0,0,0-5.09,5.09v2.066a5.012,5.012,0,0,0-3.054-1.048H49.843a1.018,1.018,0,0,0-1.018,1.018v2.036a5.09,5.09,0,0,0,5.09,5.09h1.018v5.09H41.7V58.305h1.018a5.09,5.09,0,0,0,5.09-5.09V51.179a1.018,1.018,0,0,0-1.018-1.018H44.754A5.012,5.012,0,0,0,41.7,51.21V49.144h1.018a5.09,5.09,0,0,0,5.09-5.09V42.018A1.018,1.018,0,0,0,46.79,41H44.754a5.09,5.09,0,0,0-5.09,5.09v2.066a5.012,5.012,0,0,0-3.054-1.048H34.574a1.018,1.018,0,0,0-1.018,1.018v2.036a5.09,5.09,0,0,0,5.09,5.09h1.018v5.09H25.413V58.305h1.018a5.09,5.09,0,0,0,5.09-5.09V51.179A1.018,1.018,0,0,0,30.5,50.161H28.467a5.012,5.012,0,0,0-3.054,1.048V49.144h1.018a5.09,5.09,0,0,0,5.09-5.09V42.018A1.018,1.018,0,0,0,30.5,41H28.467a5.09,5.09,0,0,0-5.09,5.09v2.066a5.012,5.012,0,0,0-3.054-1.048H18.287a1.018,1.018,0,0,0-1.018,1.018v2.036a5.09,5.09,0,0,0,5.09,5.09h1.018v5.09H10.144v-5.09h1.018a5.09,5.09,0,0,0,5.09-5.09V48.126a1.018,1.018,0,0,0-1.018-1.018H13.2a5.012,5.012,0,0,0-3.054,1.048V46.09A5.09,5.09,0,0,0,5.054,41H3.018A1.018,1.018,0,0,0,2,42.018v2.036a5.09,5.09,0,0,0,5.09,5.09H8.108V51.21a5.012,5.012,0,0,0-3.054-1.048H3.018A1.018,1.018,0,0,0,2,51.179v2.036a5.09,5.09,0,0,0,5.09,5.09H8.108v2.036H3.018a1.018,1.018,0,0,0,0,2.036H62.059a1.018,1.018,0,0,0,0-2.036h-5.09V58.305h1.018a5.09,5.09,0,0,0,5.09-5.09V51.179a1.018,1.018,0,0,0-1.018-1.018H60.023a5.012,5.012,0,0,0-3.054,1.048V49.144ZM56.969,46.09a3.063,3.063,0,0,1,3.054-3.054h1.018v1.018a3.063,3.063,0,0,1-3.054,3.054H56.969Zm-15.269,0a3.063,3.063,0,0,1,3.054-3.054h1.018v1.018a3.063,3.063,0,0,1-3.054,3.054H41.7Zm0,9.161A3.063,3.063,0,0,1,44.754,52.2h1.018v1.018a3.063,3.063,0,0,1-3.054,3.054H41.7ZM25.413,46.09a3.063,3.063,0,0,1,3.054-3.054h1.018v1.018a3.063,3.063,0,0,1-3.054,3.054H25.413Zm0,9.161A3.063,3.063,0,0,1,28.467,52.2h1.018v1.018a3.063,3.063,0,0,1-3.054,3.054H25.413ZM10.144,52.2A3.063,3.063,0,0,1,13.2,49.144h1.018v1.018a3.063,3.063,0,0,1-3.054,3.054H10.144ZM8.108,56.269H7.09a3.063,3.063,0,0,1-3.054-3.054V52.2H5.054a3.063,3.063,0,0,1,3.054,3.054Zm0-9.161H7.09a3.063,3.063,0,0,1-3.054-3.054V43.036H5.054A3.063,3.063,0,0,1,8.108,46.09Zm15.269,6.108H22.359a3.063,3.063,0,0,1-3.054-3.054V49.144h1.018A3.063,3.063,0,0,1,23.377,52.2Zm16.287,0H38.646a3.063,3.063,0,0,1-3.054-3.054V49.144H36.61A3.063,3.063,0,0,1,39.664,52.2Zm15.269,0H53.915a3.063,3.063,0,0,1-3.054-3.054V49.144h1.018A3.063,3.063,0,0,1,54.933,52.2Zm5.09-1.018h1.018v1.018a3.063,3.063,0,0,1-3.054,3.054H56.969V55.251A3.063,3.063,0,0,1,60.023,52.2Z" transform="translate(-2 -1.3)" fill="#231f20"/>
        <path id="Trazado_1031962" data-name="Trazado 1031962" d="M25.036,30.018a1.018,1.018,0,1,0-2.036,0v1.018a1.018,1.018,0,1,0,2.036,0Z" transform="translate(-1.623 -1.516)" fill="#231f20"/>
        <path id="Trazado_1031963" data-name="Trazado 1031963" d="M32.018,32.054a1.018,1.018,0,0,0,1.018-1.018V30.018a1.018,1.018,0,0,0-2.036,0v1.018A1.018,1.018,0,0,0,32.018,32.054Z" transform="translate(-1.48 -1.516)" fill="#231f20"/>
        <path id="Trazado_1031964" data-name="Trazado 1031964" d="M39.036,34.018a1.018,1.018,0,0,0-2.036,0v1.018a1.018,1.018,0,0,0,2.036,0Z" transform="translate(-1.372 -1.444)" fill="#231f20"/>
        <path id="Trazado_1031965" data-name="Trazado 1031965" d="M42.018,36.054a1.018,1.018,0,0,0,1.018-1.018V34.018a1.018,1.018,0,0,0-2.036,0v1.018A1.018,1.018,0,0,0,42.018,36.054Z" transform="translate(-1.3 -1.444)" fill="#231f20"/>
        <path id="Trazado_1031966" data-name="Trazado 1031966" d="M36.018,40.054a1.018,1.018,0,0,0,1.018-1.018V38.018a1.018,1.018,0,0,0-2.036,0v1.018A1.018,1.018,0,0,0,36.018,40.054Z" transform="translate(-1.408 -1.372)" fill="#231f20"/>
        <path id="Trazado_1031967" data-name="Trazado 1031967" d="M40.018,40.054a1.018,1.018,0,0,0,1.018-1.018V38.018a1.018,1.018,0,0,0-2.036,0v1.018A1.018,1.018,0,0,0,40.018,40.054Z" transform="translate(-1.336 -1.372)" fill="#231f20"/>
        <path id="Trazado_1031968" data-name="Trazado 1031968" d="M44.018,40.054a1.018,1.018,0,0,0,1.018-1.018V38.018a1.018,1.018,0,0,0-2.036,0v1.018A1.018,1.018,0,0,0,44.018,40.054Z" transform="translate(-1.264 -1.372)" fill="#231f20"/>
        <path id="Trazado_1031969" data-name="Trazado 1031969" d="M34.018,44.054a1.018,1.018,0,0,0,1.018-1.018V42.018a1.018,1.018,0,0,0-2.036,0v1.018A1.018,1.018,0,0,0,34.018,44.054Z" transform="translate(-1.444 -1.3)" fill="#231f20"/>
        <path id="Trazado_1031970" data-name="Trazado 1031970" d="M38.018,44.054a1.018,1.018,0,0,0,1.018-1.018V42.018a1.018,1.018,0,0,0-2.036,0v1.018A1.018,1.018,0,0,0,38.018,44.054Z" transform="translate(-1.372 -1.3)" fill="#231f20"/>
        <path id="Trazado_1031971" data-name="Trazado 1031971" d="M17,42.018v1.018a1.018,1.018,0,0,0,2.036,0V42.018a1.018,1.018,0,0,0-2.036,0Z" transform="translate(-1.731 -1.3)" fill="#231f20"/>
        <path id="Trazado_1031972" data-name="Trazado 1031972" d="M22.018,44.054a1.018,1.018,0,0,0,1.018-1.018V42.018a1.018,1.018,0,0,0-2.036,0v1.018A1.018,1.018,0,0,0,22.018,44.054Z" transform="translate(-1.659 -1.3)" fill="#231f20"/>
        <path id="Trazado_1031973" data-name="Trazado 1031973" d="M14,44.018v1.018a1.018,1.018,0,0,0,2.036,0V44.018a1.018,1.018,0,0,0-2.036,0Z" transform="translate(-1.785 -1.264)" fill="#231f20"/>
        <path id="Trazado_1031974" data-name="Trazado 1031974" d="M49.018,41A1.018,1.018,0,0,0,48,42.018v1.018a1.018,1.018,0,0,0,2.036,0V42.018A1.018,1.018,0,0,0,49.018,41Z" transform="translate(-1.175 -1.3)" fill="#231f20"/>
        <path id="Trazado_1031975" data-name="Trazado 1031975" d="M31.036,34.018a1.018,1.018,0,0,0-2.036,0v1.018a1.018,1.018,0,0,0,2.036,0Z" transform="translate(-1.515 -1.444)" fill="#231f20"/>
        <path id="Trazado_1031976" data-name="Trazado 1031976" d="M35.036,34.018a1.018,1.018,0,0,0-2.036,0v1.018a1.018,1.018,0,0,0,2.036,0Z" transform="translate(-1.444 -1.444)" fill="#231f20"/>
        <path id="Trazado_1031977" data-name="Trazado 1031977" d="M28.018,40.054a1.018,1.018,0,0,0,1.018-1.018V38.018a1.018,1.018,0,0,0-2.036,0v1.018A1.018,1.018,0,0,0,28.018,40.054Z" transform="translate(-1.551 -1.372)" fill="#231f20"/>
        <path id="Trazado_1031978" data-name="Trazado 1031978" d="M32.018,40.054a1.018,1.018,0,0,0,1.018-1.018V38.018a1.018,1.018,0,0,0-2.036,0v1.018A1.018,1.018,0,0,0,32.018,40.054Z" transform="translate(-1.48 -1.372)" fill="#231f20"/>
        <path id="Trazado_1031979" data-name="Trazado 1031979" d="M23.036,34.018a1.018,1.018,0,0,0-2.036,0v1.018a1.018,1.018,0,0,0,2.036,0Z" transform="translate(-1.659 -1.444)" fill="#231f20"/>
        <path id="Trazado_1031980" data-name="Trazado 1031980" d="M26.018,36.054a1.018,1.018,0,0,0,1.018-1.018V34.018a1.018,1.018,0,0,0-2.036,0v1.018A1.018,1.018,0,0,0,26.018,36.054Z" transform="translate(-1.587 -1.444)" fill="#231f20"/>
        <path id="Trazado_1031981" data-name="Trazado 1031981" d="M21.036,38.018a1.018,1.018,0,0,0-2.036,0v1.018a1.018,1.018,0,0,0,2.036,0Z" transform="translate(-1.695 -1.372)" fill="#231f20"/>
        <path id="Trazado_1031982" data-name="Trazado 1031982" d="M24.018,40.054a1.018,1.018,0,0,0,1.018-1.018V38.018a1.018,1.018,0,1,0-2.036,0v1.018A1.018,1.018,0,0,0,24.018,40.054Z" transform="translate(-1.623 -1.372)" fill="#231f20"/>
        <path id="Trazado_1031983" data-name="Trazado 1031983" d="M41.036,30.018a1.018,1.018,0,1,0-2.036,0v1.018a1.018,1.018,0,1,0,2.036,0Z" transform="translate(-1.336 -1.516)" fill="#231f20"/>
        <path id="Trazado_1031984" data-name="Trazado 1031984" d="M31.018,7.036h2.036a1.018,1.018,0,1,0,0-2.036H31.018a1.018,1.018,0,1,0,0,2.036Z" transform="translate(-1.498 -1.946)" fill="#231f20"/>
      </g>
    </g>
  </g>
</svg>
