<svg xmlns="http://www.w3.org/2000/svg" xmlns:xlink="http://www.w3.org/1999/xlink" width="118" height="118" viewBox="0 0 118 118">
  <defs>
    <filter id="Trazado_896985" x="0" y="0" width="118" height="118" filterUnits="userSpaceOnUse">
      <feOffset dy="3" input="SourceAlpha"/>
      <feGaussianBlur stdDeviation="3" result="blur"/>
      <feFlood flood-opacity="0.161"/>
      <feComposite operator="in" in2="blur"/>
      <feComposite in="SourceGraphic"/>
    </filter>
  </defs>
  <g id="Grupo_1199937" data-name="Grupo 1199937" transform="translate(-1210.008 -8294.95)">
    <g id="Grupo_1198706" data-name="Grupo 1198706" transform="translate(-3.101 3966.476)">
      <g id="Grupo_1181849" data-name="Grupo 1181849" transform="translate(1222.109 4334.475)">
        <g id="Grupo_1111318" data-name="Grupo 1111318" transform="translate(0)">
          <g id="Grupo_1109826" data-name="Grupo 1109826" transform="translate(0 0)">
            <g id="Grupo_1098742" data-name="Grupo 1098742">
              <g transform="matrix(1, 0, 0, 1, -9, -6)" filter="url(#Trazado_896985)">
                <g id="Trazado_896985-2" data-name="Trazado 896985" transform="translate(9 6)" fill="#9ad354" opacity="0.859">
                  <path d="M 49.99993515014648 99.5 C 43.31726837158203 99.5 36.83476257324219 98.19129943847656 30.73248100280762 95.61025238037109 C 24.83812141418457 93.11714172363281 19.54434776306152 89.54795837402344 14.99820137023926 85.00179290771484 C 10.45204162597656 80.45565032958984 6.88285493850708 75.16187286376953 4.389748573303223 69.26751708984375 C 1.808695197105408 63.16523742675781 0.5000017881393433 56.6827278137207 0.5000017881393433 50.00006103515625 C 0.5000017881393433 43.31726455688477 1.808695197105408 36.83475494384766 4.389748573303223 30.73247528076172 C 6.88285493850708 24.83811569213867 10.45204162597656 19.54434204101562 14.99820137023926 14.99819660186768 C 19.54434776306152 10.45203590393066 24.83812141418457 6.88284969329834 30.73248100280762 4.389742851257324 C 36.83476257324219 1.808689475059509 43.31726837158203 0.4999961853027344 49.99993515014648 0.4999961853027344 C 56.68260192871094 0.4999961853027344 63.16510772705078 1.808689475059509 69.26738739013672 4.389742851257324 C 75.16175079345703 6.88284969329834 80.45552062988281 10.45203590393066 85.00167083740234 14.99819660186768 C 89.54782867431641 19.54434204101562 93.11701202392578 24.83811569213867 95.61012268066406 30.73247528076172 C 98.19117736816406 36.83475494384766 99.49987030029297 43.31726455688477 99.49987030029297 49.99993133544922 C 99.49987030029297 56.6827278137207 98.19117736816406 63.16523742675781 95.61012268066406 69.26751708984375 C 93.11701202392578 75.16187286376953 89.54782867431641 80.45565032958984 85.00167083740234 85.00179290771484 C 80.45552062988281 89.54795837402344 75.16175079345703 93.11714172363281 69.26738739013672 95.61025238037109 C 63.16510772705078 98.19129943847656 56.68260192871094 99.5 49.99993515014648 99.5 Z" stroke="none"/>
                  <path d="M 49.99993515014648 0.9999923706054688 C 43.38454818725586 0.9999923706054688 36.96757507324219 2.29541015625 30.92725372314453 4.850250244140625 C 25.09249877929688 7.318145751953125 19.85213470458984 10.85135650634766 15.35174560546875 15.35174560546875 C 10.85136413574219 19.85212707519531 7.318145751953125 25.09249114990234 4.850257873535156 30.92724609375 C 2.295417785644531 36.96757125854492 1 43.38454437255859 1 50.00006103515625 C 1 56.61544799804688 2.295417785644531 63.03242111206055 4.850257873535156 69.07273864746094 C 7.318145751953125 74.90750122070312 10.85136413574219 80.14786529541016 15.35174560546875 84.64824676513672 C 19.85213470458984 89.14863586425781 25.09249877929688 92.68184661865234 30.92725372314453 95.14974212646484 C 36.96757507324219 97.70458221435547 43.38454818725586 99 49.99993515014648 99 C 56.61532211303711 99 63.03229522705078 97.70458221435547 69.07261657714844 95.14974212646484 C 74.90737915039062 92.68184661865234 80.14773559570312 89.14863586425781 84.64812469482422 84.64824676513672 C 89.14850616455078 80.14786529541016 92.68172454833984 74.90750122070312 95.14961242675781 69.07273864746094 C 97.70445251464844 63.03242111206055 98.99987030029297 56.61544799804688 98.99987030029297 49.99993133544922 C 98.99987030029297 43.38454437255859 97.70445251464844 36.96757125854492 95.14961242675781 30.92724609375 C 92.68172454833984 25.09249114990234 89.14850616455078 19.85212707519531 84.64812469482422 15.35174560546875 C 80.14773559570312 10.85135650634766 74.90737915039062 7.318145751953125 69.07261657714844 4.850250244140625 C 63.03229522705078 2.29541015625 56.61532211303711 0.9999923706054688 49.99993515014648 0.9999923706054688 M 49.99993515014648 -7.62939453125e-06 C 77.6141357421875 -7.62939453125e-06 99.99987030029297 22.38572692871094 99.99987030029297 49.99993133544922 L 99.99987030029297 50.00006103515625 C 99.99987030029297 77.61426544189453 77.6141357421875 100 49.99993515014648 100 C 22.38573455810547 100 0 77.61426544189453 0 50.00006103515625 L 0 49.99993133544922 C 0 22.38572692871094 22.38573455810547 -7.62939453125e-06 49.99993515014648 -7.62939453125e-06 Z" stroke="none" fill="#fff"/>
                </g>
              </g>
              <g id="Rectángulo_400907" data-name="Rectángulo 400907" transform="translate(0)" fill="none" stroke="#fff" stroke-width="1">
                <rect width="100" height="100" rx="50" stroke="none"/>
                <rect x="0.5" y="0.5" width="99" height="99" rx="49.5" fill="none"/>
              </g>
            </g>
          </g>
        </g>
      </g>
    </g>
    <g id="campesino" transform="translate(1228.556 8317.318)">
      <g id="Grupo_1199935" data-name="Grupo 1199935" transform="translate(9.341 0.985)">
        <path id="Trazado_1031985" data-name="Trazado 1031985" d="M112.5,25.806H81.693l2.437-12.94A6.584,6.584,0,0,1,90.6,7.5h12.993a6.585,6.585,0,0,1,6.471,5.366Z" transform="translate(-73.044 -7.5)" fill="#99e6fc"/>
        <path id="Trazado_1031986" data-name="Trazado 1031986" d="M232.291,12.866A6.585,6.585,0,0,0,225.82,7.5H222.4a6.585,6.585,0,0,1,6.471,5.366l2.437,12.94h3.416Z" transform="translate(-195.269 -7.5)" fill="#62dbfb"/>
        <ellipse id="Elipse_12195" data-name="Elipse 12195" cx="23.236" cy="6.007" rx="23.236" ry="6.007" transform="translate(0.818 13.711)" fill="#766e6e"/>
        <ellipse id="Elipse_12196" data-name="Elipse 12196" cx="4.912" cy="3.139" rx="4.912" ry="3.139" transform="translate(1.022 36.643) rotate(-39.85)" fill="#8c8585"/>
        <ellipse id="Elipse_12197" data-name="Elipse 12197" cx="3.139" cy="4.912" rx="3.139" ry="4.912" transform="translate(35.215 35.16) rotate(-50.15)" fill="#9e9797"/>
        <path id="Trazado_1031987" data-name="Trazado 1031987" d="M307.978,252.143c-1.828-1.525-4.045-1.966-5.311-1.151a7.234,7.234,0,0,1,1.895,1.151c2.083,1.738,2.87,4.226,1.76,5.557a2.068,2.068,0,0,1-.471.414c1.567.637,3.1.53,3.887-.414C310.848,256.369,310.061,253.881,307.978,252.143Z" transform="translate(-264.988 -218.654)" fill="#8c8585"/>
        <path id="Trazado_1031988" data-name="Trazado 1031988" d="M105.121,97.666l-.689-3.838H75.368l-.689,3.838c-.517,3.716-.97,8.978-1.247,12.554a8.556,8.556,0,0,0,8.53,9.219H97.838a8.556,8.556,0,0,0,8.53-9.219C106.091,106.644,105.638,101.382,105.121,97.666Z" transform="translate(-65.846 -82.487)" fill="#9e9797"/>
        <path id="Trazado_1031989" data-name="Trazado 1031989" d="M167.93,280.759h8.151v6.87H167.93Z" transform="translate(-147.952 -244.86)" fill="#ffcebf"/>
        <path id="Trazado_1031990" data-name="Trazado 1031990" d="M203.975,280.759h3.416v6.87h-3.416Z" transform="translate(-179.261 -244.86)" fill="#ffb09e"/>
        <g id="Grupo_1199933" data-name="Grupo 1199933" transform="translate(48.281 23.587)">
          <g id="Grupo_1199931" data-name="Grupo 1199931">
            <path id="Trazado_1031991" data-name="Trazado 1031991" d="M383.7,187.828s.926-1.859,3.854.146,2.808,4.416,2.808,4.416-2.2.983-5.133-1.022S383.7,187.828,383.7,187.828Z" transform="translate(-383.363 -187.044)" fill="#a2e62e"/>
          </g>
          <g id="Grupo_1199932" data-name="Grupo 1199932" transform="translate(6.997)">
            <path id="Trazado_1031992" data-name="Trazado 1031992" d="M443.282,187.828s-.926-1.859-3.854.146-2.808,4.416-2.808,4.416,2.2.983,5.133-1.022S443.282,187.828,443.282,187.828Z" transform="translate(-436.62 -187.044)" fill="#80d261"/>
          </g>
        </g>
        <path id="Trazado_1031993" data-name="Trazado 1031993" d="M124.848,129.993H119.39A8.892,8.892,0,0,1,110.5,121.1V105.978h23.241V121.1A8.892,8.892,0,0,1,124.848,129.993Z" transform="translate(-98.065 -93.041)" fill="#ffdfcf"/>
        <path id="Trazado_1031994" data-name="Trazado 1031994" d="M227.889,105.98V121.1A8.891,8.891,0,0,1,219,130l-.11.021a8.891,8.891,0,0,0,5.586-8.257V105.98Z" transform="translate(-192.214 -93.042)" fill="#ffcebf"/>
        <path id="Trazado_1031995" data-name="Trazado 1031995" d="M123.183,355.576H108.836l-12.657-4.122v-18.4h27Z" transform="translate(-85.627 -290.283)" fill="#fef48b"/>
        <path id="Trazado_1031996" data-name="Trazado 1031996" d="M275.727,333.052h3.416v22.524h-3.416Z" transform="translate(-241.587 -290.283)" fill="#fef056"/>
        <path id="Trazado_1031997" data-name="Trazado 1031997" d="M37.685,333.049l1.466,15.245H28.838v-6.4a8.848,8.848,0,0,1,8.847-8.847Z" transform="translate(-27.133 -290.28)" fill="#fef48b"/>
        <path id="Trazado_1031998" data-name="Trazado 1031998" d="M304.351,350.436l-2.622-4.92V333.049a6.3,6.3,0,0,1,5.678,3.577l4.2,8.77Z" transform="translate(-264.173 -290.28)" fill="#fef48b"/>
        <path id="Trazado_1031999" data-name="Trazado 1031999" d="M303.99,336.626l5.078,10.533,2.539-1.763-4.2-8.77a6.3,6.3,0,0,0-5.678-3.577v1.009A6.292,6.292,0,0,1,303.99,336.626Z" transform="translate(-264.172 -290.281)" fill="#fef056"/>
        <path id="Trazado_1032000" data-name="Trazado 1032000" d="M37.686,449.085v5.528l-5.154,1.752H28.839v-7.28Z" transform="translate(-27.133 -391.072)" fill="#ffcebf"/>
        <path id="Trazado_1032001" data-name="Trazado 1032001" d="M155.884,316.736l2.3,3.278a.8.8,0,0,0,1.331-.036l2.024-3.241-4.076-2.468Z" transform="translate(-137.488 -273.967)" fill="#99e6fc"/>
        <path id="Trazado_1032002" data-name="Trazado 1032002" d="M204.612,316.736l-2.3,3.278a.8.8,0,0,1-1.331-.036l-2.024-3.241,4.076-2.468Z" transform="translate(-174.9 -273.967)" fill="#62dbfb"/>
        <path id="Trazado_1032003" data-name="Trazado 1032003" d="M97.077,114.872s11.936-.246,16.989-8.258c0,0,1.719,5.854,6.252,5.854l1.166-6.491H95.047Z" transform="translate(-84.643 -93.041)" fill="#9e9797"/>
        <path id="Trazado_1032004" data-name="Trazado 1032004" d="M330.528,430.217l-1,6.993h-4.889l-2.947-5.137,7.257-5.04Z" transform="translate(-281.508 -371.918)" fill="#ffcebf"/>
        <path id="Trazado_1032005" data-name="Trazado 1032005" d="M245.318,110.221c-.277-3.575-.73-8.838-1.247-12.554l-.689-3.838h-3.416l.689,3.838c.517,3.716.97,8.978,1.247,12.554a8.556,8.556,0,0,1-8.53,9.219h3.416a8.556,8.556,0,0,0,8.53-9.219Z" transform="translate(-204.796 -82.488)" fill="#8c8585"/>
        <path id="Trazado_1032006" data-name="Trazado 1032006" d="M360.96,435.543l.766-5.327-1.584-3.184-2.539,1.763Z" transform="translate(-312.707 -371.917)" fill="#ffb09e"/>
        <g id="Grupo_1199934" data-name="Grupo 1199934" transform="translate(0 10.072)">
          <path id="Trazado_1032007" data-name="Trazado 1032007" d="M63.736,89.85c0,.606-.589,3.962-.589,3.962,0-3.317-10.4-6.008-23.236-6.008s-23.236,2.69-23.236,6.008c0,0-.818-3.258-.818-3.819,0-3.317,10.319-5.827,24.054-5.827S63.736,86.533,63.736,89.85Z" transform="translate(-15.856 -84.166)" fill="#c8effe"/>
          <path id="Trazado_1032008" data-name="Trazado 1032008" d="M63.736,89.85c0,.606-.589,3.962-.589,3.962,0-3.317-10.4-6.008-23.236-6.008s-23.236,2.69-23.236,6.008c0,0-.818-3.258-.818-3.819,0-3.317,10.319-5.827,24.054-5.827S63.736,86.533,63.736,89.85Z" transform="translate(-15.856 -84.166)" fill="#c8effe"/>
          <path id="Trazado_1032009" data-name="Trazado 1032009" d="M63.736,89.85c0,.606-.589,3.962-.589,3.962,0-3.317-10.4-6.008-23.236-6.008s-23.236,2.69-23.236,6.008c0,0-.818-3.258-.818-3.819,0-3.317,10.319-5.827,24.054-5.827S63.736,86.533,63.736,89.85Z" transform="translate(-15.856 -84.166)" fill="#c8effe"/>
        </g>
        <path id="Trazado_1032010" data-name="Trazado 1032010" d="M380.447,351.642l2.269-15.806-1.846-2.976-.518-2.3a1.671,1.671,0,0,1,3.029-1.281l1.434,2.195,8.883-2.868a1.408,1.408,0,0,1,1.787,1.721l-.864,3.068a3.442,3.442,0,0,1-1.947,2.226l-3.642,1.814-.111,14.206Z" transform="translate(-332.432 -286.349)" fill="#ffdfcf"/>
        <path id="Trazado_1032011" data-name="Trazado 1032011" d="M429.88,330.046a1.4,1.4,0,0,1-.053.382l-.864,3.068a3.444,3.444,0,0,1-1.947,2.227l-3.642,1.814-.11,14.205h-3.417l.1-12.491a2.8,2.8,0,0,1,1.548-2.48l2.107-1.049a3.444,3.444,0,0,0,1.947-2.227l.864-3.068a1.409,1.409,0,0,0-.146-1.1c-.008-.013-.016-.025-.025-.038l1.8-.581a1.408,1.408,0,0,1,1.841,1.339Z" transform="translate(-366.773 -286.45)" fill="#ffcebf"/>
        <path id="Trazado_1032012" data-name="Trazado 1032012" d="M74.758,430.008H56.947V420.4a1.659,1.659,0,0,1,1.659-1.659H73.1a1.659,1.659,0,0,1,1.659,1.659v9.607Z" transform="translate(-51.549 -364.716)" fill="#fe646f"/>
        <path id="Trazado_1032013" data-name="Trazado 1032013" d="M157.308,418.741h-3.416a1.659,1.659,0,0,1,1.659,1.659v9.607h3.416V420.4A1.659,1.659,0,0,0,157.308,418.741Z" transform="translate(-135.758 -364.715)" fill="#fd4755"/>
        <path id="Trazado_1032014" data-name="Trazado 1032014" d="M102.067,390.654h-4.3a1.6,1.6,0,0,0-1.6,1.6v2.088h7.507v-2.088A1.6,1.6,0,0,0,102.067,390.654Z" transform="translate(-85.611 -340.318)" fill="#9e9797"/>
        <path id="Trazado_1032015" data-name="Trazado 1032015" d="M399,272.843h-6.438a1.135,1.135,0,0,1-1.114-.922l-1.823-9.574A1.134,1.134,0,0,1,390.74,261h10.083a1.134,1.134,0,0,1,1.114,1.347l-1.823,9.574A1.135,1.135,0,0,1,399,272.843Z" transform="translate(-340.504 -227.697)" fill="#c59191"/>
        <path id="Trazado_1032016" data-name="Trazado 1032016" d="M440.358,261h-3.416a1.134,1.134,0,0,1,1.114,1.347l-1.823,9.574a1.134,1.134,0,0,1-1.114.922h3.416a1.135,1.135,0,0,0,1.114-.922l1.823-9.574A1.134,1.134,0,0,0,440.358,261Z" transform="translate(-380.039 -227.697)" fill="#b98080"/>
      </g>
      <g id="Grupo_1199936" data-name="Grupo 1199936" transform="translate(8.356 0)">
        <path id="Trazado_1032017" data-name="Trazado 1032017" d="M192.439,186.093a.985.985,0,0,0,.985-.985v-2.9a.985.985,0,0,0-1.971,0v2.9A.985.985,0,0,0,192.439,186.093Z" transform="translate(-167.4 -157.416)"/>
        <path id="Trazado_1032018" data-name="Trazado 1032018" d="M179.877,233.52a.985.985,0,0,0-1.3-.491,4.317,4.317,0,0,1-3.874.058.985.985,0,0,0-1.038,1.675,5.7,5.7,0,0,0,2.847.71,6.928,6.928,0,0,0,2.879-.648A.985.985,0,0,0,179.877,233.52Z" transform="translate(-151.542 -202.339)"/>
        <path id="Trazado_1032019" data-name="Trazado 1032019" d="M73.1,43.357a2.38,2.38,0,0,0-2.577-1.11l1.224-6.428A2.12,2.12,0,0,0,69.66,33.3h-.427a.985.985,0,0,0,0,1.971h.427a.149.149,0,0,1,.146.177l-1.823,9.574a.149.149,0,0,1-.146.121H61.4a.149.149,0,0,1-.146-.121L59.43,35.451a.149.149,0,0,1,.147-.177h5.043a.985.985,0,0,0,.985-.985V31.124c2.08.421,6.8-1.928,6.978-4.481a2.725,2.725,0,0,0-2.03-2.964,4.586,4.586,0,0,0-3.682,1.011,8.107,8.107,0,0,0-2.252,2.244,8.107,8.107,0,0,0-2.252-2.244,4.586,4.586,0,0,0-3.681-1.011,2.734,2.734,0,0,0-2.03,2.964,4.586,4.586,0,0,0,2.274,3.067,7.46,7.46,0,0,0,4.242,1.432c.164,0,.318-.007.463-.019V33.3H59.577a2.12,2.12,0,0,0-2.082,2.516l1.211,6.362a2.705,2.705,0,0,0-2.4,3.233l.518,2.3a.988.988,0,0,0,.124.3L58.6,50.687l-.765,5.328L53.464,46.9A7.32,7.32,0,0,0,46.9,42.768H39.592L38.457,41V38.923c2.347.035,5.209.14,7.342-1.1,1.544,2.887,6.351,5.652,9.049,2.844a3.7,3.7,0,0,0,.5-3.554,7.514,7.514,0,0,0-2.385-3.39,8.077,8.077,0,0,0-2.536-1.451,9.544,9.544,0,0,0,.419-3.626c-.069-.889-.147-1.864-.234-2.883,4.568-1.255,6.921-2.918,7-4.949.153-.875.593-3.443.593-4.069,0-2.763-4.209-4.525-9.926-5.54l-.948-5.034A7.578,7.578,0,0,0,39.892,0H26.9A7.574,7.574,0,0,0,19.46,6.168L18.5,11.24c-.887.161-1.729.337-2.519.529-5.063,1.228-7.63,2.949-7.63,5.115a31.429,31.429,0,0,0,.824,3.965c.108,2.014,2.46,3.664,7,4.911-.086,1.019-.165,1.994-.234,2.883a9.545,9.545,0,0,0,.389,3.531,7.988,7.988,0,0,0-2.841,1.545c-2.538,2.119-3.366,5.168-1.885,6.944,2.639,2.811,7.507.113,9.128-2.988,2.158,1.383,5.211,1.291,7.6,1.249V41L27.2,42.769H19.893A9.835,9.835,0,0,0,10.061,52.6V66.278a.985.985,0,0,0,1.971,0V59.984h1.722v6.294a.985.985,0,0,0,1.971,0V56.67A.674.674,0,0,1,16.4,56H30.891a.674.674,0,0,1,.674.674v9.607a.985.985,0,0,0,1.971,0V56.67a2.647,2.647,0,0,0-2.644-2.644H28.384v-1.1A2.59,2.59,0,0,0,25.8,50.336h-4.3a2.581,2.581,0,0,0-.614.077V48.361a.985.985,0,0,0-1.971,0l0,5.665H16.4a2.647,2.647,0,0,0-2.644,2.644v1.343H12.032V52.6a7.864,7.864,0,0,1,7.862-7.861h7.332l2.01,2.859a1.851,1.851,0,0,0,3.175-.406v4.244a.985.985,0,0,0,1.971,0V47.193a1.853,1.853,0,0,0,3.175.406l2.01-2.859h6.346V66.278a.985.985,0,1,0,1.971,0V60.164l3.729,6.6a.985.985,0,1,0,1.709-.98l-2.5-4.354L56.4,57.56l.94,1.888-.962,6.69a.985.985,0,1,0,1.951.28L60.6,50.612a.986.986,0,0,0-.138-.659L58.7,47.117l-.481-2.137c.041-.389.065-.915.861-.807l.232,1.22A2.122,2.122,0,0,0,61.4,47.116h6.438a2.122,2.122,0,0,0,2.082-1.723l.181-.951.81-.262a.423.423,0,0,1,.536.516l-.864,3.068a2.449,2.449,0,0,1-1.39,1.59l-.048.022L65.5,51.191a.985.985,0,0,0-.546.874l-.11,14.205a.985.985,0,0,0,.978.993h.008a.985.985,0,0,0,.985-.978l.106-13.6L70,51.151A4.411,4.411,0,0,0,72.48,48.3l.865-3.068a2.56,2.56,0,0,0-.249-1.874ZM67.984,26.316c1.137-.778,1.766-.8,2.039-.738.305.156.489.113.6.837-.033.28-.262.869-1.429,1.669a5.322,5.322,0,0,1-3.471,1.079A5.34,5.34,0,0,1,67.984,26.316Zm-7.942,1.768c-1.137-.778-1.381-1.358-1.425-1.635.025-.343-.031-.558.6-.871.274-.059.9-.041,2.039.738a5.318,5.318,0,0,1,2.261,2.848,5.32,5.32,0,0,1-3.472-1.079ZM21.493,52.307h4.3a.617.617,0,0,1,.616.616v1.1H20.879V52.9a.616.616,0,0,1,.614-.6Zm-.606-16.89a7.693,7.693,0,0,1-2.977-6.622c.268-3.46.679-8.22,1.148-11.811a73.155,73.155,0,0,1,14.338-1.3c1.09,0,2.171.021,3.238.06-5.2,5.792-14.738,6.086-14.88,6.09a.994.994,0,0,0-.965,1.006v6.208a9.866,9.866,0,0,0,3.917,7.87,7.491,7.491,0,0,1-3.82-1.5Zm25.8-.682a7.755,7.755,0,0,1-4.6,2.181A9.866,9.866,0,0,0,46,29.046V20.413a.986.986,0,0,0-.986-.986A4.6,4.6,0,0,1,41.4,17.471a9.441,9.441,0,0,1-.977-1.5,61.477,61.477,0,0,1,7.306,1.017c.469,3.591.88,8.351,1.148,11.811a7.563,7.563,0,0,1-2.195,5.94ZM22.76,29.046v-5.3a30.348,30.348,0,0,0,5.757-1.067,19.839,19.839,0,0,0,10-6.108,11.63,11.63,0,0,0,1.348,2.138,6.8,6.8,0,0,0,4.162,2.608v7.731a7.915,7.915,0,0,1-7.906,7.907H30.667a7.916,7.916,0,0,1-7.906-7.907ZM51.7,35.231A5.61,5.61,0,0,1,53.47,37.7a1.862,1.862,0,0,1-.135,1.7c-1.973,1.519-5.039-1.022-5.893-2.689a9.911,9.911,0,0,0,2.195-2.627A6.076,6.076,0,0,1,51.7,35.231Zm-1.263-11.47c-.194-2.138-.416-4.35-.657-6.3,2.128.615,5.38,1.554,5.866,3.242,0,.608-1.137,1.883-5.209,3.056ZM21.4,6.533a5.6,5.6,0,0,1,5.5-4.562H39.892a5.6,5.6,0,0,1,5.5,4.562l.818,4.343a95.617,95.617,0,0,0-12.818-.8,91.7,91.7,0,0,0-12.822.833Zm-9.725,8.888c1.717-1.054,5.242-1.94,7.864-2.362A86.036,86.036,0,0,1,33.4,12.042a77.312,77.312,0,0,1,16.836,1.571c5.835,1.385,6,2.953,6,3.127,0,.153-.066.649-.164,1.294a16.868,16.868,0,0,0-6-2.534A69.689,69.689,0,0,0,33.4,13.71,69.691,69.691,0,0,0,16.718,15.5a16.256,16.256,0,0,0-6.15,2.655c-.357-1.436-.446-1.727,1.1-2.736ZM11.145,20.7c.652-1.848,3.658-2.537,5.866-3.239-.241,1.947-.463,4.159-.657,6.3-4.077-1.174-5.209-2.451-5.209-3.058Zm6.37,17.834c-1.776,1.482-3.741,1.644-4.394.862s-.141-2.686,1.635-4.168A5.824,5.824,0,0,1,17.112,34a9.886,9.886,0,0,0,2,2.5A5.9,5.9,0,0,1,17.515,38.537Zm13.171,7.7-1.761-2.506.707-1.1,2.4,1.453ZM33.4,42.6,30.3,40.731V38.923h6.181v1.808Zm2.71,3.632L34.76,44.08l2.4-1.453.707,1.1ZM49.867,59.7l-1.985-3.724V44.832a5.345,5.345,0,0,1,3.8,2.923l3.838,8.014Z" transform="translate(-8.356 0)"/>
      </g>
    </g>
  </g>
</svg>
