<svg xmlns="http://www.w3.org/2000/svg" xmlns:xlink="http://www.w3.org/1999/xlink" width="118" height="118" viewBox="0 0 118 118">
  <defs>
    <filter id="Trazado_874925" x="0" y="0" width="118" height="118" filterUnits="userSpaceOnUse">
      <feOffset dy="3" input="SourceAlpha"/>
      <feGaussianBlur stdDeviation="3" result="blur"/>
      <feFlood flood-opacity="0.161"/>
      <feComposite operator="in" in2="blur"/>
      <feComposite in="SourceGraphic"/>
    </filter>
  </defs>
  <g id="Grupo_1200758" data-name="Grupo 1200758" transform="translate(-7262.928 9309.062)">
    <g id="Grupo_1198903" data-name="Grupo 1198903" transform="translate(6463.428 -11820.219)">
      <g id="Grupo_1111316" data-name="Grupo 1111316" transform="translate(808.5 2517.157)">
        <g id="Grupo_1109835" data-name="Grupo 1109835" transform="translate(0 0)">
          <g id="Grupo_1107913" data-name="Grupo 1107913" transform="translate(0 0)">
            <g transform="matrix(1, 0, 0, 1, -9, -6)" filter="url(#Trazado_874925)">
              <g id="Trazado_874925-2" data-name="Trazado 874925" transform="translate(9 6)" fill="#9ad354" opacity="0.859">
                <path d="M 49.99972534179688 98.4998779296875 C 43.45164108276367 98.4998779296875 37.10022354125977 97.21776580810547 31.12189674377441 94.68914794921875 C 25.34676742553711 92.24647521972656 20.15985298156738 88.74925994873047 15.70523929595947 84.29464721679688 C 11.25062561035156 79.84004974365234 7.753411293029785 74.65313720703125 5.310725212097168 68.87800598144531 C 2.782111167907715 62.89969253540039 1.499996781349182 56.54829406738281 1.499996781349182 50.00022125244141 C 1.499996781349182 43.45157623291016 2.782111167907715 37.10017776489258 5.310725212097168 31.12186431884766 C 7.753411293029785 25.34673500061035 11.25062561035156 20.15983581542969 15.70523929595947 15.70522117614746 C 20.15985298156738 11.25062084197998 25.34676742553711 7.753406524658203 31.12189674377441 5.31073522567749 C 37.10022354125977 2.782120943069458 43.45164108276367 1.500006556510925 49.99972534179688 1.500006556510925 C 56.54780960083008 1.500006556510925 62.89922714233398 2.782120943069458 68.87755584716797 5.31073522567749 C 74.65267944335938 7.753406524658203 79.839599609375 11.25062084197998 84.29421234130859 15.70522117614746 C 88.74882507324219 20.15983581542969 92.24604034423828 25.34673500061035 94.68872833251953 31.12186431884766 C 97.21733856201172 37.10017776489258 98.49945068359375 43.45157623291016 98.49945068359375 49.99964904785156 C 98.49945068359375 56.54829406738281 97.21733856201172 62.89969253540039 94.68872833251953 68.87800598144531 C 92.24604034423828 74.65313720703125 88.74882507324219 79.84004974365234 84.29421234130859 84.29464721679688 C 79.839599609375 88.74925994873047 74.65267944335938 92.24647521972656 68.87755584716797 94.68914794921875 C 62.89922714233398 97.21776580810547 56.54780960083008 98.4998779296875 49.99972534179688 98.4998779296875 Z" stroke="none"/>
                <path d="M 49.99972534179688 3 C 43.65348052978516 3 37.49866485595703 4.242240905761719 31.70623016357422 6.692230224609375 C 26.10989379882812 9.059272766113281 21.08323669433594 12.44853210449219 16.76589202880859 16.76587677001953 C 12.44855499267578 21.08321380615234 9.059295654296875 26.10985565185547 6.692230224609375 31.70618438720703 C 4.24224853515625 37.49859619140625 3 43.65341186523438 3 50.00022888183594 C 3 56.34645843505859 4.24224853515625 62.50127410888672 6.692230224609375 68.29368591308594 C 9.059295654296875 73.8900146484375 12.44855499267578 78.91665649414062 16.76589202880859 83.23399353027344 C 21.08323669433594 87.55132293701172 26.10989379882812 90.94059753417969 31.70623016357422 93.30764007568359 C 37.49866485595703 95.75762939453125 43.65348052978516 96.99987030029297 49.99972534179688 96.99987030029297 C 56.34597015380859 96.99987030029297 62.50078582763672 95.75762939453125 68.293212890625 93.30764007568359 C 73.88955688476562 90.94059753417969 78.91621398925781 87.55132293701172 83.23355865478516 83.23399353027344 C 87.55089569091797 78.91665649414062 90.94015502929688 73.8900146484375 93.30722045898438 68.29368591308594 C 95.7572021484375 62.50127410888672 96.99945068359375 56.34645843505859 96.99945068359375 49.99964141845703 C 96.99945068359375 43.65341186523438 95.7572021484375 37.49859619140625 93.30722045898438 31.70618438720703 C 90.94015502929688 26.10985565185547 87.55089569091797 21.08321380615234 83.23355865478516 16.76587677001953 C 78.91621398925781 12.44853210449219 73.88955688476562 9.059272766113281 68.293212890625 6.692230224609375 C 62.50078582763672 4.242240905761719 56.34597015380859 3 49.99972534179688 3 M 49.99972534179688 0 C 77.61381530761719 0 99.99945068359375 22.38559722900391 99.99945068359375 49.99964141845703 L 99.99945068359375 50.00022888183594 C 99.99945068359375 77.6142578125 77.61381530761719 99.99987030029297 49.99972534179688 99.99987030029297 C 22.38563537597656 99.99987030029297 0 77.6142578125 0 50.00022888183594 L 0 49.99964141845703 C 0 22.38559722900391 22.38563537597656 0 49.99972534179688 0 Z" stroke="none" fill="#fff"/>
              </g>
            </g>
            <g id="Trazado_874923" data-name="Trazado 874923" transform="translate(0 0)" fill="none">
              <path d="M50,0a50,50,0,0,1,50,50h0A50,50,0,0,1,0,50H0A50,50,0,0,1,50,0Z" stroke="none"/>
              <path d="M 49.99972534179688 3 C 43.65348052978516 3 37.49866485595703 4.242240905761719 31.70623016357422 6.692230224609375 C 26.10989379882812 9.059272766113281 21.08323669433594 12.44853210449219 16.76589202880859 16.76587677001953 C 12.44855499267578 21.08321380615234 9.059295654296875 26.10985565185547 6.692230224609375 31.70618438720703 C 4.24224853515625 37.49859619140625 3 43.65341186523438 3 50.00022888183594 C 3 56.34645843505859 4.24224853515625 62.50127410888672 6.692230224609375 68.29368591308594 C 9.059295654296875 73.8900146484375 12.44855499267578 78.91665649414062 16.76589202880859 83.23399353027344 C 21.08323669433594 87.55132293701172 26.10989379882812 90.94059753417969 31.70623016357422 93.30764007568359 C 37.49866485595703 95.75762939453125 43.65348052978516 96.99987030029297 49.99972534179688 96.99987030029297 C 56.34597015380859 96.99987030029297 62.50078582763672 95.75762939453125 68.293212890625 93.30764007568359 C 73.88955688476562 90.94059753417969 78.91621398925781 87.55132293701172 83.23355865478516 83.23399353027344 C 87.55089569091797 78.91665649414062 90.94015502929688 73.8900146484375 93.30722045898438 68.29368591308594 C 95.7572021484375 62.50127410888672 96.99945068359375 56.34645843505859 96.99945068359375 49.99964141845703 C 96.99945068359375 43.65341186523438 95.7572021484375 37.49859619140625 93.30722045898438 31.70618438720703 C 90.94015502929688 26.10985565185547 87.55089569091797 21.08321380615234 83.23355865478516 16.76587677001953 C 78.91621398925781 12.44853210449219 73.88955688476562 9.059272766113281 68.293212890625 6.692230224609375 C 62.50078582763672 4.242240905761719 56.34597015380859 3 49.99972534179688 3 M 49.99972534179688 0 C 77.61381530761719 0 99.99945068359375 22.38559722900391 99.99945068359375 49.99964141845703 L 99.99945068359375 50.00022888183594 C 99.99945068359375 77.6142578125 77.61381530761719 99.99987030029297 49.99972534179688 99.99987030029297 C 22.38563537597656 99.99987030029297 0 77.6142578125 0 50.00022888183594 L 0 49.99964141845703 C 0 22.38559722900391 22.38563537597656 0 49.99972534179688 0 Z" stroke="none" fill="#fff"/>
            </g>
          </g>
        </g>
      </g>
    </g>
    <g id="ley-civil" transform="translate(7286.962 -9313.676)">
      <g id="Grupo_1200757" data-name="Grupo 1200757" transform="translate(1.016 27.43)">
        <g id="Grupo_1200728" data-name="Grupo 1200728" transform="translate(9.949 0)">
          <g id="Grupo_1200719" data-name="Grupo 1200719" transform="translate(20.321)">
            <path id="Trazado_1037185" data-name="Trazado 1037185" d="M234.386,33.914a3.386,3.386,0,0,0-1.594,6.373h3.189a3.386,3.386,0,0,0-1.594-6.373Z" transform="translate(-231 -33.914)" fill="#ffd15b"/>
          </g>
          <g id="Grupo_1200720" data-name="Grupo 1200720" transform="translate(22.353)">
            <path id="Trazado_1037186" data-name="Trazado 1037186" d="M247.354,33.914A3.375,3.375,0,0,0,246,34.2a3.386,3.386,0,0,1,.24,6.09h2.709a3.386,3.386,0,0,0-1.594-6.373Z" transform="translate(-246 -33.914)" fill="#ffc344"/>
          </g>
          <g id="Grupo_1200721" data-name="Grupo 1200721" transform="translate(21.634 6.238)">
            <path id="Trazado_1037187" data-name="Trazado 1037187" d="M242.765,104.862a8.825,8.825,0,0,1,2.073.248V79.97h-4.147v25.14A8.823,8.823,0,0,1,242.765,104.862Z" transform="translate(-240.692 -79.97)" fill="#d8aa5e"/>
          </g>
          <g id="Grupo_1200723" data-name="Grupo 1200723" transform="translate(23.842 6.238)">
            <g id="Grupo_1200722" data-name="Grupo 1200722">
              <path id="Trazado_1037188" data-name="Trazado 1037188" d="M257,79.97v24.894a8.83,8.83,0,0,1,1.938.246V79.97Z" transform="translate(-257 -79.97)" fill="#c99c56"/>
            </g>
          </g>
          <g id="Grupo_1200724" data-name="Grupo 1200724" transform="translate(0 20.873)">
            <path id="Trazado_1037189" data-name="Trazado 1037189" d="M81.635,188.032a.679.679,0,0,0-.676.735,8.767,8.767,0,0,0,17.473,0,.679.679,0,0,0-.676-.735Z" transform="translate(-80.957 -188.032)" fill="#d8aa5e"/>
          </g>
          <g id="Grupo_1200725" data-name="Grupo 1200725" transform="translate(6.639 20.873)">
            <path id="Trazado_1037190" data-name="Trazado 1037190" d="M140.137,188.032h-4.2a.679.679,0,0,1,.676.735,8.773,8.773,0,0,1-6.637,7.779,8.774,8.774,0,0,0,10.836-7.779A.679.679,0,0,0,140.137,188.032Z" transform="translate(-129.977 -188.032)" fill="#c99c56"/>
          </g>
          <g id="Grupo_1200726" data-name="Grupo 1200726" transform="translate(29.936 20.873)">
            <path id="Trazado_1037191" data-name="Trazado 1037191" d="M302.672,188.032a.679.679,0,0,0-.676.735,8.767,8.767,0,0,0,17.473,0,.679.679,0,0,0-.676-.735Z" transform="translate(-301.994 -188.032)" fill="#d8aa5e"/>
          </g>
          <g id="Grupo_1200727" data-name="Grupo 1200727" transform="translate(36.573 20.873)">
            <path id="Trazado_1037192" data-name="Trazado 1037192" d="M361.159,188.032h-4.2a.679.679,0,0,1,.676.735A8.773,8.773,0,0,1,351,196.545a8.774,8.774,0,0,0,10.839-7.778A.679.679,0,0,0,361.159,188.032Z" transform="translate(-350.996 -188.032)" fill="#c99c56"/>
          </g>
        </g>
        <g id="Grupo_1200756" data-name="Grupo 1200756" transform="translate(0 30.994)">
          <g id="Grupo_1200737" data-name="Grupo 1200737" transform="translate(22.437)">
            <g id="Grupo_1200729" data-name="Grupo 1200729" transform="translate(2.243)">
              <path id="Trazado_1037193" data-name="Trazado 1037193" d="M190.17,279.481l4.343-1.626a5.694,5.694,0,0,0,3.778,1.826c.138.01.278.015.416.015a5.7,5.7,0,0,0,4.056-1.68q.077-.077.15-.156l4.331,1.621a3.845,3.845,0,0,1,.438.2v-7.943a8.975,8.975,0,1,0-17.95,0v7.942a3.862,3.862,0,0,1,.438-.2Z" transform="translate(-189.732 -262.763)" fill="#554e56"/>
            </g>
            <g id="Grupo_1200731" data-name="Grupo 1200731" transform="translate(9.101 0)">
              <g id="Grupo_1200730" data-name="Grupo 1200730">
                <path id="Trazado_1037194" data-name="Trazado 1037194" d="M242.484,262.764a8.994,8.994,0,0,0-2.117.254,8.977,8.977,0,0,1,6.857,8.721v6.322l3.8,1.421a3.842,3.842,0,0,1,.438.2v-7.943A8.975,8.975,0,0,0,242.484,262.764Z" transform="translate(-240.367 -262.764)" fill="#433f43"/>
              </g>
            </g>
            <g id="Grupo_1200732" data-name="Grupo 1200732" transform="translate(0 14.917)">
              <path id="Trazado_1037195" data-name="Trazado 1037195" d="M192.975,374.567l-4.426-1.657c-.069.077-.14.153-.213.226a5.549,5.549,0,0,1-3.95,1.636h0c-.134,0-.271,0-.405-.014a5.583,5.583,0,0,1-3.746-1.852l-4.437,1.661a4.049,4.049,0,0,0-2.629,3.792v8.792H195.6v-8.792A4.049,4.049,0,0,0,192.975,374.567Z" transform="translate(-173.167 -372.906)" fill="#528fd8"/>
            </g>
            <g id="Grupo_1200734" data-name="Grupo 1200734" transform="translate(12.09 14.921)">
              <g id="Grupo_1200733" data-name="Grupo 1200733">
                <path id="Trazado_1037196" data-name="Trazado 1037196" d="M270.154,374.595l-4.426-1.657c-.069.077-.14.152-.213.226a5.545,5.545,0,0,1-3.078,1.568l3.5,1.309a4.049,4.049,0,0,1,2.629,3.792v7.346h4.221v-8.792A4.049,4.049,0,0,0,270.154,374.595Z" transform="translate(-262.437 -372.938)" fill="#0573ce"/>
              </g>
            </g>
            <g id="Grupo_1200735" data-name="Grupo 1200735" transform="translate(5.482 8.881)">
              <path id="Trazado_1037197" data-name="Trazado 1037197" d="M213.857,329.114a5.736,5.736,0,1,0,11.055.009,1.079,1.079,0,0,0-1.041-.788h-8.977a1.074,1.074,0,0,0-1.038.779Z" transform="translate(-213.647 -328.335)" fill="#c96e59"/>
            </g>
            <g id="Grupo_1200736" data-name="Grupo 1200736" transform="translate(9.434 8.881)">
              <path id="Trazado_1037198" data-name="Trazado 1037198" d="M250.139,329.123a1.079,1.079,0,0,0-1.041-.788h-3.569a1.079,1.079,0,0,1,1.041.788,5.737,5.737,0,0,1-3.744,6.98,5.642,5.642,0,0,0,1.368.27,5.737,5.737,0,0,0,5.945-7.25Z" transform="translate(-242.826 -328.335)" fill="#bb5d4c"/>
            </g>
          </g>
          <g id="Grupo_1200746" data-name="Grupo 1200746" transform="translate(44.874 2.026)">
            <g id="Grupo_1200745" data-name="Grupo 1200745">
              <g id="Grupo_1200738" data-name="Grupo 1200738" transform="translate(0 12.751)">
                <path id="Trazado_1037199" data-name="Trazado 1037199" d="M358.642,373.671l-4.812-1.8a6.848,6.848,0,0,1-7.554,0l-4.812,1.8a4.049,4.049,0,0,0-2.629,3.792v8.792h21.082a1.354,1.354,0,0,0,1.354-1.354v-7.438A4.049,4.049,0,0,0,358.642,373.671Z" transform="translate(-338.834 -371.87)" fill="#0ed2b3"/>
              </g>
              <g id="Grupo_1200740" data-name="Grupo 1200740" transform="translate(10.112 12.751)">
                <g id="Grupo_1200739" data-name="Grupo 1200739">
                  <path id="Trazado_1037200" data-name="Trazado 1037200" d="M423.2,373.671l-4.812-1.8a6.843,6.843,0,0,1-4.883,1.046l5.429,2.2a4.049,4.049,0,0,1,2.629,3.792v7.346h2.912a1.354,1.354,0,0,0,1.354-1.354v-7.438A4.049,4.049,0,0,0,423.2,373.671Z" transform="translate(-413.5 -371.87)" fill="#0ab69f"/>
                </g>
              </g>
              <g id="Grupo_1200741" data-name="Grupo 1200741" transform="translate(4.2 0)">
                <circle id="Elipse_12261" data-name="Elipse 12261" cx="7.018" cy="7.018" r="7.018" fill="#ffcebf"/>
              </g>
              <g id="Grupo_1200742" data-name="Grupo 1200742" transform="translate(9.086)">
                <path id="Trazado_1037201" data-name="Trazado 1037201" d="M408.056,277.721a7.011,7.011,0,0,0-2.132.331,7.019,7.019,0,0,1,0,13.375,7.018,7.018,0,1,0,2.132-13.705Z" transform="translate(-405.924 -277.721)" fill="#ffb09e"/>
              </g>
              <g id="Grupo_1200743" data-name="Grupo 1200743" transform="translate(4.291 0)">
                <path id="Trazado_1037202" data-name="Trazado 1037202" d="M377.443,277.721a7.019,7.019,0,0,0-6.928,5.9H376.9a.748.748,0,0,0,.576-.271l1.161-1.4a.449.449,0,0,1,.691,0l1.161,1.4a.748.748,0,0,0,.576.271h3.3A7.02,7.02,0,0,0,377.443,277.721Z" transform="translate(-370.515 -277.721)" fill="#a44f3e"/>
              </g>
              <g id="Grupo_1200744" data-name="Grupo 1200744" transform="translate(9.086)">
                <path id="Trazado_1037203" data-name="Trazado 1037203" d="M408.056,277.721a7.011,7.011,0,0,0-2.132.331,7.035,7.035,0,0,1,4.546,4.528l.635.767a.748.748,0,0,0,.576.271h3.3A7.019,7.019,0,0,0,408.056,277.721Z" transform="translate(-405.924 -277.721)" fill="#883f2e"/>
              </g>
            </g>
          </g>
          <g id="Grupo_1200755" data-name="Grupo 1200755" transform="translate(0 2.026)">
            <g id="Grupo_1200754" data-name="Grupo 1200754">
              <g id="Grupo_1200747" data-name="Grupo 1200747" transform="translate(0 12.751)">
                <path id="Trazado_1037204" data-name="Trazado 1037204" d="M27.308,373.671l-4.812-1.8a6.848,6.848,0,0,1-7.554,0l-4.812,1.8A4.049,4.049,0,0,0,7.5,377.463V384.9a1.354,1.354,0,0,0,1.354,1.354H29.937v-8.792a4.049,4.049,0,0,0-2.629-3.792Z" transform="translate(-7.5 -371.87)" fill="#fe7d43"/>
              </g>
              <g id="Grupo_1200749" data-name="Grupo 1200749" transform="translate(10.112 12.751)">
                <g id="Grupo_1200748" data-name="Grupo 1200748">
                  <path id="Trazado_1037205" data-name="Trazado 1037205" d="M91.862,373.671l-4.812-1.8a6.843,6.843,0,0,1-4.883,1.046l5.429,2.2a4.049,4.049,0,0,1,2.629,3.792v7.346h4.266v-8.792A4.049,4.049,0,0,0,91.862,373.671Z" transform="translate(-82.167 -371.87)" fill="#fd6930"/>
                </g>
              </g>
              <g id="Grupo_1200750" data-name="Grupo 1200750" transform="translate(4.2 0)">
                <circle id="Elipse_12262" data-name="Elipse 12262" cx="7.018" cy="7.018" r="7.018" fill="#ffcebf"/>
              </g>
              <g id="Grupo_1200751" data-name="Grupo 1200751" transform="translate(9.109 0)">
                <path id="Trazado_1037206" data-name="Trazado 1037206" d="M76.867,277.721a7.013,7.013,0,0,0-2.11.323,7.02,7.02,0,0,1,0,13.39,7.019,7.019,0,1,0,2.11-13.713Z" transform="translate(-74.757 -277.721)" fill="#ffb09e"/>
              </g>
              <g id="Grupo_1200752" data-name="Grupo 1200752" transform="translate(4.213)">
                <path id="Trazado_1037207" data-name="Trazado 1037207" d="M38.6,284.334a7.016,7.016,0,0,0,10.519-5.671A7.016,7.016,0,0,0,38.6,284.334Z" transform="translate(-38.605 -277.72)" fill="#d8aa5e"/>
              </g>
              <g id="Grupo_1200753" data-name="Grupo 1200753" transform="translate(9.109 0)">
                <path id="Trazado_1037208" data-name="Trazado 1037208" d="M76.867,277.721a7.013,7.013,0,0,0-2.11.323,7.037,7.037,0,0,1,4.43,4.146,6.979,6.979,0,0,0,1.192-3.525A6.982,6.982,0,0,0,76.867,277.721Z" transform="translate(-74.757 -277.721)" fill="#c99c56"/>
              </g>
            </g>
          </g>
        </g>
      </g>
      <path id="Trazado_1037209" data-name="Trazado 1037209" d="M66.053,74.051,63.01,72.911a8.034,8.034,0,1,0-11.8,0l-3.043,1.139a5.058,5.058,0,0,0-2.273,1.709,5.093,5.093,0,0,0-1.228-1.17V67.4a10.007,10.007,0,0,0-6.9-9.5V37.391H47.895l-5.618,9.9h-.7a1.695,1.695,0,0,0-1.688,1.834,9.783,9.783,0,0,0,19.5,0A1.695,1.695,0,0,0,57.7,47.287H57l-5.618-9.9h2.654a1.016,1.016,0,1,0,0-2.032H37.76v-.676h.465a1.016,1.016,0,0,0,.4-1.947,4.4,4.4,0,1,0-7.919,0,1.016,1.016,0,0,0,.4,1.947h.465v.676H15.3a1.016,1.016,0,1,0,0,2.032h2.654l-5.618,9.9h-.7a1.695,1.695,0,0,0-1.688,1.834,9.783,9.783,0,0,0,19.5,0,1.695,1.695,0,0,0-1.688-1.834h-.7l-5.618-9.9H31.582v3.833a1.016,1.016,0,0,0,2.032,0V34.819h2.115V57.465a9.93,9.93,0,0,0-2.115,0v-11.5a1.016,1.016,0,0,0-2.032,0V57.9a10.007,10.007,0,0,0-6.9,9.5V74.59a5.093,5.093,0,0,0-1.228,1.17,5.056,5.056,0,0,0-2.273-1.709l-3.043-1.139a8.031,8.031,0,0,0-9.6-12.577,1.016,1.016,0,1,0,.936,1.8,5.99,5.99,0,0,1,5.186-.158,5.994,5.994,0,0,1-8.346,4.5,5.942,5.942,0,0,1,.4-1.367,1.016,1.016,0,0,0-1.868-.8,8.026,8.026,0,0,0,1.486,8.6L3.289,74.05A5.088,5.088,0,0,0,0,78.794v7.438A2.373,2.373,0,0,0,2.37,88.6H57.695a1.016,1.016,0,1,0,0-2.032H46.905V78.794a3.047,3.047,0,0,1,1.97-2.841l4.168-1.56a8.008,8.008,0,0,0,8.13,0l4.168,1.56a3.047,3.047,0,0,1,1.97,2.841v7.438a.339.339,0,0,1-.339.339H62.435a1.016,1.016,0,1,0,0,2.032h4.537a2.373,2.373,0,0,0,2.37-2.37V78.794A5.088,5.088,0,0,0,66.053,74.051ZM54.9,53.995a7.752,7.752,0,0,1-12.947-4.676h15.37A7.723,7.723,0,0,1,54.9,53.995ZM44.612,47.287l5.027-8.854,5.027,8.854ZM24.965,53.995a7.752,7.752,0,0,1-12.947-4.676h15.37A7.723,7.723,0,0,1,24.965,53.995ZM14.676,47.287,19.7,38.432l5.027,8.854ZM34.671,28.446a2.369,2.369,0,0,1,1.5,4.206H33.174a2.369,2.369,0,0,1,1.5-4.206Zm0,30.994A7.968,7.968,0,0,1,42.63,67.4v6.283l-2.065-.773a6.742,6.742,0,0,0,.614-5.087,2.1,2.1,0,0,0-2.02-1.532H30.182a2.1,2.1,0,0,0-2.016,1.522,6.756,6.756,0,0,0-.215,2.473,6.615,6.615,0,0,0,.832,2.622l-2.071.775V67.4a7.968,7.968,0,0,1,7.959-7.959Zm-4.7,10.649a4.738,4.738,0,0,1,.15-1.733h0a.062.062,0,0,1,.059-.036h8.977a.063.063,0,0,1,.062.043,4.721,4.721,0,1,1-9.248,1.726ZM16.461,63.211A6,6,0,1,1,6.351,68.658a8.029,8.029,0,0,0,10.111-5.447ZM2.031,86.231V78.794A3.047,3.047,0,0,1,4,75.953l4.168-1.56a8.008,8.008,0,0,0,8.13,0l4.168,1.56a3.047,3.047,0,0,1,1.97,2.841V86.57H2.37A.339.339,0,0,1,2.031,86.231Zm22.437-7.438a3.047,3.047,0,0,1,1.97-2.841l3.672-1.375a6.718,6.718,0,0,0,4.073,1.777q.249.017.495.017a6.683,6.683,0,0,0,4.569-1.789L42.9,75.953a3.047,3.047,0,0,1,1.97,2.841V86.57H24.468Zm32.64-17.329a6.011,6.011,0,0,1,5.607,3.864H60.859l-1.081-1.3a1.464,1.464,0,0,0-2.255,0l-1.081,1.3H51.5A6.011,6.011,0,0,1,57.108,61.465Zm-6,6c0-.036,0-.071,0-.106h5.459a1.758,1.758,0,0,0,1.358-.638l.725-.875.725.874a1.758,1.758,0,0,0,1.358.638h2.375c0,.035,0,.071,0,.106a6,6,0,0,1-12,0Z"/>
    </g>
  </g>
</svg>
