<svg xmlns="http://www.w3.org/2000/svg" xmlns:xlink="http://www.w3.org/1999/xlink" width="118" height="118" viewBox="0 0 118 118">
  <defs>
    <filter id="Trazado_874925" x="0" y="0" width="118" height="118" filterUnits="userSpaceOnUse">
      <feOffset dy="3" input="SourceAlpha"/>
      <feGaussianBlur stdDeviation="3" result="blur"/>
      <feFlood flood-opacity="0.161"/>
      <feComposite operator="in" in2="blur"/>
      <feComposite in="SourceGraphic"/>
    </filter>
  </defs>
  <g id="Grupo_1200759" data-name="Grupo 1200759" transform="translate(-6939 8928.062)">
    <g id="Grupo_1198904" data-name="Grupo 1198904" transform="translate(6139.5 -11439.219)">
      <g id="Grupo_1111316" data-name="Grupo 1111316" transform="translate(808.5 2517.157)">
        <g id="Grupo_1109835" data-name="Grupo 1109835" transform="translate(0 0)">
          <g id="Grupo_1107913" data-name="Grupo 1107913" transform="translate(0 0)">
            <g transform="matrix(1, 0, 0, 1, -9, -6)" filter="url(#Trazado_874925)">
              <g id="Trazado_874925-2" data-name="Trazado 874925" transform="translate(9 6)" fill="#9ad354" opacity="0.859">
                <path d="M 49.99972534179688 98.4998779296875 C 43.45164108276367 98.4998779296875 37.10022354125977 97.21776580810547 31.12189674377441 94.68914794921875 C 25.34676742553711 92.24647521972656 20.15985298156738 88.74925994873047 15.70523929595947 84.29464721679688 C 11.25062561035156 79.84004974365234 7.753411293029785 74.65313720703125 5.310725212097168 68.87800598144531 C 2.782111167907715 62.89969253540039 1.499996781349182 56.54829406738281 1.499996781349182 50.00022125244141 C 1.499996781349182 43.45157623291016 2.782111167907715 37.10017776489258 5.310725212097168 31.12186431884766 C 7.753411293029785 25.34673500061035 11.25062561035156 20.15983581542969 15.70523929595947 15.70522117614746 C 20.15985298156738 11.25062084197998 25.34676742553711 7.753406524658203 31.12189674377441 5.31073522567749 C 37.10022354125977 2.782120943069458 43.45164108276367 1.500006556510925 49.99972534179688 1.500006556510925 C 56.54780960083008 1.500006556510925 62.89922714233398 2.782120943069458 68.87755584716797 5.31073522567749 C 74.65267944335938 7.753406524658203 79.839599609375 11.25062084197998 84.29421234130859 15.70522117614746 C 88.74882507324219 20.15983581542969 92.24604034423828 25.34673500061035 94.68872833251953 31.12186431884766 C 97.21733856201172 37.10017776489258 98.49945068359375 43.45157623291016 98.49945068359375 49.99964904785156 C 98.49945068359375 56.54829406738281 97.21733856201172 62.89969253540039 94.68872833251953 68.87800598144531 C 92.24604034423828 74.65313720703125 88.74882507324219 79.84004974365234 84.29421234130859 84.29464721679688 C 79.839599609375 88.74925994873047 74.65267944335938 92.24647521972656 68.87755584716797 94.68914794921875 C 62.89922714233398 97.21776580810547 56.54780960083008 98.4998779296875 49.99972534179688 98.4998779296875 Z" stroke="none"/>
                <path d="M 49.99972534179688 3 C 43.65348052978516 3 37.49866485595703 4.242240905761719 31.70623016357422 6.692230224609375 C 26.10989379882812 9.059272766113281 21.08323669433594 12.44853210449219 16.76589202880859 16.76587677001953 C 12.44855499267578 21.08321380615234 9.059295654296875 26.10985565185547 6.692230224609375 31.70618438720703 C 4.24224853515625 37.49859619140625 3 43.65341186523438 3 50.00022888183594 C 3 56.34645843505859 4.24224853515625 62.50127410888672 6.692230224609375 68.29368591308594 C 9.059295654296875 73.8900146484375 12.44855499267578 78.91665649414062 16.76589202880859 83.23399353027344 C 21.08323669433594 87.55132293701172 26.10989379882812 90.94059753417969 31.70623016357422 93.30764007568359 C 37.49866485595703 95.75762939453125 43.65348052978516 96.99987030029297 49.99972534179688 96.99987030029297 C 56.34597015380859 96.99987030029297 62.50078582763672 95.75762939453125 68.293212890625 93.30764007568359 C 73.88955688476562 90.94059753417969 78.91621398925781 87.55132293701172 83.23355865478516 83.23399353027344 C 87.55089569091797 78.91665649414062 90.94015502929688 73.8900146484375 93.30722045898438 68.29368591308594 C 95.7572021484375 62.50127410888672 96.99945068359375 56.34645843505859 96.99945068359375 49.99964141845703 C 96.99945068359375 43.65341186523438 95.7572021484375 37.49859619140625 93.30722045898438 31.70618438720703 C 90.94015502929688 26.10985565185547 87.55089569091797 21.08321380615234 83.23355865478516 16.76587677001953 C 78.91621398925781 12.44853210449219 73.88955688476562 9.059272766113281 68.293212890625 6.692230224609375 C 62.50078582763672 4.242240905761719 56.34597015380859 3 49.99972534179688 3 M 49.99972534179688 0 C 77.61381530761719 0 99.99945068359375 22.38559722900391 99.99945068359375 49.99964141845703 L 99.99945068359375 50.00022888183594 C 99.99945068359375 77.6142578125 77.61381530761719 99.99987030029297 49.99972534179688 99.99987030029297 C 22.38563537597656 99.99987030029297 0 77.6142578125 0 50.00022888183594 L 0 49.99964141845703 C 0 22.38559722900391 22.38563537597656 0 49.99972534179688 0 Z" stroke="none" fill="#fff"/>
              </g>
            </g>
            <g id="Trazado_874923" data-name="Trazado 874923" transform="translate(0 0)" fill="none">
              <path d="M50,0a50,50,0,0,1,50,50h0A50,50,0,0,1,0,50H0A50,50,0,0,1,50,0Z" stroke="none"/>
              <path d="M 49.99972534179688 3 C 43.65348052978516 3 37.49866485595703 4.242240905761719 31.70623016357422 6.692230224609375 C 26.10989379882812 9.059272766113281 21.08323669433594 12.44853210449219 16.76589202880859 16.76587677001953 C 12.44855499267578 21.08321380615234 9.059295654296875 26.10985565185547 6.692230224609375 31.70618438720703 C 4.24224853515625 37.49859619140625 3 43.65341186523438 3 50.00022888183594 C 3 56.34645843505859 4.24224853515625 62.50127410888672 6.692230224609375 68.29368591308594 C 9.059295654296875 73.8900146484375 12.44855499267578 78.91665649414062 16.76589202880859 83.23399353027344 C 21.08323669433594 87.55132293701172 26.10989379882812 90.94059753417969 31.70623016357422 93.30764007568359 C 37.49866485595703 95.75762939453125 43.65348052978516 96.99987030029297 49.99972534179688 96.99987030029297 C 56.34597015380859 96.99987030029297 62.50078582763672 95.75762939453125 68.293212890625 93.30764007568359 C 73.88955688476562 90.94059753417969 78.91621398925781 87.55132293701172 83.23355865478516 83.23399353027344 C 87.55089569091797 78.91665649414062 90.94015502929688 73.8900146484375 93.30722045898438 68.29368591308594 C 95.7572021484375 62.50127410888672 96.99945068359375 56.34645843505859 96.99945068359375 49.99964141845703 C 96.99945068359375 43.65341186523438 95.7572021484375 37.49859619140625 93.30722045898438 31.70618438720703 C 90.94015502929688 26.10985565185547 87.55089569091797 21.08321380615234 83.23355865478516 16.76587677001953 C 78.91621398925781 12.44853210449219 73.88955688476562 9.059272766113281 68.293212890625 6.692230224609375 C 62.50078582763672 4.242240905761719 56.34597015380859 3 49.99972534179688 3 M 49.99972534179688 0 C 77.61381530761719 0 99.99945068359375 22.38559722900391 99.99945068359375 49.99964141845703 L 99.99945068359375 50.00022888183594 C 99.99945068359375 77.6142578125 77.61381530761719 99.99987030029297 49.99972534179688 99.99987030029297 C 22.38563537597656 99.99987030029297 0 77.6142578125 0 50.00022888183594 L 0 49.99964141845703 C 0 22.38559722900391 22.38563537597656 0 49.99972534179688 0 Z" stroke="none" fill="#fff"/>
            </g>
          </g>
        </g>
      </g>
    </g>
    <g id="Fill_out_line" data-name="Fill out line" transform="translate(6951.883 -8918.147)">
      <path id="Trazado_1037210" data-name="Trazado 1037210" d="M368.524,32.023a2.507,2.507,0,0,0,2.507-2.507v-1.5A4.011,4.011,0,0,0,367.02,24H360v8.023Z" transform="translate(-300.877 -6.997)" fill="#f0bca1"/>
      <path id="Trazado_1037211" data-name="Trazado 1037211" d="M120.092,82.166H88V28.011A4.011,4.011,0,0,1,92.011,24h36.1a4.011,4.011,0,0,0-4.011,4.011V78.154A4.011,4.011,0,0,1,120.092,82.166Z" transform="translate(-62.974 -6.997)" fill="#ffd9b5"/>
      <path id="Trazado_1037212" data-name="Trazado 1037212" d="M290.507,424a2.507,2.507,0,0,1,2.507,2.507v1.5H288V424Z" transform="translate(-237.903 -356.854)" fill="#f5c9aa"/>
      <path id="Trazado_1037213" data-name="Trazado 1037213" d="M57.094,429.516a2.507,2.507,0,0,0,2.507,2.507H26.507A2.507,2.507,0,0,1,24,429.516v-3.009A2.507,2.507,0,0,1,26.507,424H59.6a2.507,2.507,0,0,0-2.507,2.507Z" transform="translate(-6.997 -356.854)" fill="#ffe3cd"/>
      <path id="Trazado_1037214" data-name="Trazado 1037214" d="M376,56h4.011v1.5a2.507,2.507,0,0,0,2.507,2.507H376Z" transform="translate(-314.871 -34.986)" fill="#f5c9aa"/>
      <path id="Trazado_1037215" data-name="Trazado 1037215" d="M219.009,104l1,13.037H216L217,104Z" transform="translate(-174.928 -76.969)" fill="#ba8b5d"/>
      <path id="Trazado_1037216" data-name="Trazado 1037216" d="M132.011,150.017A4.016,4.016,0,0,1,128,146.006v-1a1,1,0,0,1,1-1h6.017a1,1,0,0,1,1,1v1A4.016,4.016,0,0,1,132.011,150.017Z" transform="translate(-97.96 -111.954)" fill="#fab53f"/>
      <path id="Trazado_1037217" data-name="Trazado 1037217" d="M276.011,150.017A4.016,4.016,0,0,1,272,146.006v-1a1,1,0,0,1,1-1h6.017a1,1,0,0,1,1,1v1A4.016,4.016,0,0,1,276.011,150.017Z" transform="translate(-223.908 -111.954)" fill="#fab53f"/>
      <rect id="Rectángulo_408867" data-name="Rectángulo 408867" width="10.844" height="3.615" rx="1.807" transform="translate(37.688 40.098)" fill="#9f764a"/>
      <path id="Trazado_1037218" data-name="Trazado 1037218" d="M160.069,62.412a2.006,2.006,0,0,0-2.006-2.006h-1a5.673,5.673,0,0,0-8.023,0h-2.006a5.673,5.673,0,0,0-8.023,0h-1a2.006,2.006,0,0,0,0,4.011h1a5.673,5.673,0,0,1,8.023,0h2.006a5.673,5.673,0,0,1,8.023,0h1A2.006,2.006,0,0,0,160.069,62.412Z" transform="translate(-104.957 -37.387)" fill="#9f764a"/>
      <path id="Trazado_1037219" data-name="Trazado 1037219" d="M388.875,121.072l1.446-1.2a20.918,20.918,0,0,0,6.453-9.455h0a23.128,23.128,0,0,0,.5-12.923L396.9,96h0a23.127,23.127,0,0,0-11.243,12.383h0a10.016,10.016,0,0,0,.855,8.9Z" transform="translate(-322.732 -69.972)" fill="#529ddf"/>
      <path id="Trazado_1037220" data-name="Trazado 1037220" d="M363.125,348.057h-13.01a2.006,2.006,0,0,1-1.954-2.457l1.7-7.382.38-1.643a2.005,2.005,0,0,1,1.954-1.554h.41v-3.009a2.006,2.006,0,1,1,0-4.011h8.023a2.006,2.006,0,0,1,0,4.011v3.009h.41A2.005,2.005,0,0,1,363,336.574l.78,3.377,1.3,5.649a2.006,2.006,0,0,1-1.954,2.457Z" transform="translate(-290.478 -272.888)" fill="#d4e4f0"/>
      <path id="Trazado_1037221" data-name="Trazado 1037221" d="M363.125,418.029h-13.01a2.006,2.006,0,0,1-1.954-2.457l1.7-7.382c1.5.5,1.913,1.816,4.08,1.816,2.675,0,2.675-2.006,5.349-2.006,2.349,0,2.635,1.547,4.482,1.923l1.3,5.649a2.006,2.006,0,0,1-1.954,2.457Z" transform="translate(-290.478 -342.86)" fill="#68737f"/>
      <path id="Trazado_1037222" data-name="Trazado 1037222" d="M82.006,21.014a3.012,3.012,0,0,1,3.009-3.009h32.094a4.989,4.989,0,0,0-1.005,3.009V33.049h2.006V21.014a3.012,3.012,0,0,1,3.009-3.009h1a3.012,3.012,0,0,1,3.009,3.009v1.5a1.5,1.5,0,1,1-3.009,0v-1.5a1,1,0,0,0-1-1h-2.006v2.006h1v.5a3.49,3.49,0,0,0,.339,1.5h-1.342v2.006h4.513a3.514,3.514,0,0,0,3.51-3.51v-1.5A5.02,5.02,0,0,0,122.12,16H85.014A5.02,5.02,0,0,0,80,21.014V65.14h2.006Z" transform="translate(-55.977)"/>
      <path id="Trazado_1037223" data-name="Trazado 1037223" d="M52.6,416H19.51A3.514,3.514,0,0,0,16,419.51v3.009a3.514,3.514,0,0,0,3.51,3.51h33.6a1,1,0,1,0,0-2.006h-.5a1.506,1.506,0,0,1-1.5-1.5V419.51a1.5,1.5,0,1,1,3.009,0v.5H52.1v2.006h3.009a1,1,0,0,0,1-1v-1.5A3.514,3.514,0,0,0,52.6,416Zm-3.171,8.023H19.51a1.506,1.506,0,0,1-1.5-1.5V419.51a1.506,1.506,0,0,1,1.5-1.5H49.433a3.49,3.49,0,0,0-.339,1.5v3.009A3.49,3.49,0,0,0,49.433,424.023Z" transform="translate(0 -349.857)"/>
      <path id="Trazado_1037224" data-name="Trazado 1037224" d="M356.979,126.435a2.993,2.993,0,0,0-2.339-2.274v-1.233a3.009,3.009,0,0,0-1-5.845h-3.009v-1.71c0-.279,0-.558.01-.837l1.075-.9a21.9,21.9,0,0,0,6.763-9.908,24.092,24.092,0,0,0,.518-13.483l-.372-1.489a1,1,0,0,0-1.421-.654,24.077,24.077,0,0,0-11.73,12.92,11.074,11.074,0,0,0,.94,9.8l2.226,3.562c-.008.33-.013.66-.013.99v1.71h-3.009a3.009,3.009,0,0,0-1,5.845v1.233a2.993,2.993,0,0,0-2.339,2.274l-2.083,9.026a3.009,3.009,0,0,0,2.932,3.685H356.13a3.009,3.009,0,0,0,2.932-3.685Zm-8.868-16.677a9.058,9.058,0,0,1-.769-8.012,22.07,22.07,0,0,1,9.646-11.252l.06.241a22.089,22.089,0,0,1-.475,12.362,19.9,19.9,0,0,1-5.777,8.684,38.956,38.956,0,0,1,4.72-15.272l-1.753-.974a40.964,40.964,0,0,0-4.9,15.427Zm-2.907,16.35h.41a1,1,0,0,0,1-1V122.1a1,1,0,0,0-1-1,1,1,0,1,1,0-2.006h8.023a1,1,0,1,1,0,2.006h-5.014V123.1h4.011v1h-4.011v2.006h5.424a1,1,0,0,1,.977.777l.284,1.23a4.729,4.729,0,0,0-3.009-1,4.922,4.922,0,0,0-3.275,1.2,3.08,3.08,0,0,1-4.146,0,8.536,8.536,0,0,0-.847-.579l.2-.85A1,1,0,0,1,345.2,126.109Zm11.711,10.653a1,1,0,0,1-.785.379H343.121a1,1,0,0,1-.977-1.228l1.4-6.086.126.094a5.062,5.062,0,0,0,6.553,0,3.079,3.079,0,0,1,4.145,0,5.9,5.9,0,0,0,1.564.918l1.171,5.074a1,1,0,0,1-.192.85Z" transform="translate(-283.483 -62.974)"/>
      <path id="Trazado_1037225" data-name="Trazado 1037225" d="M128,62.04a4.011,4.011,0,1,0,8.023,0v-1a1,1,0,0,0-.107-.448h0l-2.66-5.321a4.672,4.672,0,0,1,5.74.163L138.1,67.054h-.074a3.009,3.009,0,0,0,0,6.017h6.017a3.009,3.009,0,1,0,0-6.017h-.074l-.894-11.624a4.672,4.672,0,0,1,5.74-.163l-2.66,5.321h0a1,1,0,0,0-.107.448v1a4.011,4.011,0,1,0,8.023,0v-1a1,1,0,0,0-.107-.448h0l-2.312-4.624a3.009,3.009,0,0,0-.591-5.959h-.607a6.687,6.687,0,0,0-8.419-.321V48h-2.006v1.685a6.687,6.687,0,0,0-8.419.321h-.607a3.009,3.009,0,0,0-.59,5.959L128.1,60.589h0a1,1,0,0,0-.107.448Zm4.011,2.006A2.008,2.008,0,0,1,130,62.04h4.011a2.008,2.008,0,0,1-2.006,2.006Zm1.386-4.011h-2.772l1.386-2.772Zm11.651,10.029a1,1,0,0,1-1,1h-6.017a1,1,0,0,1,0-2.006h6.017A1,1,0,0,1,145.047,70.063Zm-4.934-3.009.849-11.031h.148l.849,11.031Zm11.334-7.02h-2.772l1.386-2.772Zm-1.386,4.011a2.008,2.008,0,0,1-2.006-2.006h4.011A2.008,2.008,0,0,1,150.062,64.046ZM130,53.014a1,1,0,0,1,1-1h1a1,1,0,0,0,.709-.294,4.67,4.67,0,0,1,6.6,0,1,1,0,0,0,.709.294h2.006a1,1,0,0,0,.709-.294,4.67,4.67,0,0,1,6.6,0,1,1,0,0,0,.709.294h1a1,1,0,0,1,0,2.006h-.607a6.686,6.686,0,0,0-8.815,0h-1.213a6.686,6.686,0,0,0-8.815,0h-.607a1,1,0,0,1-1-1Z" transform="translate(-97.959 -27.989)"/>
      <path id="Trazado_1037226" data-name="Trazado 1037226" d="M112,256h6.017v2.006H112Z" transform="translate(-83.966 -209.914)"/>
      <path id="Trazado_1037227" data-name="Trazado 1037227" d="M112,288h8.023v2.006H112Z" transform="translate(-83.966 -237.903)"/>
      <path id="Trazado_1037228" data-name="Trazado 1037228" d="M192,288h8.023v2.006H192Z" transform="translate(-153.937 -237.903)"/>
      <path id="Trazado_1037229" data-name="Trazado 1037229" d="M272,288h10.029v2.006H272Z" transform="translate(-223.908 -237.903)"/>
      <path id="Trazado_1037230" data-name="Trazado 1037230" d="M112,320h4.011v2.006H112Z" transform="translate(-83.966 -265.891)"/>
      <path id="Trazado_1037231" data-name="Trazado 1037231" d="M160,320h10.029v2.006H160Z" transform="translate(-125.949 -265.891)"/>
      <path id="Trazado_1037232" data-name="Trazado 1037232" d="M256,320h12.034v2.006H256Z" transform="translate(-209.914 -265.891)"/>
      <path id="Trazado_1037233" data-name="Trazado 1037233" d="M112,384h4.011v2.006H112Z" transform="translate(-83.966 -321.868)"/>
      <path id="Trazado_1037234" data-name="Trazado 1037234" d="M160,384h10.029v2.006H160Z" transform="translate(-125.949 -321.868)"/>
      <path id="Trazado_1037235" data-name="Trazado 1037235" d="M256,384h10.029v2.006H256Z" transform="translate(-209.914 -321.868)"/>
      <path id="Trazado_1037236" data-name="Trazado 1037236" d="M112,352h11.031v2.006H112Z" transform="translate(-83.966 -293.88)"/>
    </g>
  </g>
</svg>
