<svg xmlns="http://www.w3.org/2000/svg" xmlns:xlink="http://www.w3.org/1999/xlink" width="118" height="118" viewBox="0 0 118 118">
  <defs>
    <filter id="Trazado_874925" x="0" y="0" width="118" height="118" filterUnits="userSpaceOnUse">
      <feOffset dy="3" input="SourceAlpha"/>
      <feGaussianBlur stdDeviation="3" result="blur"/>
      <feFlood flood-opacity="0.161"/>
      <feComposite operator="in" in2="blur"/>
      <feComposite in="SourceGraphic"/>
    </filter>
  </defs>
  <g id="Grupo_1200762" data-name="Grupo 1200762" transform="translate(-6939 8549.062)">
    <g id="Grupo_1198906" data-name="Grupo 1198906" transform="translate(6139.5 -11060.219)">
      <g id="Grupo_1111316" data-name="Grupo 1111316" transform="translate(808.5 2517.157)">
        <g id="Grupo_1109835" data-name="Grupo 1109835" transform="translate(0 0)">
          <g id="Grupo_1107913" data-name="Grupo 1107913" transform="translate(0 0)">
            <g transform="matrix(1, 0, 0, 1, -9, -6)" filter="url(#Trazado_874925)">
              <g id="Trazado_874925-2" data-name="Trazado 874925" transform="translate(9 6)" fill="#9ad354" opacity="0.859">
                <path d="M 49.99972534179688 98.4998779296875 C 43.45164108276367 98.4998779296875 37.10022354125977 97.21776580810547 31.12189674377441 94.68914794921875 C 25.34676742553711 92.24647521972656 20.15985298156738 88.74925994873047 15.70523929595947 84.29464721679688 C 11.25062561035156 79.84004974365234 7.753411293029785 74.65313720703125 5.310725212097168 68.87800598144531 C 2.782111167907715 62.89969253540039 1.499996781349182 56.54829406738281 1.499996781349182 50.00022125244141 C 1.499996781349182 43.45157623291016 2.782111167907715 37.10017776489258 5.310725212097168 31.12186431884766 C 7.753411293029785 25.34673500061035 11.25062561035156 20.15983581542969 15.70523929595947 15.70522117614746 C 20.15985298156738 11.25062084197998 25.34676742553711 7.753406524658203 31.12189674377441 5.31073522567749 C 37.10022354125977 2.782120943069458 43.45164108276367 1.500006556510925 49.99972534179688 1.500006556510925 C 56.54780960083008 1.500006556510925 62.89922714233398 2.782120943069458 68.87755584716797 5.31073522567749 C 74.65267944335938 7.753406524658203 79.839599609375 11.25062084197998 84.29421234130859 15.70522117614746 C 88.74882507324219 20.15983581542969 92.24604034423828 25.34673500061035 94.68872833251953 31.12186431884766 C 97.21733856201172 37.10017776489258 98.49945068359375 43.45157623291016 98.49945068359375 49.99964904785156 C 98.49945068359375 56.54829406738281 97.21733856201172 62.89969253540039 94.68872833251953 68.87800598144531 C 92.24604034423828 74.65313720703125 88.74882507324219 79.84004974365234 84.29421234130859 84.29464721679688 C 79.839599609375 88.74925994873047 74.65267944335938 92.24647521972656 68.87755584716797 94.68914794921875 C 62.89922714233398 97.21776580810547 56.54780960083008 98.4998779296875 49.99972534179688 98.4998779296875 Z" stroke="none"/>
                <path d="M 49.99972534179688 3 C 43.65348052978516 3 37.49866485595703 4.242240905761719 31.70623016357422 6.692230224609375 C 26.10989379882812 9.059272766113281 21.08323669433594 12.44853210449219 16.76589202880859 16.76587677001953 C 12.44855499267578 21.08321380615234 9.059295654296875 26.10985565185547 6.692230224609375 31.70618438720703 C 4.24224853515625 37.49859619140625 3 43.65341186523438 3 50.00022888183594 C 3 56.34645843505859 4.24224853515625 62.50127410888672 6.692230224609375 68.29368591308594 C 9.059295654296875 73.8900146484375 12.44855499267578 78.91665649414062 16.76589202880859 83.23399353027344 C 21.08323669433594 87.55132293701172 26.10989379882812 90.94059753417969 31.70623016357422 93.30764007568359 C 37.49866485595703 95.75762939453125 43.65348052978516 96.99987030029297 49.99972534179688 96.99987030029297 C 56.34597015380859 96.99987030029297 62.50078582763672 95.75762939453125 68.293212890625 93.30764007568359 C 73.88955688476562 90.94059753417969 78.91621398925781 87.55132293701172 83.23355865478516 83.23399353027344 C 87.55089569091797 78.91665649414062 90.94015502929688 73.8900146484375 93.30722045898438 68.29368591308594 C 95.7572021484375 62.50127410888672 96.99945068359375 56.34645843505859 96.99945068359375 49.99964141845703 C 96.99945068359375 43.65341186523438 95.7572021484375 37.49859619140625 93.30722045898438 31.70618438720703 C 90.94015502929688 26.10985565185547 87.55089569091797 21.08321380615234 83.23355865478516 16.76587677001953 C 78.91621398925781 12.44853210449219 73.88955688476562 9.059272766113281 68.293212890625 6.692230224609375 C 62.50078582763672 4.242240905761719 56.34597015380859 3 49.99972534179688 3 M 49.99972534179688 0 C 77.61381530761719 0 99.99945068359375 22.38559722900391 99.99945068359375 49.99964141845703 L 99.99945068359375 50.00022888183594 C 99.99945068359375 77.6142578125 77.61381530761719 99.99987030029297 49.99972534179688 99.99987030029297 C 22.38563537597656 99.99987030029297 0 77.6142578125 0 50.00022888183594 L 0 49.99964141845703 C 0 22.38559722900391 22.38563537597656 0 49.99972534179688 0 Z" stroke="none" fill="#fff"/>
              </g>
            </g>
            <g id="Trazado_874923" data-name="Trazado 874923" transform="translate(0 0)" fill="none">
              <path d="M50,0a50,50,0,0,1,50,50h0A50,50,0,0,1,0,50H0A50,50,0,0,1,50,0Z" stroke="none"/>
              <path d="M 49.99972534179688 3 C 43.65348052978516 3 37.49866485595703 4.242240905761719 31.70623016357422 6.692230224609375 C 26.10989379882812 9.059272766113281 21.08323669433594 12.44853210449219 16.76589202880859 16.76587677001953 C 12.44855499267578 21.08321380615234 9.059295654296875 26.10985565185547 6.692230224609375 31.70618438720703 C 4.24224853515625 37.49859619140625 3 43.65341186523438 3 50.00022888183594 C 3 56.34645843505859 4.24224853515625 62.50127410888672 6.692230224609375 68.29368591308594 C 9.059295654296875 73.8900146484375 12.44855499267578 78.91665649414062 16.76589202880859 83.23399353027344 C 21.08323669433594 87.55132293701172 26.10989379882812 90.94059753417969 31.70623016357422 93.30764007568359 C 37.49866485595703 95.75762939453125 43.65348052978516 96.99987030029297 49.99972534179688 96.99987030029297 C 56.34597015380859 96.99987030029297 62.50078582763672 95.75762939453125 68.293212890625 93.30764007568359 C 73.88955688476562 90.94059753417969 78.91621398925781 87.55132293701172 83.23355865478516 83.23399353027344 C 87.55089569091797 78.91665649414062 90.94015502929688 73.8900146484375 93.30722045898438 68.29368591308594 C 95.7572021484375 62.50127410888672 96.99945068359375 56.34645843505859 96.99945068359375 49.99964141845703 C 96.99945068359375 43.65341186523438 95.7572021484375 37.49859619140625 93.30722045898438 31.70618438720703 C 90.94015502929688 26.10985565185547 87.55089569091797 21.08321380615234 83.23355865478516 16.76587677001953 C 78.91621398925781 12.44853210449219 73.88955688476562 9.059272766113281 68.293212890625 6.692230224609375 C 62.50078582763672 4.242240905761719 56.34597015380859 3 49.99972534179688 3 M 49.99972534179688 0 C 77.61381530761719 0 99.99945068359375 22.38559722900391 99.99945068359375 49.99964141845703 L 99.99945068359375 50.00022888183594 C 99.99945068359375 77.6142578125 77.61381530761719 99.99987030029297 49.99972534179688 99.99987030029297 C 22.38563537597656 99.99987030029297 0 77.6142578125 0 50.00022888183594 L 0 49.99964141845703 C 0 22.38559722900391 22.38563537597656 0 49.99972534179688 0 Z" stroke="none" fill="#fff"/>
            </g>
          </g>
        </g>
      </g>
    </g>
    <g id="Filled_outline" data-name="Filled outline" transform="translate(6967 -8522)">
      <path id="Trazado_1037237" data-name="Trazado 1037237" d="M6.794,53H58.018v7.589H6.794a3.794,3.794,0,1,1,0-7.589Z" transform="translate(-0.051 -2.622)" fill="#f4f4e6"/>
      <path id="Trazado_1037238" data-name="Trazado 1037238" d="M21.589,58.692l-3.794-1.9L14,58.692V53h7.589Z" transform="translate(-0.617 -2.622)" fill="#dd3e46"/>
      <path id="Trazado_1037239" data-name="Trazado 1037239" d="M3,54.224a3.794,3.794,0,0,1,3.794-3.794H58.018V3H8.692A5.692,5.692,0,0,0,3,8.692Z" transform="translate(-0.051 -0.051)" fill="#66342e"/>
      <path id="Trazado_1037240" data-name="Trazado 1037240" d="M3,54.224a3.794,3.794,0,0,1,3.794-3.794h1.9V3A5.692,5.692,0,0,0,3,8.692Z" transform="translate(-0.051 -0.051)" fill="#995f5b"/>
      <path id="Trazado_1037241" data-name="Trazado 1037241" d="M31,7h7.589v7.589H31Z" transform="translate(-1.491 -0.257)" fill="#f9bb4b"/>
      <g id="Grupo_1200761" data-name="Grupo 1200761" transform="translate(12.434 7.692)">
        <path id="Trazado_1037242" data-name="Trazado 1037242" d="M30.075,8c-9.486,0-2.846,2.846-13.28,2.846H14.876A1.877,1.877,0,0,0,13,12.722,1.9,1.9,0,0,0,14.94,14.6c14.186,0,8.495-2.8,15.135-2.8Z" transform="translate(-13 -8)" fill="#d3843d"/>
        <path id="Trazado_1037243" data-name="Trazado 1037243" d="M13,24c0,1.572,2.873,4.743,7.589,4.743S28.177,25.572,28.177,24Z" transform="translate(-13 -8.823)" fill="#d3843d"/>
        <path id="Trazado_1037244" data-name="Trazado 1037244" d="M39,8c9.486,0,2.846,2.846,13.28,2.846H54.2a1.877,1.877,0,0,1,1.876,1.876,1.9,1.9,0,0,1-1.94,1.876c-14.186,0-8.495-2.8-15.135-2.8Z" transform="translate(-14.337 -8)" fill="#d3843d"/>
        <path id="Trazado_1037245" data-name="Trazado 1037245" d="M56.177,24c0,1.572-2.873,4.743-7.589,4.743S41,25.572,41,24Z" transform="translate(-14.44 -8.823)" fill="#d3843d"/>
      </g>
      <path id="Trazado_1037246" data-name="Trazado 1037246" d="M33,15h3.794V31.126H33Z" transform="translate(-1.594 -0.668)" fill="#ffd782"/>
      <path id="Trazado_1037247" data-name="Trazado 1037247" d="M25,32H43.972v3.794H25Z" transform="translate(-1.183 -1.542)" fill="#f9bb4b"/>
      <path id="Trazado_1037248" data-name="Trazado 1037248" d="M13,36H54.738V48.332H13Z" transform="translate(-0.566 -1.748)" fill="#f4f4e6"/>
      <path id="Trazado_1037249" data-name="Trazado 1037249" d="M57.966,2H8.64A6.648,6.648,0,0,0,2,8.64V54.172a4.749,4.749,0,0,0,4.743,4.743H57.966a.949.949,0,0,0,.949-.949V2.949A.949.949,0,0,0,57.966,2ZM3.9,8.64A4.751,4.751,0,0,1,7.692,3.992V49.429H6.743A4.694,4.694,0,0,0,3.9,50.4ZM57.018,57.018H6.743a2.846,2.846,0,0,1,0-5.692h5.692v1.9H5.794v1.9h6.64v.949a.949.949,0,0,0,1.373.854l3.37-1.69,3.37,1.69a.949.949,0,0,0,1.373-.854v-.949h35.1ZM14.332,54.534V51.326h5.692v3.208L17.6,53.323a.949.949,0,0,0-.848,0Zm42.686-1.311H21.92v-1.9h35.1Zm0-3.794H9.589V3.9H57.018Z"/>
      <path id="Trazado_1037250" data-name="Trazado 1037250" d="M55.635,33.509H44.252V30.663a.949.949,0,0,0-.949-.949h-6.64V15.486h1.9v-2.82a4.124,4.124,0,0,1,2.656.816,8.646,8.646,0,0,0,4.5,1.6L41.8,22.126H38.56v.949c0,2.266,3.405,5.692,8.537,5.692s8.537-3.425,8.537-5.692v-.949H52.4l-3.767-6.78c1.158.063,2.513.095,4.115.095a2.86,2.86,0,0,0,2.888-2.82,2.829,2.829,0,0,0-2.826-2.826H50.892c-4.99,0-5.725-.633-6.436-1.245-1.011-.869-2.061-1.506-5.9-1.59V6H29.075v.96c-3.834.087-4.884.721-5.9,1.59-.711.612-1.447,1.245-6.436,1.245H14.826A2.829,2.829,0,0,0,12,12.62a2.86,2.86,0,0,0,2.888,2.824c1.6,0,2.957-.036,4.115-.095l-3.767,6.777H12v.949c0,2.266,3.405,5.692,8.537,5.692s8.537-3.425,8.537-5.692v-.949H25.838l-3.915-7.048a8.646,8.646,0,0,0,4.5-1.6,4.124,4.124,0,0,1,2.656-.816v2.82h1.9V29.715H24.332a.949.949,0,0,0-.949.949v2.846H12V47.738H55.635Zm-2.3-9.486A7.631,7.631,0,0,1,47.1,26.869a7.631,7.631,0,0,1-6.235-2.846Zm-3.1-1.9H43.967L47.1,16.49ZM38.56,8.856c3.431.078,4.029.591,4.658,1.133,1.16,1,2.389,1.7,7.674,1.7h1.917a.929.929,0,0,1,.929.929.949.949,0,0,1-.991.927c-8.125,0-9.412-.9-10.445-1.62a6,6,0,0,0-3.741-1.163ZM26.772,24.023a7.631,7.631,0,0,1-6.235,2.846A7.631,7.631,0,0,1,14.3,24.023Zm-3.1-1.9H17.407l3.13-5.636Zm5.407-11.362a6,6,0,0,0-3.741,1.163c-1.033.722-2.32,1.62-10.445,1.62a.949.949,0,0,1-.991-.927.929.929,0,0,1,.929-.929h1.917c5.285,0,6.514-.706,7.674-1.7.629-.542,1.227-1.055,4.658-1.133Zm1.9-2.867h5.692v5.692H30.972Zm3.794,7.589V29.715h-1.9V15.486ZM25.28,31.612H42.355v1.9H25.28ZM53.738,45.841H13.9V35.406H53.738Z" transform="translate(-0.514 -0.206)"/>
      <path id="Trazado_1037251" data-name="Trazado 1037251" d="M16,39H32.126v1.9H16Z" transform="translate(-0.72 -1.902)"/>
      <path id="Trazado_1037252" data-name="Trazado 1037252" d="M35,39H53.023v1.9H35Z" transform="translate(-1.697 -1.902)"/>
      <path id="Trazado_1037253" data-name="Trazado 1037253" d="M16,43H27.383v1.9H16Z" transform="translate(-0.72 -2.108)"/>
      <path id="Trazado_1037254" data-name="Trazado 1037254" d="M30,43H41.383v1.9H30Z" transform="translate(-1.44 -2.108)"/>
      <path id="Trazado_1037255" data-name="Trazado 1037255" d="M44,43h9.486v1.9H44Z" transform="translate(-2.159 -2.108)"/>
    </g>
  </g>
</svg>
