<svg xmlns="http://www.w3.org/2000/svg" xmlns:xlink="http://www.w3.org/1999/xlink" width="118" height="118" viewBox="0 0 118 118">
  <defs>
    <filter id="Trazado_874925" x="0" y="0" width="118" height="118" filterUnits="userSpaceOnUse">
      <feOffset dy="3" input="SourceAlpha"/>
      <feGaussianBlur stdDeviation="3" result="blur"/>
      <feFlood flood-opacity="0.161"/>
      <feComposite operator="in" in2="blur"/>
      <feComposite in="SourceGraphic"/>
    </filter>
  </defs>
  <g id="Grupo_1200766" data-name="Grupo 1200766" transform="translate(-7262.781 8549.062)">
    <g id="Grupo_1198907" data-name="Grupo 1198907" transform="translate(6463.281 -11060.219)">
      <g id="Grupo_1111316" data-name="Grupo 1111316" transform="translate(808.5 2517.157)">
        <g id="Grupo_1109835" data-name="Grupo 1109835" transform="translate(0 0)">
          <g id="Grupo_1107913" data-name="Grupo 1107913" transform="translate(0 0)">
            <g transform="matrix(1, 0, 0, 1, -9, -6)" filter="url(#Trazado_874925)">
              <g id="Trazado_874925-2" data-name="Trazado 874925" transform="translate(9 6)" fill="#9ad354" opacity="0.859">
                <path d="M 49.99972534179688 98.4998779296875 C 43.45164108276367 98.4998779296875 37.10022354125977 97.21776580810547 31.12189674377441 94.68914794921875 C 25.34676742553711 92.24647521972656 20.15985298156738 88.74925994873047 15.70523929595947 84.29464721679688 C 11.25062561035156 79.84004974365234 7.753411293029785 74.65313720703125 5.310725212097168 68.87800598144531 C 2.782111167907715 62.89969253540039 1.499996781349182 56.54829406738281 1.499996781349182 50.00022125244141 C 1.499996781349182 43.45157623291016 2.782111167907715 37.10017776489258 5.310725212097168 31.12186431884766 C 7.753411293029785 25.34673500061035 11.25062561035156 20.15983581542969 15.70523929595947 15.70522117614746 C 20.15985298156738 11.25062084197998 25.34676742553711 7.753406524658203 31.12189674377441 5.31073522567749 C 37.10022354125977 2.782120943069458 43.45164108276367 1.500006556510925 49.99972534179688 1.500006556510925 C 56.54780960083008 1.500006556510925 62.89922714233398 2.782120943069458 68.87755584716797 5.31073522567749 C 74.65267944335938 7.753406524658203 79.839599609375 11.25062084197998 84.29421234130859 15.70522117614746 C 88.74882507324219 20.15983581542969 92.24604034423828 25.34673500061035 94.68872833251953 31.12186431884766 C 97.21733856201172 37.10017776489258 98.49945068359375 43.45157623291016 98.49945068359375 49.99964904785156 C 98.49945068359375 56.54829406738281 97.21733856201172 62.89969253540039 94.68872833251953 68.87800598144531 C 92.24604034423828 74.65313720703125 88.74882507324219 79.84004974365234 84.29421234130859 84.29464721679688 C 79.839599609375 88.74925994873047 74.65267944335938 92.24647521972656 68.87755584716797 94.68914794921875 C 62.89922714233398 97.21776580810547 56.54780960083008 98.4998779296875 49.99972534179688 98.4998779296875 Z" stroke="none"/>
                <path d="M 49.99972534179688 3 C 43.65348052978516 3 37.49866485595703 4.242240905761719 31.70623016357422 6.692230224609375 C 26.10989379882812 9.059272766113281 21.08323669433594 12.44853210449219 16.76589202880859 16.76587677001953 C 12.44855499267578 21.08321380615234 9.059295654296875 26.10985565185547 6.692230224609375 31.70618438720703 C 4.24224853515625 37.49859619140625 3 43.65341186523438 3 50.00022888183594 C 3 56.34645843505859 4.24224853515625 62.50127410888672 6.692230224609375 68.29368591308594 C 9.059295654296875 73.8900146484375 12.44855499267578 78.91665649414062 16.76589202880859 83.23399353027344 C 21.08323669433594 87.55132293701172 26.10989379882812 90.94059753417969 31.70623016357422 93.30764007568359 C 37.49866485595703 95.75762939453125 43.65348052978516 96.99987030029297 49.99972534179688 96.99987030029297 C 56.34597015380859 96.99987030029297 62.50078582763672 95.75762939453125 68.293212890625 93.30764007568359 C 73.88955688476562 90.94059753417969 78.91621398925781 87.55132293701172 83.23355865478516 83.23399353027344 C 87.55089569091797 78.91665649414062 90.94015502929688 73.8900146484375 93.30722045898438 68.29368591308594 C 95.7572021484375 62.50127410888672 96.99945068359375 56.34645843505859 96.99945068359375 49.99964141845703 C 96.99945068359375 43.65341186523438 95.7572021484375 37.49859619140625 93.30722045898438 31.70618438720703 C 90.94015502929688 26.10985565185547 87.55089569091797 21.08321380615234 83.23355865478516 16.76587677001953 C 78.91621398925781 12.44853210449219 73.88955688476562 9.059272766113281 68.293212890625 6.692230224609375 C 62.50078582763672 4.242240905761719 56.34597015380859 3 49.99972534179688 3 M 49.99972534179688 0 C 77.61381530761719 0 99.99945068359375 22.38559722900391 99.99945068359375 49.99964141845703 L 99.99945068359375 50.00022888183594 C 99.99945068359375 77.6142578125 77.61381530761719 99.99987030029297 49.99972534179688 99.99987030029297 C 22.38563537597656 99.99987030029297 0 77.6142578125 0 50.00022888183594 L 0 49.99964141845703 C 0 22.38559722900391 22.38563537597656 0 49.99972534179688 0 Z" stroke="none" fill="#fff"/>
              </g>
            </g>
            <g id="Trazado_874923" data-name="Trazado 874923" transform="translate(0 0)" fill="none">
              <path d="M50,0a50,50,0,0,1,50,50h0A50,50,0,0,1,0,50H0A50,50,0,0,1,50,0Z" stroke="none"/>
              <path d="M 49.99972534179688 3 C 43.65348052978516 3 37.49866485595703 4.242240905761719 31.70623016357422 6.692230224609375 C 26.10989379882812 9.059272766113281 21.08323669433594 12.44853210449219 16.76589202880859 16.76587677001953 C 12.44855499267578 21.08321380615234 9.059295654296875 26.10985565185547 6.692230224609375 31.70618438720703 C 4.24224853515625 37.49859619140625 3 43.65341186523438 3 50.00022888183594 C 3 56.34645843505859 4.24224853515625 62.50127410888672 6.692230224609375 68.29368591308594 C 9.059295654296875 73.8900146484375 12.44855499267578 78.91665649414062 16.76589202880859 83.23399353027344 C 21.08323669433594 87.55132293701172 26.10989379882812 90.94059753417969 31.70623016357422 93.30764007568359 C 37.49866485595703 95.75762939453125 43.65348052978516 96.99987030029297 49.99972534179688 96.99987030029297 C 56.34597015380859 96.99987030029297 62.50078582763672 95.75762939453125 68.293212890625 93.30764007568359 C 73.88955688476562 90.94059753417969 78.91621398925781 87.55132293701172 83.23355865478516 83.23399353027344 C 87.55089569091797 78.91665649414062 90.94015502929688 73.8900146484375 93.30722045898438 68.29368591308594 C 95.7572021484375 62.50127410888672 96.99945068359375 56.34645843505859 96.99945068359375 49.99964141845703 C 96.99945068359375 43.65341186523438 95.7572021484375 37.49859619140625 93.30722045898438 31.70618438720703 C 90.94015502929688 26.10985565185547 87.55089569091797 21.08321380615234 83.23355865478516 16.76587677001953 C 78.91621398925781 12.44853210449219 73.88955688476562 9.059272766113281 68.293212890625 6.692230224609375 C 62.50078582763672 4.242240905761719 56.34597015380859 3 49.99972534179688 3 M 49.99972534179688 0 C 77.61381530761719 0 99.99945068359375 22.38559722900391 99.99945068359375 49.99964141845703 L 99.99945068359375 50.00022888183594 C 99.99945068359375 77.6142578125 77.61381530761719 99.99987030029297 49.99972534179688 99.99987030029297 C 22.38563537597656 99.99987030029297 0 77.6142578125 0 50.00022888183594 L 0 49.99964141845703 C 0 22.38559722900391 22.38563537597656 0 49.99972534179688 0 Z" stroke="none" fill="#fff"/>
            </g>
          </g>
        </g>
      </g>
    </g>
    <g id="gente" transform="translate(7283.248 -8529.336)">
      <g id="Grupo_1200764" data-name="Grupo 1200764" transform="translate(7.616 7.5)">
        <path id="Trazado_1037256" data-name="Trazado 1037256" d="M359.41,72.795h-1.14L356.06,75.02l-.311,1.151v4.855l.53.9h3.576a2.947,2.947,0,0,1,3.155-1.847h0V77.211A4.527,4.527,0,0,0,359.41,72.795Z" transform="translate(-312.414 -64.667)" fill="#bced6b"/>
        <path id="Trazado_1037257" data-name="Trazado 1037257" d="M254.581,72.795H253.24L251,75.175v5.913l.451.842h3.576a2.947,2.947,0,0,1,3.155-1.847h0V77.211A4.527,4.527,0,0,0,254.581,72.795Z" transform="translate(-220.704 -64.667)" fill="#ffe02f"/>
        <path id="Trazado_1037258" data-name="Trazado 1037258" d="M148.074,72.795H146.9l-2.573,2.232v5.438l.61,1.465h3.576a2.947,2.947,0,0,1,3.155-1.847h0V77.211A4.526,4.526,0,0,0,148.074,72.795Z" transform="translate(-127.314 -64.667)" fill="#00d2fc"/>
        <path id="Trazado_1037259" data-name="Trazado 1037259" d="M415.537,193.278h-.882l-2.4,1.978L412,196.314v5.892h6.817v-4.591A4.526,4.526,0,0,0,415.537,193.278Z" transform="translate(-361.663 -170.153)" fill="#b48aca"/>
        <path id="Trazado_1037260" data-name="Trazado 1037260" d="M104.31,76.433a4.526,4.526,0,0,1,3.131-4.292,4.488,4.488,0,0,0-.91-.093h-4.1a4.523,4.523,0,0,0-4.509,4.509v2.871a2.793,2.793,0,0,1,3.03,1.847h3.357Z" transform="translate(-86.682 -64.013)" fill="#00c2fb"/>
        <path id="Trazado_1037261" data-name="Trazado 1037261" d="M209.694,76.433a4.527,4.527,0,0,1,3.131-4.292,4.488,4.488,0,0,0-.91-.093h-4.1a4.523,4.523,0,0,0-4.509,4.509v2.871a2.793,2.793,0,0,1,3.03,1.847h3.357Z" transform="translate(-178.948 -64.013)" fill="#fbc700"/>
        <path id="Trazado_1037262" data-name="Trazado 1037262" d="M315.078,76.433a4.526,4.526,0,0,1,3.131-4.292,4.487,4.487,0,0,0-.91-.093h-4.1a4.523,4.523,0,0,0-4.509,4.509v2.871a2.793,2.793,0,0,1,3.03,1.847h3.357V76.433Z" transform="translate(-271.214 -64.013)" fill="#98d829"/>
        <circle id="Elipse_12263" data-name="Elipse 12263" cx="4.017" cy="4.017" r="4.017" transform="translate(20.342 14.917)" fill="#ffcebe"/>
        <circle id="Elipse_12264" data-name="Elipse 12264" cx="4.017" cy="4.017" r="4.017" transform="translate(7.224 14.917)" fill="#ffcebe"/>
        <circle id="Elipse_12265" data-name="Elipse 12265" cx="4.017" cy="4.017" r="4.017" transform="translate(46.577 14.917)" fill="#ffcebe"/>
        <circle id="Elipse_12266" data-name="Elipse 12266" cx="4.017" cy="4.017" r="4.017" transform="translate(33.459 14.917)" fill="#ffcebe"/>
        <path id="Trazado_1037263" data-name="Trazado 1037263" d="M203.034,193.278h-1.575l-2.209,2.351v6.576h7.064v-4.591A4.526,4.526,0,0,0,203.034,193.278Z" transform="translate(-175.395 -170.153)" fill="#ff94d5"/>
        <path id="Trazado_1037264" data-name="Trazado 1037264" d="M160.453,192.061a4.472,4.472,0,0,0-1.23-.173h-4.1a4.523,4.523,0,0,0-4.509,4.509v4.591h6.559V196.4A4.526,4.526,0,0,1,160.453,192.061Z" transform="translate(-132.815 -168.936)" fill="#ff72c7"/>
        <path id="Trazado_1037265" data-name="Trazado 1037265" d="M53.84,191.889h-4.1a4.522,4.522,0,0,0-4.509,4.509v4.591H58.35V196.4A4.523,4.523,0,0,0,53.84,191.889Z" transform="translate(-40.55 -168.937)" fill="#ffe02f"/>
        <path id="Trazado_1037266" data-name="Trazado 1037266" d="M55.07,192.061a4.472,4.472,0,0,0-1.23-.173h-4.1a4.523,4.523,0,0,0-4.509,4.509v4.591h6.559V196.4A4.526,4.526,0,0,1,55.07,192.061Z" transform="translate(-40.55 -168.936)" fill="#fbc700"/>
        <path id="Trazado_1037267" data-name="Trazado 1037267" d="M371.222,192.061a4.473,4.473,0,0,0-1.23-.173h-4.1a4.523,4.523,0,0,0-4.509,4.509v4.591h6.559V196.4A4.526,4.526,0,0,1,371.222,192.061Z" transform="translate(-317.348 -168.936)" fill="#a374c0"/>
        <path id="Trazado_1037268" data-name="Trazado 1037268" d="M310.763,193.278h-1.747l-1.7,2.631v6.3h6.731v-4.591A4.526,4.526,0,0,0,310.763,193.278Z" transform="translate(-270.007 -170.153)" fill="#5291d9"/>
        <path id="Trazado_1037269" data-name="Trazado 1037269" d="M265.837,192.061a4.472,4.472,0,0,0-1.23-.173h-4.1A4.523,4.523,0,0,0,256,196.4v4.591h6.559V196.4A4.526,4.526,0,0,1,265.837,192.061Z" transform="translate(-225.081 -168.936)" fill="#0972d0"/>
        <circle id="Elipse_12267" data-name="Elipse 12267" cx="4.017" cy="4.017" r="4.017" transform="translate(13.783 0)" fill="#ffcebe"/>
        <circle id="Elipse_12268" data-name="Elipse 12268" cx="4.017" cy="4.017" r="4.017" transform="translate(40.018 0)" fill="#ffcebe"/>
        <circle id="Elipse_12269" data-name="Elipse 12269" cx="4.017" cy="4.017" r="4.017" transform="translate(26.9 0)" fill="#ffcebe"/>
        <g id="Grupo_1200763" data-name="Grupo 1200763" transform="translate(0 30.932)">
          <path id="Trazado_1037270" data-name="Trazado 1037270" d="M158.363,256h-3.356l-2.594.79H126.086l-2-.79H111.006l-.449.449-.311,1.494.311,2.427.814,1.211-.1,1.434,1.774,5.975,3.548,6.628,1.369,1.089.929.135,1.374,2.666,6.255,4.948,5.072,1.307,2.5.64a30.938,30.938,0,0,0,25.208-29.436A.942.942,0,0,0,158.363,256Z" transform="translate(-97.471 -255.999)" fill="#00d2fc"/>
          <path id="Trazado_1037271" data-name="Trazado 1037271" d="M25.772,256.965a.942.942,0,0,1,.943-.967H20.641L17.2,257.474,13.034,259.9v2.611h0A30.958,30.958,0,0,0,49.981,286.2,30.945,30.945,0,0,1,25.772,256.965Z" transform="translate(-12.36 -255.998)" fill="#00c2fb"/>
          <path id="Trazado_1037272" data-name="Trazado 1037272" d="M118.5,302.164l1.774,5.975,3.548,6.628,1.369,1.089.929.135c.248-4.793,4.545-5.785,2.975-11.074-1.217-4.1-6.306-4.277-10.5-4.188Z" transform="translate(-104.694 -295.149)" fill="#bced6b"/>
          <path id="Trazado_1037273" data-name="Trazado 1037273" d="M29.038,276.841c0-.019,0-.037,0-.056a30.832,30.832,0,0,1-7.525-15.205c-1.216.026-2.356.074-3.3.056-4.187-.082-2.339-2.285-2.314-5.637H8.56a.945.945,0,0,0-.942.979,31.022,31.022,0,0,0,.674,5.535c2.831,1.629,4.219-.048,5.376,2.345,1.6,3.306,3.361,4.738,7.217,6.611s2.094,7.493,4.022,10.358a22.546,22.546,0,0,0,2.477,3.031,30.7,30.7,0,0,0,5.152,1.49C33.2,284.191,28.8,281.361,29.038,276.841Z" transform="translate(-7.617 -255.998)" fill="#98d829"/>
          <path id="Trazado_1037274" data-name="Trazado 1037274" d="M278.527,256,278,257.06l1.266,2.2,2.384,1.079,8.166.456,1.379,2.158.373,7.842,1,2.531,1.206.562a22.862,22.862,0,0,0,2.166-3.827c1-2.182.364-7.91,3.546-9.547a4.8,4.8,0,0,0,2.4-4.514Z" transform="translate(-244.34 -255.999)" fill="#bced6b"/>
          <path id="Trazado_1037275" data-name="Trazado 1037275" d="M242.732,262.616c-.546-3.455-3.728-2.728-8.456-2.819-3.142-.06-4.637-1.088-5.259-3.8h-7.57c.21,4.981,1.5,6.708,5.61,6.787,4.728.091,7.91-.636,8.456,2.819s-1,11.183,3.091,11.638c2.453.272,4.415-1.579,5.81-3.576C242.124,271.715,243.2,265.586,242.732,262.616Z" transform="translate(-194.83 -255.998)" fill="#98d829"/>
        </g>
      </g>
      <g id="Grupo_1200765" data-name="Grupo 1200765" transform="translate(7.615 7.5)">
        <path id="Trazado_1037276" data-name="Trazado 1037276" d="M227.058,262.785c4.728.091,7.91-.637,8.456,2.819s-1,11.183,3.091,11.638,6.819-5,7.819-7.183.364-7.91,3.546-9.547a4.8,4.8,0,0,0,2.4-4.514H221.448C221.658,260.979,222.952,262.706,227.058,262.785Z" transform="translate(-194.831 -225.066)" fill="none" stroke="#000" stroke-linecap="round" stroke-linejoin="round" stroke-miterlimit="10" stroke-width="2"/>
        <circle id="Elipse_12270" data-name="Elipse 12270" cx="4.017" cy="4.017" r="4.017" transform="translate(20.342 14.917)" fill="none" stroke="#000" stroke-linecap="round" stroke-linejoin="round" stroke-miterlimit="10" stroke-width="2"/>
        <path id="Trazado_1037277" data-name="Trazado 1037277" d="M159.223,191.889h-4.1a4.523,4.523,0,0,0-4.509,4.509v3.471h13.118V196.4A4.523,4.523,0,0,0,159.223,191.889Z" transform="translate(-132.814 -168.937)" fill="none" stroke="#000" stroke-linecap="round" stroke-linejoin="round" stroke-miterlimit="10" stroke-width="2"/>
        <circle id="Elipse_12271" data-name="Elipse 12271" cx="4.017" cy="4.017" r="4.017" transform="translate(7.224 14.917)" fill="none" stroke="#000" stroke-linecap="round" stroke-linejoin="round" stroke-miterlimit="10" stroke-width="2"/>
        <path id="Trazado_1037278" data-name="Trazado 1037278" d="M53.839,191.889h-4.1A4.522,4.522,0,0,0,45.23,196.4v3.471H58.348V196.4A4.523,4.523,0,0,0,53.839,191.889Z" transform="translate(-40.548 -168.937)" fill="none" stroke="#000" stroke-linecap="round" stroke-linejoin="round" stroke-miterlimit="10" stroke-width="2"/>
        <circle id="Elipse_12272" data-name="Elipse 12272" cx="4.017" cy="4.017" r="4.017" transform="translate(46.577 14.917)" fill="none" stroke="#000" stroke-linecap="round" stroke-linejoin="round" stroke-miterlimit="10" stroke-width="2"/>
        <path id="Trazado_1037279" data-name="Trazado 1037279" d="M369.99,191.889h-4.1a4.522,4.522,0,0,0-4.509,4.509v3.471H374.5V196.4A4.523,4.523,0,0,0,369.99,191.889Z" transform="translate(-317.346 -168.937)" fill="none" stroke="#000" stroke-linecap="round" stroke-linejoin="round" stroke-miterlimit="10" stroke-width="2"/>
        <circle id="Elipse_12273" data-name="Elipse 12273" cx="4.017" cy="4.017" r="4.017" transform="translate(33.46 14.917)" fill="none" stroke="#000" stroke-linecap="round" stroke-linejoin="round" stroke-miterlimit="10" stroke-width="2"/>
        <path id="Trazado_1037280" data-name="Trazado 1037280" d="M264.607,191.889h-4.1A4.523,4.523,0,0,0,256,196.4v3.471h13.118V196.4A4.523,4.523,0,0,0,264.607,191.889Z" transform="translate(-225.08 -168.937)" fill="none" stroke="#000" stroke-linecap="round" stroke-linejoin="round" stroke-miterlimit="10" stroke-width="2"/>
        <circle id="Elipse_12274" data-name="Elipse 12274" cx="4.017" cy="4.017" r="4.017" transform="translate(13.783 0)" fill="none" stroke="#000" stroke-linecap="round" stroke-linejoin="round" stroke-miterlimit="10" stroke-width="2"/>
        <circle id="Elipse_12275" data-name="Elipse 12275" cx="4.017" cy="4.017" r="4.017" transform="translate(40.018 0)" fill="none" stroke="#000" stroke-linecap="round" stroke-linejoin="round" stroke-miterlimit="10" stroke-width="2"/>
        <circle id="Elipse_12276" data-name="Elipse 12276" cx="4.017" cy="4.017" r="4.017" transform="translate(26.901 0)" fill="none" stroke="#000" stroke-linecap="round" stroke-linejoin="round" stroke-miterlimit="10" stroke-width="2"/>
        <path id="Trazado_1037281" data-name="Trazado 1037281" d="M101.574,81.275h5.812a4.017,4.017,0,0,1,3.653-2.345h0V76.556a4.523,4.523,0,0,0-4.509-4.509h-4.1a4.523,4.523,0,0,0-4.509,4.509V78.93A4.017,4.017,0,0,1,101.574,81.275Z" transform="translate(-86.68 -64.012)" fill="none" stroke="#000" stroke-linecap="round" stroke-linejoin="round" stroke-miterlimit="10" stroke-width="2"/>
        <path id="Trazado_1037282" data-name="Trazado 1037282" d="M206.958,81.275h5.812a4.017,4.017,0,0,1,3.653-2.345h0V76.556a4.523,4.523,0,0,0-4.509-4.509h-4.1a4.523,4.523,0,0,0-4.509,4.509V78.93A4.017,4.017,0,0,1,206.958,81.275Z" transform="translate(-178.946 -64.012)" fill="none" stroke="#000" stroke-linecap="round" stroke-linejoin="round" stroke-miterlimit="10" stroke-width="2"/>
        <path id="Trazado_1037283" data-name="Trazado 1037283" d="M312.342,81.275h5.813a4.017,4.017,0,0,1,3.653-2.345h0V76.556a4.523,4.523,0,0,0-4.509-4.509h-4.1a4.523,4.523,0,0,0-4.509,4.509V78.93A4.017,4.017,0,0,1,312.342,81.275Z" transform="translate(-271.212 -64.012)" fill="none" stroke="#000" stroke-linecap="round" stroke-linejoin="round" stroke-miterlimit="10" stroke-width="2"/>
        <path id="Trazado_1037284" data-name="Trazado 1037284" d="M59.013,279.179a30.829,30.829,0,0,0,10.437-22.213.942.942,0,0,0-.943-.967H8.559a.942.942,0,0,0-.943.967,30.934,30.934,0,0,0,47.938,24.863" transform="translate(-7.615 -225.066)" fill="none" stroke="#000" stroke-linecap="round" stroke-linejoin="round" stroke-miterlimit="10" stroke-width="2"/>
        <path id="Trazado_1037285" data-name="Trazado 1037285" d="M29.2,275.638c.814-3.8,4.247-5.056,2.817-9.87-1.57-5.289-9.586-4.049-13.8-4.132-4.187-.082-2.339-2.285-2.314-5.637H8.562a.945.945,0,0,0-.942.979,31.022,31.022,0,0,0,.674,5.535c2.831,1.629,4.219-.048,5.376,2.345,1.6,3.306,3.361,4.738,7.217,6.611s2.094,7.493,4.022,10.358a22.546,22.546,0,0,0,2.477,3.031,30.687,30.687,0,0,0,5.152,1.49c.5-1.6-1.812-3.583-2.929-6.353" transform="translate(-7.619 -225.067)" fill="none" stroke="#000" stroke-linecap="round" stroke-linejoin="round" stroke-miterlimit="10" stroke-width="2"/>
      </g>
    </g>
  </g>
</svg>
