<svg xmlns="http://www.w3.org/2000/svg" xmlns:xlink="http://www.w3.org/1999/xlink" width="118" height="118" viewBox="0 0 118 118">
  <defs>
    <filter id="Trazado_874925" x="0" y="0" width="118" height="118" filterUnits="userSpaceOnUse">
      <feOffset dy="3" input="SourceAlpha"/>
      <feGaussianBlur stdDeviation="3" result="blur"/>
      <feFlood flood-opacity="0.161"/>
      <feComposite operator="in" in2="blur"/>
      <feComposite in="SourceGraphic"/>
    </filter>
  </defs>
  <g id="Grupo_1200770" data-name="Grupo 1200770" transform="translate(-7263.031 8163.998)">
    <g id="Grupo_1198909" data-name="Grupo 1198909" transform="translate(6463.531 -10675.155)">
      <g id="Grupo_1111316" data-name="Grupo 1111316" transform="translate(808.5 2517.157)">
        <g id="Grupo_1109835" data-name="Grupo 1109835" transform="translate(0 0)">
          <g id="Grupo_1107913" data-name="Grupo 1107913" transform="translate(0 0)">
            <g transform="matrix(1, 0, 0, 1, -9, -6)" filter="url(#Trazado_874925)">
              <g id="Trazado_874925-2" data-name="Trazado 874925" transform="translate(9 6)" fill="#9ad354" opacity="0.859">
                <path d="M 49.99972534179688 98.4998779296875 C 43.45164108276367 98.4998779296875 37.10022354125977 97.21776580810547 31.12189674377441 94.68914794921875 C 25.34676742553711 92.24647521972656 20.15985298156738 88.74925994873047 15.70523929595947 84.29464721679688 C 11.25062561035156 79.84004974365234 7.753411293029785 74.65313720703125 5.310725212097168 68.87800598144531 C 2.782111167907715 62.89969253540039 1.499996781349182 56.54829406738281 1.499996781349182 50.00022125244141 C 1.499996781349182 43.45157623291016 2.782111167907715 37.10017776489258 5.310725212097168 31.12186431884766 C 7.753411293029785 25.34673500061035 11.25062561035156 20.15983581542969 15.70523929595947 15.70522117614746 C 20.15985298156738 11.25062084197998 25.34676742553711 7.753406524658203 31.12189674377441 5.31073522567749 C 37.10022354125977 2.782120943069458 43.45164108276367 1.500006556510925 49.99972534179688 1.500006556510925 C 56.54780960083008 1.500006556510925 62.89922714233398 2.782120943069458 68.87755584716797 5.31073522567749 C 74.65267944335938 7.753406524658203 79.839599609375 11.25062084197998 84.29421234130859 15.70522117614746 C 88.74882507324219 20.15983581542969 92.24604034423828 25.34673500061035 94.68872833251953 31.12186431884766 C 97.21733856201172 37.10017776489258 98.49945068359375 43.45157623291016 98.49945068359375 49.99964904785156 C 98.49945068359375 56.54829406738281 97.21733856201172 62.89969253540039 94.68872833251953 68.87800598144531 C 92.24604034423828 74.65313720703125 88.74882507324219 79.84004974365234 84.29421234130859 84.29464721679688 C 79.839599609375 88.74925994873047 74.65267944335938 92.24647521972656 68.87755584716797 94.68914794921875 C 62.89922714233398 97.21776580810547 56.54780960083008 98.4998779296875 49.99972534179688 98.4998779296875 Z" stroke="none"/>
                <path d="M 49.99972534179688 3 C 43.65348052978516 3 37.49866485595703 4.242240905761719 31.70623016357422 6.692230224609375 C 26.10989379882812 9.059272766113281 21.08323669433594 12.44853210449219 16.76589202880859 16.76587677001953 C 12.44855499267578 21.08321380615234 9.059295654296875 26.10985565185547 6.692230224609375 31.70618438720703 C 4.24224853515625 37.49859619140625 3 43.65341186523438 3 50.00022888183594 C 3 56.34645843505859 4.24224853515625 62.50127410888672 6.692230224609375 68.29368591308594 C 9.059295654296875 73.8900146484375 12.44855499267578 78.91665649414062 16.76589202880859 83.23399353027344 C 21.08323669433594 87.55132293701172 26.10989379882812 90.94059753417969 31.70623016357422 93.30764007568359 C 37.49866485595703 95.75762939453125 43.65348052978516 96.99987030029297 49.99972534179688 96.99987030029297 C 56.34597015380859 96.99987030029297 62.50078582763672 95.75762939453125 68.293212890625 93.30764007568359 C 73.88955688476562 90.94059753417969 78.91621398925781 87.55132293701172 83.23355865478516 83.23399353027344 C 87.55089569091797 78.91665649414062 90.94015502929688 73.8900146484375 93.30722045898438 68.29368591308594 C 95.7572021484375 62.50127410888672 96.99945068359375 56.34645843505859 96.99945068359375 49.99964141845703 C 96.99945068359375 43.65341186523438 95.7572021484375 37.49859619140625 93.30722045898438 31.70618438720703 C 90.94015502929688 26.10985565185547 87.55089569091797 21.08321380615234 83.23355865478516 16.76587677001953 C 78.91621398925781 12.44853210449219 73.88955688476562 9.059272766113281 68.293212890625 6.692230224609375 C 62.50078582763672 4.242240905761719 56.34597015380859 3 49.99972534179688 3 M 49.99972534179688 0 C 77.61381530761719 0 99.99945068359375 22.38559722900391 99.99945068359375 49.99964141845703 L 99.99945068359375 50.00022888183594 C 99.99945068359375 77.6142578125 77.61381530761719 99.99987030029297 49.99972534179688 99.99987030029297 C 22.38563537597656 99.99987030029297 0 77.6142578125 0 50.00022888183594 L 0 49.99964141845703 C 0 22.38559722900391 22.38563537597656 0 49.99972534179688 0 Z" stroke="none" fill="#fff"/>
              </g>
            </g>
            <g id="Trazado_874923" data-name="Trazado 874923" transform="translate(0 0)" fill="none">
              <path d="M50,0a50,50,0,0,1,50,50h0A50,50,0,0,1,0,50H0A50,50,0,0,1,50,0Z" stroke="none"/>
              <path d="M 49.99972534179688 3 C 43.65348052978516 3 37.49866485595703 4.242240905761719 31.70623016357422 6.692230224609375 C 26.10989379882812 9.059272766113281 21.08323669433594 12.44853210449219 16.76589202880859 16.76587677001953 C 12.44855499267578 21.08321380615234 9.059295654296875 26.10985565185547 6.692230224609375 31.70618438720703 C 4.24224853515625 37.49859619140625 3 43.65341186523438 3 50.00022888183594 C 3 56.34645843505859 4.24224853515625 62.50127410888672 6.692230224609375 68.29368591308594 C 9.059295654296875 73.8900146484375 12.44855499267578 78.91665649414062 16.76589202880859 83.23399353027344 C 21.08323669433594 87.55132293701172 26.10989379882812 90.94059753417969 31.70623016357422 93.30764007568359 C 37.49866485595703 95.75762939453125 43.65348052978516 96.99987030029297 49.99972534179688 96.99987030029297 C 56.34597015380859 96.99987030029297 62.50078582763672 95.75762939453125 68.293212890625 93.30764007568359 C 73.88955688476562 90.94059753417969 78.91621398925781 87.55132293701172 83.23355865478516 83.23399353027344 C 87.55089569091797 78.91665649414062 90.94015502929688 73.8900146484375 93.30722045898438 68.29368591308594 C 95.7572021484375 62.50127410888672 96.99945068359375 56.34645843505859 96.99945068359375 49.99964141845703 C 96.99945068359375 43.65341186523438 95.7572021484375 37.49859619140625 93.30722045898438 31.70618438720703 C 90.94015502929688 26.10985565185547 87.55089569091797 21.08321380615234 83.23355865478516 16.76587677001953 C 78.91621398925781 12.44853210449219 73.88955688476562 9.059272766113281 68.293212890625 6.692230224609375 C 62.50078582763672 4.242240905761719 56.34597015380859 3 49.99972534179688 3 M 49.99972534179688 0 C 77.61381530761719 0 99.99945068359375 22.38559722900391 99.99945068359375 49.99964141845703 L 99.99945068359375 50.00022888183594 C 99.99945068359375 77.6142578125 77.61381530761719 99.99987030029297 49.99972534179688 99.99987030029297 C 22.38563537597656 99.99987030029297 0 77.6142578125 0 50.00022888183594 L 0 49.99964141845703 C 0 22.38559722900391 22.38563537597656 0 49.99972534179688 0 Z" stroke="none" fill="#fff"/>
            </g>
          </g>
        </g>
      </g>
    </g>
    <g id="law_8944370" transform="translate(7289 -8136.83)">
      <path id="Trazado_1037311" data-name="Trazado 1037311" d="M21,1H60.257V53.342H21Z" transform="translate(-1.372 -0.065)" fill="#fff06e"/>
      <path id="Trazado_1037312" data-name="Trazado 1037312" d="M24,3H60.453V53.473H24Z" transform="translate(-1.568 -0.196)" fill="#ffd35a"/>
      <path id="Trazado_1037313" data-name="Trazado 1037313" d="M56.257,57.342H17V5H45.975l10.282,6.543Z" transform="translate(-1.11 -0.327)" fill="#f6fbff"/>
      <path id="Trazado_1037314" data-name="Trazado 1037314" d="M50.577,8H20V57.538H56.453v-45.8Z" transform="translate(-1.306 -0.523)" fill="#e9f4ff"/>
      <path id="Trazado_1037315" data-name="Trazado 1037315" d="M48,5v6.543H58.282Z" transform="translate(-3.135 -0.327)" fill="#fff"/>
      <path id="Trazado_1037316" data-name="Trazado 1037316" d="M41,32H54.086v6.543H41Z" transform="translate(-2.678 -2.09)" fill="#ffd35a"/>
      <path id="Trazado_1037317" data-name="Trazado 1037317" d="M2.337,0H29.91V4.673H2.337A2.337,2.337,0,1,1,2.337,0Z" transform="translate(12.618 58.885) rotate(-90)" fill="#d0856a"/>
      <path id="Trazado_1037318" data-name="Trazado 1037318" d="M16.9,60.713a2.337,2.337,0,0,0,1.4-2.139V31H15.5V58.573a2.337,2.337,0,0,0,1.4,2.139Z" transform="translate(-1.012 -2.025)" fill="#c4755c"/>
      <rect id="Rectángulo_408874" data-name="Rectángulo 408874" width="13.487" height="12.449" rx="2" transform="translate(8.299 12.449)" fill="#d0856a"/>
      <path id="Trazado_1037319" data-name="Trazado 1037319" d="M22.282,24.347V15H13.869A1.869,1.869,0,0,0,12,16.869v9.347h8.412A1.869,1.869,0,0,0,22.282,24.347Z" transform="translate(-0.784 -0.98)" fill="#c4755c"/>
      <path id="Trazado_1037320" data-name="Trazado 1037320" d="M0,0H3.739V9.347H0Z" transform="translate(25.236 23.367) rotate(180)" fill="#ffd35a"/>
      <path id="Trazado_1037321" data-name="Trazado 1037321" d="M23,15h1.869v9.347H23Z" transform="translate(-1.502 -0.98)" fill="#f6be36"/>
      <rect id="Rectángulo_408875" data-name="Rectángulo 408875" width="4.15" height="12.449" rx="2" transform="translate(29.048 24.898) rotate(180)" fill="#d0856a"/>
      <path id="Trazado_1037322" data-name="Trazado 1037322" d="M5,15H8.739v9.347H5Z" transform="translate(-0.327 -0.98)" fill="#ffd35a"/>
      <path id="Trazado_1037323" data-name="Trazado 1037323" d="M5,15H6.869v9.347H5Z" transform="translate(-0.327 -0.98)" fill="#f6be36"/>
      <rect id="Rectángulo_408876" data-name="Rectángulo 408876" width="4.15" height="12.449" rx="2" transform="translate(1.037 12.449)" fill="#d0856a"/>
      <path id="Trazado_1037324" data-name="Trazado 1037324" d="M4.869,24.347V15A1.869,1.869,0,0,0,3,16.869v9.347A1.869,1.869,0,0,0,4.869,24.347Z" transform="translate(-0.196 -0.98)" fill="#c4755c"/>
      <path id="Trazado_1037325" data-name="Trazado 1037325" d="M11.5,27h8.412v1.869a1.869,1.869,0,0,1-1.869,1.869H13.369A1.869,1.869,0,0,1,11.5,28.869Z" transform="translate(-0.751 -1.764)" fill="#fff06e"/>
      <path id="Trazado_1037326" data-name="Trazado 1037326" d="M20.043,28.869V27H13.5v1.869a1.869,1.869,0,0,0,1.869,1.869h2.8A1.869,1.869,0,0,0,20.043,28.869Z" transform="translate(-0.882 -1.764)" fill="#ffd35a"/>
      <path id="Trazado_1037327" data-name="Trazado 1037327" d="M13.5,35h4.673v3.739H13.5Z" transform="translate(-0.882 -2.286)" fill="#fff06e"/>
      <path id="Trazado_1037328" data-name="Trazado 1037328" d="M15.5,35h2.8v3.739H15.5Z" transform="translate(-1.012 -2.286)" fill="#ffd35a"/>
      <path id="Trazado_1037329" data-name="Trazado 1037329" d="M42.543,13.412l-3.271-2.8L36,13.412V5h6.543Z" transform="translate(-2.351 -0.327)" fill="#f08096"/>
      <path id="Trazado_1037330" data-name="Trazado 1037330" d="M42.543,13.608V8H36v5.608l3.271-2.8Z" transform="translate(-2.351 -0.523)" fill="#e65f78"/>
      <path id="Trazado_1037331" data-name="Trazado 1037331" d="M30.869,24.347V15A1.869,1.869,0,0,0,29,16.869v9.347A1.869,1.869,0,0,0,30.869,24.347Z" transform="translate(-1.894 -0.98)" fill="#c4755c"/>
      <path id="Trazado_1037332" data-name="Trazado 1037332" d="M53.151,32H41.935a.935.935,0,0,0-.935.935v4.673a.935.935,0,0,0,.935.935H53.151a.935.935,0,0,0,.935-.935V32.935A.935.935,0,0,0,53.151,32Zm-.935,4.673H42.869v-2.8h9.347Z" transform="translate(-2.678 -2.09)"/>
      <path id="Trazado_1037333" data-name="Trazado 1037333" d="M23.935,33.869H36.086a.935.935,0,0,0,0-1.869H23.935a.935.935,0,0,0,0,1.869Z" transform="translate(-1.502 -2.09)"/>
      <path id="Trazado_1037334" data-name="Trazado 1037334" d="M23.935,38.869H36.086a.935.935,0,1,0,0-1.869H23.935a.935.935,0,1,0,0,1.869Z" transform="translate(-1.502 -2.417)"/>
      <path id="Trazado_1037335" data-name="Trazado 1037335" d="M52.824,22H36.935a.935.935,0,0,0,0,1.869h15.89a.935.935,0,0,0,0-1.869Z" transform="translate(-2.351 -1.437)"/>
      <path id="Trazado_1037336" data-name="Trazado 1037336" d="M45,17.935a.935.935,0,0,0,.935.935h7.477a.935.935,0,1,0,0-1.869H45.935A.935.935,0,0,0,45,17.935Z" transform="translate(-2.939 -1.11)"/>
      <path id="Trazado_1037337" data-name="Trazado 1037337" d="M52.824,27H36.935a.935.935,0,1,0,0,1.869h15.89a.935.935,0,1,0,0-1.869Z" transform="translate(-2.351 -1.764)"/>
      <path id="Trazado_1037338" data-name="Trazado 1037338" d="M51.975,42H23.935a.935.935,0,1,0,0,1.869H51.975a.935.935,0,1,0,0-1.869Z" transform="translate(-1.502 -2.743)"/>
      <path id="Trazado_1037339" data-name="Trazado 1037339" d="M36.086,47H23.935a.935.935,0,0,0,0,1.869H36.086a.935.935,0,0,0,0-1.869Z" transform="translate(-1.502 -3.07)"/>
      <path id="Trazado_1037340" data-name="Trazado 1037340" d="M52.18,53.8H49.656l-2.569-1.712a.935.935,0,0,0-1.18.117l-1.061,1.063-1.237-1.855a.935.935,0,0,0-1.614.1l-1.451,2.9a.935.935,0,1,0,1.672.837l.731-1.463.976,1.465a.935.935,0,0,0,1.438.142l1.327-1.327,2.167,1.444a.935.935,0,0,0,.519.157h2.8a.935.935,0,0,0,0-1.869Z" transform="translate(-2.642 -3.331)"/>
      <path id="Trazado_1037341" data-name="Trazado 1037341" d="M58.885,0H19.628a.935.935,0,0,0-.935.935v2.8h-2.8a.935.935,0,0,0-.935.935v6.543H10.282a2.8,2.8,0,0,0-2.632,1.869H5.436A2.8,2.8,0,0,0,0,14.02v9.347a2.8,2.8,0,0,0,5.436.935H7.649a2.8,2.8,0,0,0,2.165,1.822v.982a2.8,2.8,0,0,0,1.869,2.632v26.81a3.264,3.264,0,0,0,6.216,1.4H55.146a.935.935,0,0,0,.935-.935v-2.8h2.8a.935.935,0,0,0,.935-.935V.935A.935.935,0,0,0,58.885,0ZM3.739,23.367a.935.935,0,0,1-1.869,0V14.02a.935.935,0,0,1,1.869,0Zm3.739-.935H5.608V14.955H7.477Zm2.8,1.869a.935.935,0,0,1-.935-.935V14.02a.935.935,0,0,1,.935-.935h9.347a.935.935,0,0,1,.935.935v9.347a.935.935,0,0,1-.935.935Zm6.075,5.608v1.869h-2.8V29.91Zm-2.8,3.739h2.8v1.869h-2.8Zm3.739-5.608H12.618a.935.935,0,0,1-.935-.935v-.935h6.543v.935A.935.935,0,0,1,17.292,28.041ZM14.955,57.95a1.4,1.4,0,0,1-1.4-1.4V37.387h2.8V56.548a1.4,1.4,0,0,1-1.4,1.4Zm39.257-1.869H18.226V29.738A2.8,2.8,0,0,0,20.1,27.106v-.982A2.8,2.8,0,0,0,22.26,24.3h2.213a2.8,2.8,0,0,0,5.436-.935V14.02a2.8,2.8,0,0,0-5.436-.935H22.26a2.8,2.8,0,0,0-2.632-1.869h-2.8V5.608h15.89v7.477a.935.935,0,0,0,1.543.709l2.663-2.283L39.583,13.8a.935.935,0,0,0,1.543-.709V5.608h2.8v5.608a.935.935,0,0,0,.935.935h9.347ZM22.432,22.432V14.955H24.3v7.477Zm3.739.935V14.02a.935.935,0,0,1,1.869,0v9.347a.935.935,0,1,1-1.869,0ZM34.583,5.608h4.673v5.445L37.529,9.572a.935.935,0,0,0-1.215,0l-1.73,1.481ZM45.8,10.282V6.376l6.137,3.905ZM57.95,52.342H56.081V11.216a.935.935,0,0,0-.433-.789L45.367,3.885a.935.935,0,0,0-.5-.146h-24.3V1.869H57.95Z" transform="translate(0)"/>
    </g>
  </g>
</svg>
