<svg xmlns="http://www.w3.org/2000/svg" xmlns:xlink="http://www.w3.org/1999/xlink" width="117.999" height="118" viewBox="0 0 117.999 118">
  <defs>
    <filter id="Trazado_874925" x="0" y="0" width="117.999" height="118" filterUnits="userSpaceOnUse">
      <feOffset dy="3" input="SourceAlpha"/>
      <feGaussianBlur stdDeviation="3" result="blur"/>
      <feFlood flood-opacity="0.161"/>
      <feComposite operator="in" in2="blur"/>
      <feComposite in="SourceGraphic"/>
    </filter>
  </defs>
  <g id="Grupo_1200645" data-name="Grupo 1200645" transform="translate(-793.782 -1519.938)">
    <g id="Grupo_1198895" data-name="Grupo 1198895" transform="translate(-5.719 -991.219)">
      <g id="Grupo_1111316" data-name="Grupo 1111316" transform="translate(808.5 2517.157)">
        <g id="Grupo_1109835" data-name="Grupo 1109835" transform="translate(0 0)">
          <g id="Grupo_1107913" data-name="Grupo 1107913" transform="translate(0 0)">
            <g transform="matrix(1, 0, 0, 1, -9, -6)" filter="url(#Trazado_874925)">
              <g id="Trazado_874925-2" data-name="Trazado 874925" transform="translate(9 6)" fill="#9ad354" opacity="0.859">
                <path d="M 49.99972534179688 98.4998779296875 C 43.45164108276367 98.4998779296875 37.10022354125977 97.21776580810547 31.12189674377441 94.68914794921875 C 25.34676742553711 92.24647521972656 20.15985298156738 88.74925994873047 15.70523929595947 84.29464721679688 C 11.25062561035156 79.84004974365234 7.753411293029785 74.65313720703125 5.310725212097168 68.87800598144531 C 2.782111167907715 62.89969253540039 1.499996781349182 56.54829406738281 1.499996781349182 50.00022125244141 C 1.499996781349182 43.45157623291016 2.782111167907715 37.10017776489258 5.310725212097168 31.12186431884766 C 7.753411293029785 25.34673500061035 11.25062561035156 20.15983581542969 15.70523929595947 15.70522117614746 C 20.15985298156738 11.25062084197998 25.34676742553711 7.753406524658203 31.12189674377441 5.31073522567749 C 37.10022354125977 2.782120943069458 43.45164108276367 1.500006556510925 49.99972534179688 1.500006556510925 C 56.54780960083008 1.500006556510925 62.89922714233398 2.782120943069458 68.87755584716797 5.31073522567749 C 74.65267944335938 7.753406524658203 79.839599609375 11.25062084197998 84.29421234130859 15.70522117614746 C 88.74882507324219 20.15983581542969 92.24604034423828 25.34673500061035 94.68872833251953 31.12186431884766 C 97.21733856201172 37.10017776489258 98.49945068359375 43.45157623291016 98.49945068359375 49.99964904785156 C 98.49945068359375 56.54829406738281 97.21733856201172 62.89969253540039 94.68872833251953 68.87800598144531 C 92.24604034423828 74.65313720703125 88.74882507324219 79.84004974365234 84.29421234130859 84.29464721679688 C 79.839599609375 88.74925994873047 74.65267944335938 92.24647521972656 68.87755584716797 94.68914794921875 C 62.89922714233398 97.21776580810547 56.54780960083008 98.4998779296875 49.99972534179688 98.4998779296875 Z" stroke="none"/>
                <path d="M 49.99972534179688 3 C 43.65348052978516 3 37.49866485595703 4.242240905761719 31.70623016357422 6.692230224609375 C 26.10989379882812 9.059272766113281 21.08323669433594 12.44853210449219 16.76589202880859 16.76587677001953 C 12.44855499267578 21.08321380615234 9.059295654296875 26.10985565185547 6.692230224609375 31.70618438720703 C 4.24224853515625 37.49859619140625 3 43.65341186523438 3 50.00022888183594 C 3 56.34645843505859 4.24224853515625 62.50127410888672 6.692230224609375 68.29368591308594 C 9.059295654296875 73.8900146484375 12.44855499267578 78.91665649414062 16.76589202880859 83.23399353027344 C 21.08323669433594 87.55132293701172 26.10989379882812 90.94059753417969 31.70623016357422 93.30764007568359 C 37.49866485595703 95.75762939453125 43.65348052978516 96.99987030029297 49.99972534179688 96.99987030029297 C 56.34597015380859 96.99987030029297 62.50078582763672 95.75762939453125 68.293212890625 93.30764007568359 C 73.88955688476562 90.94059753417969 78.91621398925781 87.55132293701172 83.23355865478516 83.23399353027344 C 87.55089569091797 78.91665649414062 90.94015502929688 73.8900146484375 93.30722045898438 68.29368591308594 C 95.7572021484375 62.50127410888672 96.99945068359375 56.34645843505859 96.99945068359375 49.99964141845703 C 96.99945068359375 43.65341186523438 95.7572021484375 37.49859619140625 93.30722045898438 31.70618438720703 C 90.94015502929688 26.10985565185547 87.55089569091797 21.08321380615234 83.23355865478516 16.76587677001953 C 78.91621398925781 12.44853210449219 73.88955688476562 9.059272766113281 68.293212890625 6.692230224609375 C 62.50078582763672 4.242240905761719 56.34597015380859 3 49.99972534179688 3 M 49.99972534179688 0 C 77.61381530761719 0 99.99945068359375 22.38559722900391 99.99945068359375 49.99964141845703 L 99.99945068359375 50.00022888183594 C 99.99945068359375 77.6142578125 77.61381530761719 99.99987030029297 49.99972534179688 99.99987030029297 C 22.38563537597656 99.99987030029297 0 77.6142578125 0 50.00022888183594 L 0 49.99964141845703 C 0 22.38559722900391 22.38563537597656 0 49.99972534179688 0 Z" stroke="none" fill="#fff"/>
              </g>
            </g>
            <g id="Trazado_874923" data-name="Trazado 874923" transform="translate(0 0)" fill="none">
              <path d="M50,0a50,50,0,0,1,50,50h0A50,50,0,0,1,0,50H0A50,50,0,0,1,50,0Z" stroke="none"/>
              <path d="M 49.99972534179688 3 C 43.65348052978516 3 37.49866485595703 4.242240905761719 31.70623016357422 6.692230224609375 C 26.10989379882812 9.059272766113281 21.08323669433594 12.44853210449219 16.76589202880859 16.76587677001953 C 12.44855499267578 21.08321380615234 9.059295654296875 26.10985565185547 6.692230224609375 31.70618438720703 C 4.24224853515625 37.49859619140625 3 43.65341186523438 3 50.00022888183594 C 3 56.34645843505859 4.24224853515625 62.50127410888672 6.692230224609375 68.29368591308594 C 9.059295654296875 73.8900146484375 12.44855499267578 78.91665649414062 16.76589202880859 83.23399353027344 C 21.08323669433594 87.55132293701172 26.10989379882812 90.94059753417969 31.70623016357422 93.30764007568359 C 37.49866485595703 95.75762939453125 43.65348052978516 96.99987030029297 49.99972534179688 96.99987030029297 C 56.34597015380859 96.99987030029297 62.50078582763672 95.75762939453125 68.293212890625 93.30764007568359 C 73.88955688476562 90.94059753417969 78.91621398925781 87.55132293701172 83.23355865478516 83.23399353027344 C 87.55089569091797 78.91665649414062 90.94015502929688 73.8900146484375 93.30722045898438 68.29368591308594 C 95.7572021484375 62.50127410888672 96.99945068359375 56.34645843505859 96.99945068359375 49.99964141845703 C 96.99945068359375 43.65341186523438 95.7572021484375 37.49859619140625 93.30722045898438 31.70618438720703 C 90.94015502929688 26.10985565185547 87.55089569091797 21.08321380615234 83.23355865478516 16.76587677001953 C 78.91621398925781 12.44853210449219 73.88955688476562 9.059272766113281 68.293212890625 6.692230224609375 C 62.50078582763672 4.242240905761719 56.34597015380859 3 49.99972534179688 3 M 49.99972534179688 0 C 77.61381530761719 0 99.99945068359375 22.38559722900391 99.99945068359375 49.99964141845703 L 99.99945068359375 50.00022888183594 C 99.99945068359375 77.6142578125 77.61381530761719 99.99987030029297 49.99972534179688 99.99987030029297 C 22.38563537597656 99.99987030029297 0 77.6142578125 0 50.00022888183594 L 0 49.99964141845703 C 0 22.38559722900391 22.38563537597656 0 49.99972534179688 0 Z" stroke="none" fill="#fff"/>
            </g>
          </g>
        </g>
      </g>
    </g>
    <g id="educacion_15_" data-name="educacion (15)" transform="translate(822.146 1540.428)">
      <g id="Grupo_1200644" data-name="Grupo 1200644" transform="translate(1.066 5.747)">
        <path id="Trazado_1037007" data-name="Trazado 1037007" d="M101.771,233.8a12.253,12.253,0,0,0-.073,9.075l1,1.958H59.554s-8.032-4.513,0-12.546l42.771-.881Z" transform="translate(-50.241 -204.633)" fill="#f1f2f2"/>
        <path id="Trazado_1037008" data-name="Trazado 1037008" d="M102.7,244.832H59.557s-8.032-4.514,0-12.546l42.771-.882-.555,2.395a11.748,11.748,0,0,0-.609,1.946H62.015a2.749,2.749,0,1,0,0,5.5h39.164a10.562,10.562,0,0,0,.522,1.63Z" transform="translate(-50.244 -204.632)" fill="#dee1e1"/>
        <path id="Trazado_1037009" data-name="Trazado 1037009" d="M86.112,236.086l-39.436-.062c-4.725,0-8.782-3.014-8.782-7.738a10.764,10.764,0,0,1,.16-3.336,8.558,8.558,0,0,1,8.026-5.587H86.537a1.93,1.93,0,1,1,0,3.859H55.918l-2.99.7-2.6-.7H46.08a4.7,4.7,0,0,0,0,9.391H86.537a1.931,1.931,0,0,1,1.916,2.157C88.341,235.727,87.1,236.086,86.112,236.086Z" transform="translate(-34.309 -194.053)" fill="#b7e546"/>
        <path id="Trazado_1037010" data-name="Trazado 1037010" d="M86.136,271.549a1.929,1.929,0,0,1-1.916,1.7l-19.988,1.2-20.47-1.2a8.559,8.559,0,0,1-7.825-12.017v1.759a8.555,8.555,0,0,0,8.555,8.555Z" transform="translate(-31.992 -230.834)" fill="#abd641"/>
        <path id="Trazado_1037011" data-name="Trazado 1037011" d="M147.2,256.717v-5.625h-4.01l-1.424.143.085,5.239a.243.243,0,0,0,.332.226l1.006-.246,1.126-.441a.243.243,0,0,1,.177,0l2.375.93A.243.243,0,0,0,147.2,256.717Z" transform="translate(-125.589 -221.924)" fill="#ef5227"/>
        <path id="Trazado_1037012" data-name="Trazado 1037012" d="M142.051,251.095v5.362l-1.249.489a.243.243,0,0,1-.332-.226v-5.625Z" transform="translate(-124.452 -221.927)" fill="#d83724"/>
        <path id="Trazado_1037013" data-name="Trazado 1037013" d="M137.818,173.232v2.743l-.122,1.216a.852.852,0,0,1-.851.851l-32.415-.122a.851.851,0,0,1-.851-.851l-.243-3.837,16.64-.8Z" transform="translate(-91.834 -152.836)" fill="#fdcd08"/>
        <path id="Trazado_1037014" data-name="Trazado 1037014" d="M438.1,197.8c-.761,1.877-1.527,3.729-2.289,5.605a1.7,1.7,0,0,0,1.564,2.351l1.408.122h3.425a1.7,1.7,0,0,0,1.564-2.351l-1.588-3.914-1-1.813H438.1Z" transform="translate(-383.759 -175.112)" fill="#fdcd08"/>
        <path id="Trazado_1037015" data-name="Trazado 1037015" d="M438.451,197.986a4.624,4.624,0,0,0,2.857-.692l-.854-2.134-1.411.422h0l-1.839-.245c-.232.573-.57,1.386-.8,1.959h0l-1.587,3.913a1.7,1.7,0,0,0,1.563,2.351h1.946a1.7,1.7,0,0,1-1.563-2.351l1.186-2.922A.491.491,0,0,1,438.451,197.986Z" transform="translate(-382.884 -172.796)" fill="#faab18"/>
        <path id="Trazado_1037016" data-name="Trazado 1037016" d="M452.889,160.648a2.833,2.833,0,0,0-1.9-2.681c-.286-.1-.7.077-1.021.077a2.389,2.389,0,0,0-2.505,2.6,2.474,2.474,0,0,0,2.711,2.5c.319,0,.529.276.815.177a2.833,2.833,0,0,0,1.9-2.681Z" transform="translate(-394.111 -140.099)" fill="#fdcd08"/>
        <path id="Trazado_1037017" data-name="Trazado 1037017" d="M449.6,162.441a2.767,2.767,0,0,1-.912.153,2.835,2.835,0,0,1,0-5.669,2.767,2.767,0,0,1,.912.153,2.844,2.844,0,0,0,0,5.362Z" transform="translate(-392.712 -139.21)" fill="#faab18"/>
        <path id="Trazado_1037018" data-name="Trazado 1037018" d="M69.318,22.466,61.3,25.244l-2.189-.225L43.535,31.392a5.1,5.1,0,0,1-3.339,0L24.624,25.268l-2.189-.024-8.023-2.777a1.021,1.021,0,0,1,0-1.929L40.5,11.506a4.173,4.173,0,0,1,2.731,0l26.088,9.031A1.021,1.021,0,0,1,69.318,22.466Z" transform="translate(-13.123 -11.277)" fill="#868491"/>
        <path id="Trazado_1037019" data-name="Trazado 1037019" d="M124.2,83.305v.823l-17.761,6.148a5.1,5.1,0,0,1-3.34,0l-17.76-6.148v-.823a3.578,3.578,0,0,1,2.948-3.525,93.412,93.412,0,0,1,32.964,0,3.581,3.581,0,0,1,2.948,3.525Z" transform="translate(-76.023 -70.161)" fill="#77777f"/>
        <path id="Trazado_1037020" data-name="Trazado 1037020" d="M139.575,99.116v7.253H105.458l-.122-7.009a1.392,1.392,0,0,1,1.146-1.37c.347-.062.452-.366.8-.424a91.195,91.195,0,0,1,31.147.181,1.393,1.393,0,0,1,1.146,1.369Z" transform="translate(-93.591 -85.972)" fill="#868491"/>
        <path id="Trazado_1037021" data-name="Trazado 1037021" d="M137.818,175.975v1.338a.852.852,0,0,1-.851.851H104.187a.851.851,0,0,1-.851-.851v-4.081l1.095-.8,1.095.8v2.135a.608.608,0,0,0,.608.608Z" transform="translate(-91.834 -152.836)" fill="#faab18"/>
        <path id="Trazado_1037022" data-name="Trazado 1037022" d="M105.525,106.6v8.8h-2.189v-7.253a1.392,1.392,0,0,1,1.146-1.369C104.83,106.723,105.177,106.662,105.525,106.6Z" transform="translate(-91.834 -95.011)" fill="#77777f"/>
        <path id="Trazado_1037023" data-name="Trazado 1037023" d="M85.142,391.014a11.444,11.444,0,0,1,0-8.759l.37-1.644H35.778s-5.6,6.087.364,12.049l49.694.373Z" transform="translate(-30.399 -335.69)" fill="#f1f2f2"/>
        <path id="Trazado_1037024" data-name="Trazado 1037024" d="M85.836,393.035l-49.694-.372c-5.963-5.962-.364-12.048-.364-12.048l49.973.092-.609,1.551a11.4,11.4,0,0,0-.544,1.659H38.954a2.749,2.749,0,1,0,0,5.5h45.66a11.536,11.536,0,0,0,.529,1.6Z" transform="translate(-30.399 -335.694)" fill="#dee1e1"/>
        <path id="Trazado_1037025" data-name="Trazado 1037025" d="M68.089,376.716l-44.965-.083c-4.725,0-8.881-2.666-8.881-7.391,0-1.5-.367-3.564.311-4.789a8.552,8.552,0,0,1,7.491-4.42h46.89a1.93,1.93,0,1,1,0,3.859H57.316l-3.036.672-2.555-.672H22.045a4.7,4.7,0,0,0,0,9.391h46.89a1.931,1.931,0,0,1,1.9,2.278c-.164.9-1.8,1.155-2.743,1.155Z" transform="translate(-13.49 -317.615)" fill="#ef5227"/>
        <path id="Trazado_1037026" data-name="Trazado 1037026" d="M66.111,404.154a1.932,1.932,0,0,1-1.9,1.581H17.323a8.556,8.556,0,0,1-7.217-13.15V395.6a8.555,8.555,0,0,0,8.555,8.555Z" transform="translate(-8.768 -346.208)" fill="#d83724"/>
        <path id="Trazado_1037027" data-name="Trazado 1037027" d="M329.841,397.42v-5.671h-3.767l-1.671.1.089,5.326a.243.243,0,0,0,.332.226l1.249-.341.883-.346a.242.242,0,0,1,.177,0l2.375.93A.243.243,0,0,0,329.841,397.42Z" transform="translate(-286.015 -345.474)" fill="#fdcd08"/>
        <path id="Trazado_1037028" data-name="Trazado 1037028" d="M324.964,391.745v5.314l-1.492.584a.243.243,0,0,1-.332-.226v-5.671Z" transform="translate(-284.904 -345.47)" fill="#faab18"/>
      </g>
      <path id="Trazado_1037029" data-name="Trazado 1037029" d="M62.08,33.421,60.055,28.43a3.706,3.706,0,0,0-1.881-5.98c0-.24,0-6.251,0-6.506a1.893,1.893,0,0,0-1.289-1.81L31.24,5.256a5.036,5.036,0,0,0-3.281,0l-6.385,2.21a.912.912,0,1,0,.6,1.724l6.385-2.21a3.2,3.2,0,0,1,2.088,0l25.646,8.878a.091.091,0,0,1,0,.173L47.46,19.087v-.273a2.278,2.278,0,0,0-1.878-2.244,90.249,90.249,0,0,0-31.967,0,2.278,2.278,0,0,0-1.878,2.244v.273L2.91,16.031a.091.091,0,0,1,0-.173l15.164-5.249a.912.912,0,1,0-.6-1.724L2.313,14.134a1.916,1.916,0,0,0,0,3.621l9.425,3.263v9.028A9.464,9.464,0,0,0,7.423,47.332,9.466,9.466,0,0,0,9.467,66.041h46.89a2.841,2.841,0,0,0,.058-5.682,10.45,10.45,0,0,1-.022-7.569,2.841,2.841,0,0,0-.036-5.683h-.563a2.84,2.84,0,0,0-2.653-3.859h-.025a10.444,10.444,0,0,1-.172-7.087,2.562,2.562,0,0,0,1.883.826H59.7a2.566,2.566,0,0,0,2.13-1.137,2.6,2.6,0,0,0,.252-2.43Zm-2.97-7.388a1.848,1.848,0,1,1-1.848-1.874A1.863,1.863,0,0,1,59.11,26.033ZM56.35,17.94v4.51a3.706,3.706,0,0,0-1.881,5.98L53.833,30H47.46v-8.98Zm-42.413.426a88.447,88.447,0,0,1,31.323,0,.455.455,0,0,1,.375.448v6.217H40.015a.912.912,0,1,0,0,1.824h5.621V30H13.562V26.856h22.2a.912.912,0,0,0,0-1.824h-22.2V18.814a.455.455,0,0,1,.375-.448ZM57.374,49.949a1.019,1.019,0,0,1-1.017,1.017H9.467a5.608,5.608,0,1,0,0,11.215H45.488a.912.912,0,0,0,0-1.824H9.467a3.783,3.783,0,1,1,0-7.566H38.236V57.9a.912.912,0,0,0,1.245.849l2.463-.964,2.463.964a.912.912,0,0,0,1.245-.849V52.791h8.805a12.243,12.243,0,0,0,.018,7.566H49.745a.912.912,0,1,0,0,1.824h6.611a1.017,1.017,0,0,1,0,2.035H9.467a7.642,7.642,0,0,1,0-15.285h46.89a1.019,1.019,0,0,1,1.018,1.017ZM40.06,52.791h3.767v3.777l-1.551-.607a.912.912,0,0,0-.665,0l-1.551.607ZM24.447,45.073H53.14a1.017,1.017,0,0,1,0,2.035H12.683a7.642,7.642,0,0,1,0-15.285h40.41c-.225.6-.642,1.463-.782,2.035H12.683a5.608,5.608,0,1,0,0,11.215H20.19a.912.912,0,0,0,0-1.824H12.683a3.783,3.783,0,1,1,0-7.566h3.335v5.07a.912.912,0,0,0,1.245.849l2.463-.964,2.463.964a.912.912,0,0,0,1.245-.849v-5.07H51.178a12.244,12.244,0,0,0,0,7.566H24.447a.912.912,0,0,0,0,1.825Zm-6.6-9.391h3.767v3.733l-1.551-.607a.912.912,0,0,0-.665,0l-1.551.607Zm42.472-.85a.739.739,0,0,1-.617.331h-4.87a.74.74,0,0,1-.617-.331.765.765,0,0,1-.075-.725L56,29.507a3.652,3.652,0,0,0,2.522,0l1.866,4.6A.764.764,0,0,1,60.315,34.832Z" transform="translate(0 0)"/>
    </g>
  </g>
</svg>
