<svg xmlns="http://www.w3.org/2000/svg" xmlns:xlink="http://www.w3.org/1999/xlink" width="118" height="118" viewBox="0 0 118 118">
  <defs>
    <filter id="Trazado_874925" x="0" y="0" width="117.999" height="118" filterUnits="userSpaceOnUse">
      <feOffset dy="3" input="SourceAlpha"/>
      <feGaussianBlur stdDeviation="3" result="blur"/>
      <feFlood flood-opacity="0.161"/>
      <feComposite operator="in" in2="blur"/>
      <feComposite in="SourceGraphic"/>
    </filter>
  </defs>
  <g id="Grupo_1200646" data-name="Grupo 1200646" transform="translate(-1108.781 -1519.938)">
    <g id="Grupo_1198896" data-name="Grupo 1198896" transform="translate(309.281 -991.219)">
      <g id="Grupo_1111316" data-name="Grupo 1111316" transform="translate(808.5 2517.157)">
        <g id="Grupo_1109835" data-name="Grupo 1109835" transform="translate(0 0)">
          <g id="Grupo_1107913" data-name="Grupo 1107913" transform="translate(0 0)">
            <g transform="matrix(1, 0, 0, 1, -9, -6)" filter="url(#Trazado_874925)">
              <g id="Trazado_874925-2" data-name="Trazado 874925" transform="translate(9 6)" fill="#9ad354" opacity="0.859">
                <path d="M 49.99972534179688 98.4998779296875 C 43.45164108276367 98.4998779296875 37.10022354125977 97.21776580810547 31.12189674377441 94.68914794921875 C 25.34676742553711 92.24647521972656 20.15985298156738 88.74925994873047 15.70523929595947 84.29464721679688 C 11.25062561035156 79.84004974365234 7.753411293029785 74.65313720703125 5.310725212097168 68.87800598144531 C 2.782111167907715 62.89969253540039 1.499996781349182 56.54829406738281 1.499996781349182 50.00022125244141 C 1.499996781349182 43.45157623291016 2.782111167907715 37.10017776489258 5.310725212097168 31.12186431884766 C 7.753411293029785 25.34673500061035 11.25062561035156 20.15983581542969 15.70523929595947 15.70522117614746 C 20.15985298156738 11.25062084197998 25.34676742553711 7.753406524658203 31.12189674377441 5.31073522567749 C 37.10022354125977 2.782120943069458 43.45164108276367 1.500006556510925 49.99972534179688 1.500006556510925 C 56.54780960083008 1.500006556510925 62.89922714233398 2.782120943069458 68.87755584716797 5.31073522567749 C 74.65267944335938 7.753406524658203 79.839599609375 11.25062084197998 84.29421234130859 15.70522117614746 C 88.74882507324219 20.15983581542969 92.24604034423828 25.34673500061035 94.68872833251953 31.12186431884766 C 97.21733856201172 37.10017776489258 98.49945068359375 43.45157623291016 98.49945068359375 49.99964904785156 C 98.49945068359375 56.54829406738281 97.21733856201172 62.89969253540039 94.68872833251953 68.87800598144531 C 92.24604034423828 74.65313720703125 88.74882507324219 79.84004974365234 84.29421234130859 84.29464721679688 C 79.839599609375 88.74925994873047 74.65267944335938 92.24647521972656 68.87755584716797 94.68914794921875 C 62.89922714233398 97.21776580810547 56.54780960083008 98.4998779296875 49.99972534179688 98.4998779296875 Z" stroke="none"/>
                <path d="M 49.99972534179688 3 C 43.65348052978516 3 37.49866485595703 4.242240905761719 31.70623016357422 6.692230224609375 C 26.10989379882812 9.059272766113281 21.08323669433594 12.44853210449219 16.76589202880859 16.76587677001953 C 12.44855499267578 21.08321380615234 9.059295654296875 26.10985565185547 6.692230224609375 31.70618438720703 C 4.24224853515625 37.49859619140625 3 43.65341186523438 3 50.00022888183594 C 3 56.34645843505859 4.24224853515625 62.50127410888672 6.692230224609375 68.29368591308594 C 9.059295654296875 73.8900146484375 12.44855499267578 78.91665649414062 16.76589202880859 83.23399353027344 C 21.08323669433594 87.55132293701172 26.10989379882812 90.94059753417969 31.70623016357422 93.30764007568359 C 37.49866485595703 95.75762939453125 43.65348052978516 96.99987030029297 49.99972534179688 96.99987030029297 C 56.34597015380859 96.99987030029297 62.50078582763672 95.75762939453125 68.293212890625 93.30764007568359 C 73.88955688476562 90.94059753417969 78.91621398925781 87.55132293701172 83.23355865478516 83.23399353027344 C 87.55089569091797 78.91665649414062 90.94015502929688 73.8900146484375 93.30722045898438 68.29368591308594 C 95.7572021484375 62.50127410888672 96.99945068359375 56.34645843505859 96.99945068359375 49.99964141845703 C 96.99945068359375 43.65341186523438 95.7572021484375 37.49859619140625 93.30722045898438 31.70618438720703 C 90.94015502929688 26.10985565185547 87.55089569091797 21.08321380615234 83.23355865478516 16.76587677001953 C 78.91621398925781 12.44853210449219 73.88955688476562 9.059272766113281 68.293212890625 6.692230224609375 C 62.50078582763672 4.242240905761719 56.34597015380859 3 49.99972534179688 3 M 49.99972534179688 0 C 77.61381530761719 0 99.99945068359375 22.38559722900391 99.99945068359375 49.99964141845703 L 99.99945068359375 50.00022888183594 C 99.99945068359375 77.6142578125 77.61381530761719 99.99987030029297 49.99972534179688 99.99987030029297 C 22.38563537597656 99.99987030029297 0 77.6142578125 0 50.00022888183594 L 0 49.99964141845703 C 0 22.38559722900391 22.38563537597656 0 49.99972534179688 0 Z" stroke="none" fill="#fff"/>
              </g>
            </g>
            <g id="Trazado_874923" data-name="Trazado 874923" transform="translate(0 0)" fill="none">
              <path d="M50,0a50,50,0,0,1,50,50h0A50,50,0,0,1,0,50H0A50,50,0,0,1,50,0Z" stroke="none"/>
              <path d="M 49.99972534179688 3 C 43.65348052978516 3 37.49866485595703 4.242240905761719 31.70623016357422 6.692230224609375 C 26.10989379882812 9.059272766113281 21.08323669433594 12.44853210449219 16.76589202880859 16.76587677001953 C 12.44855499267578 21.08321380615234 9.059295654296875 26.10985565185547 6.692230224609375 31.70618438720703 C 4.24224853515625 37.49859619140625 3 43.65341186523438 3 50.00022888183594 C 3 56.34645843505859 4.24224853515625 62.50127410888672 6.692230224609375 68.29368591308594 C 9.059295654296875 73.8900146484375 12.44855499267578 78.91665649414062 16.76589202880859 83.23399353027344 C 21.08323669433594 87.55132293701172 26.10989379882812 90.94059753417969 31.70623016357422 93.30764007568359 C 37.49866485595703 95.75762939453125 43.65348052978516 96.99987030029297 49.99972534179688 96.99987030029297 C 56.34597015380859 96.99987030029297 62.50078582763672 95.75762939453125 68.293212890625 93.30764007568359 C 73.88955688476562 90.94059753417969 78.91621398925781 87.55132293701172 83.23355865478516 83.23399353027344 C 87.55089569091797 78.91665649414062 90.94015502929688 73.8900146484375 93.30722045898438 68.29368591308594 C 95.7572021484375 62.50127410888672 96.99945068359375 56.34645843505859 96.99945068359375 49.99964141845703 C 96.99945068359375 43.65341186523438 95.7572021484375 37.49859619140625 93.30722045898438 31.70618438720703 C 90.94015502929688 26.10985565185547 87.55089569091797 21.08321380615234 83.23355865478516 16.76587677001953 C 78.91621398925781 12.44853210449219 73.88955688476562 9.059272766113281 68.293212890625 6.692230224609375 C 62.50078582763672 4.242240905761719 56.34597015380859 3 49.99972534179688 3 M 49.99972534179688 0 C 77.61381530761719 0 99.99945068359375 22.38559722900391 99.99945068359375 49.99964141845703 L 99.99945068359375 50.00022888183594 C 99.99945068359375 77.6142578125 77.61381530761719 99.99987030029297 49.99972534179688 99.99987030029297 C 22.38563537597656 99.99987030029297 0 77.6142578125 0 50.00022888183594 L 0 49.99964141845703 C 0 22.38559722900391 22.38563537597656 0 49.99972534179688 0 Z" stroke="none" fill="#fff"/>
            </g>
          </g>
        </g>
      </g>
    </g>
    <g id="Fill_out_line" data-name="Fill out line" transform="translate(1124.313 1532.47)">
      <path id="Trazado_1037030" data-name="Trazado 1037030" d="M369.614,31.325a2.289,2.289,0,0,0,2.289-2.289V27.662A3.662,3.662,0,0,0,368.24,24H360v7.325Z" transform="translate(-304.629 -7.084)" fill="#f0bca1"/>
      <path id="Trazado_1037031" data-name="Trazado 1037031" d="M119.131,77.105H88V27.662A3.662,3.662,0,0,1,91.662,24h34.793a3.662,3.662,0,0,0-3.662,3.662v45.78A3.662,3.662,0,0,1,119.131,77.105Z" transform="translate(-63.76 -7.084)" fill="#ffd9b5"/>
      <path id="Trazado_1037032" data-name="Trazado 1037032" d="M306.289,424a2.289,2.289,0,0,1,2.289,2.289v1.373H304V424Z" transform="translate(-255.038 -361.304)" fill="#f5c9aa"/>
      <path id="Trazado_1037033" data-name="Trazado 1037033" d="M56.046,429.036a2.289,2.289,0,0,0,2.289,2.289H26.289A2.289,2.289,0,0,1,24,429.036v-2.747A2.289,2.289,0,0,1,26.289,424H58.335a2.289,2.289,0,0,0-2.289,2.289Z" transform="translate(-7.084 -361.304)" fill="#ffe3cd"/>
      <path id="Trazado_1037034" data-name="Trazado 1037034" d="M392,56h3.662v1.373a2.289,2.289,0,0,0,2.289,2.289H392Z" transform="translate(-332.967 -35.422)" fill="#f5c9aa"/>
      <path id="Trazado_1037035" data-name="Trazado 1037035" d="M219.662,113.156H216l.916-9.156h1.831Z" transform="translate(-177.11 -77.928)" fill="#ba8b5d"/>
      <path id="Trazado_1037036" data-name="Trazado 1037036" d="M131.662,141.494A3.667,3.667,0,0,1,128,137.831v-.916a.916.916,0,0,1,.916-.916h5.494a.916.916,0,0,1,.916.916v.916A3.667,3.667,0,0,1,131.662,141.494Z" transform="translate(-99.182 -106.266)" fill="#fab53f"/>
      <path id="Trazado_1037037" data-name="Trazado 1037037" d="M275.662,141.494A3.667,3.667,0,0,1,272,137.831v-.916a.916.916,0,0,1,.916-.916h5.494a.916.916,0,0,1,.916.916v.916A3.667,3.667,0,0,1,275.662,141.494Z" transform="translate(-226.701 -106.266)" fill="#fab53f"/>
      <rect id="Rectángulo_408866" data-name="Rectángulo 408866" width="8.931" height="3.572" rx="1.786" transform="translate(36.541 35.648)" fill="#9f764a"/>
      <path id="Trazado_1037038" data-name="Trazado 1037038" d="M157.975,62.093a1.831,1.831,0,0,0-1.831-1.831h-.916a5.179,5.179,0,0,0-7.325,0h-1.831a5.179,5.179,0,0,0-7.325,0h-.916a1.831,1.831,0,0,0,0,3.662h.916a5.179,5.179,0,0,1,7.325,0H147.9a5.179,5.179,0,0,1,7.325,0h.916A1.831,1.831,0,0,0,157.975,62.093Z" transform="translate(-106.266 -37.853)" fill="#9f764a"/>
      <path id="Trazado_1037039" data-name="Trazado 1037039" d="M367.565,145.831l-1.422,2.843-.819,1.639-8.746,17.493L352,172.384l.642-4.5.274-1.911,8.746-17.494.819-1.638L363.9,144Z" transform="translate(-297.545 -113.35)" fill="#529ddf"/>
      <path id="Trazado_1037040" data-name="Trazado 1037040" d="M361.546,337.831l-1.365,1.365-2.571-1.285.274-1.911Z" transform="translate(-302.513 -283.376)" fill="#4384c3"/>
      <path id="Trazado_1037041" data-name="Trazado 1037041" d="M355.213,353.985,352,357.2l.642-4.5Z" transform="translate(-297.545 -298.164)" fill="#68737f"/>
      <path id="Trazado_1037042" data-name="Trazado 1037042" d="M360.89,137.927l-3.662-1.831A.916.916,0,0,0,356,136.5l-1.422,2.843-.889-.445a2.976,2.976,0,0,0-4.066,1.489l-1.886,4.4,1.683.721,1.886-4.4a1.144,1.144,0,0,1,1.564-.573l.889.445-8.747,17.493a.915.915,0,0,0-.088.28l-.916,6.409a.916.916,0,0,0,1.554.777l4.578-4.578a.918.918,0,0,0,.171-.238L361.3,139.155a.916.916,0,0,0-.409-1.228ZM348.74,160.178l-2.531,2.531.506-3.543,8.68-17.36,2.024,1.012Zm9.5-19-2.024-1.012,1.012-2.025,2.024,1.012Z" transform="translate(-290.46 -106.265)"/>
      <path id="Trazado_1037043" data-name="Trazado 1037043" d="M81.832,20.578a2.75,2.75,0,0,1,2.747-2.747h31.133a4.555,4.555,0,0,0-.918,2.747V31.565h1.831V20.578a2.75,2.75,0,0,1,2.747-2.747h.916a2.75,2.75,0,0,1,2.747,2.747v1.373a1.373,1.373,0,0,1-2.747,0V20.578a.916.916,0,0,0-.916-.916H117.54v1.831h.916v.458a3.185,3.185,0,0,0,.309,1.373H117.54v1.831h4.12a3.208,3.208,0,0,0,3.2-3.2V20.578A4.583,4.583,0,0,0,120.287,16H84.578A4.583,4.583,0,0,0,80,20.578V59.949h1.831Z" transform="translate(-56.676)"/>
      <path id="Trazado_1037044" data-name="Trazado 1037044" d="M58.118,392.24a2.75,2.75,0,0,1-2.747,2.747h-4.12a1.375,1.375,0,0,1-1.373-1.373v-2.747a1.373,1.373,0,1,1,2.747,0v.458H50.793v1.831H53.54a.916.916,0,0,0,.916-.916v-1.373a3.208,3.208,0,0,0-3.2-3.2H19.2a3.208,3.208,0,0,0-3.2,3.2v2.747a3.208,3.208,0,0,0,3.2,3.2H55.371a4.583,4.583,0,0,0,4.578-4.578V384H58.118Zm-9.762,2.747H19.2a1.375,1.375,0,0,1-1.373-1.373v-2.747a1.375,1.375,0,0,1,1.373-1.373H48.356a3.185,3.185,0,0,0-.309,1.373v2.747A3.185,3.185,0,0,0,48.356,394.987Z" transform="translate(0 -325.882)"/>
      <path id="Trazado_1037045" data-name="Trazado 1037045" d="M128,59.9a3.662,3.662,0,0,0,7.325,0v-.916a.91.91,0,0,0-.131-.471h0L132.845,54.6a4.264,4.264,0,0,1,5.184.173l-.787,7.874h-.087a2.747,2.747,0,1,0,0,5.494h5.494a2.747,2.747,0,0,0,0-5.494h-.087l-.787-7.874a4.264,4.264,0,0,1,5.184-.173l-2.348,3.914h0a.91.91,0,0,0-.131.471V59.9a3.662,3.662,0,0,0,7.325,0v-.916a.91.91,0,0,0-.131-.471h0l-1.962-3.271a2.747,2.747,0,0,0-.654-5.414H148.5a6.1,6.1,0,0,0-7.687-.294V48h-1.831v1.537a6.1,6.1,0,0,0-7.687.294h-.554a2.747,2.747,0,0,0-.654,5.414l-1.962,3.271h0a.91.91,0,0,0-.131.471Zm3.662,1.831A1.833,1.833,0,0,1,129.83,59.9h3.662A1.833,1.833,0,0,1,131.661,61.734Zm1.13-3.662h-2.259l1.13-1.883ZM143.564,65.4a.917.917,0,0,1-.916.916h-5.494a.916.916,0,1,1,0-1.831h5.494A.917.917,0,0,1,143.564,65.4Zm-4.482-2.747.732-7.325h.174l.732,7.325Zm10.19-4.578h-2.259l1.13-1.883Zm-1.13,3.662a1.833,1.833,0,0,1-1.831-1.831h3.662A1.833,1.833,0,0,1,148.142,61.734Zm-17.4-10.072h.916a.916.916,0,0,0,.647-.268,4.264,4.264,0,0,1,6.03,0,.916.916,0,0,0,.647.268h1.831a.916.916,0,0,0,.647-.268,4.264,4.264,0,0,1,6.03,0,.916.916,0,0,0,.647.268h.916a.916.916,0,1,1,0,1.831H148.5a6.1,6.1,0,0,0-8.049,0h-1.107a6.1,6.1,0,0,0-8.049,0h-.554a.916.916,0,1,1,0-1.831Z" transform="translate(-99.18 -28.338)"/>
      <path id="Trazado_1037046" data-name="Trazado 1037046" d="M112,224h5.494v1.831H112Z" transform="translate(-85.013 -184.194)"/>
      <path id="Trazado_1037047" data-name="Trazado 1037047" d="M112,256h7.325v1.831H112Z" transform="translate(-85.013 -212.532)"/>
      <path id="Trazado_1037048" data-name="Trazado 1037048" d="M192,256h7.325v1.831H192Z" transform="translate(-155.857 -212.532)"/>
      <path id="Trazado_1037049" data-name="Trazado 1037049" d="M272,256h10.987v1.831H272Z" transform="translate(-226.701 -212.532)"/>
      <path id="Trazado_1037050" data-name="Trazado 1037050" d="M112,384h7.325v1.831H112Z" transform="translate(-85.013 -325.882)"/>
      <path id="Trazado_1037051" data-name="Trazado 1037051" d="M192,384h10.987v1.831H192Z" transform="translate(-155.857 -325.882)"/>
      <path id="Trazado_1037052" data-name="Trazado 1037052" d="M112,288h3.662v1.831H112Z" transform="translate(-85.013 -240.869)"/>
      <path id="Trazado_1037053" data-name="Trazado 1037053" d="M160,288h9.156v1.831H160Z" transform="translate(-127.519 -240.869)"/>
      <path id="Trazado_1037054" data-name="Trazado 1037054" d="M256,288h10.987v1.831H256Z" transform="translate(-212.532 -240.869)"/>
      <path id="Trazado_1037055" data-name="Trazado 1037055" d="M112,352h3.662v1.831H112Z" transform="translate(-85.013 -297.545)"/>
      <path id="Trazado_1037056" data-name="Trazado 1037056" d="M160,352h9.156v1.831H160Z" transform="translate(-127.519 -297.545)"/>
      <path id="Trazado_1037057" data-name="Trazado 1037057" d="M256,352h8.24v1.831H256Z" transform="translate(-212.532 -297.545)"/>
      <path id="Trazado_1037058" data-name="Trazado 1037058" d="M112,320h15.565v1.831H112Z" transform="translate(-85.013 -269.207)"/>
    </g>
  </g>
</svg>
