<svg xmlns="http://www.w3.org/2000/svg" xmlns:xlink="http://www.w3.org/1999/xlink" width="118" height="118" viewBox="0 0 118 118">
  <defs>
    <filter id="Trazado_874925" x="0" y="0" width="118" height="118" filterUnits="userSpaceOnUse">
      <feOffset dy="3" input="SourceAlpha"/>
      <feGaussianBlur stdDeviation="3" result="blur"/>
      <feFlood flood-opacity="0.161"/>
      <feComposite operator="in" in2="blur"/>
      <feComposite in="SourceGraphic"/>
    </filter>
  </defs>
  <g id="Grupo_1200647" data-name="Grupo 1200647" transform="translate(-6939.781 10088.062)">
    <g id="Grupo_1198898" data-name="Grupo 1198898" transform="translate(6140.281 -12599.219)">
      <g id="Grupo_1111316" data-name="Grupo 1111316" transform="translate(808.5 2517.157)">
        <g id="Grupo_1109835" data-name="Grupo 1109835" transform="translate(0 0)">
          <g id="Grupo_1107913" data-name="Grupo 1107913" transform="translate(0 0)">
            <g transform="matrix(1, 0, 0, 1, -9, -6)" filter="url(#Trazado_874925)">
              <g id="Trazado_874925-2" data-name="Trazado 874925" transform="translate(9 6)" fill="#9ad354" opacity="0.859">
                <path d="M 49.99972534179688 98.4998779296875 C 43.45164108276367 98.4998779296875 37.10022354125977 97.21776580810547 31.12189674377441 94.68914794921875 C 25.34676742553711 92.24647521972656 20.15985298156738 88.74925994873047 15.70523929595947 84.29464721679688 C 11.25062561035156 79.84004974365234 7.753411293029785 74.65313720703125 5.310725212097168 68.87800598144531 C 2.782111167907715 62.89969253540039 1.499996781349182 56.54829406738281 1.499996781349182 50.00022125244141 C 1.499996781349182 43.45157623291016 2.782111167907715 37.10017776489258 5.310725212097168 31.12186431884766 C 7.753411293029785 25.34673500061035 11.25062561035156 20.15983581542969 15.70523929595947 15.70522117614746 C 20.15985298156738 11.25062084197998 25.34676742553711 7.753406524658203 31.12189674377441 5.31073522567749 C 37.10022354125977 2.782120943069458 43.45164108276367 1.500006556510925 49.99972534179688 1.500006556510925 C 56.54780960083008 1.500006556510925 62.89922714233398 2.782120943069458 68.87755584716797 5.31073522567749 C 74.65267944335938 7.753406524658203 79.839599609375 11.25062084197998 84.29421234130859 15.70522117614746 C 88.74882507324219 20.15983581542969 92.24604034423828 25.34673500061035 94.68872833251953 31.12186431884766 C 97.21733856201172 37.10017776489258 98.49945068359375 43.45157623291016 98.49945068359375 49.99964904785156 C 98.49945068359375 56.54829406738281 97.21733856201172 62.89969253540039 94.68872833251953 68.87800598144531 C 92.24604034423828 74.65313720703125 88.74882507324219 79.84004974365234 84.29421234130859 84.29464721679688 C 79.839599609375 88.74925994873047 74.65267944335938 92.24647521972656 68.87755584716797 94.68914794921875 C 62.89922714233398 97.21776580810547 56.54780960083008 98.4998779296875 49.99972534179688 98.4998779296875 Z" stroke="none"/>
                <path d="M 49.99972534179688 3 C 43.65348052978516 3 37.49866485595703 4.242240905761719 31.70623016357422 6.692230224609375 C 26.10989379882812 9.059272766113281 21.08323669433594 12.44853210449219 16.76589202880859 16.76587677001953 C 12.44855499267578 21.08321380615234 9.059295654296875 26.10985565185547 6.692230224609375 31.70618438720703 C 4.24224853515625 37.49859619140625 3 43.65341186523438 3 50.00022888183594 C 3 56.34645843505859 4.24224853515625 62.50127410888672 6.692230224609375 68.29368591308594 C 9.059295654296875 73.8900146484375 12.44855499267578 78.91665649414062 16.76589202880859 83.23399353027344 C 21.08323669433594 87.55132293701172 26.10989379882812 90.94059753417969 31.70623016357422 93.30764007568359 C 37.49866485595703 95.75762939453125 43.65348052978516 96.99987030029297 49.99972534179688 96.99987030029297 C 56.34597015380859 96.99987030029297 62.50078582763672 95.75762939453125 68.293212890625 93.30764007568359 C 73.88955688476562 90.94059753417969 78.91621398925781 87.55132293701172 83.23355865478516 83.23399353027344 C 87.55089569091797 78.91665649414062 90.94015502929688 73.8900146484375 93.30722045898438 68.29368591308594 C 95.7572021484375 62.50127410888672 96.99945068359375 56.34645843505859 96.99945068359375 49.99964141845703 C 96.99945068359375 43.65341186523438 95.7572021484375 37.49859619140625 93.30722045898438 31.70618438720703 C 90.94015502929688 26.10985565185547 87.55089569091797 21.08321380615234 83.23355865478516 16.76587677001953 C 78.91621398925781 12.44853210449219 73.88955688476562 9.059272766113281 68.293212890625 6.692230224609375 C 62.50078582763672 4.242240905761719 56.34597015380859 3 49.99972534179688 3 M 49.99972534179688 0 C 77.61381530761719 0 99.99945068359375 22.38559722900391 99.99945068359375 49.99964141845703 L 99.99945068359375 50.00022888183594 C 99.99945068359375 77.6142578125 77.61381530761719 99.99987030029297 49.99972534179688 99.99987030029297 C 22.38563537597656 99.99987030029297 0 77.6142578125 0 50.00022888183594 L 0 49.99964141845703 C 0 22.38559722900391 22.38563537597656 0 49.99972534179688 0 Z" stroke="none" fill="#fff"/>
              </g>
            </g>
            <g id="Trazado_874923" data-name="Trazado 874923" transform="translate(0 0)" fill="none">
              <path d="M50,0a50,50,0,0,1,50,50h0A50,50,0,0,1,0,50H0A50,50,0,0,1,50,0Z" stroke="none"/>
              <path d="M 49.99972534179688 3 C 43.65348052978516 3 37.49866485595703 4.242240905761719 31.70623016357422 6.692230224609375 C 26.10989379882812 9.059272766113281 21.08323669433594 12.44853210449219 16.76589202880859 16.76587677001953 C 12.44855499267578 21.08321380615234 9.059295654296875 26.10985565185547 6.692230224609375 31.70618438720703 C 4.24224853515625 37.49859619140625 3 43.65341186523438 3 50.00022888183594 C 3 56.34645843505859 4.24224853515625 62.50127410888672 6.692230224609375 68.29368591308594 C 9.059295654296875 73.8900146484375 12.44855499267578 78.91665649414062 16.76589202880859 83.23399353027344 C 21.08323669433594 87.55132293701172 26.10989379882812 90.94059753417969 31.70623016357422 93.30764007568359 C 37.49866485595703 95.75762939453125 43.65348052978516 96.99987030029297 49.99972534179688 96.99987030029297 C 56.34597015380859 96.99987030029297 62.50078582763672 95.75762939453125 68.293212890625 93.30764007568359 C 73.88955688476562 90.94059753417969 78.91621398925781 87.55132293701172 83.23355865478516 83.23399353027344 C 87.55089569091797 78.91665649414062 90.94015502929688 73.8900146484375 93.30722045898438 68.29368591308594 C 95.7572021484375 62.50127410888672 96.99945068359375 56.34645843505859 96.99945068359375 49.99964141845703 C 96.99945068359375 43.65341186523438 95.7572021484375 37.49859619140625 93.30722045898438 31.70618438720703 C 90.94015502929688 26.10985565185547 87.55089569091797 21.08321380615234 83.23355865478516 16.76587677001953 C 78.91621398925781 12.44853210449219 73.88955688476562 9.059272766113281 68.293212890625 6.692230224609375 C 62.50078582763672 4.242240905761719 56.34597015380859 3 49.99972534179688 3 M 49.99972534179688 0 C 77.61381530761719 0 99.99945068359375 22.38559722900391 99.99945068359375 49.99964141845703 L 99.99945068359375 50.00022888183594 C 99.99945068359375 77.6142578125 77.61381530761719 99.99987030029297 49.99972534179688 99.99987030029297 C 22.38563537597656 99.99987030029297 0 77.6142578125 0 50.00022888183594 L 0 49.99964141845703 C 0 22.38559722900391 22.38563537597656 0 49.99972534179688 0 Z" stroke="none" fill="#fff"/>
            </g>
          </g>
        </g>
      </g>
    </g>
    <g id="Layer_1" data-name="Layer 1" transform="translate(6961.139 -10083.985)">
      <path id="Trazado_1037059" data-name="Trazado 1037059" d="M434.224,34.428v15a1.9,1.9,0,0,1-1.9,1.9H425.2V34.135a4.433,4.433,0,0,1,4.512-4.293A4.294,4.294,0,0,1,434.224,34.428Z" transform="translate(-366.815 -5.841)" fill="#bfbfbf"/>
      <path id="Trazado_1037060" data-name="Trazado 1037060" d="M153.888,29.842a4.517,4.517,0,0,0-4.517,4.517V77.512a2.758,2.758,0,0,1-2.758,2.758H113.282a2.758,2.758,0,0,1-2.758-2.758V34.359a4.517,4.517,0,0,1,4.517-4.517Z" transform="translate(-90.991 -5.841)" fill="#f5f5f5"/>
      <path id="Trazado_1037061" data-name="Trazado 1037061" d="M116.4,80.27h-3.115a2.758,2.758,0,0,1-2.758-2.758V34.359a4.517,4.517,0,0,1,4.517-4.517h3.115a4.517,4.517,0,0,0-4.517,4.517V77.512A2.758,2.758,0,0,0,116.4,80.27Z" transform="translate(-90.991 -5.841)" fill="#e6e6e6"/>
      <path id="Trazado_1037062" data-name="Trazado 1037062" d="M298.943,391.083l-7.912-7.912,3.977-3.977,7.912,7.912a2.812,2.812,0,0,1-3.977,3.977Z" transform="translate(-249.212 -312.06)" fill="#393939"/>
      <path id="Trazado_1037063" data-name="Trazado 1037063" d="M303.063,412.042c-.046.054-.092.108-.143.158a2.812,2.812,0,0,1-3.977,0l-7.912-7.912,1-1,7.783,7.783A3.852,3.852,0,0,0,303.063,412.042Z" transform="translate(-249.212 -333.177)" fill="#343434"/>
      <path id="Trazado_1037064" data-name="Trazado 1037064" d="M132.437,212.327l-8.274,8.274-7.922-7.921,8.274-8.274Z" transform="translate(-96.002 -158.852)" fill="#ffd9b3"/>
      <path id="Trazado_1037065" data-name="Trazado 1037065" d="M125.5,268.512l-1.337,1.337-7.922-7.921,1.337-1.337Z" transform="translate(-96.002 -208.1)" fill="#fb9"/>
      <path id="Trazado_1037066" data-name="Trazado 1037066" d="M107.918,181.626l-1.316,1.316L104.118,184,96.2,176.082l1.062-2.484,1.316-1.316a.647.647,0,0,1,.914,0l8.429,8.429A.647.647,0,0,1,107.918,181.626Zm-22.479,3.794-1.316,1.316a.646.646,0,0,0,0,.914l8.428,8.429a.647.647,0,0,0,.915,0l1.316-1.316,1.062-2.484-7.921-7.922Z" transform="translate(-67.684 -130.529)" fill="#68544f"/>
      <path id="Trazado_1037067" data-name="Trazado 1037067" d="M106.6,193.627l-2.484,1.062L96.2,186.768l1.062-2.484ZM85.439,196.1l-1.316,1.316a.646.646,0,0,0,0,.914l8.428,8.429a.647.647,0,0,0,.915,0l1.316-1.316Z" transform="translate(-67.684 -141.215)" fill="#53433f"/>
      <path id="Trazado_1037068" data-name="Trazado 1037068" d="M71.034,437.032H42.6v-6.356H71.034Q69.287,434.258,71.034,437.032Z" transform="translate(-31.454 -357.186)" fill="#80eaff"/>
      <path id="Trazado_1037069" data-name="Trazado 1037069" d="M70.341,469.3a5.664,5.664,0,0,0,.693,1.587H42.6V469.3Z" transform="translate(-31.454 -391.041)" fill="#6cf"/>
      <path id="Trazado_1037070" data-name="Trazado 1037070" d="M17.283,437.032c-2.328,0-3.566-1.423-3.566-3.178s1.127-3.178,3.566-3.178Z" transform="translate(-6.137 -357.186)" fill="#393939"/>
      <path id="Trazado_1037071" data-name="Trazado 1037071" d="M90.7,404.118H70.571v-2.589a1.152,1.152,0,0,1,1.152-1.152H89.549a1.152,1.152,0,0,1,1.152,1.152Z" transform="translate(-55.971 -330.627)" fill="#ffd9b3"/>
      <path id="Trazado_1037072" data-name="Trazado 1037072" d="M90.7,419.676v1.358H70.571v-1.358Z" transform="translate(-55.971 -347.544)" fill="#fb9"/>
      <path id="Trazado_1037073" data-name="Trazado 1037073" d="M219.02,305.083l-2.1,2.1L205.41,295.671l2.1-2.1Z" transform="translate(-174.162 -237.009)" fill="#eabd8c"/>
      <path id="Trazado_1037074" data-name="Trazado 1037074" d="M217.754,315.312l-.836.836-11.511-11.511.836-.836Z" transform="translate(-174.159 -245.975)" fill="#d3a06c"/>
      <path id="Trazado_1037075" data-name="Trazado 1037075" d="M66.912,24.828a5.229,5.229,0,0,0-4.015-1.65H24.05a5.387,5.387,0,0,0-5.381,5.381V53.518l-1.253.536a.864.864,0,0,0-.272.183l-1.315,1.316a1.511,1.511,0,0,0,0,2.137l2.84,2.84v8.313H15.752a2.019,2.019,0,0,0-2.016,2.016v1.724H11.146c-2.692,0-4.43,1.587-4.43,4.043,0,2.013,1.37,4.042,4.43,4.042H39.581a.864.864,0,0,0,.731-1.325,4.819,4.819,0,0,1-.531-4.01h5.081l4.258,4.258A3.677,3.677,0,0,0,55,75.334h.62a3.627,3.627,0,0,0,3.623-3.623V46.392h6.263a2.768,2.768,0,0,0,2.766-2.766v-15a5.634,5.634,0,0,0-1.361-3.8ZM10.282,78.851a2.17,2.17,0,0,1-1.838-2.223,2.094,2.094,0,0,1,1.838-2.235ZM28.513,46.734l6.7,6.7L28.16,60.485l-6.7-6.7Zm8.119,5.675-7.095-7.095.767-1.793,1.044-1.044L39.47,50.6l-1.044,1.044Zm6.126,16.5L32.47,58.62l.877-.877L43.635,68.032ZM18.248,55.578l1.793-.767,7.094,7.095L26.369,63.7l-1.044,1.044L17.2,56.622ZM15.464,70.86a.288.288,0,0,1,.288-.288H33.578a.288.288,0,0,1,.288.288v1.724h-18.4ZM38.2,78.941H12.011V74.313H38.287A6.874,6.874,0,0,0,38.2,78.941Zm2.228-5.335a.863.863,0,0,0-.849-1.021H35.595V70.86a2.019,2.019,0,0,0-2.016-2.016H20.4V62.259l3.859,3.859a1.511,1.511,0,0,0,2.137,0L27.709,64.8a.864.864,0,0,0,.183-.272l1-2.33,2.358-2.358L41.536,70.131l-.328.328a.864.864,0,0,0,0,1.222l1.925,1.925ZM53.1,78.37a1.948,1.948,0,0,1-2.755,0l-7.3-7.3L45.8,68.315l7.3,7.3a1.948,1.948,0,0,1,0,2.755Zm4.418-49.811V71.712a1.9,1.9,0,0,1-1.894,1.894H53.533l-7.124-7.124a.864.864,0,0,0-1.222,0l-.328.328L34.57,56.521l2.358-2.358,2.33-1a.864.864,0,0,0,.272-.183l1.316-1.316a1.511,1.511,0,0,0,0-2.137L32.418,41.1a1.513,1.513,0,0,0-2.137,0l-1.317,1.315a.864.864,0,0,0-.183.272l-1,2.33L20.4,52.406V28.559a3.657,3.657,0,0,1,3.653-3.653h34.9a5.361,5.361,0,0,0-1.433,3.653Zm9.029,15.068a1.038,1.038,0,0,1-1.037,1.037H59.244V28.559A3.657,3.657,0,0,1,62.9,24.907a3.429,3.429,0,0,1,3.647,3.722Zm-15.2-8a.864.864,0,0,1-.864.864H28.036a.864.864,0,0,1,0-1.729H50.482a.864.864,0,0,1,.864.864Zm0,5.487a.864.864,0,0,1-.864.864H36.435a.864.864,0,0,1,0-1.729H50.482a.864.864,0,0,1,.864.864Zm0,5.487a.864.864,0,0,1-.864.864H41.215a.864.864,0,1,1,0-1.729h9.267a.864.864,0,0,1,.864.864Zm0,5.487a.864.864,0,0,1-.864.864H43.623a.864.864,0,0,1,0-1.729h6.859a.864.864,0,0,1,.865.864Zm0,5.487a.864.864,0,0,1-.864.864H39.258a.864.864,0,1,1,0-1.729H50.481a.864.864,0,0,1,.865.864Z"/>
    </g>
  </g>
</svg>
