<svg xmlns="http://www.w3.org/2000/svg" xmlns:xlink="http://www.w3.org/1999/xlink" width="118" height="118" viewBox="0 0 118 118">
  <defs>
    <filter id="Trazado_874925" x="0" y="0" width="118" height="118" filterUnits="userSpaceOnUse">
      <feOffset dy="3" input="SourceAlpha"/>
      <feGaussianBlur stdDeviation="3" result="blur"/>
      <feFlood flood-opacity="0.161"/>
      <feComposite operator="in" in2="blur"/>
      <feComposite in="SourceGraphic"/>
    </filter>
  </defs>
  <g id="Grupo_1200718" data-name="Grupo 1200718" transform="translate(-6939 9309.062)">
    <g id="Grupo_1198902" data-name="Grupo 1198902" transform="translate(6139.5 -11820.219)">
      <g id="Grupo_1111316" data-name="Grupo 1111316" transform="translate(808.5 2517.157)">
        <g id="Grupo_1109835" data-name="Grupo 1109835" transform="translate(0 0)">
          <g id="Grupo_1107913" data-name="Grupo 1107913" transform="translate(0 0)">
            <g transform="matrix(1, 0, 0, 1, -9, -6)" filter="url(#Trazado_874925)">
              <g id="Trazado_874925-2" data-name="Trazado 874925" transform="translate(9 6)" fill="#9ad354" opacity="0.859">
                <path d="M 49.99972534179688 98.4998779296875 C 43.45164108276367 98.4998779296875 37.10022354125977 97.21776580810547 31.12189674377441 94.68914794921875 C 25.34676742553711 92.24647521972656 20.15985298156738 88.74925994873047 15.70523929595947 84.29464721679688 C 11.25062561035156 79.84004974365234 7.753411293029785 74.65313720703125 5.310725212097168 68.87800598144531 C 2.782111167907715 62.89969253540039 1.499996781349182 56.54829406738281 1.499996781349182 50.00022125244141 C 1.499996781349182 43.45157623291016 2.782111167907715 37.10017776489258 5.310725212097168 31.12186431884766 C 7.753411293029785 25.34673500061035 11.25062561035156 20.15983581542969 15.70523929595947 15.70522117614746 C 20.15985298156738 11.25062084197998 25.34676742553711 7.753406524658203 31.12189674377441 5.31073522567749 C 37.10022354125977 2.782120943069458 43.45164108276367 1.500006556510925 49.99972534179688 1.500006556510925 C 56.54780960083008 1.500006556510925 62.89922714233398 2.782120943069458 68.87755584716797 5.31073522567749 C 74.65267944335938 7.753406524658203 79.839599609375 11.25062084197998 84.29421234130859 15.70522117614746 C 88.74882507324219 20.15983581542969 92.24604034423828 25.34673500061035 94.68872833251953 31.12186431884766 C 97.21733856201172 37.10017776489258 98.49945068359375 43.45157623291016 98.49945068359375 49.99964904785156 C 98.49945068359375 56.54829406738281 97.21733856201172 62.89969253540039 94.68872833251953 68.87800598144531 C 92.24604034423828 74.65313720703125 88.74882507324219 79.84004974365234 84.29421234130859 84.29464721679688 C 79.839599609375 88.74925994873047 74.65267944335938 92.24647521972656 68.87755584716797 94.68914794921875 C 62.89922714233398 97.21776580810547 56.54780960083008 98.4998779296875 49.99972534179688 98.4998779296875 Z" stroke="none"/>
                <path d="M 49.99972534179688 3 C 43.65348052978516 3 37.49866485595703 4.242240905761719 31.70623016357422 6.692230224609375 C 26.10989379882812 9.059272766113281 21.08323669433594 12.44853210449219 16.76589202880859 16.76587677001953 C 12.44855499267578 21.08321380615234 9.059295654296875 26.10985565185547 6.692230224609375 31.70618438720703 C 4.24224853515625 37.49859619140625 3 43.65341186523438 3 50.00022888183594 C 3 56.34645843505859 4.24224853515625 62.50127410888672 6.692230224609375 68.29368591308594 C 9.059295654296875 73.8900146484375 12.44855499267578 78.91665649414062 16.76589202880859 83.23399353027344 C 21.08323669433594 87.55132293701172 26.10989379882812 90.94059753417969 31.70623016357422 93.30764007568359 C 37.49866485595703 95.75762939453125 43.65348052978516 96.99987030029297 49.99972534179688 96.99987030029297 C 56.34597015380859 96.99987030029297 62.50078582763672 95.75762939453125 68.293212890625 93.30764007568359 C 73.88955688476562 90.94059753417969 78.91621398925781 87.55132293701172 83.23355865478516 83.23399353027344 C 87.55089569091797 78.91665649414062 90.94015502929688 73.8900146484375 93.30722045898438 68.29368591308594 C 95.7572021484375 62.50127410888672 96.99945068359375 56.34645843505859 96.99945068359375 49.99964141845703 C 96.99945068359375 43.65341186523438 95.7572021484375 37.49859619140625 93.30722045898438 31.70618438720703 C 90.94015502929688 26.10985565185547 87.55089569091797 21.08321380615234 83.23355865478516 16.76587677001953 C 78.91621398925781 12.44853210449219 73.88955688476562 9.059272766113281 68.293212890625 6.692230224609375 C 62.50078582763672 4.242240905761719 56.34597015380859 3 49.99972534179688 3 M 49.99972534179688 0 C 77.61381530761719 0 99.99945068359375 22.38559722900391 99.99945068359375 49.99964141845703 L 99.99945068359375 50.00022888183594 C 99.99945068359375 77.6142578125 77.61381530761719 99.99987030029297 49.99972534179688 99.99987030029297 C 22.38563537597656 99.99987030029297 0 77.6142578125 0 50.00022888183594 L 0 49.99964141845703 C 0 22.38559722900391 22.38563537597656 0 49.99972534179688 0 Z" stroke="none" fill="#fff"/>
              </g>
            </g>
            <g id="Trazado_874923" data-name="Trazado 874923" transform="translate(0 0)" fill="none">
              <path d="M50,0a50,50,0,0,1,50,50h0A50,50,0,0,1,0,50H0A50,50,0,0,1,50,0Z" stroke="none"/>
              <path d="M 49.99972534179688 3 C 43.65348052978516 3 37.49866485595703 4.242240905761719 31.70623016357422 6.692230224609375 C 26.10989379882812 9.059272766113281 21.08323669433594 12.44853210449219 16.76589202880859 16.76587677001953 C 12.44855499267578 21.08321380615234 9.059295654296875 26.10985565185547 6.692230224609375 31.70618438720703 C 4.24224853515625 37.49859619140625 3 43.65341186523438 3 50.00022888183594 C 3 56.34645843505859 4.24224853515625 62.50127410888672 6.692230224609375 68.29368591308594 C 9.059295654296875 73.8900146484375 12.44855499267578 78.91665649414062 16.76589202880859 83.23399353027344 C 21.08323669433594 87.55132293701172 26.10989379882812 90.94059753417969 31.70623016357422 93.30764007568359 C 37.49866485595703 95.75762939453125 43.65348052978516 96.99987030029297 49.99972534179688 96.99987030029297 C 56.34597015380859 96.99987030029297 62.50078582763672 95.75762939453125 68.293212890625 93.30764007568359 C 73.88955688476562 90.94059753417969 78.91621398925781 87.55132293701172 83.23355865478516 83.23399353027344 C 87.55089569091797 78.91665649414062 90.94015502929688 73.8900146484375 93.30722045898438 68.29368591308594 C 95.7572021484375 62.50127410888672 96.99945068359375 56.34645843505859 96.99945068359375 49.99964141845703 C 96.99945068359375 43.65341186523438 95.7572021484375 37.49859619140625 93.30722045898438 31.70618438720703 C 90.94015502929688 26.10985565185547 87.55089569091797 21.08321380615234 83.23355865478516 16.76587677001953 C 78.91621398925781 12.44853210449219 73.88955688476562 9.059272766113281 68.293212890625 6.692230224609375 C 62.50078582763672 4.242240905761719 56.34597015380859 3 49.99972534179688 3 M 49.99972534179688 0 C 77.61381530761719 0 99.99945068359375 22.38559722900391 99.99945068359375 49.99964141845703 L 99.99945068359375 50.00022888183594 C 99.99945068359375 77.6142578125 77.61381530761719 99.99987030029297 49.99972534179688 99.99987030029297 C 22.38563537597656 99.99987030029297 0 77.6142578125 0 50.00022888183594 L 0 49.99964141845703 C 0 22.38559722900391 22.38563537597656 0 49.99972534179688 0 Z" stroke="none" fill="#fff"/>
            </g>
          </g>
        </g>
      </g>
    </g>
    <g id="amor" transform="translate(6965.306 -9285.754)">
      <g id="Grupo_1200715" data-name="Grupo 1200715" transform="translate(0.958 0.956)">
        <g id="Grupo_1200704" data-name="Grupo 1200704" transform="translate(0 5.493)">
          <g id="Grupo_1200703" data-name="Grupo 1200703">
            <g id="Grupo_1200698" data-name="Grupo 1200698">
              <g id="Grupo_1200697" data-name="Grupo 1200697">
                <g id="Grupo_1200695" data-name="Grupo 1200695">
                  <path id="Trazado_1037161" data-name="Trazado 1037161" d="M23.722,86.22A3.185,3.185,0,0,0,25,81.9l-2.7-4.983a24.982,24.982,0,0,0,3.2-6.679,28.692,28.692,0,0,0,.955-4.746,5,5,0,0,0-1.433-4.115L14.155,50.512,7.5,57.167l12.724,11-2.963,8.885,5.068,8.772a1.036,1.036,0,0,0,1.392.392Z" transform="translate(-7.5 -50.512)" fill="#a34f41"/>
                  <path id="Trazado_1037162" data-name="Trazado 1037162" d="M70.874,236.69l-.84,2.835,2.7,4.983a3.186,3.186,0,0,1-1.28,4.319,1.037,1.037,0,0,1-1.392-.392L65,239.663l1.451-4.895Z" transform="translate(-57.655 -211.237)" fill="#a34f41"/>
                  <path id="Trazado_1037163" data-name="Trazado 1037163" d="M52.339,176.8l-4.592-1.361L43.436,189.98l5.068,8.772a1.037,1.037,0,0,0,1.392.392,3.185,3.185,0,0,0,1.28-4.319l-2.7-4.982Z" transform="translate(-38.847 -159.48)" fill="#a34f41"/>
                </g>
                <g id="Grupo_1200696" data-name="Grupo 1200696" transform="translate(7.213 12.632)">
                  <path id="Trazado_1037164" data-name="Trazado 1037164" d="M68.3,166.764,64.2,160.2l-.219-4.827a3.677,3.677,0,0,1,.93-2.615l2.121-2.376,1.1-.6a3,3,0,0,1,4.061,1.2c.9,1.745-.173,6.021-2.142,7.227-.188.115-.775.421-.775.421l2.009,3.7a3.566,3.566,0,0,1-1.433,4.835,1.177,1.177,0,0,1-1.559-.411Z" transform="translate(-63.98 -149.425)" fill="#ba5d4f"/>
                </g>
              </g>
            </g>
            <g id="Grupo_1200702" data-name="Grupo 1200702" transform="translate(44.72 12.931)">
              <g id="Grupo_1200701" data-name="Grupo 1200701">
                <g id="Grupo_1200699" data-name="Grupo 1200699">
                  <path id="Trazado_1037165" data-name="Trazado 1037165" d="M360.429,182.867a3.185,3.185,0,0,0-1.28,4.319l2.7,4.983a24.981,24.981,0,0,0-3.2,6.679,28.694,28.694,0,0,0-.955,4.746,5,5,0,0,0,1.433,4.115l10.631,10.631,6.655-6.655-12.49-10.769,2.963-8.885-5.068-8.772A1.037,1.037,0,0,0,360.429,182.867Z" transform="translate(-357.663 -178.785)" fill="#6c3328"/>
                  <path id="Trazado_1037166" data-name="Trazado 1037166" d="M387.456,180.264l.84-2.835-2.7-4.982a3.186,3.186,0,0,1,1.28-4.319,1.037,1.037,0,0,1,1.392.392l5.068,8.772-1.451,4.895Z" transform="translate(-381.688 -165.927)" fill="#6c3328"/>
                  <path id="Trazado_1037167" data-name="Trazado 1037167" d="M400.687,174.238l4.592,1.361,4.311-14.546-5.068-8.772a1.037,1.037,0,0,0-1.392-.392,3.185,3.185,0,0,0-1.28,4.319l2.7,4.983Z" transform="translate(-395.192 -151.763)" fill="#6c3328"/>
                </g>
                <g id="Grupo_1200700" data-name="Grupo 1200700" transform="translate(3.233 9.264)">
                  <path id="Trazado_1037168" data-name="Trazado 1037168" d="M387.205,224.859l4.095,6.561.219,4.827a3.677,3.677,0,0,1-.93,2.615l-2.121,2.376-1.1.6a3,3,0,0,1-4.061-1.2c-.9-1.745.173-6.021,2.142-7.227.188-.115.775-.421.775-.421l-2.009-3.7a3.566,3.566,0,0,1,1.433-4.835A1.177,1.177,0,0,1,387.205,224.859Z" transform="translate(-382.981 -224.305)" fill="#873f30"/>
                </g>
              </g>
            </g>
          </g>
        </g>
        <g id="Grupo_1200714" data-name="Grupo 1200714" transform="translate(5.493)">
          <g id="Grupo_1200713" data-name="Grupo 1200713" transform="translate(0)">
            <g id="Grupo_1200708" data-name="Grupo 1200708" transform="translate(0 44.485)">
              <g id="Grupo_1200707" data-name="Grupo 1200707">
                <g id="Grupo_1200705" data-name="Grupo 1200705">
                  <path id="Trazado_1037169" data-name="Trazado 1037169" d="M86.22,358.593a3.185,3.185,0,0,0-4.319-1.28l-4.983,2.7a24.983,24.983,0,0,0-6.679-3.2,28.694,28.694,0,0,0-4.746-.955,5,5,0,0,0-4.115,1.433L50.512,368.16l6.655,6.655,11-12.724,8.885,2.963,8.772-5.068a1.037,1.037,0,0,0,.392-1.392Z" transform="translate(-50.512 -355.827)" fill="#ffcec0"/>
                  <path id="Trazado_1037170" data-name="Trazado 1037170" d="M236.69,385.62l2.835.84,4.983-2.7a3.186,3.186,0,0,1,4.319,1.28,1.037,1.037,0,0,1-.392,1.392l-8.772,5.068-4.895-1.451Z" transform="translate(-211.237 -379.852)" fill="#ffcec0"/>
                  <path id="Trazado_1037171" data-name="Trazado 1037171" d="M176.8,398.851l-1.361,4.592,14.546,4.311,8.772-5.068a1.037,1.037,0,0,0,.392-1.392,3.185,3.185,0,0,0-4.319-1.28l-4.982,2.7Z" transform="translate(-159.48 -393.356)" fill="#ffcec0"/>
                </g>
                <g id="Grupo_1200706" data-name="Grupo 1200706" transform="translate(12.632 3.233)">
                  <path id="Trazado_1037172" data-name="Trazado 1037172" d="M166.764,385.369l-6.561,4.095-4.827.219a3.677,3.677,0,0,1-2.615-.93l-2.376-2.121-.6-1.1a3,3,0,0,1,1.2-4.061c1.745-.9,6.021.173,7.227,2.142.115.188.421.775.421.775l3.7-2.009a3.566,3.566,0,0,1,4.835,1.433A1.177,1.177,0,0,1,166.764,385.369Z" transform="translate(-149.425 -381.145)" fill="#ffdfd0"/>
                </g>
              </g>
            </g>
            <g id="Grupo_1200712" data-name="Grupo 1200712" transform="translate(12.931)">
              <g id="Grupo_1200711" data-name="Grupo 1200711">
                <g id="Grupo_1200709" data-name="Grupo 1200709">
                  <path id="Trazado_1037173" data-name="Trazado 1037173" d="M182.868,23.487a3.185,3.185,0,0,0,4.319,1.28l4.983-2.7a24.981,24.981,0,0,0,6.679,3.2,28.692,28.692,0,0,0,4.746.955,5,5,0,0,0,4.115-1.433l10.631-10.631L211.686,7.5,200.917,19.99l-8.885-2.963L183.26,22.1A1.037,1.037,0,0,0,182.868,23.487Z" transform="translate(-178.786 -7.5)" fill="#f9a08f"/>
                  <path id="Trazado_1037174" data-name="Trazado 1037174" d="M180.264,69.038l-2.835-.84-4.982,2.7a3.186,3.186,0,0,1-4.319-1.28,1.036,1.036,0,0,1,.392-1.392l8.772-5.068,4.895,1.451Z" transform="translate(-165.927 -56.053)" fill="#f9a08f"/>
                  <path id="Trazado_1037175" data-name="Trazado 1037175" d="M174.238,50.5,175.6,45.91,161.053,41.6l-8.772,5.068a1.037,1.037,0,0,0-.392,1.392,3.185,3.185,0,0,0,4.319,1.28l4.983-2.7Z" transform="translate(-151.763 -37.244)" fill="#f9a08f"/>
                </g>
                <g id="Grupo_1200710" data-name="Grupo 1200710" transform="translate(9.264 6.979)">
                  <path id="Trazado_1037176" data-name="Trazado 1037176" d="M224.859,66.46l6.561-4.095,4.827-.219a3.677,3.677,0,0,1,2.615.93l2.376,2.121.6,1.1a3,3,0,0,1-1.2,4.061c-1.745.9-6.021-.173-7.227-2.142-.115-.188-.421-.775-.421-.775l-3.7,2.009a3.566,3.566,0,0,1-4.835-1.433A1.176,1.176,0,0,1,224.859,66.46Z" transform="translate(-224.305 -62.144)" fill="#fdb0a0"/>
                </g>
              </g>
            </g>
          </g>
        </g>
      </g>
      <g id="Grupo_1200717" data-name="Grupo 1200717" transform="translate(0.001 -0.002)">
        <path id="Trazado_1037177" data-name="Trazado 1037177" d="M201.729,211.976a5.3,5.3,0,0,0-7.5-7.5,5.3,5.3,0,0,0-7.5,7.5l6.776,6.777a1.017,1.017,0,0,0,1.439,0Z" transform="translate(-161.539 -177.015)" fill="#fc78a8"/>
        <path id="Trazado_1037178" data-name="Trazado 1037178" d="M249.152,211.992l-6.777,6.777a1.017,1.017,0,0,1-1.438,0l-1.381-1.381,6.613-6.614c2.066-2.07,2.612-4.875.544-6.943a5.306,5.306,0,0,0-1.16-.879,5.3,5.3,0,0,1,3.6,9.041Z" transform="translate(-208.962 -177.032)" fill="#fc5a95"/>
        <g id="Grupo_1200716" data-name="Grupo 1200716" transform="translate(0)">
          <path id="Trazado_1037179" data-name="Trazado 1037179" d="M11.508,84.72a2,2,0,0,0,.957-.245,4.12,4.12,0,0,0,1.749-1.835l.052,0a2,2,0,0,0,.952-.241,4.117,4.117,0,0,0,1.654-1.65,1.99,1.99,0,0,0,.765-.233A4.143,4.143,0,0,0,19.3,74.9l-2.428-4.473a26.09,26.09,0,0,0,3-6.46,29.343,29.343,0,0,0,.988-4.906,5.923,5.923,0,0,0-1.707-4.9L8.291,43.292a.958.958,0,0,0-1.355,1.355L17.8,55.512a4.017,4.017,0,0,1,1.158,3.326,27.418,27.418,0,0,1-.922,4.585,23.59,23.59,0,0,1-2.122,4.891L14.769,66.2c1.821-1.133,2.853-4.045,2.9-6.22A.958.958,0,0,0,16.731,59H16.71a.958.958,0,0,0-.957.937c-.04,1.874-.959,4-2.007,4.641-.11.067-.486.267-.717.388a.958.958,0,0,0-.4,1.306l2.009,3.7A2.611,2.611,0,0,1,13.59,73.51a.219.219,0,0,1-.29-.076L9.339,67.086,9.132,62.51a2.7,2.7,0,0,1,.688-1.934l2.009-2.251,1.65-.9a.958.958,0,1,0-.914-1.684l-1.8.975a.96.96,0,0,0-.258.2l-.35.392L1.585,49.9A.958.958,0,0,0,.332,51.349l8.554,7.4-.5.555a4.611,4.611,0,0,0-1.172,3.3l.113,2.5c-.007.019-1.069,3.6-1.069,3.6a.958.958,0,1,0,1.837.544l.1-.35,2.032,3.256-.569,1.92a.958.958,0,0,0,.076.729l2.7,4.983a2.228,2.228,0,0,1-.9,3.021.079.079,0,0,1-.105-.03L6.584,74.346l.232-.783a.958.958,0,1,0-1.837-.544L4.63,74.2a.958.958,0,0,0,.089.751L9.787,83.72a1.983,1.983,0,0,0,1.721,1ZM17.8,77.51a2.219,2.219,0,0,1-.436.806,4.12,4.12,0,0,0-.477-1.533l-1.3-2.4a4.5,4.5,0,0,0,.727-.984l1.312,2.417a2.213,2.213,0,0,1,.178,1.7Zm-5.9-2.772a2.13,2.13,0,0,0,2.058.661L15.2,77.7a2.23,2.23,0,0,1-.582,2.812,4.118,4.118,0,0,0-.488-1.652Z" transform="translate(-0.001 -37.518)"/>
          <path id="Trazado_1037180" data-name="Trazado 1037180" d="M363.729,163.836l2.7-9.075a.958.958,0,0,0-.089-.751l-5.068-8.772a1.984,1.984,0,0,0-2.678-.755,4.112,4.112,0,0,0-1.752,1.834,1.988,1.988,0,0,0-1,.239,4.118,4.118,0,0,0-1.655,1.651,1.991,1.991,0,0,0-.764.232,4.143,4.143,0,0,0-1.665,5.618l2.428,4.473a25.977,25.977,0,0,0-3,6.46,29.335,29.335,0,0,0-.988,4.906,5.923,5.923,0,0,0,1.707,4.9l10.631,10.631a.958.958,0,1,0,1.355-1.354L353.26,173.446a4.018,4.018,0,0,1-1.158-3.326,27.418,27.418,0,0,1,.922-4.585,23.8,23.8,0,0,1,2.123-4.889l1.147,2.114c-1.821,1.133-2.853,4.045-2.9,6.22a.958.958,0,0,0,1.915.041c.04-1.874.959-4,2.007-4.641.11-.067.486-.267.717-.388a.958.958,0,0,0,.4-1.306l-2.009-3.7a2.611,2.611,0,0,1,1.048-3.536.219.219,0,0,1,.29.076l3.962,6.348.207,4.576a2.7,2.7,0,0,1-.688,1.934l-2.01,2.251-1.65.9a.958.958,0,1,0,.914,1.684l1.8-.975a.961.961,0,0,0,.258-.2l.355-.4,8.338,7.189a.958.958,0,0,0,1.251-1.451l-8.313-7.168.49-.549a4.61,4.61,0,0,0,1.172-3.3Zm-10.464-12.388a2.218,2.218,0,0,1,.436-.806,4.12,4.12,0,0,0,.477,1.533l1.3,2.4a4.505,4.505,0,0,0-.727.984l-1.312-2.417A2.213,2.213,0,0,1,353.265,151.447Zm3.844,2.111-1.247-2.3a2.229,2.229,0,0,1,.58-2.81,4.13,4.13,0,0,0,.49,1.65l2.237,4.123A2.14,2.14,0,0,0,357.109,153.558Zm3.718,3.261.569-1.92a.958.958,0,0,0-.077-.729l-2.7-4.983a2.228,2.228,0,0,1,.9-3.021.079.079,0,0,1,.105.03l4.862,8.415-1.619,5.464Z" transform="translate(-305.439 -125.817)"/>
          <path id="Trazado_1037181" data-name="Trazado 1037181" d="M65.158,361.916,74.2,364.6a.958.958,0,0,0,.751-.089l8.772-5.068a1.983,1.983,0,0,0,.755-2.678,4.12,4.12,0,0,0-1.834-1.749,1.982,1.982,0,0,0-.239-1,4.117,4.117,0,0,0-1.65-1.654,1.986,1.986,0,0,0-.232-.764,4.143,4.143,0,0,0-5.618-1.665l-4.474,2.428a26.4,26.4,0,0,0-6.459-3,29.355,29.355,0,0,0-4.906-.988,5.923,5.923,0,0,0-4.9,1.707L43.294,360.935a.958.958,0,0,0,1.355,1.354l10.866-10.866a4.018,4.018,0,0,1,3.326-1.159,27.442,27.442,0,0,1,4.585.922,23.781,23.781,0,0,1,4.889,2.123L66.2,354.456c-1.133-1.821-4.045-2.853-6.22-2.9H59.96a.958.958,0,0,0-.02,1.915c1.874.041,4,.96,4.641,2.007.067.11.267.486.388.717a.958.958,0,0,0,1.307.4l3.7-2.009a2.608,2.608,0,0,1,3.536,1.048.219.219,0,0,1-.076.29l-6.348,3.962-4.576.207a2.7,2.7,0,0,1-1.934-.688l-2.251-2.01-.9-1.65a.958.958,0,0,0-1.684.914l.975,1.8a.96.96,0,0,0,.2.258l.392.35L49.9,367.64a.958.958,0,0,0,1.449,1.253l7.4-8.554.555.5a4.606,4.606,0,0,0,3.082,1.177q.107,0,.214,0ZM75.4,355.273l2.3-1.247a2.229,2.229,0,0,1,2.812.582,4.118,4.118,0,0,0-1.652.488l-4.122,2.237A2.139,2.139,0,0,0,75.4,355.273Zm.415-3.666a2.225,2.225,0,0,1,2.5.258,4.12,4.12,0,0,0-1.532.477l-2.4,1.3a4.467,4.467,0,0,0-.982-.728Zm6.947,6.173-8.416,4.862-5.463-1.619,3.256-2.032,1.92.569a.958.958,0,0,0,.729-.076l4.982-2.7a2.23,2.23,0,0,1,3.021.9.078.078,0,0,1-.03.106Z" transform="translate(-37.52 -303.836)"/>
          <path id="Trazado_1037182" data-name="Trazado 1037182" d="M323.071,64.18c-.789-.093-1.577-.217-2.342-.37a.958.958,0,0,0-.376,1.878c.815.163,1.655.3,2.495.394a6.025,6.025,0,0,0,.7.041,5.92,5.92,0,0,0,4.2-1.748l10.631-10.631a.958.958,0,1,0-1.355-1.354L326.4,63.021A4.016,4.016,0,0,1,323.071,64.18Z" transform="translate(-278.769 -45.454)"/>
          <path id="Trazado_1037183" data-name="Trazado 1037183" d="M146.319,13.978a1.993,1.993,0,0,0,.237,1,4.116,4.116,0,0,0,1.65,1.653,1.984,1.984,0,0,0,.233.766,4.116,4.116,0,0,0,2.464,2,4.118,4.118,0,0,0,3.154-.331l4.474-2.428A27.061,27.061,0,0,0,162.9,18.9a.958.958,0,0,0,.72-1.775,25.145,25.145,0,0,1-2.976-1.449l2.115-1.148c1.133,1.821,4.045,2.853,6.22,2.9H169a.958.958,0,0,0,.02-1.915c-1.874-.04-4-.96-4.641-2.007-.067-.11-.267-.486-.388-.717a.958.958,0,0,0-1.307-.4l-3.7,2.009a2.608,2.608,0,0,1-3.536-1.048.219.219,0,0,1,.076-.29L161.871,9.1l4.576-.207a2.707,2.707,0,0,1,1.934.688l2.251,2.01.9,1.65a.958.958,0,0,0,1.684-.914l-.975-1.8a.959.959,0,0,0-.2-.258l-.4-.355,7.189-8.338A.958.958,0,0,0,177.374.33l-7.168,8.313-.549-.49a4.611,4.611,0,0,0-3.3-1.172l-2.486.113-9.115-2.7a.958.958,0,0,0-.751.089L145.237,9.55a1.983,1.983,0,0,0-.755,2.678,4.119,4.119,0,0,0,1.837,1.751Zm7.239-.262-2.3,1.247a2.23,2.23,0,0,1-2.812-.582,4.118,4.118,0,0,0,1.652-.487l4.122-2.237a2.14,2.14,0,0,0-.664,2.06Zm-.415,3.666a2.225,2.225,0,0,1-2.5-.258,4.118,4.118,0,0,0,1.533-.476l2.4-1.3a4.468,4.468,0,0,0,.982.728ZM146.2,11.209l8.416-4.862,5.463,1.619L156.818,10l-1.92-.569a.957.957,0,0,0-.729.076l-4.983,2.7a2.228,2.228,0,0,1-3.021-.9.078.078,0,0,1,.03-.106Z" transform="translate(-125.817 0.002)"/>
          <path id="Trazado_1037184" data-name="Trazado 1037184" d="M187.709,211.559a.059.059,0,0,1-.084,0l-3.759-3.759a.958.958,0,0,0-1.355,1.354l3.759,3.759a1.978,1.978,0,0,0,2.793,0l6.777-6.777a6.258,6.258,0,0,0-8.174-9.435,6.258,6.258,0,0,0-8.379,9.219.958.958,0,1,0,1.418-1.288,4.342,4.342,0,0,1,6.284-5.99.958.958,0,0,0,1.353,0,4.342,4.342,0,0,1,6.142,6.14Z" transform="translate(-154.973 -170.499)"/>
        </g>
      </g>
    </g>
  </g>
</svg>
