<svg xmlns="http://www.w3.org/2000/svg" xmlns:xlink="http://www.w3.org/1999/xlink" width="220" height="156.144" viewBox="0 0 220 156.144">
  <defs>
    <filter id="Rect치ngulo_404858" x="0" y="0" width="220" height="156.144" filterUnits="userSpaceOnUse">
      <feOffset dx="3" dy="6" input="SourceAlpha"/>
      <feGaussianBlur stdDeviation="5" result="blur"/>
      <feFlood flood-opacity="0.161"/>
      <feComposite operator="in" in2="blur"/>
      <feComposite in="SourceGraphic"/>
    </filter>
  </defs>
  <g id="Grupo_1200001" data-name="Grupo 1200001" transform="translate(-624.551 -3028.986)">
    <g id="Grupo_1198736" data-name="Grupo 1198736" transform="translate(636.551 3037.986)">
      <g id="Grupo_1197899" data-name="Grupo 1197899" transform="translate(0 0)">
        <g id="Grupo_1113681" data-name="Grupo 1113681">
          <g transform="matrix(1, 0, 0, 1, -12, -9)" filter="url(#Rect치ngulo_404858)">
            <rect id="Rect치ngulo_404858-2" data-name="Rect치ngulo 404858" width="190" height="126.144" rx="8" transform="translate(12 9)" fill="#6b9339"/>
          </g>
        </g>
      </g>
    </g>
    <g id="obediente_17_" data-name="obediente (17)" transform="translate(670.655 3058.218)">
      <g id="Grupo_1199991" data-name="Grupo 1199991" transform="translate(13.346 1.645)">
        <g id="Grupo_1199989" data-name="Grupo 1199989">
          <g id="Grupo_1199986" data-name="Grupo 1199986" transform="translate(0 42.966)">
            <g id="Grupo_1199979" data-name="Grupo 1199979" transform="translate(0 0)">
              <path id="Trazado_1032301" data-name="Trazado 1032301" d="M39.25,204.427l3.95,6.842a.658.658,0,0,0,.57.329H70.833a.658.658,0,0,0,.57-.329l3.95-6.842a.658.658,0,0,0-.57-.987H39.819A.658.658,0,0,0,39.25,204.427Z" transform="translate(-39.16 -203.44)" fill="#fed402"/>
            </g>
            <g id="Grupo_1199985" data-name="Grupo 1199985">
              <g id="Grupo_1199980" data-name="Grupo 1199980" transform="translate(58.816 0)">
                <path id="Trazado_1032302" data-name="Trazado 1032302" d="M307.471,204.427l3.95,6.842a.658.658,0,0,0,.57.329h27.065a.658.658,0,0,0,.57-.329l3.95-6.842a.658.658,0,0,0-.57-.987H308.041A.658.658,0,0,0,307.471,204.427Z" transform="translate(-307.382 -203.44)" fill="#fed402"/>
              </g>
              <g id="Grupo_1199981" data-name="Grupo 1199981" transform="translate(0 0)">
                <path id="Trazado_1032303" data-name="Trazado 1032303" d="M39.25,204.427l3.95,6.842a.658.658,0,0,0,.57.329H70.833a.658.658,0,0,0,.57-.329l3.95-6.842a.658.658,0,0,0-.57-.987H39.819A.658.658,0,0,0,39.25,204.427Z" transform="translate(-39.16 -203.44)" fill="#ca6e59"/>
              </g>
              <g id="Grupo_1199982" data-name="Grupo 1199982" transform="translate(0)">
                <path id="Trazado_1032304" data-name="Trazado 1032304" d="M52.493,211.267l-3.95-6.842a.658.658,0,0,1,.57-.987H39.819a.658.658,0,0,0-.57.987l3.95,6.842a.658.658,0,0,0,.57.329h9.294A.658.658,0,0,1,52.493,211.267Z" transform="translate(-39.161 -203.439)" fill="#bb5d4c"/>
              </g>
              <g id="Grupo_1199983" data-name="Grupo 1199983" transform="translate(58.816 0)">
                <path id="Trazado_1032305" data-name="Trazado 1032305" d="M307.471,204.427l3.95,6.842a.658.658,0,0,0,.57.329h27.065a.658.658,0,0,0,.57-.329l3.95-6.842a.658.658,0,0,0-.57-.987H308.041A.658.658,0,0,0,307.471,204.427Z" transform="translate(-307.382 -203.44)" fill="#ca6e59"/>
              </g>
              <g id="Grupo_1199984" data-name="Grupo 1199984" transform="translate(58.816)">
                <path id="Trazado_1032306" data-name="Trazado 1032306" d="M321.863,211.267l-3.95-6.842a.658.658,0,0,1,.57-.987H308.041a.658.658,0,0,0-.57.987l3.95,6.842a.658.658,0,0,0,.57.329h10.442A.658.658,0,0,1,321.863,211.267Z" transform="translate(-307.383 -203.439)" fill="#bb5d4c"/>
              </g>
            </g>
          </g>
          <path id="Trazado_1032307" data-name="Trazado 1032307" d="M244.752,144.427V104.219a1.1,1.1,0,0,0-1.1-1.1h-6.593a1.1,1.1,0,0,0-1.1,1.1v40.208h8.786Z" transform="translate(-192.81 -82.155)" fill="#bb5d4c"/>
          <path id="Trazado_1032308" data-name="Trazado 1032308" d="M239.687,144.427V104.219a1.1,1.1,0,0,1,1.1-1.1h-3.721a1.1,1.1,0,0,0-1.1,1.1v40.208h3.721Z" transform="translate(-192.81 -82.155)" fill="#a44f3e"/>
          <g id="Grupo_1199987" data-name="Grupo 1199987" transform="translate(41.41 0)">
            <circle id="Elipse_12200" data-name="Elipse 12200" cx="6.139" cy="6.139" r="6.139" fill="#883f2e"/>
          </g>
          <g id="Grupo_1199988" data-name="Grupo 1199988" transform="translate(41.41)">
            <path id="Trazado_1032309" data-name="Trazado 1032309" d="M233.488,13.639a6.137,6.137,0,0,1,3.4-5.492,6.139,6.139,0,1,0,0,10.985,6.137,6.137,0,0,1-3.4-5.492Z" transform="translate(-228.005 -7.5)" fill="#6d3326"/>
          </g>
        </g>
        <g id="Grupo_1199990" data-name="Grupo 1199990" transform="translate(8.452 62.273)">
          <path id="Trazado_1032310" data-name="Trazado 1032310" d="M229.756,300.908v-5.037a4.386,4.386,0,0,0-4.386-4.386H213.642a4.386,4.386,0,0,0-4.386,4.386v5.037Z" transform="translate(-180.409 -291.485)" fill="#883f2e"/>
          <path id="Trazado_1032311" data-name="Trazado 1032311" d="M216.655,300.908v-5.037a4.386,4.386,0,0,1,4.386-4.386h-7.4a4.386,4.386,0,0,0-4.386,4.386v5.037Z" transform="translate(-180.408 -291.485)" fill="#6d3326"/>
          <path id="Trazado_1032312" data-name="Trazado 1032312" d="M208.375,344.445v-6.23a3.759,3.759,0,0,0-3.759-3.758H174.93a3.759,3.759,0,0,0-3.758,3.759v6.23Z" transform="translate(-150.676 -325.034)" fill="#bb5d4c"/>
          <path id="Trazado_1032313" data-name="Trazado 1032313" d="M180.421,344.445v-6.23a3.759,3.759,0,0,1,3.759-3.758h-9.248a3.759,3.759,0,0,0-3.758,3.759v6.23Z" transform="translate(-150.677 -325.034)" fill="#a44f3e"/>
          <path id="Trazado_1032314" data-name="Trazado 1032314" d="M83.56,379.006a5.857,5.857,0,0,0-5.857,5.857v11.129a5.857,5.857,0,0,0,5.857,5.857h2.374V386.327H97.911v15.522h67.066V379.006Z" transform="translate(-77.703 -359.814)" fill="#fff3de"/>
        </g>
      </g>
      <g id="Grupo_1200000" data-name="Grupo 1200000" transform="translate(7.741 83.109)">
        <g id="Grupo_1199995" data-name="Grupo 1199995">
          <g id="Grupo_1199992" data-name="Grupo 1199992">
            <path id="Trazado_1032315" data-name="Trazado 1032315" d="M33.511,401.849a5.857,5.857,0,0,1-5.857-5.857V384.863a5.857,5.857,0,0,1,5.857-5.857H25.018a11.422,11.422,0,0,0,0,22.844h8.493Z" transform="translate(-13.596 -379.006)" fill="#3675bb"/>
          </g>
          <g id="Grupo_1199993" data-name="Grupo 1199993">
            <path id="Trazado_1032316" data-name="Trazado 1032316" d="M19.144,390.428a11.422,11.422,0,0,1,11.422-11.422H25.018a11.422,11.422,0,0,0,0,22.844h5.548A11.422,11.422,0,0,1,19.144,390.428Z" transform="translate(-13.596 -379.006)" fill="#2b68b6"/>
          </g>
          <g id="Grupo_1199994" data-name="Grupo 1199994" transform="translate(14.058 0.008)">
            <path id="Trazado_1032317" data-name="Trazado 1032317" d="M85.934,395.458a5.851,5.851,0,0,1-2.684-4.922V379.407c0-.123.005-.245.012-.366a5.857,5.857,0,0,0-5.56,5.85V396.02a5.857,5.857,0,0,0,5.857,5.857h2.374Z" transform="translate(-77.703 -379.041)" fill="#ffe5c2"/>
            <path id="Trazado_1032318" data-name="Trazado 1032318" d="M169.857,458.174h67.066v5.483H169.857Z" transform="translate(-149.649 -440.822)" fill="#ffe5c2"/>
          </g>
        </g>
        <g id="Grupo_1199999" data-name="Grupo 1199999" transform="translate(22.289 7.322)">
          <g id="Grupo_1199996" data-name="Grupo 1199996">
            <path id="Trazado_1032319" data-name="Trazado 1032319" d="M127.217,431.933V412.395H115.24v19.538a.658.658,0,0,0,1.032.541l4.956-3.43,4.956,3.43A.658.658,0,0,0,127.217,431.933Z" transform="translate(-115.24 -412.395)" fill="#fb2b3a"/>
          </g>
          <g id="Grupo_1199998" data-name="Grupo 1199998" transform="translate(0)">
            <g id="Grupo_1199997" data-name="Grupo 1199997">
              <path id="Trazado_1032320" data-name="Trazado 1032320" d="M120.753,412.395H115.24v19.538a.658.658,0,0,0,1.032.541l4.481-3.1Z" transform="translate(-115.24 -412.395)" fill="#e41f2d"/>
            </g>
          </g>
        </g>
      </g>
      <path id="Trazado_1032321" data-name="Trazado 1032321" d="M114.05,104.308h-3.334V84.754h3.334a1.645,1.645,0,1,0,0-3.289H81.141V77.1a5.409,5.409,0,0,0-5.4-5.4H72.79V68.3a6.036,6.036,0,0,0-5.857-6.026V35.743a1.645,1.645,0,0,0-3.289,0v26.53h-5.5V24.258h5.5v3.81a1.645,1.645,0,1,0,3.289,0V23.709a2.744,2.744,0,0,0-2.741-2.741H62.54V15.391A7.805,7.805,0,0,0,68.5,9.428H88.659v3L72.578,42.982a2.3,2.3,0,0,0-1.751,3.437l3.95,6.841a2.309,2.309,0,0,0,1.994,1.151H92.253a1.645,1.645,0,0,0,0-3.289H77.341l-2.811-4.868h31.546l-2.811,4.868H99.928a1.645,1.645,0,1,0,0,3.289h3.908a2.309,2.309,0,0,0,1.994-1.151l3.95-6.842a2.3,2.3,0,0,0-1.751-3.437L91.948,12.428v-3H98.1a1.645,1.645,0,0,0,0-3.289H68.5a7.783,7.783,0,0,0-15.214,0h-29.6a1.645,1.645,0,0,0,0,3.289h6.156v3L13.762,42.982a2.3,2.3,0,0,0-1.751,3.437h0l3.95,6.842a2.309,2.309,0,0,0,1.994,1.151H45.02a2.309,2.309,0,0,0,1.994-1.151l3.95-6.842a2.3,2.3,0,0,0-1.751-3.437L33.132,12.428v-3H53.288a7.806,7.806,0,0,0,5.962,5.962v5.578H57.6a2.744,2.744,0,0,0-2.741,2.741V62.277A6.036,6.036,0,0,0,49,68.3V71.7H46.053a5.409,5.409,0,0,0-5.4,5.4v4.366H19.162a13.066,13.066,0,1,0,0,26.133h9.222v2.372A2.3,2.3,0,0,0,32,111.862l4.02-2.782,4.02,2.782a2.3,2.3,0,0,0,3.613-1.894V107.6h70.4a1.644,1.644,0,1,0,0-3.289ZM88.659,42.966H76.3L88.659,19.49ZM91.948,19.49,104.3,42.966H91.948Zm-62.106,0V42.966H17.487ZM44.45,51.123H18.525l-2.811-4.868H47.261Zm1.038-8.157H33.132V19.49ZM56.4,7.783A4.494,4.494,0,1,1,60.9,12.278,4.5,4.5,0,0,1,56.4,7.783ZM52.29,68.3a2.744,2.744,0,0,1,2.741-2.741H66.76A2.744,2.744,0,0,1,69.5,68.3V71.7H52.29ZM19.162,104.308a9.777,9.777,0,1,1,0-19.554h2.289a7.458,7.458,0,0,0-1.3,4.213V100.1a7.457,7.457,0,0,0,1.3,4.213Zm21.2,3.778-3.408-2.358a1.644,1.644,0,0,0-1.872,0l-3.408,2.358V92.075h8.687Zm67.066-19.3H71.878a1.645,1.645,0,1,0,0,3.289h35.549v4.911H71.878a1.645,1.645,0,1,0,0,3.289h35.549v4.032H43.65V92.076H57.528a1.645,1.645,0,0,0,0-3.289H27.655a1.645,1.645,0,1,0,0,3.289h.729v12.233h-.729a4.217,4.217,0,0,1-4.213-4.213V88.967a4.217,4.217,0,0,1,4.213-4.213H54.1a1.645,1.645,0,1,0,0-3.289H43.939V77.1a2.116,2.116,0,0,1,2.114-2.114H75.738A2.116,2.116,0,0,1,77.852,77.1v4.366H61.773a1.645,1.645,0,0,0,0,3.289h45.654Z" transform="translate(0)"/>
    </g>
  </g>
</svg>
