<svg xmlns="http://www.w3.org/2000/svg" xmlns:xlink="http://www.w3.org/1999/xlink" width="118" height="118" viewBox="0 0 118 118">
  <defs>
    <filter id="Trazado_874925" x="0" y="0" width="118" height="118" filterUnits="userSpaceOnUse">
      <feOffset dy="3" input="SourceAlpha"/>
      <feGaussianBlur stdDeviation="3" result="blur"/>
      <feFlood flood-opacity="0.161"/>
      <feComposite operator="in" in2="blur"/>
      <feComposite in="SourceGraphic"/>
    </filter>
    <clipPath id="clip-path">
      <path id="path6927" d="M0-682.665H66.554v66.554H0Z" transform="translate(0 682.665)"/>
    </clipPath>
  </defs>
  <g id="Grupo_1200760" data-name="Grupo 1200760" transform="translate(-7262.531 8928.062)">
    <g id="Grupo_1198905" data-name="Grupo 1198905" transform="translate(6463.031 -11439.219)">
      <g id="Grupo_1111316" data-name="Grupo 1111316" transform="translate(808.5 2517.157)">
        <g id="Grupo_1109835" data-name="Grupo 1109835" transform="translate(0 0)">
          <g id="Grupo_1107913" data-name="Grupo 1107913" transform="translate(0 0)">
            <g transform="matrix(1, 0, 0, 1, -9, -6)" filter="url(#Trazado_874925)">
              <g id="Trazado_874925-2" data-name="Trazado 874925" transform="translate(9 6)" fill="#9ad354" opacity="0.859">
                <path d="M 49.99972534179688 98.4998779296875 C 43.45164108276367 98.4998779296875 37.10022354125977 97.21776580810547 31.12189674377441 94.68914794921875 C 25.34676742553711 92.24647521972656 20.15985298156738 88.74925994873047 15.70523929595947 84.29464721679688 C 11.25062561035156 79.84004974365234 7.753411293029785 74.65313720703125 5.310725212097168 68.87800598144531 C 2.782111167907715 62.89969253540039 1.499996781349182 56.54829406738281 1.499996781349182 50.00022125244141 C 1.499996781349182 43.45157623291016 2.782111167907715 37.10017776489258 5.310725212097168 31.12186431884766 C 7.753411293029785 25.34673500061035 11.25062561035156 20.15983581542969 15.70523929595947 15.70522117614746 C 20.15985298156738 11.25062084197998 25.34676742553711 7.753406524658203 31.12189674377441 5.31073522567749 C 37.10022354125977 2.782120943069458 43.45164108276367 1.500006556510925 49.99972534179688 1.500006556510925 C 56.54780960083008 1.500006556510925 62.89922714233398 2.782120943069458 68.87755584716797 5.31073522567749 C 74.65267944335938 7.753406524658203 79.839599609375 11.25062084197998 84.29421234130859 15.70522117614746 C 88.74882507324219 20.15983581542969 92.24604034423828 25.34673500061035 94.68872833251953 31.12186431884766 C 97.21733856201172 37.10017776489258 98.49945068359375 43.45157623291016 98.49945068359375 49.99964904785156 C 98.49945068359375 56.54829406738281 97.21733856201172 62.89969253540039 94.68872833251953 68.87800598144531 C 92.24604034423828 74.65313720703125 88.74882507324219 79.84004974365234 84.29421234130859 84.29464721679688 C 79.839599609375 88.74925994873047 74.65267944335938 92.24647521972656 68.87755584716797 94.68914794921875 C 62.89922714233398 97.21776580810547 56.54780960083008 98.4998779296875 49.99972534179688 98.4998779296875 Z" stroke="none"/>
                <path d="M 49.99972534179688 3 C 43.65348052978516 3 37.49866485595703 4.242240905761719 31.70623016357422 6.692230224609375 C 26.10989379882812 9.059272766113281 21.08323669433594 12.44853210449219 16.76589202880859 16.76587677001953 C 12.44855499267578 21.08321380615234 9.059295654296875 26.10985565185547 6.692230224609375 31.70618438720703 C 4.24224853515625 37.49859619140625 3 43.65341186523438 3 50.00022888183594 C 3 56.34645843505859 4.24224853515625 62.50127410888672 6.692230224609375 68.29368591308594 C 9.059295654296875 73.8900146484375 12.44855499267578 78.91665649414062 16.76589202880859 83.23399353027344 C 21.08323669433594 87.55132293701172 26.10989379882812 90.94059753417969 31.70623016357422 93.30764007568359 C 37.49866485595703 95.75762939453125 43.65348052978516 96.99987030029297 49.99972534179688 96.99987030029297 C 56.34597015380859 96.99987030029297 62.50078582763672 95.75762939453125 68.293212890625 93.30764007568359 C 73.88955688476562 90.94059753417969 78.91621398925781 87.55132293701172 83.23355865478516 83.23399353027344 C 87.55089569091797 78.91665649414062 90.94015502929688 73.8900146484375 93.30722045898438 68.29368591308594 C 95.7572021484375 62.50127410888672 96.99945068359375 56.34645843505859 96.99945068359375 49.99964141845703 C 96.99945068359375 43.65341186523438 95.7572021484375 37.49859619140625 93.30722045898438 31.70618438720703 C 90.94015502929688 26.10985565185547 87.55089569091797 21.08321380615234 83.23355865478516 16.76587677001953 C 78.91621398925781 12.44853210449219 73.88955688476562 9.059272766113281 68.293212890625 6.692230224609375 C 62.50078582763672 4.242240905761719 56.34597015380859 3 49.99972534179688 3 M 49.99972534179688 0 C 77.61381530761719 0 99.99945068359375 22.38559722900391 99.99945068359375 49.99964141845703 L 99.99945068359375 50.00022888183594 C 99.99945068359375 77.6142578125 77.61381530761719 99.99987030029297 49.99972534179688 99.99987030029297 C 22.38563537597656 99.99987030029297 0 77.6142578125 0 50.00022888183594 L 0 49.99964141845703 C 0 22.38559722900391 22.38563537597656 0 49.99972534179688 0 Z" stroke="none" fill="#fff"/>
              </g>
            </g>
            <g id="Trazado_874923" data-name="Trazado 874923" transform="translate(0 0)" fill="none">
              <path d="M50,0a50,50,0,0,1,50,50h0A50,50,0,0,1,0,50H0A50,50,0,0,1,50,0Z" stroke="none"/>
              <path d="M 49.99972534179688 3 C 43.65348052978516 3 37.49866485595703 4.242240905761719 31.70623016357422 6.692230224609375 C 26.10989379882812 9.059272766113281 21.08323669433594 12.44853210449219 16.76589202880859 16.76587677001953 C 12.44855499267578 21.08321380615234 9.059295654296875 26.10985565185547 6.692230224609375 31.70618438720703 C 4.24224853515625 37.49859619140625 3 43.65341186523438 3 50.00022888183594 C 3 56.34645843505859 4.24224853515625 62.50127410888672 6.692230224609375 68.29368591308594 C 9.059295654296875 73.8900146484375 12.44855499267578 78.91665649414062 16.76589202880859 83.23399353027344 C 21.08323669433594 87.55132293701172 26.10989379882812 90.94059753417969 31.70623016357422 93.30764007568359 C 37.49866485595703 95.75762939453125 43.65348052978516 96.99987030029297 49.99972534179688 96.99987030029297 C 56.34597015380859 96.99987030029297 62.50078582763672 95.75762939453125 68.293212890625 93.30764007568359 C 73.88955688476562 90.94059753417969 78.91621398925781 87.55132293701172 83.23355865478516 83.23399353027344 C 87.55089569091797 78.91665649414062 90.94015502929688 73.8900146484375 93.30722045898438 68.29368591308594 C 95.7572021484375 62.50127410888672 96.99945068359375 56.34645843505859 96.99945068359375 49.99964141845703 C 96.99945068359375 43.65341186523438 95.7572021484375 37.49859619140625 93.30722045898438 31.70618438720703 C 90.94015502929688 26.10985565185547 87.55089569091797 21.08321380615234 83.23355865478516 16.76587677001953 C 78.91621398925781 12.44853210449219 73.88955688476562 9.059272766113281 68.293212890625 6.692230224609375 C 62.50078582763672 4.242240905761719 56.34597015380859 3 49.99972534179688 3 M 49.99972534179688 0 C 77.61381530761719 0 99.99945068359375 22.38559722900391 99.99945068359375 49.99964141845703 L 99.99945068359375 50.00022888183594 C 99.99945068359375 77.6142578125 77.61381530761719 99.99987030029297 49.99972534179688 99.99987030029297 C 22.38563537597656 99.99987030029297 0 77.6142578125 0 50.00022888183594 L 0 49.99964141845703 C 0 22.38559722900391 22.38563537597656 0 49.99972534179688 0 Z" stroke="none" fill="#fff"/>
            </g>
          </g>
        </g>
      </g>
    </g>
    <g id="g6921" transform="translate(7288.504 -8222.674)">
      <g id="g6923" transform="translate(0 -682.665)">
        <g id="g6925" transform="translate(0 0)" clip-path="url(#clip-path)">
          <g id="g6931" transform="translate(51.168 53.517)">
            <path id="path6933" d="M-52.221-26.11a2.821,2.821,0,0,1-2.821,2.821,2.821,2.821,0,0,1-2.82-2.821,2.82,2.82,0,0,1,2.82-2.82,2.821,2.821,0,0,1,2.821,2.82" transform="translate(57.863 28.931)" fill="#ffb09e"/>
          </g>
          <g id="g6935" transform="translate(51.168 53.517)">
            <path id="path6937" d="M-52.221-26.11a2.821,2.821,0,0,1-2.821,2.821,2.821,2.821,0,0,1-2.82-2.821,2.82,2.82,0,0,1,2.82-2.82A2.821,2.821,0,0,1-52.221-26.11Z" transform="translate(57.863 28.931)" fill="none" stroke="#000" stroke-linecap="round" stroke-linejoin="round" stroke-miterlimit="10" stroke-width="2"/>
          </g>
          <g id="g6939" transform="translate(35.567 53.517)">
            <path id="path6941" d="M-52.221-26.11a2.821,2.821,0,0,1-2.82,2.821,2.821,2.821,0,0,1-2.821-2.821,2.821,2.821,0,0,1,2.821-2.82,2.821,2.821,0,0,1,2.82,2.82" transform="translate(57.863 28.931)" fill="#ffb09e"/>
          </g>
          <g id="g6943" transform="translate(35.567 53.517)">
            <path id="path6945" d="M-52.221-26.11a2.821,2.821,0,0,1-2.82,2.821,2.821,2.821,0,0,1-2.821-2.821,2.821,2.821,0,0,1,2.821-2.82A2.821,2.821,0,0,1-52.221-26.11Z" transform="translate(57.863 28.931)" fill="none" stroke="#000" stroke-linecap="round" stroke-linejoin="round" stroke-miterlimit="10" stroke-width="2"/>
          </g>
          <g id="g6947" transform="translate(38.78 44.794)">
            <path id="path6949" d="M-137.158-68.574v5.351a7.468,7.468,0,0,1-7.352,7.5,7.408,7.408,0,0,1-7.464-7.408v-5.444a7.408,7.408,0,0,1,7.409-7.408,7.384,7.384,0,0,1,5.238,2.17,7.387,7.387,0,0,1,2.17,5.238" transform="translate(151.974 75.981)" fill="#ffcebf"/>
          </g>
          <g id="g6951" transform="translate(40.027 44.794)">
            <path id="path6953" d="M-114.077-30.493a8.643,8.643,0,0,1-6.161,2.212,8.642,8.642,0,0,1-6.162-2.214,7.4,7.4,0,0,1,6.162-3.293A7.388,7.388,0,0,1-115-31.617a7.442,7.442,0,0,1,.923,1.124" transform="translate(126.4 33.787)" fill="#fee35a"/>
          </g>
          <g id="g6955" transform="translate(43.338 44.794)">
            <path id="path6957" d="M-83.428-30.493a6.816,6.816,0,0,1-2.613,1.617c-.082-.183-.172-.361-.269-.537a7.392,7.392,0,0,0-4.44-3.527,7.37,7.37,0,0,0-1.69-.278,7.355,7.355,0,0,1,2.851-.569,7.388,7.388,0,0,1,5.238,2.17,7.44,7.44,0,0,1,.923,1.124" transform="translate(92.44 33.787)" fill="#fed400"/>
          </g>
          <g id="g6959" transform="translate(40.027 48.087)">
            <path id="path6961" d="M-114.077-.012A8.643,8.643,0,0,1-120.238,2.2,8.642,8.642,0,0,1-126.4-.013" transform="translate(126.4 0.013)" fill="none" stroke="#000" stroke-linecap="round" stroke-linejoin="round" stroke-miterlimit="10" stroke-width="2"/>
          </g>
          <g id="g6963" transform="translate(38.78 44.794)">
            <path id="path6965" d="M-137.154-68.577v5.35a7.468,7.468,0,0,1-7.352,7.5,7.408,7.408,0,0,1-7.464-7.408v-5.443a7.408,7.408,0,0,1,7.408-7.408h0A7.408,7.408,0,0,1-137.154-68.577Z" transform="translate(151.97 75.985)" fill="none" stroke="#000" stroke-linecap="round" stroke-linejoin="round" stroke-miterlimit="10" stroke-width="2"/>
          </g>
          <g id="g6967" transform="translate(49.571 55.969)">
            <path id="path6969" d="M0,0H.01" fill="none" stroke="#000" stroke-linecap="round" stroke-linejoin="round" stroke-miterlimit="10" stroke-width="2"/>
          </g>
          <g id="g6971" transform="translate(42.796 55.969)">
            <path id="path6973" d="M0,0H.01" fill="none" stroke="#000" stroke-linecap="round" stroke-linejoin="round" stroke-miterlimit="10" stroke-width="2"/>
          </g>
          <g id="g6975" transform="translate(10.125 5.196)">
            <path id="path6977" d="M-98.238-55.649c0,3.32-2.376,6.011-5.306,6.011s-5.306-2.691-5.306-6.011,2.376-6.011,5.306-6.011,5.306,2.691,5.306,6.011" transform="translate(108.85 61.66)" fill="#a54f3e"/>
          </g>
          <g id="g6979" transform="translate(10.125 5.196)">
            <path id="path6981" d="M-98.238-55.649c0,3.32-2.376,6.011-5.306,6.011s-5.306-2.691-5.306-6.011,2.376-6.011,5.306-6.011S-98.238-58.969-98.238-55.649Z" transform="translate(108.85 61.66)" fill="none" stroke="#000" stroke-linecap="round" stroke-linejoin="round" stroke-miterlimit="10" stroke-width="2"/>
          </g>
          <g id="g6983" transform="translate(21.364 5.196)">
            <path id="path6985" d="M-98.238-55.649c0,3.32-2.376,6.011-5.306,6.011s-5.306-2.691-5.306-6.011,2.376-6.011,5.306-6.011,5.306,2.691,5.306,6.011" transform="translate(108.85 61.66)" fill="#a54f3e"/>
          </g>
          <g id="g6987" transform="translate(21.364 5.196)">
            <path id="path6989" d="M-93.756-32.429a5.314,5.314,0,0,0-4.822-3.5c-2.93,0-5.306,2.691-5.306,6.011s2.376,6.011,5.306,6.011a5.371,5.371,0,0,0,4.951-3.849" transform="translate(103.884 35.932)" fill="none" stroke="#000" stroke-linecap="round" stroke-linejoin="round" stroke-miterlimit="10" stroke-width="2"/>
          </g>
          <g id="g6991" transform="translate(26.04 15.329)">
            <path id="path6993" d="M-52.221-26.11a2.821,2.821,0,0,1-2.821,2.82,2.82,2.82,0,0,1-2.82-2.82,2.82,2.82,0,0,1,2.82-2.82,2.821,2.821,0,0,1,2.821,2.82" transform="translate(57.863 28.931)" fill="#ffb09e"/>
          </g>
          <g id="g6995" transform="translate(26.04 15.329)">
            <path id="path6997" d="M-52.221-26.11a2.821,2.821,0,0,1-2.821,2.82,2.82,2.82,0,0,1-2.82-2.82,2.82,2.82,0,0,1,2.82-2.82A2.821,2.821,0,0,1-52.221-26.11Z" transform="translate(57.863 28.931)" fill="none" stroke="#000" stroke-linecap="round" stroke-linejoin="round" stroke-miterlimit="10" stroke-width="2"/>
          </g>
          <g id="g6999" transform="translate(10.439 15.329)">
            <path id="path7001" d="M-52.221-26.11a2.821,2.821,0,0,1-2.821,2.82,2.82,2.82,0,0,1-2.82-2.82,2.82,2.82,0,0,1,2.82-2.82,2.821,2.821,0,0,1,2.821,2.82" transform="translate(57.863 28.931)" fill="#ffb09e"/>
          </g>
          <g id="g7003" transform="translate(10.439 15.329)">
            <path id="path7005" d="M-52.221-26.11a2.821,2.821,0,0,1-2.821,2.82,2.82,2.82,0,0,1-2.82-2.82,2.82,2.82,0,0,1,2.82-2.82A2.821,2.821,0,0,1-52.221-26.11Z" transform="translate(57.863 28.931)" fill="none" stroke="#000" stroke-linecap="round" stroke-linejoin="round" stroke-miterlimit="10" stroke-width="2"/>
          </g>
          <g id="g7007" transform="translate(13.651 6.607)">
            <path id="path7009" d="M-137.158-68.575v5.351a7.468,7.468,0,0,1-7.352,7.5,7.408,7.408,0,0,1-7.464-7.408v-5.444a7.408,7.408,0,0,1,7.409-7.408,7.384,7.384,0,0,1,5.238,2.17,7.387,7.387,0,0,1,2.17,5.238" transform="translate(151.974 75.982)" fill="#ffcebf"/>
          </g>
          <g id="g7011" transform="translate(13.652 6.607)">
            <path id="path7013" d="M-137.154-68.576v5.35a7.468,7.468,0,0,1-7.352,7.5,7.408,7.408,0,0,1-7.464-7.408v-5.443a7.408,7.408,0,0,1,7.408-7.408A7.408,7.408,0,0,1-137.154-68.576Z" transform="translate(151.97 75.984)" fill="none" stroke="#000" stroke-linecap="round" stroke-linejoin="round" stroke-miterlimit="10" stroke-width="2"/>
          </g>
          <g id="g7015" transform="translate(24.443 17.781)">
            <path id="path7017" d="M0,0H.01" fill="none" stroke="#000" stroke-linecap="round" stroke-linejoin="round" stroke-miterlimit="10" stroke-width="2"/>
          </g>
          <g id="g7019" transform="translate(17.668 17.781)">
            <path id="path7021" d="M0,0H.01" fill="none" stroke="#000" stroke-linecap="round" stroke-linejoin="round" stroke-miterlimit="10" stroke-width="2"/>
          </g>
          <g id="g7023" transform="translate(15.049 1.501)">
            <path id="path7025" d="M-55.649-98.238c-3.32,0-6.011-2.376-6.011-5.306s2.691-5.306,6.011-5.306,6.011,2.376,6.011,5.306-2.691,5.306-6.011,5.306" transform="translate(61.66 108.85)" fill="#bc5d4c"/>
          </g>
          <g id="g7027" transform="translate(17.365 1.508)">
            <path id="path7029" d="M-89.854-49.06c0,2.93-2.692,5.306-6.012,5.306a6.507,6.507,0,0,1-3.694-1.12c.1,0,.208.007.313.007,3.32,0,6.011-2.376,6.011-5.306a5.1,5.1,0,0,0-2.316-4.186c3.174.144,5.7,2.461,5.7,5.3" transform="translate(99.56 54.36)" fill="#a54f3e"/>
          </g>
          <g id="g7031" transform="translate(15.049 1.501)">
            <path id="path7033" d="M-55.649-98.238c-3.32,0-6.011-2.376-6.011-5.306s2.691-5.306,6.011-5.306,6.011,2.376,6.011,5.306S-52.329-98.238-55.649-98.238Z" transform="translate(61.66 108.85)" fill="none" stroke="#000" stroke-linecap="round" stroke-linejoin="round" stroke-miterlimit="10" stroke-width="2"/>
          </g>
          <g id="g7035" transform="translate(50.084 15.533)">
            <path id="path7037" d="M-52.22-26.11a2.82,2.82,0,0,1-2.82,2.82,2.82,2.82,0,0,1-2.82-2.82,2.82,2.82,0,0,1,2.82-2.82,2.82,2.82,0,0,1,2.82,2.82" transform="translate(57.861 28.931)" fill="#ffb09e"/>
          </g>
          <g id="g7039" transform="translate(50.084 15.533)">
            <path id="path7041" d="M-52.22-26.11a2.82,2.82,0,0,1-2.82,2.82,2.82,2.82,0,0,1-2.82-2.82,2.82,2.82,0,0,1,2.82-2.82A2.82,2.82,0,0,1-52.22-26.11Z" transform="translate(57.861 28.931)" fill="none" stroke="#000" stroke-linecap="round" stroke-linejoin="round" stroke-miterlimit="10" stroke-width="2"/>
          </g>
          <g id="g7043" transform="translate(34.482 15.533)">
            <path id="path7045" d="M-52.221-26.11a2.821,2.821,0,0,1-2.82,2.82,2.821,2.821,0,0,1-2.821-2.82,2.821,2.821,0,0,1,2.821-2.82,2.821,2.821,0,0,1,2.82,2.82" transform="translate(57.863 28.931)" fill="#ffb09e"/>
          </g>
          <g id="g7047" transform="translate(34.482 15.533)">
            <path id="path7049" d="M-52.221-26.11a2.821,2.821,0,0,1-2.82,2.82,2.821,2.821,0,0,1-2.821-2.82,2.821,2.821,0,0,1,2.821-2.82A2.821,2.821,0,0,1-52.221-26.11Z" transform="translate(57.863 28.931)" fill="none" stroke="#000" stroke-linecap="round" stroke-linejoin="round" stroke-miterlimit="10" stroke-width="2"/>
          </g>
          <g id="g7051" transform="translate(37.695 6.811)">
            <path id="path7053" d="M-137.158-68.574v5.351a7.468,7.468,0,0,1-7.352,7.5,7.408,7.408,0,0,1-7.464-7.408v-5.444a7.408,7.408,0,0,1,7.409-7.408,7.384,7.384,0,0,1,5.238,2.17,7.387,7.387,0,0,1,2.17,5.238" transform="translate(151.974 75.981)" fill="#ffcebf"/>
          </g>
          <g id="g7055" transform="translate(38.942 6.811)">
            <path id="path7057" d="M-114.077-30.493a8.643,8.643,0,0,1-6.161,2.212,8.641,8.641,0,0,1-6.161-2.214,7.4,7.4,0,0,1,6.161-3.293A7.388,7.388,0,0,1-115-31.617a7.442,7.442,0,0,1,.923,1.124" transform="translate(126.4 33.787)" fill="#547984"/>
          </g>
          <g id="g7059" transform="translate(42.253 6.811)">
            <path id="path7061" d="M-83.428-30.493a6.817,6.817,0,0,1-2.613,1.617c-.082-.183-.172-.361-.269-.537a7.392,7.392,0,0,0-4.44-3.527,7.37,7.37,0,0,0-1.69-.278,7.355,7.355,0,0,1,2.851-.569,7.388,7.388,0,0,1,5.239,2.17,7.44,7.44,0,0,1,.923,1.124" transform="translate(92.44 33.787)" fill="#3e5958"/>
          </g>
          <g id="g7063" transform="translate(38.942 10.104)">
            <path id="path7065" d="M-114.077-.012A8.643,8.643,0,0,1-120.238,2.2,8.641,8.641,0,0,1-126.4-.013" transform="translate(126.4 0.013)" fill="none" stroke="#000" stroke-linecap="round" stroke-linejoin="round" stroke-miterlimit="10" stroke-width="2"/>
          </g>
          <g id="g7067" transform="translate(37.695 6.811)">
            <path id="path7069" d="M-137.154-68.576v5.35a7.468,7.468,0,0,1-7.352,7.5,7.408,7.408,0,0,1-7.464-7.408v-5.443a7.408,7.408,0,0,1,7.408-7.408h0A7.408,7.408,0,0,1-137.154-68.576Z" transform="translate(151.97 75.984)" fill="none" stroke="#000" stroke-linecap="round" stroke-linejoin="round" stroke-miterlimit="10" stroke-width="2"/>
          </g>
          <g id="g7071" transform="translate(48.487 17.985)">
            <path id="path7073" d="M0,0H.01" fill="none" stroke="#000" stroke-linecap="round" stroke-linejoin="round" stroke-miterlimit="10" stroke-width="2"/>
          </g>
          <g id="g7075" transform="translate(41.711 17.985)">
            <path id="path7077" d="M0,0H.01" fill="none" stroke="#000" stroke-linecap="round" stroke-linejoin="round" stroke-miterlimit="10" stroke-width="2"/>
          </g>
          <g id="g7079" transform="translate(16.686 35.928)">
            <path id="path7081" d="M-52.221-26.11a2.821,2.821,0,0,1-2.821,2.82,2.82,2.82,0,0,1-2.82-2.82,2.82,2.82,0,0,1,2.82-2.82,2.821,2.821,0,0,1,2.821,2.82" transform="translate(57.863 28.931)" fill="#ffb09e"/>
          </g>
          <g id="g7083" transform="translate(16.686 35.928)">
            <path id="path7085" d="M-52.221-26.11a2.821,2.821,0,0,1-2.821,2.82,2.82,2.82,0,0,1-2.82-2.82,2.82,2.82,0,0,1,2.82-2.82A2.821,2.821,0,0,1-52.221-26.11Z" transform="translate(57.863 28.931)" fill="none" stroke="#000" stroke-linecap="round" stroke-linejoin="round" stroke-miterlimit="10" stroke-width="2"/>
          </g>
          <g id="g7087" transform="translate(1.085 35.928)">
            <path id="path7089" d="M-52.221-26.11a2.821,2.821,0,0,1-2.82,2.82,2.821,2.821,0,0,1-2.821-2.82,2.821,2.821,0,0,1,2.821-2.82,2.82,2.82,0,0,1,2.82,2.82" transform="translate(57.863 28.931)" fill="#ffb09e"/>
          </g>
          <g id="g7091" transform="translate(1.085 35.928)">
            <path id="path7093" d="M-52.221-26.11a2.821,2.821,0,0,1-2.82,2.82,2.821,2.821,0,0,1-2.821-2.82,2.821,2.821,0,0,1,2.821-2.82A2.82,2.82,0,0,1-52.221-26.11Z" transform="translate(57.863 28.931)" fill="none" stroke="#000" stroke-linecap="round" stroke-linejoin="round" stroke-miterlimit="10" stroke-width="2"/>
          </g>
          <g id="g7095" transform="translate(4.298 27.205)">
            <path id="path7097" d="M-137.158-68.574v5.351a7.468,7.468,0,0,1-7.352,7.5,7.408,7.408,0,0,1-7.464-7.408v-5.444a7.408,7.408,0,0,1,7.409-7.408,7.384,7.384,0,0,1,5.238,2.17,7.387,7.387,0,0,1,2.17,5.238" transform="translate(151.974 75.981)" fill="#ffcebf"/>
          </g>
          <g id="g7099" transform="translate(4.298 27.205)">
            <path id="path7101" d="M-137.154-68.576v5.35a7.468,7.468,0,0,1-7.352,7.5,7.408,7.408,0,0,1-7.464-7.408v-5.443a7.408,7.408,0,0,1,7.408-7.408A7.408,7.408,0,0,1-137.154-68.576Z" transform="translate(151.97 75.984)" fill="none" stroke="#000" stroke-linecap="round" stroke-linejoin="round" stroke-miterlimit="10" stroke-width="2"/>
          </g>
          <g id="g7103" transform="translate(15.089 38.38)">
            <path id="path7105" d="M0,0H.01" fill="none" stroke="#000" stroke-linecap="round" stroke-linejoin="round" stroke-miterlimit="10" stroke-width="2"/>
          </g>
          <g id="g7107" transform="translate(8.314 38.38)">
            <path id="path7109" d="M0,0H.01" fill="none" stroke="#000" stroke-linecap="round" stroke-linejoin="round" stroke-miterlimit="10" stroke-width="2"/>
          </g>
          <g id="g7111" transform="translate(0.975 23.683)">
            <path id="path7113" d="M-197.8-59.846a7.276,7.276,0,0,0-4.415-5.909,7.336,7.336,0,0,0-2.859-.556H-211.8a7.336,7.336,0,0,0-2.859.556,7.276,7.276,0,0,0-4.415,5.909c-1.213,7.141,9.455,3.674,10.636,3.27,1.18.4,11.848,3.872,10.636-3.27" transform="translate(219.167 66.311)" fill="#fee97d"/>
          </g>
          <g id="g7115" transform="translate(11.686 23.683)">
            <path id="path7117" d="M-41.618-99.953c1.9-.358,3.255-1.526,2.778-4.333a7.279,7.279,0,0,0-4.414-5.909,7.346,7.346,0,0,0-2.86-.555h3.382a7.351,7.351,0,0,1,2.86.555,7.279,7.279,0,0,1,4.414,5.909c.737,4.341-2.917,4.761-6.16,4.333" transform="translate(46.113 110.75)" fill="#fed400"/>
          </g>
          <g id="g7119" transform="translate(11.706 23.683)">
            <path id="path7121" d="M0,0V5.465" fill="none" stroke="#000" stroke-linecap="round" stroke-linejoin="round" stroke-miterlimit="10" stroke-width="2"/>
          </g>
          <g id="g7123" transform="translate(9.026 27.895)">
            <path id="path7125" d="M-24.808-24.808h0a2.68,2.68,0,0,0-2.68-2.68" transform="translate(27.488 27.488)" fill="none" stroke="#000" stroke-linecap="round" stroke-linejoin="round" stroke-miterlimit="10" stroke-width="2"/>
          </g>
          <g id="g7127" transform="translate(11.706 27.895)">
            <path id="path7129" d="M0-51.117v-2.842a2.68,2.68,0,0,1,2.68-2.68" transform="translate(0 56.639)" fill="none" stroke="#000" stroke-linecap="round" stroke-linejoin="round" stroke-miterlimit="10" stroke-width="2"/>
          </g>
          <g id="g7131" transform="translate(0.975 23.683)">
            <path id="path7133" d="M-197.8-59.846a7.276,7.276,0,0,0-4.415-5.909,7.336,7.336,0,0,0-2.859-.556H-211.8a7.336,7.336,0,0,0-2.859.556,7.276,7.276,0,0,0-4.415,5.909c-1.213,7.141,9.455,3.674,10.636,3.27C-207.255-56.172-196.587-52.7-197.8-59.846Z" transform="translate(219.167 66.311)" fill="none" stroke="#000" stroke-linecap="round" stroke-linejoin="round" stroke-miterlimit="10" stroke-width="2"/>
          </g>
          <g id="g7135" transform="translate(17.966 20.776)">
            <path id="path7137" d="M-193.166-193.169a8.783,8.783,0,0,1-9.961,1.715l11.677-11.677a8.783,8.783,0,0,1-1.716,9.961m-12.411-12.412a8.749,8.749,0,0,1,6.206-2.566,8.793,8.793,0,0,1,3.755.851l-11.677,11.677a8.783,8.783,0,0,1,1.716-9.961M-189-209.747a14.685,14.685,0,0,0-20.743,0,14.685,14.685,0,0,0,0,20.743,14.624,14.624,0,0,0,10.372,4.289A14.623,14.623,0,0,0-189-189a14.685,14.685,0,0,0,0-20.743" transform="translate(214.032 214.036)" fill="#fd636f"/>
          </g>
          <g id="g7139" transform="translate(30.331 20.777)">
            <path id="path7141" d="M-117.276-231.727a14.621,14.621,0,0,1-10.372,4.289,14.692,14.692,0,0,1-2.3-.18,14.577,14.577,0,0,0,8.076-4.109,14.685,14.685,0,0,0,0-20.743,14.578,14.578,0,0,0-8.076-4.109,14.657,14.657,0,0,1,12.669,4.109,14.685,14.685,0,0,1,0,20.743" transform="translate(129.945 256.759)" fill="#fe4855"/>
          </g>
          <g id="g7143" transform="translate(17.966 20.776)">
            <path id="path7145" d="M-172.867-137.137l3.908-3.908a8.783,8.783,0,0,1-1.716,9.961,8.783,8.783,0,0,1-9.961,1.716l4.466-4.466m-6.916-9.661a8.749,8.749,0,0,1,6.206-2.566,8.792,8.792,0,0,1,3.755.851L-184.8-133.534A8.783,8.783,0,0,1-183.085-143.5Zm16.577-4.166a14.685,14.685,0,0,0-20.743,0,14.685,14.685,0,0,0,0,20.743,14.624,14.624,0,0,0,10.372,4.289,14.623,14.623,0,0,0,10.372-4.289A14.685,14.685,0,0,0-166.508-147.661Z" transform="translate(191.54 151.951)" fill="none" stroke="#000" stroke-linecap="round" stroke-linejoin="round" stroke-miterlimit="10" stroke-width="2"/>
          </g>
          <g id="g7147" transform="translate(11.056 42.251)">
            <path id="path7149" d="M-98.237-55.647c0,3.32-2.376,6.011-5.306,6.011s-5.306-2.691-5.306-6.011,2.376-6.011,5.306-6.011,5.306,2.691,5.306,6.011" transform="translate(108.849 61.659)" fill="#3e5958"/>
          </g>
          <g id="g7151" transform="translate(11.056 42.251)">
            <path id="path7153" d="M-98.237-55.647c0,3.32-2.376,6.011-5.306,6.011s-5.306-2.691-5.306-6.011,2.376-6.011,5.306-6.011S-98.237-58.967-98.237-55.647Z" transform="translate(108.849 61.659)" fill="none" stroke="#000" stroke-linecap="round" stroke-linejoin="round" stroke-miterlimit="10" stroke-width="2"/>
          </g>
          <g id="g7155" transform="translate(26.658 52.384)">
            <path id="path7157" d="M-52.221-26.111a2.821,2.821,0,0,1-2.821,2.82,2.821,2.821,0,0,1-2.82-2.82,2.821,2.821,0,0,1,2.82-2.821,2.821,2.821,0,0,1,2.821,2.821" transform="translate(57.863 28.932)" fill="#ffb09e"/>
          </g>
          <g id="g7159" transform="translate(26.658 52.384)">
            <path id="path7161" d="M-52.221-26.111a2.821,2.821,0,0,1-2.821,2.82,2.821,2.821,0,0,1-2.82-2.82,2.821,2.821,0,0,1,2.82-2.821A2.821,2.821,0,0,1-52.221-26.111Z" transform="translate(57.863 28.932)" fill="none" stroke="#000" stroke-linecap="round" stroke-linejoin="round" stroke-miterlimit="10" stroke-width="2"/>
          </g>
          <g id="g7163" transform="translate(11.056 52.384)">
            <path id="path7165" d="M-52.221-26.111a2.82,2.82,0,0,1-2.82,2.82,2.821,2.821,0,0,1-2.821-2.82,2.821,2.821,0,0,1,2.821-2.821,2.821,2.821,0,0,1,2.82,2.821" transform="translate(57.863 28.932)" fill="#ffb09e"/>
          </g>
          <g id="g7167" transform="translate(11.056 52.384)">
            <path id="path7169" d="M-52.221-26.111a2.82,2.82,0,0,1-2.82,2.82,2.821,2.821,0,0,1-2.821-2.82,2.821,2.821,0,0,1,2.821-2.821A2.821,2.821,0,0,1-52.221-26.111Z" transform="translate(57.863 28.932)" fill="none" stroke="#000" stroke-linecap="round" stroke-linejoin="round" stroke-miterlimit="10" stroke-width="2"/>
          </g>
          <g id="g7171" transform="translate(14.269 43.662)">
            <path id="path7173" d="M-137.158-68.575v5.351a7.468,7.468,0,0,1-7.352,7.5,7.408,7.408,0,0,1-7.464-7.408v-5.444a7.408,7.408,0,0,1,7.409-7.408,7.384,7.384,0,0,1,5.238,2.17,7.388,7.388,0,0,1,2.17,5.238" transform="translate(151.974 75.982)" fill="#ffcebf"/>
          </g>
          <g id="g7175" transform="translate(14.27 43.662)">
            <path id="path7177" d="M-137.154-68.577v5.35a7.468,7.468,0,0,1-7.352,7.5,7.408,7.408,0,0,1-7.464-7.408v-5.443a7.408,7.408,0,0,1,7.408-7.408A7.408,7.408,0,0,1-137.154-68.577Z" transform="translate(151.97 75.985)" fill="none" stroke="#000" stroke-linecap="round" stroke-linejoin="round" stroke-miterlimit="10" stroke-width="2"/>
          </g>
          <g id="g7179" transform="translate(25.061 54.836)">
            <path id="path7181" d="M0,0H.01" fill="none" stroke="#000" stroke-linecap="round" stroke-linejoin="round" stroke-miterlimit="10" stroke-width="2"/>
          </g>
          <g id="g7183" transform="translate(18.285 54.836)">
            <path id="path7185" d="M0,0H.01" fill="none" stroke="#000" stroke-linecap="round" stroke-linejoin="round" stroke-miterlimit="10" stroke-width="2"/>
          </g>
          <g id="g7187" transform="translate(15.974 39.331)">
            <path id="path7189" d="M-132.872-39.116c.88-.806,1.3-1.672,1.051-2.421-.511-1.549-12.257-3.756-15.081,1.533-1.439,2.694,2.152,7.515,6.237,8.748s8.2-.092,9.184-2.959a4.872,4.872,0,0,0-1.391-4.9" transform="translate(147.226 43.341)" fill="#547984"/>
          </g>
          <g id="g7191" transform="translate(21.699 39.473)">
            <path id="path7193" d="M-92.751-83.169c-.988,2.867-5.1,4.191-9.184,2.96a8.09,8.09,0,0,1-.835-.3c3.129.164,5.862-1.139,6.643-3.406a4.564,4.564,0,0,0-.786-4.162A1.206,1.206,0,0,1-96.9-89.5a1.924,1.924,0,0,0,.429-1.739c-.1-.3-.615-.622-1.406-.912,2.541.3,4.576,1.038,4.783,1.662.247.75-.171,1.616-1.051,2.421a4.875,4.875,0,0,1,1.39,4.9" transform="translate(102.77 92.153)" fill="#3e5958"/>
          </g>
          <g id="g7195" transform="translate(15.974 39.331)">
            <path id="path7197" d="M-65.38-113.146c3.915.983,7.735-.347,8.681-3.1a4.872,4.872,0,0,0-1.391-4.9c.88-.806,1.3-1.672,1.051-2.421-.511-1.549-12.257-3.756-15.081,1.533-.98,1.835.374,4.655,2.627,6.658" transform="translate(72.442 125.368)" fill="none" stroke="#000" stroke-linecap="round" stroke-linejoin="round" stroke-miterlimit="10" stroke-width="2"/>
          </g>
          <g id="g7199" transform="translate(44.337 22.545)">
            <path id="path7201" d="M-98.238-55.649c0,3.32-2.376,6.011-5.306,6.011s-5.306-2.691-5.306-6.011,2.376-6.011,5.306-6.011,5.306,2.691,5.306,6.011" transform="translate(108.85 61.66)" fill="#a54f3e"/>
          </g>
          <g id="g7203" transform="translate(44.337 22.545)">
            <path id="path7205" d="M-98.238-55.649c0,3.32-2.376,6.011-5.306,6.011s-5.306-2.691-5.306-6.011,2.376-6.011,5.306-6.011S-98.238-58.969-98.238-55.649Z" transform="translate(108.85 61.66)" fill="none" stroke="#000" stroke-linecap="round" stroke-linejoin="round" stroke-miterlimit="10" stroke-width="2"/>
          </g>
          <g id="g7207" transform="translate(59.938 32.678)">
            <path id="path7209" d="M-52.221-26.11a2.821,2.821,0,0,1-2.82,2.82,2.821,2.821,0,0,1-2.821-2.82,2.82,2.82,0,0,1,2.821-2.82,2.82,2.82,0,0,1,2.82,2.82" transform="translate(57.863 28.931)" fill="#ffb09e"/>
          </g>
          <g id="g7211" transform="translate(59.938 32.678)">
            <path id="path7213" d="M-52.221-26.11a2.821,2.821,0,0,1-2.82,2.82,2.821,2.821,0,0,1-2.821-2.82,2.82,2.82,0,0,1,2.821-2.82A2.82,2.82,0,0,1-52.221-26.11Z" transform="translate(57.863 28.931)" fill="none" stroke="#000" stroke-linecap="round" stroke-linejoin="round" stroke-miterlimit="10" stroke-width="2"/>
          </g>
          <g id="g7215" transform="translate(44.337 32.678)">
            <path id="path7217" d="M-52.221-26.11a2.821,2.821,0,0,1-2.821,2.82,2.82,2.82,0,0,1-2.82-2.82,2.82,2.82,0,0,1,2.82-2.82,2.821,2.821,0,0,1,2.821,2.82" transform="translate(57.863 28.931)" fill="#ffb09e"/>
          </g>
          <g id="g7219" transform="translate(44.337 32.678)">
            <path id="path7221" d="M-52.221-26.11a2.821,2.821,0,0,1-2.821,2.82,2.82,2.82,0,0,1-2.82-2.82,2.82,2.82,0,0,1,2.82-2.82A2.821,2.821,0,0,1-52.221-26.11Z" transform="translate(57.863 28.931)" fill="none" stroke="#000" stroke-linecap="round" stroke-linejoin="round" stroke-miterlimit="10" stroke-width="2"/>
          </g>
          <g id="g7223" transform="translate(47.55 23.956)">
            <path id="path7225" d="M-137.158-68.574v5.351a7.468,7.468,0,0,1-7.352,7.5,7.408,7.408,0,0,1-7.464-7.408v-5.444a7.408,7.408,0,0,1,7.409-7.408,7.384,7.384,0,0,1,5.238,2.17,7.387,7.387,0,0,1,2.17,5.238" transform="translate(151.974 75.981)" fill="#ffcebf"/>
          </g>
          <g id="g7227" transform="translate(47.55 23.956)">
            <path id="path7229" d="M-137.156-68.576v5.35a7.468,7.468,0,0,1-7.352,7.5,7.408,7.408,0,0,1-7.464-7.408v-5.443a7.408,7.408,0,0,1,7.408-7.408A7.408,7.408,0,0,1-137.156-68.576Z" transform="translate(151.972 75.984)" fill="none" stroke="#000" stroke-linecap="round" stroke-linejoin="round" stroke-miterlimit="10" stroke-width="2"/>
          </g>
          <g id="g7231" transform="translate(58.341 35.13)">
            <path id="path7233" d="M0,0H.01" fill="none" stroke="#000" stroke-linecap="round" stroke-linejoin="round" stroke-miterlimit="10" stroke-width="2"/>
          </g>
          <g id="g7235" transform="translate(51.566 35.13)">
            <path id="path7237" d="M0,0H.01" fill="none" stroke="#000" stroke-linecap="round" stroke-linejoin="round" stroke-miterlimit="10" stroke-width="2"/>
          </g>
          <g id="g7239" transform="translate(49.255 19.625)">
            <path id="path7241" d="M-132.872-39.115c.88-.806,1.3-1.672,1.051-2.421-.511-1.549-12.257-3.756-15.081,1.533-1.439,2.694,2.152,7.515,6.237,8.748s8.2-.092,9.184-2.959a4.872,4.872,0,0,0-1.391-4.9" transform="translate(147.226 43.341)" fill="#bc5d4c"/>
          </g>
          <g id="g7243" transform="translate(54.98 19.767)">
            <path id="path7245" d="M-92.75-83.169c-.988,2.867-5.1,4.192-9.184,2.96a8.05,8.05,0,0,1-.835-.3c3.129.164,5.862-1.139,6.643-3.406a4.564,4.564,0,0,0-.786-4.162A1.206,1.206,0,0,1-96.9-89.5a1.924,1.924,0,0,0,.429-1.739c-.1-.3-.615-.623-1.406-.912,2.541.3,4.576,1.038,4.783,1.662.247.75-.171,1.616-1.051,2.421a4.874,4.874,0,0,1,1.39,4.9" transform="translate(102.769 92.153)" fill="#a54f3e"/>
          </g>
          <g id="g7247" transform="translate(49.255 19.625)">
            <path id="path7249" d="M-132.872-39.115c.88-.806,1.3-1.672,1.051-2.421-.511-1.549-12.257-3.756-15.081,1.533-1.439,2.694,2.152,7.515,6.237,8.748s8.2-.092,9.184-2.959A4.872,4.872,0,0,0-132.872-39.115Z" transform="translate(147.226 43.341)" fill="none" stroke="#000" stroke-linecap="round" stroke-linejoin="round" stroke-miterlimit="10" stroke-width="2"/>
          </g>
        </g>
      </g>
    </g>
  </g>
</svg>
