<svg xmlns="http://www.w3.org/2000/svg" xmlns:xlink="http://www.w3.org/1999/xlink" width="118" height="118" viewBox="0 0 118 118">
  <defs>
    <filter id="Trazado_874925" x="0" y="0" width="117.999" height="118" filterUnits="userSpaceOnUse">
      <feOffset dy="3" input="SourceAlpha"/>
      <feGaussianBlur stdDeviation="3" result="blur"/>
      <feFlood flood-opacity="0.161"/>
      <feComposite operator="in" in2="blur"/>
      <feComposite in="SourceGraphic"/>
    </filter>
  </defs>
  <g id="Grupo_1199453" data-name="Grupo 1199453" transform="translate(1592.616 9359.573)">
    <g id="Grupo_1198313" data-name="Grupo 1198313" transform="translate(-2392.116 -11870.73)">
      <g id="Grupo_1111316" data-name="Grupo 1111316" transform="translate(808.5 2517.157)">
        <g id="Grupo_1109835" data-name="Grupo 1109835" transform="translate(0 0)">
          <g id="Grupo_1107913" data-name="Grupo 1107913" transform="translate(0 0)">
            <g transform="matrix(1, 0, 0, 1, -9, -6)" filter="url(#Trazado_874925)">
              <g id="Trazado_874925-2" data-name="Trazado 874925" transform="translate(9 6)" fill="#9ad354" opacity="0.859">
                <path d="M 49.99972534179688 98.4998779296875 C 43.45164108276367 98.4998779296875 37.10022354125977 97.21776580810547 31.12189674377441 94.68914794921875 C 25.34676742553711 92.24647521972656 20.15985298156738 88.74925994873047 15.70523929595947 84.29464721679688 C 11.25062561035156 79.84004974365234 7.753411293029785 74.65313720703125 5.310725212097168 68.87800598144531 C 2.782111167907715 62.89969253540039 1.499996781349182 56.54829406738281 1.499996781349182 50.00022125244141 C 1.499996781349182 43.45157623291016 2.782111167907715 37.10017776489258 5.310725212097168 31.12186431884766 C 7.753411293029785 25.34673500061035 11.25062561035156 20.15983581542969 15.70523929595947 15.70522117614746 C 20.15985298156738 11.25062084197998 25.34676742553711 7.753406524658203 31.12189674377441 5.31073522567749 C 37.10022354125977 2.782120943069458 43.45164108276367 1.500006556510925 49.99972534179688 1.500006556510925 C 56.54780960083008 1.500006556510925 62.89922714233398 2.782120943069458 68.87755584716797 5.31073522567749 C 74.65267944335938 7.753406524658203 79.839599609375 11.25062084197998 84.29421234130859 15.70522117614746 C 88.74882507324219 20.15983581542969 92.24604034423828 25.34673500061035 94.68872833251953 31.12186431884766 C 97.21733856201172 37.10017776489258 98.49945068359375 43.45157623291016 98.49945068359375 49.99964904785156 C 98.49945068359375 56.54829406738281 97.21733856201172 62.89969253540039 94.68872833251953 68.87800598144531 C 92.24604034423828 74.65313720703125 88.74882507324219 79.84004974365234 84.29421234130859 84.29464721679688 C 79.839599609375 88.74925994873047 74.65267944335938 92.24647521972656 68.87755584716797 94.68914794921875 C 62.89922714233398 97.21776580810547 56.54780960083008 98.4998779296875 49.99972534179688 98.4998779296875 Z" stroke="none"/>
                <path d="M 49.99972534179688 3 C 43.65348052978516 3 37.49866485595703 4.242240905761719 31.70623016357422 6.692230224609375 C 26.10989379882812 9.059272766113281 21.08323669433594 12.44853210449219 16.76589202880859 16.76587677001953 C 12.44855499267578 21.08321380615234 9.059295654296875 26.10985565185547 6.692230224609375 31.70618438720703 C 4.24224853515625 37.49859619140625 3 43.65341186523438 3 50.00022888183594 C 3 56.34645843505859 4.24224853515625 62.50127410888672 6.692230224609375 68.29368591308594 C 9.059295654296875 73.8900146484375 12.44855499267578 78.91665649414062 16.76589202880859 83.23399353027344 C 21.08323669433594 87.55132293701172 26.10989379882812 90.94059753417969 31.70623016357422 93.30764007568359 C 37.49866485595703 95.75762939453125 43.65348052978516 96.99987030029297 49.99972534179688 96.99987030029297 C 56.34597015380859 96.99987030029297 62.50078582763672 95.75762939453125 68.293212890625 93.30764007568359 C 73.88955688476562 90.94059753417969 78.91621398925781 87.55132293701172 83.23355865478516 83.23399353027344 C 87.55089569091797 78.91665649414062 90.94015502929688 73.8900146484375 93.30722045898438 68.29368591308594 C 95.7572021484375 62.50127410888672 96.99945068359375 56.34645843505859 96.99945068359375 49.99964141845703 C 96.99945068359375 43.65341186523438 95.7572021484375 37.49859619140625 93.30722045898438 31.70618438720703 C 90.94015502929688 26.10985565185547 87.55089569091797 21.08321380615234 83.23355865478516 16.76587677001953 C 78.91621398925781 12.44853210449219 73.88955688476562 9.059272766113281 68.293212890625 6.692230224609375 C 62.50078582763672 4.242240905761719 56.34597015380859 3 49.99972534179688 3 M 49.99972534179688 0 C 77.61381530761719 0 99.99945068359375 22.38559722900391 99.99945068359375 49.99964141845703 L 99.99945068359375 50.00022888183594 C 99.99945068359375 77.6142578125 77.61381530761719 99.99987030029297 49.99972534179688 99.99987030029297 C 22.38563537597656 99.99987030029297 0 77.6142578125 0 50.00022888183594 L 0 49.99964141845703 C 0 22.38559722900391 22.38563537597656 0 49.99972534179688 0 Z" stroke="none" fill="#fff"/>
              </g>
            </g>
            <g id="Trazado_874923" data-name="Trazado 874923" transform="translate(0 0)" fill="none">
              <path d="M50,0a50,50,0,0,1,50,50h0A50,50,0,0,1,0,50H0A50,50,0,0,1,50,0Z" stroke="none"/>
              <path d="M 49.99972534179688 3 C 43.65348052978516 3 37.49866485595703 4.242240905761719 31.70623016357422 6.692230224609375 C 26.10989379882812 9.059272766113281 21.08323669433594 12.44853210449219 16.76589202880859 16.76587677001953 C 12.44855499267578 21.08321380615234 9.059295654296875 26.10985565185547 6.692230224609375 31.70618438720703 C 4.24224853515625 37.49859619140625 3 43.65341186523438 3 50.00022888183594 C 3 56.34645843505859 4.24224853515625 62.50127410888672 6.692230224609375 68.29368591308594 C 9.059295654296875 73.8900146484375 12.44855499267578 78.91665649414062 16.76589202880859 83.23399353027344 C 21.08323669433594 87.55132293701172 26.10989379882812 90.94059753417969 31.70623016357422 93.30764007568359 C 37.49866485595703 95.75762939453125 43.65348052978516 96.99987030029297 49.99972534179688 96.99987030029297 C 56.34597015380859 96.99987030029297 62.50078582763672 95.75762939453125 68.293212890625 93.30764007568359 C 73.88955688476562 90.94059753417969 78.91621398925781 87.55132293701172 83.23355865478516 83.23399353027344 C 87.55089569091797 78.91665649414062 90.94015502929688 73.8900146484375 93.30722045898438 68.29368591308594 C 95.7572021484375 62.50127410888672 96.99945068359375 56.34645843505859 96.99945068359375 49.99964141845703 C 96.99945068359375 43.65341186523438 95.7572021484375 37.49859619140625 93.30722045898438 31.70618438720703 C 90.94015502929688 26.10985565185547 87.55089569091797 21.08321380615234 83.23355865478516 16.76587677001953 C 78.91621398925781 12.44853210449219 73.88955688476562 9.059272766113281 68.293212890625 6.692230224609375 C 62.50078582763672 4.242240905761719 56.34597015380859 3 49.99972534179688 3 M 49.99972534179688 0 C 77.61381530761719 0 99.99945068359375 22.38559722900391 99.99945068359375 49.99964141845703 L 99.99945068359375 50.00022888183594 C 99.99945068359375 77.6142578125 77.61381530761719 99.99987030029297 49.99972534179688 99.99987030029297 C 22.38563537597656 99.99987030029297 0 77.6142578125 0 50.00022888183594 L 0 49.99964141845703 C 0 22.38559722900391 22.38563537597656 0 49.99972534179688 0 Z" stroke="none" fill="#fff"/>
            </g>
          </g>
        </g>
      </g>
    </g>
    <g id="warning_10790853" transform="translate(-1573.845 -9344.302)">
      <g id="Grupo_1199451" data-name="Grupo 1199451" transform="translate(10 10)">
        <path id="Trazado_1031313" data-name="Trazado 1031313" d="M37.368,321.976q-5.28-9.154-10.56-18.309a3.358,3.358,0,0,0-5.8,0q-5.288,9.15-10.56,18.309a3.343,3.343,0,0,0,2.9,5.008H34.468a3.344,3.344,0,0,0,2.9-5.008Z" transform="translate(-10 -265.528)" fill="#ffda8f" fill-rule="evenodd"/>
        <path id="Trazado_1031314" data-name="Trazado 1031314" d="M226.077,171.994a2.506,2.506,0,0,1,2.5,2.5,2.506,2.506,0,0,0,2.5,2.5,2.5,2.5,0,1,1,0,5h-5a5,5,0,0,0,0,9.993h4.19a2.8,2.8,0,0,1,1.761-.625,3.644,3.644,0,0,1,4.82-3.445,5.631,5.631,0,0,1,5.515-2.074,25,25,0,0,0-2.021-21.82q-.631-1.038-1.364-2.016H218.707a5,5,0,0,0,0,9.993Z" transform="translate(-188.265 -143.014)" fill="#e0ef9b" fill-rule="evenodd"/>
        <path id="Trazado_1031315" data-name="Trazado 1031315" d="M19.539,97.243h8.153a2.81,2.81,0,1,0,0-5.621A5.621,5.621,0,0,0,17.63,88.177a3.644,3.644,0,0,0-4.82,3.445,2.81,2.81,0,1,0,0,5.621h6.729Z" transform="translate(-10 -76.508)" fill="#b6bccf" fill-rule="evenodd"/>
        <path id="Trazado_1031316" data-name="Trazado 1031316" d="M338.907,358.248a2.808,2.808,0,0,0,1.762,5h14.882a2.811,2.811,0,1,0,0-5.621,5.621,5.621,0,0,0-10.062-3.445,3.644,3.644,0,0,0-4.82,3.445A2.8,2.8,0,0,0,338.907,358.248Z" transform="translate(-296.905 -309.283)" fill="#b6bccf" fill-rule="evenodd"/>
        <path id="Trazado_1031317" data-name="Trazado 1031317" d="M316.2,19.368a3.132,3.132,0,0,0-3.123-3.123,4.049,4.049,0,0,0-5.355-3.828,6.245,6.245,0,0,0-11.181,3.828,3.132,3.132,0,0,0-3.123,3.123c0,.021,0,.042,0,.063a3.132,3.132,0,0,0,3.122,3.06h16.536A3.132,3.132,0,0,0,316.2,19.368Z" transform="translate(-258.017 -10)" fill="#b6bccf" fill-rule="evenodd"/>
        <path id="Trazado_1031318" data-name="Trazado 1031318" d="M88.067,101.988H80.7a5,5,0,0,1,0-9.993h20.272q-.518-.691-1.085-1.347A25.106,25.106,0,0,0,93.739,85.5H88.78a3.132,3.132,0,0,1-3.122-3.06h0a25.06,25.06,0,0,0-18.148,3.5,5.6,5.6,0,0,1,.438,2.18,2.81,2.81,0,1,1,0,5.621H59.794A25.029,25.029,0,0,0,58,116.8q1.63-2.825,3.261-5.648a3.358,3.358,0,0,1,5.8,0q5.288,9.15,10.56,18.309A3.321,3.321,0,0,1,78,131.79a25.232,25.232,0,0,0,2.981.176,24.872,24.872,0,0,0,14.992-5H94.019a2.808,2.808,0,0,1-1.761-5h-4.19a5,5,0,0,1,0-9.993h5a2.5,2.5,0,1,0,0-5,2.506,2.506,0,0,1-2.5-2.5A2.506,2.506,0,0,0,88.067,101.988Z" transform="translate(-50.255 -73.008)" fill="#99ebfa" fill-rule="evenodd"/>
      </g>
      <g id="Grupo_1199452" data-name="Grupo 1199452" transform="translate(10 10)">
        <path id="Trazado_1031319" data-name="Trazado 1031319" d="M34.469,326.985a3.344,3.344,0,0,0,2.9-5.008q-5.28-9.154-10.56-18.309a3.358,3.358,0,0,0-5.8,0q-5.288,9.15-10.56,18.309a3.343,3.343,0,0,0,2.9,5.008H34.469Z" transform="translate(-10 -265.529)" fill="none" stroke="#000" stroke-linecap="round" stroke-linejoin="round" stroke-miterlimit="2.613" stroke-width="2" fill-rule="evenodd"/>
        <line id="Línea_739" data-name="Línea 739" y1="7.677" transform="translate(13.886 43.783)" fill="none" stroke="#000" stroke-linecap="round" stroke-linejoin="round" stroke-miterlimit="2.613" stroke-width="2"/>
        <line id="Línea_740" data-name="Línea 740" x2="0.001" transform="translate(13.881 56.456)" fill="none" stroke="#000" stroke-linecap="round" stroke-linejoin="round" stroke-miterlimit="22.926" stroke-width="2"/>
        <path id="Trazado_1031320" data-name="Trazado 1031320" d="M238.081,162H218.708a5,5,0,0,0,0,9.993h7.37a2.506,2.506,0,0,1,2.5,2.5,2.506,2.506,0,0,0,2.5,2.5,2.5,2.5,0,1,1,0,5h-5a5,5,0,1,0,0,9.993h3.967" transform="translate(-188.266 -143.014)" fill="none" stroke="#000" stroke-linecap="round" stroke-linejoin="round" stroke-miterlimit="2.613" stroke-width="2" fill-rule="evenodd"/>
        <path id="Trazado_1031321" data-name="Trazado 1031321" d="M359.9,111.105a24.982,24.982,0,0,1,10.578,29.668" transform="translate(-316.191 -98.476)" fill="none" stroke="#000" stroke-linecap="round" stroke-linejoin="round" stroke-miterlimit="2.613" stroke-width="2" fill-rule="evenodd"/>
        <path id="Trazado_1031322" data-name="Trazado 1031322" d="M252.229,443.734a24.98,24.98,0,0,1-17.333,4.641" transform="translate(-206.804 -389.556)" fill="none" stroke="#000" stroke-linecap="round" stroke-linejoin="round" stroke-miterlimit="2.613" stroke-width="2" fill-rule="evenodd"/>
        <path id="Trazado_1031323" data-name="Trazado 1031323" d="M58.595,307.3a24.982,24.982,0,0,1-1.778-7.252" transform="translate(-50.969 -263.821)" fill="none" stroke="#000" stroke-linecap="round" stroke-linejoin="round" stroke-miterlimit="2.613" stroke-width="2" fill-rule="evenodd"/>
        <line id="Línea_741" data-name="Línea 741" x2="0.001" transform="translate(5.978 30.575)" fill="none" stroke="#000" stroke-linecap="round" stroke-linejoin="round" stroke-miterlimit="22.926" stroke-width="2"/>
        <path id="Trazado_1031324" data-name="Trazado 1031324" d="M69.07,181.1a24.98,24.98,0,0,1,2.1-4.252" transform="translate(-61.691 -156.007)" fill="none" stroke="#000" stroke-linecap="round" stroke-linejoin="round" stroke-miterlimit="2.613" stroke-width="2" fill-rule="evenodd"/>
        <path id="Trazado_1031325" data-name="Trazado 1031325" d="M149.914,85.806A24.982,24.982,0,0,1,167.5,82.381" transform="translate(-132.437 -73.008)" fill="none" stroke="#000" stroke-linecap="round" stroke-linejoin="round" stroke-miterlimit="2.613" stroke-width="2" fill-rule="evenodd"/>
        <path id="Trazado_1031326" data-name="Trazado 1031326" d="M12.811,91.623a2.811,2.811,0,0,0,0,5.621H27.693a2.811,2.811,0,0,0,0-5.621A5.621,5.621,0,0,0,17.63,88.178,3.644,3.644,0,0,0,12.811,91.623Z" transform="translate(-10 -76.509)" fill="none" stroke="#000" stroke-linecap="round" stroke-linejoin="round" stroke-miterlimit="2.613" stroke-width="2" fill-rule="evenodd"/>
        <path id="Trazado_1031327" data-name="Trazado 1031327" d="M340.669,357.623a2.811,2.811,0,1,0,0,5.621h14.882a2.811,2.811,0,1,0,0-5.621,5.621,5.621,0,0,0-10.062-3.445A3.644,3.644,0,0,0,340.669,357.623Z" transform="translate(-296.905 -309.282)" fill="none" stroke="#000" stroke-linecap="round" stroke-linejoin="round" stroke-miterlimit="2.613" stroke-width="2" fill-rule="evenodd"/>
        <path id="Trazado_1031328" data-name="Trazado 1031328" d="M313.078,16.246a3.123,3.123,0,0,1,0,6.246H296.542a3.123,3.123,0,0,1,0-6.246,6.246,6.246,0,0,1,11.181-3.828A4.049,4.049,0,0,1,313.078,16.246Z" transform="translate(-258.017 -10)" fill="none" stroke="#000" stroke-linecap="round" stroke-linejoin="round" stroke-miterlimit="2.613" stroke-width="2" fill-rule="evenodd"/>
      </g>
    </g>
  </g>
</svg>
