<svg xmlns="http://www.w3.org/2000/svg" xmlns:xlink="http://www.w3.org/1999/xlink" width="118" height="118" viewBox="0 0 118 118">
  <defs>
    <filter id="Trazado_874925" x="0" y="0" width="118" height="118" filterUnits="userSpaceOnUse">
      <feOffset dy="3" input="SourceAlpha"/>
      <feGaussianBlur stdDeviation="3" result="blur"/>
      <feFlood flood-opacity="0.161"/>
      <feComposite operator="in" in2="blur"/>
      <feComposite in="SourceGraphic"/>
    </filter>
  </defs>
  <g id="Grupo_1200769" data-name="Grupo 1200769" transform="translate(-6939 8164)">
    <g id="Grupo_1198908" data-name="Grupo 1198908" transform="translate(6139.5 -10675.157)">
      <g id="Grupo_1111316" data-name="Grupo 1111316" transform="translate(808.5 2517.157)">
        <g id="Grupo_1109835" data-name="Grupo 1109835" transform="translate(0 0)">
          <g id="Grupo_1107913" data-name="Grupo 1107913" transform="translate(0 0)">
            <g transform="matrix(1, 0, 0, 1, -9, -6)" filter="url(#Trazado_874925)">
              <g id="Trazado_874925-2" data-name="Trazado 874925" transform="translate(9 6)" fill="#9ad354" opacity="0.859">
                <path d="M 49.99972534179688 98.4998779296875 C 43.45164108276367 98.4998779296875 37.10022354125977 97.21776580810547 31.12189674377441 94.68914794921875 C 25.34676742553711 92.24647521972656 20.15985298156738 88.74925994873047 15.70523929595947 84.29464721679688 C 11.25062561035156 79.84004974365234 7.753411293029785 74.65313720703125 5.310725212097168 68.87800598144531 C 2.782111167907715 62.89969253540039 1.499996781349182 56.54829406738281 1.499996781349182 50.00022125244141 C 1.499996781349182 43.45157623291016 2.782111167907715 37.10017776489258 5.310725212097168 31.12186431884766 C 7.753411293029785 25.34673500061035 11.25062561035156 20.15983581542969 15.70523929595947 15.70522117614746 C 20.15985298156738 11.25062084197998 25.34676742553711 7.753406524658203 31.12189674377441 5.31073522567749 C 37.10022354125977 2.782120943069458 43.45164108276367 1.500006556510925 49.99972534179688 1.500006556510925 C 56.54780960083008 1.500006556510925 62.89922714233398 2.782120943069458 68.87755584716797 5.31073522567749 C 74.65267944335938 7.753406524658203 79.839599609375 11.25062084197998 84.29421234130859 15.70522117614746 C 88.74882507324219 20.15983581542969 92.24604034423828 25.34673500061035 94.68872833251953 31.12186431884766 C 97.21733856201172 37.10017776489258 98.49945068359375 43.45157623291016 98.49945068359375 49.99964904785156 C 98.49945068359375 56.54829406738281 97.21733856201172 62.89969253540039 94.68872833251953 68.87800598144531 C 92.24604034423828 74.65313720703125 88.74882507324219 79.84004974365234 84.29421234130859 84.29464721679688 C 79.839599609375 88.74925994873047 74.65267944335938 92.24647521972656 68.87755584716797 94.68914794921875 C 62.89922714233398 97.21776580810547 56.54780960083008 98.4998779296875 49.99972534179688 98.4998779296875 Z" stroke="none"/>
                <path d="M 49.99972534179688 3 C 43.65348052978516 3 37.49866485595703 4.242240905761719 31.70623016357422 6.692230224609375 C 26.10989379882812 9.059272766113281 21.08323669433594 12.44853210449219 16.76589202880859 16.76587677001953 C 12.44855499267578 21.08321380615234 9.059295654296875 26.10985565185547 6.692230224609375 31.70618438720703 C 4.24224853515625 37.49859619140625 3 43.65341186523438 3 50.00022888183594 C 3 56.34645843505859 4.24224853515625 62.50127410888672 6.692230224609375 68.29368591308594 C 9.059295654296875 73.8900146484375 12.44855499267578 78.91665649414062 16.76589202880859 83.23399353027344 C 21.08323669433594 87.55132293701172 26.10989379882812 90.94059753417969 31.70623016357422 93.30764007568359 C 37.49866485595703 95.75762939453125 43.65348052978516 96.99987030029297 49.99972534179688 96.99987030029297 C 56.34597015380859 96.99987030029297 62.50078582763672 95.75762939453125 68.293212890625 93.30764007568359 C 73.88955688476562 90.94059753417969 78.91621398925781 87.55132293701172 83.23355865478516 83.23399353027344 C 87.55089569091797 78.91665649414062 90.94015502929688 73.8900146484375 93.30722045898438 68.29368591308594 C 95.7572021484375 62.50127410888672 96.99945068359375 56.34645843505859 96.99945068359375 49.99964141845703 C 96.99945068359375 43.65341186523438 95.7572021484375 37.49859619140625 93.30722045898438 31.70618438720703 C 90.94015502929688 26.10985565185547 87.55089569091797 21.08321380615234 83.23355865478516 16.76587677001953 C 78.91621398925781 12.44853210449219 73.88955688476562 9.059272766113281 68.293212890625 6.692230224609375 C 62.50078582763672 4.242240905761719 56.34597015380859 3 49.99972534179688 3 M 49.99972534179688 0 C 77.61381530761719 0 99.99945068359375 22.38559722900391 99.99945068359375 49.99964141845703 L 99.99945068359375 50.00022888183594 C 99.99945068359375 77.6142578125 77.61381530761719 99.99987030029297 49.99972534179688 99.99987030029297 C 22.38563537597656 99.99987030029297 0 77.6142578125 0 50.00022888183594 L 0 49.99964141845703 C 0 22.38559722900391 22.38563537597656 0 49.99972534179688 0 Z" stroke="none" fill="#fff"/>
              </g>
            </g>
            <g id="Trazado_874923" data-name="Trazado 874923" transform="translate(0 0)" fill="none">
              <path d="M50,0a50,50,0,0,1,50,50h0A50,50,0,0,1,0,50H0A50,50,0,0,1,50,0Z" stroke="none"/>
              <path d="M 49.99972534179688 3 C 43.65348052978516 3 37.49866485595703 4.242240905761719 31.70623016357422 6.692230224609375 C 26.10989379882812 9.059272766113281 21.08323669433594 12.44853210449219 16.76589202880859 16.76587677001953 C 12.44855499267578 21.08321380615234 9.059295654296875 26.10985565185547 6.692230224609375 31.70618438720703 C 4.24224853515625 37.49859619140625 3 43.65341186523438 3 50.00022888183594 C 3 56.34645843505859 4.24224853515625 62.50127410888672 6.692230224609375 68.29368591308594 C 9.059295654296875 73.8900146484375 12.44855499267578 78.91665649414062 16.76589202880859 83.23399353027344 C 21.08323669433594 87.55132293701172 26.10989379882812 90.94059753417969 31.70623016357422 93.30764007568359 C 37.49866485595703 95.75762939453125 43.65348052978516 96.99987030029297 49.99972534179688 96.99987030029297 C 56.34597015380859 96.99987030029297 62.50078582763672 95.75762939453125 68.293212890625 93.30764007568359 C 73.88955688476562 90.94059753417969 78.91621398925781 87.55132293701172 83.23355865478516 83.23399353027344 C 87.55089569091797 78.91665649414062 90.94015502929688 73.8900146484375 93.30722045898438 68.29368591308594 C 95.7572021484375 62.50127410888672 96.99945068359375 56.34645843505859 96.99945068359375 49.99964141845703 C 96.99945068359375 43.65341186523438 95.7572021484375 37.49859619140625 93.30722045898438 31.70618438720703 C 90.94015502929688 26.10985565185547 87.55089569091797 21.08321380615234 83.23355865478516 16.76587677001953 C 78.91621398925781 12.44853210449219 73.88955688476562 9.059272766113281 68.293212890625 6.692230224609375 C 62.50078582763672 4.242240905761719 56.34597015380859 3 49.99972534179688 3 M 49.99972534179688 0 C 77.61381530761719 0 99.99945068359375 22.38559722900391 99.99945068359375 49.99964141845703 L 99.99945068359375 50.00022888183594 C 99.99945068359375 77.6142578125 77.61381530761719 99.99987030029297 49.99972534179688 99.99987030029297 C 22.38563537597656 99.99987030029297 0 77.6142578125 0 50.00022888183594 L 0 49.99964141845703 C 0 22.38559722900391 22.38563537597656 0 49.99972534179688 0 Z" stroke="none" fill="#fff"/>
            </g>
          </g>
        </g>
      </g>
    </g>
    <g id="international-law_6749582" transform="translate(6959.5 -8146.5)">
      <path id="Trazado_1037286" data-name="Trazado 1037286" d="M69.783,38.642A31.113,31.113,0,0,1,38.642,69.783q-.626,0-1.247-.025A31.142,31.142,0,1,1,69.783,38.642Z" fill="#c8effe"/>
      <path id="Trazado_1037287" data-name="Trazado 1037287" d="M44.767,69.18c-.422.084-.847.16-1.274.227a31.26,31.26,0,0,1-4.851.376q-.626,0-1.247-.025A31.142,31.142,0,1,1,44.767,8.1a31.148,31.148,0,0,0,0,61.078Z" fill="#99e6fc"/>
      <g id="Grupo_1200767" data-name="Grupo 1200767" transform="translate(18.172 15.172)">
        <path id="Trazado_1037288" data-name="Trazado 1037288" d="M288.53,384.16a31.012,31.012,0,0,1,16.393,7.409" transform="translate(-263.984 -344.63)" fill="none" stroke="#000" stroke-linecap="round" stroke-linejoin="round" stroke-miterlimit="10" stroke-width="2"/>
        <path id="Trazado_1037289" data-name="Trazado 1037289" d="M92.66,391.569a31.012,31.012,0,0,1,16.393-7.409" transform="translate(-92.66 -344.63)" fill="none" stroke="#000" stroke-linecap="round" stroke-linejoin="round" stroke-miterlimit="10" stroke-width="2"/>
        <path id="Trazado_1037290" data-name="Trazado 1037290" d="M211.11,75.887a31.393,31.393,0,0,0,5.626.506,31.014,31.014,0,0,0,20.469-7.673" transform="translate(-196.266 -68.72)" fill="none" stroke="#000" stroke-linecap="round" stroke-linejoin="round" stroke-miterlimit="10" stroke-width="2"/>
        <path id="Trazado_1037291" data-name="Trazado 1037291" d="M92.66,68.72A31.111,31.111,0,0,0,103.267,74.8" transform="translate(-92.66 -68.72)" fill="none" stroke="#000" stroke-linecap="round" stroke-linejoin="round" stroke-miterlimit="10" stroke-width="2"/>
      </g>
      <path id="Trazado_1037292" data-name="Trazado 1037292" d="M116.13,28.882C118.556,16.463,125.488,7.5,133.658,7.5s15.1,8.963,17.528,21.382h0" transform="translate(-95.017)" fill="none" stroke="#000" stroke-linecap="round" stroke-linejoin="round" stroke-miterlimit="10" stroke-width="2"/>
      <path id="Trazado_1037293" data-name="Trazado 1037293" d="M117.08,338.58c2.528,12.112,9.368,20.793,17.409,20.793s14.882-8.681,17.409-20.793" transform="translate(-95.848 -289.59)" fill="none" stroke="#000" stroke-linecap="round" stroke-linejoin="round" stroke-miterlimit="10" stroke-width="2"/>
      <line id="Línea_860" data-name="Línea 860" x1="10.885" transform="translate(58.898 38.642)" fill="none" stroke="#000" stroke-linecap="round" stroke-linejoin="round" stroke-miterlimit="10" stroke-width="2"/>
      <line id="Línea_861" data-name="Línea 861" x1="10.885" transform="translate(7.5 38.642)" fill="none" stroke="#000" stroke-linecap="round" stroke-linejoin="round" stroke-miterlimit="10" stroke-width="2"/>
      <g id="Grupo_1200768" data-name="Grupo 1200768" transform="translate(18.384 28.388)">
        <path id="Trazado_1037294" data-name="Trazado 1037294" d="M226.184,385.8a31.494,31.494,0,0,1-9.7,0,54.538,54.538,0,0,1,.2-9.408l.776-7.169h7.747l.776,7.169A54.537,54.537,0,0,1,226.184,385.8Z" transform="translate(-201.076 -344.778)" fill="#c68d7a"/>
        <path id="Trazado_1037295" data-name="Trazado 1037295" d="M220.13,376.4c-.09,3.253-.105,6.519-.046,9.757a31.284,31.284,0,0,1-3.605-.351,54.52,54.52,0,0,1,.2-9.406l.776-7.169h2.875Z" transform="translate(-201.073 -344.787)" fill="#bc7c63"/>
        <path id="Trazado_1037296" data-name="Trazado 1037296" d="M216.481,385.8a54.538,54.538,0,0,1,.2-9.408l.776-7.169h7.747l.776,7.169a54.537,54.537,0,0,1,.2,9.408" transform="translate(-201.076 -344.778)" fill="none" stroke="#000" stroke-linecap="round" stroke-linejoin="round" stroke-miterlimit="10" stroke-width="2"/>
        <rect id="Rectángulo_408868" data-name="Rectángulo 408868" width="6.876" height="15.26" transform="translate(5.564 2.88)" fill="#bc7c63"/>
        <path id="Trazado_1037297" data-name="Trazado 1037297" d="M216.891,338.051h-7.869a2.233,2.233,0,0,1-2.233-2.233h0a2.233,2.233,0,0,1,2.233-2.233h7.869a2.233,2.233,0,0,1,2.233,2.233h0A2.233,2.233,0,0,1,216.891,338.051Z" transform="translate(-192.699 -313.609)" fill="#c68d7a"/>
        <path id="Trazado_1037298" data-name="Trazado 1037298" d="M213.692,338.047h-4.671a2.233,2.233,0,0,1,0-4.466h4.671a2.233,2.233,0,0,0,0,4.466Z" transform="translate(-192.698 -313.605)" fill="#bc7c63"/>
        <path id="Trazado_1037299" data-name="Trazado 1037299" d="M216.891,338.051h-7.869a2.233,2.233,0,0,1-2.233-2.233h0a2.233,2.233,0,0,1,2.233-2.233h7.869a2.233,2.233,0,0,1,2.233,2.233h0A2.233,2.233,0,0,1,216.891,338.051Z" transform="translate(-192.699 -313.609)" fill="none" stroke="#000" stroke-linecap="round" stroke-linejoin="round" stroke-miterlimit="10" stroke-width="2"/>
        <path id="Trazado_1037300" data-name="Trazado 1037300" d="M101.605,177.059v15.26A2.878,2.878,0,0,1,96.06,193.4a23.081,23.081,0,0,1,0-17.425A2.878,2.878,0,0,1,101.605,177.059Z" transform="translate(-94.353 -174.179)" fill="#c68d7a"/>
        <path id="Trazado_1037301" data-name="Trazado 1037301" d="M102,267.294v6.471a2.879,2.879,0,0,1-5.545,1.081,22.877,22.877,0,0,1-1.652-7.114c.11.3.228.6.35.9A3.555,3.555,0,0,0,102,267.294Z" transform="translate(-94.742 -255.625)" fill="#bc7c63"/>
        <path id="Trazado_1037302" data-name="Trazado 1037302" d="M101.605,177.059v15.26A2.878,2.878,0,0,1,96.06,193.4a23.081,23.081,0,0,1,0-17.425A2.878,2.878,0,0,1,101.605,177.059Z" transform="translate(-94.353 -174.179)" fill="none" stroke="#000" stroke-linecap="round" stroke-linejoin="round" stroke-miterlimit="10" stroke-width="2"/>
        <rect id="Rectángulo_408869" data-name="Rectángulo 408869" width="3.5" height="15.26" transform="translate(7.252 2.88)" fill="none" stroke="#000" stroke-linecap="round" stroke-linejoin="round" stroke-miterlimit="10" stroke-width="2"/>
        <rect id="Rectángulo_408870" data-name="Rectángulo 408870" width="6.876" height="15.26" transform="translate(34.95 18.14) rotate(180)" fill="#bc7c63"/>
        <path id="Trazado_1037303" data-name="Trazado 1037303" d="M359.777,177.059v15.26a2.878,2.878,0,0,0,5.545,1.082,23.081,23.081,0,0,0,0-17.425A2.878,2.878,0,0,0,359.777,177.059Z" transform="translate(-326.515 -174.179)" fill="#c68d7a"/>
        <path id="Trazado_1037304" data-name="Trazado 1037304" d="M359.772,267.294v6.471a2.879,2.879,0,0,0,5.545,1.081,22.877,22.877,0,0,0,1.652-7.114c-.11.3-.228.6-.35.9A3.555,3.555,0,0,1,359.772,267.294Z" transform="translate(-326.51 -255.625)" fill="#bc7c63"/>
        <path id="Trazado_1037305" data-name="Trazado 1037305" d="M359.777,177.059v15.26a2.878,2.878,0,0,0,5.545,1.082,23.081,23.081,0,0,0,0-17.425A2.878,2.878,0,0,0,359.777,177.059Z" transform="translate(-326.515 -174.179)" fill="none" stroke="#000" stroke-linecap="round" stroke-linejoin="round" stroke-miterlimit="10" stroke-width="2"/>
        <rect id="Rectángulo_408871" data-name="Rectángulo 408871" width="3.5" height="15.26" transform="translate(33.262 18.14) rotate(180)" fill="none" stroke="#000" stroke-linecap="round" stroke-linejoin="round" stroke-miterlimit="10" stroke-width="2"/>
        <path id="Trazado_1037306" data-name="Trazado 1037306" d="M196.745,201.433h-.92l-6.71-2.289-5.625,2.289h-.92a2.418,2.418,0,0,1-2.418-2.418v-14.1a2.418,2.418,0,0,1,2.418-2.418h.92l5.524,2.021,6.81-2.021h.92a2.418,2.418,0,0,1,2.418,2.418v14.1A2.418,2.418,0,0,1,196.745,201.433Z" transform="translate(-169.4 -181.456)" fill="#c68d7a"/>
        <path id="Trazado_1037307" data-name="Trazado 1037307" d="M199.158,263.743v6.335a2.417,2.417,0,0,1-2.419,2.417h-.919l-4.865-2.3-7.469,2.3h-.921a2.417,2.417,0,0,1-2.417-2.417v-6.335a2.418,2.418,0,0,0,2.417,2.419h14.175A2.419,2.419,0,0,0,199.158,263.743Z" transform="translate(-169.395 -252.519)" fill="#bc7c63"/>
        <path id="Trazado_1037308" data-name="Trazado 1037308" d="M196.745,201.433H182.57a2.418,2.418,0,0,1-2.418-2.418v-14.1a2.418,2.418,0,0,1,2.418-2.418h14.175a2.418,2.418,0,0,1,2.418,2.418v14.1A2.418,2.418,0,0,1,196.745,201.433Z" transform="translate(-169.4 -181.456)" fill="none" stroke="#000" stroke-linecap="round" stroke-linejoin="round" stroke-miterlimit="10" stroke-width="2"/>
        <rect id="Rectángulo_408872" data-name="Rectángulo 408872" width="12.334" height="18.933" transform="translate(14.09 1.043)" fill="#ffd15b"/>
        <rect id="Rectángulo_408873" data-name="Rectángulo 408873" width="12.334" height="6.334" transform="translate(14.09 13.643)" fill="#ffc344"/>
        <path id="Trazado_1037309" data-name="Trazado 1037309" d="M219.124,192.584v8.849H206.79V182.5h12.334v5.7" transform="translate(-192.7 -181.457)" fill="none" stroke="#000" stroke-linecap="round" stroke-linejoin="round" stroke-miterlimit="10" stroke-width="2"/>
      </g>
      <path id="Trazado_1037310" data-name="Trazado 1037310" d="M13.322,56.776a31.037,31.037,0,1,0-2.3-3.733" fill="none" stroke="#000" stroke-linecap="round" stroke-linejoin="round" stroke-miterlimit="10" stroke-width="2"/>
      <line id="Línea_862" data-name="Línea 862" y2="21.931" transform="translate(38.642 7.5)" fill="none" stroke="#000" stroke-linecap="round" stroke-linejoin="round" stroke-miterlimit="10" stroke-width="2"/>
    </g>
  </g>
</svg>
