<svg xmlns="http://www.w3.org/2000/svg" xmlns:xlink="http://www.w3.org/1999/xlink" width="272" height="256.649" viewBox="0 0 272 256.649">
  <defs>
    <clipPath id="clip-path">
      <rect id="Rect치ngulo_408480" data-name="Rect치ngulo 408480" width="272" height="256.649" rx="8" transform="translate(205 2253)" fill="#fff" opacity="0.64"/>
    </clipPath>
    <clipPath id="clip-path-2">
      <rect id="Rect치ngulo_408477" data-name="Rect치ngulo 408477" width="456.298" height="256.649" fill="none"/>
    </clipPath>
    <clipPath id="clip-path-3">
      <path id="Trazado_916420" data-name="Trazado 916420" d="M1288.021,846.563l.005,5.716a6.345,6.345,0,0,1-.256,2.744c.8,1.237.346,4.951.338,6.487,0,.667-.165,1.112.308,1.6l1.644-.029a1.542,1.542,0,0,0,.4-.744,37.181,37.181,0,0,0,.017-4.928l-.055-11.607,12.847-.065-.032-.471c-2.617.015-11.229.667-13.016-.228.491-1.193.216-3.119.216-4.418l-.02-11.684,13.289-.133a10.839,10.839,0,0,0,.123-1.665l-.571-.528-15.264-.057Z" transform="translate(-1287.77 -826.557)" fill="none"/>
    </clipPath>
    <linearGradient id="linear-gradient" x1="-8.4" y1="2.284" x2="-8.393" y2="2.284" gradientUnits="objectBoundingBox">
      <stop offset="0" stop-color="#4c2e24"/>
      <stop offset="1" stop-color="#5c2626"/>
    </linearGradient>
  </defs>
  <g id="Enmascarar_grupo_1098807" data-name="Enmascarar grupo 1098807" transform="translate(-205 -2253)" clip-path="url(#clip-path)">
    <g id="Grupo_1198321" data-name="Grupo 1198321" transform="translate(99.621 2253)">
      <g id="Grupo_1198316" data-name="Grupo 1198316">
        <g id="Grupo_1198315" data-name="Grupo 1198315" clip-path="url(#clip-path-2)">
          <path id="Trazado_916260" data-name="Trazado 916260" d="M0,0H455.763a2.041,2.041,0,0,1,.391.891,91.179,91.179,0,0,1,.02,9.181l.018,21,0,79.157-.02,24.273-.01,7.017a32.044,32.044,0,0,1-.01,3.4,1.67,1.67,0,0,1-.386.788,2,2,0,0,1,.386.882c.153,1.485.015,3.14.02,4.64l.015,9.428.005,31.476-.023,14.981a26.59,26.59,0,0,1-.045,5.038,2.29,2.29,0,0,1-.286.619c.516.954.338,2.345.346,3.412l.005,6.685a14.969,14.969,0,0,1-.073,3.322,1.985,1.985,0,0,1-.348.615,2.014,2.014,0,0,1,.384.878c.16,1.541.028,3.242.035,4.8l.013,9.556-.013,9.271a44.576,44.576,0,0,1-.035,4.559,1.634,1.634,0,0,1-.391.779H0V0Z" fill="#93dbeb"/>
          <path id="Trazado_916261" data-name="Trazado 916261" d="M1339.66,340.179c1.464-.023,4.907-.477,6.018.555a2.393,2.393,0,0,1,.692,1.761,2.252,2.252,0,0,1-1.281,1.593l-.226.1-3.8-.035a1.222,1.222,0,0,0,.113-.385c.075-.905-.99-2.849-1.511-3.585" transform="translate(-1003.895 -254.829)" fill="#c23833"/>
          <path id="Trazado_916262" data-name="Trazado 916262" d="M1313.033,344.207a1.961,1.961,0,0,1-.484-.158,1.987,1.987,0,0,1-1.043-1.232,2.494,2.494,0,0,1,.461-2.136c1.752-1,4.5-.593,6.534-.534.521.736,1.586,2.68,1.511,3.585a1.225,1.225,0,0,1-.113.385l-3.74.078Z" transform="translate(-982.738 -254.797)" fill="#df4f43"/>
          <path id="Trazado_916263" data-name="Trazado 916263" d="M1212.681,485.459l3.012-.018c.3,1.932.664,13.384-.138,14.523l-.065.085a13.272,13.272,0,0,0-2.99-.14,1.906,1.906,0,0,0,.389-.613,14.5,14.5,0,0,0,.105-3.406l.04-6.864c0-1.135.191-2.545-.353-3.566" transform="translate(-908.606 -363.773)" fill="#92cce3"/>
          <path id="Trazado_916264" data-name="Trazado 916264" d="M1376.326,413.953a2.254,2.254,0,0,1-1.712-1.171,2.855,2.855,0,0,1,.047-1.925,2.174,2.174,0,0,1,1.268-1.157,10.966,10.966,0,0,1,2.762-.089l5.784.028a4.128,4.128,0,0,1,2.03.257,2.42,2.42,0,0,1,1.14,1.508,2.366,2.366,0,0,1-.4,1.694,3.047,3.047,0,0,1-1.015.727l-2.948.073-1.479,0Z" transform="translate(-1029.98 -306.916)" fill="#df4f43"/>
          <path id="Trazado_916265" data-name="Trazado 916265" d="M1178.825,472.425l-.531-.734a1.91,1.91,0,0,1-.454-1.576,2.334,2.334,0,0,1,1.113-1.631c.667-.414,9.827-.493,10.775-.182a2.321,2.321,0,0,1,1.311,1.15,2.108,2.108,0,0,1,.075,1.751c-.336.764-.734.9-1.419,1.252l-3.013.018a29.622,29.622,0,0,0-2.975-.006H1182.2l-1.048,0Z" transform="translate(-882.608 -350.787)" fill="#e87354"/>
          <path id="Trazado_916266" data-name="Trazado 916266" d="M1198.945,485.371a29.619,29.619,0,0,1,2.975.006c.544,1.022.353,2.431.353,3.567l-.04,6.864a14.517,14.517,0,0,1-.105,3.406,1.908,1.908,0,0,1-.389.613,10.445,10.445,0,0,1-1.579,0h-.669l-1.351,0a3,3,0,0,0,.333-.708,18.864,18.864,0,0,0,.078-4.312c0-1.829.5-8.057-.291-9.439Z" transform="translate(-897.845 -363.69)" fill="#c2e9f2"/>
          <path id="Trazado_916267" data-name="Trazado 916267" d="M1202.99,486.452l1.148-.007c.464.9.393,12.394.02,13.6a2.007,2.007,0,0,1-.364.616h-.669a.565.565,0,0,0,.153-.209,5.767,5.767,0,0,0,.052-1.729l-.045-3.977c-.015-2.447.24-5.038.032-7.466a2.042,2.042,0,0,0-.328-.829" transform="translate(-901.48 -364.525)" fill="#eef5f7"/>
          <path id="Trazado_916268" data-name="Trazado 916268" d="M1248.015,414.693c-.6-.484-1.161-.89-1.263-1.716a2.4,2.4,0,0,1,.411-1.729,2.194,2.194,0,0,1,1.639-.831l6.742-.037a17.426,17.426,0,0,1,3.288.062,1.876,1.876,0,0,1,.817.528,2.178,2.178,0,0,1,.709,1.589,2.352,2.352,0,0,1-.749,1.754,2.058,2.058,0,0,1-.669.33l-2.907.061h-5.188Z" transform="translate(-934.258 -307.488)" fill="#df4f43"/>
          <path id="Trazado_916269" data-name="Trazado 916269" d="M1180.8,543.112l.9.013.877,0,1.351,0h.669a10.438,10.438,0,0,0,1.579,0,13.274,13.274,0,0,1,2.99.14c.737.336,1.211.568,1.476,1.4a2.494,2.494,0,0,1-.2,1.962,2.31,2.31,0,0,1-1.266.923l-3.01.045-1.546-.005h-3.8l-1.9-.012-.161-.031-.481-.37a2.21,2.21,0,0,1-.895-1.711,2.034,2.034,0,0,1,.566-1.635l.6-.7Z" transform="translate(-882.284 -406.988)" fill="#e87354"/>
          <path id="Trazado_916270" data-name="Trazado 916270" d="M1181.87,485.32l2.326.039,1.048,0h.824c.79,1.382.286,7.609.291,9.439a18.9,18.9,0,0,1-.078,4.312,3,3,0,0,1-.333.709l-.877,0-.9-.014-2.256.026c.436-1.322.2-3.274.206-4.673l.005-6.221a11.205,11.205,0,0,0-.258-3.618" transform="translate(-885.653 -363.682)" fill="#eef5f7"/>
          <path id="Trazado_916271" data-name="Trazado 916271" d="M1191.083,485.476l1.048,0a2.76,2.76,0,0,1,.308.519,22.187,22.187,0,0,1-.068,3.474l.012,7.133a12.076,12.076,0,0,1-.065,2.716,2,2,0,0,1-.361.616l-.9-.014.2-.314.075-.132a1.346,1.346,0,0,0,.208-.558c.193-1.9.341-12.345-.456-13.443" transform="translate(-892.54 -363.799)" fill="#c2e9f2"/>
          <path id="Trazado_916272" data-name="Trazado 916272" d="M1194.813,485.487h.825c.79,1.382.286,7.609.291,9.439a18.871,18.871,0,0,1-.078,4.312,3,3,0,0,1-.333.709l-.877,0a2,2,0,0,0,.361-.616,12.083,12.083,0,0,0,.065-2.716l-.013-7.133a22.188,22.188,0,0,0,.068-3.474,2.746,2.746,0,0,0-.308-.519" transform="translate(-895.222 -363.807)" fill="#eef5f7"/>
          <path id="Trazado_916273" data-name="Trazado 916273" d="M1409.345,426.63l2.948-.073c.852,1.777.363,5.851.361,7.892l-.07,24.618c0,.491-.173,1.876.213,2.023l.226.086a17.367,17.367,0,0,1-3.782.823l.421-.55-.01-22.825c.015-3.6.393-7.584.023-11.15a2.124,2.124,0,0,0-.328-.845" transform="translate(-1056.036 -319.647)" fill="#92cce3"/>
          <path id="Trazado_916274" data-name="Trazado 916274" d="M1042.54,365.232l.524-.01a18.248,18.248,0,0,0,10.324,7.687,23.241,23.241,0,0,0,17.915-1.665,14.646,14.646,0,0,0,7.464-8.68c.481.939.078,2.084-.228,3.033a16.8,16.8,0,0,1-8.825,9.754,20.924,20.924,0,0,1-15.7,1.111c-4.07-1.348-8.2-4.162-10.175-8.08Z" transform="translate(-781.244 -271.693)" fill="#269e78"/>
          <path id="Trazado_916275" data-name="Trazado 916275" d="M843.626,580.765c2.083.01,15.282-.377,16.35.219l-5.329,14.1-7.618,2.387a6.014,6.014,0,0,1-.352-3.014l.555-.355a35.641,35.641,0,0,0-1.075-4.371Z" transform="translate(-632.185 -435.12)" fill="#c2e9f2"/>
          <path id="Trazado_916276" data-name="Trazado 916276" d="M1292.227,93.276c3.323.8,6.662,4.907,8.381,7.7a20.492,20.492,0,0,1,2.384,15.161,21.694,21.694,0,0,1-9.735,13.419,19.816,19.816,0,0,1-10.487,3.148,3.912,3.912,0,0,0,.344-2.856,3.816,3.816,0,0,0,.433-.661c2.592-.593,7.2-2.843,8.89-4.992l1.366.495a2.16,2.16,0,0,0,1.376-.654c.248-.754.145-.835-.165-1.524a18.057,18.057,0,0,0,3.115-7.05,8.547,8.547,0,0,1,.336-2.509l.795-.3a2.031,2.031,0,0,0,.546-1.428,2.108,2.108,0,0,0-1.145-1.243,1.367,1.367,0,0,0,.093-.385,13,13,0,0,0-.451-4.136,26.206,26.206,0,0,0-6.075-12.184" transform="translate(-961.264 -69.898)" fill="#c77819"/>
          <path id="Trazado_916277" data-name="Trazado 916277" d="M1256.076,427.6l2.907-.061c.724,1.4.779,12.987.263,14.729a3.728,3.728,0,0,1-.266.643c.667.364,1.063.523,1.288,1.33a2.368,2.368,0,0,1-.281,1.992,2.261,2.261,0,0,1-.975.747,13.1,13.1,0,0,1-3.243.2l-1.233,0-1.055,0h-2.391l-3.043-.01-.461-.418a2.3,2.3,0,0,1-.8-1.792,3.044,3.044,0,0,1,1.3-2.233l.193-.509a16.055,16.055,0,0,0,.09-3.731l.013-7.293c0-1.092.205-2.634-.331-3.6l2.83.011Z" transform="translate(-934.302 -320.382)" fill="#92cce3"/>
          <path id="Trazado_916278" data-name="Trazado 916278" d="M1274.433,434.452c.709-1.2.326-4.306.316-5.758l.333-.214,1.587.006a30.654,30.654,0,0,1,.153,5.389l-.025,9.3a4.993,4.993,0,0,1-2.476.184l.329-.445c-.461-2.661.556-5.963-.216-8.463" transform="translate(-954.932 -321.089)" fill="#c2e9f2"/>
          <path id="Trazado_916279" data-name="Trazado 916279" d="M1274.77,434.452c.709-1.2.326-4.306.316-5.758l.333-.214a6.355,6.355,0,0,1,.389,2.958l-.11,6.544a23.021,23.021,0,0,1-.278,4.97c-.594-1.8-.218-4.207-.233-6.1a3.954,3.954,0,0,0-.416-2.4" transform="translate(-955.269 -321.089)" fill="#eef5f7"/>
          <path id="Trazado_916280" data-name="Trazado 916280" d="M1263.14,427.777h5.188l-.038.181-1.587-.006-.333.214c.01,1.452.394,4.562-.316,5.758.772,2.5-.245,5.8.216,8.463l-.328.445-1.12.008-1.619-.012c.619-1.261.419-12.867.118-14.816Z" transform="translate(-946.554 -320.561)" fill="#eef5f7"/>
          <path id="Trazado_916281" data-name="Trazado 916281" d="M1263.14,427.777h5.188l-.038.181-1.587-.006-.333.214c.01,1.452.394,4.562-.316,5.758.772,2.5-.245,5.8.216,8.463l-.328.445-1.12.008a1.573,1.573,0,0,0,.436-1.3l.043-9.338c0-.852.278-3.762-.241-4.3a11.634,11.634,0,0,1-1.74.107Z" transform="translate(-946.554 -320.561)" fill="#c2e9f2"/>
          <path id="Trazado_916282" data-name="Trazado 916282" d="M1251.85,427.735l2.83.01.18.236c.3,1.948.5,13.555-.118,14.816l-.564.114-2.293-.04.193-.509a16.088,16.088,0,0,0,.09-3.731l.012-7.293c0-1.093.205-2.634-.331-3.6" transform="translate(-938.094 -320.53)" fill="#eef5f7"/>
          <path id="Trazado_916283" data-name="Trazado 916283" d="M1248.093,488.1l2.293.04c2.757.141,5.917-.275,8.594.146.667.364,1.063.524,1.288,1.33a2.368,2.368,0,0,1-.281,1.992,2.26,2.26,0,0,1-.975.747,13.1,13.1,0,0,1-3.243.2l-1.233,0-1.055,0h-2.391l-3.043-.01-.461-.418a2.3,2.3,0,0,1-.8-1.792,3.044,3.044,0,0,1,1.3-2.233" transform="translate(-934.302 -365.761)" fill="#e87354"/>
          <path id="Trazado_916284" data-name="Trazado 916284" d="M1283.986,81.918a18.6,18.6,0,0,1,8.815,2.618l.115.228a26.206,26.206,0,0,1,6.075,12.184,13,13,0,0,1,.451,4.136,1.371,1.371,0,0,1-.093.385,2.108,2.108,0,0,1,1.145,1.243,2.031,2.031,0,0,1-.546,1.428l-.795.3a8.555,8.555,0,0,0-.336,2.509A18.058,18.058,0,0,1,1295.7,114c.311.689.413.771.165,1.524a2.16,2.16,0,0,1-1.376.654l-1.366-.5c-1.694,2.149-6.3,4.4-8.89,4.992a3.619,3.619,0,0,0,.221-1.031l-.677-.6a5.277,5.277,0,0,0-.048-3.319,12.411,12.411,0,0,0,5.875-2.111,13.563,13.563,0,0,0,5.614-8.767,12.177,12.177,0,0,0-2.306-9.376c-2.366-3.267-5.281-4.688-9.156-5.341l.088-.218a2.519,2.519,0,0,0-.158-2.26l.461-.383c.421-.472.3-.911.281-1.49l-.677-.568a6.716,6.716,0,0,0,.231-3.3" transform="translate(-961.953 -61.387)" fill="#f1aa59"/>
          <path id="Trazado_916285" data-name="Trazado 916285" d="M1321.248,209.293a8.681,8.681,0,0,1,.03-1.608,2.146,2.146,0,0,1,1.559-.848c.586.231.719.177.987.773.311.689.414.771.165,1.524a2.16,2.16,0,0,1-1.376.654Z" transform="translate(-990.075 -154.997)" fill="#eef5f7"/>
          <path id="Trazado_916286" data-name="Trazado 916286" d="M1387.364,426.853l1.479,0a2.125,2.125,0,0,1,.329.845c.371,3.566-.008,7.547-.023,11.15l.01,22.825-.421.55a2.853,2.853,0,0,1-1.5.475,5.547,5.547,0,0,1-.759.388l-.2.054a5.889,5.889,0,0,1-1.754.658,5.21,5.21,0,0,1-2.4,1.178c-.394-3.387-.08-7.187-.1-10.632l-.1-27.314-.048-.123Z" transform="translate(-1035.534 -319.867)" fill="#c2e9f2"/>
          <path id="Trazado_916287" data-name="Trazado 916287" d="M1396.939,463.725l-.541-.261c-.549-8.574-.166-17.395-.11-25.994l.05-6.295a15.234,15.234,0,0,1,.17-3.469l.6-.072c.205,2.749.105,5.555.11,8.313l.025,13.871.042,8.856a25.766,25.766,0,0,1-.15,5Z" transform="translate(-1046.194 -320.455)" fill="#eef5f7"/>
          <path id="Trazado_916288" data-name="Trazado 916288" d="M1403.37,426.853l1.479,0a2.121,2.121,0,0,1,.329.845c.371,3.566-.008,7.547-.023,11.15l.01,22.825-.421.55a2.854,2.854,0,0,1-1.5.475c.226-2.444.068-5.039.08-7.5l.1-13.987.078-9.155c.025-1.5.369-3.8-.125-5.2" transform="translate(-1051.54 -319.867)" fill="#eef5f7"/>
          <path id="Trazado_916289" data-name="Trazado 916289" d="M1382.051,427.363l2.832-.065.068,27.14c0,1.839.426,8.4-.3,9.693a5.208,5.208,0,0,1-2.4,1.178c-.393-3.387-.08-7.187-.1-10.632Z" transform="translate(-1035.657 -320.203)" fill="#eef5f7"/>
          <path id="Trazado_916290" data-name="Trazado 916290" d="M602.628,199.137A23.565,23.565,0,0,1,614.4,187.409a28.9,28.9,0,0,1,22-.456,22.11,22.11,0,0,1,12.44,11.734,185.389,185.389,0,0,0-33.748-.906,116.566,116.566,0,0,0-12.466,1.356" transform="translate(-451.589 -138.632)" fill="#f1aa59"/>
          <path id="Trazado_916291" data-name="Trazado 916291" d="M419.573,441.85l-41.244-.116.48-1.268a11.678,11.678,0,0,1,6.139-6.21,10.477,10.477,0,0,1,8.495.044l.488-.8a14.222,14.222,0,0,1,9.462-6.117,15.537,15.537,0,0,1,14.148,5.037,21.5,21.5,0,0,0,1.4,1.859,10.619,10.619,0,0,0,1.339-.237,9.611,9.611,0,0,1,2.785-.049,15.424,15.424,0,0,1,6.171,2.892,44.418,44.418,0,0,0-9.657,4.964" transform="translate(-283.507 -320.083)" fill="#eef5f7"/>
          <path id="Trazado_916292" data-name="Trazado 916292" d="M1216.5,124.051a9.555,9.555,0,0,1-2.359.014,21.136,21.136,0,0,1-14.229-6.948,21.743,21.743,0,0,1-5.534-16.032,21.273,21.273,0,0,1,22.647-19.308,6.714,6.714,0,0,1-.231,3.3l.677.567c.02.578.14,1.018-.281,1.49l-.461.383a2.519,2.519,0,0,1,.158,2.26l-.088.218c-4.038.029-7.406.724-10.374,3.713a13.471,13.471,0,0,0-3.632,9.492,12.722,12.722,0,0,0,3.9,8.886c2.742,2.664,6.183,3.571,9.948,3.505l.125,0a5.278,5.278,0,0,1,.047,3.319l.677.6a3.623,3.623,0,0,1-.221,1.031,3.817,3.817,0,0,1-.434.661,3.911,3.911,0,0,1-.343,2.856" transform="translate(-894.992 -61.246)" fill="#f9bf2a"/>
          <path id="Trazado_916293" data-name="Trazado 916293" d="M1227.192,207.466a2.3,2.3,0,0,1,1.679.316,1.892,1.892,0,0,1,.474,1.467c-.414.686-.614.707-1.331.989a.905.905,0,0,1-.349-.01c-.7-.15-.872-.545-1.236-1.091a2.047,2.047,0,0,1,.762-1.672" transform="translate(-919.045 -155.446)" fill="#eef5f7"/>
          <path id="Trazado_916294" data-name="Trazado 916294" d="M1277.164,231.359a1.766,1.766,0,0,1-1.451.2,2.2,2.2,0,0,1-.882-1.449c.2-.567.271-1,.882-1.255s.9-.066,1.429.21l.676.6a3.615,3.615,0,0,1-.221,1.031,3.8,3.8,0,0,1-.433.661" transform="translate(-955.314 -171.409)" fill="#eef5f7"/>
          <path id="Trazado_916295" data-name="Trazado 916295" d="M1239.472,505.3a13.1,13.1,0,0,0,3.243-.2,3.148,3.148,0,0,1,.381,1.06,34.934,34.934,0,0,1,.1,4.47l.04,7.577c0,1.54.318,3.934-.055,5.392a2.06,2.06,0,0,1-.313.6c.657,1.484.323,4.058.326,5.69,0,2.453.163,5.032-.03,7.472-.654.891-2.747,1.525-3.839,1.717a3.4,3.4,0,0,1-1.344.266,3.015,3.015,0,0,1-1.536.385l-.9.045-.857.05a8.969,8.969,0,0,1-2.669-.064l-6.9-.94a2.748,2.748,0,0,0,.2-.432,12.932,12.932,0,0,0,.08-3.318l-.01-7.2a8.889,8.889,0,0,0-.344-3.645l6.614-.047.423-.75.01-12.754c0-1.58.329-4-.338-5.384l3.043.01h2.391l1.055,0Z" transform="translate(-918.003 -378.507)" fill="#eef5f7"/>
          <path id="Trazado_916296" data-name="Trazado 916296" d="M1263.613,505.894H1264a3.569,3.569,0,0,1,.441.639,10.305,10.305,0,0,1,0,2.043l0,5.327.007,19.02c0,2.233.374,5.1-.043,7.249l-.043.2-.857.05.386-.5a35.268,35.268,0,0,0-.023-4.4l-.05-7.2-.033-14.486a65.121,65.121,0,0,0-.168-7.95" transform="translate(-946.824 -379.1)" fill="#c2e9f2"/>
          <path id="Trazado_916297" data-name="Trazado 916297" d="M1265.48,505.9h1.632l.128,27.023-.1,5.538a7.677,7.677,0,0,1-.038,1.454,2.546,2.546,0,0,1-.363.418l-.9.045.042-.2c.416-2.15.045-5.016.042-7.249l-.007-19.02,0-5.327a10.3,10.3,0,0,0,0-2.043,3.58,3.58,0,0,0-.441-.639" transform="translate(-948.308 -379.1)" fill="#eef5f7"/>
          <path id="Trazado_916298" data-name="Trazado 916298" d="M1272.32,505.89l1.233,0a2.226,2.226,0,0,1,.321.86,51.357,51.357,0,0,1-.015,5.589l-.1,12.179-.025,10.378a21.6,21.6,0,0,1-.048,4.151,2.118,2.118,0,0,1-.288.624,3.4,3.4,0,0,1-1.343.266,3.017,3.017,0,0,1-1.536.385,2.56,2.56,0,0,0,.363-.418,7.7,7.7,0,0,0,.037-1.454l.1-5.538-.128-27.023h.376Z" transform="translate(-952.084 -379.097)" fill="#c2e9f2"/>
          <path id="Trazado_916299" data-name="Trazado 916299" d="M1273.49,505.893l1.055,0c.348,1.277.243,33.135-.09,33.769l-.173.28c-.556-.682-.361-23.347-.386-26.524l-.035-4.5a5.615,5.615,0,0,0-.371-3.018" transform="translate(-954.31 -379.097)" fill="#eef5f7"/>
          <path id="Trazado_916300" data-name="Trazado 916300" d="M1276.913,505.89l1.233,0a2.225,2.225,0,0,1,.321.86,51.357,51.357,0,0,1-.015,5.589l-.1,12.179-.025,10.378a21.6,21.6,0,0,1-.047,4.151,2.127,2.127,0,0,1-.288.624,3.4,3.4,0,0,1-1.344.266l.173-.28c.333-.634.439-32.492.09-33.769" transform="translate(-956.678 -379.097)" fill="#c2e9f2"/>
          <path id="Trazado_916301" data-name="Trazado 916301" d="M1225.04,581.263l6.614-.047a1.979,1.979,0,0,1,.441.921,84.852,84.852,0,0,1,.037,9.179,32.769,32.769,0,0,1-.045,5.207l-.077.28-6.9-.94a2.75,2.75,0,0,0,.2-.432,12.931,12.931,0,0,0,.08-3.318l-.01-7.2a8.888,8.888,0,0,0-.344-3.645" transform="translate(-918.003 -435.543)" fill="#c2e9f2"/>
          <path id="Trazado_916302" data-name="Trazado 916302" d="M1282.163,505.3a13.1,13.1,0,0,0,3.243-.2,3.14,3.14,0,0,1,.381,1.06,34.957,34.957,0,0,1,.1,4.47l.04,7.577c0,1.54.318,3.934-.055,5.392a2.055,2.055,0,0,1-.313.6c.657,1.484.323,4.058.326,5.69,0,2.453.163,5.032-.03,7.472-.654.891-2.747,1.525-3.84,1.717a2.12,2.12,0,0,0,.288-.624,21.624,21.624,0,0,0,.048-4.151l.025-10.378.1-12.178a51.327,51.327,0,0,0,.015-5.589,2.22,2.22,0,0,0-.321-.86" transform="translate(-960.695 -378.507)" fill="#92cce3"/>
          <path id="Trazado_916303" data-name="Trazado 916303" d="M1242.091,114.69c3.875.653,6.79,2.075,9.156,5.341a12.177,12.177,0,0,1,2.306,9.376,13.562,13.562,0,0,1-5.614,8.767,12.41,12.41,0,0,1-5.875,2.111l-.125,0c-3.765.066-7.206-.842-9.948-3.505a12.722,12.722,0,0,1-3.9-8.886,13.473,13.473,0,0,1,3.632-9.492c2.968-2.989,6.336-3.685,10.374-3.713" transform="translate(-920.284 -85.945)" fill="#eef5f7"/>
          <path id="Trazado_916304" data-name="Trazado 916304" d="M1283.91,123.536a9.741,9.741,0,0,1,6.589,3.175c2.369,2.5,2.993,5.188,2.845,8.53a10.047,10.047,0,0,1-3.491,6.8,9.332,9.332,0,0,1-5.514,2.477c-.4-1.038-.11-2.856-.09-4.011l.1-11.352c0-1.667.3-4.114-.441-5.617" transform="translate(-962.118 -92.574)" fill="#f1aa59"/>
          <path id="Trazado_916305" data-name="Trazado 916305" d="M1248.634,143.931c-1.306.663-4.085-.013-5.391-.454a10.486,10.486,0,0,1-6.333-13.5,11.683,11.683,0,0,1,5.474-6.133c1.476-.687,4.258-1.454,5.822-.89.739,1.5.441,3.949.441,5.617l-.1,11.352c-.02,1.155-.313,2.973.09,4.011" transform="translate(-926.414 -91.989)" fill="#f9bf2a"/>
          <path id="Trazado_916306" data-name="Trazado 916306" d="M1308.454,356.376l3.8.035a2.55,2.55,0,0,1,.466,1.36c.23,4,.023,8.1.065,12.107l.191,25.343-.078,11.606a38.7,38.7,0,0,1-.1,5.369,4.126,4.126,0,0,1-.236.79,4.4,4.4,0,0,1,.19,2c-.321.717-2.6,2.19-3.368,2.475l-.531.161a2.267,2.267,0,0,1-1.313.9,2.473,2.473,0,0,1-1.589,1.139,1.168,1.168,0,0,1-.564.453c-.3.556-.632.616-1.173.876a3.735,3.735,0,0,1-1.94,1.505l-.278.087c-.689,1.008-4.165,3.055-5.446,3.313l-.108.018c.193-2.44.033-5.02.03-7.472,0-1.632.331-4.206-.326-5.69l5.521-.112,0-7.007a11.753,11.753,0,0,0-.19-3.848,1.693,1.693,0,0,0,.311-.725,46.126,46.126,0,0,0,.025-5l-.02-9.26-.188-30.153-.025-.186,3.128-.012Z" transform="translate(-971.29 -267.056)" fill="#eef5f7"/>
          <path id="Trazado_916307" data-name="Trazado 916307" d="M1296.15,548.525l5.521-.112,0-7.007a11.753,11.753,0,0,0-.19-3.848c.9,1.56.331,15.127.341,17.785,0,.678-.186,2.484.175,3.013-.689,1.008-4.165,3.055-5.446,3.313l-.108.018c.193-2.44.033-5.02.03-7.472,0-1.632.331-4.206-.326-5.69" transform="translate(-971.29 -402.828)" fill="#c2e9f2"/>
          <path id="Trazado_916308" data-name="Trazado 916308" d="M1317.84,356.7l3.128-.012.386.156h.982l1.088,0c.481,7.672-.772,60.252.373,61.911a2.471,2.471,0,0,1-1.589,1.139,1.167,1.167,0,0,1-.564.453c-.3.556-.632.616-1.173.876.707-1.35.2-29.19.193-32.963l.058-31.417-2.857.04Z" transform="translate(-987.544 -267.289)" fill="#c2e9f2"/>
          <path id="Trazado_916309" data-name="Trazado 916309" d="M1331.86,357.308h.982c.627.987.394,2.531.384,3.665l-.273,10.155-.047,35.14.093,9.674a23.4,23.4,0,0,1-.05,3.753,2.725,2.725,0,0,1-.233.667,1.167,1.167,0,0,1-.564.453l-.01-45.855V363.512c.005-1.783.369-4.552-.281-6.2" transform="translate(-998.05 -267.754)" fill="#eef5f7"/>
          <path id="Trazado_916310" data-name="Trazado 916310" d="M1335.4,357.307l1.088,0c.481,7.672-.772,60.252.373,61.911a2.472,2.472,0,0,1-1.589,1.139,2.725,2.725,0,0,0,.233-.667,23.425,23.425,0,0,0,.05-3.753l-.093-9.674.048-35.14.273-10.155c.01-1.134.243-2.678-.384-3.665" transform="translate(-1000.606 -267.754)" fill="#c2e9f2"/>
          <path id="Trazado_916311" data-name="Trazado 916311" d="M1334.059,356.376l3.8.035a2.545,2.545,0,0,1,.466,1.36c.231,4,.023,8.1.065,12.107l.19,25.343-.078,11.606a38.734,38.734,0,0,1-.1,5.369,4.126,4.126,0,0,1-.236.79,4.4,4.4,0,0,1,.191,2c-.321.717-2.6,2.19-3.369,2.475l-.531.161a2.266,2.266,0,0,1-1.313.9c-1.145-1.659.108-54.239-.373-61.911l-1.088,0h-.982l-.386-.156Z" transform="translate(-996.896 -267.056)" fill="#92cce3"/>
          <path id="Trazado_916312" data-name="Trazado 916312" d="M1339.745,357.312l.436,0,1.457.017a15.723,15.723,0,0,1,.125,4.009l-.025,8.911c-.015,4.6.268,46.961-.246,47.97l-.06.107a2.267,2.267,0,0,1-1.313.9c-1.145-1.659.108-54.239-.373-61.911" transform="translate(-1003.865 -267.755)" fill="#c2e9f2"/>
          <path id="Trazado_916313" data-name="Trazado 916313" d="M1339.745,357.312l.436,0a2.253,2.253,0,0,1,.311,1.041l-.08,12.082.015,37.409.042,7.81a13.781,13.781,0,0,1-.04,2.987,1.955,1.955,0,0,1-.311.585c-1.145-1.659.108-54.239-.373-61.911" transform="translate(-1003.865 -267.755)" fill="#eef5f7"/>
          <path id="Trazado_916314" data-name="Trazado 916314" d="M998.737,315.868a7.365,7.365,0,0,0-2.682-.358l-6.775-.691c-1.225-.124-3-.078-4.051-.765a2.54,2.54,0,0,1-1.117-1.827,2.7,2.7,0,0,1,.608-2.042,2.671,2.671,0,0,1,1.1-.882,16.387,16.387,0,0,1,3.722-.492l9.231-.961a11.733,11.733,0,0,1,1.682-3.566c2.86-4.12,7.582-6.5,12.429-7.313a21.95,21.95,0,0,1,15.687,3.393c3.108,2.214,5.96,5.725,6.574,9.569.163,1.019.456,2.385-.178,3.267a14.646,14.646,0,0,1-7.464,8.68,23.239,23.239,0,0,1-17.915,1.664,18.247,18.247,0,0,1-10.324-7.687Z" transform="translate(-737.441 -222.329)" fill="#0abbad"/>
          <path id="Trazado_916315" data-name="Trazado 916315" d="M1091.291,331.7c.963.305,2.489,2.213,3.246,2.976l-10.216,10.5a24.212,24.212,0,0,0-4.053-3.809l-.138-.076c-.115-.757-2.306-2.629-2.93-3.262l3.371-3.429,3.948,4.235Z" transform="translate(-807.217 -248.564)" fill="#eef5f7"/>
          <path id="Trazado_916316" data-name="Trazado 916316" d="M896.167,520.468l14.778-.035a39.409,39.409,0,0,1,6.068.043,2.654,2.654,0,0,1,1.346.77,3.082,3.082,0,0,1,.677,2.263c-.13,1.453-3.815,11.127-4.647,11.919a13.187,13.187,0,0,1-1.875,4.883l-.143.152c1.02.25,2.211.506,2.774,1.486a2.574,2.574,0,0,1,.14,1.811,2.259,2.259,0,0,1-1.123,1.454l-.712.259a2.662,2.662,0,0,1,.687,2.09,2.961,2.961,0,0,1-1.045,1.934,6.569,6.569,0,0,1-1.684.774c.629.7,1.2,1.174,1.181,2.188a2.268,2.268,0,0,1-.754,1.7,3.989,3.989,0,0,1-2.088.87,3.773,3.773,0,0,1-.018,3.013,3.029,3.029,0,0,1-1.912,1.334,12.84,12.84,0,0,1-2.932.055c-.572,1.446-1.111,2.5-2.614,3.112s-4.4.179-6.064.18l-14.928.057a36.7,36.7,0,0,1-6.17-.045,3.011,3.011,0,0,1-1.147-.516l-.123-.22a4.176,4.176,0,0,1-.635-3.1,7.21,7.21,0,0,1,1.47-2c1.84-2.19,3.527-3.748,4.321-6.56a3.3,3.3,0,0,0-2.261-.461l5.329-14.1,4.558-11.858a5.936,5.936,0,0,1,3.289-3.074c1.781-.716,4.339-.4,6.257-.378" transform="translate(-654.27 -389.915)" fill="#344352"/>
          <path id="Trazado_916317" data-name="Trazado 916317" d="M977.687,549.188l.464-.043a2.008,2.008,0,0,1,1.7.7,2.809,2.809,0,0,1,.341,1.281c-.137,1.288-.915,1.9-1.845,2.67a3.1,3.1,0,0,1-2-.253,2.092,2.092,0,0,1-.521-1.689,4,4,0,0,1,1.852-2.663" transform="translate(-731.24 -411.509)" fill="#eef5f7"/>
          <path id="Trazado_916318" data-name="Trazado 916318" d="M892.928,535.946l4.558-11.858a5.936,5.936,0,0,1,3.289-3.074c1.781-.716,4.339-.4,6.257-.378l-.106.113c-.763.743-2,.881-2.994,1.194a6.752,6.752,0,0,0-3.161,2.163,15.224,15.224,0,0,0-1.949,4.063l-2.544,6.621L891.917,545.9c-.486,1.234-1.164,3.644-2.057,4.6a3.3,3.3,0,0,0-2.261-.461Z" transform="translate(-665.136 -390.082)" fill="#1f2833"/>
          <path id="Trazado_916319" data-name="Trazado 916319" d="M976.1,600.674c1.02.25,2.211.506,2.775,1.486a2.576,2.576,0,0,1,.14,1.811,2.259,2.259,0,0,1-1.123,1.454l-.712.259a2.662,2.662,0,0,1,.687,2.09,2.962,2.962,0,0,1-1.045,1.934,6.572,6.572,0,0,1-1.684.774c.629.7,1.2,1.174,1.18,2.188a2.268,2.268,0,0,1-.754,1.7,3.99,3.99,0,0,1-2.088.87,3.772,3.772,0,0,1-.017,3.013,3.03,3.03,0,0,1-1.913,1.334,12.848,12.848,0,0,1-2.932.055l-5.743-.3a15.756,15.756,0,0,1-2.894-.225,2.174,2.174,0,0,1-1-.543,2.281,2.281,0,0,1-.631-1.915,4.023,4.023,0,0,1,1.551-1.876,3.007,3.007,0,0,1-1.671-1.737,2.01,2.01,0,0,1,.214-1.625,3.156,3.156,0,0,1,2.124-1.369,3.047,3.047,0,0,1-1.248-1.747,2.28,2.28,0,0,1,.356-1.686,3.415,3.415,0,0,1,2.5-1.332,3.691,3.691,0,0,1-.988-1.57,2.435,2.435,0,0,1,.535-2.052,2.33,2.33,0,0,1,1.338-.788,19.137,19.137,0,0,1,3.4-.077,82.326,82.326,0,0,0,9.467-.1Z" transform="translate(-717.995 -450.125)" fill="#f1aa59"/>
          <path id="Trazado_916320" data-name="Trazado 916320" d="M906.023,560.824l.16.031,1.9.012h3.8l1.546.005,3.01-.045a8.941,8.941,0,0,1,.424,4.536,2.2,2.2,0,0,1-.281.621,8.886,8.886,0,0,1,.343,3.645l.01,7.2a12.937,12.937,0,0,1-.08,3.318,2.746,2.746,0,0,1-.2.432,18.1,18.1,0,0,0-3.341-.156l-1.138.036-.238.028a10.848,10.848,0,0,1-2.1.148l-.6.05a4.744,4.744,0,0,1-1.185.166,7.984,7.984,0,0,1-2.078.28,50.721,50.721,0,0,1-5.125,1.6,54.385,54.385,0,0,0-8.83,4.09c-6.91,3.883-13.306,8.836-19.923,13.2-17.352,11.443-37.03,20.521-58.17,20.757l-.315-9.13-.2-8.462a2.844,2.844,0,0,0,.61.189,12.391,12.391,0,0,0,9.593-1.671c3.323-2.226,4.848-5.321,5.617-9.142a3.013,3.013,0,0,0,1.147.516,36.689,36.689,0,0,0,6.171.045l14.928-.057c1.666,0,4.573.429,6.063-.18s2.042-1.667,2.614-3.112a12.83,12.83,0,0,0,2.932-.055,3.029,3.029,0,0,0,1.912-1.334,3.771,3.771,0,0,0,.017-3.013,3.989,3.989,0,0,0,2.088-.87,2.268,2.268,0,0,0,.755-1.7c.02-1.014-.551-1.49-1.181-2.188a6.568,6.568,0,0,0,1.684-.774,2.962,2.962,0,0,0,1.045-1.934,2.662,2.662,0,0,0-.687-2.09l.712-.259a2.259,2.259,0,0,0,1.123-1.454,2.576,2.576,0,0,0-.14-1.811c-.564-.98-1.755-1.236-2.774-1.486l.143-.152a13.19,13.19,0,0,0,1.875-4.883l36.372.249Z" transform="translate(-609.551 -420.262)" fill="#c2e9f2"/>
          <path id="Trazado_916321" data-name="Trazado 916321" d="M1190.189,560.871l3.01-.045a8.939,8.939,0,0,1,.424,4.536,2.215,2.215,0,0,1-.281.621,8.88,8.88,0,0,1,.343,3.645l.01,7.2a12.916,12.916,0,0,1-.08,3.318,2.724,2.724,0,0,1-.2.432,18.1,18.1,0,0,0-3.341-.156l-1.138.036-.238.028a10.827,10.827,0,0,1-2.1.148l-.6.05a4.73,4.73,0,0,1-1.186.166,7.977,7.977,0,0,1-2.078.28c.461-1.819.158-4.473.168-6.385l.03-13.894,1.905.012h3.8Z" transform="translate(-886.305 -420.264)" fill="#eef5f7"/>
          <path id="Trazado_916322" data-name="Trazado 916322" d="M1191.055,560.986h1.769c.667,1.363.384,3.735.391,5.269l.038,8.939c0,1.3.316,3.582-.04,4.793a2.817,2.817,0,0,1-.4.772l-.6.05a4.741,4.741,0,0,1-1.186.166l.446-.742c.005-2.741.444-17.957-.421-19.245" transform="translate(-892.517 -420.382)" fill="#c2e9f2"/>
          <path id="Trazado_916323" data-name="Trazado 916323" d="M1195.1,560.985h.775c.667,1.363.384,3.735.391,5.269l.038,8.939c0,1.3.316,3.582-.04,4.793a2.806,2.806,0,0,1-.4.772l-.6.05a20.015,20.015,0,0,0,.078-3.273l.05-6.37.133-7.286a10.943,10.943,0,0,0,.02-2.249,3.521,3.521,0,0,0-.447-.644" transform="translate(-895.567 -420.382)" fill="#eef5f7"/>
          <path id="Trazado_916324" data-name="Trazado 916324" d="M1198.153,560.982h2.03a3.053,3.053,0,0,1,.368,1.108c.456,4.175.113,8.663.138,12.868l.02,3.7a5.321,5.321,0,0,1-.06,1.61,1.494,1.494,0,0,1-.176.313l-.238.028a10.842,10.842,0,0,1-2.1.148,2.826,2.826,0,0,0,.4-.772c.356-1.211.042-3.49.04-4.793l-.037-8.939c-.008-1.534.276-3.906-.391-5.269" transform="translate(-897.845 -420.381)" fill="#c2e9f2"/>
          <path id="Trazado_916325" data-name="Trazado 916325" d="M1202.65,560.982h.912a3.055,3.055,0,0,1,.369,1.108c.456,4.175.113,8.663.138,12.868l.02,3.7a5.31,5.31,0,0,1-.06,1.61,1.5,1.5,0,0,1-.176.313l-.238.028-.085-.022a5.379,5.379,0,0,1-.554-.245c-.3-.55-.017-12.794.015-14.261.023-1.058.391-3.282.125-4.23a5.719,5.719,0,0,0-.466-.868" transform="translate(-901.225 -420.381)" fill="#eef5f7"/>
          <path id="Trazado_916326" data-name="Trazado 916326" d="M1207.836,560.871l3.01-.045a8.94,8.94,0,0,1,.424,4.536,2.215,2.215,0,0,1-.281.621,8.883,8.883,0,0,1,.343,3.645l.01,7.2a12.933,12.933,0,0,1-.08,3.318,2.747,2.747,0,0,1-.2.432,18.1,18.1,0,0,0-3.341-.156l-1.138.036a1.5,1.5,0,0,0,.175-.313,5.309,5.309,0,0,0,.06-1.61l-.02-3.7c-.025-4.205.318-8.693-.138-12.868a3.058,3.058,0,0,0-.369-1.108Z" transform="translate(-903.953 -420.264)" fill="#92cce3"/>
          <path id="Trazado_916327" data-name="Trazado 916327" d="M1206.29,560.985l1.546.005c.85,1.32.351,16.276.339,19.019l-.456.536-1.138.037a1.5,1.5,0,0,0,.175-.313,5.31,5.31,0,0,0,.06-1.61l-.02-3.7c-.025-4.205.318-8.693-.138-12.868a3.059,3.059,0,0,0-.369-1.108" transform="translate(-903.953 -420.383)" fill="#c2e9f2"/>
          <path id="Trazado_916328" data-name="Trazado 916328" d="M829.242,687.466a3.01,3.01,0,0,0,1.147.515,36.67,36.67,0,0,0,6.171.045l14.928-.057c-3.24,8.1-8.659,15.8-16.911,19.345-6.651,2.856-13.7,2.193-20.277-.443l-.678-.32-.2-8.462a2.844,2.844,0,0,0,.61.189,12.392,12.392,0,0,0,9.593-1.671c3.323-2.226,4.848-5.321,5.617-9.142" transform="translate(-609.551 -515.164)" fill="#e8963d"/>
          <path id="Trazado_916329" data-name="Trazado 916329" d="M145.972,68.808a34.106,34.106,0,0,1,11.709,2.054,29.721,29.721,0,0,1,16.332,15.689l3.611-.918A23.156,23.156,0,0,1,194.5,89.529a22.4,22.4,0,0,1,9.433,15.321l-70.667.034L77,104.858a18.89,18.89,0,0,1,1.728-6.075c2.993-6.1,9.509-8.579,16.018-7.423A20.406,20.406,0,0,1,99.5,92.825c.238.106.486.447.714.32a17.5,17.5,0,0,0,1.117-1.935c2.709-4.343,6.543-8.368,11.541-10a11.512,11.512,0,0,1,9.65.654,23.021,23.021,0,0,1,2.733-3.657c5.282-5.927,12.938-8.976,20.715-9.4" transform="translate(-57.703 -51.562)" fill="#eef5f7"/>
          <path id="Trazado_916330" data-name="Trazado 916330" d="M513.373,236.176a116.571,116.571,0,0,1,12.466-1.356,185.39,185.39,0,0,1,33.748.906c8.5,1.347,18.057,2.818,25.732,6.926a9,9,0,0,1,3.275,2.4,2.009,2.009,0,0,1,.369,1.432,4.831,4.831,0,0,1-2.563,2.775,37.449,37.449,0,0,1-6.458,2.869c-6.593,2.448-13.493,3.716-20.282,5.437l-.027.112a24.338,24.338,0,0,0-.052,4.974c.055,7.131.164,15.566-6.547,20.01a13.114,13.114,0,0,1-9.726,1.806l-.286-.079c-6.963-2.017-14.432-5.988-18.983-11.759l-.3-.312c-4.651-3.356-8.574-7.737-10.269-13.323l-15.67-3.229a56.411,56.411,0,0,1-10.9-4.013,7.386,7.386,0,0,1-3.366-2.785,2.559,2.559,0,0,1,.361-1.839,12.507,12.507,0,0,1,3.994-3.2c7.609-4.492,16.886-6.246,25.484-7.755" transform="translate(-362.334 -175.67)" fill="#c77819"/>
          <path id="Trazado_916331" data-name="Trazado 916331" d="M787.436,287.825a22.959,22.959,0,0,1,5.538,1.819l.157.393c-1.328,1.155-4.005,1.386-5.711,1.728Z" transform="translate(-590.065 -215.686)" fill="#1c584b"/>
          <path id="Trazado_916332" data-name="Trazado 916332" d="M595.32,291.142l-.993-5.066,20.806-3.629.111,4.8a15.77,15.77,0,0,1-.134,3.074l-.085-3.359a56.967,56.967,0,0,1-14.4,3.482c-1.283.172-4.394-.013-5.3.694" transform="translate(-445.368 -211.656)" fill="#344352"/>
          <path id="Trazado_916333" data-name="Trazado 916333" d="M618.213,285.715l-.012-4.787a86.9,86.9,0,0,1,27.507,1.331l-.016,3.94-.028,5.817-.027.112a24.334,24.334,0,0,0-.052,4.974c.055,7.131.164,15.566-6.547,20.01a13.114,13.114,0,0,1-9.726,1.806l-.286-.079c-6.963-2.017-14.432-5.988-18.983-11.76l-.3-.312c-4.651-3.356-8.574-7.737-10.269-13.323l-1.184-3.838c.909-.708,4.019-.522,5.3-.695a56.963,56.963,0,0,0,14.4-3.482l.085,3.359a15.769,15.769,0,0,0,.134-3.074" transform="translate(-448.338 -210.12)" fill="#f1aa59"/>
          <path id="Trazado_916334" data-name="Trazado 916334" d="M695.065,319.9a5.517,5.517,0,0,1,2.63.137,1.858,1.858,0,0,1,1.138,1.269l-.326.446a6.766,6.766,0,0,1-1.711-.789,3.883,3.883,0,0,0-2.293.734,1.435,1.435,0,0,1-.619.383c-.28.062-.351-.085-.574-.239l-.024-.534a3.347,3.347,0,0,1,1.779-1.407" transform="translate(-519.525 -239.652)" fill="#1f2833"/>
          <path id="Trazado_916335" data-name="Trazado 916335" d="M765.571,319.278a8.95,8.95,0,0,1,1.978.258,2.626,2.626,0,0,1,1.7,1.235c.217.47.108.58-.078,1.028l-.423.139-.414-.468a3.627,3.627,0,0,0-2.729-.839c-.544.168-.808.444-1.423.332l-.172-.5c.3-.665.936-.887,1.556-1.183" transform="translate(-572.527 -239.256)" fill="#1f2833"/>
          <path id="Trazado_916336" data-name="Trazado 916336" d="M704.377,336.375a2.738,2.738,0,0,1,1.268.609,3.116,3.116,0,0,1,.594,2.152,3.551,3.551,0,0,1-1.039,3.085,4.014,4.014,0,0,1-1.056-.481,3.793,3.793,0,0,1-.733-1.61,4.514,4.514,0,0,1,.966-3.755" transform="translate(-527.055 -252.068)" fill="#1f2833"/>
          <path id="Trazado_916337" data-name="Trazado 916337" d="M764.339,337.2l1.1.159a2.448,2.448,0,0,1,1.026,1.576,4.548,4.548,0,0,1-.891,3.845,8.6,8.6,0,0,1-1.138-.185,2.68,2.68,0,0,1-.87-1.65,4.338,4.338,0,0,1,.768-3.745" transform="translate(-572.112 -252.685)" fill="#1f2833"/>
          <path id="Trazado_916338" data-name="Trazado 916338" d="M633.143,333.152c.564-.023,1.482-.144,1.945.223a2.8,2.8,0,0,1,1.084,2.041,4.344,4.344,0,0,1-.46,2.543l-1.429-.429c-.969-.29-2.633-.352-3.35-1.019a2.947,2.947,0,0,1-.045-.891c.188-1.126,1.378-1.9,2.255-2.468" transform="translate(-472.751 -249.625)" fill="#e87354"/>
          <path id="Trazado_916339" data-name="Trazado 916339" d="M701.194,380.3l14.063-.02a11.949,11.949,0,0,1-2.191,3.47l-1.717,1.125a6.7,6.7,0,0,1-5.214.395,8.541,8.541,0,0,1-4.941-4.969" transform="translate(-525.451 -284.967)" fill="#eef5f7"/>
          <path id="Trazado_916340" data-name="Trazado 916340" d="M598.29,304.651c.909-.708,4.019-.522,5.3-.695a56.96,56.96,0,0,0,14.4-3.482l.085,3.36a9.266,9.266,0,0,1-2.895,6.26,5.753,5.753,0,0,1-1.023.681,1.416,1.416,0,0,1-.378-.853,4.746,4.746,0,0,0-1.962-2.949,4.23,4.23,0,0,0-3.308-.57,5.389,5.389,0,0,0-3.357,2.481,4.808,4.808,0,0,0-.594,3.672,5.92,5.92,0,0,0,2.747,3.453,6.348,6.348,0,0,0,2.325.667l.108,5.135c-4.651-3.356-8.574-7.737-10.269-13.323Z" transform="translate(-448.338 -225.166)" fill="#1f2833"/>
          <path id="Trazado_916341" data-name="Trazado 916341" d="M515.99,386.854c4.551,5.771,12.021,9.743,18.983,11.76l-.073,1.678c.108.81-.014,1.382.646,1.9,1.553-.125,4.961,2.307,6.486,3.078a11.413,11.413,0,0,0,1.973.752c2.019.862,4.783,1.76,6.461,3.157a26.635,26.635,0,0,1,4.546,4.369c3.972,4.849,6.612,10.662,8.806,16.489a42.072,42.072,0,0,1,1.909,5.509l2.531,8.966a35.658,35.658,0,0,1,1.075,4.371l-.554.355-.461-.763c-1.742-.9-4.79.018-6.627.6a8.391,8.391,0,0,0-4.105,2.579,47.223,47.223,0,0,0-4.1,7.949l-7.143,1.591c-.865.245-3.045,1.109-3.832.918l-.269-1.145-.24,1.324c-1.635,1.012-4.524,1.4-6.429,1.927l-10.118,2.945-3.909,1.1-9.537,2.361-5.777.707a5.1,5.1,0,0,1-2.114-.594,6.292,6.292,0,0,1-2.683-3.632,27.41,27.41,0,0,1-.408-5.291,47.728,47.728,0,0,1-25.827-.994l-2.417-1.208.513-9.442a85.458,85.458,0,0,1,2.1-14.681,43.9,43.9,0,0,1,8.768-17.944,47.811,47.811,0,0,1,6.2-5.876,44.418,44.418,0,0,1,9.657-4.964l.3-.11a32.235,32.235,0,0,1,6.118-1.882,24.653,24.653,0,0,1,3.725-.788c1.878-.741,4.111-2.889,5.8-4.129a31.819,31.819,0,0,0,.049-4.015l.04-7.511Z" transform="translate(-354.285 -289.895)" fill="#0c557b"/>
          <path id="Trazado_916342" data-name="Trazado 916342" d="M639.389,600.759a5.615,5.615,0,0,1,1.85,0,2.793,2.793,0,0,1,1.417,1.221,3.373,3.373,0,0,1,.227,2.4,3.541,3.541,0,0,1-1.959,1.833,6.431,6.431,0,0,1-1.389-.082,2.455,2.455,0,0,1-1.626-1.07,2.79,2.79,0,0,1-.441-2.031,3.49,3.49,0,0,1,1.922-2.279" transform="translate(-477.662 -450.129)" fill="#f9bf2a"/>
          <path id="Trazado_916343" data-name="Trazado 916343" d="M776.305,601.47a4.232,4.232,0,0,1,1.24-.026,2.88,2.88,0,0,1,2.077,1.126,2.946,2.946,0,0,1,.572,2.23c-.235,1.1-1.068,1.626-1.96,2.181a4.238,4.238,0,0,1-1.077.028,3.2,3.2,0,0,1-2.211-1.229,2.431,2.431,0,0,1-.514-1.935,3.615,3.615,0,0,1,1.873-2.375" transform="translate(-580.306 -450.677)" fill="#f9bf2a"/>
          <path id="Trazado_916344" data-name="Trazado 916344" d="M782.74,475.908a26.634,26.634,0,0,1,4.546,4.369l2.236,26.242-2.8.176a159.123,159.123,0,0,0-3.986-30.786" transform="translate(-586.559 -356.629)" fill="#df4f43"/>
          <path id="Trazado_916345" data-name="Trazado 916345" d="M798.644,519.756l2.8-.176L799.2,493.338c3.972,4.85,6.612,10.662,8.806,16.489a42.071,42.071,0,0,1,1.909,5.509l2.531,8.966a35.653,35.653,0,0,1,1.075,4.371l-.554.355-.461-.763c-1.742-.9-4.79.018-6.627.6a8.393,8.393,0,0,0-4.106,2.578l-.34-11.644Z" transform="translate(-598.477 -369.691)" fill="#c23833"/>
          <path id="Trazado_916346" data-name="Trazado 916346" d="M616.575,386.854c4.551,5.771,12.021,9.743,18.983,11.76l-.073,1.678c.108.81-.014,1.382.646,1.9,1.553-.125,4.961,2.307,6.486,3.078a11.413,11.413,0,0,0,1.973.752,236.3,236.3,0,0,1,3.5,24.924l.306,9.092-28.016-.015c-.629-.847-.98-3.415-1.27-4.487l-2.953-9.881c-2.42-7.194-5.143-14.465-9.151-20.943a24.656,24.656,0,0,1,3.725-.788c1.878-.741,4.111-2.889,5.8-4.129a31.808,31.808,0,0,0,.049-4.015l.04-7.511Z" transform="translate(-454.87 -289.895)" fill="#df4f43"/>
          <path id="Trazado_916347" data-name="Trazado 916347" d="M700.893,448.015c1.553-.125,4.961,2.307,6.486,3.078l-.975,11.114-9.216-4.72a21.926,21.926,0,0,1-3.76-2.062Z" transform="translate(-519.631 -335.724)" fill="#c23833"/>
          <path id="Trazado_916348" data-name="Trazado 916348" d="M627.669,438.46c1.887,1.885,4.093,3.472,6.148,5.17a62.369,62.369,0,0,0,5.773,4.641,19.934,19.934,0,0,1-3.065,2.118l-6.585,4.2-8.071-12c1.878-.741,4.111-2.889,5.8-4.129" transform="translate(-466.007 -328.567)" fill="#c23833"/>
          <path id="Trazado_916349" data-name="Trazado 916349" d="M645.053,386.854c4.551,5.771,12.021,9.743,18.983,11.76l-.073,1.678c.108.81-.014,1.382.646,1.9l-7.465,7.41-.214,0a62.355,62.355,0,0,1-5.773-4.641c-2.055-1.7-4.262-3.285-6.149-5.17a31.785,31.785,0,0,0,.049-4.015l.04-7.511Z" transform="translate(-483.348 -289.895)" fill="#f1aa59"/>
          <path id="Trazado_916350" data-name="Trazado 916350" d="M645.183,386.854c4.551,5.771,12.021,9.743,18.983,11.76l-.073,1.678-3.337.259A17.089,17.089,0,0,1,648.027,396a11.667,11.667,0,0,1-2.647-3.334,23.073,23.073,0,0,1-.151-4.406Z" transform="translate(-483.478 -289.895)" fill="#c77819"/>
          <path id="Trazado_916351" data-name="Trazado 916351" d="M500.3,465.592a157.94,157.94,0,0,1,11.928,33.242l-.069.094a4.254,4.254,0,0,0-.256,2.267l.045,6.117.054,22.309-5.777.707a5.1,5.1,0,0,1-2.114-.594,6.292,6.292,0,0,1-2.683-3.632,27.411,27.411,0,0,1-.408-5.291,47.727,47.727,0,0,1-25.827-.994l-2.417-1.208.513-9.442a85.459,85.459,0,0,1,2.1-14.681,43.894,43.894,0,0,1,8.768-17.944,47.8,47.8,0,0,1,6.2-5.876,44.413,44.413,0,0,1,9.657-4.964Z" transform="translate(-354.285 -348.899)" fill="#df4f43"/>
          <path id="Trazado_916352" data-name="Trazado 916352" d="M473.293,587.531c10.219,2.922,20.261,2.627,30.6.628l.589-10.918a58.223,58.223,0,0,1,.645-7.076c.981,4.671.853,10.026.959,14.8l.138,23.723a5.1,5.1,0,0,1-2.114-.594,6.292,6.292,0,0,1-2.683-3.632,27.412,27.412,0,0,1-.408-5.291,47.728,47.728,0,0,1-25.827-.994l-2.417-1.208Z" transform="translate(-354.285 -427.262)" fill="#c23833"/>
          <path id="Trazado_916353" data-name="Trazado 916353" d="M564.606,634.745a8.391,8.391,0,0,1,4.105-2.579c1.837-.585,4.885-1.5,6.627-.6l.461.763a6.015,6.015,0,0,0,.352,3.014l7.618-2.388a3.3,3.3,0,0,1,2.261.461c-.794,2.812-2.481,4.37-4.321,6.56a7.207,7.207,0,0,0-1.47,2,4.175,4.175,0,0,0,.635,3.1l.123.22c-.77,3.82-2.294,6.916-5.617,9.142a12.39,12.39,0,0,1-9.593,1.671,2.844,2.844,0,0,1-.61-.189l.2,8.462.314,9.13,1.118,19.752.276,4.782a12.457,12.457,0,0,0,.149,2.357l.774,15.527a7.974,7.974,0,0,0,.126,1.64l.627,12.074H499.895l.4-12.311.009-1.52.461-12.573c.487-2.671.279-5.762.352-8.493l.5-15.528a31.166,31.166,0,0,1-11.438-7.42A30.045,30.045,0,0,1,482.38,654.4a92.017,92.017,0,0,1-.162-10.492,47.727,47.727,0,0,0,25.827.994,27.4,27.4,0,0,0,.408,5.291,6.292,6.292,0,0,0,2.683,3.632,5.1,5.1,0,0,0,2.114.594l5.777-.707,9.537-2.36,3.909-1.1,10.118-2.945c1.9-.531,4.794-.914,6.429-1.927l.24-1.324.269,1.145c.787.192,2.967-.672,3.832-.918l7.143-1.591a47.226,47.226,0,0,1,4.1-7.949" transform="translate(-361.306 -472.989)" fill="#0c557b"/>
          <path id="Trazado_916354" data-name="Trazado 916354" d="M712.947,944.846l.449-20.551c2.246-.888,14.432-6.175,15.732-5.913l.476.51c-.469.885-9.721,4.989-11.334,5.765a11.933,11.933,0,0,0-2.335,1.118c-.047.05-.03,1.216-.034,1.417l-.544,17.654Z" transform="translate(-534.258 -688.196)" fill="#03325a"/>
          <path id="Trazado_916355" data-name="Trazado 916355" d="M554.668,822.807a36.624,36.624,0,0,0,18.3,1.345c-.032,1.494-.391,4.12.082,5.483a11.211,11.211,0,0,0,1.4,2.278l-11.766,12.278.012,29.041h-9.743l.4-12.312.009-1.52.461-12.573c.487-2.671.279-5.762.352-8.494Z" transform="translate(-414.364 -616.583)" fill="#03325a"/>
          <path id="Trazado_916356" data-name="Trazado 916356" d="M564.606,634.745a8.391,8.391,0,0,1,4.105-2.579c1.837-.585,4.885-1.5,6.627-.6l.461.763a6.015,6.015,0,0,0,.352,3.014l7.618-2.388a3.3,3.3,0,0,1,2.261.461c-.794,2.812-2.481,4.37-4.321,6.56a7.207,7.207,0,0,0-1.47,2,4.175,4.175,0,0,0,.635,3.1l.123.22c-.77,3.82-2.294,6.916-5.617,9.142a12.39,12.39,0,0,1-9.593,1.671,2.844,2.844,0,0,1-.61-.189l-1.8-.386c-10.532,10.081-22.115,19.107-36.3,23.322a34.9,34.9,0,0,1-6.759,1.622c-.02,1.831-.444,4.946.576,6.464a5.994,5.994,0,0,0,3.407,2.675,30.742,30.742,0,0,0,6.033.115l12.7-.04,11.586-.048c1.984-.008,4.11.139,6.073-.053a2.382,2.382,0,0,0,1.124-.488,4.805,4.805,0,0,0,2.152-3.128l.1-1.523.333.077a5.4,5.4,0,0,1-1.384,4.086,5.268,5.268,0,0,1-1.931,1.341,26.136,26.136,0,0,1-5.089.065l-14.026,0L528.419,690a22.767,22.767,0,0,1-4.615-.044,6.583,6.583,0,0,1-2.413-1.634,11.211,11.211,0,0,1-1.4-2.278c-.473-1.363-.113-3.989-.082-5.483a36.624,36.624,0,0,1-18.3-1.345,31.166,31.166,0,0,1-11.438-7.42A30.045,30.045,0,0,1,482.38,654.4a92.017,92.017,0,0,1-.162-10.492,47.727,47.727,0,0,0,25.827.994,27.4,27.4,0,0,0,.408,5.291,6.292,6.292,0,0,0,2.683,3.632,5.1,5.1,0,0,0,2.114.594l5.777-.707,9.537-2.36,3.909-1.1,10.118-2.945c1.9-.531,4.794-.914,6.429-1.927l.24-1.324.269,1.145c.787.192,2.967-.672,3.832-.918l7.143-1.591a47.226,47.226,0,0,1,4.1-7.949" transform="translate(-361.306 -472.989)" fill="#f1aa59"/>
          <path id="Trazado_916357" data-name="Trazado 916357" d="M841.3,632.689l.461.763a6.017,6.017,0,0,0,.352,3.014l-5.049,2.154a14.92,14.92,0,0,1,1.652-3.124c.727-.963,1.707-1.731,2.474-2.671Z" transform="translate(-627.265 -474.116)" fill="#e8963d"/>
          <path id="Trazado_916358" data-name="Trazado 916358" d="M1436.014,395.989l1.08-.244c0-.707-1.7-2.423-2.168-3.138a20.807,20.807,0,0,1-2.542-5.5c-1.2-4.037-.737-8.8-.732-13l.025-9.348a39.857,39.857,0,0,1,.436-7.374,25.124,25.124,0,0,1,6.87-12.7,26.481,26.481,0,0,1,18.793-7.83,27.193,27.193,0,0,1,19.344,7.979,25.036,25.036,0,0,1,7.173,14.507,82.686,82.686,0,0,1,.166,9.527l.015,14.2a17.882,17.882,0,0,1-5.549,12.333l-.128.124a27.379,27.379,0,0,1,7.674,2.775,1.418,1.418,0,0,1,.627-.311,18.112,18.112,0,0,1,2.872-.022l5.764.031,22.828.137a2,2,0,0,1,.386.882c.153,1.485.015,3.14.02,4.64l.015,9.428.005,31.476-.023,14.981a26.592,26.592,0,0,1-.045,5.038,2.291,2.291,0,0,1-.286.619,10.491,10.491,0,0,0-2.589-1.9,19.951,19.951,0,0,0-8.341-3.162c-3.489-.461-7.128-.055-10.645-.349a30.347,30.347,0,0,1-7.649-1.755,37.737,37.737,0,0,1-12.893-7.852,64.853,64.853,0,0,0-5.694-5.3,19.8,19.8,0,0,0-2.865-1.81,9.9,9.9,0,0,1-2.619-1.368,17.26,17.26,0,0,0-4.539-.1l-.379-.078a25.387,25.387,0,0,1-3.326.011l-.444.061-11.925.094c-1.549,0-4.917-.423-6.223.317l-.062-.292a29.8,29.8,0,0,0-17.76-10.137l.376-.537-.81-1.664a24.061,24.061,0,0,1-.364-18.283,24.571,24.571,0,0,1,11.143-12.841c1.579-.892,3.328-1.536,4.985-2.273" transform="translate(-1062.795 -252.43)" fill="#269e78"/>
          <path id="Trazado_916359" data-name="Trazado 916359" d="M1577.04,487.751l.058-.152c.5-1.442.278-3.578.3-5.135l.283-10.011c.326,3.062.221,6.214.311,9.293.05,1.722.574,4.916-.15,6.45.052-.467-.083-.432-.158-.818a7.681,7.681,0,0,1,.11-1.114l-.055-2.506c-.378,1.445.236,2.751-.7,3.994" transform="translate(-1181.78 -354.04)" fill="#1c584b"/>
          <path id="Trazado_916360" data-name="Trazado 916360" d="M1513.044,521.55c.937-1.243.323-2.549.7-3.994l.055,2.506a7.749,7.749,0,0,0-.11,1.114c.075.387.211.351.158.818.639,1.016.444,2.88.469,4.079l.173,9.008.824,36.374,19.515-17.753c-2.326,3.811-5.6,7.1-8.549,10.427l-6.75,7.879c-1.215,1.394-3.381,3.277-4.118,4.932a25.393,25.393,0,0,1-3.326.011l.228-.3c-1.1-1.869-2.98-3.585-4.394-5.238l-10-11.611c-1.18-1.308-6.013-6.04-6.281-7.229l20.78,18.916.3-24.215.4-15.389a16.391,16.391,0,0,0,.05-3.443,9.585,9.585,0,0,0-1.233-1.5l-3.687-4.59a12.408,12.408,0,0,1-2.206-2.938,88,88,0,0,1,7.165,7.013c.05-1.428.361-3.557-.163-4.877" transform="translate(-1117.784 -387.839)" fill="#19697f"/>
          <path id="Trazado_916361" data-name="Trazado 916361" d="M1627.241,580.876a1.418,1.418,0,0,1,.627-.311,18.124,18.124,0,0,1,2.873-.022l5.765.031,22.828.137a2,2,0,0,1,.386.883c.153,1.485.015,3.14.02,4.64l.015,9.428,0,31.476-.023,14.981a26.6,26.6,0,0,1-.045,5.039,2.3,2.3,0,0,1-.286.619,10.5,10.5,0,0,0-2.589-1.9,19.948,19.948,0,0,0-8.341-3.162c-3.489-.461-7.128-.055-10.644-.349a30.353,30.353,0,0,1-7.65-1.755,37.742,37.742,0,0,1-12.893-7.852,64.8,64.8,0,0,0-5.694-5.3,19.8,19.8,0,0,0-2.865-1.81,9.919,9.919,0,0,1-2.619-1.368l8.888.063c3.83.012,7.88.007,11.477-1.506a22.334,22.334,0,0,0,12.083-30.064c-1.993-4.619-6.564-10.013-11.316-11.9" transform="translate(-1203.564 -435.001)" fill="#c2e9f2"/>
          <path id="Trazado_916362" data-name="Trazado 916362" d="M28.109,409.593,28,409.322a23.259,23.259,0,0,1-1.542-6c-.438-3.885-.129-8.13-.135-12.056-.009-5.435-.431-11.264.285-16.645a22.8,22.8,0,0,1,1.646-5.8,26.778,26.778,0,0,1,14.716-14.584,28.468,28.468,0,0,1,21.4.247,27.981,27.981,0,0,1,15.222,15.63,23.575,23.575,0,0,1,1.5,5.981c.513,4.653.192,9.631.194,14.319s.418,9.811-.294,14.429a19.292,19.292,0,0,1-1.573,4.7l41.681.02a85.453,85.453,0,0,0-2.1,14.681l-.513,9.442,2.417,1.208a92.019,92.019,0,0,0,.162,10.492,30.044,30.044,0,0,0,7.792,17.394,31.168,31.168,0,0,0,11.438,7.42l-.5,15.528c-.073,2.732.135,5.823-.352,8.493l-.461,12.573-.009,1.52-.4,12.311H0V409.6Z" transform="translate(0 -263.985)" fill="#269e78"/>
          <path id="Trazado_916363" data-name="Trazado 916363" d="M247.853,580.8l41.681.02a85.455,85.455,0,0,0-2.1,14.681l-.513,9.442,2.417,1.208a92.017,92.017,0,0,0,.162,10.492,30.044,30.044,0,0,0,7.792,17.394,123.049,123.049,0,0,0-13.872.33,65.224,65.224,0,0,0-25.377,7.934l-14.582,8.762c-6.02,3.425-11.8,6.368-18.526,8.2l-.033-10.129a44.835,44.835,0,0,0-.078-5.17l-.063-9.1,13.032-.015c2.984-.008,6.083.189,9.015-.428a19.57,19.57,0,0,0,6.435-2.735,23.259,23.259,0,0,0,9.851-14.517,24.889,24.889,0,0,0-3.422-18.872c-3.977-6.069-9.868-9.571-16.861-11.02a23.356,23.356,0,0,0,5.038-6.476" transform="translate(-168.431 -435.23)" fill="#c2e9f2"/>
          <path id="Trazado_916364" data-name="Trazado 916364" d="M128.866,793.069a31.168,31.168,0,0,0,11.438,7.42l-.5,15.528c-.073,2.732.135,5.823-.352,8.494l-.461,12.573-.009,1.52-.4,12.311H0V840.555c2.33-2.356,4.629-4.861,7.131-7.029A46.411,46.411,0,0,1,28.08,822.921c2.981-.623,6.09-.9,9.106-1.335,1.143.633,3.462.253,4.787.237l9.468-.074-.008,15.52,5.025.019-.026-11.622L56.4,802.992a44.838,44.838,0,0,1,.078,5.17l.033,10.129c6.723-1.829,12.505-4.772,18.526-8.2l14.582-8.762a65.222,65.222,0,0,1,25.377-7.934,123.064,123.064,0,0,1,13.872-.33" transform="translate(0 -594.265)" fill="#88c160"/>
          <path id="Trazado_916365" data-name="Trazado 916365" d="M127.84,911.162l.026-4.109,9.55.168-.092,2.193.047.858.042.432a47.235,47.235,0,0,1-.1,5.785l.07.449-.037,1.189.061.392,17.758.018,7.3-.055a12.564,12.564,0,0,1,4.032.226l16.132.106.145-.082,11.69-.18-.012,1.377,0,.278.018,1.275-.051.288.045,1.075c1.528-.453,3.672-.238,5.29-.251l10.5-.06-.009,1.52-10.311.06-18.5.023-60.851,0-17.469-.089-5.429.024a11.24,11.24,0,0,1-2.151.012,2.47,2.47,0,0,1-.443-.3l.042-.765a2.891,2.891,0,0,1,.513-.37,7.153,7.153,0,0,1,1.442-.016l3.676-.028,21.925.12,5.025.019-.026-11.622Z" transform="translate(-71.263 -679.715)" fill="#64ad5d"/>
          <path id="Trazado_916366" data-name="Trazado 916366" d="M444.437,965.66a16.776,16.776,0,0,1,3.954-.137l7.81.024.045,1.075a17.4,17.4,0,0,1-4.094.174l-7.675,0Z" transform="translate(-333.046 -723.493)" fill="#c77819"/>
          <path id="Trazado_916367" data-name="Trazado 916367" d="M327.614,964.889c3.327-.092,7.312-.434,10.6-.021l.172,1.29-13.591-.031,2.454-.209Z" transform="translate(-243.39 -722.89)" fill="#c77819"/>
          <path id="Trazado_916368" data-name="Trazado 916368" d="M378.334,965.464l16.568.188.04,1.133-16.436-.031Z" transform="translate(-283.511 -723.486)" fill="#e8963d"/>
          <path id="Trazado_916369" data-name="Trazado 916369" d="M281.517,952.557l7.3-.055a12.562,12.562,0,0,1,4.032.226l16.132.105.145-.082,11.69-.18-.012,1.377,0,.278.018,1.275-.051.288-7.81-.024A16.779,16.779,0,0,0,309,955.9l-16.568-.188c-3.287-.413-7.272-.071-10.6.021l-.366,1.029-2.454.209c-2.956.162-6,.019-8.961.017-1.993,0-4.413.261-6.35-.182l.063-1.2-.011-3.067Z" transform="translate(-197.613 -713.736)" fill="#f1aa59"/>
          <path id="Trazado_916370" data-name="Trazado 916370" d="M333.888,959.056l10.866-.095.3.26-.025.78a13.794,13.794,0,0,1-3.891.145,68.05,68.05,0,0,1-6.85-.086Z" transform="translate(-250.204 -718.613)" fill="#c77819"/>
          <path id="Trazado_916371" data-name="Trazado 916371" d="M334.767,952.557l7.3-.055a12.563,12.563,0,0,1,4.032.226l-.465.891c-2.114.2-4.331.076-6.457.073a24.371,24.371,0,0,1-4.327-.11Z" transform="translate(-250.863 -713.736)" fill="#c77819"/>
          <path id="Trazado_916372" data-name="Trazado 916372" d="M444.495,953.105l11.69-.18-.012,1.377-8.561-.033c-.864,0-2.364.194-3.087-.226l-.175-.855Z" transform="translate(-332.981 -714.089)" fill="#c77819"/>
          <path id="Trazado_916373" data-name="Trazado 916373" d="M456.509,960.8c-1.861-.032-10.752.414-11.67-.265l-.059-.667c.832-.534,2.442-.287,3.445-.289l8.267-.054Z" transform="translate(-333.303 -719.033)" fill="#c77819"/>
          <path id="Trazado_916374" data-name="Trazado 916374" d="M263.759,952.8l17.758.017.085,1.025a1.844,1.844,0,0,0-1.019.429.831.831,0,0,0,.714.168l.4,1-7.445-.06a11,11,0,0,0-2.354,0,4.891,4.891,0,0,0-.718.6l10.661,0-.366,1.029-2.454.209c-2.956.162-6,.019-8.961.016-1.993,0-4.413.261-6.35-.182l.063-1.2Z" transform="translate(-197.613 -713.995)" fill="#e8963d"/>
          <path id="Trazado_916375" data-name="Trazado 916375" d="M281.238,907.77l.637.186,19.038-.069,8.218.018a11.041,11.041,0,0,1,3.675.2l.392.447,7.128.029a1.9,1.9,0,0,1,.35,1.245l-.024,2.547-.037.42.063,2.727-.025.374.023,1.19-.019.394.089,1.216-.052.357-11.69.18-.145.082-16.132-.105a12.557,12.557,0,0,0-4.032-.226l-7.3.055-17.758-.018-.061-.392.037-1.189-.07-.449a47.234,47.234,0,0,0,.1-5.785l-.042-.432-.047-.858.092-2.193Z" transform="translate(-197.488 -680.216)" fill="#e8963d"/>
          <path id="Trazado_916376" data-name="Trazado 916376" d="M345.838,934.849l-7.229-.056a10.616,10.616,0,0,1-3.46-.161l-.042-.754c.84-.52,9.692-.112,11.174-.1Z" transform="translate(-251.118 -699.619)" fill="#c77819"/>
          <path id="Trazado_916377" data-name="Trazado 916377" d="M333.84,927.975c1.759-.173,3.619-.066,5.39-.068a55.857,55.857,0,0,1,5.711.082l.28.956-6.742.07a25.368,25.368,0,0,1-4.229-.1Z" transform="translate(-250.168 -695.318)" fill="#c77819"/>
          <path id="Trazado_916378" data-name="Trazado 916378" d="M333.674,921.545l7.209-.078a17.433,17.433,0,0,1,4.372.237l-.336.708c-.378.455-9.564.231-10.794.17Z" transform="translate(-250.044 -690.499)" fill="#c77819"/>
          <path id="Trazado_916379" data-name="Trazado 916379" d="M443.9,928.992l.36-.812a10.8,10.8,0,0,1,3.455-.2l8.05-.035.063,2.727-11.932-.1c.153-.4.218-.891.666-1.049a8.606,8.606,0,0,1,1.89,0l6.609-.009a4.827,4.827,0,0,0,2.412-.331,10.844,10.844,0,0,0-3.1-.107Z" transform="translate(-332.643 -695.368)" fill="#c77819"/>
          <path id="Trazado_916380" data-name="Trazado 916380" d="M292.307,938.076c3.48-.286,7.065-.1,10.561-.092a43.483,43.483,0,0,1,5.876.048l11.932.1-.025.374.023,1.19-.019.394.089,1.216-.052.357-11.69.18-.145.082-16.132-.106a12.567,12.567,0,0,0-4.032-.225l-7.3.055-17.758-.018-.061-.392.037-1.189-.07-.449,17.646-.218.267-.632c.7-.558,9.553-.276,10.993-.146Z" transform="translate(-197.488 -702.83)" fill="#f1aa59"/>
          <path id="Trazado_916381" data-name="Trazado 916381" d="M333.945,940.944l.267-.632c.7-.557,9.553-.276,10.993-.147l-.185.965a51.873,51.873,0,0,1-7.458.018,12.526,12.526,0,0,1-3.617-.2" transform="translate(-250.247 -704.388)" fill="#c77819"/>
          <path id="Trazado_916382" data-name="Trazado 916382" d="M334.823,946.4c1.367,0,10.561-.2,10.855.123a3.5,3.5,0,0,1,.47,1.042l-11.288-.027Z" transform="translate(-250.905 -709.156)" fill="#c77819"/>
          <path id="Trazado_916383" data-name="Trazado 916383" d="M456.733,941.517c-3.745.018-7.776.343-11.487-.057-.218-.507-.156-.534,0-1.038l11.464-.1Z" transform="translate(-333.547 -704.649)" fill="#c77819"/>
          <path id="Trazado_916384" data-name="Trazado 916384" d="M444.4,947.757a1.876,1.876,0,0,1,.318-1.058l11.467-.052.089,1.216-.052.357-11.69.18Z" transform="translate(-333.019 -709.385)" fill="#c77819"/>
          <path id="Trazado_916385" data-name="Trazado 916385" d="M444.4,951.078l11.874.106-.052.357-11.69.18Z" transform="translate(-333.019 -712.705)" fill="#f1aa59"/>
          <path id="Trazado_916386" data-name="Trazado 916386" d="M263.671,951.117l17.87-.029,11.288.027,16.139-.038.132.643-.145.082-16.132-.106a12.559,12.559,0,0,0-4.032-.226l-7.3.055-17.758-.018Z" transform="translate(-197.586 -712.705)" fill="#f9bf2a"/>
          <path id="Trazado_916387" data-name="Trazado 916387" d="M263.54,944.048l17.646-.218.22.689.037,1.139-17.87.029.037-1.189Z" transform="translate(-197.488 -707.274)" fill="#e8963d"/>
          <path id="Trazado_916388" data-name="Trazado 916388" d="M263.54,944.048l17.646-.218.22.689-17.8-.021Z" transform="translate(-197.488 -707.274)" fill="#f9bf2a"/>
          <path id="Trazado_916389" data-name="Trazado 916389" d="M281.262,907.77l.637.186,19.038-.069,8.218.018a11.042,11.042,0,0,1,3.675.2l.392.447,7.128.029a1.9,1.9,0,0,1,.35,1.245l-.024,2.547-11.462-.071-.379-1a42.385,42.385,0,0,1-6.109.131l-10-.015a17.427,17.427,0,0,0-4.372-.237l-7.209.078-17.481-.057-.042-.432-.047-.858.092-2.193Z" transform="translate(-197.513 -680.216)" fill="#f9bf2a"/>
          <path id="Trazado_916390" data-name="Trazado 916390" d="M378.413,916.688a38.6,38.6,0,0,0,5.877.12l10.73-.128.118.858-16.793.029-.042-.745Z" transform="translate(-283.487 -686.929)" fill="#e8963d"/>
          <path id="Trazado_916391" data-name="Trazado 916391" d="M263.573,916.473l17.849.017.141.875a56.809,56.809,0,0,0-6.446-.09l-11.5.056Z" transform="translate(-197.513 -686.774)" fill="#e8963d"/>
          <path id="Trazado_916392" data-name="Trazado 916392" d="M334.759,909.836c1.72.036,10.361-.223,10.951.294l.073,1.4-.11.134.042.745-10.807-.048-.141-.875Z" transform="translate(-250.857 -681.774)" fill="#e8963d"/>
          <path id="Trazado_916393" data-name="Trazado 916393" d="M334.788,916.349l7.928-.021a7.766,7.766,0,0,1,2.979.2l.042.745-10.807-.048Z" transform="translate(-250.879 -686.633)" fill="#c77819"/>
          <path id="Trazado_916394" data-name="Trazado 916394" d="M281.262,907.77l.637.186-.484.322.007,1.655-17.849-.017.092-2.193Z" transform="translate(-197.513 -680.216)" fill="#f1aa59"/>
          <path id="Trazado_916395" data-name="Trazado 916395" d="M354.281,908.377l8.218.018-.11,2.063-10.73.128a38.618,38.618,0,0,1-5.877-.12l-.073-1.4c-.59-.517-9.231-.259-10.951-.294l.484-.322Z" transform="translate(-250.857 -680.707)" fill="#f9bf2a"/>
          <path id="Trazado_916396" data-name="Trazado 916396" d="M444.479,908.291a11.043,11.043,0,0,1,3.675.2l.392.447,7.127.029a1.9,1.9,0,0,1,.35,1.245L456,912.759l-11.462-.071-.379-1c2.325-.349,9.981.416,11.383-.394l-11.053-.085-.118-.859Z" transform="translate(-332.837 -680.602)" fill="#c77819"/>
          <path id="Trazado_916397" data-name="Trazado 916397" d="M445.111,908.291a11.043,11.043,0,0,1,3.675.2l.392.447,7.128.029a1.9,1.9,0,0,1,.35,1.245L445,910.354Z" transform="translate(-333.469 -680.602)" fill="#e8963d"/>
          <path id="Trazado_916398" data-name="Trazado 916398" d="M297.486,793.069a31.168,31.168,0,0,0,11.438,7.42l-.5,15.528c-.073,2.732.135,5.823-.352,8.494l-.461,12.573-10.5.06c-1.618.013-3.763-.2-5.29.251l-.045-1.075.051-.288-.018-1.275,0-.278.012-1.377.052-.357-.088-1.216.019-.394-.023-1.19.025-.374-.063-2.727.037-.42.024-2.547a1.9,1.9,0,0,0-.35-1.245l-7.128-.029-.392-.447a11.044,11.044,0,0,0-3.675-.2l-8.218-.018L253.007,822l-.637-.186-17.6-.047-9.55-.168-.026,4.109-.145-.048-.035-22.673a44.831,44.831,0,0,1,.078,5.17l.033,10.129c6.723-1.829,12.505-4.772,18.526-8.2l14.582-8.762a65.222,65.222,0,0,1,25.377-7.934,123.064,123.064,0,0,1,13.872-.33" transform="translate(-168.62 -594.265)" fill="#64ad5d"/>
          <path id="Trazado_916399" data-name="Trazado 916399" d="M414.326,872.224l11.282.055a7.392,7.392,0,0,1,.122,2.229,8.418,8.418,0,0,1-1.592-.146l-.091-.326-6.226,0a17.951,17.951,0,0,1-3.574-.121,2.672,2.672,0,0,1,.081-1.7" transform="translate(-310.342 -653.615)" fill="#c77819"/>
          <path id="Trazado_916400" data-name="Trazado 916400" d="M334.2,874.5c.012-.7-.129-1.68.291-2.22l19.921-.055a2.672,2.672,0,0,0-.081,1.7,17.951,17.951,0,0,0,3.574.121l6.226,0,.091.326-10.205.013Z" transform="translate(-250.43 -653.615)" fill="#f1aa59"/>
          <path id="Trazado_916401" data-name="Trazado 916401" d="M354.061,880.77l10.205-.013a8.4,8.4,0,0,0,1.593.146l.047,3.9-11.531-.049L354,883.734c-4.675.362-9.55.135-14.245.128a31.085,31.085,0,0,0-5.275.082c-.263,1.095.164,2.186-.155,3.308l-.029-5.621-.055-.738Z" transform="translate(-250.47 -660.009)" fill="#f9bf2a"/>
          <path id="Trazado_916402" data-name="Trazado 916402" d="M334.243,880.933l19.818-.123.232.971c-4.736-.414-9.809-.057-14.579-.028a36.625,36.625,0,0,1-5.416-.082Z" transform="translate(-250.47 -660.049)" fill="#e8963d"/>
          <path id="Trazado_916403" data-name="Trazado 916403" d="M354.477,886.406l.1,1.157a37.011,37.011,0,0,0-5.585-.112l-14.067.134-.23-.446.195-.555,12.79-.033a50.69,50.69,0,0,0,6.633-.12Z" transform="translate(-250.811 -664.242)" fill="#f1aa59"/>
          <path id="Trazado_916404" data-name="Trazado 916404" d="M413.14,880.77l10.205-.013a8.4,8.4,0,0,0,1.592.146l.047,3.9-11.531-.049-.372-1.024c3.045-.513,6.349.282,9.391-.216l-8.954-.17-.2-.018-.1-1.157a25.539,25.539,0,0,1,3.8-.092l6.792-.047-.11-.239-10.327-.054Z" transform="translate(-309.549 -660.009)" fill="#c77819"/>
          <path id="Trazado_916405" data-name="Trazado 916405" d="M353.934,892.634l.372,1.024,11.531.049-.025.413,0,1.148.049.465-.14,1.065a11.041,11.041,0,0,0-3.675-.2l-8.218-.018-19.038.069-.637-.186.107-.31c.319-1.122-.108-2.213.155-3.308a31.1,31.1,0,0,1,5.275-.083c4.7.007,9.57.234,14.246-.128" transform="translate(-250.401 -668.909)" fill="#e8963d"/>
          <path id="Trazado_916406" data-name="Trazado 916406" d="M412.651,905.4l.346-.654c.966-.607,10.076-.226,11.686-.193l-.14,1.065a11.048,11.048,0,0,0-3.675-.2Z" transform="translate(-309.227 -677.731)" fill="#c77819"/>
          <path id="Trazado_916407" data-name="Trazado 916407" d="M425.637,899.617H417.2c-.868,0-2.507.212-3.212-.231l.011-.668c.691-.439,2.345-.231,3.2-.232l8.437-.017Z" transform="translate(-310.23 -673.259)" fill="#c77819"/>
          <path id="Trazado_916408" data-name="Trazado 916408" d="M460.241,905l24.071.114a13.413,13.413,0,0,0-.073,3.307l-.461,12.573-10.5.06c-1.618.013-3.763-.2-5.29.251l-.045-1.075.051-.288-.018-1.275,0-.278.012-1.377.052-.357-.088-1.216.019-.394-.023-1.19.025-.374-.063-2.727.037-.42.024-2.547a1.9,1.9,0,0,0-.35-1.245l-7.128-.029-.392-.447Z" transform="translate(-344.784 -678.175)" fill="#88c160"/>
          <path id="Trazado_916409" data-name="Trazado 916409" d="M968.076,563.8a38.162,38.162,0,0,1,7.637-.162,44.1,44.1,0,0,1,8.6,2.191c-1.657.737-3.406,1.381-4.985,2.273a24.571,24.571,0,0,0-11.143,12.841,24.061,24.061,0,0,0,.363,18.283l.81,1.664-.376.537a29.8,29.8,0,0,1,17.76,10.137l.063.292c1.306-.74,4.674-.318,6.223-.317l11.925-.095.444-.061a25.418,25.418,0,0,0,3.326-.011l.378.078a17.256,17.256,0,0,1,4.539.1,9.9,9.9,0,0,0,2.619,1.368,19.806,19.806,0,0,1,2.865,1.81,64.92,64.92,0,0,1,5.694,5.3,37.734,37.734,0,0,0,12.892,7.852,30.353,30.353,0,0,0,7.65,1.755c3.516.294,7.156-.113,10.645.349a19.949,19.949,0,0,1,8.341,3.162,10.482,10.482,0,0,1,2.589,1.9c.516.954.338,2.345.346,3.412l.005,6.685a14.974,14.974,0,0,1-.073,3.322,1.978,1.978,0,0,1-.349.615,2.014,2.014,0,0,1,.384.878c.16,1.541.027,3.242.035,4.8l.012,9.556-.012,9.271a44.656,44.656,0,0,1-.035,4.559,1.635,1.635,0,0,1-.391.779H818.546l-.627-12.074a7.973,7.973,0,0,1-.126-1.64l-.774-15.527a12.448,12.448,0,0,1-.149-2.357l-.276-4.782-1.118-19.752c21.14-.236,40.818-9.314,58.17-20.757,6.617-4.364,13.013-9.316,19.923-13.2a54.4,54.4,0,0,1,8.83-4.09,50.779,50.779,0,0,0,5.125-1.6,7.979,7.979,0,0,0,2.078-.28,4.739,4.739,0,0,0,1.185-.166l.6-.05a10.835,10.835,0,0,0,2.1-.148l.238-.028,1.138-.037a18.117,18.117,0,0,1,3.341.156l6.9.94a8.971,8.971,0,0,0,2.669.064l.857-.05.9-.045a3.016,3.016,0,0,0,1.536-.385,3.4,3.4,0,0,0,1.344-.266c1.093-.192,3.185-.826,3.84-1.717l.108-.018c1.281-.259,4.757-2.305,5.446-3.313l.278-.087a3.734,3.734,0,0,0,1.94-1.505c.541-.26.875-.32,1.173-.876a1.166,1.166,0,0,0,.564-.453,2.472,2.472,0,0,0,1.589-1.139,2.267,2.267,0,0,0,1.313-.9l.531-.161c.767-.285,3.048-1.758,3.369-2.476a4.4,4.4,0,0,0-.19-2,8.63,8.63,0,0,1,3.228-.192l.306.222a2.891,2.891,0,0,0,1.777-.854,5.21,5.21,0,0,0,2.4-1.178,5.887,5.887,0,0,0,1.754-.658l.2-.054a5.53,5.53,0,0,0,.759-.389,2.852,2.852,0,0,0,1.5-.475,17.361,17.361,0,0,0,3.782-.823" transform="translate(-611.091 -422.272)" fill="#88c160"/>
          <path id="Trazado_916410" data-name="Trazado 916410" d="M851.575,951.206l.417-.011.033.128a19.253,19.253,0,0,1,.112,4.286l16.284-.038c2.028,0,4.7-.336,6.66.044l.118.961c-.684.452-2.246.255-3.073.26l-8.546.029-27.055.06-7.371-.019a31.463,31.463,0,0,0-3.627.017,3.89,3.89,0,0,0-.511.076,1.208,1.208,0,0,0-.172.369,7.974,7.974,0,0,1-.126-1.64L851.4,955.6a15.309,15.309,0,0,1,.139-4.282Z" transform="translate(-618.016 -712.793)" fill="#64ad5d"/>
          <path id="Trazado_916411" data-name="Trazado 916411" d="M1505.815,826.869a3.6,3.6,0,0,1,.464.618,8.527,8.527,0,0,1-.005,1.7l-.012,5.432-.033,28.51a19.356,19.356,0,0,0,4.163-.229l7.161-.016a25.42,25.42,0,0,0,4.333-.156h.153a11.455,11.455,0,0,0,4.549,0h.133c2.524.519,5.835.157,8.446.145l8.92.1a33.091,33.091,0,0,0,4.807-.068l7.755.022a32.98,32.98,0,0,0,3.973-.063c1.311,0,4.253-.359,5.271.3v.639a3.251,3.251,0,0,1-.559.424,12.945,12.945,0,0,1-2.649-.015l-8.085-.012-32.933.064-9.689,0a51.717,51.717,0,0,1-5.607-.083l-.649-.817a1.821,1.821,0,0,0,.4-.783,30.149,30.149,0,0,0-.005-4.781l0-13.427.045-11.233a46.572,46.572,0,0,0,.01-5.424,2,2,0,0,0-.353-.84" transform="translate(-1128.335 -619.627)" fill="#64ad5d"/>
          <path id="Trazado_916412" data-name="Trazado 916412" d="M949.142,905.21c2.317,0,5.374.382,7.6-.159a2.252,2.252,0,0,1,.3.851c.291,3.561.058,7.37.04,10.96a15.234,15.234,0,0,1-.078,3.584,1.8,1.8,0,0,1-.376.592c-1.962-.379-4.632-.048-6.66-.044l-16.284.038a19.236,19.236,0,0,0-.112-4.286l-.033-.128,6.38-.038a9.554,9.554,0,0,0,6.792-3.177c2.218-2.555,2.653-4.933,2.432-8.192" transform="translate(-699.561 -678.214)" fill="#88c160"/>
          <path id="Trazado_916413" data-name="Trazado 916413" d="M821.631,905.253l.158-.43c.483-.414,1.706-.223,2.362-.219h6.6c.062,3.164.741,6.165,3.1,8.476,4.208,4.125,9.891,3.142,15.277,3.1l.134.073-.04.109a15.31,15.31,0,0,0-.139,4.282l-26.678.131Z" transform="translate(-615.702 -677.844)" fill="#88c160"/>
          <path id="Trazado_916414" data-name="Trazado 916414" d="M1520.958,754.418l.378.078a17.257,17.257,0,0,1,4.539.1,9.912,9.912,0,0,0,2.619,1.368,19.812,19.812,0,0,1,2.865,1.81,64.874,64.874,0,0,1,5.694,5.3,37.734,37.734,0,0,0,12.893,7.852,30.348,30.348,0,0,0,7.65,1.755c3.516.294,7.155-.113,10.645.349a19.95,19.95,0,0,1,8.341,3.162,10.488,10.488,0,0,1,2.589,1.9c.516.954.338,2.345.346,3.412l0,6.685a14.961,14.961,0,0,1-.073,3.323,1.983,1.983,0,0,1-.348.615l-21.244-.092-.451.5c-.476-.327-2.361-.157-3-.16l-10.4,0,.17,11.711c.015,1.211.416,3.514-.288,4.5a33.127,33.127,0,0,1-4.807.068l-8.92-.1c-2.612.012-5.922.374-8.446-.145h-.133a11.453,11.453,0,0,1-4.549,0h-.153a25.413,25.413,0,0,1-4.333.156l-7.161.016.479-.766.06-10.592c.01-1.405.341-3.909-.321-5.129a2.839,2.839,0,0,0,.255-.475c.459-1.1.045-10.893.045-12.761,0-4.176.349-8.549.058-12.7a3.367,3.367,0,0,0-.276-1.02c.769.006,2.133.209,2.742-.205l-.007-1c-1.524-1.261-2.875-2.71-4.271-4.107a7.951,7.951,0,0,0-2.456-2.027l-.048-.382a6.144,6.144,0,0,0-1.952-1.667l-.05-.386-.6-.459c1.306-.74,4.674-.318,6.224-.317l11.925-.094.443-.061a25.407,25.407,0,0,0,3.326-.011" transform="translate(-1123.329 -565.315)" fill="#64ad5d"/>
          <path id="Trazado_916415" data-name="Trazado 916415" d="M1596.021,903.132a3.217,3.217,0,0,1,.366.7c.564,1.153,2.042,14.52,1.712,15.838l-.143.343c-2.611.012-5.922.374-8.446-.145a44.949,44.949,0,0,0,.063-5.573l-.03-10.729,6.4,0Z" transform="translate(-1191.124 -676.776)" fill="#88c160"/>
          <path id="Trazado_916416" data-name="Trazado 916416" d="M1574.755,754.5l.378.078a2.381,2.381,0,0,1,.3.856c.328,3.238.04,6.842.045,10.113l-.023,22.507,0,13.964a46.48,46.48,0,0,1-.073,6.475,11.456,11.456,0,0,1-4.549,0l.156-53.921.444-.062a25.384,25.384,0,0,0,3.326-.011" transform="translate(-1177.126 -565.393)" fill="#7a4122"/>
          <path id="Trazado_916417" data-name="Trazado 916417" d="M1499.04,755.114c1.306-.74,4.674-.318,6.224-.317l11.925-.094-.155,53.921h-.153a25.425,25.425,0,0,1-4.333.156l-7.161.016.479-.766.06-10.592c.01-1.405.341-3.909-.321-5.129a2.835,2.835,0,0,0,.255-.475c.459-1.1.045-10.893.045-12.761,0-4.176.349-8.549.058-12.7a3.365,3.365,0,0,0-.276-1.02c.769.006,2.133.209,2.742-.205l-.007-1c-1.524-1.261-2.875-2.71-4.271-4.107a7.952,7.952,0,0,0-2.456-2.027l-.048-.382a6.144,6.144,0,0,0-1.952-1.667l-.05-.386Z" transform="translate(-1123.329 -565.529)" fill="#64ad5d"/>
          <path id="Trazado_916418" data-name="Trazado 916418" d="M1524.578,904.78l11.316-.016-.04,16.331a25.415,25.415,0,0,1-4.333.156l-7.161.016.479-.765.06-10.592c.01-1.405.341-3.909-.321-5.129" transform="translate(-1142.303 -677.999)" fill="#88c160"/>
          <path id="Trazado_916419" data-name="Trazado 916419" d="M1218.3,713.654a23.363,23.363,0,0,1,3.516.048l13.05-.017c1.755-.008,4.138-.313,5.825.078l.366.075,9.958-.079a23.177,23.177,0,0,1,4.447.075,24.717,24.717,0,0,1,3.812.012l11.567.032a29.8,29.8,0,0,1,17.76,10.137l.063.292.6.459.05.386a6.147,6.147,0,0,1,1.952,1.667l.048.382a7.953,7.953,0,0,1,2.456,2.027c1.4,1.4,2.747,2.846,4.271,4.107l.008,1c-.609.414-1.973.211-2.742.205a3.364,3.364,0,0,1,.276,1.02c.291,4.154-.06,8.528-.058,12.7,0,1.868.414,11.665-.045,12.761a2.839,2.839,0,0,1-.255.475c.661,1.22.331,3.724.321,5.129l-.06,10.592-.479.766a19.361,19.361,0,0,1-4.163.229l.033-28.51.012-5.432a8.536,8.536,0,0,0,.005-1.7,3.6,3.6,0,0,0-.464-.618,2,2,0,0,1,.354.84,46.654,46.654,0,0,1-.01,5.424l-.045,11.233,0,13.427a30.163,30.163,0,0,1,.005,4.781,1.826,1.826,0,0,1-.4.783l-2-.057a27.954,27.954,0,0,1-3.827.044l-7.526.006-25.851-.032c-1.5.151-3.123.037-4.631.042l-8.5-.043-1.644.029c-.474-.492-.311-.937-.308-1.6.007-1.536.464-5.251-.339-6.487.537,2.484.193,5.553.185,8.109l-4.937-.01.444-.557-.038-33.447-.113-10.219a7.158,7.158,0,0,0-.128-2.378,2.982,2.982,0,0,0,.1-2.41l.321-.5a6.462,6.462,0,0,0-1.892-1.549,14.641,14.641,0,0,0-3.058-1.951l3.288-.282Z" transform="translate(-912.952 -534.72)" fill="#93dbeb"/>
        </g>
      </g>
      <g id="Grupo_1198318" data-name="Grupo 1198318" transform="translate(322.759 207.163)">
        <g id="Grupo_1198317" data-name="Grupo 1198317" clip-path="url(#clip-path-3)">
          <rect id="Rect치ngulo_408478" data-name="Rect치ngulo 408478" width="37.167" height="17.496" transform="matrix(0.04, -0.999, 0.999, 0.04, -1.452, 36.5)" fill="url(#linear-gradient)"/>
        </g>
      </g>
      <g id="Grupo_1198320" data-name="Grupo 1198320">
        <g id="Grupo_1198319" data-name="Grupo 1198319" clip-path="url(#clip-path-2)">
          <path id="Trazado_916421" data-name="Trazado 916421" d="M1311.024,835.533l.256.068c-.346,1.137.155,2.126-.646,3.036a5.219,5.219,0,0,0-3.263,2.03l-.13.192a4.3,4.3,0,0,0-.376,2.774,3.7,3.7,0,0,0,1.862,2.328,6.915,6.915,0,0,0,1.892.742c.582.925.531,3.574.318,4.733l-.088.324-13.308.009c.491-1.193.215-3.119.215-4.418l-.02-11.684Z" transform="translate(-972.332 -626.12)" fill="#c23833"/>
          <path id="Trazado_916422" data-name="Trazado 916422" d="M1310.576,826.465l27.993-.062,7.414,0a22.081,22.081,0,0,1,3.83.088,2.007,2.007,0,0,1,.353.84,46.68,46.68,0,0,1-.01,5.424l-.045,11.233,0,13.427a30.149,30.149,0,0,1,.005,4.781,1.824,1.824,0,0,1-.4.783l-2-.057.416-.726.01-12.271a15.751,15.751,0,0,0,0-3.436,4.125,4.125,0,0,0-.564-.707,7.646,7.646,0,0,0-2.173-.086l-4.807-.089a14.486,14.486,0,0,1-2.744.047l-5.3-.01-21.97-.049-.033-.471c-2.617.015-11.229.667-13.015-.227l13.308-.009.088-.324c.213-1.159.263-3.808-.318-4.734a6.9,6.9,0,0,1-1.892-.742,3.7,3.7,0,0,1-1.862-2.328,4.3,4.3,0,0,1,.376-2.774l.13-.192a5.22,5.22,0,0,1,3.263-2.03c.8-.909.3-1.9.646-3.036l-.256-.068a10.853,10.853,0,0,0,.123-1.665Z" transform="translate(-972.332 -619.244)" fill="#df4f43"/>
          <path id="Trazado_916423" data-name="Trazado 916423" d="M1441.869,850.059a5.688,5.688,0,0,1,3.569.607,3.816,3.816,0,0,1,1.674,2.37,3.7,3.7,0,0,1-.481,2.855,4.352,4.352,0,0,1-3.315,1.647,4.4,4.4,0,0,1-2.141-.218,4.088,4.088,0,0,1-2.394-2.266,4.176,4.176,0,0,1,.193-2.888,4.548,4.548,0,0,1,2.895-2.108" transform="translate(-1078.043 -636.965)" fill="#e87354"/>
          <path id="Trazado_916424" data-name="Trazado 916424" d="M1338.274,847.915c1.564.1,2.815.142,3.91,1.375a3.793,3.793,0,0,1-.526,5.664,5.446,5.446,0,0,1-3.4,1.027,6.916,6.916,0,0,1-1.892-.742,3.7,3.7,0,0,1-1.862-2.328,4.3,4.3,0,0,1,.376-2.774l.13-.192a5.218,5.218,0,0,1,3.263-2.03" transform="translate(-999.973 -635.398)" fill="#e87354"/>
          <path id="Trazado_916425" data-name="Trazado 916425" d="M1310.576,826.465l27.993-.062,7.414,0a22.081,22.081,0,0,1,3.83.088,2.007,2.007,0,0,1,.353.84,46.68,46.68,0,0,1-.01,5.424l-.045,11.233,0,13.427a30.149,30.149,0,0,1,.005,4.781,1.824,1.824,0,0,1-.4.783l-2-.057.416-.726.01-12.271a15.751,15.751,0,0,0,0-3.436,4.125,4.125,0,0,0-.564-.707,7.646,7.646,0,0,0-2.173-.086l-4.807-.089a14.486,14.486,0,0,1-2.744.047l-5.3-.01-21.97-.049-.033-.471c-2.617.015-11.229.667-13.015-.227l13.308-.009,22.63,0,6.11.006a19.316,19.316,0,0,1,3.018.049l5.514-.031,0-16.106-36.838-.08-.256-.068a10.853,10.853,0,0,0,.123-1.665Z" transform="translate(-972.332 -619.244)" fill="#662e2b"/>
          <path id="Trazado_916426" data-name="Trazado 916426" d="M1310.116,903.1l21.97.049,5.3.01a14.464,14.464,0,0,0,2.744-.047l4.807.089a7.648,7.648,0,0,1,2.173.086,4.118,4.118,0,0,1,.564.707,15.752,15.752,0,0,1,0,3.436l-.01,12.27-.416.726a27.961,27.961,0,0,1-3.827.044l-7.527.006-25.85-.032c-1.5.151-3.123.038-4.632.042l-8.5-.043a1.538,1.538,0,0,0,.4-.744,37.137,37.137,0,0,0,.018-4.928l-.055-11.607Z" transform="translate(-971.86 -676.752)" fill="#df4f43"/>
          <path id="Trazado_916427" data-name="Trazado 916427" d="M1441.313,921.746a5.873,5.873,0,0,1,4,.422,3.9,3.9,0,0,1,1.92,2.4,3.771,3.771,0,0,1-.424,2.755,3.944,3.944,0,0,1-2.734,1.771,4.744,4.744,0,0,1-2.825-.068,4.486,4.486,0,0,1-2.288-2.044,3.833,3.833,0,0,1-.178-2.607l.075-.182a5.174,5.174,0,0,1,2.454-2.451" transform="translate(-1078.061 -690.606)" fill="#e87354"/>
          <path id="Trazado_916428" data-name="Trazado 916428" d="M1337.97,921.644a4.3,4.3,0,0,1,3.426,1.038,3.582,3.582,0,0,1,1.356,2.626,3.5,3.5,0,0,1-.855,2.561,5.181,5.181,0,0,1-3.8,1.556l-.243,0a7.138,7.138,0,0,1-1.486-.5,4.4,4.4,0,0,1-2.236-2.438,3.814,3.814,0,0,1,.376-2.844,4.4,4.4,0,0,1,3.03-2.059Z" transform="translate(-999.657 -690.608)" fill="#e87354"/>
          <path id="Trazado_916429" data-name="Trazado 916429" d="M1310.116,903.1l21.97.049,5.3.01a14.464,14.464,0,0,0,2.744-.047l4.807.089a7.648,7.648,0,0,1,2.173.086l-36.655.071c0,.739.2,3.79-.253,4.171a1.974,1.974,0,0,1-.454.205,4.394,4.394,0,0,0-3.03,2.059,3.813,3.813,0,0,0-.376,2.844,4.4,4.4,0,0,0,2.236,2.438,7.142,7.142,0,0,0,1.486.5,7.644,7.644,0,0,1,.308,4.294,1.868,1.868,0,0,1-.331.577c-1.5.151-3.123.038-4.632.042l-8.5-.043a1.538,1.538,0,0,0,.4-.744,37.137,37.137,0,0,0,.018-4.928l-.055-11.607Z" transform="translate(-971.86 -676.752)" fill="#c23833"/>
          <path id="Trazado_916430" data-name="Trazado 916430" d="M1218.3,713.654a23.363,23.363,0,0,1,3.516.048l13.05-.017c1.755-.008,4.138-.313,5.825.078l.366.075,9.958-.079a23.177,23.177,0,0,1,4.447.075,24.717,24.717,0,0,1,3.812.012l11.567.032a29.8,29.8,0,0,1,17.76,10.137l.063.292.6.459.05.386a6.147,6.147,0,0,1,1.952,1.667l.048.382a7.953,7.953,0,0,1,2.456,2.027c1.4,1.4,2.747,2.846,4.271,4.107l.008,1c-.609.414-1.973.211-2.742.205-.687-.433-12.394-.181-14.261-.209a23.872,23.872,0,0,1-3.532-.016,41.056,41.056,0,0,1-5.015.04l-9.928-.047a33.753,33.753,0,0,1-4,0,51.42,51.42,0,0,1-5.364.03l-11.038-.038h-3.424l-6.85.034c-.614-.349-.371-1.57-.707-2.328l-.073-.157a2.982,2.982,0,0,0,.1-2.41l.321-.5a6.462,6.462,0,0,0-1.892-1.549,14.641,14.641,0,0,0-3.058-1.951l3.288-.282Z" transform="translate(-912.952 -534.72)" fill="#0c557b"/>
          <path id="Trazado_916431" data-name="Trazado 916431" d="M1263.59,767.768a3.206,3.206,0,0,1,1.957-.294,64.477,64.477,0,0,1,4.647,4.556,29.274,29.274,0,0,1,2.5,2.645l-6.85.034c-.614-.349-.371-1.57-.707-2.328l-.073-.157a2.98,2.98,0,0,0,.1-2.41l.321-.5a6.462,6.462,0,0,0-1.892-1.549" transform="translate(-946.891 -575.098)" fill="#19697f"/>
          <path id="Trazado_916432" data-name="Trazado 916432" d="M1373.518,775.486c-.361-1.3-5.822-5.45-7.168-6.893l11.657.018a15.793,15.793,0,0,1,3.266,0,10.031,10.031,0,0,1,1.571,1.383l5.562,5.139.055.356a41.046,41.046,0,0,1-5.015.04Z" transform="translate(-1023.896 -575.899)" fill="#19697f"/>
          <path id="Trazado_916433" data-name="Trazado 916433" d="M1293.884,775.057l.256-.437-6.84-6.648,15.617-.018,2.8,2.813c.847.778,4.431,3.31,4.564,4.3a51.368,51.368,0,0,1-5.363.03Z" transform="translate(-964.659 -575.479)" fill="#19697f"/>
          <path id="Trazado_916434" data-name="Trazado 916434" d="M1458.6,767.968a7.953,7.953,0,0,1,2.456,2.027c1.4,1.4,2.747,2.846,4.271,4.107l.008,1c-.609.414-1.973.212-2.742.205-.687-.433-12.394-.181-14.261-.209l.02-.158a2.945,2.945,0,0,0-.053-.5c-.105-.294-1.07-1.03-1.366-1.315l-5.4-5.052,12.7.059c1.035,0,3.269.289,4.186-.084Z" transform="translate(-1080.233 -575.489)" fill="#19697f"/>
          <path id="Trazado_916435" data-name="Trazado 916435" d="M1309.1,714.2l9.958-.08a23.17,23.17,0,0,1,4.446.075,103.833,103.833,0,0,1,12.181,11.379h-11.416a17.369,17.369,0,0,1-3.516,0,14.819,14.819,0,0,1-1.94-1.841c-3.271-3.134-6.278-6.579-9.712-9.535" transform="translate(-980.995 -535.079)" fill="#19697f"/>
          <path id="Trazado_916436" data-name="Trazado 916436" d="M1232.33,713.7l13.051-.017c1.755-.008,4.138-.313,5.825.078l-3.506-.015,11.707,11.4-12.284-.109a14.872,14.872,0,0,1-2.985-.021,11.752,11.752,0,0,1-1.79-1.764l-6.587-6.468a19.4,19.4,0,0,0-3.306-3.011Z" transform="translate(-923.466 -534.72)" fill="#19697f"/>
          <path id="Trazado_916437" data-name="Trazado 916437" d="M1381.78,714.686l11.567.032a29.8,29.8,0,0,1,17.76,10.137l.063.292.6.459.05.386-.318.05c-1.246.126-17.051.1-17.181.025a22.652,22.652,0,0,1-2.814-2.637Z" transform="translate(-1035.459 -535.561)" fill="#19697f"/>
          <path id="Trazado_916438" data-name="Trazado 916438" d="M968.076,563.8a38.162,38.162,0,0,1,7.637-.162,44.1,44.1,0,0,1,8.6,2.191c-1.657.737-3.406,1.381-4.985,2.273a24.571,24.571,0,0,0-11.143,12.841,24.061,24.061,0,0,0,.363,18.283l.81,1.664-.376.537-11.567-.032a24.7,24.7,0,0,0-3.812-.012,23.151,23.151,0,0,0-4.446-.075l-9.958.079-.366-.075c-1.687-.39-4.07-.086-5.825-.078l-13.05.017a23.378,23.378,0,0,0-3.516-.048l11.582,11.5-3.288.282a14.637,14.637,0,0,1,3.058,1.951,6.459,6.459,0,0,1,1.892,1.549l-.321.5a2.981,2.981,0,0,1-.1,2.41,7.158,7.158,0,0,1,.128,2.378L929.5,632l.037,33.447L929.1,666a46.668,46.668,0,0,1-5.725.051l-12.471.009-42.628,0-.118-.961a1.8,1.8,0,0,0,.376-.592,15.234,15.234,0,0,0,.078-3.584c.018-3.591.251-7.4-.04-10.96a2.25,2.25,0,0,0-.3-.85c-2.221.54-5.278.158-7.6.158.22,3.258-.214,5.637-2.432,8.191a9.552,9.552,0,0,1-6.792,3.177l-6.38.038-.417.011-.134-.073c-5.386.037-11.069,1.02-15.277-3.1-2.357-2.311-3.036-5.312-3.1-8.476h-6.6c-.656,0-1.879-.2-2.362.219l-.158.43a12.448,12.448,0,0,1-.149-2.357l-.276-4.782-1.118-19.752c21.14-.236,40.818-9.314,58.17-20.757,6.617-4.364,13.013-9.316,19.923-13.2a54.4,54.4,0,0,1,8.83-4.09,50.779,50.779,0,0,0,5.125-1.6,7.979,7.979,0,0,0,2.078-.28,4.739,4.739,0,0,0,1.185-.166l.6-.05a10.835,10.835,0,0,0,2.1-.148l.238-.028,1.138-.037a18.117,18.117,0,0,1,3.341.156l6.9.94a8.971,8.971,0,0,0,2.669.064l.857-.05.9-.045a3.016,3.016,0,0,0,1.536-.385,3.4,3.4,0,0,0,1.344-.266c1.093-.192,3.185-.826,3.84-1.717l.108-.018c1.281-.259,4.757-2.305,5.446-3.313l.278-.087a3.734,3.734,0,0,0,1.94-1.505c.541-.26.875-.32,1.173-.876a1.166,1.166,0,0,0,.564-.453,2.472,2.472,0,0,0,1.589-1.139,2.267,2.267,0,0,0,1.313-.9l.531-.161c.767-.285,3.048-1.758,3.369-2.476a4.4,4.4,0,0,0-.19-2,8.63,8.63,0,0,1,3.228-.192l.306.222a2.891,2.891,0,0,0,1.777-.854,5.21,5.21,0,0,0,2.4-1.178,5.887,5.887,0,0,0,1.754-.658l.2-.054a5.53,5.53,0,0,0,.759-.389,2.852,2.852,0,0,0,1.5-.475,17.361,17.361,0,0,0,3.782-.823" transform="translate(-611.091 -422.272)" fill="#64ad5d"/>
          <path id="Trazado_916439" data-name="Trazado 916439" d="M1361.65,581.5a8.628,8.628,0,0,1,3.228-.192l.306.222c-.328.653-2.21,1.577-2.922,1.848l-.421.122a4.4,4.4,0,0,0-.19-2" transform="translate(-1020.374 -435.572)" fill="#c2e9f2"/>
          <path id="Trazado_916440" data-name="Trazado 916440" d="M876.387,824.679c2.828.276,5.13.7,7.054,2.99a7.162,7.162,0,0,1,1.57,5.019l-.328,1.755c2.31.408,3.963.758,5.4,2.794a6.384,6.384,0,0,1,.811,4.418,16.788,16.788,0,0,1,1.663,3.327c.22,3.258-.214,5.636-2.432,8.191a9.553,9.553,0,0,1-6.792,3.177l-6.38.038-.417.011-.134-.073c-5.386.037-11.069,1.02-15.277-3.1-2.357-2.311-3.036-5.312-3.1-8.476a12.836,12.836,0,0,1,.571-2.529c1.04-2.813,2.679-3.92,5.295-5.1a7.98,7.98,0,0,1-.429-2.83A5.978,5.978,0,0,1,865.5,830c1.588-1.414,3.261-1.391,5.255-1.283l.617-1.048c1.174-1.883,2.956-2.513,5.016-2.989" transform="translate(-642.976 -617.986)" fill="#c3d57d"/>
          <path id="Trazado_916441" data-name="Trazado 916441" d="M931.28,824.679c2.828.276,5.13.7,7.054,2.99a7.162,7.162,0,0,1,1.57,5.019l-.328,1.755c2.31.408,3.963.758,5.4,2.794a6.383,6.383,0,0,1,.811,4.418,16.8,16.8,0,0,1,1.663,3.327c.22,3.258-.214,5.636-2.432,8.191a9.553,9.553,0,0,1-6.792,3.177l-6.38.038-.417.011-.134-.073Z" transform="translate(-697.869 -617.986)" fill="#abba4f"/>
          <path id="Trazado_916442" data-name="Trazado 916442" d="M1052.222,705.3l3.251-1.6c1.536.824,3.439,2.155,5.115,2.548l8.674-.036a43.556,43.556,0,0,1,4.679.05l11.582,11.5-3.288.283a14.641,14.641,0,0,1,3.058,1.951,6.46,6.46,0,0,1,1.892,1.549l-.321.5a2.981,2.981,0,0,1-.1,2.41,7.152,7.152,0,0,1,.128,2.378l.113,10.219.038,33.447-.443.557a46.645,46.645,0,0,1-5.725.051l-12.472.01-42.628,0-.118-.961a1.8,1.8,0,0,0,.376-.592,15.233,15.233,0,0,0,.078-3.583c.017-3.591.251-7.4-.04-10.96a2.253,2.253,0,0,0-.3-.85,8.369,8.369,0,0,0,.323-3.529l.008-6.875-.048-24.743-.125-.305a1.449,1.449,0,0,1,.191-.394,6.686,6.686,0,0,1,1.213-.6l4.093-2.028Z" transform="translate(-768.595 -527.33)" fill="#eef5f7"/>
          <path id="Trazado_916443" data-name="Trazado 916443" d="M1053.024,705.3l3.251-1.6c1.536.824,3.439,2.155,5.115,2.548l21.647,11.8a14.639,14.639,0,0,1,3.058,1.951,6.462,6.462,0,0,1,1.892,1.549l-.321.5a4.78,4.78,0,0,0-.867-.616c-3.03-1.771-6.328-3.252-9.441-4.888l-20.913-11.206a5.851,5.851,0,0,0-.514-.284,5.688,5.688,0,0,0-1.018.5,13.326,13.326,0,0,1-2.582,1.073l-.188.046c-.809,1.023-23.219,11.768-25.289,12.344l-.125-.305a1.452,1.452,0,0,1,.19-.394,6.687,6.687,0,0,1,1.213-.6l4.093-2.028Z" transform="translate(-769.396 -527.33)" fill="#03325a"/>
          <path id="Trazado_916444" data-name="Trazado 916444" d="M1165.02,713.637l8.674-.036a43.556,43.556,0,0,1,4.679.05l11.582,11.5-3.289.282Z" transform="translate(-873.026 -534.718)" fill="#19697f"/>
          <path id="Trazado_916445" data-name="Trazado 916445" d="M1164.67,780.76l18.587.122c.007,2.161.456,14.441-.326,15.578l-17.983.034.018-11.347c0-1.2.266-3.179-.235-4.269Z" transform="translate(-872.764 -585.075)" fill="#51a7d0"/>
          <path id="Trazado_916446" data-name="Trazado 916446" d="M1203.43,784.615a10.9,10.9,0,0,1,3.714.908,4.261,4.261,0,0,1,2.158,2.418c.278.987.386,6.616-.136,7.448a4.084,4.084,0,0,1-1.448,1.648l-.1.207a7.088,7.088,0,0,1-3.885,1.223l.055-9.043c0-1.446.283-3.5-.361-4.808" transform="translate(-901.809 -587.964)" fill="#92cce3"/>
          <path id="Trazado_916447" data-name="Trazado 916447" d="M1177.226,785.105a3.233,3.233,0,0,1,1.907.135l.03,13.5a14.809,14.809,0,0,1-3.825-.712c-.479-.7-1.233-1.13-1.684-1.934-.842-1.508-.89-6.134-.351-7.789l.07-.191a4.761,4.761,0,0,1,.288-.679,5.38,5.38,0,0,1,3.564-2.329" transform="translate(-878.969 -588.274)" fill="#92cce3"/>
          <path id="Trazado_916448" data-name="Trazado 916448" d="M1047.71,780.528l19.151.079c.012,2.582.506,14.063-.318,15.722l-18.454-.016c.03-2.367.471-14.221-.293-15.644Z" transform="translate(-785.118 -584.901)" fill="#51a7d0"/>
          <path id="Trazado_916449" data-name="Trazado 916449" d="M1064.624,785.333a1.618,1.618,0,0,1,.556.334l-.165,13.4a18.357,18.357,0,0,1-3.835-1.474.752.752,0,0,0-.183-.365,8.413,8.413,0,0,1-.887-1.059c-.84-1.32-.661-5.7-.326-7.243a4.455,4.455,0,0,1,.822-2.019c.945-1.17,2.627-1.41,4.018-1.571" transform="translate(-793.956 -588.502)" fill="#92cce3"/>
          <path id="Trazado_916450" data-name="Trazado 916450" d="M1088.23,784.758l2.561.325a4.527,4.527,0,0,1,2.682,1.749c.987,1.532.687,3.891.681,5.644a13.042,13.042,0,0,1-.105,2.805,2.754,2.754,0,0,1-1.531,1.876l-.125.194c-.657.869-2.8.952-3.82,1.081l.025-9.557c0-1.156.268-3.139-.368-4.118" transform="translate(-815.482 -588.071)" fill="#92cce3"/>
        </g>
      </g>
    </g>
  </g>
</svg>
