<svg xmlns="http://www.w3.org/2000/svg" xmlns:xlink="http://www.w3.org/1999/xlink" width="118" height="118" viewBox="0 0 118 118">
  <defs>
    <filter id="Trazado_874925" x="0" y="0" width="118" height="118" filterUnits="userSpaceOnUse">
      <feOffset dy="3" input="SourceAlpha"/>
      <feGaussianBlur stdDeviation="3" result="blur"/>
      <feFlood flood-opacity="0.161"/>
      <feComposite operator="in" in2="blur"/>
      <feComposite in="SourceGraphic"/>
    </filter>
  </defs>
  <g id="Grupo_1200807" data-name="Grupo 1200807" transform="translate(-6939 7785.998)">
    <g id="Grupo_1198910" data-name="Grupo 1198910" transform="translate(6139.5 -10297.155)">
      <g id="Grupo_1111316" data-name="Grupo 1111316" transform="translate(808.5 2517.157)">
        <g id="Grupo_1109835" data-name="Grupo 1109835" transform="translate(0 0)">
          <g id="Grupo_1107913" data-name="Grupo 1107913" transform="translate(0 0)">
            <g transform="matrix(1, 0, 0, 1, -9, -6)" filter="url(#Trazado_874925)">
              <g id="Trazado_874925-2" data-name="Trazado 874925" transform="translate(9 6)" fill="#9ad354" opacity="0.859">
                <path d="M 49.99972534179688 98.4998779296875 C 43.45164108276367 98.4998779296875 37.10022354125977 97.21776580810547 31.12189674377441 94.68914794921875 C 25.34676742553711 92.24647521972656 20.15985298156738 88.74925994873047 15.70523929595947 84.29464721679688 C 11.25062561035156 79.84004974365234 7.753411293029785 74.65313720703125 5.310725212097168 68.87800598144531 C 2.782111167907715 62.89969253540039 1.499996781349182 56.54829406738281 1.499996781349182 50.00022125244141 C 1.499996781349182 43.45157623291016 2.782111167907715 37.10017776489258 5.310725212097168 31.12186431884766 C 7.753411293029785 25.34673500061035 11.25062561035156 20.15983581542969 15.70523929595947 15.70522117614746 C 20.15985298156738 11.25062084197998 25.34676742553711 7.753406524658203 31.12189674377441 5.31073522567749 C 37.10022354125977 2.782120943069458 43.45164108276367 1.500006556510925 49.99972534179688 1.500006556510925 C 56.54780960083008 1.500006556510925 62.89922714233398 2.782120943069458 68.87755584716797 5.31073522567749 C 74.65267944335938 7.753406524658203 79.839599609375 11.25062084197998 84.29421234130859 15.70522117614746 C 88.74882507324219 20.15983581542969 92.24604034423828 25.34673500061035 94.68872833251953 31.12186431884766 C 97.21733856201172 37.10017776489258 98.49945068359375 43.45157623291016 98.49945068359375 49.99964904785156 C 98.49945068359375 56.54829406738281 97.21733856201172 62.89969253540039 94.68872833251953 68.87800598144531 C 92.24604034423828 74.65313720703125 88.74882507324219 79.84004974365234 84.29421234130859 84.29464721679688 C 79.839599609375 88.74925994873047 74.65267944335938 92.24647521972656 68.87755584716797 94.68914794921875 C 62.89922714233398 97.21776580810547 56.54780960083008 98.4998779296875 49.99972534179688 98.4998779296875 Z" stroke="none"/>
                <path d="M 49.99972534179688 3 C 43.65348052978516 3 37.49866485595703 4.242240905761719 31.70623016357422 6.692230224609375 C 26.10989379882812 9.059272766113281 21.08323669433594 12.44853210449219 16.76589202880859 16.76587677001953 C 12.44855499267578 21.08321380615234 9.059295654296875 26.10985565185547 6.692230224609375 31.70618438720703 C 4.24224853515625 37.49859619140625 3 43.65341186523438 3 50.00022888183594 C 3 56.34645843505859 4.24224853515625 62.50127410888672 6.692230224609375 68.29368591308594 C 9.059295654296875 73.8900146484375 12.44855499267578 78.91665649414062 16.76589202880859 83.23399353027344 C 21.08323669433594 87.55132293701172 26.10989379882812 90.94059753417969 31.70623016357422 93.30764007568359 C 37.49866485595703 95.75762939453125 43.65348052978516 96.99987030029297 49.99972534179688 96.99987030029297 C 56.34597015380859 96.99987030029297 62.50078582763672 95.75762939453125 68.293212890625 93.30764007568359 C 73.88955688476562 90.94059753417969 78.91621398925781 87.55132293701172 83.23355865478516 83.23399353027344 C 87.55089569091797 78.91665649414062 90.94015502929688 73.8900146484375 93.30722045898438 68.29368591308594 C 95.7572021484375 62.50127410888672 96.99945068359375 56.34645843505859 96.99945068359375 49.99964141845703 C 96.99945068359375 43.65341186523438 95.7572021484375 37.49859619140625 93.30722045898438 31.70618438720703 C 90.94015502929688 26.10985565185547 87.55089569091797 21.08321380615234 83.23355865478516 16.76587677001953 C 78.91621398925781 12.44853210449219 73.88955688476562 9.059272766113281 68.293212890625 6.692230224609375 C 62.50078582763672 4.242240905761719 56.34597015380859 3 49.99972534179688 3 M 49.99972534179688 0 C 77.61381530761719 0 99.99945068359375 22.38559722900391 99.99945068359375 49.99964141845703 L 99.99945068359375 50.00022888183594 C 99.99945068359375 77.6142578125 77.61381530761719 99.99987030029297 49.99972534179688 99.99987030029297 C 22.38563537597656 99.99987030029297 0 77.6142578125 0 50.00022888183594 L 0 49.99964141845703 C 0 22.38559722900391 22.38563537597656 0 49.99972534179688 0 Z" stroke="none" fill="#fff"/>
              </g>
            </g>
            <g id="Trazado_874923" data-name="Trazado 874923" transform="translate(0 0)" fill="none">
              <path d="M50,0a50,50,0,0,1,50,50h0A50,50,0,0,1,0,50H0A50,50,0,0,1,50,0Z" stroke="none"/>
              <path d="M 49.99972534179688 3 C 43.65348052978516 3 37.49866485595703 4.242240905761719 31.70623016357422 6.692230224609375 C 26.10989379882812 9.059272766113281 21.08323669433594 12.44853210449219 16.76589202880859 16.76587677001953 C 12.44855499267578 21.08321380615234 9.059295654296875 26.10985565185547 6.692230224609375 31.70618438720703 C 4.24224853515625 37.49859619140625 3 43.65341186523438 3 50.00022888183594 C 3 56.34645843505859 4.24224853515625 62.50127410888672 6.692230224609375 68.29368591308594 C 9.059295654296875 73.8900146484375 12.44855499267578 78.91665649414062 16.76589202880859 83.23399353027344 C 21.08323669433594 87.55132293701172 26.10989379882812 90.94059753417969 31.70623016357422 93.30764007568359 C 37.49866485595703 95.75762939453125 43.65348052978516 96.99987030029297 49.99972534179688 96.99987030029297 C 56.34597015380859 96.99987030029297 62.50078582763672 95.75762939453125 68.293212890625 93.30764007568359 C 73.88955688476562 90.94059753417969 78.91621398925781 87.55132293701172 83.23355865478516 83.23399353027344 C 87.55089569091797 78.91665649414062 90.94015502929688 73.8900146484375 93.30722045898438 68.29368591308594 C 95.7572021484375 62.50127410888672 96.99945068359375 56.34645843505859 96.99945068359375 49.99964141845703 C 96.99945068359375 43.65341186523438 95.7572021484375 37.49859619140625 93.30722045898438 31.70618438720703 C 90.94015502929688 26.10985565185547 87.55089569091797 21.08321380615234 83.23355865478516 16.76587677001953 C 78.91621398925781 12.44853210449219 73.88955688476562 9.059272766113281 68.293212890625 6.692230224609375 C 62.50078582763672 4.242240905761719 56.34597015380859 3 49.99972534179688 3 M 49.99972534179688 0 C 77.61381530761719 0 99.99945068359375 22.38559722900391 99.99945068359375 49.99964141845703 L 99.99945068359375 50.00022888183594 C 99.99945068359375 77.6142578125 77.61381530761719 99.99987030029297 49.99972534179688 99.99987030029297 C 22.38563537597656 99.99987030029297 0 77.6142578125 0 50.00022888183594 L 0 49.99964141845703 C 0 22.38559722900391 22.38563537597656 0 49.99972534179688 0 Z" stroke="none" fill="#fff"/>
            </g>
          </g>
        </g>
      </g>
    </g>
    <g id="delivery_2395304" transform="translate(6965.471 -7766)">
      <g id="Grupo_1200771" data-name="Grupo 1200771" transform="translate(2.033 39.228)">
        <path id="Trazado_1037342" data-name="Trazado 1037342" d="M15.432,38,6.376,40.787A6.2,6.2,0,0,0,2,46.711V62.8H43.328V46.711a6.2,6.2,0,0,0-4.376-5.925L29.9,38" transform="translate(-2 -38)" fill="#2d4d83"/>
      </g>
      <g id="Grupo_1200772" data-name="Grupo 1200772" transform="translate(18.84 41.295)">
        <path id="Trazado_1037343" data-name="Trazado 1037343" d="M23.157,40l2.824,5.648L22.124,52.4l-3.857-6.75L21.091,40" transform="translate(-18.267 -40)" fill="#4d5d7a"/>
      </g>
      <g id="Grupo_1200773" data-name="Grupo 1200773" transform="translate(12.328 39.228)">
        <path id="Trazado_1037344" data-name="Trazado 1037344" d="M11.964,38.965l5.2,9.367L22.333,38H15.1Z" transform="translate(-11.964 -38)" fill="#4472b2"/>
      </g>
      <g id="Grupo_1200774" data-name="Grupo 1200774" transform="translate(22.697 39.228)">
        <path id="Trazado_1037345" data-name="Trazado 1037345" d="M22,38l5.166,10.332,5.2-9.367L29.232,38Z" transform="translate(-22 -38)" fill="#4472b2"/>
      </g>
      <g id="Grupo_1200775" data-name="Grupo 1200775" transform="translate(17.668 45.948)">
        <path id="Trazado_1037346" data-name="Trazado 1037346" d="M22.162,53.282a1.032,1.032,0,0,1-.9-.521l-4.133-7.232L18.926,44.5l3.236,5.662L25.4,44.5l1.794,1.025-4.133,7.232A1.032,1.032,0,0,1,22.162,53.282Z" transform="translate(-17.132 -44.504)"/>
      </g>
      <g id="Grupo_1200776" data-name="Grupo 1200776" transform="translate(34.062 21.664)">
        <path id="Trazado_1037347" data-name="Trazado 1037347" d="M33,29.266h2.066a4.133,4.133,0,1,0,0-8.266H33" transform="translate(-33 -21)" fill="#db9b7c"/>
      </g>
      <g id="Grupo_1200777" data-name="Grupo 1200777" transform="translate(5.133 21.664)">
        <path id="Trazado_1037348" data-name="Trazado 1037348" d="M11.2,29.266H9.133a4.133,4.133,0,0,1,0-8.266H11.2" transform="translate(-5 -21)" fill="#db9b7c"/>
      </g>
      <g id="Grupo_1200778" data-name="Grupo 1200778" transform="translate(9.266 2.033)">
        <path id="Trazado_1037349" data-name="Trazado 1037349" d="M35.863,15.432v12.4A13.432,13.432,0,1,1,9,27.83v-12.4a13.432,13.432,0,0,1,26.863,0Z" transform="translate(-9 -2)" fill="#efbe9a"/>
      </g>
      <g id="Grupo_1200779" data-name="Grupo 1200779" transform="translate(9.266 2.033)">
        <path id="Trazado_1037350" data-name="Trazado 1037350" d="M9,16.465l4.133,2.066,3.259-1.086a19.094,19.094,0,0,1,12.08,0l3.259,1.086,4.133-2.066V15.432A13.432,13.432,0,0,0,9,15.432Z" transform="translate(-9 -2)" fill="#4472b2"/>
      </g>
      <g id="Grupo_1200780" data-name="Grupo 1200780" transform="translate(9.318 2.033)">
        <path id="Trazado_1037351" data-name="Trazado 1037351" d="M32.608,13.585l3.2.8a13.419,13.419,0,0,0-26.758,0l3.2-.8a41.972,41.972,0,0,1,20.356,0Z" transform="translate(-9.051 -2)" fill="#c66b60"/>
      </g>
      <g id="Grupo_1200781" data-name="Grupo 1200781" transform="translate(39.228 33.029)">
        <path id="Trazado_1037352" data-name="Trazado 1037352" d="M38,63H62.8V39.232H55.564V32H38Z" transform="translate(-38 -32)" fill="#ebf7fe"/>
      </g>
      <g id="Grupo_1200782" data-name="Grupo 1200782" transform="translate(56.793 33.029)">
        <path id="Trazado_1037353" data-name="Trazado 1037353" d="M55,32v7.232h7.232" transform="translate(-55 -32)" fill="#c7e2fc"/>
      </g>
      <g id="Grupo_1200783" data-name="Grupo 1200783" transform="translate(35.095 50.593)">
        <path id="Trazado_1037354" data-name="Trazado 1037354" d="M34,49h2.066V62.432H34Z" transform="translate(-34 -49)"/>
      </g>
      <g id="Grupo_1200784" data-name="Grupo 1200784" transform="translate(8.232 50.593)">
        <path id="Trazado_1037355" data-name="Trazado 1037355" d="M8,49h2.066V62.432H8Z" transform="translate(-8 -49)"/>
      </g>
      <g id="Grupo_1200785" data-name="Grupo 1200785" transform="translate(1 38.242)">
        <path id="Trazado_1037356" data-name="Trazado 1037356" d="M39.228,63.862H2.033A1.033,1.033,0,0,1,1,62.828V46.744A7.2,7.2,0,0,1,6.105,39.83l9.056-2.785.608,1.975L6.713,41.806a5.139,5.139,0,0,0-3.646,4.938V61.8H39.228Z" transform="translate(-1 -37.045)"/>
      </g>
      <g id="Grupo_1200786" data-name="Grupo 1200786" transform="translate(29.626 38.242)">
        <path id="Trazado_1037357" data-name="Trazado 1037357" d="M37.965,41.873l-.2-.068L28.706,39.02l.608-1.975,9.056,2.785c.1.03.19.062.282.094Z" transform="translate(-28.706 -37.045)"/>
      </g>
      <g id="Grupo_1200787" data-name="Grupo 1200787" transform="translate(11.462 39.759)">
        <path id="Trazado_1037358" data-name="Trazado 1037358" d="M17.195,49.348a1.03,1.03,0,0,1-.9-.532l-5.166-9.3,1.806-1L17.147,46.1,20.4,39.586l1.848.925L18.12,48.777a1.034,1.034,0,0,1-.9.571Z" transform="translate(-11.126 -38.514)"/>
      </g>
      <g id="Grupo_1200788" data-name="Grupo 1200788" transform="translate(22.807 39.759)">
        <path id="Trazado_1037359" data-name="Trazado 1037359" d="M27.162,49.348h-.022a1.034,1.034,0,0,1-.9-.571l-4.133-8.266,1.848-.925L27.211,46.1l4.215-7.587,1.806,1-5.166,9.3A1.033,1.033,0,0,1,27.162,49.348Z" transform="translate(-22.106 -38.514)"/>
      </g>
      <g id="Grupo_1200789" data-name="Grupo 1200789" transform="translate(21.664 53.693)">
        <path id="Trazado_1037360" data-name="Trazado 1037360" d="M21,52h2.066V62.332H21Z" transform="translate(-21 -52)"/>
      </g>
      <g id="Grupo_1200790" data-name="Grupo 1200790" transform="translate(8.232 1)">
        <path id="Trazado_1037361" data-name="Trazado 1037361" d="M22.465,42.328A14.481,14.481,0,0,1,8,27.863v-12.4a14.465,14.465,0,0,1,28.929,0v12.4A14.481,14.481,0,0,1,22.465,42.328Zm0-39.261a12.412,12.412,0,0,0-12.4,12.4v12.4a12.4,12.4,0,1,0,24.8,0v-12.4A12.412,12.412,0,0,0,22.465,3.066Z" transform="translate(-8 -1)"/>
      </g>
      <g id="Grupo_1200791" data-name="Grupo 1200791" transform="translate(4.1 20.631)">
        <path id="Trazado_1037362" data-name="Trazado 1037362" d="M9.166,30.332A5.166,5.166,0,1,1,9.166,20v2.066a3.1,3.1,0,1,0,0,6.2Z" transform="translate(-4 -20)"/>
      </g>
      <g id="Grupo_1200792" data-name="Grupo 1200792" transform="translate(36.129 20.631)">
        <path id="Trazado_1037363" data-name="Trazado 1037363" d="M35,30.332V28.266a3.1,3.1,0,1,0,0-6.2V20a5.166,5.166,0,1,1,0,10.332Z" transform="translate(-35 -20)"/>
      </g>
      <g id="Grupo_1200793" data-name="Grupo 1200793" transform="translate(9.014 11.338)">
        <path id="Trazado_1037364" data-name="Trazado 1037364" d="M35.62,15.1l-3.254-.813a41.159,41.159,0,0,0-19.854,0L9.259,15.1l-.5-2,3.254-.813a43.169,43.169,0,0,1,20.857,0l3.254.813Z" transform="translate(-8.757 -11.006)"/>
      </g>
      <g id="Grupo_1200794" data-name="Grupo 1200794" transform="translate(8.804 15.469)">
        <path id="Trazado_1037365" data-name="Trazado 1037365" d="M31.745,19.133a1.015,1.015,0,0,1-.326-.054L28.16,17.992a18.162,18.162,0,0,0-11.427,0l-3.258,1.086a1.023,1.023,0,0,1-.789-.056L8.553,16.957l.925-1.848,3.749,1.874,2.852-.95a20.226,20.226,0,0,1,12.734,0l2.853.952,3.749-1.874.925,1.848-4.133,2.066a1.032,1.032,0,0,1-.462.108Z" transform="translate(-8.553 -15.004)"/>
      </g>
      <g id="Grupo_1200795" data-name="Grupo 1200795" transform="translate(21.664 24.763)">
        <path id="Trazado_1037366" data-name="Trazado 1037366" d="M21,24h2.066v4.133H21Z" transform="translate(-21 -24)"/>
      </g>
      <g id="Grupo_1200796" data-name="Grupo 1200796" transform="translate(15.465 22.697)">
        <path id="Trazado_1037367" data-name="Trazado 1037367" d="M16.55,25.1a1.55,1.55,0,1,1,1.55-1.55A1.552,1.552,0,0,1,16.55,25.1Z" transform="translate(-15 -22)"/>
      </g>
      <g id="Grupo_1200797" data-name="Grupo 1200797" transform="translate(26.83 22.697)">
        <path id="Trazado_1037368" data-name="Trazado 1037368" d="M27.55,25.1a1.55,1.55,0,1,1,1.55-1.55A1.552,1.552,0,0,1,27.55,25.1Z" transform="translate(-26 -22)"/>
      </g>
      <g id="Grupo_1200798" data-name="Grupo 1200798" transform="translate(15.465 30.963)">
        <path id="Trazado_1037369" data-name="Trazado 1037369" d="M22.232,37.232A7.241,7.241,0,0,1,15,30h2.066A5.166,5.166,0,1,0,27.4,30h2.066A7.241,7.241,0,0,1,22.232,37.232Z" transform="translate(-15 -30)"/>
      </g>
      <g id="Grupo_1200799" data-name="Grupo 1200799" transform="translate(38.195 31.996)">
        <path id="Trazado_1037370" data-name="Trazado 1037370" d="M62.83,64.062h-24.8A1.033,1.033,0,0,1,37,63.029v-31A1.033,1.033,0,0,1,38.033,31H55.6a1.033,1.033,0,0,1,1.033,1.033v6.2h6.2a1.033,1.033,0,0,1,1.033,1.033V63.029A1.033,1.033,0,0,1,62.83,64.062ZM39.066,62H61.8V40.3H55.6a1.033,1.033,0,0,1-1.033-1.033v-6.2h-15.5Z" transform="translate(-37 -31)"/>
      </g>
      <g id="Grupo_1200800" data-name="Grupo 1200800" transform="translate(56.051 32.302)">
        <path id="Trazado_1037371" data-name="Trazado 1037371" d="M0,0H2.066V10.228H0Z" transform="translate(0 1.461) rotate(-45)"/>
      </g>
      <g id="Grupo_1200801" data-name="Grupo 1200801" transform="translate(42.328 58.859)">
        <path id="Trazado_1037372" data-name="Trazado 1037372" d="M41,57H51.332v2.066H41Z" transform="translate(-41 -57)"/>
      </g>
      <g id="Grupo_1200802" data-name="Grupo 1200802" transform="translate(42.328 54.726)">
        <path id="Trazado_1037373" data-name="Trazado 1037373" d="M41,53H51.332v2.066H41Z" transform="translate(-41 -53)"/>
      </g>
      <g id="Grupo_1200803" data-name="Grupo 1200803" transform="translate(42.328 50.593)">
        <path id="Trazado_1037374" data-name="Trazado 1037374" d="M41,49H51.332v2.066H41Z" transform="translate(-41 -49)"/>
      </g>
      <g id="Grupo_1200804" data-name="Grupo 1200804" transform="translate(42.328 46.461)">
        <path id="Trazado_1037375" data-name="Trazado 1037375" d="M41,45H51.332v2.066H41Z" transform="translate(-41 -45)"/>
      </g>
      <g id="Grupo_1200805" data-name="Grupo 1200805" transform="translate(54.9 42.955)">
        <path id="Trazado_1037376" data-name="Trazado 1037376" d="M56.094,50.279a1.033,1.033,0,0,1-.86-.46l-2.066-3.1,1.719-1.146L55.9,47.086l2.348-5.479,1.9.813-3.1,7.232a1.036,1.036,0,0,1-.855.623c-.031,0-.063,0-.094,0Z" transform="translate(-53.168 -41.607)"/>
      </g>
      <g id="Grupo_1200806" data-name="Grupo 1200806" transform="translate(54.9 52.254)">
        <path id="Trazado_1037377" data-name="Trazado 1037377" d="M56.094,59.279a1.033,1.033,0,0,1-.86-.46l-2.066-3.1,1.719-1.146L55.9,56.086l2.348-5.479,1.9.813-3.1,7.232a1.036,1.036,0,0,1-.855.623c-.031,0-.063,0-.094,0Z" transform="translate(-53.168 -50.607)"/>
      </g>
    </g>
  </g>
</svg>
