<svg xmlns="http://www.w3.org/2000/svg" xmlns:xlink="http://www.w3.org/1999/xlink" width="118" height="118" viewBox="0 0 118 118">
  <defs>
    <filter id="Trazado_896985" x="0" y="0" width="118" height="118" filterUnits="userSpaceOnUse">
      <feOffset dy="3" input="SourceAlpha"/>
      <feGaussianBlur stdDeviation="3" result="blur"/>
      <feFlood flood-opacity="0.161"/>
      <feComposite operator="in" in2="blur"/>
      <feComposite in="SourceGraphic"/>
    </filter>
  </defs>
  <g id="Grupo_1200070" data-name="Grupo 1200070" transform="translate(-1037.84 -4278.889)">
    <g id="Grupo_1198726" data-name="Grupo 1198726" transform="translate(0.95 -182.434)">
      <g id="Grupo_1198141" data-name="Grupo 1198141" transform="translate(711 615.322)">
        <g id="Grupo_1111318" data-name="Grupo 1111318" transform="translate(334.891 3852)">
          <g id="Grupo_1109826" data-name="Grupo 1109826" transform="translate(0)">
            <g id="Grupo_1098742" data-name="Grupo 1098742" transform="translate(0 0)">
              <g transform="matrix(1, 0, 0, 1, -9, -6)" filter="url(#Trazado_896985)">
                <g id="Trazado_896985-2" data-name="Trazado 896985" transform="translate(9 6)" fill="#fc0" opacity="0.859">
                  <path d="M 49.99993515014648 99.5 C 43.31726837158203 99.5 36.83476257324219 98.19129943847656 30.73248100280762 95.61025238037109 C 24.83812141418457 93.11714172363281 19.54434776306152 89.54795837402344 14.99820137023926 85.00179290771484 C 10.45204162597656 80.45565032958984 6.88285493850708 75.16187286376953 4.389748573303223 69.26751708984375 C 1.808695197105408 63.16523742675781 0.5000017881393433 56.6827278137207 0.5000017881393433 50.00006103515625 C 0.5000017881393433 43.31726455688477 1.808695197105408 36.83475494384766 4.389748573303223 30.73247528076172 C 6.88285493850708 24.83811569213867 10.45204162597656 19.54434204101562 14.99820137023926 14.99819660186768 C 19.54434776306152 10.45203590393066 24.83812141418457 6.88284969329834 30.73248100280762 4.389742851257324 C 36.83476257324219 1.808689475059509 43.31726837158203 0.4999961853027344 49.99993515014648 0.4999961853027344 C 56.68260192871094 0.4999961853027344 63.16510772705078 1.808689475059509 69.26738739013672 4.389742851257324 C 75.16175079345703 6.88284969329834 80.45552062988281 10.45203590393066 85.00167083740234 14.99819660186768 C 89.54782867431641 19.54434204101562 93.11701202392578 24.83811569213867 95.61012268066406 30.73247528076172 C 98.19117736816406 36.83475494384766 99.49987030029297 43.31726455688477 99.49987030029297 49.99993133544922 C 99.49987030029297 56.6827278137207 98.19117736816406 63.16523742675781 95.61012268066406 69.26751708984375 C 93.11701202392578 75.16187286376953 89.54782867431641 80.45565032958984 85.00167083740234 85.00179290771484 C 80.45552062988281 89.54795837402344 75.16175079345703 93.11714172363281 69.26738739013672 95.61025238037109 C 63.16510772705078 98.19129943847656 56.68260192871094 99.5 49.99993515014648 99.5 Z" stroke="none"/>
                  <path d="M 49.99993515014648 0.9999923706054688 C 43.38454818725586 0.9999923706054688 36.96757507324219 2.29541015625 30.92725372314453 4.850250244140625 C 25.09249877929688 7.318145751953125 19.85213470458984 10.85135650634766 15.35174560546875 15.35174560546875 C 10.85136413574219 19.85212707519531 7.318145751953125 25.09249114990234 4.850257873535156 30.92724609375 C 2.295417785644531 36.96757125854492 1 43.38454437255859 1 50.00006103515625 C 1 56.61544799804688 2.295417785644531 63.03242111206055 4.850257873535156 69.07273864746094 C 7.318145751953125 74.90750122070312 10.85136413574219 80.14786529541016 15.35174560546875 84.64824676513672 C 19.85213470458984 89.14863586425781 25.09249877929688 92.68184661865234 30.92725372314453 95.14974212646484 C 36.96757507324219 97.70458221435547 43.38454818725586 99 49.99993515014648 99 C 56.61532211303711 99 63.03229522705078 97.70458221435547 69.07261657714844 95.14974212646484 C 74.90737915039062 92.68184661865234 80.14773559570312 89.14863586425781 84.64812469482422 84.64824676513672 C 89.14850616455078 80.14786529541016 92.68172454833984 74.90750122070312 95.14961242675781 69.07273864746094 C 97.70445251464844 63.03242111206055 98.99987030029297 56.61544799804688 98.99987030029297 49.99993133544922 C 98.99987030029297 43.38454437255859 97.70445251464844 36.96757125854492 95.14961242675781 30.92724609375 C 92.68172454833984 25.09249114990234 89.14850616455078 19.85212707519531 84.64812469482422 15.35174560546875 C 80.14773559570312 10.85135650634766 74.90737915039062 7.318145751953125 69.07261657714844 4.850250244140625 C 63.03229522705078 2.29541015625 56.61532211303711 0.9999923706054688 49.99993515014648 0.9999923706054688 M 49.99993515014648 -7.62939453125e-06 C 77.6141357421875 -7.62939453125e-06 99.99987030029297 22.38572692871094 99.99987030029297 49.99993133544922 L 99.99987030029297 50.00006103515625 C 99.99987030029297 77.61426544189453 77.6141357421875 100 49.99993515014648 100 C 22.38573455810547 100 0 77.61426544189453 0 50.00006103515625 L 0 49.99993133544922 C 0 22.38572692871094 22.38573455810547 -7.62939453125e-06 49.99993515014648 -7.62939453125e-06 Z" stroke="none" fill="#fff"/>
                </g>
              </g>
              <g id="Rectángulo_400907" data-name="Rectángulo 400907" transform="translate(0)" fill="none" stroke="#fff" stroke-width="1">
                <rect width="100" height="100" rx="50" stroke="none"/>
                <rect x="0.5" y="0.5" width="99" height="99" rx="49.5" fill="none"/>
              </g>
            </g>
          </g>
        </g>
      </g>
    </g>
    <g id="gps_1068136" transform="translate(1061.468 4299.017)">
      <path id="Trazado_1032392" data-name="Trazado 1032392" d="M89.448,42.9a35.168,35.168,0,0,1,.443,5.537,34.231,34.231,0,0,1-12.6,26.578H72.172L69.958,72.8h-4.43l-2.215-5.537-5.537,2.215-2.215-.443L55.506,69l1.927-2.913a4.429,4.429,0,1,0-5.958,0L53.1,68.547l-.864-.177-4.43-2.215-2.215-3.323V60.618H38.95L36.735,49.544l-4.43-2.215V41.793l-8.849-5.537A34.381,34.381,0,0,1,46.691,15.27l-1.1,4.375L46.7,21.859l3.322,2.215V27.4L46.7,31.826l1.108,2.215,4.43,3.322-1.108,2.215,2.215,2.215H61.1l5.537-2.215,2.215-3.322,3.322,1.107-1.107,2.215L76.6,40.685l3.322-1.107,3.322,1.107L84.354,42.9Zm0,0" transform="translate(-20.216 -12.729)" fill="#69f0f7"/>
      <path id="Trazado_1032393" data-name="Trazado 1032393" d="M227.526,35.648h-5.094l-1.108-2.215L218,32.326l-3.323,1.108-5.537-1.108,1.107-2.215L206.927,29l-2.215,3.322-5.537,2.215h-7.752l-2.215-2.215,1.107-2.215-4.43-3.322-1.108-2.215,3.323-4.43V16.822l-3.323-2.215-1.107-2.215,1.1-4.375a34.349,34.349,0,0,1,42.757,27.63Zm-23.92-18.826a4.43,4.43,0,1,0-7.409,3.256l2.979,4.5,2.979-4.5A4.39,4.39,0,0,0,203.605,16.822Zm0,0" transform="translate(-158.293 -5.477)" fill="#31e8bb"/>
      <path id="Trazado_1032394" data-name="Trazado 1032394" d="M58.289,205.908h5.117A34.339,34.339,0,0,1,9.574,167.148l8.849,5.537v5.537l4.43,2.215,2.215,11.074h6.645v2.215l2.215,3.323,4.43,2.215.864.177,1.351,2.038,1.052-1.584.055.033,2.215.443,5.537-2.215,2.215,5.537h4.43Zm0,0" transform="translate(-6.333 -143.622)" fill="#31e8bb"/>
      <path id="Trazado_1032395" data-name="Trazado 1032395" d="M268.246,46.93a4.414,4.414,0,0,1,2.979,7.685l-2.979,4.5-2.979-4.5a4.414,4.414,0,0,1,2.979-7.685Zm0,0" transform="translate(-227.364 -40.014)" fill="#fd6149"/>
      <path id="Trazado_1032396" data-name="Trazado 1032396" d="M218.809,337.585l-1.628-2.459a4.429,4.429,0,1,1,5.958,0l-1.927,2.912-1.052,1.584Zm0,0" transform="translate(-185.922 -281.766)" fill="#fd6149"/>
      <path id="Trazado_1032397" data-name="Trazado 1032397" d="M48.245,22.887,46.7,21.859,45.6,19.644l1.1-4.375A34.38,34.38,0,0,0,23.458,36.255L30.2,40.473A26.629,26.629,0,0,1,48.245,22.887Zm0,0" transform="translate(-20.217 -12.729)" fill="#69d4f7"/>
      <path id="Trazado_1032398" data-name="Trazado 1032398" d="M56.073,203.693H52.3a26.589,26.589,0,0,1-35.987-32.326l-6.741-4.219A34.334,34.334,0,0,0,63.4,205.908H58.288Zm0,0" transform="translate(-6.332 -143.621)" fill="#31d4bb"/>
      <path id="Trazado_1032399" data-name="Trazado 1032399" d="M184.154,30.169a34.975,34.975,0,0,0-5.333-13.695l-1.743,1.145a32.9,32.9,0,0,1,4.8,11.674h-3.2l-1.012-2.025L173.6,25.914l-3.39,1.13-3.927-.785,1.034-2.069L162.1,22.45l-2.477,3.716-5.05,2.02h-7.119l-1.378-1.378,1.161-2.32-4.929-3.7-.709-1.418,3.144-4.192V10.952l-3.556-2.371-.811-1.621.852-3.4a33.311,33.311,0,0,1,34.314,11.911l1.647-1.28a35.7,35.7,0,0,0-12.139-9.968,35.4,35.4,0,0,0-32.929.689l1.01,1.825a33.078,33.078,0,0,1,5.779-2.51L138.165,7.2l1.4,2.808,3.088,2.059v2.416l-3.5,4.667,1.506,3.011,3.93,2.948-1.054,2.109,3.052,3.052h8.385L161,27.861l1.953-2.929,1.426.476-1.18,2.36,7.147,1.43,3.255-1.085,2.583.861,1.2,2.405h4.836a34.15,34.15,0,0,1,.3,4.494,33.153,33.153,0,0,1-11.94,25.535h-4.3l-2.215-2.215H159.91l-2.34-5.85-5.4,2.159.774,1.937,3.462-1.384,2.089,5.224h4.7l2.215,2.215h2.4a33.372,33.372,0,0,1-23.948,5.236l-.334,2.059a35.783,35.783,0,0,0,5.7.457,35.386,35.386,0,0,0,22.094-7.752h.055V63.45c.079-.064.16-.127.239-.192a35.236,35.236,0,0,0,12.985-27.385,36.351,36.351,0,0,0-.456-5.7Zm0,0" transform="translate(-113.865 0)"/>
      <path id="Trazado_1032400" data-name="Trazado 1032400" d="M26.753,90.285l1.735-1.157-2.04-3.059V83.127H19.616L17.469,72.391,13.16,70.236v-5.47l-8.6-5.382A33.612,33.612,0,0,1,17.119,44.15l-1.145-1.743a35.686,35.686,0,0,0-13.68,17.03,35.4,35.4,0,0,0,24.136,46.784l.526-2.019A33.317,33.317,0,0,1,3.815,61.379l7.259,4.543v5.6l4.55,2.274,2.283,11.412h6.456V86.7Zm0,0" transform="translate(0 -36.116)"/>
      <path id="Trazado_1032401" data-name="Trazado 1032401" d="M265.722,49.98a5.39,5.39,0,0,0,1.692-3.934,5.472,5.472,0,0,0-10.945,0,5.39,5.39,0,0,0,1.692,3.934l3.781,5.706Zm-6.056-1.448a3.335,3.335,0,0,1-1.111-2.486,3.387,3.387,0,1,1,6.774,0,3.335,3.335,0,0,1-1.111,2.486l-2.276,3.378Zm0,0" transform="translate(-221.032 -34.536)"/>
      <path id="Trazado_1032402" data-name="Trazado 1032402" d="M288.059,72.633h2.215v2.086h-2.215Zm0,0" transform="translate(-248.257 -62.166)"/>
      <path id="Trazado_1032403" data-name="Trazado 1032403" d="M208.379,326.558a5.39,5.39,0,0,0,1.692,3.934l3.78,5.7,3.781-5.7a5.389,5.389,0,0,0,1.692-3.934,5.472,5.472,0,0,0-10.945,0Zm8.859,0a3.335,3.335,0,0,1-1.111,2.486l-2.094,3.107-.181.273-2.277-3.38a3.336,3.336,0,0,1-1.111-2.486,3.387,3.387,0,0,1,6.774,0Zm0,0" transform="translate(-179.587 -276.289)"/>
      <path id="Trazado_1032404" data-name="Trazado 1032404" d="M239.973,353.145h2.215v2.086h-2.215Zm0,0" transform="translate(-206.815 -303.918)"/>
      <path id="Trazado_1032405" data-name="Trazado 1032405" d="M87.7,144.762H89.91v2.086H87.7Zm0,0" transform="translate(-75.578 -124.329)" fill="#fff"/>
      <path id="Trazado_1032406" data-name="Trazado 1032406" d="M103.723,128.734h2.215v2.086h-2.215Zm0,0" transform="translate(-89.391 -110.515)" fill="#fff"/>
      <path id="Trazado_1032407" data-name="Trazado 1032407" d="M151.809,208.879h2.215v2.086h-2.215Zm0,0" transform="translate(-130.833 -179.586)"/>
      <path id="Trazado_1032408" data-name="Trazado 1032408" d="M167.84,224.91h2.215V227H167.84Zm0,0" transform="translate(-144.649 -193.402)"/>
      <path id="Trazado_1032409" data-name="Trazado 1032409" d="M456.363,248.953h2.215v2.086h-2.215Zm0,0" transform="translate(-393.306 -214.123)" fill="#fff"/>
      <path id="Trazado_1032410" data-name="Trazado 1032410" d="M440.336,281.012h2.215V283.1h-2.215Zm0,0" transform="translate(-379.493 -241.752)"/>
      <path id="Trazado_1032411" data-name="Trazado 1032411" d="M247.984,281.012H250.2V283.1h-2.215Zm0,0" transform="translate(-213.719 -241.752)"/>
      <g id="Grupo_1200069" data-name="Grupo 1200069" transform="translate(38.695 39.26)">
        <path id="Trazado_1032412" data-name="Trazado 1032412" d="M280.043,281.012h2.215V283.1h-2.215Zm0,0" transform="translate(-280.043 -281.012)" fill="#fff"/>
        <path id="Trazado_1032413" data-name="Trazado 1032413" d="M384.234,353.145h2.215v2.086h-2.215Zm0,0" transform="translate(-369.837 -343.178)" fill="#fff"/>
        <path id="Trazado_1032414" data-name="Trazado 1032414" d="M368.2,369.172h2.215v2.086H368.2Zm0,0" transform="translate(-356.022 -356.991)" fill="#fff"/>
      </g>
      <path id="Trazado_1032415" data-name="Trazado 1032415" d="M368.2,240.938h2.215v2.086H368.2Zm0,0" transform="translate(-317.327 -207.216)"/>
      <path id="Trazado_1032416" data-name="Trazado 1032416" d="M336.145,248.953h2.215v2.086h-2.215Zm0,0" transform="translate(-289.699 -214.123)"/>
      <path id="Trazado_1032417" data-name="Trazado 1032417" d="M239.973,441.3h2.215v2.086h-2.215Zm0,0" transform="translate(-206.815 -379.897)" fill="#fff"/>
      <path id="Trazado_1032418" data-name="Trazado 1032418" d="M272.027,441.3h2.215v2.086h-2.215Zm0,0" transform="translate(-234.44 -379.897)"/>
      <path id="Trazado_1032419" data-name="Trazado 1032419" d="M207.91,441.3h2.215v2.086H207.91Zm0,0" transform="translate(-179.182 -379.897)"/>
      <path id="Trazado_1032420" data-name="Trazado 1032420" d="M256,136.75h2.215v2.086H256Zm0,0" transform="translate(-220.628 -117.424)" fill="#fff"/>
      <path id="Trazado_1032421" data-name="Trazado 1032421" d="M320.117,136.75h2.215v2.086h-2.215Zm0,0" transform="translate(-275.885 -117.424)" fill="#fff"/>
    </g>
  </g>
</svg>
