<svg xmlns="http://www.w3.org/2000/svg" xmlns:xlink="http://www.w3.org/1999/xlink" width="290" height="261.383" viewBox="0 0 290 261.383">
  <defs>
    <filter id="Rectángulo_408554" x="0" y="0" width="290" height="261.383" filterUnits="userSpaceOnUse">
      <feOffset dx="6" dy="7" input="SourceAlpha"/>
      <feGaussianBlur stdDeviation="3" result="blur"/>
      <feFlood flood-opacity="0.161"/>
      <feComposite operator="in" in2="blur"/>
      <feComposite in="SourceGraphic"/>
    </filter>
    <clipPath id="clip-path">
      <rect id="Rectángulo_408779" data-name="Rectángulo 408779" width="272" height="243.383" rx="8" transform="translate(-231.767 -4517.093)" fill="#4d637e" opacity="0.41"/>
    </clipPath>
  </defs>
  <g id="Grupo_1200173" data-name="Grupo 1200173" transform="translate(-202.233 -6894.907)">
    <g transform="matrix(1, 0, 0, 1, 202.23, 6894.91)" filter="url(#Rectángulo_408554)">
      <rect id="Rectángulo_408554-2" data-name="Rectángulo 408554" width="272" height="243.383" rx="8" transform="translate(3 2)" fill="#4d637e"/>
    </g>
    <g id="Enmascarar_grupo_1098813" data-name="Enmascarar grupo 1098813" transform="translate(437 11414)" clip-path="url(#clip-path)">
      <g id="_26999809_7283598" data-name="26999809_7283598" transform="translate(-279.541 -4519.019)">
        <g id="BACKGROUND" transform="translate(-9.048 -11.329)">
          <rect id="Rectángulo_408770" data-name="Rectángulo 408770" width="386.745" height="386.745" fill="#e5f9f4"/>
        </g>
        <g id="OBJECTS" transform="translate(-39.947 -50.016)">
          <circle id="Elipse_12201" data-name="Elipse 12201" cx="158.196" cy="158.196" r="158.196" transform="translate(0 223.721) rotate(-45)" fill="#bee5d8"/>
          <g id="Grupo_1200109" data-name="Grupo 1200109" transform="translate(112.273 146.221)">
            <g id="Grupo_1200105" data-name="Grupo 1200105" transform="translate(155.774)">
              <path id="Trazado_1034084" data-name="Trazado 1034084" d="M346.922,139.587a7.4,7.4,0,0,0-3.9,5.259,7.4,7.4,0,0,0,6.543-.116l.063-.033c3.279-1.728.664-6.807-2.648-5.142Z" transform="translate(-314.847 -139.069)" fill="#6cbfbb"/>
              <path id="Trazado_1034085" data-name="Trazado 1034085" d="M343.6,153.462a7.4,7.4,0,0,0-2.2,6.163,7.4,7.4,0,0,0,6.227-2.01l.051-.05c2.636-2.605-1.341-6.707-4.026-4.152Z" transform="translate(-314.467 -142.101)" fill="#6cbfbb"/>
              <path id="Trazado_1034086" data-name="Trazado 1034086" d="M331.976,141.047a7.4,7.4,0,0,0,1.044,6.46,7.4,7.4,0,0,0,4.485-4.765l.021-.069c1.053-3.553-4.41-5.228-5.53-1.7Z" transform="translate(-312.27 -139.024)" fill="#6cbfbb"/>
              <path id="Trazado_1034087" data-name="Trazado 1034087" d="M321.377,165.453a7.4,7.4,0,0,0,4.731,4.521,7.4,7.4,0,0,0,.7-6.507l-.025-.067c-1.306-3.469-6.671-1.508-5.432,1.986C321.36,165.409,321.368,165.431,321.377,165.453Z" transform="translate(-309.896 -144.134)" fill="#6cbfbb"/>
              <path id="Trazado_1034088" data-name="Trazado 1034088" d="M341.176,171.514a7.406,7.406,0,0,0-1.975,6.239,7.4,7.4,0,0,0,6.15-2.236l.05-.052c2.539-2.7-1.585-6.654-4.175-4Z" transform="translate(-313.962 -146.173)" fill="#6cbfbb"/>
              <path id="Trazado_1034089" data-name="Trazado 1034089" d="M311.964,179.273a8.554,8.554,0,0,0,5.373,5.319,8.556,8.556,0,0,0,.944-7.5l-.027-.078c-1.437-4.034-7.676-1.878-6.316,2.183C311.946,179.222,311.955,179.248,311.964,179.273Z" transform="translate(-307.762 -147.141)" fill="#6cbfbb"/>
              <path id="Trazado_1034090" data-name="Trazado 1034090" d="M336.307,193.267a8.555,8.555,0,0,0-2.35,7.187,8.554,8.554,0,0,0,7.13-2.516l.057-.06c2.963-3.092-1.758-7.7-4.78-4.67Z" transform="translate(-312.774 -151.073)" fill="#6cbfbb"/>
              <path id="Trazado_1034091" data-name="Trazado 1034091" d="M339.546,142.4a.384.384,0,0,0-.5-.218c-3.708,1.459-6.927,4.824-8.829,9.232a27.83,27.83,0,0,0-1.5,4.6,13.871,13.871,0,0,1,.35-11.983.387.387,0,1,0-.683-.364,14.429,14.429,0,0,0,.009,13.439.357.357,0,0,0,.073.076,61.908,61.908,0,0,0-.927,6.822c-.067.755-.129,1.51-.19,2.266-.074.91-.15,1.829-.236,2.75a14.253,14.253,0,0,1-6.451-9.951.387.387,0,0,0-.767.1,15.034,15.034,0,0,0,7.135,10.7,49.261,49.261,0,0,1-1.08,6.766,32.011,32.011,0,0,1-3.253,8.126,19.749,19.749,0,0,1-7.7-14.417.387.387,0,0,0-.773.04,20.54,20.54,0,0,0,8.089,15.058,33.317,33.317,0,0,1-15.487,13.606.387.387,0,0,0,.15.743.4.4,0,0,0,.15-.03,33.675,33.675,0,0,0,12.716-9.514,12.631,12.631,0,0,0,13.767-5.954.387.387,0,0,0-.669-.39,11.847,11.847,0,0,1-12.552,5.664,34.508,34.508,0,0,0,2.708-3.942c.017-.017.039-.026.054-.046a.376.376,0,0,0,.063-.164,32.824,32.824,0,0,0,3.484-8.6q.166-.68.3-1.367a21.492,21.492,0,0,0,9.229-9.058.387.387,0,1,0-.684-.361,20.711,20.711,0,0,1-8.361,8.436c.481-2.7.709-5.459.929-8.143.062-.754.123-1.508.19-2.261.089-1,.19-2.01.316-3.025a19.859,19.859,0,0,0,9.355-8.6.387.387,0,0,0-.679-.37,19.086,19.086,0,0,1-8.551,8.049,32.516,32.516,0,0,1,2.173-8.415c1.822-4.222,4.884-7.436,8.4-8.82A.385.385,0,0,0,339.546,142.4Z" transform="translate(-306.595 -139.734)" fill="#4b9da3"/>
            </g>
            <g id="Grupo_1200106" data-name="Grupo 1200106" transform="translate(0 27.798)">
              <path id="Trazado_1034092" data-name="Trazado 1034092" d="M109.423,175.524a7.4,7.4,0,0,1,3.9,5.259,7.4,7.4,0,0,1-6.543-.116l-.063-.033c-3.279-1.728-.664-6.807,2.648-5.142Z" transform="translate(-105.204 -175.007)" fill="#2e516d"/>
              <path id="Trazado_1034093" data-name="Trazado 1034093" d="M113.02,189.4a7.4,7.4,0,0,1,2.2,6.162,7.4,7.4,0,0,1-6.227-2.01l-.051-.05c-2.636-2.605,1.341-6.707,4.026-4.152Z" transform="translate(-105.855 -178.038)" fill="#2e516d"/>
              <path id="Trazado_1034094" data-name="Trazado 1034094" d="M124.984,176.985a7.4,7.4,0,0,1-1.045,6.46,7.4,7.4,0,0,1-4.485-4.765l-.021-.069c-1.053-3.553,4.41-5.228,5.53-1.7C124.969,176.94,124.977,176.962,124.984,176.985Z" transform="translate(-108.396 -174.962)" fill="#2e516d"/>
              <path id="Trazado_1034095" data-name="Trazado 1034095" d="M135.561,201.391a7.4,7.4,0,0,1-4.731,4.521,7.4,7.4,0,0,1-.7-6.507l.025-.067c1.306-3.469,6.671-1.508,5.432,1.986Z" transform="translate(-110.747 -180.072)" fill="#2e516d"/>
              <path id="Trazado_1034096" data-name="Trazado 1034096" d="M115.473,207.452a7.4,7.4,0,0,1,1.974,6.239,7.4,7.4,0,0,1-6.15-2.236l-.049-.052c-2.539-2.7,1.585-6.654,4.175-4Z" transform="translate(-106.392 -182.111)" fill="#2e516d"/>
              <path id="Trazado_1034097" data-name="Trazado 1034097" d="M144.706,215.211a8.554,8.554,0,0,1-5.373,5.319,8.553,8.553,0,0,1-.943-7.5l.027-.078c1.437-4.034,7.676-1.878,6.316,2.182C144.723,215.16,144.715,215.185,144.706,215.211Z" transform="translate(-112.614 -183.079)" fill="#2e516d"/>
              <path id="Trazado_1034098" data-name="Trazado 1034098" d="M120.009,229.205a8.555,8.555,0,0,1,2.35,7.186,8.554,8.554,0,0,1-7.13-2.516l-.057-.06c-2.963-3.092,1.758-7.7,4.779-4.67Z" transform="translate(-107.249 -187.011)" fill="#2e516d"/>
              <path id="Trazado_1034099" data-name="Trazado 1034099" d="M109.518,178.34a.384.384,0,0,1,.5-.218c3.708,1.459,6.927,4.824,8.829,9.233a27.831,27.831,0,0,1,1.5,4.6,13.87,13.87,0,0,0-.35-11.983.387.387,0,0,1,.683-.364,14.428,14.428,0,0,1-.009,13.439.339.339,0,0,1-.073.076,61.887,61.887,0,0,1,.927,6.823c.067.755.129,1.51.19,2.266.074.91.15,1.829.235,2.75a14.253,14.253,0,0,0,6.451-9.951.387.387,0,0,1,.767.1,15.034,15.034,0,0,1-7.135,10.7,49.252,49.252,0,0,0,1.08,6.766,32.01,32.01,0,0,0,3.253,8.126,19.749,19.749,0,0,0,7.7-14.417.387.387,0,0,1,.773.04,20.54,20.54,0,0,1-8.089,15.058A33.317,33.317,0,0,0,142.232,235a.387.387,0,0,1-.15.743.4.4,0,0,1-.15-.03,33.669,33.669,0,0,1-12.716-9.514,12.631,12.631,0,0,1-13.767-5.954.387.387,0,0,1,.669-.39,11.845,11.845,0,0,0,12.552,5.664,34.51,34.51,0,0,1-2.708-3.942.389.389,0,0,1-.054-.046.38.38,0,0,1-.063-.164,32.824,32.824,0,0,1-3.484-8.6c-.111-.453-.211-.909-.3-1.367a21.492,21.492,0,0,1-9.229-9.058.387.387,0,1,1,.684-.361,20.71,20.71,0,0,0,8.361,8.436c-.481-2.7-.709-5.459-.929-8.143-.062-.754-.123-1.508-.19-2.261-.089-1-.19-2.01-.316-3.025a19.859,19.859,0,0,1-9.355-8.6.387.387,0,0,1,.679-.37,19.086,19.086,0,0,0,8.551,8.049,32.516,32.516,0,0,0-2.173-8.415c-1.822-4.222-4.884-7.436-8.4-8.82A.387.387,0,0,1,109.518,178.34Z" transform="translate(-106.175 -175.671)" fill="#1a2d40"/>
            </g>
            <g id="Grupo_1200107" data-name="Grupo 1200107" transform="translate(17.176 87.454)">
              <path id="Trazado_1034100" data-name="Trazado 1034100" d="M142.664,306.407l6.937.36a30.292,30.292,0,0,1-19.028-19.681l5.117,1.8a27.476,27.476,0,0,1-8.042-23.148l3.234,3.236a42.152,42.152,0,0,1-3.113-16.885A63.469,63.469,0,0,1,147.043,264.6l-2.184-7.1a35.932,35.932,0,0,1,16.87,22.463q.294-2.291.588-4.582a45.388,45.388,0,0,1,9.321,19.851l1.133-4.725a49.921,49.921,0,0,1,7.734,14.81c1.535,4.707,3.6,11.631,2.233,16.568-2.963,10.678-21.194,1.008-26.426-2.378A49.352,49.352,0,0,1,142.664,306.407Z" transform="translate(-127.409 -252.088)" fill="#4b9da3"/>
              <path id="Trazado_1034101" data-name="Trazado 1034101" d="M162.356,275.378l-.116.9c2.63,6.261,3.025,11.406,1.158,15.293a11.1,11.1,0,0,1-6.164,5.493C152.687,291.1,148.553,285.2,144.9,279.7c.241-.15.556-.36.921-.634a12.294,12.294,0,0,0,4.776-7.279c.821-4.113-.706-8.681-4.542-13.591-.383-.24-.766-.48-1.158-.7q.181.587.361,1.173c3.714,4.721,5.209,9.068,4.442,12.932a11.837,11.837,0,0,1-5.309,7.334c-7.864-11.909-13.419-21.871-15.941-26.573-.215-.092-.429-.187-.646-.276q-.012.5-.011.992c2.561,4.758,7.941,14.368,15.5,25.851-9.376-1.965-13.562-9.632-14.776-12.363l-.831-.832c-.045.326-.071.654-.1.981,1.19,2.761,5.756,11.5,16.416,13.28,3.624,5.465,7.725,11.322,12.237,17.262-15.268,2.146-23.233-7.593-24.9-9.917l-.728-.256c.146.487.308.969.48,1.448,2.565,3.266,10.874,11.873,25.781,9.563,4.915,6.424,10.3,12.923,16.079,19.106-13.66-.166-26.606-8.771-29.406-10.752l-.842-.043c.272.391.553.775.838,1.157,3.8,2.61,16.778,10.754,30.282,10.561q3.41,3.6,6.99,7.031a5.628,5.628,0,0,0,.641-.653q-3.545-3.383-6.927-6.965c1.056-1.784,4.653-9.57-.823-25.848-.3-.413-.594-.814-.893-1.186q-.1.414-.2.828c5.4,15.579,2.327,23.445,1.249,25.5-5.76-6.143-11.134-12.608-16.041-19a12.158,12.158,0,0,0,2.928-1.631,11.508,11.508,0,0,0,3.47-4.212c1.91-3.962,1.636-9.085-.8-15.244C163.073,276.28,162.721,275.825,162.356,275.378Z" transform="translate(-127.448 -252.088)" fill="#a1d6cd"/>
            </g>
            <g id="Grupo_1200108" data-name="Grupo 1200108" transform="translate(162.39 36.156)">
              <path id="Trazado_1034102" data-name="Trazado 1034102" d="M324.451,217.922l1.973,6.66a30.291,30.291,0,0,1,12.21-24.5q0,2.713.009,5.424a27.476,27.476,0,0,1,19.142-15.3l-1.972,4.127a42.141,42.141,0,0,1,14.88-8.564,63.464,63.464,0,0,1-5.365,22.342l5.964-4.425a35.929,35.929,0,0,1-15.553,23.393l4.516-.974a45.372,45.372,0,0,1-15.608,15.406L349.48,241a49.946,49.946,0,0,1-11.383,12.23c-3.926,3.016-9.764,7.275-14.876,7.63-11.055.767-8.016-19.645-6.568-25.706A49.339,49.339,0,0,1,324.451,217.922Z" transform="translate(-315.148 -185.768)" fill="#2e516d"/>
              <path id="Trazado_1034103" data-name="Trazado 1034103" d="M361.525,226.106l-.889.192c-5.026,4.567-9.745,6.655-14.032,6.191a11.1,11.1,0,0,1-7.234-3.98c4.111-6.277,8.288-12.139,12.255-17.416.221.177.524.4.9.657a12.292,12.292,0,0,0,8.455,2.076c4.151-.6,7.948-3.56,11.3-8.813.1-.441.2-.882.278-1.327l-.986.732c-3.213,5.076-6.812,7.934-10.711,8.5a11.834,11.834,0,0,1-8.685-2.56c8.606-11.385,16.145-19.943,19.737-23.888.015-.234.033-.467.046-.7q-.471.154-.938.321c-3.632,4-10.9,12.277-19.205,23.229-1.272-9.495,4.56-16,6.729-18.053l.507-1.06c-.322.067-.64.151-.959.23-2.206,2.043-8.927,9.263-7.046,19.9-3.944,5.239-8.1,11.058-12.194,17.291-7.115-13.678-.587-24.435,1.049-26.777,0-.258,0-.514,0-.771-.411.3-.811.613-1.2.935-2.224,3.507-7.569,14.21-.419,27.495-4.417,6.775-8.749,14.021-12.652,21.529-4.4-12.934-.6-28.007.333-31.309l-.24-.808q-.415.581-.811,1.175c-1.193,4.456-4.544,19.4.14,32.07q-2.262,4.417-4.3,8.935a5.614,5.614,0,0,0,.83.387q2.008-4.469,4.257-8.853c2.034.4,10.574,1.2,24.094-9.394.291-.416.569-.832.82-1.238l-.847.089c-12.889,10.28-21.327,10.01-23.625,9.679,3.871-7.479,8.174-14.7,12.568-21.46a12.146,12.146,0,0,0,2.514,2.218,11.488,11.488,0,0,0,5.129,1.866c4.371.48,9.111-1.487,14.105-5.835C360.913,227.082,361.225,226.6,361.525,226.106Z" transform="translate(-316.417 -185.768)" fill="#1a2d40"/>
            </g>
          </g>
          <g id="Grupo_1200142" data-name="Grupo 1200142" transform="translate(138.011 72.887)">
            <g id="Grupo_1200111" data-name="Grupo 1200111" transform="translate(42.364)">
              <g id="Grupo_1200110" data-name="Grupo 1200110">
                <path id="Trazado_1034104" data-name="Trazado 1034104" d="M215.862,117.767c-2.3,1.46-5.124,1.732-7.737,2.494a20.674,20.674,0,0,0-5.3,37.3c4.793,3.046,10.759,4.073,15.158,7.666,2.962,2.42,4.953,5.8,7.4,8.735s5.739,5.6,9.564,5.672c3.985.071,7.5-2.727,9.8-5.981s3.744-7.04,5.913-10.384,5.391-6.38,9.356-6.784c2.467-.252,4.964.544,7.42.2,4.185-.585,7.36-4.547,7.955-8.73s-.976-8.429-3.34-11.93-5.486-6.408-8.438-9.432-5.8-6.271-7.438-10.168c-1.65-3.933-1.956-8.276-2.818-12.453s-2.481-8.494-5.932-11c-4.344-3.156-10.622-2.517-15.167.34-4.209,2.646-7.754,7.247-10.045,11.631C219.915,109.347,220.61,114.749,215.862,117.767Z" transform="translate(-193.249 -54.783)" fill="#1a2d40"/>
                <path id="Trazado_1034105" data-name="Trazado 1034105" d="M234.749,45.091a32.933,32.933,0,0,0-4.424,1.337c-13.728,5.235-18.92,18.957-15.664,32.684a35.388,35.388,0,0,0,7.658,15.475,28.292,28.292,0,0,0,15.526,8.854,30.693,30.693,0,0,0,18.078-2.143,32.679,32.679,0,0,0,19.207-26.087C277.269,53.249,254.1,40.683,234.749,45.091Z" transform="translate(-197.886 -44.216)" fill="#1a2d40"/>
              </g>
            </g>
            <g id="Grupo_1200115" data-name="Grupo 1200115" transform="translate(99.477 70.681)">
              <g id="Grupo_1200112" data-name="Grupo 1200112" transform="translate(3.49 0)">
                <path id="Trazado_1034106" data-name="Trazado 1034106" d="M299.249,243.7A10.49,10.49,0,0,1,289,235.373l-17.172-81.508a10.486,10.486,0,1,1,20.522-4.324l17.172,81.508a10.5,10.5,0,0,1-10.272,12.65Z" transform="translate(-271.599 -136.868)" fill="#bf6d60"/>
                <path id="Trazado_1034107" data-name="Trazado 1034107" d="M306.368,245.14,324.64,271l21.882,30.97a6.073,6.073,0,0,1-9.43,7.607l-47.048-51.27a10.508,10.508,0,1,1,16.324-13.167Z" transform="translate(-275.15 -159.403)" fill="#bf6d60"/>
                <path id="Trazado_1034108" data-name="Trazado 1034108" d="M281.9,135.835s10.921-2.6,14.115,9.311c3.891,14.512,16.235,75,16.235,75l15.257,38.883-24.53,22.025-16.055-50.944Z" transform="translate(-273.932 -135.595)" fill="#fff"/>
              </g>
              <g id="Grupo_1200114" data-name="Grupo 1200114" transform="translate(0 77.28)">
                <path id="Trazado_1034109" data-name="Trazado 1034109" d="M338.783,295.174s7.793.811,13.649,4.584,11.812,10.8,9.176,15.519-8.012,12.01-14.1,10.731-13.569-14.425-15.539-21.868S338.783,295.174,338.783,295.174Z" transform="translate(-281.718 -249.021)" fill="#bf6d60"/>
                <g id="Grupo_1200113" data-name="Grupo 1200113">
                  <path id="Trazado_1034110" data-name="Trazado 1034110" d="M300.076,326.3l-31.992-38.05a4.255,4.255,0,0,1,.518-5.995l54.41-45.747a4.254,4.254,0,0,1,5.995.519L361,275.073a4.255,4.255,0,0,1-.518,5.995l-54.41,45.747A4.256,4.256,0,0,1,300.076,326.3Z" transform="translate(-267.086 -235.506)" fill="#6cbfbb"/>
                  <path id="Trazado_1034111" data-name="Trazado 1034111" d="M372.938,266.4l-3.416,2.872a1.939,1.939,0,0,1-2.732-.237L353.009,252.64a1.939,1.939,0,0,1,.236-2.732l3.416-2.872a1.939,1.939,0,0,1,2.732.236l13.781,16.391A1.939,1.939,0,0,1,372.938,266.4Z" transform="translate(-286.446 -238.014)" fill="#4b9da3"/>
                </g>
                <path id="Trazado_1034112" data-name="Trazado 1034112" d="M363.491,310.209s-7.39-7.118-10.143-4.156S358.523,314,358.523,314s-6.03-4.319-7.757-2.949,1.807,5.545,4.025,6.718c0,0-4.6-3.731-7.827-1.824s6.329,7.528,6.329,7.528-6.239-5.18-8.367-3.39,2.054,7.923,5.739,8.364,11.841-12.478,11.841-12.478Z" transform="translate(-284.588 -251.322)" fill="#bf6d60"/>
              </g>
            </g>
            <g id="Grupo_1200123" data-name="Grupo 1200123" transform="translate(63.44 2.6)">
              <g id="Grupo_1200116" data-name="Grupo 1200116" transform="translate(14.937 46.818)">
                <path id="Trazado_1034113" data-name="Trazado 1034113" d="M241.418,108.105l-1.611,24.766s10.8,6.964,19.517,1.481l-.3-18.8Z" transform="translate(-239.807 -108.105)" fill="#bf6d60"/>
                <path id="Trazado_1034114" data-name="Trazado 1034114" d="M259.693,126.4a21.529,21.529,0,0,1-17.495-6.422h17.39Z" transform="translate(-240.349 -110.794)" fill="#1a2d40"/>
              </g>
              <g id="Grupo_1200122" data-name="Grupo 1200122">
                <path id="Trazado_1034115" data-name="Trazado 1034115" d="M256.539,54.386c-19.48-2.9-29.708,8.354-28.059,30.212,1.313,17.4,12.162,27.047,25.689,24.869,10.706-1.723,17.474-10.219,18.582-23.146C274.331,67.872,268.106,56.109,256.539,54.386Z" transform="translate(-222.266 -49.017)" fill="#bf6d60"/>
                <g id="Grupo_1200119" data-name="Grupo 1200119" transform="translate(19.455 22.649)">
                  <path id="Trazado_1034116" data-name="Trazado 1034116" d="M281.946,80.033s-6.025-.319-9.6.753C274.021,77.8,279.446,78.525,281.946,80.033Z" transform="translate(-251.696 -77.281)" fill="#1a2d40"/>
                  <path id="Trazado_1034117" data-name="Trazado 1034117" d="M245.648,78.189s6.024-.346,9.6.712C253.563,75.924,248.141,76.669,245.648,78.189Z" transform="translate(-245.648 -76.858)" fill="#1a2d40"/>
                  <g id="Grupo_1200117" data-name="Grupo 1200117" transform="translate(21.646 9.939)">
                    <path id="Trazado_1034118" data-name="Trazado 1034118" d="M273.633,91.842a1.77,1.77,0,1,0,1.732-2.134A1.964,1.964,0,0,0,273.633,91.842Z" transform="translate(-273.633 -89.708)" fill="#1a2d40"/>
                    <path id="Trazado_1034119" data-name="Trazado 1034119" d="M275.872,91.263a.559.559,0,1,0,.544-.688A.629.629,0,0,0,275.872,91.263Z" transform="translate(-274.14 -89.904)" fill="#fff"/>
                  </g>
                  <g id="Grupo_1200118" data-name="Grupo 1200118" transform="translate(4.888 9.939)">
                    <path id="Trazado_1034120" data-name="Trazado 1034120" d="M251.967,91.842a1.77,1.77,0,1,0,1.732-2.134A1.965,1.965,0,0,0,251.967,91.842Z" transform="translate(-251.967 -89.708)" fill="#1a2d40"/>
                    <path id="Trazado_1034121" data-name="Trazado 1034121" d="M254.206,91.263a.559.559,0,1,0,.544-.688A.629.629,0,0,0,254.206,91.263Z" transform="translate(-252.474 -89.904)" fill="#fff"/>
                  </g>
                  <path id="Trazado_1034122" data-name="Trazado 1034122" d="M267.22,100.769a.617.617,0,0,1-.112-1.224,1.854,1.854,0,0,0,1.281-.651.812.812,0,0,0-.016-.746,11.812,11.812,0,0,0-.8-1.471,11.94,11.94,0,0,1-.926-1.726.616.616,0,1,1,1.156-.43,11.909,11.909,0,0,0,.828,1.522,12.129,12.129,0,0,1,.9,1.669,2.042,2.042,0,0,1-.063,1.788,2.92,2.92,0,0,1-2.129,1.26A.737.737,0,0,1,267.22,100.769Z" transform="translate(-250.395 -80.768)" fill="#894236"/>
                  <path id="Trazado_1034123" data-name="Trazado 1034123" d="M269.312,106.073a60.418,60.418,0,0,1-11.911-.431C259.523,110.383,268,109.551,269.312,106.073Z" transform="translate(-248.31 -83.378)" fill="#fff"/>
                </g>
                <g id="Grupo_1200120" data-name="Grupo 1200120" transform="translate(2.235 24.518)">
                  <path id="Trazado_1034124" data-name="Trazado 1034124" d="M249.811,98.233a9.479,9.479,0,1,1,9.48-9.479A9.49,9.49,0,0,1,249.811,98.233Zm0-18.016a8.537,8.537,0,1,0,8.538,8.537A8.547,8.547,0,0,0,249.811,80.217Z" transform="translate(-227.224 -79.275)" fill="#fff"/>
                  <path id="Trazado_1034125" data-name="Trazado 1034125" d="M279.922,100.162a9.479,9.479,0,1,1,9.479-9.479A9.49,9.49,0,0,1,279.922,100.162Zm0-18.015a8.537,8.537,0,1,0,8.537,8.537A8.547,8.547,0,0,0,279.922,82.147Z" transform="translate(-234.044 -79.712)" fill="#fff"/>
                  <rect id="Rectángulo_408771" data-name="Rectángulo 408771" width="14.967" height="0.942" transform="translate(0 8.969) rotate(-15.564)" fill="#fff"/>
                </g>
                <g id="Grupo_1200121" data-name="Grupo 1200121" transform="translate(0.297 32.481)">
                  <path id="Trazado_1034126" data-name="Trazado 1034126" d="M229.55,93.939c1.233,3.048.347,5.988-1.86,6.881s-4.994-.852-6.227-3.9-.444-6.242,1.763-7.136S228.318,90.892,229.55,93.939Z" transform="translate(-220.88 -89.57)" fill="#bf6d60"/>
                  <path id="Trazado_1034127" data-name="Trazado 1034127" d="M227.849,98.514a.626.626,0,0,1-.207-.036,2.61,2.61,0,0,1-1.791-2.224,2.8,2.8,0,0,1,.251-1.191,2.108,2.108,0,0,0,.169-.592,1.275,1.275,0,0,0-.361-.945,1.329,1.329,0,0,0-1.075-.467,1.2,1.2,0,0,0-.842,1.248.616.616,0,1,1-1.233,0,2.4,2.4,0,0,1,1.877-2.466,2.5,2.5,0,0,1,2.161.828,2.529,2.529,0,0,1,.7,1.88,3.162,3.162,0,0,1-.249.955,1.778,1.778,0,0,0-.172.685,1.406,1.406,0,0,0,.974,1.126.617.617,0,0,1-.207,1.2Z" transform="translate(-221.306 -90.079)" fill="#894236"/>
                </g>
                <rect id="Rectángulo_408772" data-name="Rectángulo 408772" width="0.942" height="5.489" transform="matrix(0.109, -0.994, 0.994, 0.109, 33.736, 33.545)" fill="#fff"/>
                <path id="Trazado_1034128" data-name="Trazado 1034128" d="M267.937,56.4a24.345,24.345,0,0,0-11.822-7.413,30.6,30.6,0,0,0-19.759.459,25.048,25.048,0,0,0-14.165,13.518c-2.072,5.056-2.6,12.5.449,17.341,1.549,2.464,4.743-.816,6.271-2.008a50.545,50.545,0,0,0,6.535-6.107,49.986,49.986,0,0,0,5.879-8.04L240.68,69.2l11.026.152a47.912,47.912,0,0,0,1.938-7.158,44.564,44.564,0,0,0-.442,7.179l4.362.06q1-5.879,2-11.759l.745,11.8,1.806.025q-.035-2.557-.07-5.113a45.132,45.132,0,0,0,1.6,5.134l7.713.106A15.494,15.494,0,0,0,267.937,56.4Z" transform="translate(-220.496 -47.577)" fill="#1a2d40"/>
              </g>
            </g>
            <g id="Grupo_1200132" data-name="Grupo 1200132" transform="translate(38.195 66.519)">
              <g id="Grupo_1200124" data-name="Grupo 1200124" transform="translate(0 98.676)">
                <path id="Trazado_1034129" data-name="Trazado 1034129" d="M187.859,406.609s17.148,5.834,42.325,7.084l.022-.144a198.856,198.856,0,0,0,20.274-.029l.008.081a167.62,167.62,0,0,0,39.311-6.992h0l-.452-64.736a158.04,158.04,0,0,0-8.379-49.684l-7.927-23.36-21.677-11.042-1.154,5.605-34.271,5.49-6.961,12.873a155.194,155.194,0,0,0-18.525,66.886l-2.594,57.968Z" transform="translate(-187.859 -257.786)" fill="#1a2d40"/>
                <path id="Trazado_1034130" data-name="Trazado 1034130" d="M281.2,275.5q-1.867-6.3-3.733-12.606-25.721-.456-51.432-1.356-.847,3.76-1.695,7.52c-.377,1.672-1.757,4.766-1.21,6.449.913,2.812,9.41,2.392,11.878,2.6a165.635,165.635,0,0,0,29.715-.178A164.4,164.4,0,0,0,281.2,275.5Z" transform="translate(-195.819 -258.636)" fill="#2e516d"/>
              </g>
              <g id="Grupo_1200131" data-name="Grupo 1200131" transform="translate(13.816 0)">
                <g id="Grupo_1200128" data-name="Grupo 1200128" transform="translate(1.511)">
                  <g id="Grupo_1200127" data-name="Grupo 1200127" transform="translate(0 5.55)">
                    <g id="Grupo_1200126" data-name="Grupo 1200126">
                      <g id="Grupo_1200125" data-name="Grupo 1200125">
                        <path id="Trazado_1034131" data-name="Trazado 1034131" d="M243.928,140.912l-24.979-3.483-11.274,31.548,12.751,72.632,57.1-.053-.463-67.053L261.8,137.389Z" transform="translate(-207.674 -137.389)" fill="#f4d432"/>
                      </g>
                    </g>
                  </g>
                  <path id="Trazado_1034132" data-name="Trazado 1034132" d="M236.63,137.355l1.1-5.79a1.658,1.658,0,0,1,1.994-1.31,50.24,50.24,0,0,0,18.175.754,1.653,1.653,0,0,1,1.884,1.354l.861,4.921-2.684,8.069-21.334,2.006v-10Z" transform="translate(-214.233 -130.214)" fill="#f4d432"/>
                </g>
                <g id="Grupo_1200130" data-name="Grupo 1200130" transform="translate(0 12.404)">
                  <g id="Grupo_1200129" data-name="Grupo 1200129">
                    <path id="Trazado_1034133" data-name="Trazado 1034133" d="M256.917,185.986a107.456,107.456,0,0,0,11.874-2.555A1.262,1.262,0,0,0,268.12,181a106.923,106.923,0,0,1-41.234,2.995,104.713,104.713,0,0,1-11.616-2.12c-1.577-.377-2.251,2.054-.671,2.432A109.509,109.509,0,0,0,256.917,185.986Z" transform="translate(-207.528 -154.11)" fill="#e8748a"/>
                    <path id="Trazado_1034134" data-name="Trazado 1034134" d="M214.6,172.122a159.123,159.123,0,0,0,47.837,3.078c2.463-.217,4.919-.5,7.369-.831l-.751-2.429a156.976,156.976,0,0,1-40.674.044c-4.4-.571-8.774-1.349-13.11-2.3C213.688,169.345,213.012,171.775,214.6,172.122Z" transform="translate(-207.527 -151.552)" fill="#e8748a"/>
                    <path id="Trazado_1034135" data-name="Trazado 1034135" d="M218.1,148.748a87.249,87.249,0,0,0,40.738,3q3.031-.5,6.015-1.217c-.279-.9-.534-1.712-.758-2.423a84.38,84.38,0,0,1-34.2.994,85.1,85.1,0,0,1-11.127-2.784C217.224,145.818,216.561,148.252,218.1,148.748Z" transform="translate(-208.327 -146.25)" fill="#e8748a"/>
                    <path id="Trazado_1034136" data-name="Trazado 1034136" d="M254.575,163.646q5.374-.465,10.687-1.436-.377-1.218-.749-2.416a112.518,112.518,0,0,1-44.347-.968,113.141,113.141,0,0,1-12.91-3.726c-1.533-.542-2.193,1.894-.671,2.432A114.864,114.864,0,0,0,254.575,163.646Z" transform="translate(-205.721 -148.237)" fill="#e8748a"/>
                    <path id="Trazado_1034137" data-name="Trazado 1034137" d="M269.089,191.888a101.716,101.716,0,0,1-47,1.212c-1.583-.335-2.26,2.1-.671,2.432a104.57,104.57,0,0,0,48.344-1.212A1.262,1.262,0,0,0,269.089,191.888Z" transform="translate(-209.07 -156.577)" fill="#e8748a"/>
                    <path id="Trazado_1034138" data-name="Trazado 1034138" d="M278.209,245.036a94.239,94.239,0,0,1-44.994-2,1.262,1.262,0,0,0-.671,2.432,97.006,97.006,0,0,0,46.335,2C280.469,247.148,279.8,244.717,278.209,245.036Z" transform="translate(-211.596 -168.161)" fill="#e8748a"/>
                    <path id="Trazado_1034139" data-name="Trazado 1034139" d="M269.575,206.734a1.262,1.262,0,0,0-.671-2.432,96.533,96.533,0,0,1-47.586.531c-1.576-.384-2.249,2.047-.671,2.432A99.275,99.275,0,0,0,269.575,206.734Z" transform="translate(-208.898 -159.388)" fill="#e8748a"/>
                    <path id="Trazado_1034140" data-name="Trazado 1034140" d="M276.37,258.305a102.343,102.343,0,0,1-44.5-2.469,1.262,1.262,0,0,0-.671,2.432,105.287,105.287,0,0,0,45.845,2.469C278.637,260.47,277.96,258.04,276.37,258.305Z" transform="translate(-211.29 -171.06)" fill="#e8748a"/>
                    <path id="Trazado_1034141" data-name="Trazado 1034141" d="M275.055,234.332c1.59-.319.917-2.751-.671-2.432a97.563,97.563,0,0,1-43.279-1.143,1.262,1.262,0,0,0-.671,2.432A100.5,100.5,0,0,0,275.055,234.332Z" transform="translate(-211.116 -165.382)" fill="#e8748a"/>
                    <path id="Trazado_1034142" data-name="Trazado 1034142" d="M273.5,220.856c1.592-.309.917-2.74-.671-2.432a115.624,115.624,0,0,1-44.767-.138c-1.585-.319-2.262,2.112-.671,2.432A118.907,118.907,0,0,0,273.5,220.856Z" transform="translate(-210.425 -162.56)" fill="#e8748a"/>
                  </g>
                </g>
              </g>
            </g>
            <path id="Trazado_1034143" data-name="Trazado 1034143" d="M152.3,231.131a10.488,10.488,0,0,1-8.991-15.868L183.756,147.6a10.486,10.486,0,1,1,18,10.761L161.31,226.023A10.48,10.48,0,0,1,152.3,231.131Z" transform="translate(-139.236 -66.475)" fill="#bf6d60"/>
            <g id="Grupo_1200133" data-name="Grupo 1200133" transform="translate(34.919 70.811)">
              <path id="Trazado_1034144" data-name="Trazado 1034144" d="M222.175,138.271s6.953,33.229,10.352,53.843,10.588,90.3-1.974,144.553c0,0-21.71,8.293-46.928-4.206,0,0,3.038-42.3,20.611-76.971a56.413,56.413,0,0,0,5.2-34.461l-9.369-58.258,9.346-27.007Z" transform="translate(-183.624 -135.763)" fill="#fff"/>
              <path id="Trazado_1034145" data-name="Trazado 1034145" d="M270.6,138.128s2.012,29.347,1.358,44.478,1.912,58.668,5.761,86.018c3.453,24.537,5.447,35.828,8.059,66.445,0,0,15.131,1.809,28.289-.493,0,0-2.629-56.254-18.845-87.5a29.655,29.655,0,0,1-3.418-13.736l.087-29.459s16.425-16.41-2.138-36.609L279.341,135.9Z" transform="translate(-203.325 -135.795)" fill="#fff"/>
              <path id="Trazado_1034146" data-name="Trazado 1034146" d="M241.488,192.55c-3.4-20.62-10.335-53.74-10.335-53.74l-3.389-.666-4.338,10.691a2.22,2.22,0,0,0,.51,2.426l6.712,6.524-5.845,5.64a2.22,2.22,0,0,0-.323,2.8Z" transform="translate(-192.603 -136.302)" fill="#a1d6cd"/>
              <path id="Trazado_1034147" data-name="Trazado 1034147" d="M275.144,157.341l4.544-4.194a2.514,2.514,0,0,0,.553-2.953l-6.151-12.561-3.488.887s2.012,29.347,1.358,44.478c-.093,2.148-.118,4.885-.087,8.05l10.586-24.055a2.514,2.514,0,0,0-.514-2.781Z" transform="translate(-203.325 -136.186)" fill="#a1d6cd"/>
            </g>
            <g id="Grupo_1200136" data-name="Grupo 1200136" transform="translate(0 70.601)">
              <g id="Grupo_1200134" data-name="Grupo 1200134" transform="translate(49.612 125.226)">
                <path id="Trazado_1034148" data-name="Trazado 1034148" d="M204.589,305.633l3.21,17.9s8.863-2.676,12.158-6.179a50.751,50.751,0,0,0,6.247-8.315c-.123.006-12.037-11.649-12.037-11.649Z" transform="translate(-203.066 -297.389)" fill="#bf6d60"/>
                <path id="Trazado_1034149" data-name="Trazado 1034149" d="M202.62,326.277s15.789-4.167,25.438-18.859l5.482,5.314s-5.715,8.313-12.006,13.572c-6.688,5.592-16.6,7.921-16.6,7.921Z" transform="translate(-202.62 -299.661)" fill="#bee5d8"/>
              </g>
              <g id="Grupo_1200135" data-name="Grupo 1200135">
                <path id="Trazado_1034150" data-name="Trazado 1034150" d="M159.455,236.085,200.7,283.746c4.77,5.815-2.805,13.337-8.581,8.552L144.6,250.889a10.512,10.512,0,1,1,14.854-14.8Z" transform="translate(-139.049 -157.457)" fill="#bf6d60"/>
                <path id="Trazado_1034151" data-name="Trazado 1034151" d="M199.192,135.7a17.879,17.879,0,0,0-15.816,5.585c-5.741,6.1-42.163,58.5-44.79,75.107C136.036,232.512,180,266.056,180,266.056a41.492,41.492,0,0,0,14.671-18.25l-27.8-29.769,31.414-50.863Z" transform="translate(-138.479 -135.492)" fill="#fff"/>
              </g>
            </g>
            <g id="Grupo_1200138" data-name="Grupo 1200138" transform="translate(54.085 89.031)">
              <path id="Trazado_1034152" data-name="Trazado 1034152" d="M208.822,183.448a.42.42,0,0,1-.382-.595c.036-.078,3.593-7.934,3.8-15.385a.451.451,0,0,1,.432-.408.42.42,0,0,1,.408.432,45.294,45.294,0,0,1-3.205,14.09,11.485,11.485,0,0,0,3.327-4.861.42.42,0,0,1,.816.2c-.032.133-.849,3.287-4.94,6.437A.425.425,0,0,1,208.822,183.448Z" transform="translate(-208.402 -161.072)" fill="#bee5d8"/>
              <path id="Trazado_1034153" data-name="Trazado 1034153" d="M293.782,211.153a.42.42,0,0,1-.2-.789c.093-.05,9.23-5.192,8.742-15.387-.37-7.711-4.5-13.407-8.491-18.916l-.374-.516a.423.423,0,0,1-.08-.254c0-.1.179-10.146-1.781-15.406a.42.42,0,1,1,.787-.293c1.911,5.127,1.854,14.274,1.835,15.574l.292.4c3.876,5.347,8.269,11.407,8.651,19.368.514,10.731-9.08,16.113-9.177,16.165A.436.436,0,0,1,293.782,211.153Z" transform="translate(-227.24 -159.318)" fill="#bee5d8"/>
              <g id="Grupo_1200137" data-name="Grupo 1200137" transform="translate(6.208 36.82)">
                <path id="Trazado_1034154" data-name="Trazado 1034154" d="M237.3,219.81c-12.854,0-19.612-7.527-20.863-12.363a.42.42,0,1,1,.814-.21c1.3,5.018,8.6,11.937,20.711,11.726a.4.4,0,0,1,.429.411.42.42,0,0,1-.411.429C237.755,219.807,237.528,219.81,237.3,219.81Z" transform="translate(-216.428 -206.921)" fill="#bee5d8"/>
              </g>
              <path id="Trazado_1034155" data-name="Trazado 1034155" d="M294.3,175.443a.421.421,0,0,1-.231-.773,7.155,7.155,0,0,0,2.658-4.192.421.421,0,0,1,.827.155,7.89,7.89,0,0,1-3.024,4.741A.43.43,0,0,1,294.3,175.443Z" transform="translate(-227.763 -161.768)" fill="#bee5d8"/>
              <path id="Trazado_1034156" data-name="Trazado 1034156" d="M296.076,254.625a.421.421,0,0,1-.42-.4,116.2,116.2,0,0,1,3.4-33.744.42.42,0,0,1,.815.207,115.387,115.387,0,0,0-3.379,33.5.42.42,0,0,1-.4.439Z" transform="translate(-228.139 -173.1)" fill="#bee5d8"/>
            </g>
            <g id="Grupo_1200141" data-name="Grupo 1200141" transform="translate(63.713 70.604)">
              <g id="Grupo_1200140" data-name="Grupo 1200140" transform="translate(3.04)">
                <g id="Grupo_1200139" data-name="Grupo 1200139">
                  <path id="Trazado_1034157" data-name="Trazado 1034157" d="M234.529,135.495a11.535,11.535,0,0,0-4.005,2.618c-2.993,3.061-3.778,7.595-4.28,11.6a189.728,189.728,0,0,0-.29,44.576.427.427,0,0,0,.465.371.421.421,0,0,0,.371-.465,188.832,188.832,0,0,1,.289-44.377c.484-3.874,1.236-8.248,4.047-11.122a10.488,10.488,0,0,1,3.215-2.217Z" transform="translate(-224.781 -135.495)" fill="#4b9da3"/>
                  <path id="Trazado_1034158" data-name="Trazado 1034158" d="M279.928,150c-1.544-4.176-3.444-8.426-6.869-11.225a16.78,16.78,0,0,0-6.014-3.069l.162.924a15.74,15.74,0,0,1,5.321,2.795c3.269,2.672,5.11,6.8,6.613,10.868a127.622,127.622,0,0,1,7.944,44.487.42.42,0,1,0,.84,0A128.445,128.445,0,0,0,279.928,150Z" transform="translate(-234.354 -135.543)" fill="#4b9da3"/>
                </g>
              </g>
              <path id="Trazado_1034159" data-name="Trazado 1034159" d="M239.015,238.448a.42.42,0,0,1-.405-.531,29.447,29.447,0,0,0-1.855-20.16,14.1,14.1,0,0,0-3.624-4.994,6.394,6.394,0,0,0-10.453,2.44,13.608,13.608,0,0,0-.931,6.681,26.087,26.087,0,0,0,6.842,15.814.42.42,0,1,1-.617.571,26.933,26.933,0,0,1-7.064-16.326,14.41,14.41,0,0,1,1-7.088,7.226,7.226,0,0,1,11.751-2.741,14.907,14.907,0,0,1,3.848,5.278,30.308,30.308,0,0,1,1.907,20.745A.414.414,0,0,1,239.015,238.448Z" transform="translate(-220.85 -152.406)" fill="#4b9da3"/>
              <circle id="Elipse_12202" data-name="Elipse 12202" cx="5.63" cy="5.63" r="5.63" transform="translate(49.49 59.172)" fill="#4b9da3"/>
              <circle id="Elipse_12203" data-name="Elipse 12203" cx="4.24" cy="4.24" r="4.24" transform="translate(50.881 60.563)" fill="#383d84"/>
              <path id="Trazado_1034160" data-name="Trazado 1034160" d="M229.574,244.5a1.682,1.682,0,0,0,0,3.362A1.682,1.682,0,0,0,229.574,244.5Z" transform="translate(-222.458 -160.186)" fill="#4b9da3"/>
              <path id="Trazado_1034161" data-name="Trazado 1034161" d="M243.82,243.439a1.682,1.682,0,0,0,0,3.362A1.682,1.682,0,0,0,243.82,243.439Z" transform="translate(-225.685 -159.945)" fill="#4b9da3"/>
            </g>
          </g>
          <g id="Grupo_1200165" data-name="Grupo 1200165" transform="translate(89.034 204.228)">
            <g id="Grupo_1200145" data-name="Grupo 1200145" transform="translate(1.147 61.311)">
              <path id="Trazado_1034162" data-name="Trazado 1034162" d="M140.321,389.986h-60.8a2.878,2.878,0,0,1-2.878-2.878V304.435a2.878,2.878,0,0,1,2.878-2.878h60.8a2.878,2.878,0,0,1,2.878,2.878v82.673A2.878,2.878,0,0,1,140.321,389.986Z" transform="translate(-76.643 -295.158)" fill="#2e516d"/>
              <rect id="Rectángulo_408773" data-name="Rectángulo 408773" width="56.029" height="74.912" transform="translate(5.264 13.392)" fill="#fff"/>
              <path id="Trazado_1034163" data-name="Trazado 1034163" d="M103.559,323.976H99.423v-4.136a1.733,1.733,0,0,0-1.733-1.733h0a1.733,1.733,0,0,0-1.733,1.733v4.136H91.822a1.733,1.733,0,0,0-1.733,1.733h0a1.733,1.733,0,0,0,1.733,1.733h4.136v4.136a1.733,1.733,0,0,0,1.733,1.733h0a1.733,1.733,0,0,0,1.733-1.733v-4.136h4.136a1.733,1.733,0,0,0,1.733-1.733h0A1.733,1.733,0,0,0,103.559,323.976Z" transform="translate(-79.689 -298.907)" fill="#e8748a"/>
              <g id="Grupo_1200143" data-name="Grupo 1200143" transform="translate(18.201)">
                <path id="Trazado_1034164" data-name="Trazado 1034164" d="M121.421,299.665h-7.6a3.191,3.191,0,0,1-3.191-3.191h0a3.191,3.191,0,0,1,3.191-3.191h7.6a3.191,3.191,0,0,1,3.191,3.191h0A3.191,3.191,0,0,1,121.421,299.665Z" transform="translate(-102.541 -293.284)" fill="#4b9da3"/>
                <path id="Trazado_1034165" data-name="Trazado 1034165" d="M127.392,303.609H103.109a2.935,2.935,0,0,1-2.935-2.935h0a2.935,2.935,0,0,1,2.935-2.935h24.284a2.935,2.935,0,0,1,2.935,2.935h0A2.935,2.935,0,0,1,127.392,303.609Z" transform="translate(-100.174 -294.293)" fill="#b53755"/>
              </g>
              <g id="Grupo_1200144" data-name="Grupo 1200144" transform="translate(9.98 20.123)">
                <path id="Trazado_1034166" data-name="Trazado 1034166" d="M141.735,320.14h-26.48a.42.42,0,1,1,0-.84h26.48a.42.42,0,0,1,0,.84Z" transform="translate(-95.274 -319.3)" fill="#bee5d8"/>
                <path id="Trazado_1034167" data-name="Trazado 1034167" d="M141.735,324.819h-26.48a.42.42,0,1,1,0-.84h26.48a.42.42,0,0,1,0,.84Z" transform="translate(-95.274 -320.36)" fill="#bee5d8"/>
                <path id="Trazado_1034168" data-name="Trazado 1034168" d="M141.735,329.5h-26.48a.42.42,0,1,1,0-.84h26.48a.42.42,0,0,1,0,.84Z" transform="translate(-95.274 -321.419)" fill="#bee5d8"/>
                <path id="Trazado_1034169" data-name="Trazado 1034169" d="M141.735,334.174h-26.48a.42.42,0,0,1,0-.84h26.48a.42.42,0,0,1,0,.84Z" transform="translate(-95.274 -322.479)" fill="#bee5d8"/>
                <path id="Trazado_1034170" data-name="Trazado 1034170" d="M141.735,338.852h-26.48a.42.42,0,0,1,0-.84h26.48a.42.42,0,0,1,0,.84Z" transform="translate(-95.274 -323.538)" fill="#bee5d8"/>
                <path id="Trazado_1034171" data-name="Trazado 1034171" d="M136.006,343.53H89.966a.42.42,0,1,1,0-.84h46.04a.42.42,0,1,1,0,.84Z" transform="translate(-89.546 -324.598)" fill="#bee5d8"/>
                <path id="Trazado_1034172" data-name="Trazado 1034172" d="M136.006,348.467H89.966a.42.42,0,1,1,0-.84h46.04a.42.42,0,1,1,0,.84Z" transform="translate(-89.546 -325.716)" fill="#bee5d8"/>
                <path id="Trazado_1034173" data-name="Trazado 1034173" d="M136.006,353.4H89.966a.42.42,0,0,1,0-.84h46.04a.42.42,0,0,1,0,.84Z" transform="translate(-89.546 -326.834)" fill="#bee5d8"/>
                <path id="Trazado_1034174" data-name="Trazado 1034174" d="M136.006,358.339H89.966a.42.42,0,1,1,0-.84h46.04a.42.42,0,1,1,0,.84Z" transform="translate(-89.546 -327.952)" fill="#bee5d8"/>
                <path id="Trazado_1034175" data-name="Trazado 1034175" d="M136.006,363.276H89.966a.42.42,0,1,1,0-.84h46.04a.42.42,0,1,1,0,.84Z" transform="translate(-89.546 -329.071)" fill="#bee5d8"/>
                <path id="Trazado_1034176" data-name="Trazado 1034176" d="M136.006,368.212H89.966a.42.42,0,1,1,0-.84h46.04a.42.42,0,1,1,0,.84Z" transform="translate(-89.546 -330.189)" fill="#bee5d8"/>
                <path id="Trazado_1034177" data-name="Trazado 1034177" d="M136.006,373.149H89.966a.42.42,0,1,1,0-.84h46.04a.42.42,0,1,1,0,.84Z" transform="translate(-89.546 -331.307)" fill="#bee5d8"/>
                <path id="Trazado_1034178" data-name="Trazado 1034178" d="M136.006,378.086H89.966a.42.42,0,1,1,0-.84h46.04a.42.42,0,1,1,0,.84Z" transform="translate(-89.546 -332.425)" fill="#bee5d8"/>
                <path id="Trazado_1034179" data-name="Trazado 1034179" d="M136.006,383.022H89.966a.42.42,0,1,1,0-.84h46.04a.42.42,0,1,1,0,.84Z" transform="translate(-89.546 -333.543)" fill="#bee5d8"/>
                <path id="Trazado_1034180" data-name="Trazado 1034180" d="M136.006,387.958H89.966a.42.42,0,1,1,0-.84h46.04a.42.42,0,0,1,0,.84Z" transform="translate(-89.546 -334.661)" fill="#bee5d8"/>
                <path id="Trazado_1034181" data-name="Trazado 1034181" d="M136.006,392.9H89.966a.42.42,0,1,1,0-.84h46.04a.42.42,0,1,1,0,.84Z" transform="translate(-89.546 -335.78)" fill="#bee5d8"/>
                <path id="Trazado_1034182" data-name="Trazado 1034182" d="M136.006,397.832H89.966a.42.42,0,1,1,0-.84h46.04a.42.42,0,1,1,0,.84Z" transform="translate(-89.546 -336.898)" fill="#bee5d8"/>
                <path id="Trazado_1034183" data-name="Trazado 1034183" d="M136.006,402.768H89.966a.42.42,0,1,1,0-.84h46.04a.42.42,0,0,1,0,.84Z" transform="translate(-89.546 -338.016)" fill="#bee5d8"/>
              </g>
              <path id="Trazado_1034184" data-name="Trazado 1034184" d="M112.762,301.1h-7.977a1.049,1.049,0,0,1-1.049-1.048h0a1.048,1.048,0,0,1,1.049-1.048h7.977a1.049,1.049,0,0,1,1.049,1.048h0A1.05,1.05,0,0,1,112.762,301.1Z" transform="translate(-82.78 -294.58)" fill="#fff" opacity="0.4"/>
            </g>
            <g id="Grupo_1200147" data-name="Grupo 1200147" transform="translate(179.605 79.111)">
              <path id="Trazado_1034185" data-name="Trazado 1034185" d="M385.968,408.287H313.051a5.691,5.691,0,0,1-5.691-5.691V346.489a5.691,5.691,0,0,1,5.691-5.691h72.918a5.691,5.691,0,0,1,5.691,5.691V402.6A5.691,5.691,0,0,1,385.968,408.287Z" transform="translate(-307.36 -321.846)" fill="#4b9da3"/>
              <path id="Trazado_1034186" data-name="Trazado 1034186" d="M375.642,360.3a2.342,2.342,0,0,1-2.342-2.342V334.027a13.061,13.061,0,0,0-13.046-13.046H350.091a13.061,13.061,0,0,0-13.046,13.046V357.96a2.342,2.342,0,0,1-4.684,0V334.027A17.751,17.751,0,0,1,350.092,316.3h10.163a17.751,17.751,0,0,1,17.731,17.732V357.96A2.344,2.344,0,0,1,375.642,360.3Z" transform="translate(-313.023 -316.296)" fill="#2e516d"/>
              <path id="Trazado_1034187" data-name="Trazado 1034187" d="M384.61,414.938H320.247V375.411a5.25,5.25,0,0,1,5.25-5.25H379.36a5.25,5.25,0,0,1,5.25,5.25Z" transform="translate(-310.279 -328.497)" fill="#a1d6cd"/>
              <path id="Trazado_1034188" data-name="Trazado 1034188" d="M366.425,402.231h-5.191V397.04a2.174,2.174,0,0,0-2.174-2.174h0a2.174,2.174,0,0,0-2.174,2.174v5.191h-5.191a2.174,2.174,0,0,0-2.174,2.174h0a2.174,2.174,0,0,0,2.174,2.174h5.191v5.191a2.174,2.174,0,0,0,2.174,2.174h0a2.174,2.174,0,0,0,2.174-2.174V406.58h5.191a2.174,2.174,0,0,0,2.174-2.174h0A2.175,2.175,0,0,0,366.425,402.231Z" transform="translate(-316.91 -334.093)" fill="#fff"/>
              <g id="Grupo_1200146" data-name="Grupo 1200146" transform="translate(9.968 50.812)">
                <rect id="Rectángulo_408774" data-name="Rectángulo 408774" width="64.363" height="0.78" transform="translate(0 0.002)" fill="#2e516d"/>
                <path id="Trazado_1034189" data-name="Trazado 1034189" d="M394.507,389.064a.391.391,0,0,1-.391-.391v-6.295a.391.391,0,1,1,.781,0v6.295A.391.391,0,0,1,394.507,389.064Z" transform="translate(-336.979 -381.988)" fill="#2e516d"/>
              </g>
              <path id="Trazado_1034190" data-name="Trazado 1034190" d="M408.935,377.812h0a2.823,2.823,0,0,1-2.822-2.822V354.625a2.823,2.823,0,0,1,2.822-2.822h0a2.823,2.823,0,0,1,2.822,2.822V374.99A2.823,2.823,0,0,1,408.935,377.812Z" transform="translate(-329.729 -324.339)" fill="#fff" opacity="0.4"/>
              <path id="Trazado_1034191" data-name="Trazado 1034191" d="M408.935,397.683h0a2.823,2.823,0,0,1-2.822-2.822v-2.324a2.823,2.823,0,0,1,2.822-2.822h0a2.823,2.823,0,0,1,2.822,2.822v2.324A2.822,2.822,0,0,1,408.935,397.683Z" transform="translate(-329.729 -332.926)" fill="#fff" opacity="0.4"/>
            </g>
            <g id="Grupo_1200157" data-name="Grupo 1200157" transform="translate(246.276 15.363)">
              <path id="Trazado_1034192" data-name="Trazado 1034192" d="M426.678,264.3H395.689a2.133,2.133,0,0,1-2.133-2.133V236.013a2.133,2.133,0,0,1,2.133-2.133h30.989a2.133,2.133,0,0,1,2.133,2.133v26.149A2.133,2.133,0,0,1,426.678,264.3Z" transform="translate(-393.556 -233.88)" fill="#2e516d"/>
              <g id="Grupo_1200148" data-name="Grupo 1200148" transform="translate(4.641 3.445)">
                <circle id="Elipse_12204" data-name="Elipse 12204" cx="2.624" cy="2.624" r="2.624" transform="translate(0 0.001)" fill="#4b9da3"/>
                <path id="Trazado_1034193" data-name="Trazado 1034193" d="M402.715,243.565c.061,0,.119.019.181.019s.12-.014.181-.019v-5.213c-.061,0-.119-.019-.181-.019s-.121.014-.181.019Z" transform="translate(-400.272 -238.334)" fill="#6cbfbb"/>
              </g>
              <g id="Grupo_1200149" data-name="Grupo 1200149" transform="translate(15.007 3.445)">
                <circle id="Elipse_12205" data-name="Elipse 12205" cx="2.624" cy="2.624" r="2.624" transform="translate(0 0.001)" fill="#4b9da3"/>
                <path id="Trazado_1034194" data-name="Trazado 1034194" d="M416.116,243.565c.061,0,.119.019.181.019s.12-.014.181-.019v-5.213c-.061,0-.119-.019-.181-.019s-.12.014-.181.019Z" transform="translate(-413.673 -238.334)" fill="#6cbfbb"/>
              </g>
              <g id="Grupo_1200150" data-name="Grupo 1200150" transform="translate(25.43 3.445)">
                <circle id="Elipse_12206" data-name="Elipse 12206" cx="2.624" cy="2.624" r="2.624" transform="translate(0 0.001)" fill="#4b9da3"/>
                <path id="Trazado_1034195" data-name="Trazado 1034195" d="M429.592,243.565c.061,0,.119.019.181.019s.121-.014.181-.019v-5.213c-.061,0-.119-.019-.181-.019s-.12.014-.181.019Z" transform="translate(-427.149 -238.334)" fill="#6cbfbb"/>
              </g>
              <g id="Grupo_1200151" data-name="Grupo 1200151" transform="translate(4.641 12.88)">
                <circle id="Elipse_12207" data-name="Elipse 12207" cx="2.624" cy="2.624" r="2.624" transform="translate(0 0.001)" fill="#4b9da3"/>
                <path id="Trazado_1034196" data-name="Trazado 1034196" d="M402.715,255.763c.061,0,.119.019.181.019s.12-.014.181-.019v-5.213c-.061,0-.119-.019-.181-.019s-.121.014-.181.019Z" transform="translate(-400.272 -250.532)" fill="#6cbfbb"/>
              </g>
              <g id="Grupo_1200152" data-name="Grupo 1200152" transform="translate(15.007 12.88)">
                <circle id="Elipse_12208" data-name="Elipse 12208" cx="2.624" cy="2.624" r="2.624" transform="translate(0 0.001)" fill="#4b9da3"/>
                <path id="Trazado_1034197" data-name="Trazado 1034197" d="M416.116,255.763c.061,0,.119.019.181.019s.12-.014.181-.019v-5.213c-.061,0-.119-.019-.181-.019s-.12.014-.181.019Z" transform="translate(-413.673 -250.532)" fill="#6cbfbb"/>
              </g>
              <g id="Grupo_1200153" data-name="Grupo 1200153" transform="translate(25.43 12.88)">
                <circle id="Elipse_12209" data-name="Elipse 12209" cx="2.624" cy="2.624" r="2.624" transform="translate(0 0.001)" fill="#4b9da3"/>
                <path id="Trazado_1034198" data-name="Trazado 1034198" d="M429.592,255.763c.061,0,.119.019.181.019s.121-.014.181-.019v-5.213c-.061,0-.119-.019-.181-.019s-.12.014-.181.019Z" transform="translate(-427.149 -250.532)" fill="#6cbfbb"/>
              </g>
              <g id="Grupo_1200154" data-name="Grupo 1200154" transform="translate(4.641 22.315)">
                <circle id="Elipse_12210" data-name="Elipse 12210" cx="2.624" cy="2.624" r="2.624" fill="#4b9da3"/>
                <path id="Trazado_1034199" data-name="Trazado 1034199" d="M402.715,267.961c.061,0,.119.019.181.019s.12-.014.181-.019v-5.213c-.061,0-.119-.019-.181-.019s-.121.014-.181.019Z" transform="translate(-400.272 -262.73)" fill="#6cbfbb"/>
              </g>
              <g id="Grupo_1200155" data-name="Grupo 1200155" transform="translate(15.007 22.315)">
                <circle id="Elipse_12211" data-name="Elipse 12211" cx="2.624" cy="2.624" r="2.624" fill="#4b9da3"/>
                <path id="Trazado_1034200" data-name="Trazado 1034200" d="M416.116,267.961c.061,0,.119.019.181.019s.12-.014.181-.019v-5.213c-.061,0-.119-.019-.181-.019s-.12.014-.181.019Z" transform="translate(-413.673 -262.73)" fill="#6cbfbb"/>
              </g>
              <g id="Grupo_1200156" data-name="Grupo 1200156" transform="translate(25.43 22.315)">
                <circle id="Elipse_12212" data-name="Elipse 12212" cx="2.624" cy="2.624" r="2.624" fill="#4b9da3"/>
                <path id="Trazado_1034201" data-name="Trazado 1034201" d="M429.592,267.961c.061,0,.119.019.181.019s.121-.014.181-.019v-5.213c-.061,0-.119-.019-.181-.019s-.12.014-.181.019Z" transform="translate(-427.149 -262.73)" fill="#6cbfbb"/>
              </g>
            </g>
            <g id="Grupo_1200160" data-name="Grupo 1200160" transform="translate(47.843 85.283)">
              <path id="Trazado_1034202" data-name="Trazado 1034202" d="M175.883,343.449H150.426s-11.495,19.008-13.4,52.675a7.726,7.726,0,0,0,7.709,8.161h36.837a7.726,7.726,0,0,0,7.709-8.161C187.377,362.457,175.883,343.449,175.883,343.449Z" transform="translate(-137.014 -328.619)" fill="#a1d6cd"/>
              <rect id="Rectángulo_408775" data-name="Rectángulo 408775" width="25.543" height="9.08" transform="translate(13.326 9.08)" fill="#a1d6cd"/>
              <path id="Trazado_1034203" data-name="Trazado 1034203" d="M180.011,333.356H152.779a1.265,1.265,0,0,1-1.265-1.265v-6.549a1.265,1.265,0,0,1,1.265-1.265h27.232a1.265,1.265,0,0,1,1.265,1.265v6.549A1.265,1.265,0,0,1,180.011,333.356Z" transform="translate(-140.298 -324.276)" fill="#b53755"/>
              <path id="Trazado_1034204" data-name="Trazado 1034204" d="M137.421,397.608h51.65a146.112,146.112,0,0,0-5.244-28.855H142.665A146.175,146.175,0,0,0,137.421,397.608Z" transform="translate(-137.106 -334.35)" fill="#e8748a"/>
              <path id="Trazado_1034205" data-name="Trazado 1034205" d="M190.77,379.347h-1.976v-1.976a.828.828,0,0,0-.828-.828h0a.828.828,0,0,0-.828.828v1.976h-1.976a.828.828,0,0,0-.828.828h0a.828.828,0,0,0,.828.828h1.976v1.976a.828.828,0,0,0,.828.828h0a.828.828,0,0,0,.828-.828V381h1.976a.828.828,0,0,0,.828-.828h0A.828.828,0,0,0,190.77,379.347Z" transform="translate(-147.732 -336.115)" fill="#fff"/>
              <path id="Trazado_1034206" data-name="Trazado 1034206" d="M190.77,391.683h-1.976v-1.976a.828.828,0,0,0-.828-.828h0a.828.828,0,0,0-.828.828v1.976h-1.976a.828.828,0,0,0-.828.828h0a.828.828,0,0,0,.828.828h1.976v1.976a.828.828,0,0,0,.828.828h0a.828.828,0,0,0,.828-.828v-1.976h1.976a.828.828,0,0,0,.828-.828h0A.828.828,0,0,0,190.77,391.683Z" transform="translate(-147.732 -338.909)" fill="#fff"/>
              <path id="Trazado_1034207" data-name="Trazado 1034207" d="M149.034,371.747h0a1.973,1.973,0,0,1-1.285-2.477l4.994-15.744a1.974,1.974,0,0,1,2.478-1.285h0a1.974,1.974,0,0,1,1.285,2.478l-4.994,15.744A1.974,1.974,0,0,1,149.034,371.747Z" transform="translate(-139.424 -330.589)" fill="#fff" opacity="0.4"/>
              <path id="Trazado_1034208" data-name="Trazado 1034208" d="M145.188,387.86h0a1.973,1.973,0,0,1-1.284-2.478l.671-2.116a1.974,1.974,0,0,1,2.478-1.285h0a1.974,1.974,0,0,1,1.285,2.478l-.671,2.116A1.975,1.975,0,0,1,145.188,387.86Z" transform="translate(-138.553 -337.326)" fill="#fff" opacity="0.4"/>
              <g id="Grupo_1200159" data-name="Grupo 1200159" transform="translate(13.326 10.475)">
                <g id="Grupo_1200158" data-name="Grupo 1200158">
                  <rect id="Rectángulo_408776" data-name="Rectángulo 408776" width="25.543" height="0.387" fill="#c0ede6"/>
                  <rect id="Rectángulo_408777" data-name="Rectángulo 408777" width="25.543" height="0.387" transform="translate(0 1.589)" fill="#c0ede6"/>
                  <rect id="Rectángulo_408778" data-name="Rectángulo 408778" width="25.543" height="0.387" transform="translate(0 3.178)" fill="#c0ede6"/>
                </g>
              </g>
            </g>
            <g id="Grupo_1200161" data-name="Grupo 1200161" transform="translate(0)">
              <path id="Trazado_1034209" data-name="Trazado 1034209" d="M81.144,214.032a6.556,6.556,0,0,0-5.984,6.616V257.27a6.385,6.385,0,0,0,2.4,5,5.177,5.177,0,0,1,1.949,4.04h0a2.056,2.056,0,0,0,2.056,2.056h0a2.056,2.056,0,0,0,2.056-2.056h0a5.176,5.176,0,0,1,1.949-4.04,6.387,6.387,0,0,0,2.4-5V220.428A6.41,6.41,0,0,0,81.144,214.032Z" transform="translate(-75.16 -214.018)" fill="#4b9da3"/>
              <path id="Trazado_1034210" data-name="Trazado 1034210" d="M85.664,231.106H79.127a.323.323,0,0,1,0-.647h6.537a.323.323,0,0,1,0,.647Z" transform="translate(-75.985 -217.742)" fill="#2e516d"/>
              <path id="Trazado_1034211" data-name="Trazado 1034211" d="M85.664,233.887H79.127a.323.323,0,0,1,0-.647h6.537a.323.323,0,1,1,0,.647Z" transform="translate(-75.985 -218.372)" fill="#2e516d"/>
              <path id="Trazado_1034212" data-name="Trazado 1034212" d="M85.664,236.667H79.127a.323.323,0,0,1,0-.647h6.537a.323.323,0,0,1,0,.647Z" transform="translate(-75.985 -219.002)" fill="#2e516d"/>
              <path id="Trazado_1034213" data-name="Trazado 1034213" d="M85.664,239.448H79.127a.323.323,0,0,1,0-.647h6.537a.323.323,0,1,1,0,.647Z" transform="translate(-75.985 -219.632)" fill="#2e516d"/>
              <path id="Trazado_1034214" data-name="Trazado 1034214" d="M85.664,242.229H79.127a.323.323,0,0,1,0-.647h6.537a.323.323,0,1,1,0,.647Z" transform="translate(-75.985 -220.262)" fill="#2e516d"/>
              <path id="Trazado_1034215" data-name="Trazado 1034215" d="M85.664,245.009H79.127a.323.323,0,0,1,0-.647h6.537a.323.323,0,1,1,0,.647Z" transform="translate(-75.985 -220.891)" fill="#2e516d"/>
              <path id="Trazado_1034216" data-name="Trazado 1034216" d="M85.664,247.79H79.127a.323.323,0,0,1,0-.647h6.537a.323.323,0,0,1,0,.647Z" transform="translate(-75.985 -221.521)" fill="#2e516d"/>
              <path id="Trazado_1034217" data-name="Trazado 1034217" d="M85.664,250.571H79.127a.323.323,0,0,1,0-.647h6.537a.323.323,0,1,1,0,.647Z" transform="translate(-75.985 -222.151)" fill="#2e516d"/>
              <path id="Trazado_1034218" data-name="Trazado 1034218" d="M85.664,253.351H79.127a.323.323,0,0,1,0-.647h6.537a.323.323,0,1,1,0,.647Z" transform="translate(-75.985 -222.781)" fill="#2e516d"/>
              <path id="Trazado_1034219" data-name="Trazado 1034219" d="M85.664,256.132H79.127a.323.323,0,1,1,0-.647h6.537a.323.323,0,1,1,0,.647Z" transform="translate(-75.985 -223.411)" fill="#2e516d"/>
              <path id="Trazado_1034220" data-name="Trazado 1034220" d="M85.664,258.913H79.127a.323.323,0,1,1,0-.647h6.537a.323.323,0,1,1,0,.647Z" transform="translate(-75.985 -224.041)" fill="#2e516d"/>
              <path id="Trazado_1034221" data-name="Trazado 1034221" d="M85.664,261.693H79.127a.323.323,0,1,1,0-.647h6.537a.323.323,0,1,1,0,.647Z" transform="translate(-75.985 -224.67)" fill="#2e516d"/>
              <path id="Trazado_1034222" data-name="Trazado 1034222" d="M85.664,264.473H79.127a.323.323,0,1,1,0-.647h6.537a.323.323,0,1,1,0,.647Z" transform="translate(-75.985 -225.3)" fill="#2e516d"/>
              <path id="Trazado_1034223" data-name="Trazado 1034223" d="M85.664,267.254H79.127a.323.323,0,1,1,0-.647h6.537a.323.323,0,1,1,0,.647Z" transform="translate(-75.985 -225.93)" fill="#2e516d"/>
              <path id="Trazado_1034224" data-name="Trazado 1034224" d="M83.133,275.839h0a1.075,1.075,0,0,1-1.075-1.075V223.276h2.151v51.488A1.076,1.076,0,0,1,83.133,275.839Z" transform="translate(-76.722 -216.115)" fill="#fff"/>
              <path id="Trazado_1034225" data-name="Trazado 1034225" d="M83.266,279.414H83a.942.942,0,0,1-.942-.942V239.056h2.151v39.416A.943.943,0,0,1,83.266,279.414Z" transform="translate(-76.722 -219.689)" fill="#e8748a"/>
              <path id="Trazado_1034226" data-name="Trazado 1034226" d="M86.132,222.165a3.8,3.8,0,1,1-3.8-3.8A3.8,3.8,0,0,1,86.132,222.165Z" transform="translate(-75.926 -215.004)" fill="#fff"/>
            </g>
            <g id="Grupo_1200164" data-name="Grupo 1200164" transform="translate(272.039 64.516)">
              <path id="Trazado_1034227" data-name="Trazado 1034227" d="M433.7,358.712a6.556,6.556,0,0,0,5.984-6.616V315.474a6.385,6.385,0,0,0-2.4-5,5.177,5.177,0,0,1-1.949-4.04h0a2.056,2.056,0,0,0-2.056-2.056h0a2.056,2.056,0,0,0-2.056,2.056h0a5.176,5.176,0,0,1-1.949,4.04,6.387,6.387,0,0,0-2.4,5v36.842A6.41,6.41,0,0,0,433.7,358.712Z" transform="translate(-426.863 -299.002)" fill="#2e516d"/>
              <g id="Grupo_1200163" data-name="Grupo 1200163" transform="translate(2.817 18.401)">
                <g id="Grupo_1200162" data-name="Grupo 1200162">
                  <path id="Trazado_1034228" data-name="Trazado 1034228" d="M430.828,357.364h6.537a.323.323,0,1,1,0,.647h-6.537a.323.323,0,0,1,0-.647Z" transform="translate(-430.505 -329.404)" fill="#4b9da3"/>
                  <path id="Trazado_1034229" data-name="Trazado 1034229" d="M430.828,354.583h6.537a.323.323,0,1,1,0,.647h-6.537a.323.323,0,0,1,0-.647Z" transform="translate(-430.505 -328.774)" fill="#4b9da3"/>
                  <path id="Trazado_1034230" data-name="Trazado 1034230" d="M430.828,351.8h6.537a.323.323,0,1,1,0,.647h-6.537a.323.323,0,0,1,0-.647Z" transform="translate(-430.505 -328.144)" fill="#4b9da3"/>
                  <path id="Trazado_1034231" data-name="Trazado 1034231" d="M430.828,349.022h6.537a.323.323,0,1,1,0,.647h-6.537a.323.323,0,0,1,0-.647Z" transform="translate(-430.505 -327.514)" fill="#4b9da3"/>
                  <path id="Trazado_1034232" data-name="Trazado 1034232" d="M430.828,346.241h6.537a.323.323,0,1,1,0,.647h-6.537a.323.323,0,0,1,0-.647Z" transform="translate(-430.505 -326.884)" fill="#4b9da3"/>
                  <path id="Trazado_1034233" data-name="Trazado 1034233" d="M430.828,343.461h6.537a.323.323,0,1,1,0,.647h-6.537a.323.323,0,0,1,0-.647Z" transform="translate(-430.505 -326.255)" fill="#4b9da3"/>
                  <path id="Trazado_1034234" data-name="Trazado 1034234" d="M430.828,340.68h6.537a.323.323,0,1,1,0,.647h-6.537a.323.323,0,1,1,0-.647Z" transform="translate(-430.505 -325.625)" fill="#4b9da3"/>
                  <path id="Trazado_1034235" data-name="Trazado 1034235" d="M430.828,337.9h6.537a.323.323,0,1,1,0,.647h-6.537a.323.323,0,0,1,0-.647Z" transform="translate(-430.505 -324.995)" fill="#4b9da3"/>
                  <path id="Trazado_1034236" data-name="Trazado 1034236" d="M430.828,335.119h6.537a.323.323,0,1,1,0,.647h-6.537a.323.323,0,0,1,0-.647Z" transform="translate(-430.505 -324.365)" fill="#4b9da3"/>
                  <path id="Trazado_1034237" data-name="Trazado 1034237" d="M430.828,332.338h6.537a.323.323,0,1,1,0,.647h-6.537a.323.323,0,0,1,0-.647Z" transform="translate(-430.505 -323.735)" fill="#4b9da3"/>
                  <path id="Trazado_1034238" data-name="Trazado 1034238" d="M430.828,329.557h6.537a.323.323,0,1,1,0,.647h-6.537a.323.323,0,0,1,0-.647Z" transform="translate(-430.505 -323.105)" fill="#4b9da3"/>
                  <path id="Trazado_1034239" data-name="Trazado 1034239" d="M430.828,326.777h6.537a.323.323,0,1,1,0,.647h-6.537a.323.323,0,1,1,0-.647Z" transform="translate(-430.505 -322.476)" fill="#4b9da3"/>
                  <path id="Trazado_1034240" data-name="Trazado 1034240" d="M430.828,324h6.537a.323.323,0,1,1,0,.647h-6.537a.323.323,0,0,1,0-.647Z" transform="translate(-430.505 -321.846)" fill="#4b9da3"/>
                  <path id="Trazado_1034241" data-name="Trazado 1034241" d="M430.828,321.216h6.537a.323.323,0,1,1,0,.647h-6.537a.323.323,0,0,1,0-.647Z" transform="translate(-430.505 -321.216)" fill="#4b9da3"/>
                </g>
              </g>
              <path id="Trazado_1034242" data-name="Trazado 1034242" d="M434.834,297.427h0a1.075,1.075,0,0,1,1.075,1.075V349.99h-2.151V298.5A1.076,1.076,0,0,1,434.834,297.427Z" transform="translate(-428.425 -297.427)" fill="#fff"/>
              <path id="Trazado_1034243" data-name="Trazado 1034243" d="M434.7,297.427h.266a.942.942,0,0,1,.942.942v39.416h-2.151V298.369A.943.943,0,0,1,434.7,297.427Z" transform="translate(-428.425 -297.427)" fill="#b53755"/>
              <path id="Trazado_1034244" data-name="Trazado 1034244" d="M430.242,364.272a3.8,3.8,0,1,1,3.8,3.8A3.8,3.8,0,0,1,430.242,364.272Z" transform="translate(-427.628 -311.708)" fill="#fff"/>
            </g>
          </g>
          <g id="Grupo_1200170" data-name="Grupo 1200170" transform="translate(119.024 78.872)">
            <g id="Grupo_1200167" data-name="Grupo 1200167" transform="translate(0 45.767)">
              <path id="Trazado_1034245" data-name="Trazado 1034245" d="M158.843,122.351a11.228,11.228,0,1,0-22.455,0c0,.274.022.543.041.812h-.082c.019-.269.041-.538.041-.812a11.228,11.228,0,1,0-22.456,0c0,.274.022.543.041.812h-.009s.006.1.022.278c0,.036.007.071.011.107.3,3.123,3.044,15.6,22.389,28.991,19.346-13.394,22.093-25.869,22.389-28.991,0-.036.007-.071.011-.107.016-.183.022-.278.022-.278H158.8C158.822,122.894,158.843,122.625,158.843,122.351Z" transform="translate(-113.932 -111.123)" fill="#e8748a"/>
              <g id="Grupo_1200166" data-name="Grupo 1200166" transform="translate(12.708 12.481)">
                <path id="Trazado_1034246" data-name="Trazado 1034246" d="M145.251,136.247h-2.129v-2.129a1.886,1.886,0,0,0-1.886-1.886h0a1.886,1.886,0,0,0-1.886,1.886v2.129h-2.129a1.886,1.886,0,1,0,0,3.772h2.129v2.129a1.886,1.886,0,0,0,1.886,1.886h0a1.886,1.886,0,0,0,1.886-1.886v-2.129h2.129a1.886,1.886,0,1,0,0-3.772Z" transform="translate(-131.488 -128.385)" fill="#fff"/>
                <path id="Trazado_1034247" data-name="Trazado 1034247" d="M140.11,146.755a9.748,9.748,0,1,1,9.748-9.748A9.76,9.76,0,0,1,140.11,146.755Zm0-18.609a8.861,8.861,0,1,0,8.861,8.86A8.87,8.87,0,0,0,140.11,128.146Z" transform="translate(-130.362 -127.259)" fill="#fff"/>
              </g>
              <path id="Trazado_1034248" data-name="Trazado 1034248" d="M117.969,122.121h0a2.614,2.614,0,0,1,.724-3.625l4.926-3.286a2.614,2.614,0,0,1,3.625.724h0a2.614,2.614,0,0,1-.724,3.625l-4.926,3.286A2.614,2.614,0,0,1,117.969,122.121Z" transform="translate(-114.747 -111.949)" fill="#fff" opacity="0.4"/>
            </g>
            <g id="Grupo_1200169" data-name="Grupo 1200169" transform="translate(166.155)">
              <path id="Trazado_1034249" data-name="Trazado 1034249" d="M373.654,63.181a11.228,11.228,0,1,0-22.455,0c0,.275.022.543.041.812h-.082c.019-.269.041-.538.041-.812a11.228,11.228,0,1,0-22.455,0c0,.275.022.543.041.812h-.008s.006.1.022.278c0,.036.007.071.011.107.3,3.123,3.044,15.6,22.389,28.991,19.346-13.394,22.093-25.869,22.389-28.991,0-.036.007-.071.011-.107.016-.183.022-.278.022-.278h-.009C373.633,63.724,373.654,63.455,373.654,63.181Z" transform="translate(-328.744 -51.953)" fill="#b53755"/>
              <g id="Grupo_1200168" data-name="Grupo 1200168" transform="translate(12.707 12.481)">
                <path id="Trazado_1034250" data-name="Trazado 1034250" d="M360.062,77.077h-2.129V74.948a1.886,1.886,0,0,0-1.886-1.886h0a1.886,1.886,0,0,0-1.886,1.886v2.129h-2.129a1.886,1.886,0,1,0,0,3.772h2.129v2.129a1.886,1.886,0,0,0,1.886,1.886h0a1.886,1.886,0,0,0,1.886-1.886V80.849h2.129a1.886,1.886,0,0,0,0-3.772Z" transform="translate(-346.299 -69.215)" fill="#fff"/>
                <path id="Trazado_1034251" data-name="Trazado 1034251" d="M354.919,87.585a9.748,9.748,0,1,1,9.748-9.748A9.759,9.759,0,0,1,354.919,87.585Zm0-18.609a8.861,8.861,0,1,0,8.861,8.86A8.87,8.87,0,0,0,354.919,68.976Z" transform="translate(-345.172 -68.089)" fill="#fff"/>
              </g>
              <path id="Trazado_1034252" data-name="Trazado 1034252" d="M332.779,62.951h0a2.614,2.614,0,0,1,.724-3.625l4.926-3.286a2.614,2.614,0,0,1,3.625.724h0a2.614,2.614,0,0,1-.724,3.625L336.4,63.675A2.614,2.614,0,0,1,332.779,62.951Z" transform="translate(-329.559 -52.779)" fill="#fff" opacity="0.4"/>
            </g>
          </g>
          <g id="Grupo_1200172" data-name="Grupo 1200172" transform="translate(89.105 97.706)">
            <path id="Trazado_1034254" data-name="Trazado 1034254" d="M181.779,76.3a7.709,7.709,0,0,1-7.415,7.258,7.709,7.709,0,0,1,7.415,7.258,7.709,7.709,0,0,1,7.415-7.258A7.709,7.709,0,0,1,181.779,76.3Z" transform="translate(-97.701 -76.302)" fill="#fff"/>
            <path id="Trazado_1034255" data-name="Trazado 1034255" d="M414.413,196.244A7.709,7.709,0,0,1,407,203.5a7.709,7.709,0,0,1,7.415,7.258,7.709,7.709,0,0,1,7.415-7.258A7.709,7.709,0,0,1,414.413,196.244Z" transform="translate(-150.395 -103.47)" fill="#fff"/>
            <path id="Trazado_1034256" data-name="Trazado 1034256" d="M82.666,171.769a7.709,7.709,0,0,1-7.415,7.258,7.709,7.709,0,0,1,7.415,7.258,7.709,7.709,0,0,1,7.415-7.258A7.709,7.709,0,0,1,82.666,171.769Z" transform="translate(-75.251 -97.926)" fill="#fff"/>
            <path id="Trazado_1034257" data-name="Trazado 1034257" d="M159.053,91.342a4.642,4.642,0,0,1-4.466,4.371,4.644,4.644,0,0,1,4.466,4.372,4.644,4.644,0,0,1,4.466-4.372A4.643,4.643,0,0,1,159.053,91.342Z" transform="translate(-93.221 -79.709)" fill="#fff"/>
            <path id="Trazado_1034258" data-name="Trazado 1034258" d="M192.23,111.395a4.644,4.644,0,0,1-4.466,4.372,4.642,4.642,0,0,1,4.466,4.371,4.642,4.642,0,0,1,4.466-4.371A4.644,4.644,0,0,1,192.23,111.395Z" transform="translate(-100.736 -84.251)" fill="#fff"/>
            <path id="Trazado_1034259" data-name="Trazado 1034259" d="M374.844,124.456a4.644,4.644,0,0,1-4.466,4.372,4.642,4.642,0,0,1,4.466,4.371,4.642,4.642,0,0,1,4.466-4.371A4.644,4.644,0,0,1,374.844,124.456Z" transform="translate(-142.1 -87.209)" fill="#fff"/>
            <path id="Trazado_1034260" data-name="Trazado 1034260" d="M404.8,182.892a4.644,4.644,0,0,1-4.467,4.372,4.644,4.644,0,0,1,4.467,4.371,4.642,4.642,0,0,1,4.466-4.371A4.643,4.643,0,0,1,404.8,182.892Z" transform="translate(-148.886 -100.446)" fill="#fff"/>
            <path id="Trazado_1034261" data-name="Trazado 1034261" d="M106.768,251.667a4.643,4.643,0,0,1-4.466,4.372,4.643,4.643,0,0,1,4.466,4.372,4.644,4.644,0,0,1,4.466-4.372A4.643,4.643,0,0,1,106.768,251.667Z" transform="translate(-81.378 -116.024)" fill="#fff"/>
          </g>
        </g>
      </g>
    </g>
  </g>
</svg>
