<svg xmlns="http://www.w3.org/2000/svg" xmlns:xlink="http://www.w3.org/1999/xlink" width="400" height="157.369" viewBox="0 0 400 157.369">
  <defs>
    <clipPath id="clip-path">
      <rect id="Rectángulo_408362" data-name="Rectángulo 408362" width="400" height="117" transform="translate(1020.051 3770)" fill="#2e435d" stroke="#707070" stroke-width="1" opacity="0.56"/>
    </clipPath>
    <filter id="Rectángulo_404858" x="-1.758" y="-106.834" width="409.516" height="308.365" filterUnits="userSpaceOnUse">
      <feOffset dx="3" dy="6" input="SourceAlpha"/>
      <feGaussianBlur stdDeviation="5" result="blur"/>
      <feFlood flood-opacity="0.161"/>
      <feComposite operator="in" in2="blur"/>
      <feComposite in="SourceGraphic"/>
    </filter>
    <filter id="Rectángulo_401593" x="147.893" y="0" width="92.18" height="157.369" filterUnits="userSpaceOnUse">
      <feOffset dy="3" input="SourceAlpha"/>
      <feGaussianBlur stdDeviation="3" result="blur-2"/>
      <feFlood flood-opacity="0.161"/>
      <feComposite operator="in" in2="blur-2"/>
      <feComposite in="SourceGraphic"/>
    </filter>
  </defs>
  <g id="Grupo_1200179" data-name="Grupo 1200179" transform="translate(-1020.012 -7907.011)">
    <g id="Grupo_1198808" data-name="Grupo 1198808" transform="translate(-0.038 4165.182)">
      <g id="Enmascarar_grupo_1098800" data-name="Enmascarar grupo 1098800" clip-path="url(#clip-path)">
        <g id="Grupo_1118021" data-name="Grupo 1118021" transform="translate(417.104 1424.356)">
          <g transform="matrix(1, 0, 0, 1, 602.95, 2317.47)" filter="url(#Rectángulo_404858)">
            <rect id="Rectángulo_404858-2" data-name="Rectángulo 404858" width="379.516" height="278.365" rx="8" transform="translate(10.24 -97.83)" fill="#e2dacc"/>
          </g>
          <g id="Grupo_1182091" data-name="Grupo 1182091" transform="translate(597.49 2195.327)">
            <g id="Grupo_1113680" data-name="Grupo 1113680" transform="translate(0 0)">
              <g id="BACKGROUND" transform="translate(0 0)">
                <rect id="Rectángulo_404843" data-name="Rectángulo 404843" width="410.558" height="309.406" fill="#f9e5d6"/>
              </g>
              <g id="OBJECTS" transform="translate(0 18.214)">
                <g id="Grupo_1113353" data-name="Grupo 1113353">
                  <g id="Grupo_1113322" data-name="Grupo 1113322" transform="translate(152.243 19.822)">
                    <g id="Grupo_1113321" data-name="Grupo 1113321">
                      <g id="Grupo_1113320" data-name="Grupo 1113320">
                        <path id="Trazado_902486" data-name="Trazado 902486" d="M244.231,76.954s-2.806-9.587-8.886-8.886-7.015,3.508-12.159,1.4-7.015-8.886-15.433-7.249S198.4,73.212,188.812,72.51s-12.861-.935-16.368,4.443Z" transform="translate(-172.444 -61.97)" fill="#fff"/>
                      </g>
                    </g>
                  </g>
                  <g id="Grupo_1113325" data-name="Grupo 1113325" transform="translate(0 135.874)">
                    <g id="Grupo_1113324" data-name="Grupo 1113324">
                      <g id="Grupo_1113323" data-name="Grupo 1113323">
                        <path id="Trazado_902487" data-name="Trazado 902487" d="M0,264.278H52.181s-2.806-9.587-8.885-8.886-7.015,3.508-12.159,1.4-7.015-8.886-15.434-7.249c-7.359,1.431-9,8.759-15.7,10.111Z" transform="translate(0 -249.294)" fill="#fff"/>
                      </g>
                    </g>
                  </g>
                  <g id="Grupo_1113328" data-name="Grupo 1113328" transform="translate(348.979 133.516)">
                    <g id="Grupo_1113327" data-name="Grupo 1113327">
                      <g id="Grupo_1113326" data-name="Grupo 1113326">
                        <path id="Trazado_902488" data-name="Trazado 902488" d="M461.963,251.723c-5.228.863-6.334,3.254-11.192,1.266-5.144-2.1-7.015-8.886-15.433-7.249s-9.354,10.99-18.941,10.289-12.861-.936-16.368,4.443h61.934Z" transform="translate(-400.029 -245.488)" fill="#fff"/>
                      </g>
                    </g>
                  </g>
                  <g id="Grupo_1113330" data-name="Grupo 1113330" transform="translate(34.932 42.11)">
                    <g id="Grupo_1113329" data-name="Grupo 1113329">
                      <path id="Trazado_902489" data-name="Trazado 902489" d="M67.587,101.221s-6.532-4.965-11.2-2.381c0,0,7.835.256,11.277,4.457,0,0,4.746-5.387,10.413-4.508C78.076,98.789,73.954,95.745,67.587,101.221Z" transform="translate(-56.386 -97.945)" fill="#1e1c18"/>
                      <path id="Trazado_902490" data-name="Trazado 902490" d="M110.9,101.52s-4.347-2.992-7.268-1.189c0,0,5.04-.073,7.38,2.521,0,0,2.886-3.6,6.553-3.212C117.567,99.64,114.827,97.809,110.9,101.52Z" transform="translate(-74.363 -98.418)" fill="#1e1c18"/>
                    </g>
                  </g>
                  <g id="Grupo_1113333" data-name="Grupo 1113333" transform="translate(17.432 3.674)">
                    <g id="Grupo_1113332" data-name="Grupo 1113332">
                      <g id="Grupo_1113331" data-name="Grupo 1113331">
                        <path id="Trazado_902491" data-name="Trazado 902491" d="M92.671,50.628s-3.251-7.188-12.127-5.045c-8.776,2.118-12.555-10.45-20.369-9.642S53.065,41.65,43.1,43.267s-10.76,0-14.959,7.362Z" transform="translate(-28.137 -35.905)" fill="#fff"/>
                      </g>
                    </g>
                  </g>
                  <g id="Grupo_1113337" data-name="Grupo 1113337" transform="translate(332.04 93.042)">
                    <g id="Grupo_1113336" data-name="Grupo 1113336">
                      <g id="Grupo_1113335" data-name="Grupo 1113335">
                        <g id="Grupo_1113334" data-name="Grupo 1113334">
                          <path id="Trazado_902492" data-name="Trazado 902492" d="M419.159,190.76s-2.34-5.176-8.733-3.633c-6.319,1.525-9.041-7.525-14.669-6.943s-5.119,4.11-12.3,5.275-7.748,0-10.772,5.3Z" transform="translate(-372.687 -180.157)" fill="#fff"/>
                        </g>
                      </g>
                    </g>
                  </g>
                  <g id="Grupo_1113340" data-name="Grupo 1113340" transform="translate(91.366 71.653)">
                    <g id="Grupo_1113339" data-name="Grupo 1113339">
                      <g id="Grupo_1113338" data-name="Grupo 1113338">
                        <path id="Trazado_902493" data-name="Trazado 902493" d="M153.017,156.235s-2.341-5.175-8.733-3.633c-6.32,1.525-9.041-7.525-14.668-6.943s-5.119,4.111-12.3,5.275-7.748,0-10.772,5.3Z" transform="translate(-106.545 -145.633)" fill="#fff"/>
                      </g>
                    </g>
                  </g>
                  <g id="Grupo_1113343" data-name="Grupo 1113343" transform="translate(271.332 46.952)">
                    <g id="Grupo_1113342" data-name="Grupo 1113342">
                      <g id="Grupo_1113341" data-name="Grupo 1113341">
                        <path id="Trazado_902494" data-name="Trazado 902494" d="M362.882,116.363s-2.341-5.175-8.733-3.633c-6.32,1.525-9.041-7.525-14.668-6.943s-5.119,4.111-12.3,5.275-7.748,0-10.772,5.3Z" transform="translate(-316.41 -105.76)" fill="#fff"/>
                      </g>
                    </g>
                  </g>
                  <g id="Grupo_1113346" data-name="Grupo 1113346" transform="translate(366.252 53.853)">
                    <g id="Grupo_1113345" data-name="Grupo 1113345">
                      <g id="Grupo_1113344" data-name="Grupo 1113344">
                        <path id="Trazado_902495" data-name="Trazado 902495" d="M472.572,124.562c-4.12-3.085-7.492-8.148-12.548-7.624-7.833.81-7.126,5.721-17.119,7.341s-10.785,0-14.994,7.38h44.661Z" transform="translate(-427.911 -116.9)" fill="#fff"/>
                      </g>
                    </g>
                  </g>
                  <g id="Grupo_1113349" data-name="Grupo 1113349" transform="translate(0.155 93.327)">
                    <g id="Grupo_1113348" data-name="Grupo 1113348">
                      <g id="Grupo_1113347" data-name="Grupo 1113347">
                        <path id="Trazado_902496" data-name="Trazado 902496" d="M.25,191.22H32.205s-2.341-5.176-8.733-3.633c-6.319,1.525-9.041-7.525-14.668-6.943-4.4.455-5.048,2.711-8.554,4.23Z" transform="translate(-0.25 -180.617)" fill="#fff"/>
                      </g>
                    </g>
                  </g>
                  <g id="Grupo_1113352" data-name="Grupo 1113352" transform="translate(316.712)">
                    <g id="Grupo_1113351" data-name="Grupo 1113351">
                      <g id="Grupo_1113350" data-name="Grupo 1113350">
                        <path id="Trazado_902497" data-name="Trazado 902497" d="M412.48,44.7s-3.251-7.188-12.127-5.045c-8.776,2.118-12.555-10.45-20.369-9.642s-7.109,5.708-17.078,7.325-10.76,0-14.959,7.362Z" transform="translate(-347.946 -29.974)" fill="#fff"/>
                      </g>
                    </g>
                  </g>
                </g>
                <g id="Grupo_1113468" data-name="Grupo 1113468" transform="translate(1.369 119.605)">
                  <g id="Grupo_1113360" data-name="Grupo 1113360" transform="translate(106.705 4.746)">
                    <g id="Grupo_1113356" data-name="Grupo 1113356" transform="translate(20.53 20.754)">
                      <g id="Grupo_1113354" data-name="Grupo 1113354" transform="translate(1.362)">
                        <path id="Trazado_902498" data-name="Trazado 902498" d="M160.868,299.3s-3.807-11.108,7.527-15.667,22.243-15,21.569-19.443c0,0,4.469,8.241,1.227,16.324C186.852,291.334,164.934,292.736,160.868,299.3Z" transform="translate(-160.254 -264.194)" fill="#00666c"/>
                      </g>
                      <g id="Grupo_1113355" data-name="Grupo 1113355" transform="translate(0 15.076)">
                        <path id="Trazado_902499" data-name="Trazado 902499" d="M159.364,326.942a.7.7,0,0,1-.687-.587c-.12-.75-2.868-18.45,4.238-25.111,3.654-3.425,8.181-5.466,12.175-7.267,3.683-1.66,6.864-3.1,8.508-5.183a.7.7,0,1,1,1.1.862c-1.855,2.357-5.18,3.856-9.03,5.592-3.9,1.756-8.31,3.748-11.8,7.014-6.567,6.156-3.844,23.7-3.815,23.873a.7.7,0,0,1-.578.8A.765.765,0,0,1,159.364,326.942Z" transform="translate(-158.056 -288.528)" fill="#003d3c"/>
                      </g>
                    </g>
                    <g id="Grupo_1113359" data-name="Grupo 1113359">
                      <g id="Grupo_1113357" data-name="Grupo 1113357">
                        <path id="Trazado_902500" data-name="Trazado 902500" d="M145.312,274.462s7.9-8.689-.7-17.368-14.475-22.589-12.094-26.4c0,0-7.37,5.794-7.6,14.5C124.617,256.844,144.183,266.82,145.312,274.462Z" transform="translate(-124.917 -230.694)" fill="#00666c"/>
                      </g>
                      <g id="Grupo_1113358" data-name="Grupo 1113358" transform="translate(5.224 15.758)">
                        <path id="Trazado_902501" data-name="Trazado 902501" d="M144.545,313.1a.7.7,0,0,1-.657-.931c.066-.186,6.608-18.839,3.562-35.485-.94-5.139-4.855-8.9-8.309-12.21-2.726-2.616-5.079-4.874-5.767-7.466a.7.7,0,0,1,1.347-.357c.587,2.213,2.81,4.347,5.385,6.817,3.606,3.46,7.693,7.383,8.715,12.964,1.629,8.9.558,18.273-.627,24.565a86.174,86.174,0,0,1-2.992,11.64A.7.7,0,0,1,144.545,313.1Z" transform="translate(-133.35 -256.13)" fill="#003d3c"/>
                      </g>
                    </g>
                  </g>
                  <g id="Grupo_1113367" data-name="Grupo 1113367" transform="translate(267.344 7.103)">
                    <g id="Grupo_1113363" data-name="Grupo 1113363" transform="translate(20.529 20.754)">
                      <g id="Grupo_1113361" data-name="Grupo 1113361" transform="translate(1.362)">
                        <path id="Trazado_902502" data-name="Trazado 902502" d="M345.6,303.109S341.79,292,353.124,287.441s22.243-15,21.569-19.442c0,0,4.47,8.241,1.227,16.324C371.582,295.139,349.663,296.542,345.6,303.109Z" transform="translate(-344.983 -267.999)" fill="#00666c"/>
                      </g>
                      <g id="Grupo_1113362" data-name="Grupo 1113362" transform="translate(0 15.076)">
                        <path id="Trazado_902503" data-name="Trazado 902503" d="M344.094,330.748a.7.7,0,0,1-.688-.587c-.12-.75-2.868-18.449,4.239-25.111,3.654-3.425,8.181-5.466,12.175-7.267,3.683-1.661,6.864-3.1,8.508-5.184a.7.7,0,1,1,1.1.862c-1.855,2.357-5.18,3.856-9.03,5.592-3.895,1.756-8.31,3.747-11.8,7.014-6.571,6.159-3.844,23.7-3.815,23.873a.7.7,0,0,1-.578.8A.668.668,0,0,1,344.094,330.748Z" transform="translate(-342.785 -292.334)" fill="#003d3c"/>
                      </g>
                    </g>
                    <g id="Grupo_1113366" data-name="Grupo 1113366">
                      <g id="Grupo_1113364" data-name="Grupo 1113364">
                        <path id="Trazado_902504" data-name="Trazado 902504" d="M330.042,278.266s7.9-8.689-.7-17.367-14.475-22.59-12.1-26.4c0,0-7.37,5.794-7.6,14.5C309.347,260.65,328.913,270.625,330.042,278.266Z" transform="translate(-309.647 -234.499)" fill="#00666c"/>
                      </g>
                      <g id="Grupo_1113365" data-name="Grupo 1113365" transform="translate(5.224 15.758)">
                        <path id="Trazado_902505" data-name="Trazado 902505" d="M329.274,316.9a.706.706,0,0,1-.234-.04.7.7,0,0,1-.423-.89c.067-.187,6.608-18.84,3.562-35.486-.94-5.139-4.855-8.9-8.309-12.21-2.725-2.616-5.079-4.874-5.767-7.465a.7.7,0,0,1,1.347-.357c.587,2.213,2.81,4.347,5.384,6.817,3.606,3.461,7.694,7.383,8.715,12.965,1.63,8.9.559,18.273-.627,24.564a86.144,86.144,0,0,1-2.992,11.64A.7.7,0,0,1,329.274,316.9Z" transform="translate(-318.08 -259.935)" fill="#003d3c"/>
                      </g>
                    </g>
                  </g>
                  <g id="Grupo_1113404" data-name="Grupo 1113404" transform="translate(33.516)">
                    <g id="Grupo_1113379" data-name="Grupo 1113379" transform="translate(0 3.922)">
                      <g id="Grupo_1113368" data-name="Grupo 1113368" transform="translate(2.77 7.87)">
                        <path id="Trazado_902506" data-name="Trazado 902506" d="M73.1,303.7a.7.7,0,0,1-.7-.694h0a48.929,48.929,0,0,0-6.569-21.691c-3.666-6.386-4.732-15.036-4.98-21.169A85.635,85.635,0,0,1,61.9,242.636a.7.7,0,0,1,1.37.255c-1.137,6.107-2.886,26.145,3.766,37.734A49.378,49.378,0,0,1,73.793,303a.7.7,0,0,1-.694.7Z" transform="translate(-60.78 -242.067)" fill="#078783"/>
                      </g>
                      <g id="Grupo_1113378" data-name="Grupo 1113378">
                        <g id="Grupo_1113369" data-name="Grupo 1113369">
                          <path id="Trazado_902507" data-name="Trazado 902507" d="M63.222,243.627c-.012.827-.028,1.649-.044,2.449-.072,3.376-.164,6.407-.056,8.1a13.135,13.135,0,0,1-.064,2.518,8.214,8.214,0,0,1-.692,2.479,4.41,4.41,0,0,1-1.72,2.056,1.921,1.921,0,0,1-.328-.016c-.709-.092-2.4-.592-3.337-3.264a11.359,11.359,0,0,1-.548-2.5,18.835,18.835,0,0,1-.12-2.09c-.006-1.136-.006-2.4.012-3.725.011-.836.027-1.7.053-2.578a66.289,66.289,0,0,1,1.34-12.812,16.155,16.155,0,0,1,.718-2.267,4.018,4.018,0,0,1,2.158-2.559c.908-.276,1.517.551,1.918,2.061h0a17.538,17.538,0,0,1,.441,2.538A84.173,84.173,0,0,1,63.222,243.627Z" transform="translate(-56.309 -229.364)" fill="#ff560d"/>
                        </g>
                        <g id="Grupo_1113370" data-name="Grupo 1113370" transform="translate(1.29 9.364)">
                          <path id="Trazado_902508" data-name="Trazado 902508" d="M60.971,245.769a1.29,1.29,0,1,1-1.29-1.29A1.29,1.29,0,0,1,60.971,245.769Z" transform="translate(-58.391 -244.479)" fill="#da3313"/>
                        </g>
                        <g id="Grupo_1113371" data-name="Grupo 1113371" transform="translate(5.194 14.189)">
                          <path id="Trazado_902509" data-name="Trazado 902509" d="M66.412,252.342c-.012.827-.028,1.649-.044,2.449a1.32,1.32,0,0,1-.385.058,1.29,1.29,0,1,1,.429-2.507Z" transform="translate(-64.693 -252.268)" fill="#da3313"/>
                        </g>
                        <g id="Grupo_1113372" data-name="Grupo 1113372" transform="translate(0.015 17.691)">
                          <path id="Trazado_902510" data-name="Trazado 902510" d="M57.609,259.209a1.29,1.29,0,0,1-1.276,1.29c.011-.836.027-1.7.053-2.578A1.29,1.29,0,0,1,57.609,259.209Z" transform="translate(-56.333 -257.92)" fill="#da3313"/>
                        </g>
                        <g id="Grupo_1113373" data-name="Grupo 1113373" transform="translate(3.467 20.904)">
                          <path id="Trazado_902511" data-name="Trazado 902511" d="M64.485,264.4a1.29,1.29,0,1,1-1.29-1.29A1.29,1.29,0,0,1,64.485,264.4Z" transform="translate(-61.905 -263.107)" fill="#da3313"/>
                        </g>
                        <g id="Grupo_1113374" data-name="Grupo 1113374" transform="translate(0.123 26.015)">
                          <path id="Trazado_902512" data-name="Trazado 902512" d="M58.214,272.646a1.288,1.288,0,0,1-1.159,1.283,11.359,11.359,0,0,1-.548-2.5,1.31,1.31,0,0,1,.417-.069A1.29,1.29,0,0,1,58.214,272.646Z" transform="translate(-56.507 -271.356)" fill="#da3313"/>
                        </g>
                        <g id="Grupo_1113375" data-name="Grupo 1113375" transform="translate(5.194 2.115)">
                          <path id="Trazado_902513" data-name="Trazado 902513" d="M66.143,235.316a1.121,1.121,0,0,1-.159.011,1.29,1.29,0,0,1-.282-2.548A17.536,17.536,0,0,1,66.143,235.316Z" transform="translate(-64.693 -232.778)" fill="#da3313"/>
                        </g>
                        <g id="Grupo_1113376" data-name="Grupo 1113376" transform="translate(1.408 2.612)">
                          <path id="Trazado_902514" data-name="Trazado 902514" d="M59.754,234.564a1.29,1.29,0,0,1-1.172,1.284,16.154,16.154,0,0,1,.718-2.267A1.293,1.293,0,0,1,59.754,234.564Z" transform="translate(-58.582 -233.58)" fill="#da3313"/>
                        </g>
                        <g id="Grupo_1113377" data-name="Grupo 1113377" transform="translate(5.194 27.305)">
                          <path id="Trazado_902515" data-name="Trazado 902515" d="M66.247,273.467a8.215,8.215,0,0,1-.692,2.479,1.29,1.29,0,0,1,.428-2.508A1.207,1.207,0,0,1,66.247,273.467Z" transform="translate(-64.693 -273.438)" fill="#da3313"/>
                        </g>
                      </g>
                    </g>
                    <g id="Grupo_1113391" data-name="Grupo 1113391" transform="translate(13.665)">
                      <g id="Grupo_1113380" data-name="Grupo 1113380" transform="translate(2.373 22.205)">
                        <path id="Trazado_902516" data-name="Trazado 902516" d="M84.9,310.1a.693.693,0,0,1-.53-.247c-.167-.2-4.06-4.983-1.007-16.126,1.884-6.877,1.015-12.268.095-17.975a59.111,59.111,0,0,1-.958-16.245.7.7,0,0,1,1.388.134,57.947,57.947,0,0,0,.947,15.889c.944,5.861,1.837,11.4-.127,18.566-2.839,10.363.7,14.818.731,14.862A.7.7,0,0,1,84.9,310.1Z" transform="translate(-82.197 -258.876)" fill="#078783"/>
                      </g>
                      <g id="Grupo_1113390" data-name="Grupo 1113390">
                        <g id="Grupo_1113381" data-name="Grupo 1113381">
                          <path id="Trazado_902517" data-name="Trazado 902517" d="M85.733,237.388c-.05.826-.1,1.645-.156,2.444-.227,3.37-.457,6.393-.427,8.092a13.166,13.166,0,0,1-.18,2.513,8.225,8.225,0,0,1-.8,2.445,4.413,4.413,0,0,1-1.813,1.974,1.879,1.879,0,0,1-.328-.032c-.7-.124-2.366-.7-3.183-3.414a11.354,11.354,0,0,1-.433-2.526,18.762,18.762,0,0,1-.024-2.094c.046-1.134.1-2.393.183-3.72.048-.835.1-1.7.171-2.574a66.263,66.263,0,0,1,1.927-12.737,16.12,16.12,0,0,1,.821-2.232c.624-1.338,1.373-2.228,2.274-2.458.92-.234,1.49.621,1.821,2.147h0a17.549,17.549,0,0,1,.324,2.555A84.177,84.177,0,0,1,85.733,237.388Z" transform="translate(-78.366 -223.033)" fill="#ff560d"/>
                        </g>
                        <g id="Grupo_1113382" data-name="Grupo 1113382" transform="translate(1.914 9.26)">
                          <path id="Trazado_902518" data-name="Trazado 902518" d="M84.033,239.33a1.29,1.29,0,1,1-1.229-1.348A1.291,1.291,0,0,1,84.033,239.33Z" transform="translate(-81.455 -237.981)" fill="#da3313"/>
                        </g>
                        <g id="Grupo_1113383" data-name="Grupo 1113383" transform="translate(5.593 14.26)">
                          <path id="Trazado_902519" data-name="Trazado 902519" d="M89.168,246.146c-.05.826-.1,1.645-.156,2.444a1.313,1.313,0,0,1-.387.04,1.29,1.29,0,1,1,.543-2.484Z" transform="translate(-87.394 -246.051)" fill="#da3313"/>
                        </g>
                        <g id="Grupo_1113384" data-name="Grupo 1113384" transform="translate(0.201 17.465)">
                          <path id="Trazado_902520" data-name="Trazado 902520" d="M80.023,252.567a1.291,1.291,0,0,1-1.333,1.23c.048-.835.1-1.7.171-2.574A1.291,1.291,0,0,1,80.023,252.567Z" transform="translate(-78.69 -251.224)" fill="#da3313"/>
                        </g>
                        <g id="Grupo_1113385" data-name="Grupo 1113385" transform="translate(3.559 20.889)">
                          <path id="Trazado_902521" data-name="Trazado 902521" d="M86.689,258.1a1.29,1.29,0,1,1-1.23-1.348A1.29,1.29,0,0,1,86.689,258.1Z" transform="translate(-84.111 -256.751)" fill="#da3313"/>
                        </g>
                        <g id="Grupo_1113386" data-name="Grupo 1113386" transform="translate(0.042 25.8)">
                          <path id="Trazado_902522" data-name="Trazado 902522" d="M80.082,266.028a1.287,1.287,0,0,1-1.216,1.228,11.353,11.353,0,0,1-.433-2.526,1.29,1.29,0,0,1,1.649,1.3Z" transform="translate(-78.433 -264.679)" fill="#da3313"/>
                        </g>
                        <g id="Grupo_1113387" data-name="Grupo 1113387" transform="translate(6.148 2.187)">
                          <path id="Trazado_902523" data-name="Trazado 902523" d="M89.68,229.118a1.141,1.141,0,0,1-.16,0,1.289,1.289,0,0,1-.164-2.558A17.549,17.549,0,0,1,89.68,229.118Z" transform="translate(-88.29 -226.563)" fill="#da3313"/>
                        </g>
                        <g id="Grupo_1113388" data-name="Grupo 1113388" transform="translate(2.299 2.496)">
                          <path id="Trazado_902524" data-name="Trazado 902524" d="M83.306,228.066a1.29,1.29,0,0,1-1.23,1.229,16.12,16.12,0,0,1,.821-2.232A1.293,1.293,0,0,1,83.306,228.066Z" transform="translate(-82.076 -227.062)" fill="#da3313"/>
                        </g>
                        <g id="Grupo_1113389" data-name="Grupo 1113389" transform="translate(4.991 27.361)">
                          <path id="Trazado_902525" data-name="Trazado 902525" d="M88.034,267.24a8.225,8.225,0,0,1-.8,2.445,1.291,1.291,0,0,1,.542-2.486A1.244,1.244,0,0,1,88.034,267.24Z" transform="translate(-86.423 -267.199)" fill="#da3313"/>
                        </g>
                      </g>
                    </g>
                    <g id="Grupo_1113403" data-name="Grupo 1113403" transform="translate(19.116 3.466)">
                      <g id="Grupo_1113392" data-name="Grupo 1113392" transform="translate(0 11.792)">
                        <path id="Trazado_902526" data-name="Trazado 902526" d="M87.862,309.3h0a.7.7,0,0,1-.694-.7,49.381,49.381,0,0,1,6.754-22.38c6.652-11.588,4.9-31.627,3.766-37.733a.7.7,0,1,1,1.37-.255,85.636,85.636,0,0,1,1.053,17.514c-.248,6.132-1.314,14.782-4.98,21.169a48.938,48.938,0,0,0-6.569,21.69A.7.7,0,0,1,87.862,309.3Z" transform="translate(-87.165 -247.662)" fill="#078783"/>
                      </g>
                      <g id="Grupo_1113402" data-name="Grupo 1113402" transform="translate(8.508)">
                        <g id="Grupo_1113393" data-name="Grupo 1113393">
                          <path id="Trazado_902527" data-name="Trazado 902527" d="M101.148,242.983c.05.826.1,1.645.157,2.444.227,3.37.457,6.393.427,8.092a13.117,13.117,0,0,0,.18,2.513,8.207,8.207,0,0,0,.8,2.445,4.412,4.412,0,0,0,1.813,1.974,1.882,1.882,0,0,0,.328-.032c.7-.124,2.366-.7,3.183-3.414a11.387,11.387,0,0,0,.433-2.526,18.92,18.92,0,0,0,.023-2.094c-.046-1.134-.1-2.393-.182-3.72-.049-.834-.1-1.7-.172-2.574a66.216,66.216,0,0,0-1.926-12.737,16.114,16.114,0,0,0-.821-2.232c-.624-1.338-1.373-2.229-2.273-2.458-.92-.234-1.491.621-1.822,2.147h0a17.462,17.462,0,0,0-.323,2.555A84.17,84.17,0,0,0,101.148,242.983Z" transform="translate(-100.899 -228.628)" fill="#ff560d"/>
                        </g>
                        <g id="Grupo_1113394" data-name="Grupo 1113394" transform="translate(3.122 9.26)">
                          <path id="Trazado_902528" data-name="Trazado 902528" d="M105.94,244.925a1.29,1.29,0,1,0,1.23-1.348A1.291,1.291,0,0,0,105.94,244.925Z" transform="translate(-105.939 -243.576)" fill="#da3313"/>
                        </g>
                        <g id="Grupo_1113395" data-name="Grupo 1113395" transform="translate(0.249 14.26)">
                          <path id="Trazado_902529" data-name="Trazado 902529" d="M101.3,251.741c.05.826.1,1.645.157,2.444a1.311,1.311,0,0,0,.387.04,1.29,1.29,0,1,0-.543-2.484Z" transform="translate(-101.301 -251.646)" fill="#da3313"/>
                        </g>
                        <g id="Grupo_1113396" data-name="Grupo 1113396" transform="translate(6.081 17.465)">
                          <path id="Trazado_902530" data-name="Trazado 902530" d="M110.716,258.162a1.29,1.29,0,0,0,1.333,1.23c-.049-.834-.1-1.7-.172-2.573A1.291,1.291,0,0,0,110.716,258.162Z" transform="translate(-110.715 -256.819)" fill="#da3313"/>
                        </g>
                        <g id="Grupo_1113397" data-name="Grupo 1113397" transform="translate(1.478 20.889)">
                          <path id="Trazado_902531" data-name="Trazado 902531" d="M103.285,263.695a1.29,1.29,0,1,0,1.229-1.347A1.289,1.289,0,0,0,103.285,263.695Z" transform="translate(-103.284 -262.346)" fill="#da3313"/>
                        </g>
                        <g id="Grupo_1113398" data-name="Grupo 1113398" transform="translate(5.924 25.8)">
                          <path id="Trazado_902532" data-name="Trazado 902532" d="M110.462,271.623a1.287,1.287,0,0,0,1.217,1.229,11.388,11.388,0,0,0,.433-2.526,1.29,1.29,0,0,0-1.65,1.3Z" transform="translate(-110.461 -270.274)" fill="#da3313"/>
                        </g>
                        <g id="Grupo_1113399" data-name="Grupo 1113399" transform="translate(0.078 2.187)">
                          <path id="Trazado_902533" data-name="Trazado 902533" d="M101.025,234.713a1.127,1.127,0,0,0,.159,0,1.289,1.289,0,0,0,.164-2.558A17.459,17.459,0,0,0,101.025,234.713Z" transform="translate(-101.025 -232.158)" fill="#da3313"/>
                        </g>
                        <g id="Grupo_1113400" data-name="Grupo 1113400" transform="translate(4.087 2.496)">
                          <path id="Trazado_902534" data-name="Trazado 902534" d="M107.5,233.66a1.29,1.29,0,0,0,1.23,1.229,16.117,16.117,0,0,0-.822-2.232A1.293,1.293,0,0,0,107.5,233.66Z" transform="translate(-107.496 -232.657)" fill="#da3313"/>
                        </g>
                        <g id="Grupo_1113401" data-name="Grupo 1113401" transform="translate(1.014 27.361)">
                          <path id="Trazado_902535" data-name="Trazado 902535" d="M102.535,272.835a8.207,8.207,0,0,0,.8,2.445,1.29,1.29,0,0,0-.542-2.486A1.223,1.223,0,0,0,102.535,272.835Z" transform="translate(-102.535 -272.794)" fill="#da3313"/>
                        </g>
                      </g>
                    </g>
                  </g>
                  <g id="Grupo_1113441" data-name="Grupo 1113441" transform="translate(347.263 1.266)">
                    <g id="Grupo_1113416" data-name="Grupo 1113416" transform="translate(0 3.922)">
                      <g id="Grupo_1113405" data-name="Grupo 1113405" transform="translate(2.77 7.87)">
                        <path id="Trazado_902536" data-name="Trazado 902536" d="M416.257,305.748a.7.7,0,0,1-.7-.694h0a48.945,48.945,0,0,0-6.569-21.691c-3.666-6.386-4.732-15.036-4.98-21.169a85.672,85.672,0,0,1,1.053-17.514.7.7,0,0,1,1.37.255c-1.138,6.107-2.887,26.145,3.766,37.734a49.4,49.4,0,0,1,6.754,22.379.7.7,0,0,1-.694.7Z" transform="translate(-403.941 -244.112)" fill="#078783"/>
                      </g>
                      <g id="Grupo_1113415" data-name="Grupo 1113415">
                        <g id="Grupo_1113406" data-name="Grupo 1113406">
                          <path id="Trazado_902537" data-name="Trazado 902537" d="M406.383,245.671c-.012.827-.029,1.649-.045,2.449-.072,3.376-.164,6.408-.056,8.1a13.187,13.187,0,0,1-.065,2.518,8.218,8.218,0,0,1-.691,2.479,4.415,4.415,0,0,1-1.721,2.056,1.919,1.919,0,0,1-.329-.016c-.709-.092-2.4-.592-3.336-3.264a11.364,11.364,0,0,1-.548-2.5,18.823,18.823,0,0,1-.119-2.09c-.006-1.136-.006-2.4.012-3.725.01-.836.027-1.7.053-2.578a66.242,66.242,0,0,1,1.341-12.812,16.023,16.023,0,0,1,.718-2.267,4.017,4.017,0,0,1,2.158-2.559c.908-.276,1.517.551,1.918,2.061v0a17.508,17.508,0,0,1,.44,2.537A84.278,84.278,0,0,1,406.383,245.671Z" transform="translate(-399.469 -231.408)" fill="#ff560d"/>
                        </g>
                        <g id="Grupo_1113407" data-name="Grupo 1113407" transform="translate(1.29 9.364)">
                          <path id="Trazado_902538" data-name="Trazado 902538" d="M404.131,247.813a1.29,1.29,0,1,1-1.29-1.29A1.29,1.29,0,0,1,404.131,247.813Z" transform="translate(-401.551 -246.523)" fill="#da3313"/>
                        </g>
                        <g id="Grupo_1113408" data-name="Grupo 1113408" transform="translate(5.195 14.189)">
                          <path id="Trazado_902539" data-name="Trazado 902539" d="M409.573,254.386c-.012.827-.029,1.649-.045,2.449a1.314,1.314,0,0,1-.385.058,1.29,1.29,0,1,1,.429-2.507Z" transform="translate(-407.854 -254.312)" fill="#da3313"/>
                        </g>
                        <g id="Grupo_1113409" data-name="Grupo 1113409" transform="translate(0.016 17.691)">
                          <path id="Trazado_902540" data-name="Trazado 902540" d="M400.769,261.253a1.29,1.29,0,0,1-1.275,1.29c.01-.836.027-1.7.053-2.578A1.29,1.29,0,0,1,400.769,261.253Z" transform="translate(-399.494 -259.964)" fill="#da3313"/>
                        </g>
                        <g id="Grupo_1113410" data-name="Grupo 1113410" transform="translate(3.467 20.904)">
                          <path id="Trazado_902541" data-name="Trazado 902541" d="M407.645,266.441a1.29,1.29,0,1,1-1.29-1.29A1.29,1.29,0,0,1,407.645,266.441Z" transform="translate(-405.065 -265.151)" fill="#da3313"/>
                        </g>
                        <g id="Grupo_1113411" data-name="Grupo 1113411" transform="translate(0.123 26.015)">
                          <path id="Trazado_902542" data-name="Trazado 902542" d="M401.375,274.69a1.287,1.287,0,0,1-1.158,1.282,11.355,11.355,0,0,1-.548-2.5,1.306,1.306,0,0,1,.417-.069A1.289,1.289,0,0,1,401.375,274.69Z" transform="translate(-399.668 -273.4)" fill="#da3313"/>
                        </g>
                        <g id="Grupo_1113412" data-name="Grupo 1113412" transform="translate(5.195 2.116)">
                          <path id="Trazado_902543" data-name="Trazado 902543" d="M409.3,237.36a1.117,1.117,0,0,1-.159.011,1.289,1.289,0,0,1-.281-2.547A17.547,17.547,0,0,1,409.3,237.36Z" transform="translate(-407.854 -234.823)" fill="#da3313"/>
                        </g>
                        <g id="Grupo_1113413" data-name="Grupo 1113413" transform="translate(1.409 2.612)">
                          <path id="Trazado_902544" data-name="Trazado 902544" d="M402.915,236.608a1.29,1.29,0,0,1-1.172,1.284,16.009,16.009,0,0,1,.718-2.267A1.294,1.294,0,0,1,402.915,236.608Z" transform="translate(-401.743 -235.624)" fill="#da3313"/>
                        </g>
                        <g id="Grupo_1113414" data-name="Grupo 1113414" transform="translate(5.195 27.305)">
                          <path id="Trazado_902545" data-name="Trazado 902545" d="M409.408,275.511a8.213,8.213,0,0,1-.691,2.479,1.29,1.29,0,0,1,.428-2.507A1.208,1.208,0,0,1,409.408,275.511Z" transform="translate(-407.854 -275.483)" fill="#da3313"/>
                        </g>
                      </g>
                    </g>
                    <g id="Grupo_1113428" data-name="Grupo 1113428" transform="translate(13.665)">
                      <g id="Grupo_1113417" data-name="Grupo 1113417" transform="translate(2.373 22.205)">
                        <path id="Trazado_902546" data-name="Trazado 902546" d="M428.063,312.143a.7.7,0,0,1-.533-.248c-.167-.2-4.059-4.983-1.007-16.126,1.883-6.877,1.015-12.268.095-17.975a59.087,59.087,0,0,1-.958-16.245.7.7,0,0,1,1.387.134,57.943,57.943,0,0,0,.947,15.889c.945,5.861,1.837,11.4-.126,18.566-2.861,10.443.692,14.815.728,14.859a.7.7,0,0,1-.532,1.146Z" transform="translate(-425.358 -260.919)" fill="#078783"/>
                      </g>
                      <g id="Grupo_1113427" data-name="Grupo 1113427">
                        <g id="Grupo_1113418" data-name="Grupo 1113418">
                          <path id="Trazado_902547" data-name="Trazado 902547" d="M428.894,239.432c-.05.826-.1,1.645-.157,2.444-.227,3.37-.457,6.393-.427,8.092a13.109,13.109,0,0,1-.18,2.513,8.21,8.21,0,0,1-.8,2.445,4.411,4.411,0,0,1-1.813,1.974,1.879,1.879,0,0,1-.328-.032c-.7-.124-2.366-.7-3.183-3.414a11.394,11.394,0,0,1-.433-2.526,18.93,18.93,0,0,1-.023-2.094c.046-1.134.1-2.393.182-3.72.049-.835.1-1.7.172-2.573a66.226,66.226,0,0,1,1.926-12.737,16.122,16.122,0,0,1,.821-2.232c.624-1.338,1.373-2.228,2.273-2.458.92-.234,1.491.621,1.822,2.147h0a17.488,17.488,0,0,1,.323,2.555A84.162,84.162,0,0,1,428.894,239.432Z" transform="translate(-421.527 -225.077)" fill="#ff560d"/>
                        </g>
                        <g id="Grupo_1113419" data-name="Grupo 1113419" transform="translate(1.913 9.261)">
                          <path id="Trazado_902548" data-name="Trazado 902548" d="M427.194,241.375a1.29,1.29,0,1,1-1.23-1.347A1.291,1.291,0,0,1,427.194,241.375Z" transform="translate(-424.615 -240.026)" fill="#da3313"/>
                        </g>
                        <g id="Grupo_1113420" data-name="Grupo 1113420" transform="translate(5.592 14.26)">
                          <path id="Trazado_902549" data-name="Trazado 902549" d="M432.328,248.19c-.05.826-.1,1.645-.157,2.444a1.311,1.311,0,0,1-.387.04,1.29,1.29,0,1,1,.118-2.577A1.307,1.307,0,0,1,432.328,248.19Z" transform="translate(-430.554 -248.095)" fill="#da3313"/>
                        </g>
                        <g id="Grupo_1113421" data-name="Grupo 1113421" transform="translate(0.2 17.465)">
                          <path id="Trazado_902550" data-name="Trazado 902550" d="M423.183,254.611a1.29,1.29,0,0,1-1.333,1.23c.049-.834.1-1.7.172-2.574A1.29,1.29,0,0,1,423.183,254.611Z" transform="translate(-421.85 -253.268)" fill="#da3313"/>
                        </g>
                        <g id="Grupo_1113422" data-name="Grupo 1113422" transform="translate(3.559 20.889)">
                          <path id="Trazado_902551" data-name="Trazado 902551" d="M429.849,260.144a1.29,1.29,0,1,1-1.229-1.347A1.289,1.289,0,0,1,429.849,260.144Z" transform="translate(-427.271 -258.795)" fill="#da3313"/>
                        </g>
                        <g id="Grupo_1113423" data-name="Grupo 1113423" transform="translate(0.041 25.8)">
                          <path id="Trazado_902552" data-name="Trazado 902552" d="M423.243,268.072a1.287,1.287,0,0,1-1.217,1.228,11.394,11.394,0,0,1-.433-2.526,1.29,1.29,0,0,1,1.65,1.3Z" transform="translate(-421.593 -266.723)" fill="#da3313"/>
                        </g>
                        <g id="Grupo_1113424" data-name="Grupo 1113424" transform="translate(6.148 2.187)">
                          <path id="Trazado_902553" data-name="Trazado 902553" d="M432.84,231.162a1.127,1.127,0,0,1-.159,0,1.289,1.289,0,0,1-.164-2.558A17.487,17.487,0,0,1,432.84,231.162Z" transform="translate(-431.45 -228.607)" fill="#da3313"/>
                        </g>
                        <g id="Grupo_1113425" data-name="Grupo 1113425" transform="translate(2.298 2.496)">
                          <path id="Trazado_902554" data-name="Trazado 902554" d="M426.466,230.11a1.29,1.29,0,0,1-1.23,1.228,16.128,16.128,0,0,1,.821-2.232A1.294,1.294,0,0,1,426.466,230.11Z" transform="translate(-425.236 -229.106)" fill="#da3313"/>
                        </g>
                        <g id="Grupo_1113426" data-name="Grupo 1113426" transform="translate(4.991 27.361)">
                          <path id="Trazado_902555" data-name="Trazado 902555" d="M431.194,269.284a8.206,8.206,0,0,1-.8,2.445,1.29,1.29,0,0,1,.542-2.486A1.232,1.232,0,0,1,431.194,269.284Z" transform="translate(-429.583 -269.243)" fill="#da3313"/>
                        </g>
                      </g>
                    </g>
                    <g id="Grupo_1113440" data-name="Grupo 1113440" transform="translate(19.116 3.466)">
                      <g id="Grupo_1113429" data-name="Grupo 1113429" transform="translate(0 11.792)">
                        <path id="Trazado_902556" data-name="Trazado 902556" d="M431.022,311.343h0a.7.7,0,0,1-.694-.7,49.387,49.387,0,0,1,6.754-22.379c6.652-11.588,4.9-31.627,3.766-37.734a.7.7,0,0,1,1.37-.255,85.678,85.678,0,0,1,1.053,17.515c-.248,6.132-1.315,14.783-4.98,21.168a48.943,48.943,0,0,0-6.57,21.691A.7.7,0,0,1,431.022,311.343Z" transform="translate(-430.325 -249.706)" fill="#078783"/>
                      </g>
                      <g id="Grupo_1113439" data-name="Grupo 1113439" transform="translate(8.508)">
                        <g id="Grupo_1113430" data-name="Grupo 1113430">
                          <path id="Trazado_902557" data-name="Trazado 902557" d="M444.309,245.027c.049.826.1,1.645.156,2.444.227,3.37.457,6.394.427,8.092a13.163,13.163,0,0,0,.18,2.513,8.222,8.222,0,0,0,.8,2.445,4.413,4.413,0,0,0,1.813,1.974,1.878,1.878,0,0,0,.328-.032c.7-.124,2.366-.7,3.183-3.414a11.359,11.359,0,0,0,.433-2.526,18.787,18.787,0,0,0,.024-2.094c-.047-1.134-.1-2.393-.183-3.72-.048-.834-.1-1.7-.171-2.573a66.262,66.262,0,0,0-1.927-12.737,16.118,16.118,0,0,0-.821-2.232c-.624-1.338-1.373-2.228-2.274-2.458-.92-.234-1.49.621-1.821,2.147h0a17.546,17.546,0,0,0-.324,2.555A84.189,84.189,0,0,0,444.309,245.027Z" transform="translate(-444.059 -230.672)" fill="#ff560d"/>
                        </g>
                        <g id="Grupo_1113431" data-name="Grupo 1113431" transform="translate(3.123 9.26)">
                          <path id="Trazado_902558" data-name="Trazado 902558" d="M449.1,246.969a1.29,1.29,0,1,0,1.229-1.348A1.291,1.291,0,0,0,449.1,246.969Z" transform="translate(-449.1 -245.62)" fill="#da3313"/>
                        </g>
                        <g id="Grupo_1113432" data-name="Grupo 1113432" transform="translate(0.25 14.26)">
                          <path id="Trazado_902559" data-name="Trazado 902559" d="M444.462,253.785c.05.826.1,1.645.156,2.444a1.334,1.334,0,0,0,.387.04,1.29,1.29,0,1,0-.543-2.484Z" transform="translate(-444.462 -253.69)" fill="#da3313"/>
                        </g>
                        <g id="Grupo_1113433" data-name="Grupo 1113433" transform="translate(6.081 17.465)">
                          <path id="Trazado_902560" data-name="Trazado 902560" d="M453.876,260.206a1.29,1.29,0,0,0,1.333,1.23c-.048-.835-.1-1.7-.171-2.573A1.29,1.29,0,0,0,453.876,260.206Z" transform="translate(-453.875 -258.863)" fill="#da3313"/>
                        </g>
                        <g id="Grupo_1113434" data-name="Grupo 1113434" transform="translate(1.477 20.889)">
                          <path id="Trazado_902561" data-name="Trazado 902561" d="M446.445,265.739a1.29,1.29,0,1,0,1.23-1.347A1.29,1.29,0,0,0,446.445,265.739Z" transform="translate(-446.444 -264.39)" fill="#da3313"/>
                        </g>
                        <g id="Grupo_1113435" data-name="Grupo 1113435" transform="translate(5.924 25.8)">
                          <path id="Trazado_902562" data-name="Trazado 902562" d="M453.623,273.667a1.287,1.287,0,0,0,1.216,1.228,11.348,11.348,0,0,0,.433-2.526,1.29,1.29,0,0,0-1.649,1.3Z" transform="translate(-453.622 -272.318)" fill="#da3313"/>
                        </g>
                        <g id="Grupo_1113436" data-name="Grupo 1113436" transform="translate(0.078 2.187)">
                          <path id="Trazado_902563" data-name="Trazado 902563" d="M444.185,236.757a1.137,1.137,0,0,0,.16,0,1.289,1.289,0,0,0,.164-2.558A17.555,17.555,0,0,0,444.185,236.757Z" transform="translate(-444.185 -234.202)" fill="#da3313"/>
                        </g>
                        <g id="Grupo_1113437" data-name="Grupo 1113437" transform="translate(4.087 2.496)">
                          <path id="Trazado_902564" data-name="Trazado 902564" d="M450.657,235.7a1.29,1.29,0,0,0,1.23,1.229,16.111,16.111,0,0,0-.821-2.232A1.293,1.293,0,0,0,450.657,235.7Z" transform="translate(-450.656 -234.701)" fill="#da3313"/>
                        </g>
                        <g id="Grupo_1113438" data-name="Grupo 1113438" transform="translate(1.014 27.361)">
                          <path id="Trazado_902565" data-name="Trazado 902565" d="M445.7,274.879a8.225,8.225,0,0,0,.8,2.445,1.29,1.29,0,0,0-.542-2.486A1.23,1.23,0,0,0,445.7,274.879Z" transform="translate(-445.695 -274.838)" fill="#da3313"/>
                        </g>
                      </g>
                    </g>
                  </g>
                  <g id="Grupo_1113446" data-name="Grupo 1113446" transform="translate(0 26.629)">
                    <g id="Grupo_1113443" data-name="Grupo 1113443">
                      <g id="Grupo_1113442" data-name="Grupo 1113442">
                        <path id="Trazado_902566" data-name="Trazado 902566" d="M32.322,312.838l-2.886.089-1.979.06-3.081.094S-5.3,277.151,4.021,269.58c9.252-7.515,21.463,32.372,21.641,32.951-.11-.577-7.482-39.112,4.131-36.374C41.493,268.915,32.322,312.838,32.322,312.838Z" transform="translate(-2.21 -266.017)" fill="#00666c"/>
                      </g>
                    </g>
                    <g id="Grupo_1113445" data-name="Grupo 1113445" transform="translate(7.827 11.746)">
                      <g id="Grupo_1113444" data-name="Grupo 1113444">
                        <path id="Trazado_902567" data-name="Trazado 902567" d="M35.408,285.49,34.243,320.14l-1.979.06L14.9,287.834a.5.5,0,0,1,.877-.47l17.476,32.579,1.159-34.486a.5.5,0,0,1,.994.033Z" transform="translate(-14.844 -284.977)" fill="#005454"/>
                      </g>
                    </g>
                  </g>
                  <g id="Grupo_1113451" data-name="Grupo 1113451" transform="translate(90.123 40.601)">
                    <g id="Grupo_1113448" data-name="Grupo 1113448">
                      <g id="Grupo_1113447" data-name="Grupo 1113447">
                        <path id="Trazado_902568" data-name="Trazado 902568" d="M111.583,322.253l2.077.064,1.424.043,2.216.067s21.35-25.848,14.644-31.3c-6.656-5.407-15.441,23.29-15.569,23.705.079-.415,5.382-28.138-2.972-26.168C104.986,290.654,111.583,322.253,111.583,322.253Z" transform="translate(-109.124 -288.569)" fill="#00666c"/>
                      </g>
                    </g>
                    <g id="Grupo_1113450" data-name="Grupo 1113450" transform="translate(3.698 8.45)">
                      <g id="Grupo_1113449" data-name="Grupo 1113449">
                        <path id="Trazado_902569" data-name="Trazado 902569" d="M115.093,302.578l.838,24.928,1.424.043,12.49-23.285a.358.358,0,1,0-.631-.338l-12.572,23.438-.834-24.811a.358.358,0,0,0-.715.024Z" transform="translate(-115.093 -302.209)" fill="#005454"/>
                      </g>
                    </g>
                  </g>
                  <g id="Grupo_1113456" data-name="Grupo 1113456" transform="translate(239.985 42.339)">
                    <g id="Grupo_1113453" data-name="Grupo 1113453">
                      <g id="Grupo_1113452" data-name="Grupo 1113452">
                        <path id="Trazado_902570" data-name="Trazado 902570" d="M308.572,325.06l-2.077.063-1.424.044-2.216.067s-21.35-25.848-14.644-31.3c6.656-5.407,15.441,23.289,15.569,23.706-.079-.416-5.382-28.138,2.972-26.169C315.169,293.461,308.572,325.06,308.572,325.06Z" transform="translate(-286.908 -291.375)" fill="#00666c"/>
                      </g>
                    </g>
                    <g id="Grupo_1113455" data-name="Grupo 1113455" transform="translate(5.631 8.451)">
                      <g id="Grupo_1113454" data-name="Grupo 1113454">
                        <path id="Trazado_902571" data-name="Trazado 902571" d="M310.791,305.384l-.838,24.928-1.424.044-12.49-23.286a.358.358,0,1,1,.631-.338l12.572,23.438.834-24.81a.358.358,0,0,1,.715.024Z" transform="translate(-295.997 -305.016)" fill="#005454"/>
                      </g>
                    </g>
                  </g>
                  <g id="Grupo_1113461" data-name="Grupo 1113461" transform="translate(381.636 38.873)">
                    <g id="Grupo_1113458" data-name="Grupo 1113458">
                      <g id="Grupo_1113457" data-name="Grupo 1113457">
                        <path id="Trazado_902572" data-name="Trazado 902572" d="M476.616,319.465l-2.077.063-1.424.044-2.216.067s-21.35-25.848-14.644-31.3c6.656-5.407,15.441,23.289,15.569,23.705-.079-.416-5.382-28.138,2.972-26.169C483.213,287.865,476.616,319.465,476.616,319.465Z" transform="translate(-454.952 -285.78)" fill="#00666c"/>
                      </g>
                    </g>
                    <g id="Grupo_1113460" data-name="Grupo 1113460" transform="translate(5.631 8.451)">
                      <g id="Grupo_1113459" data-name="Grupo 1113459">
                        <path id="Trazado_902573" data-name="Trazado 902573" d="M478.835,299.789,478,324.718l-1.424.044-12.49-23.286a.358.358,0,0,1,.631-.338l12.572,23.438.835-24.81a.357.357,0,0,1,.714.024Z" transform="translate(-464.041 -299.421)" fill="#005454"/>
                      </g>
                    </g>
                  </g>
                  <g id="Grupo_1113464" data-name="Grupo 1113464" transform="translate(159.274 51.419)">
                    <g id="Grupo_1113462" data-name="Grupo 1113462">
                      <path id="Trazado_902574" data-name="Trazado 902574" d="M193.619,339.714l2.077.064,1.424.043,2.216.068s21.349-25.849,14.644-31.3c-6.656-5.407-15.442,23.29-15.569,23.705.079-.415,5.382-28.137-2.972-26.168C187.021,308.115,193.619,339.714,193.619,339.714Z" transform="translate(-191.16 -306.03)" fill="#00666c"/>
                    </g>
                    <g id="Grupo_1113463" data-name="Grupo 1113463" transform="translate(3.697 8.45)">
                      <path id="Trazado_902575" data-name="Trazado 902575" d="M197.128,320.039l.838,24.928,1.424.043,12.49-23.285a.358.358,0,1,0-.631-.338l-12.573,23.438-.834-24.811a.358.358,0,0,0-.715.024Z" transform="translate(-197.128 -319.67)" fill="#005454"/>
                    </g>
                  </g>
                  <g id="Grupo_1113467" data-name="Grupo 1113467" transform="translate(312.877 50.123)">
                    <g id="Grupo_1113465" data-name="Grupo 1113465">
                      <path id="Trazado_902576" data-name="Trazado 902576" d="M375.37,337.563l2.075.106,1.422.072,2.214.112s21.869-25.411,15.275-30.993c-6.545-5.54-15.909,22.972-16.046,23.386.088-.414,5.952-28.024-2.441-26.223C369.414,305.837,375.37,337.563,375.37,337.563Z" transform="translate(-373.333 -303.939)" fill="#00666c"/>
                    </g>
                    <g id="Grupo_1113466" data-name="Grupo 1113466" transform="translate(3.779 8.428)">
                      <path id="Trazado_902577" data-name="Trazado 902577" d="M379.433,317.9l.333,24.94,1.422.072,12.959-23.028a.358.358,0,1,0-.624-.351l-13.044,23.179-.331-24.822a.358.358,0,0,0-.715.009Z" transform="translate(-379.433 -317.543)" fill="#005454"/>
                    </g>
                  </g>
                </g>
                <g id="Grupo_1113470" data-name="Grupo 1113470" transform="translate(0 187.953)">
                  <rect id="Rectángulo_404844" data-name="Rectángulo 404844" width="410.913" height="100.54" transform="translate(0 2.699)" fill="#078783"/>
                  <g id="Grupo_1113469" data-name="Grupo 1113469" transform="translate(0 8.497)">
                    <rect id="Rectángulo_404845" data-name="Rectángulo 404845" width="410.913" height="2.33" fill="#00666c"/>
                    <rect id="Rectángulo_404846" data-name="Rectángulo 404846" width="410.913" height="2.33" transform="translate(0 14.44)" fill="#00666c"/>
                    <rect id="Rectángulo_404847" data-name="Rectángulo 404847" width="410.913" height="2.33" transform="translate(0 28.881)" fill="#00666c"/>
                    <rect id="Rectángulo_404848" data-name="Rectángulo 404848" width="410.913" height="2.33" transform="translate(0 43.321)" fill="#00666c"/>
                    <rect id="Rectángulo_404849" data-name="Rectángulo 404849" width="410.913" height="2.33" transform="translate(0 57.762)" fill="#00666c"/>
                    <rect id="Rectángulo_404850" data-name="Rectángulo 404850" width="410.913" height="2.33" transform="translate(0 72.202)" fill="#00666c"/>
                    <rect id="Rectángulo_404851" data-name="Rectángulo 404851" width="410.913" height="2.33" transform="translate(0 86.643)" fill="#00666c"/>
                  </g>
                  <path id="Trazado_902578" data-name="Trazado 902578" d="M106.475,459.4s-6.475-7.514-4.18-8.662,5.355,7.343,5.355,7.343.221-6.538,3.213-6.916-1.164,8.175-1.164,8.175Z" transform="translate(-17.441 -377.978)" fill="#00666c"/>
                  <path id="Trazado_902579" data-name="Trazado 902579" d="M117.76,411.69s-8.571-9.946-5.533-11.466,7.088,9.721,7.088,9.721.292-8.655,4.253-9.155-1.541,10.821-1.541,10.821Z" transform="translate(-18.857 -358.745)" fill="#00666c"/>
                  <path id="Trazado_902580" data-name="Trazado 902580" d="M161.362,365.34s-8.571-9.947-5.534-11.466,7.088,9.721,7.088,9.721.293-8.655,4.253-9.155-1.541,10.821-1.541,10.821Z" transform="translate(-26.226 -341.109)" fill="#00666c"/>
                  <path id="Trazado_902581" data-name="Trazado 902581" d="M428.027,364.325s-8.732-10.134-5.638-11.682,7.222,9.9,7.222,9.9.3-8.818,4.334-9.328-1.57,11.025-1.57,11.025Z" transform="translate(-59.305 -340.64)" fill="#00666c"/>
                  <path id="Trazado_902582" data-name="Trazado 902582" d="M36.414,342.125s-6.475-7.514-4.18-8.662,5.355,7.343,5.355,7.343.221-6.538,3.213-6.916-1.164,8.175-1.164,8.175Z" transform="translate(-12.077 -333.357)" fill="#00666c"/>
                  <path id="Trazado_902583" data-name="Trazado 902583" d="M15.914,366.2s-6.475-7.514-4.18-8.662,5.355,7.343,5.355,7.343.221-6.538,3.213-6.916-1.164,8.175-1.164,8.175Z" transform="translate(-4.277 -342.518)" fill="#00666c"/>
                  <path id="Trazado_902584" data-name="Trazado 902584" d="M177.818,480.935s-9.464-10.983-6.11-12.66,7.826,10.734,7.826,10.734.323-9.557,4.7-10.109-1.7,11.948-1.7,11.948Z" transform="translate(-28.727 -384.631)" fill="#00666c"/>
                  <path id="Trazado_902585" data-name="Trazado 902585" d="M335.61,387.655s-9.464-10.983-6.11-12.66,7.827,10.734,7.827,10.734.323-9.557,4.7-10.109-1.7,11.948-1.7,11.948Z" transform="translate(-55.236 -349.14)" fill="#00666c"/>
                  <path id="Trazado_902586" data-name="Trazado 902586" d="M373.095,483.421s-6.475-7.514-4.18-8.662,5.355,7.344,5.355,7.344.221-6.538,3.213-6.916-1.164,8.174-1.164,8.174Z" transform="translate(-63.12 -387.117)" fill="#00666c"/>
                  <path id="Trazado_902587" data-name="Trazado 902587" d="M393.033,460.112s-6.475-7.514-4.18-8.662,5.354,7.344,5.354,7.344.221-6.539,3.213-6.916-1.164,8.174-1.164,8.174Z" transform="translate(-66.536 -378.248)" fill="#00666c"/>
                  <path id="Trazado_902588" data-name="Trazado 902588" d="M352.618,436.671s-6.475-7.514-4.181-8.662,5.355,7.344,5.355,7.344.221-6.538,3.213-6.916-1.164,8.175-1.164,8.175Z" transform="translate(-59.612 -369.329)" fill="#00666c"/>
                  <path id="Trazado_902589" data-name="Trazado 902589" d="M391.084,413.2s-6.475-7.514-4.181-8.662,5.355,7.344,5.355,7.344.221-6.538,3.214-6.916-1.164,8.175-1.164,8.175Z" transform="translate(-66.202 -360.4)" fill="#00666c"/>
                  <path id="Trazado_902590" data-name="Trazado 902590" d="M375.919,366.2s-6.475-7.514-4.181-8.662,5.355,7.343,5.355,7.343.221-6.538,3.213-6.916-1.164,8.175-1.164,8.175Z" transform="translate(-63.604 -342.518)" fill="#00666c"/>
                  <path id="Trazado_902591" data-name="Trazado 902591" d="M273.337,481.541s-6.475-7.514-4.181-8.662,5.355,7.343,5.355,7.343.221-6.538,3.213-6.916-1.164,8.175-1.164,8.175Z" transform="translate(-46.029 -386.401)" fill="#00666c"/>
                  <path id="Trazado_902592" data-name="Trazado 902592" d="M443.785,390.914s-6.475-7.514-4.18-8.662,5.355,7.343,5.355,7.343.221-6.538,3.213-6.916-1.164,8.175-1.164,8.175Z" transform="translate(-65.921 -351.92)" fill="#00666c"/>
                  <path id="Trazado_902593" data-name="Trazado 902593" d="M200.4,413.2s-6.475-7.514-4.181-8.662,5.355,7.344,5.355,7.344.221-6.538,3.213-6.916-1.164,8.175-1.164,8.175Z" transform="translate(-33.532 -360.4)" fill="#00666c"/>
                  <path id="Trazado_902594" data-name="Trazado 902594" d="M226.35,367.269s-6.475-7.514-4.18-8.662,5.355,7.344,5.355,7.344.221-6.538,3.213-6.916-1.164,8.175-1.164,8.175Z" transform="translate(-37.979 -342.923)" fill="#00666c"/>
                  <path id="Trazado_902595" data-name="Trazado 902595" d="M79.556,389.622s-6.475-7.514-4.18-8.662S80.73,388.3,80.73,388.3s.221-6.538,3.213-6.916-1.164,8.175-1.164,8.175Z" transform="translate(-28.491 -351.428)" fill="#00666c"/>
                </g>
                <g id="Grupo_1113495" data-name="Grupo 1113495" transform="translate(0 207.211)">
                  <g id="Grupo_1113482" data-name="Grupo 1113482">
                    <g id="Grupo_1113481" data-name="Grupo 1113481">
                      <path id="Trazado_902596" data-name="Trazado 902596" d="M59.587,486.432,65.966,474.2c3.122-5.394,6-8.707,7.943-8.906,4.657-.478-3.233,14.374-3.233,14.374s9.464-13.964,15.105-15.248-7.872,18.941-7.872,18.941,10.375-5.941,15.365-4.433c2.571.776-1.822,4.283-6.686,7.5Z" transform="translate(-22.671 -402.46)" fill="#003d3c"/>
                      <g id="Grupo_1113480" data-name="Grupo 1113480">
                        <path id="Trazado_902597" data-name="Trazado 902597" d="M0,420.439a3.588,3.588,0,0,0,.28.315c2.75,2.725,7.517-7.709,3.112-18.15s-.776-24.234,5.132-24.772.772,8.639,8.387,7.23,8.789-21.7,18.617-20.576c8.6.978,3.089,16-1.184,22.336-4.031,5.976-2.835,12.053,1.691,10.724s9.048,4.955,2.311,14.711-15.861,19.465-11.47,20.585,13.527-8.468,17.418,2.881c1.74,5.073-2.018,9.429-6.706,12.7H0Z" transform="translate(0 -364.442)" fill="#005454"/>
                        <g id="Grupo_1113472" data-name="Grupo 1113472" transform="translate(1.521 12.995)">
                          <g id="Grupo_1113471" data-name="Grupo 1113471">
                            <path id="Trazado_902598" data-name="Trazado 902598" d="M3.809,456.4c10.355-27.485,27.761-69.6,27.973-70.108a.633.633,0,1,0-1.17-.484C30.4,386.328,12.8,428.9,2.455,456.4Z" transform="translate(-2.455 -385.418)" fill="#003d3c"/>
                          </g>
                        </g>
                        <g id="Grupo_1113474" data-name="Grupo 1113474" transform="translate(10.45 28.439)">
                          <g id="Grupo_1113473" data-name="Grupo 1113473">
                            <path id="Trazado_902599" data-name="Trazado 902599" d="M24.727,425.632a.627.627,0,0,0,.3-.107.634.634,0,0,0,.167-.881c-.055-.08-5.472-8.07-7.079-13.833a.634.634,0,0,0-1.222.341c1.665,5.965,7.026,13.873,7.253,14.206A.632.632,0,0,0,24.727,425.632Z" transform="translate(-16.868 -410.346)" fill="#003d3c"/>
                          </g>
                        </g>
                        <g id="Grupo_1113475" data-name="Grupo 1113475" transform="translate(15.287 44.405)">
                          <path id="Trazado_902600" data-name="Trazado 902600" d="M25.367,442.2l.038,0c.388-.059,9.575-1.477,15.8-4.886A.634.634,0,1,0,40.6,436.2c-6.026,3.3-15.289,4.73-15.382,4.744a.634.634,0,0,0,.152,1.258Z" transform="translate(-24.676 -436.119)" fill="#003d3c"/>
                        </g>
                        <g id="Grupo_1113477" data-name="Grupo 1113477" transform="translate(0 69.98)">
                          <g id="Grupo_1113476" data-name="Grupo 1113476">
                            <path id="Trazado_902601" data-name="Trazado 902601" d="M0,477.4a54.648,54.648,0,0,0,5.579,5.723.634.634,0,0,1-.825.963A54.255,54.255,0,0,1,0,479.357Z" transform="translate(0 -477.399)" fill="#003d3c"/>
                          </g>
                        </g>
                        <g id="Grupo_1113479" data-name="Grupo 1113479" transform="translate(2.385 78.644)">
                          <g id="Grupo_1113478" data-name="Grupo 1113478">
                            <path id="Trazado_902602" data-name="Trazado 902602" d="M14.592,495.015A37.307,37.307,0,0,0,25.449,492.6a.634.634,0,0,0-.5-1.167c-7.8,3.322-20.3,2.481-20.423,2.473a.634.634,0,1,0-.09,1.264A69.312,69.312,0,0,0,14.592,495.015Z" transform="translate(-3.851 -491.384)" fill="#003d3c"/>
                          </g>
                        </g>
                      </g>
                    </g>
                  </g>
                  <g id="Grupo_1113494" data-name="Grupo 1113494" transform="translate(339.552)">
                    <g id="Grupo_1113493" data-name="Grupo 1113493">
                      <path id="Trazado_902603" data-name="Trazado 902603" d="M419.259,486.432,412.88,474.2c-3.122-5.394-6-8.707-7.943-8.906-4.656-.478,3.234,14.374,3.234,14.374s-9.464-13.964-15.105-15.248,7.872,18.941,7.872,18.941-10.375-5.941-15.365-4.433c-2.57.776,1.823,4.283,6.687,7.5Z" transform="translate(-384.813 -402.46)" fill="#003d3c"/>
                      <g id="Grupo_1113492" data-name="Grupo 1113492" transform="translate(26.634)">
                        <path id="Trazado_902604" data-name="Trazado 902604" d="M472.531,420.439a3.581,3.581,0,0,1-.28.315c-2.75,2.725-7.517-7.709-3.112-18.15s.776-24.234-5.132-24.772-.772,8.639-8.387,7.23-8.789-21.7-18.617-20.576c-8.6.978-3.089,16,1.184,22.336,4.031,5.976,2.835,12.053-1.691,10.724s-9.048,4.955-2.311,14.711,15.861,19.465,11.47,20.585-13.527-8.468-17.418,2.881c-1.74,5.073,2.018,9.429,6.706,12.7h37.588Z" transform="translate(-427.804 -364.442)" fill="#005454"/>
                        <g id="Grupo_1113484" data-name="Grupo 1113484" transform="translate(13.83 12.995)">
                          <g id="Grupo_1113483" data-name="Grupo 1113483">
                            <path id="Trazado_902605" data-name="Trazado 902605" d="M478.149,456.4c-10.355-27.485-27.761-69.6-27.973-70.108a.633.633,0,1,1,1.17-.484c.213.516,17.811,43.086,28.157,70.592Z" transform="translate(-450.127 -385.418)" fill="#003d3c"/>
                          </g>
                        </g>
                        <g id="Grupo_1113486" data-name="Grupo 1113486" transform="translate(25.842 28.439)">
                          <g id="Grupo_1113485" data-name="Grupo 1113485">
                            <path id="Trazado_902606" data-name="Trazado 902606" d="M470.093,425.632a.633.633,0,0,1-.466-.988c.055-.08,5.472-8.07,7.079-13.833a.634.634,0,0,1,1.222.341c-1.665,5.965-7.026,13.873-7.253,14.206A.632.632,0,0,1,470.093,425.632Z" transform="translate(-469.517 -410.346)" fill="#003d3c"/>
                          </g>
                        </g>
                        <g id="Grupo_1113487" data-name="Grupo 1113487" transform="translate(12.58 44.405)">
                          <path id="Trazado_902607" data-name="Trazado 902607" d="M464.279,442.2l-.038,0c-.388-.059-9.575-1.477-15.8-4.886a.634.634,0,1,1,.609-1.112c6.026,3.3,15.289,4.73,15.382,4.744a.634.634,0,0,1-.152,1.258Z" transform="translate(-448.11 -436.119)" fill="#003d3c"/>
                        </g>
                        <g id="Grupo_1113489" data-name="Grupo 1113489" transform="translate(38.927 69.98)">
                          <g id="Grupo_1113488" data-name="Grupo 1113488">
                            <path id="Trazado_902608" data-name="Trazado 902608" d="M496.438,477.4a54.649,54.649,0,0,1-5.579,5.723.634.634,0,0,0,.825.963,54.242,54.242,0,0,0,4.754-4.727Z" transform="translate(-490.638 -477.399)" fill="#003d3c"/>
                          </g>
                        </g>
                        <g id="Grupo_1113491" data-name="Grupo 1113491" transform="translate(20.357 78.644)">
                          <g id="Grupo_1113490" data-name="Grupo 1113490">
                            <path id="Trazado_902609" data-name="Trazado 902609" d="M471.906,495.015a37.307,37.307,0,0,1-10.857-2.412.634.634,0,0,1,.5-1.167c7.8,3.322,20.3,2.481,20.423,2.473a.634.634,0,1,1,.09,1.264A69.312,69.312,0,0,1,471.906,495.015Z" transform="translate(-460.663 -491.384)" fill="#003d3c"/>
                          </g>
                        </g>
                      </g>
                    </g>
                  </g>
                </g>
              </g>
            </g>
          </g>
        </g>
      </g>
      <g id="Grupo_1182090" data-name="Grupo 1182090" transform="translate(936.163 -2000.171)">
        <g transform="matrix(1, 0, 0, 1, 83.89, 5742)" filter="url(#Rectángulo_401593)">
          <rect id="Rectángulo_401593-2" data-name="Rectángulo 401593" width="74.18" height="139.369" rx="8" transform="translate(156.89 6)" fill="#ffea99"/>
        </g>
      </g>
    </g>
    <g id="igualdad-social_2_" data-name="igualdad-social (2)" transform="translate(1190 7937.35)">
      <g id="Grupo_1200176" data-name="Grupo 1200176" transform="translate(1.438 1.729)">
        <path id="Trazado_1034262" data-name="Trazado 1034262" d="M245.55,83.142h-1.438a2.774,2.774,0,0,1-2.766-2.766v-69.6a2.776,2.776,0,0,1,1.749-2.571c.315-.126.737.067,1.1.067l.92.521c1.521,0,2.784.417,2.784,1.938l.175,69.775A2.463,2.463,0,0,1,245.55,83.142Z" transform="translate(-187.146 -8.01)" fill="#ffd15b"/>
        <path id="Trazado_1034263" data-name="Trazado 1034263" d="M254.156,10.266v69.6a2.774,2.774,0,0,1-2.766,2.766h-1.438a2.724,2.724,0,0,1-1.017-.2,2.772,2.772,0,0,0,1.752-2.57v-69.6A2.773,2.773,0,0,0,248.934,7.7a2.725,2.725,0,0,1,1.017-.2h1.439a2.774,2.774,0,0,1,2.766,2.766Z" transform="translate(-192.985 -7.5)" fill="#ffc143"/>
        <path id="Trazado_1034264" data-name="Trazado 1034264" d="M226.114,284.64l-6.687-.222H209.291a2.774,2.774,0,0,0-2.766,2.766v3.232a2.771,2.771,0,0,0,2.766,2.762l9.224,1.851,7.624-2.184a2.506,2.506,0,0,0,2.766-2.43v-3.232A2.616,2.616,0,0,0,226.114,284.64Z" transform="translate(-160.353 -220.581)" fill="#ffe177"/>
        <path id="Trazado_1034265" data-name="Trazado 1034265" d="M270.355,287.183v3.232a2.769,2.769,0,0,1-2.764,2.762l-3.931,1.115-4.105-1.115a2.771,2.771,0,0,0,2.766-2.762v-3.232a2.774,2.774,0,0,0-2.766-2.766h8.034A2.774,2.774,0,0,1,270.355,287.183Z" transform="translate(-201.158 -220.58)" fill="#ffd15b"/>
        <path id="Trazado_1034266" data-name="Trazado 1034266" d="M166.123,333.506v-7.92a3.168,3.168,0,0,1,3.169-3.168h17.488l17.232.3a2.887,2.887,0,0,1,3.128,2.863l-.176,10.137c0,1.749-.606,3.168-2.356,3.168H176.248Z" transform="translate(-129.265 -249.821)" fill="#ffd15b"/>
        <path id="Trazado_1034267" data-name="Trazado 1034267" d="M274.544,325.587v10.136a3.169,3.169,0,0,1-3.167,3.17H252.9a3.169,3.169,0,0,0,3.167-3.17V325.587a3.167,3.167,0,0,0-3.167-3.167h18.481A3.167,3.167,0,0,1,274.544,325.587Z" transform="translate(-196.033 -249.822)" fill="#ffc143"/>
        <path id="Trazado_1034268" data-name="Trazado 1034268" d="M395.966,357.8l9.417-2.386c3.063-.76,6.026,1.157,6.026,4.312a4.855,4.855,0,0,1-3.279,4.592l-8.77,3.688Z" transform="translate(-306.122 -275.083)" fill="#c46255"/>
        <path id="Trazado_1034269" data-name="Trazado 1034269" d="M84.9,362.179l4.169,1.941c1.316.014,7.043-3.662,8.318-3.987l11.333-2.895a5.392,5.392,0,0,1,3.394,10.206l-21.517,8.9a18.016,18.016,0,0,1-6.883,1.367H62.678a12.007,12.007,0,0,0-10.8,6.766l-1.951,3.751a1.611,1.611,0,0,1-1.43.867l-25.166-.013a.66.66,0,0,1-.541-1.038L33.8,372.253a11.952,11.952,0,0,0,2.149-6.686,11.166,11.166,0,0,1,4.5-8.818h0a11.293,11.293,0,0,1,6.757-2.23Z" transform="translate(-18.879 -274.52)" fill="#ce7165"/>
        <path id="Trazado_1034270" data-name="Trazado 1034270" d="M200.776,389.794l-24.694.907a2.524,2.524,0,0,1-2.723-2.3c-.007-.071-.009-.141-.009-.212a2.525,2.525,0,0,1,2.312-2.51l20.35-2.195,3.99-2.566,3.255,0a15.177,15.177,0,0,0,3.905-.468l6.174-1.573C213.548,383.679,209.339,389.794,200.776,389.794Z" transform="translate(-134.826 -293.264)" fill="#c46255"/>
        <path id="Trazado_1034271" data-name="Trazado 1034271" d="M129.131,354.518H164.5a5.037,5.037,0,0,1,.382,10.06l-23.4,1.779Z" transform="translate(-100.8 -274.521)" fill="#ce7165"/>
        <path id="Trazado_1034272" data-name="Trazado 1034272" d="M79.153,63.384H160.9V70.67H79.153Z" transform="translate(-62.344 -50.501)" fill="#ffc143"/>
        <path id="Trazado_1034273" data-name="Trazado 1034273" d="M11.932,192.283a19.906,19.906,0,0,1-2.782-2.866c-.065-.1-.265-.254-.328-.356a17.628,17.628,0,0,1,24.24-24.24c.142.087.3.38.443.471a18.553,18.553,0,0,1,2.545,2.678c6.878,6.878,6.677,16.654-.2,23.528s-17.043,7.663-23.921.786Z" transform="translate(-6.236 -126.565)" fill="#f2fbff"/>
        <path id="Trazado_1034274" data-name="Trazado 1034274" d="M44.963,200.964a17.642,17.642,0,0,1-2.677,2.2,64.759,64.759,0,0,1-9.659,1.445c-3.491.038-9.935-1.462-9.935-1.462a17.715,17.715,0,0,1-5.242-5.457,17.628,17.628,0,0,0,24.24-24.24,17.651,17.651,0,0,1,3.273,27.515Z" transform="translate(-14.865 -135.193)" fill="#dff6fd"/>
        <path id="Trazado_1034275" data-name="Trazado 1034275" d="M39.3,256.14v-1.119a4.473,4.473,0,0,1,3.283-4.311l2.451-.529c.065-.018.2-.36.257-.388a1.237,1.237,0,0,0,.725-1.125v-4.956h6.574v4.956a1.239,1.239,0,0,0,.73,1.13,1.421,1.421,0,0,0,.177.1l2.543.808a4.473,4.473,0,0,1,3.283,4.311v1.119H39.3Z" transform="translate(-31.678 -189.26)" fill="#c46255"/>
        <path id="Trazado_1034276" data-name="Trazado 1034276" d="M59.523,205.628l.764.433a3.986,3.986,0,0,0,3.934,0l.764-.433a6.693,6.693,0,0,0,3.391-5.821v-1.7a6.122,6.122,0,0,0-12.244,0v1.7A6.693,6.693,0,0,0,59.523,205.628Z" transform="translate(-44.63 -149.464)" fill="#ce7165"/>
        <path id="Trazado_1034277" data-name="Trazado 1034277" d="M360.43,192.9c-.864-.864-2.214-1.461-2.857-2.445-.095-.144-.448-.434-.537-.58a17.373,17.373,0,0,1,23.889-23.889c.138.084.271.271.407.36a14.677,14.677,0,0,1,2.312,2.325c6.778,6.778,6.677,16.729-.1,23.5S367.208,199.674,360.43,192.9Z" transform="translate(-274.206 -127.486)" fill="#f2fbff"/>
        <path id="Trazado_1034278" data-name="Trazado 1034278" d="M392.655,201.6a17.375,17.375,0,0,1-2.607,2.143l-9.7-.3-9.634.313a17.465,17.465,0,0,1-5.175-5.384,17.373,17.373,0,0,0,23.889-23.889,17.4,17.4,0,0,1,3.225,27.117Z" transform="translate(-282.711 -135.99)" fill="#dff6fd"/>
        <path id="Trazado_1034279" data-name="Trazado 1034279" d="M386.536,256.14v-1.119a4.473,4.473,0,0,1,3.283-4.311l2.548-.757c.071-.02.1-.125.16-.159a1.3,1.3,0,0,0,.725-1.125v-4.956h6.574v4.956a1.239,1.239,0,0,0,.73,1.129c.058.026.107.181.169.2l2.55.713a4.473,4.473,0,0,1,3.283,4.311v1.119H386.536Z" transform="translate(-298.866 -189.26)" fill="#ffcebe"/>
        <path id="Trazado_1034280" data-name="Trazado 1034280" d="M406.759,205.628l.764.433a3.986,3.986,0,0,0,3.934,0l.764-.433a6.693,6.693,0,0,0,3.391-5.821v-1.7a6.122,6.122,0,0,0-12.245,0v1.7A6.693,6.693,0,0,0,406.759,205.628Z" transform="translate(-311.818 -149.464)" fill="#ffdfcf"/>
        <path id="Trazado_1034281" data-name="Trazado 1034281" d="M401.08,270.747c-2.3,4.288-5.521,7.727-10.367,8.891a.009.009,0,0,0-.007,0,15.044,15.044,0,0,1-5.951-3.136l-.533-1.44a4.162,4.162,0,0,1,1.321-2.928,4.475,4.475,0,0,1,1.955-1.132l3.064-.846a1.041,1.041,0,0,0,.184-.069l.164.371a4.357,4.357,0,0,0,7.7,0l.168-.367a1.193,1.193,0,0,0,.18.065Z" transform="translate(-297.086 -209.556)" fill="#b3dafe"/>
        <path id="Trazado_1034282" data-name="Trazado 1034282" d="M414.5,57.353c0,3.488-2.273,6.105-5.762,6.105a6.256,6.256,0,0,1-6.009-3.7c-.007-.017-.051-.051-.058-.068a6.32,6.32,0,0,1,5.9-8.589,5.9,5.9,0,0,1,2.271.423A6,6,0,0,1,414.5,57.353Z" transform="translate(-310.958 -41.051)" fill="#ffe177"/>
        <path id="Trazado_1034283" data-name="Trazado 1034283" d="M414.441,63.3a6.317,6.317,0,0,1-8.933,0,6.247,6.247,0,0,1-1.43-2.193,6.317,6.317,0,0,0,8.167-8.166,6.242,6.242,0,0,1,2.2,1.426,6.317,6.317,0,0,1,0,8.933Z" transform="translate(-312.364 -42.464)" fill="#ffd15b"/>
        <path id="Trazado_1034284" data-name="Trazado 1034284" d="M221.633,62.048l-6.452.475h-9.939a4.757,4.757,0,0,1-4.757-4.757V53.025a4.757,4.757,0,0,1,4.757-4.757h9.844l6.477.248A4.291,4.291,0,0,1,226,53.027v4.652A4.122,4.122,0,0,1,221.633,62.048Z" transform="translate(-155.705 -38.87)" fill="#ffe177"/>
        <path id="Trazado_1034285" data-name="Trazado 1034285" d="M273.279,53.026v4.742a4.758,4.758,0,0,1-4.758,4.758h-6.976a4.757,4.757,0,0,0,4.756-4.758V53.026a4.757,4.757,0,0,0-4.756-4.756h6.976A4.757,4.757,0,0,1,273.279,53.026Z" transform="translate(-202.689 -38.871)" fill="#ffd15b"/>
        <path id="Trazado_1034286" data-name="Trazado 1034286" d="M53.85,270.749c-2.3,4.288-5.532,7.725-10.377,8.889a.008.008,0,0,0-.007,0,15.68,15.68,0,0,1-6.142-3.069l-.344-1.518a4.153,4.153,0,0,1,1.322-2.916,4.476,4.476,0,0,1,1.955-1.132l3.064-.846a1.044,1.044,0,0,0,.184-.069l.164.371a4.357,4.357,0,0,0,7.7,0l.168-.366a1.2,1.2,0,0,0,.18.064Z" transform="translate(-29.893 -209.556)" fill="#b3dafe"/>
        <path id="Trazado_1034287" data-name="Trazado 1034287" d="M58.036,277.517v3.327a19.028,19.028,0,0,1-21.087-.018v-3.309q0-.131.007-.263a18.968,18.968,0,0,0,16.87-4.3l.927.256a4.476,4.476,0,0,1,3.283,4.311Z" transform="translate(-29.869 -211.756)" fill="#8ac9fe"/>
        <path id="Trazado_1034288" data-name="Trazado 1034288" d="M405.277,277.509v3.3a19,19,0,0,1-21.087.015v-3.32c0-.085,0-.166.007-.251a18.942,18.942,0,0,0,16.858-4.318l.938.258a4.475,4.475,0,0,1,3.282,4.311Z" transform="translate(-297.062 -211.749)" fill="#8ac9fe"/>
        <path id="Trazado_1034289" data-name="Trazado 1034289" d="M68.122,57.353c0,3.488-2.273,6.105-5.762,6.105a6.256,6.256,0,0,1-6.009-3.7c-.007-.017-.051-.051-.058-.068a6.32,6.32,0,0,1,5.9-8.589,5.9,5.9,0,0,1,2.271.423A6,6,0,0,1,68.122,57.353Z" transform="translate(-44.43 -41.051)" fill="#ffe177"/>
        <path id="Trazado_1034290" data-name="Trazado 1034290" d="M68.063,63.3a6.317,6.317,0,0,1-8.933,0A6.245,6.245,0,0,1,57.7,61.1a6.317,6.317,0,0,0,8.167-8.166,6.242,6.242,0,0,1,2.2,1.426A6.317,6.317,0,0,1,68.063,63.3Z" transform="translate(-45.837 -42.464)" fill="#ffd15b"/>
      </g>
      <g id="Grupo_1200177" data-name="Grupo 1200177" transform="translate(1.438 1.729)">
        <path id="Trazado_1034291" data-name="Trazado 1034291" d="M245.55,83.142h-1.438a2.774,2.774,0,0,1-2.766-2.766v-69.6a2.776,2.776,0,0,1,1.749-2.571c.315-.126.737.067,1.1.067l.92.521c1.521,0,2.784.417,2.784,1.938l.175,69.775A2.463,2.463,0,0,1,245.55,83.142Z" transform="translate(-187.146 -8.01)" fill="#ffd15b"/>
        <path id="Trazado_1034292" data-name="Trazado 1034292" d="M254.156,10.266v69.6a2.774,2.774,0,0,1-2.766,2.766h-1.438a2.724,2.724,0,0,1-1.017-.2,2.772,2.772,0,0,0,1.752-2.57v-69.6A2.773,2.773,0,0,0,248.934,7.7a2.725,2.725,0,0,1,1.017-.2h1.439a2.774,2.774,0,0,1,2.766,2.766Z" transform="translate(-192.985 -7.5)" fill="#ffc143"/>
        <path id="Trazado_1034293" data-name="Trazado 1034293" d="M226.114,284.64l-6.687-.222H209.291a2.774,2.774,0,0,0-2.766,2.766v3.232a2.771,2.771,0,0,0,2.766,2.762l9.224,1.851,7.624-2.184a2.506,2.506,0,0,0,2.766-2.43v-3.232A2.616,2.616,0,0,0,226.114,284.64Z" transform="translate(-160.353 -220.581)" fill="#ffe177"/>
        <path id="Trazado_1034294" data-name="Trazado 1034294" d="M270.355,287.183v3.232a2.769,2.769,0,0,1-2.764,2.762l-3.931,1.115-4.105-1.115a2.771,2.771,0,0,0,2.766-2.762v-3.232a2.774,2.774,0,0,0-2.766-2.766h8.034A2.774,2.774,0,0,1,270.355,287.183Z" transform="translate(-201.158 -220.58)" fill="#ffd15b"/>
        <path id="Trazado_1034295" data-name="Trazado 1034295" d="M166.123,333.506v-7.92a3.168,3.168,0,0,1,3.169-3.168h17.488l17.232.3a2.887,2.887,0,0,1,3.128,2.863l-.176,10.137c0,1.749-.606,3.168-2.356,3.168H176.248Z" transform="translate(-129.265 -249.821)" fill="#ffd15b"/>
        <path id="Trazado_1034296" data-name="Trazado 1034296" d="M274.544,325.587v10.136a3.169,3.169,0,0,1-3.167,3.17H252.9a3.169,3.169,0,0,0,3.167-3.17V325.587a3.167,3.167,0,0,0-3.167-3.167h18.481A3.167,3.167,0,0,1,274.544,325.587Z" transform="translate(-196.033 -249.822)" fill="#ffc143"/>
        <path id="Trazado_1034297" data-name="Trazado 1034297" d="M395.966,357.8l9.417-2.386c3.063-.76,6.026,1.157,6.026,4.312a4.855,4.855,0,0,1-3.279,4.592l-8.77,3.688Z" transform="translate(-306.122 -275.083)" fill="#c46255"/>
        <path id="Trazado_1034298" data-name="Trazado 1034298" d="M84.9,362.179l4.169,1.941c1.316.014,7.043-3.662,8.318-3.987l11.333-2.895a5.392,5.392,0,0,1,3.394,10.206l-21.517,8.9a18.016,18.016,0,0,1-6.883,1.367H62.678a12.007,12.007,0,0,0-10.8,6.766l-1.951,3.751a1.611,1.611,0,0,1-1.43.867l-25.166-.013a.66.66,0,0,1-.541-1.038L33.8,372.253a11.952,11.952,0,0,0,2.149-6.686,11.166,11.166,0,0,1,4.5-8.818h0a11.293,11.293,0,0,1,6.757-2.23Z" transform="translate(-18.879 -274.52)" fill="#ce7165"/>
        <path id="Trazado_1034299" data-name="Trazado 1034299" d="M200.776,389.794l-24.694.907a2.524,2.524,0,0,1-2.723-2.3c-.007-.071-.009-.141-.009-.212a2.525,2.525,0,0,1,2.312-2.51l20.35-2.195,3.99-2.566,3.255,0a15.177,15.177,0,0,0,3.905-.468l6.174-1.573C213.548,383.679,209.339,389.794,200.776,389.794Z" transform="translate(-134.826 -293.264)" fill="#c46255"/>
        <path id="Trazado_1034300" data-name="Trazado 1034300" d="M129.131,354.518H164.5a5.037,5.037,0,0,1,.382,10.06l-23.4,1.779Z" transform="translate(-100.8 -274.521)" fill="#ce7165"/>
        <path id="Trazado_1034301" data-name="Trazado 1034301" d="M79.153,63.384H160.9V70.67H79.153Z" transform="translate(-62.344 -50.501)" fill="#ffc143"/>
        <path id="Trazado_1034302" data-name="Trazado 1034302" d="M11.932,192.283a19.906,19.906,0,0,1-2.782-2.866c-.065-.1-.265-.254-.328-.356a17.628,17.628,0,0,1,24.24-24.24c.142.087.3.38.443.471a18.553,18.553,0,0,1,2.545,2.678c6.878,6.878,6.677,16.654-.2,23.528s-17.043,7.663-23.921.786Z" transform="translate(-6.236 -126.565)" fill="#f2fbff"/>
        <path id="Trazado_1034303" data-name="Trazado 1034303" d="M44.963,200.964a17.642,17.642,0,0,1-2.677,2.2,64.759,64.759,0,0,1-9.659,1.445c-3.491.038-9.935-1.462-9.935-1.462a17.715,17.715,0,0,1-5.242-5.457,17.628,17.628,0,0,0,24.24-24.24,17.651,17.651,0,0,1,3.273,27.515Z" transform="translate(-14.865 -135.193)" fill="#dff6fd"/>
        <path id="Trazado_1034304" data-name="Trazado 1034304" d="M39.3,256.14v-1.119a4.473,4.473,0,0,1,3.283-4.311l2.451-.529c.065-.018.2-.36.257-.388a1.237,1.237,0,0,0,.725-1.125v-4.956h6.574v4.956a1.239,1.239,0,0,0,.73,1.13,1.421,1.421,0,0,0,.177.1l2.543.808a4.473,4.473,0,0,1,3.283,4.311v1.119H39.3Z" transform="translate(-31.678 -189.26)" fill="#c46255"/>
        <path id="Trazado_1034305" data-name="Trazado 1034305" d="M59.523,205.628l.764.433a3.986,3.986,0,0,0,3.934,0l.764-.433a6.693,6.693,0,0,0,3.391-5.821v-1.7a6.122,6.122,0,0,0-12.244,0v1.7A6.693,6.693,0,0,0,59.523,205.628Z" transform="translate(-44.63 -149.464)" fill="#ce7165"/>
        <path id="Trazado_1034306" data-name="Trazado 1034306" d="M360.43,192.9c-.864-.864-2.214-1.461-2.857-2.445-.095-.144-.448-.434-.537-.58a17.373,17.373,0,0,1,23.889-23.889c.138.084.271.271.407.36a14.677,14.677,0,0,1,2.312,2.325c6.778,6.778,6.677,16.729-.1,23.5S367.208,199.674,360.43,192.9Z" transform="translate(-274.206 -127.486)" fill="#f2fbff"/>
        <path id="Trazado_1034307" data-name="Trazado 1034307" d="M392.655,201.6a17.375,17.375,0,0,1-2.607,2.143l-9.7-.3-9.634.313a17.465,17.465,0,0,1-5.175-5.384,17.373,17.373,0,0,0,23.889-23.889,17.4,17.4,0,0,1,3.225,27.117Z" transform="translate(-282.711 -135.99)" fill="#dff6fd"/>
        <path id="Trazado_1034308" data-name="Trazado 1034308" d="M386.536,256.14v-1.119a4.473,4.473,0,0,1,3.283-4.311l2.548-.757c.071-.02.1-.125.16-.159a1.3,1.3,0,0,0,.725-1.125v-4.956h6.574v4.956a1.239,1.239,0,0,0,.73,1.129c.058.026.107.181.169.2l2.55.713a4.473,4.473,0,0,1,3.283,4.311v1.119H386.536Z" transform="translate(-298.866 -189.26)" fill="#ffcebe"/>
        <path id="Trazado_1034309" data-name="Trazado 1034309" d="M406.759,205.628l.764.433a3.986,3.986,0,0,0,3.934,0l.764-.433a6.693,6.693,0,0,0,3.391-5.821v-1.7a6.122,6.122,0,0,0-12.245,0v1.7A6.693,6.693,0,0,0,406.759,205.628Z" transform="translate(-311.818 -149.464)" fill="#ffdfcf"/>
        <path id="Trazado_1034310" data-name="Trazado 1034310" d="M401.08,270.747c-2.3,4.288-5.521,7.727-10.367,8.891a.009.009,0,0,0-.007,0,15.044,15.044,0,0,1-5.951-3.136l-.533-1.44a4.162,4.162,0,0,1,1.321-2.928,4.475,4.475,0,0,1,1.955-1.132l3.064-.846a1.041,1.041,0,0,0,.184-.069l.164.371a4.357,4.357,0,0,0,7.7,0l.168-.367a1.193,1.193,0,0,0,.18.065Z" transform="translate(-297.086 -209.556)" fill="#b3dafe"/>
        <path id="Trazado_1034311" data-name="Trazado 1034311" d="M414.5,57.353c0,3.488-2.273,6.105-5.762,6.105a6.256,6.256,0,0,1-6.009-3.7c-.007-.017-.051-.051-.058-.068a6.32,6.32,0,0,1,5.9-8.589,5.9,5.9,0,0,1,2.271.423A6,6,0,0,1,414.5,57.353Z" transform="translate(-310.958 -41.051)" fill="#ffe177"/>
        <path id="Trazado_1034312" data-name="Trazado 1034312" d="M414.441,63.3a6.317,6.317,0,0,1-8.933,0,6.247,6.247,0,0,1-1.43-2.193,6.317,6.317,0,0,0,8.167-8.166,6.242,6.242,0,0,1,2.2,1.426,6.317,6.317,0,0,1,0,8.933Z" transform="translate(-312.364 -42.464)" fill="#ffd15b"/>
        <path id="Trazado_1034313" data-name="Trazado 1034313" d="M221.633,62.048l-6.452.475h-9.939a4.757,4.757,0,0,1-4.757-4.757V53.025a4.757,4.757,0,0,1,4.757-4.757h9.844l6.477.248A4.291,4.291,0,0,1,226,53.027v4.652A4.122,4.122,0,0,1,221.633,62.048Z" transform="translate(-155.705 -38.87)" fill="#ffe177"/>
        <path id="Trazado_1034314" data-name="Trazado 1034314" d="M273.279,53.026v4.742a4.758,4.758,0,0,1-4.758,4.758h-6.976a4.757,4.757,0,0,0,4.756-4.758V53.026a4.757,4.757,0,0,0-4.756-4.756h6.976A4.757,4.757,0,0,1,273.279,53.026Z" transform="translate(-202.689 -38.871)" fill="#ffd15b"/>
        <path id="Trazado_1034315" data-name="Trazado 1034315" d="M53.85,270.749c-2.3,4.288-5.532,7.725-10.377,8.889a.008.008,0,0,0-.007,0,15.68,15.68,0,0,1-6.142-3.069l-.344-1.518a4.153,4.153,0,0,1,1.322-2.916,4.476,4.476,0,0,1,1.955-1.132l3.064-.846a1.044,1.044,0,0,0,.184-.069l.164.371a4.357,4.357,0,0,0,7.7,0l.168-.366a1.2,1.2,0,0,0,.18.064Z" transform="translate(-29.893 -209.556)" fill="#b3dafe"/>
        <path id="Trazado_1034316" data-name="Trazado 1034316" d="M58.036,277.517v3.327a19.028,19.028,0,0,1-21.087-.018v-3.309q0-.131.007-.263a18.968,18.968,0,0,0,16.87-4.3l.927.256a4.476,4.476,0,0,1,3.283,4.311Z" transform="translate(-29.869 -211.756)" fill="#8ac9fe"/>
        <path id="Trazado_1034317" data-name="Trazado 1034317" d="M405.277,277.509v3.3a19,19,0,0,1-21.087.015v-3.32c0-.085,0-.166.007-.251a18.942,18.942,0,0,0,16.858-4.318l.938.258a4.475,4.475,0,0,1,3.282,4.311Z" transform="translate(-297.062 -211.749)" fill="#8ac9fe"/>
        <path id="Trazado_1034318" data-name="Trazado 1034318" d="M68.122,57.353c0,3.488-2.273,6.105-5.762,6.105a6.256,6.256,0,0,1-6.009-3.7c-.007-.017-.051-.051-.058-.068a6.32,6.32,0,0,1,5.9-8.589,5.9,5.9,0,0,1,2.271.423A6,6,0,0,1,68.122,57.353Z" transform="translate(-44.43 -41.051)" fill="#ffe177"/>
        <path id="Trazado_1034319" data-name="Trazado 1034319" d="M68.063,63.3a6.317,6.317,0,0,1-8.933,0A6.245,6.245,0,0,1,57.7,61.1a6.317,6.317,0,0,0,8.167-8.166,6.242,6.242,0,0,1,2.2,1.426A6.317,6.317,0,0,1,68.063,63.3Z" transform="translate(-45.837 -42.464)" fill="#ffd15b"/>
      </g>
      <g id="Grupo_1200178" data-name="Grupo 1200178" transform="translate(0.001 0)">
        <path id="Trazado_1034320" data-name="Trazado 1034320" d="M20.689,461.981a1.729,1.729,0,0,0-2.407.429l-5.671,8.13a1.729,1.729,0,0,0,2.836,1.978l5.671-8.13A1.729,1.729,0,0,0,20.689,461.981Z" transform="translate(-9.464 -355.242)"/>
        <path id="Trazado_1034321" data-name="Trazado 1034321" d="M180.334,429.364l-6.943,2.871a16.2,16.2,0,0,1-6.222,1.236H146.131a13.816,13.816,0,0,0-12.348,7.717l-2.392,4.6a1.729,1.729,0,1,0,3.068,1.6l2.4-4.619.022-.043a10.338,10.338,0,0,1,9.248-5.791h21.038a19.646,19.646,0,0,0,7.544-1.5l6.943-2.871a1.729,1.729,0,1,0-1.322-3.2Z" transform="translate(-100.952 -330.282)"/>
        <path id="Trazado_1034322" data-name="Trazado 1034322" d="M81.8,47.013a19.005,19.005,0,1,0,34.451,0c-.009-.023-.017-.046-.027-.068l-10.974-23.8A8.04,8.04,0,0,0,92.87,12.883H72.961A6.492,6.492,0,0,0,67.214,9.4H64.281V4.5a4.5,4.5,0,0,0-4.5-4.5H58.347a4.5,4.5,0,0,0-4.5,4.5V9.4H50.919a6.492,6.492,0,0,0-5.747,3.485H40.426a1.729,1.729,0,0,0,0,3.458h4.006v3.828H26.915a8.013,8.013,0,0,0,.077-3.828H32.18a1.729,1.729,0,1,0,0-3.458H25.262a8.04,8.04,0,0,0-12.443,10.18L1.808,46.945a19.005,19.005,0,1,0,34.4,0L25.453,23.627H45.172a6.491,6.491,0,0,0,5.747,3.485h2.933V63.78H50.32a4.5,4.5,0,0,0-4.5,4.5V72.6H41.408a4.9,4.9,0,0,0-4.9,4.9V80H29.693a13.105,13.105,0,0,0-7.769,2.571,12.971,12.971,0,0,0-5.2,10.184,10.185,10.185,0,0,1-1.839,5.719L13.5,100.455a1.729,1.729,0,0,0,2.836,1.978l1.383-1.983A13.63,13.63,0,0,0,20.18,92.8a9.493,9.493,0,0,1,3.807-7.453,9.624,9.624,0,0,1,5.706-1.888H65.077a3.308,3.308,0,0,1,.251,6.606l-23.4,1.779a1.729,1.729,0,1,0,.262,3.448l23.4-1.779a6.761,6.761,0,0,0,4.659-2.4,16.777,16.777,0,0,0,3.9-.52l17.507-4.467a3.663,3.663,0,0,1,4.569,3.549,3.7,3.7,0,0,1-2.518,3.49l-6.946,2.872a1.729,1.729,0,1,0,1.321,3.2c3.944-1.615,11.975-4.979,15.931-6.649a6.585,6.585,0,0,0,4.388-6.207,6,6,0,0,0-2.319-4.832,6.777,6.777,0,0,0-5.86-1.156c-4.677,1.181-13.925,3.533-18.6,4.728V77.494a4.9,4.9,0,0,0-4.9-4.9H72.308V68.275a4.5,4.5,0,0,0-4.5-4.5H64.281V56.026a1.729,1.729,0,1,0-3.458,0V63.78H57.31V27.111h3.513V47.78a1.729,1.729,0,1,0,3.458,0V27.111h2.933a6.491,6.491,0,0,0,5.747-3.485H92.579L81.828,46.945c-.011.023-.018.045-.028.068Zm-62.659-33.5A4.587,4.587,0,1,1,14.553,18.1a4.593,4.593,0,0,1,4.588-4.587Zm8.679,54.306a15.51,15.51,0,0,1-17.629,0V67.49a2.744,2.744,0,0,1,2.014-2.644l1.977-.546a6.082,6.082,0,0,0,9.646,0l1.977.546a2.743,2.743,0,0,1,2.014,2.644v.325Zm-6.949-5.37a2.636,2.636,0,0,1-3.731,0,2.949,2.949,0,0,0,.307-1.306v-.785a5.7,5.7,0,0,0,3.116,0v.785a2.952,2.952,0,0,0,.307,1.306Zm-.751-5.622a2.269,2.269,0,0,1-2.228,0l-.764-.433a4.973,4.973,0,0,1-2.515-4.317v-1.7a4.393,4.393,0,0,1,8.787,0v1.7a4.973,4.973,0,0,1-2.515,4.317Zm14.433-1.8a15.459,15.459,0,0,1-3.747,10.1,6.181,6.181,0,0,0-4.079-3.613l-2.7-.747v-2.4a8.437,8.437,0,0,0,2.835-6.3v-1.7a7.851,7.851,0,0,0-15.7,0v1.7a8.437,8.437,0,0,0,2.835,6.3v2.4l-2.7.747a6.182,6.182,0,0,0-4.079,3.613,15.538,15.538,0,1,1,27.347-10.1Zm-6-16.413a18.947,18.947,0,0,0-19.1,0l6.132-13.3a8.022,8.022,0,0,0,6.882.1Zm72.5,45.126a3.386,3.386,0,0,1,2.889.525,2.57,2.57,0,0,1,.992,2.108,3.127,3.127,0,0,1-2.112,2.957c-.133.044-3.093,1.3-3.221,1.349a7.18,7.18,0,0,0,.073-1.008,7.067,7.067,0,0,0-2.1-5.051ZM57.31,4.5a1.051,1.051,0,0,1,1.037-1.037h1.438A1.051,1.051,0,0,1,60.823,4.5V9.4H57.31Zm20.854,73V86L73.29,87.239a13.38,13.38,0,0,1-1.492.29A6.749,6.749,0,0,0,65.076,80H39.969v-2.5a1.441,1.441,0,0,1,1.44-1.439H76.724a1.441,1.441,0,0,1,1.44,1.439ZM67.813,67.238a1.051,1.051,0,0,1,1.037,1.037V72.6H49.282V68.275a1.051,1.051,0,0,1,1.037-1.037Zm2.43-46.613a3.032,3.032,0,0,1-3.028,3.028h-16.3a3.032,3.032,0,0,1-3.028-3.028V15.884a3.032,3.032,0,0,1,3.028-3.028h16.3a3.032,3.032,0,0,1,3.028,3.028Zm3.458-.456V16.341H91.14a8.013,8.013,0,0,0,.077,3.828H73.7Zm34.141,47.646a15.51,15.51,0,0,1-17.629,0V67.49a2.744,2.744,0,0,1,2.014-2.644L94.2,64.3a6.082,6.082,0,0,0,9.646,0l1.977.546a2.744,2.744,0,0,1,2.014,2.644Zm-6.949-5.37a2.636,2.636,0,0,1-3.731,0,2.948,2.948,0,0,0,.307-1.306v-.785a5.7,5.7,0,0,0,3.116,0v.785a2.949,2.949,0,0,0,.307,1.307Zm-.751-5.622a2.269,2.269,0,0,1-2.228,0l-.764-.433a4.973,4.973,0,0,1-2.515-4.317v-1.7a4.393,4.393,0,0,1,8.787,0v1.7a4.973,4.973,0,0,1-2.515,4.317ZM98.991,13.509A4.587,4.587,0,1,1,94.4,18.1a4.593,4.593,0,0,1,4.588-4.587ZM95.578,25.38a8.032,8.032,0,0,0,6.883-.026l6.114,13.26a18.948,18.948,0,0,0-19.1,0Zm3.448,14.109a15.523,15.523,0,0,1,11.8,25.637,6.182,6.182,0,0,0-4.079-3.613l-2.7-.747v-2.4a8.437,8.437,0,0,0,2.835-6.3v-1.7a7.851,7.851,0,0,0-15.7,0v1.7a8.437,8.437,0,0,0,2.835,6.3v2.4l-2.7.747a6.182,6.182,0,0,0-4.079,3.613,15.523,15.523,0,0,1,11.8-25.637Z" transform="translate(-0.001 0)"/>
      </g>
    </g>
  </g>
</svg>
