<svg xmlns="http://www.w3.org/2000/svg" xmlns:xlink="http://www.w3.org/1999/xlink" width="118" height="118" viewBox="0 0 118 118">
  <defs>
    <filter id="Trazado_896985" x="0" y="0" width="118" height="118" filterUnits="userSpaceOnUse">
      <feOffset dy="3" input="SourceAlpha"/>
      <feGaussianBlur stdDeviation="3" result="blur"/>
      <feFlood flood-opacity="0.161"/>
      <feComposite operator="in" in2="blur"/>
      <feComposite in="SourceGraphic"/>
    </filter>
  </defs>
  <g id="Grupo_1200182" data-name="Grupo 1200182" transform="translate(-617.84 -8871.136)">
    <g id="Grupo_1198724" data-name="Grupo 1198724" transform="translate(0.95 4409.813)">
      <g id="Grupo_1198140" data-name="Grupo 1198140" transform="translate(291 615.322)">
        <g id="Grupo_1111318" data-name="Grupo 1111318" transform="translate(334.891 3852)">
          <g id="Grupo_1109826" data-name="Grupo 1109826" transform="translate(0)">
            <g id="Grupo_1098742" data-name="Grupo 1098742" transform="translate(0 0)">
              <g transform="matrix(1, 0, 0, 1, -9, -6)" filter="url(#Trazado_896985)">
                <g id="Trazado_896985-2" data-name="Trazado 896985" transform="translate(9 6)" fill="#fc0" opacity="0.859">
                  <path d="M 49.99993515014648 99.5 C 43.31726837158203 99.5 36.83476257324219 98.19129943847656 30.73248100280762 95.61025238037109 C 24.83812141418457 93.11714172363281 19.54434776306152 89.54795837402344 14.99820137023926 85.00179290771484 C 10.45204162597656 80.45565032958984 6.88285493850708 75.16187286376953 4.389748573303223 69.26751708984375 C 1.808695197105408 63.16523742675781 0.5000017881393433 56.6827278137207 0.5000017881393433 50.00006103515625 C 0.5000017881393433 43.31726455688477 1.808695197105408 36.83475494384766 4.389748573303223 30.73247528076172 C 6.88285493850708 24.83811569213867 10.45204162597656 19.54434204101562 14.99820137023926 14.99819660186768 C 19.54434776306152 10.45203590393066 24.83812141418457 6.88284969329834 30.73248100280762 4.389742851257324 C 36.83476257324219 1.808689475059509 43.31726837158203 0.4999961853027344 49.99993515014648 0.4999961853027344 C 56.68260192871094 0.4999961853027344 63.16510772705078 1.808689475059509 69.26738739013672 4.389742851257324 C 75.16175079345703 6.88284969329834 80.45552062988281 10.45203590393066 85.00167083740234 14.99819660186768 C 89.54782867431641 19.54434204101562 93.11701202392578 24.83811569213867 95.61012268066406 30.73247528076172 C 98.19117736816406 36.83475494384766 99.49987030029297 43.31726455688477 99.49987030029297 49.99993133544922 C 99.49987030029297 56.6827278137207 98.19117736816406 63.16523742675781 95.61012268066406 69.26751708984375 C 93.11701202392578 75.16187286376953 89.54782867431641 80.45565032958984 85.00167083740234 85.00179290771484 C 80.45552062988281 89.54795837402344 75.16175079345703 93.11714172363281 69.26738739013672 95.61025238037109 C 63.16510772705078 98.19129943847656 56.68260192871094 99.5 49.99993515014648 99.5 Z" stroke="none"/>
                  <path d="M 49.99993515014648 0.9999923706054688 C 43.38454818725586 0.9999923706054688 36.96757507324219 2.29541015625 30.92725372314453 4.850250244140625 C 25.09249877929688 7.318145751953125 19.85213470458984 10.85135650634766 15.35174560546875 15.35174560546875 C 10.85136413574219 19.85212707519531 7.318145751953125 25.09249114990234 4.850257873535156 30.92724609375 C 2.295417785644531 36.96757125854492 1 43.38454437255859 1 50.00006103515625 C 1 56.61544799804688 2.295417785644531 63.03242111206055 4.850257873535156 69.07273864746094 C 7.318145751953125 74.90750122070312 10.85136413574219 80.14786529541016 15.35174560546875 84.64824676513672 C 19.85213470458984 89.14863586425781 25.09249877929688 92.68184661865234 30.92725372314453 95.14974212646484 C 36.96757507324219 97.70458221435547 43.38454818725586 99 49.99993515014648 99 C 56.61532211303711 99 63.03229522705078 97.70458221435547 69.07261657714844 95.14974212646484 C 74.90737915039062 92.68184661865234 80.14773559570312 89.14863586425781 84.64812469482422 84.64824676513672 C 89.14850616455078 80.14786529541016 92.68172454833984 74.90750122070312 95.14961242675781 69.07273864746094 C 97.70445251464844 63.03242111206055 98.99987030029297 56.61544799804688 98.99987030029297 49.99993133544922 C 98.99987030029297 43.38454437255859 97.70445251464844 36.96757125854492 95.14961242675781 30.92724609375 C 92.68172454833984 25.09249114990234 89.14850616455078 19.85212707519531 84.64812469482422 15.35174560546875 C 80.14773559570312 10.85135650634766 74.90737915039062 7.318145751953125 69.07261657714844 4.850250244140625 C 63.03229522705078 2.29541015625 56.61532211303711 0.9999923706054688 49.99993515014648 0.9999923706054688 M 49.99993515014648 -7.62939453125e-06 C 77.6141357421875 -7.62939453125e-06 99.99987030029297 22.38572692871094 99.99987030029297 49.99993133544922 L 99.99987030029297 50.00006103515625 C 99.99987030029297 77.61426544189453 77.6141357421875 100 49.99993515014648 100 C 22.38573455810547 100 0 77.61426544189453 0 50.00006103515625 L 0 49.99993133544922 C 0 22.38572692871094 22.38573455810547 -7.62939453125e-06 49.99993515014648 -7.62939453125e-06 Z" stroke="none" fill="#fff"/>
                </g>
              </g>
              <g id="Rectángulo_400907" data-name="Rectángulo 400907" transform="translate(0)" fill="none" stroke="#fff" stroke-width="1">
                <rect width="100" height="100" rx="50" stroke="none"/>
                <rect x="0.5" y="0.5" width="99" height="99" rx="49.5" fill="none"/>
              </g>
            </g>
          </g>
        </g>
      </g>
    </g>
    <g id="jardineria_1_" data-name="jardineria (1)" transform="translate(644.471 8892.385)">
      <path id="Trazado_1034323" data-name="Trazado 1034323" d="M312.369,256.082l1.338.236a4.3,4.3,0,0,0,3.022-.587l5.16-3.223a8.592,8.592,0,0,0,3.91-5.795l2.04-11.568-11.423-2.014-11.422-2.015-2.04,11.568a8.592,8.592,0,0,0,1.692,6.783l3.747,4.793a4.294,4.294,0,0,0,2.638,1.585Zm0,0" transform="translate(-264.534 -201.894)" fill="#e1ebef"/>
      <path id="Trazado_1034324" data-name="Trazado 1034324" d="M310.235,287.75c4.432-1.989,6.853-9.336,6.853-9.336s-7.229-2.751-11.567-.565a5.692,5.692,0,0,0-1.979,1.62l-.582,3.3a8.589,8.589,0,0,0,.1,3.467C304.351,287.36,307.092,289.161,310.235,287.75Zm0,0" transform="translate(-264.54 -241.98)" fill="#c4d3d6"/>
      <path id="Trazado_1034325" data-name="Trazado 1034325" d="M357.913,257.668l-1.722,9.77a8.592,8.592,0,0,1-3.91,5.795l-5.16,3.223a4.3,4.3,0,0,1-3.022.587l-1.338-.236-1.151-.2.665.851a4.3,4.3,0,0,0,2.639,1.585l1.338.236,1.338.236a4.3,4.3,0,0,0,3.022-.587l5.16-3.223a8.592,8.592,0,0,0,3.91-5.795l2.04-11.568Zm0,0" transform="translate(-298.417 -225.088)" fill="#c4d3d6"/>
      <path id="Trazado_1034326" data-name="Trazado 1034326" d="M391.978,181.671l-2.856-.5-1.38,7.826,2.856.5,2.856.5,1.38-7.826Zm0,0" transform="translate(-338.716 -158.26)" fill="#e1ebef"/>
      <path id="Trazado_1034327" data-name="Trazado 1034327" d="M393.141,186.773l-.914,5.183a1.074,1.074,0,0,1-1.244.871l-1.8-.317-1.163-.205-.28,1.586,2.856.5,2.856.5,1.38-7.826Zm0,0" transform="translate(-338.716 -163.157)" fill="#c4d3d6"/>
      <path id="Trazado_1034328" data-name="Trazado 1034328" d="M404.254,58.707l-2.856-.5-2.742,15.548,2.856.5,2.856.5L407.11,59.21Zm0,0" transform="translate(-348.251 -50.843)" fill="#ffd432"/>
      <path id="Trazado_1034329" data-name="Trazado 1034329" d="M401.4,58.2l-.28,1.586,2.961.522a1.074,1.074,0,0,1,.871,1.244l-1.809,10.259a1.074,1.074,0,0,1-1.244.871l-2.961-.522-.28,1.586,5.711,1.007,2.742-15.548Zm0,0" transform="translate(-348.254 -50.843)" fill="#f4ac03"/>
      <path id="Trazado_1034330" data-name="Trazado 1034330" d="M403.432,12.817l.5-2.856L390.4,7.574l-.5,2.856-.5,2.856,13.538,2.387Zm0,0" transform="translate(-340.156 -6.615)" fill="#64aef7"/>
      <path id="Trazado_1034331" data-name="Trazado 1034331" d="M401.926,23.652l-.466,2.644a1.074,1.074,0,0,1-1.244.871l-10.471-1.846-.354,2.01,13.538,2.387,1.007-5.711Zm0,0" transform="translate(-340.156 -20.661)" fill="#0a86e3"/>
      <path id="Trazado_1034332" data-name="Trazado 1034332" d="M59.67,405.625H70.4a5.366,5.366,0,0,0-7.2-5.038,9.451,9.451,0,0,0-9.486-4.292,6,6,0,0,0-11.047-2.075,4.979,4.979,0,0,0-7.348,0A6,6,0,0,0,24.263,396.3a9.558,9.558,0,0,0-1.495-.118,9.439,9.439,0,0,0-7.991,4.41,5.366,5.366,0,0,0-7.2,5.038Zm0,0" transform="translate(-6.616 -341.845)" fill="#a77554"/>
      <path id="Trazado_1034333" data-name="Trazado 1034333" d="M65.033,400.262a5.359,5.359,0,0,0-1.84.324,9.446,9.446,0,0,0-9.486-4.291A6,6,0,0,0,42.671,394.2a9.448,9.448,0,0,1,6.859,4.341,5.37,5.37,0,0,1,6.509,2.4,1.783,1.783,0,0,1-1.571,2.641H7.978a5.343,5.343,0,0,0-.4,2.043H70.4a5.363,5.363,0,0,0-5.363-5.363Zm0,0" transform="translate(-6.616 -341.845)" fill="#915431"/>
      <path id="Trazado_1034334" data-name="Trazado 1034334" d="M120.958,253.56s-3.25,3.841-7.2,2.066c-4.011-1.8-6.2-8.451-6.2-8.451s6.544-2.49,10.47-.511C121.891,248.616,120.958,253.56,120.958,253.56Zm0,0" transform="translate(-93.952 -214.808)" fill="#6ec030"/>
      <path id="Trazado_1034335" data-name="Trazado 1034335" d="M150.291,247.959a6.758,6.758,0,0,0-1.728-.577c2.48,2.246,1.757,6.088,1.757,6.088s-2.523,2.982-5.828,2.476a6.758,6.758,0,0,0,1.532.973c3.954,1.775,7.2-2.066,7.2-2.066S154.161,249.91,150.291,247.959Zm0,0" transform="translate(-126.222 -216.103)" fill="#378900"/>
      <path id="Trazado_1034336" data-name="Trazado 1034336" d="M297.731,268.709s3.25,3.842,7.2,2.066c4.011-1.8,6.2-8.451,6.2-8.451s-6.544-2.49-10.47-.511c-3.87,1.951-2.937,6.895-2.937,6.895Zm0,0" transform="translate(-260 -228.042)" fill="#6ec030"/>
      <path id="Trazado_1034337" data-name="Trazado 1034337" d="M317.349,265.066c-.594,1.567-2.675,6.457-6.027,7.962a5.151,5.151,0,0,1-3.568.269,5.835,5.835,0,0,0,6.023.987c4.011-1.8,6.2-8.451,6.2-8.451a22.018,22.018,0,0,0-2.631-.767Zm0,0" transform="translate(-268.842 -231.55)" fill="#378900"/>
      <path id="Trazado_1034338" data-name="Trazado 1034338" d="M222.477,139.786s4.852-1.156,4.852-5.491-4.852-9.576-4.852-9.576-4.852,5.251-4.852,9.576S222.477,139.786,222.477,139.786Zm0,0" transform="translate(-190.108 -108.948)" fill="#6ec030"/>
      <path id="Trazado_1034339" data-name="Trazado 1034339" d="M223.621,125.234c1.193,1.84,2.367,4.192,2.367,6.319a5.227,5.227,0,0,1-2.631,4.506,4.147,4.147,0,0,1-4.455-.01l-.035-.022c.828,3.284,4.7,4.208,4.7,4.208s4.852-1.157,4.852-5.491C228.414,130.7,224.172,125.847,223.621,125.234Zm0,0" transform="translate(-191.194 -109.398)" fill="#378900"/>
      <path id="Trazado_1034340" data-name="Trazado 1034340" d="M167.865,427.172a3.259,3.259,0,0,0-3.256,3.256.958.958,0,1,0,1.915,0,1.341,1.341,0,0,1,2.681,0,.958.958,0,1,0,1.915,0,3.26,3.26,0,0,0-3.256-3.256Zm0,0" transform="translate(-143.796 -373.16)"/>
      <path id="Trazado_1034341" data-name="Trazado 1034341" d="M285.006,446.359a3.26,3.26,0,0,0-3.256,3.256.958.958,0,1,0,1.915,0,1.341,1.341,0,0,1,2.681,0,.958.958,0,1,0,1.915,0A3.26,3.26,0,0,0,285.006,446.359Zm0,0" transform="translate(-246.126 -389.921)"/>
      <path id="Trazado_1034342" data-name="Trazado 1034342" d="M408,472.875a.766.766,0,1,1-.766-.766A.766.766,0,0,1,408,472.875Zm0,0" transform="translate(-355.075 -412.415)"/>
      <path id="Trazado_1034343" data-name="Trazado 1034343" d="M113.122,456.72a.766.766,0,1,1-.766-.766A.766.766,0,0,1,113.122,456.72Zm0,0" transform="translate(-97.48 -398.302)"/>
      <path id="Trazado_1034344" data-name="Trazado 1034344" d="M58.416,57.46a6.349,6.349,0,0,0-1.443.165A10.373,10.373,0,0,0,53.1,54.4l4.76-2.973a9.564,9.564,0,0,0,4.345-6.441l2.04-11.568a.958.958,0,0,0-.777-1.109L61.739,32a.958.958,0,1,0-.332,1.886l.788.139L60.321,44.653A7.645,7.645,0,0,1,56.848,49.8l-5.161,3.223a3.354,3.354,0,0,1-1.406.487,10.494,10.494,0,0,0-1.7-.138q-.381,0-.764.028a6.937,6.937,0,0,0-5.7-4.817l-1.251-1.6A7.592,7.592,0,0,1,39.3,43.151,7.011,7.011,0,0,0,42.8,44.159h0a6.137,6.137,0,0,0,2.527-.552c4.346-1.951,6.625-8.736,6.721-9.024a.958.958,0,0,0-.569-1.2,22.476,22.476,0,0,0-7.037-1.337,9.92,9.92,0,0,0-3.617.608l.41-2.326,7.623,1.344h0l5.711,1.007h0l2.5.441a.958.958,0,1,0,.333-1.886l-1.557-.275,1.214-6.883,2.575-14.6,2.97.524a.976.976,0,0,0,.167.015.958.958,0,0,0,.942-.791l1.007-5.711A.958.958,0,0,0,63.946,2.4L50.408.016A.958.958,0,0,0,49.3.793L48.292,6.5a.957.957,0,0,0,.776,1.109l2.97.524-.506,2.871a.957.957,0,1,0,1.886.332l.506-2.871,3.825.675L55.341,22.805l-3.825-.674,1.115-6.323a.958.958,0,1,0-1.886-.332l-1.281,7.266L48.25,29.625l-7.624-1.344a.957.957,0,0,0-1.109.777l-.882,5A7.7,7.7,0,0,0,36.7,40.063a11.84,11.84,0,0,0-3.371,2.387v-10.9c2-.717,4.852-2.641,4.852-6.2,0-4.647-4.9-10-5.106-10.226a.958.958,0,0,0-1.407,0c-.209.226-5.106,5.58-5.106,10.226,0,3.559,2.854,5.483,4.852,6.2v8.988a11.853,11.853,0,0,0-3.371-2.387c.118-1.633-.032-5.377-3.54-7.145a9.316,9.316,0,0,0-4.205-.867,22.476,22.476,0,0,0-7.037,1.337.958.958,0,0,0-.569,1.2c.095.288,2.374,7.073,6.721,9.024a6.14,6.14,0,0,0,2.527.553,8.063,8.063,0,0,0,5.3-2.358,10.986,10.986,0,0,1,4.172,3.622v6.369a5.964,5.964,0,0,0-2.563,1.079A6.962,6.962,0,0,0,16.916,53.4c-.255-.019-.51-.029-.763-.029a10.353,10.353,0,0,0-8.389,4.252A6.326,6.326,0,0,0,0,63.78a.958.958,0,0,0,.958.958H63.779a.958.958,0,0,0,.958-.958,6.328,6.328,0,0,0-6.32-6.32Zm-7.4-55.391L62.67,4.123,62,7.948l-2.97-.524L53.314,6.417h0l-2.969-.524Zm.165,21.948,3.825.675-1.048,5.94-3.825-.674ZM20.194,39.945c-2.75-1.234-4.621-5.194-5.348-6.983a19.725,19.725,0,0,1,5.449-.911,7.448,7.448,0,0,1,3.343.662,4.94,4.94,0,0,1,2.514,4.571l-4.607-2.2a.958.958,0,0,0-.826,1.728l4.607,2.2a5.682,5.682,0,0,1-3.389,1.318,4.234,4.234,0,0,1-1.743-.384Zm24.249-5.979a19.8,19.8,0,0,1,5.449.911c-.725,1.79-2.592,5.745-5.348,6.983a4.241,4.241,0,0,1-1.742.384h0a5.706,5.706,0,0,1-3.385-1.32l4.6-2.2A.958.958,0,0,0,43.192,37l-4.6,2.2A4.962,4.962,0,0,1,41.1,34.627a7.453,7.453,0,0,1,3.343-.661Zm-7.1,7.911a9.481,9.481,0,0,0,2.015,6.287l.395.5a6.881,6.881,0,0,0-3.863,2.288,5.961,5.961,0,0,0-2.562-1.079V45.423a11.072,11.072,0,0,1,4.016-3.546Zm-8.868-16.53c0-2.948,2.607-6.518,3.895-8.1,1.289,1.582,3.894,5.147,3.894,8.1a4.6,4.6,0,0,1-2.937,4.121V25.73a.958.958,0,1,0-1.915,0v3.731a4.623,4.623,0,0,1-2.937-4.114ZM2.02,62.823a4.41,4.41,0,0,1,5.812-3.181.957.957,0,0,0,1.138-.388,8.456,8.456,0,0,1,7.182-3.964A8.574,8.574,0,0,1,17.5,55.4a.958.958,0,0,0,1.094-.782,5.044,5.044,0,0,1,9.285-1.742.958.958,0,0,0,1.525.151,4.021,4.021,0,0,1,5.936,0,.958.958,0,0,0,1.525-.151,5.044,5.044,0,0,1,9.285,1.742.958.958,0,0,0,1.094.782,8.575,8.575,0,0,1,1.344-.107,8.456,8.456,0,0,1,7.182,3.964.957.957,0,0,0,1.138.388,4.41,4.41,0,0,1,5.812,3.181Zm0,0" transform="translate(0 0)"/>
    </g>
  </g>
</svg>
