<svg xmlns="http://www.w3.org/2000/svg" xmlns:xlink="http://www.w3.org/1999/xlink" width="118" height="118" viewBox="0 0 118 118">
  <defs>
    <filter id="Trazado_896985" x="0" y="0" width="118" height="118" filterUnits="userSpaceOnUse">
      <feOffset dy="3" input="SourceAlpha"/>
      <feGaussianBlur stdDeviation="3" result="blur"/>
      <feFlood flood-opacity="0.161"/>
      <feComposite operator="in" in2="blur"/>
      <feComposite in="SourceGraphic"/>
    </filter>
  </defs>
  <g id="Grupo_1199877" data-name="Grupo 1199877" transform="translate(-896 -6135.322)">
    <g id="Grupo_1198701" data-name="Grupo 1198701" transform="translate(-3.05 2512.322)">
      <g id="Grupo_1198654" data-name="Grupo 1198654">
        <g id="Grupo_1198136" data-name="Grupo 1198136" transform="translate(0 -705.475)">
          <g id="Grupo_1181848" data-name="Grupo 1181848" transform="translate(908.051 4334.475)">
            <g id="Grupo_1111318" data-name="Grupo 1111318" transform="translate(0)">
              <g id="Grupo_1109826" data-name="Grupo 1109826" transform="translate(0 0)">
                <g id="Grupo_1098742" data-name="Grupo 1098742">
                  <g transform="matrix(1, 0, 0, 1, -9, -6)" filter="url(#Trazado_896985)">
                    <g id="Trazado_896985-2" data-name="Trazado 896985" transform="translate(9 6)" fill="#9ad354" opacity="0.859">
                      <path d="M 49.99993515014648 99.5 C 43.31726837158203 99.5 36.83476257324219 98.19129943847656 30.73248100280762 95.61025238037109 C 24.83812141418457 93.11714172363281 19.54434776306152 89.54795837402344 14.99820137023926 85.00179290771484 C 10.45204162597656 80.45565032958984 6.88285493850708 75.16187286376953 4.389748573303223 69.26751708984375 C 1.808695197105408 63.16523742675781 0.5000017881393433 56.6827278137207 0.5000017881393433 50.00006103515625 C 0.5000017881393433 43.31726455688477 1.808695197105408 36.83475494384766 4.389748573303223 30.73247528076172 C 6.88285493850708 24.83811569213867 10.45204162597656 19.54434204101562 14.99820137023926 14.99819660186768 C 19.54434776306152 10.45203590393066 24.83812141418457 6.88284969329834 30.73248100280762 4.389742851257324 C 36.83476257324219 1.808689475059509 43.31726837158203 0.4999961853027344 49.99993515014648 0.4999961853027344 C 56.68260192871094 0.4999961853027344 63.16510772705078 1.808689475059509 69.26738739013672 4.389742851257324 C 75.16175079345703 6.88284969329834 80.45552062988281 10.45203590393066 85.00167083740234 14.99819660186768 C 89.54782867431641 19.54434204101562 93.11701202392578 24.83811569213867 95.61012268066406 30.73247528076172 C 98.19117736816406 36.83475494384766 99.49987030029297 43.31726455688477 99.49987030029297 49.99993133544922 C 99.49987030029297 56.6827278137207 98.19117736816406 63.16523742675781 95.61012268066406 69.26751708984375 C 93.11701202392578 75.16187286376953 89.54782867431641 80.45565032958984 85.00167083740234 85.00179290771484 C 80.45552062988281 89.54795837402344 75.16175079345703 93.11714172363281 69.26738739013672 95.61025238037109 C 63.16510772705078 98.19129943847656 56.68260192871094 99.5 49.99993515014648 99.5 Z" stroke="none"/>
                      <path d="M 49.99993515014648 0.9999923706054688 C 43.38454818725586 0.9999923706054688 36.96757507324219 2.29541015625 30.92725372314453 4.850250244140625 C 25.09249877929688 7.318145751953125 19.85213470458984 10.85135650634766 15.35174560546875 15.35174560546875 C 10.85136413574219 19.85212707519531 7.318145751953125 25.09249114990234 4.850257873535156 30.92724609375 C 2.295417785644531 36.96757125854492 1 43.38454437255859 1 50.00006103515625 C 1 56.61544799804688 2.295417785644531 63.03242111206055 4.850257873535156 69.07273864746094 C 7.318145751953125 74.90750122070312 10.85136413574219 80.14786529541016 15.35174560546875 84.64824676513672 C 19.85213470458984 89.14863586425781 25.09249877929688 92.68184661865234 30.92725372314453 95.14974212646484 C 36.96757507324219 97.70458221435547 43.38454818725586 99 49.99993515014648 99 C 56.61532211303711 99 63.03229522705078 97.70458221435547 69.07261657714844 95.14974212646484 C 74.90737915039062 92.68184661865234 80.14773559570312 89.14863586425781 84.64812469482422 84.64824676513672 C 89.14850616455078 80.14786529541016 92.68172454833984 74.90750122070312 95.14961242675781 69.07273864746094 C 97.70445251464844 63.03242111206055 98.99987030029297 56.61544799804688 98.99987030029297 49.99993133544922 C 98.99987030029297 43.38454437255859 97.70445251464844 36.96757125854492 95.14961242675781 30.92724609375 C 92.68172454833984 25.09249114990234 89.14850616455078 19.85212707519531 84.64812469482422 15.35174560546875 C 80.14773559570312 10.85135650634766 74.90737915039062 7.318145751953125 69.07261657714844 4.850250244140625 C 63.03229522705078 2.29541015625 56.61532211303711 0.9999923706054688 49.99993515014648 0.9999923706054688 M 49.99993515014648 -7.62939453125e-06 C 77.6141357421875 -7.62939453125e-06 99.99987030029297 22.38572692871094 99.99987030029297 49.99993133544922 L 99.99987030029297 50.00006103515625 C 99.99987030029297 77.61426544189453 77.6141357421875 100 49.99993515014648 100 C 22.38573455810547 100 0 77.61426544189453 0 50.00006103515625 L 0 49.99993133544922 C 0 22.38572692871094 22.38573455810547 -7.62939453125e-06 49.99993515014648 -7.62939453125e-06 Z" stroke="none" fill="#fff"/>
                    </g>
                  </g>
                  <g id="Rectángulo_400907" data-name="Rectángulo 400907" transform="translate(0)" fill="none" stroke="#fff" stroke-width="1">
                    <rect width="100" height="100" rx="50" stroke="none"/>
                    <rect x="0.5" y="0.5" width="99" height="99" rx="49.5" fill="none"/>
                  </g>
                </g>
              </g>
            </g>
          </g>
        </g>
      </g>
    </g>
    <g id="pobreza_1_" data-name="pobreza (1)" transform="translate(916 6134.632)">
      <g id="Grupo_1199875" data-name="Grupo 1199875" transform="translate(0 23.509)">
        <g id="Grupo_1199874" data-name="Grupo 1199874" transform="translate(0 0)">
          <g id="Grupo_1199855" data-name="Grupo 1199855" transform="translate(0 42.187)">
            <path id="Trazado_1031561" data-name="Trazado 1031561" d="M24.19,344.2l12.677,8.6H64.188a6.3,6.3,0,0,0-6.3-6.3H47.245L35.129,334.379a9.069,9.069,0,0,0-6.412-2.656H0V344.2Z" transform="translate(0 -331.723)" fill="#f5d9ab"/>
          </g>
          <g id="Grupo_1199856" data-name="Grupo 1199856" transform="translate(0 51.614)">
            <path id="Trazado_1031562" data-name="Trazado 1031562" d="M63.5,407.527H37.626L25.66,399.032H0v3.049l24.33-.008,12.537,8.458h27.32A8.674,8.674,0,0,0,63.5,407.527Z" transform="translate(0 -399.032)" fill="#f0b582"/>
          </g>
          <g id="Grupo_1199857" data-name="Grupo 1199857" transform="translate(33.44 49.787)">
            <path id="Trazado_1031563" data-name="Trazado 1031563" d="M248.93,394.032l-8.045-8.045-2.127,2.128,8.134,8.134a3.2,3.2,0,0,0,4.432.133,3.139,3.139,0,0,0,.911-1.553A3.253,3.253,0,0,1,248.93,394.032Z" transform="translate(-238.758 -385.987)" fill="#f0b582"/>
          </g>
          <g id="Grupo_1199858" data-name="Grupo 1199858" transform="translate(30.703 37.884)">
            <path id="Trazado_1031564" data-name="Trazado 1031564" d="M219.213,301v4.249a15.774,15.774,0,0,1,5.48,3.6l9.352,9.456a7.476,7.476,0,0,1,1.278,1.7H249.51a9.5,9.5,0,0,0,9.5-9.5V301Z" transform="translate(-219.213 -301)" fill="#a4d7f5"/>
          </g>
          <g id="Grupo_1199859" data-name="Grupo 1199859" transform="translate(30.703 37.884)">
            <path id="Trazado_1031565" data-name="Trazado 1031565" d="M259.014,307.4a9.5,9.5,0,0,1-9.5,9.5H237l-9.836-9.988a15.774,15.774,0,0,0-4.825-3.329V301h-3.123v4.249a15.773,15.773,0,0,1,5.48,3.6l9.352,9.456a7.475,7.475,0,0,1,1.278,1.7H249.51a9.506,9.506,0,0,0,9.5-9.5Z" transform="translate(-219.213 -301)" fill="#83c8f1"/>
          </g>
          <g id="Grupo_1199860" data-name="Grupo 1199860" transform="translate(37.032)">
            <path id="Trazado_1031566" data-name="Trazado 1031566" d="M280.106,30.517a15.7,15.7,0,0,0-15.7,15.7v15.7h.575l4.533-4.113a15.7,15.7,0,1,0,10.593-27.29Z" transform="translate(-264.405 -30.517)" fill="#e5ecf5"/>
          </g>
          <g id="Grupo_1199861" data-name="Grupo 1199861" transform="translate(46.869 9.965)">
            <path id="Trazado_1031567" data-name="Trazado 1031567" d="M346.486,110.537l-2.952-2.952,2.952-2.952-2.971-2.971-2.952,2.952-2.952-2.952-2.971,2.971,2.952,2.952-2.952,2.952,2.971,2.971,2.952-2.952,2.952,2.952Z" transform="translate(-334.64 -101.662)" fill="#e2839f"/>
          </g>
          <g id="Grupo_1199865" data-name="Grupo 1199865" transform="translate(46.862 9.968)">
            <g id="Grupo_1199862" data-name="Grupo 1199862" transform="translate(0.001 0)">
              <path id="Trazado_1031568" data-name="Trazado 1031568" d="M0,0H4.2V3.232H0Z" transform="translate(0 2.971) rotate(-45)" fill="#d15573"/>
            </g>
            <g id="Grupo_1199863" data-name="Grupo 1199863" transform="translate(6.61 6.57)">
              <path id="Trazado_1031569" data-name="Trazado 1031569" d="M0,0H4.261V3.2H0Z" transform="translate(0 3.012) rotate(-45)" fill="#d15573"/>
            </g>
            <g id="Grupo_1199864" data-name="Grupo 1199864" transform="translate(0 6.53)">
              <path id="Trazado_1031570" data-name="Trazado 1031570" d="M0,0H3.316V4.2H0Z" transform="translate(0 2.345) rotate(-45)" fill="#d15573"/>
            </g>
          </g>
          <g id="Grupo_1199866" data-name="Grupo 1199866" transform="translate(37.607 21.564)">
            <path id="Trazado_1031571" data-name="Trazado 1031571" d="M285.067,191.581a15.644,15.644,0,0,1-10.594-4.113l-4.533,4.113-1.43,2.736,4.533-4.113a15.7,15.7,0,0,0,25.163-5.727A15.687,15.687,0,0,1,285.067,191.581Z" transform="translate(-268.51 -184.477)" fill="#cad8eb"/>
          </g>
          <g id="Grupo_1199868" data-name="Grupo 1199868" transform="translate(37.032 0)">
            <g id="Grupo_1199867" data-name="Grupo 1199867">
              <path id="Trazado_1031572" data-name="Trazado 1031572" d="M267.57,46.218A15.7,15.7,0,0,1,281.689,30.6q-.781-.078-1.582-.079a15.7,15.7,0,0,0-15.7,15.7v15.7h.575l2.59-2.35Z" transform="translate(-264.405 -30.517)" fill="#cad8eb"/>
            </g>
          </g>
          <g id="Grupo_1199869" data-name="Grupo 1199869" transform="translate(37.956 41.035)">
            <path id="Trazado_1031573" data-name="Trazado 1031573" d="M271,323.5h2.1v2.1H271Z" transform="translate(-271 -323.5)" fill="#fff"/>
          </g>
          <g id="Grupo_1199870" data-name="Grupo 1199870" transform="translate(42.158 41.035)">
            <path id="Trazado_1031574" data-name="Trazado 1031574" d="M301,323.5h2.1v2.1H301Z" transform="translate(-301 -323.5)" fill="#fff"/>
          </g>
          <g id="Grupo_1199873" data-name="Grupo 1199873" transform="translate(43.089 3.826)">
            <g id="Grupo_1199871" data-name="Grupo 1199871" transform="translate(0 2.231)">
              <path id="Trazado_1031575" data-name="Trazado 1031575" d="M309.263,76.722l-1.617-1.342a12.43,12.43,0,0,1,1.621-1.621l1.342,1.617A10.316,10.316,0,0,0,309.263,76.722Z" transform="translate(-307.646 -73.759)" fill="#fff"/>
            </g>
            <g id="Grupo_1199872" data-name="Grupo 1199872" transform="translate(3.506)">
              <path id="Trazado_1031576" data-name="Trazado 1031576" d="M333.706,60.6l-1.029-1.832a12.543,12.543,0,0,1,2.091-.934l.678,1.989A10.457,10.457,0,0,0,333.706,60.6Z" transform="translate(-332.677 -57.833)" fill="#fff"/>
            </g>
          </g>
        </g>
      </g>
      <g id="Grupo_1199876" data-name="Grupo 1199876" transform="translate(0 22.368)">
        <path id="Trazado_1031577" data-name="Trazado 1031577" d="M24.694,413.449H0v2.105H24.045l12.565,8.565H50.652v-2.105H37.259Z" transform="translate(0 -358.674)"/>
        <path id="Trazado_1031578" data-name="Trazado 1031578" d="M376.683,474.6h2.105V476.7h-2.105Z" transform="translate(-323.925 -411.26)"/>
        <path id="Trazado_1031579" data-name="Trazado 1031579" d="M65.407,293.442v2.106h4.2v8.472a8.481,8.481,0,0,1-8.472,8.472H47.724L36.466,301.18a11.829,11.829,0,0,0-4.644-2.873v-2.76H63.329v-2.106H29.717v4.374a12.051,12.051,0,0,0-1.653-.116H0v2.105H28.064a9.713,9.713,0,0,1,6.913,2.864l10.454,10.454a2.109,2.109,0,1,1-3.036,2.929L34.244,307.9l-1.489,1.489,8.151,8.151a4.234,4.234,0,0,0,7.247-2.944h9.838a5.28,5.28,0,0,1,5.165,4.218H56.969v2.106h8.4v-1.053a7.358,7.358,0,0,0-2.394-5.434A10.592,10.592,0,0,0,71.71,304.02V293.442Z" transform="translate(0 -255.476)"/>
        <path id="Trazado_1031580" data-name="Trazado 1031580" d="M327.85,97.65l-2.959,2.959,4.466,4.466,2.959-2.959,2.959,2.959,4.466-4.466-2.959-2.959,2.959-2.959-4.466-4.466-2.959,2.959-2.959-2.959-4.466,4.466Zm.019-2.959,1.489-1.489,2.959,2.959,2.959-2.959,1.489,1.489L333.8,97.65l2.959,2.959-1.489,1.489-2.959-2.959-2.959,2.959-1.489-1.489,2.959-2.959Z" transform="translate(-279.387 -80.721)"/>
        <path id="Trazado_1031581" data-name="Trazado 1031581" d="M257.465,43.508h2.105V39.157A14.683,14.683,0,1,1,274.254,53.84a14.921,14.921,0,0,1-10.614-4.493l-4.069,3.692V45.613h-2.105V55.945H259.5l4.154-3.769a16.789,16.789,0,1,0-6.189-13.02Z" transform="translate(-221.405 -22.368)"/>
        <path id="Trazado_1031582" data-name="Trazado 1031582" d="M196.94,135.723h6.316v2.105H196.94Z" transform="translate(-169.357 -119.847)"/>
        <path id="Trazado_1031583" data-name="Trazado 1031583" d="M0,0H2.106V6.317H0Z" transform="translate(28.178 11.407) rotate(-74.991)"/>
        <path id="Trazado_1031584" data-name="Trazado 1031584" d="M0,0H2.106V6.317H0Z" transform="matrix(0.5, -0.866, 0.866, 0.5, 30.442, 5.209)"/>
      </g>
    </g>
  </g>
</svg>
