<svg xmlns="http://www.w3.org/2000/svg" xmlns:xlink="http://www.w3.org/1999/xlink" width="290" height="329.194" viewBox="0 0 290 329.194">
  <defs>
    <filter id="Rectángulo_408564" x="0" y="0" width="290" height="329.194" filterUnits="userSpaceOnUse">
      <feOffset dx="6" dy="7" input="SourceAlpha"/>
      <feGaussianBlur stdDeviation="3" result="blur"/>
      <feFlood flood-opacity="0.161"/>
      <feComposite operator="in" in2="blur"/>
      <feComposite in="SourceGraphic"/>
    </filter>
    <clipPath id="clip-path">
      <rect id="Rectángulo_408718" data-name="Rectángulo 408718" width="272" height="311.194" rx="8" fill="#eaf4ff" opacity="0.65"/>
    </clipPath>
    <clipPath id="clip-path-2">
      <rect id="Rectángulo_408717" data-name="Rectángulo 408717" width="283.854" height="584.503" fill="none"/>
    </clipPath>
    <clipPath id="clip-path-3">
      <rect id="Rectángulo_408737" data-name="Rectángulo 408737" width="20.933" height="15.112" fill="none"/>
    </clipPath>
    <clipPath id="clip-path-18">
      <rect id="Rectángulo_408738" data-name="Rectángulo 408738" width="20.933" height="15.112" transform="translate(0 0)" fill="none"/>
    </clipPath>
    <clipPath id="clip-path-22">
      <rect id="Rectángulo_408719" data-name="Rectángulo 408719" width="168.19" height="268.333" fill="none"/>
    </clipPath>
    <clipPath id="clip-path-23">
      <rect id="Rectángulo_408736" data-name="Rectángulo 408736" width="134.436" height="83.881" fill="none"/>
    </clipPath>
    <clipPath id="clip-path-24">
      <rect id="Rectángulo_408735" data-name="Rectángulo 408735" width="134.436" height="83.88" fill="none"/>
    </clipPath>
  </defs>
  <g id="Grupo_1200180" data-name="Grupo 1200180" transform="translate(3 2)">
    <g transform="matrix(1, 0, 0, 1, -3, -2)" filter="url(#Rectángulo_408564)">
      <rect id="Rectángulo_408564-2" data-name="Rectángulo 408564" width="272" height="311.195" rx="8" transform="translate(3 2)" fill="#4d637e"/>
    </g>
    <g id="Enmascarar_grupo_1098825" data-name="Enmascarar grupo 1098825" clip-path="url(#clip-path)">
      <g id="Grupo_1199162" data-name="Grupo 1199162" transform="translate(-11.855 -190.114)">
        <rect id="Rectángulo_408715" data-name="Rectángulo 408715" width="283.855" height="584.504" transform="translate(0 0)" fill="#e2f7f2"/>
        <rect id="Rectángulo_408716" data-name="Rectángulo 408716" width="2.404" height="30.272" transform="translate(237.276 344.296)" fill="#872a21"/>
        <g id="Grupo_1199161" data-name="Grupo 1199161" transform="translate(0.001 0.001)">
          <g id="Grupo_1199160" data-name="Grupo 1199160" clip-path="url(#clip-path-2)">
            <path id="Trazado_1030833" data-name="Trazado 1030833" d="M42.6,304.555a2.931,2.931,0,0,1,5.556,0c4.755,10.639,13.944,32.835,13.937,45.439,0,4.207-4.708,7.59-9.126,9.84a16.479,16.479,0,0,1-15.178,0c-4.417-2.25-9.123-5.633-9.126-9.84-.007-12.6,9.182-34.8,13.937-45.439" transform="translate(193.098 -13.727)" fill="#569171"/>
            <path id="Trazado_1030834" data-name="Trazado 1030834" d="M35.351,357.66c4.658-1.751,9.74-4.6,10.248-8.776,1.5-12.341-4.753-34.909-8.23-46.174a2.957,2.957,0,0,1,3.652,1.845c4.755,10.639,13.944,32.835,13.937,45.44,0,4.206-4.708,7.59-9.126,9.839a16.479,16.479,0,0,1-15.178,0c-.663-.337-1.332-.7-1.991-1.088a16.891,16.891,0,0,0,6.688-1.087" transform="translate(200.233 -13.727)" fill="#3a6d50"/>
            <path id="Trazado_1030835" data-name="Trazado 1030835" d="M283.465,353.281S150.528,348.061,0,438.6V600.529H283.465Z" transform="translate(0.389 -16.026)" fill="#7dbb77"/>
            <path id="Trazado_1030836" data-name="Trazado 1030836" d="M283.465,476.807C164.16,484.176,41.23,536.8,0,555.938v-53.37C96.8,425.148,283.457,401.7,283.465,401.7Z" transform="translate(0.389 -18.225)" fill="#569171"/>
            <path id="Trazado_1030837" data-name="Trazado 1030837" d="M130.505,271.325h126.46s-.478-5.706-10.518-5.249c-.478-9.357-14.344-15.062-23.428-7.531,6.694-15.747,2.63-27.385-8.845-28.526S195.05,240.288,192.9,247.363c-6.932-7.075-8.366-1.141-8.6,0-10.519-10.953-24.623-7.3-28.926-2.966S152.02,259,152.02,259s-15.06-6.161-18.407.456,2.629,8.9,2.629,8.9-5.02-.913-5.737,2.967" transform="translate(-104.616 -13.296)" fill="#fff"/>
            <g id="Grupo_1199172" data-name="Grupo 1199172" transform="translate(247.451 436.706)">
              <g id="Grupo_1199171" data-name="Grupo 1199171" transform="translate(0 0)" clip-path="url(#clip-path-3)">
                <path id="Trazado_1030897" data-name="Trazado 1030897" d="M5.194,15.067c.027.007.106.019.212.044H7.789c.318-1,1.035-3.408,1.6-6.006C10.264,5.082,10.769.591,8.857.046,6.846-.531,5.878,4.392,5.446,8.757a40.325,40.325,0,0,0-.252,6.31" transform="translate(5.616 0)" fill="#607a17"/>
                <path id="Trazado_1030898" data-name="Trazado 1030898" d="M19.465,15.205h1.467a69.342,69.342,0,0,0-3.75-6.367c0-.006-.007-.012-.007-.019-2.3-3.433-5.2-6.873-7.512-6.753-4.1.216,7.373,10.916,9.8,13.14" transform="translate(-8.785 -0.093)" fill="#607a17"/>
                <path id="Trazado_1030899" data-name="Trazado 1030899" d="M0,15.284H2.98c1.818-2.23,7.366-9.446,4.9-11.258C6.364,2.911,4.247,6.015,2.575,9.278c-.869,1.7-1.613,3.453-2.091,4.669-.232.6-.4,1.07-.484,1.336" transform="translate(12.429 -0.172)" fill="#89b62e"/>
                <path id="Trazado_1030900" data-name="Trazado 1030900" d="M8.8,10.7s0,.009,0,.013c.768,2.066,1.646,3.923,1.944,4.553h3.106c-.029-.186-.081-.516-.158-.956-.157-.874-.407-2.183-.753-3.587-.859-3.439-2.3-7.474-4.347-7.3C6.6,3.594,7.57,7.4,8.8,10.7" transform="translate(-0.372 -0.155)" fill="#89b62e"/>
              </g>
            </g>
            <g id="Grupo_1199187" data-name="Grupo 1199187" transform="translate(234.258 366.063)">
              <g id="Grupo_1199171-2" data-name="Grupo 1199171" transform="translate(0 0)" clip-path="url(#clip-path-3)">
                <path id="Trazado_1030897-2" data-name="Trazado 1030897" d="M5.194,15.067c.027.007.106.019.212.044H7.789c.318-1,1.035-3.408,1.6-6.006C10.264,5.082,10.769.591,8.857.046,6.846-.531,5.878,4.392,5.446,8.757a40.325,40.325,0,0,0-.252,6.31" transform="translate(5.616 0)" fill="#607a17"/>
                <path id="Trazado_1030898-2" data-name="Trazado 1030898" d="M19.465,15.205h1.467a69.342,69.342,0,0,0-3.75-6.367c0-.006-.007-.012-.007-.019-2.3-3.433-5.2-6.873-7.512-6.753-4.1.216,7.373,10.916,9.8,13.14" transform="translate(-8.785 -0.093)" fill="#607a17"/>
                <path id="Trazado_1030899-2" data-name="Trazado 1030899" d="M0,15.284H2.98c1.818-2.23,7.366-9.446,4.9-11.258C6.364,2.911,4.247,6.015,2.575,9.278c-.869,1.7-1.613,3.453-2.091,4.669-.232.6-.4,1.07-.484,1.336" transform="translate(12.429 -0.172)" fill="#89b62e"/>
                <path id="Trazado_1030900-2" data-name="Trazado 1030900" d="M8.8,10.7s0,.009,0,.013c.768,2.066,1.646,3.923,1.944,4.553h3.106c-.029-.186-.081-.516-.158-.956-.157-.874-.407-2.183-.753-3.587-.859-3.439-2.3-7.474-4.347-7.3C6.6,3.594,7.57,7.4,8.8,10.7" transform="translate(-0.372 -0.155)" fill="#89b62e"/>
              </g>
            </g>
            <g id="Grupo_1199173" data-name="Grupo 1199173" transform="translate(238.476 402.339)">
              <g id="Grupo_1199171-3" data-name="Grupo 1199171" transform="translate(0 0)" clip-path="url(#clip-path-3)">
                <path id="Trazado_1030897-3" data-name="Trazado 1030897" d="M5.194,15.067c.027.007.106.019.212.044H7.789c.318-1,1.035-3.408,1.6-6.006C10.264,5.082,10.769.591,8.857.046,6.846-.531,5.878,4.392,5.446,8.757a40.325,40.325,0,0,0-.252,6.31" transform="translate(5.616 0)" fill="#607a17"/>
                <path id="Trazado_1030898-3" data-name="Trazado 1030898" d="M19.465,15.205h1.467a69.342,69.342,0,0,0-3.75-6.367c0-.006-.007-.012-.007-.019-2.3-3.433-5.2-6.873-7.512-6.753-4.1.216,7.373,10.916,9.8,13.14" transform="translate(-8.785 -0.093)" fill="#607a17"/>
                <path id="Trazado_1030899-3" data-name="Trazado 1030899" d="M0,15.284H2.98c1.818-2.23,7.366-9.446,4.9-11.258C6.364,2.911,4.247,6.015,2.575,9.278c-.869,1.7-1.613,3.453-2.091,4.669-.232.6-.4,1.07-.484,1.336" transform="translate(12.429 -0.172)" fill="#89b62e"/>
                <path id="Trazado_1030900-3" data-name="Trazado 1030900" d="M8.8,10.7s0,.009,0,.013c.768,2.066,1.646,3.923,1.944,4.553h3.106c-.029-.186-.081-.516-.158-.956-.157-.874-.407-2.183-.753-3.587-.859-3.439-2.3-7.474-4.347-7.3C6.6,3.594,7.57,7.4,8.8,10.7" transform="translate(-0.372 -0.155)" fill="#89b62e"/>
              </g>
            </g>
            <g id="Grupo_1199186" data-name="Grupo 1199186" transform="translate(225.283 331.696)">
              <g id="Grupo_1199171-4" data-name="Grupo 1199171" transform="translate(0 0)" clip-path="url(#clip-path-3)">
                <path id="Trazado_1030897-4" data-name="Trazado 1030897" d="M5.194,15.067c.027.007.106.019.212.044H7.789c.318-1,1.035-3.408,1.6-6.006C10.264,5.082,10.769.591,8.857.046,6.846-.531,5.878,4.392,5.446,8.757a40.325,40.325,0,0,0-.252,6.31" transform="translate(5.616 0)" fill="#607a17"/>
                <path id="Trazado_1030898-4" data-name="Trazado 1030898" d="M19.465,15.205h1.467a69.342,69.342,0,0,0-3.75-6.367c0-.006-.007-.012-.007-.019-2.3-3.433-5.2-6.873-7.512-6.753-4.1.216,7.373,10.916,9.8,13.14" transform="translate(-8.785 -0.093)" fill="#607a17"/>
                <path id="Trazado_1030899-4" data-name="Trazado 1030899" d="M0,15.284H2.98c1.818-2.23,7.366-9.446,4.9-11.258C6.364,2.911,4.247,6.015,2.575,9.278c-.869,1.7-1.613,3.453-2.091,4.669-.232.6-.4,1.07-.484,1.336" transform="translate(12.429 -0.172)" fill="#89b62e"/>
                <path id="Trazado_1030900-4" data-name="Trazado 1030900" d="M8.8,10.7s0,.009,0,.013c.768,2.066,1.646,3.923,1.944,4.553h3.106c-.029-.186-.081-.516-.158-.956-.157-.874-.407-2.183-.753-3.587-.859-3.439-2.3-7.474-4.347-7.3C6.6,3.594,7.57,7.4,8.8,10.7" transform="translate(-0.372 -0.155)" fill="#89b62e"/>
              </g>
            </g>
            <g id="Grupo_1199174" data-name="Grupo 1199174" transform="translate(207.963 407.112)">
              <g id="Grupo_1199171-5" data-name="Grupo 1199171" transform="translate(0 0)" clip-path="url(#clip-path-3)">
                <path id="Trazado_1030897-5" data-name="Trazado 1030897" d="M5.194,15.067c.027.007.106.019.212.044H7.789c.318-1,1.035-3.408,1.6-6.006C10.264,5.082,10.769.591,8.857.046,6.846-.531,5.878,4.392,5.446,8.757a40.325,40.325,0,0,0-.252,6.31" transform="translate(5.616 0)" fill="#607a17"/>
                <path id="Trazado_1030898-5" data-name="Trazado 1030898" d="M19.465,15.205h1.467a69.342,69.342,0,0,0-3.75-6.367c0-.006-.007-.012-.007-.019-2.3-3.433-5.2-6.873-7.512-6.753-4.1.216,7.373,10.916,9.8,13.14" transform="translate(-8.785 -0.093)" fill="#607a17"/>
                <path id="Trazado_1030899-5" data-name="Trazado 1030899" d="M0,15.284H2.98c1.818-2.23,7.366-9.446,4.9-11.258C6.364,2.911,4.247,6.015,2.575,9.278c-.869,1.7-1.613,3.453-2.091,4.669-.232.6-.4,1.07-.484,1.336" transform="translate(12.429 -0.172)" fill="#89b62e"/>
                <path id="Trazado_1030900-5" data-name="Trazado 1030900" d="M8.8,10.7s0,.009,0,.013c.768,2.066,1.646,3.923,1.944,4.553h3.106c-.029-.186-.081-.516-.158-.956-.157-.874-.407-2.183-.753-3.587-.859-3.439-2.3-7.474-4.347-7.3C6.6,3.594,7.57,7.4,8.8,10.7" transform="translate(-0.372 -0.155)" fill="#89b62e"/>
              </g>
            </g>
            <g id="Grupo_1199185" data-name="Grupo 1199185" transform="translate(194.769 336.47)">
              <g id="Grupo_1199171-6" data-name="Grupo 1199171" transform="translate(0 0)" clip-path="url(#clip-path-3)">
                <path id="Trazado_1030897-6" data-name="Trazado 1030897" d="M5.194,15.067c.027.007.106.019.212.044H7.789c.318-1,1.035-3.408,1.6-6.006C10.264,5.082,10.769.591,8.857.046,6.846-.531,5.878,4.392,5.446,8.757a40.325,40.325,0,0,0-.252,6.31" transform="translate(5.616 0)" fill="#607a17"/>
                <path id="Trazado_1030898-6" data-name="Trazado 1030898" d="M19.465,15.205h1.467a69.342,69.342,0,0,0-3.75-6.367c0-.006-.007-.012-.007-.019-2.3-3.433-5.2-6.873-7.512-6.753-4.1.216,7.373,10.916,9.8,13.14" transform="translate(-8.785 -0.093)" fill="#607a17"/>
                <path id="Trazado_1030899-6" data-name="Trazado 1030899" d="M0,15.284H2.98c1.818-2.23,7.366-9.446,4.9-11.258C6.364,2.911,4.247,6.015,2.575,9.278c-.869,1.7-1.613,3.453-2.091,4.669-.232.6-.4,1.07-.484,1.336" transform="translate(12.429 -0.172)" fill="#89b62e"/>
                <path id="Trazado_1030900-6" data-name="Trazado 1030900" d="M8.8,10.7s0,.009,0,.013c.768,2.066,1.646,3.923,1.944,4.553h3.106c-.029-.186-.081-.516-.158-.956-.157-.874-.407-2.183-.753-3.587-.859-3.439-2.3-7.474-4.347-7.3C6.6,3.594,7.57,7.4,8.8,10.7" transform="translate(-0.372 -0.155)" fill="#89b62e"/>
              </g>
            </g>
            <g id="Grupo_1199175" data-name="Grupo 1199175" transform="translate(213.963 438.615)">
              <g id="Grupo_1199171-7" data-name="Grupo 1199171" transform="translate(0 0)" clip-path="url(#clip-path-3)">
                <path id="Trazado_1030897-7" data-name="Trazado 1030897" d="M5.194,15.067c.027.007.106.019.212.044H7.789c.318-1,1.035-3.408,1.6-6.006C10.264,5.082,10.769.591,8.857.046,6.846-.531,5.878,4.392,5.446,8.757a40.325,40.325,0,0,0-.252,6.31" transform="translate(5.616 0)" fill="#607a17"/>
                <path id="Trazado_1030898-7" data-name="Trazado 1030898" d="M19.465,15.205h1.467a69.342,69.342,0,0,0-3.75-6.367c0-.006-.007-.012-.007-.019-2.3-3.433-5.2-6.873-7.512-6.753-4.1.216,7.373,10.916,9.8,13.14" transform="translate(-8.785 -0.093)" fill="#607a17"/>
                <path id="Trazado_1030899-7" data-name="Trazado 1030899" d="M0,15.284H2.98c1.818-2.23,7.366-9.446,4.9-11.258C6.364,2.911,4.247,6.015,2.575,9.278c-.869,1.7-1.613,3.453-2.091,4.669-.232.6-.4,1.07-.484,1.336" transform="translate(12.429 -0.172)" fill="#89b62e"/>
                <path id="Trazado_1030900-7" data-name="Trazado 1030900" d="M8.8,10.7s0,.009,0,.013c.768,2.066,1.646,3.923,1.944,4.553h3.106c-.029-.186-.081-.516-.158-.956-.157-.874-.407-2.183-.753-3.587-.859-3.439-2.3-7.474-4.347-7.3C6.6,3.594,7.57,7.4,8.8,10.7" transform="translate(-0.372 -0.155)" fill="#89b62e"/>
              </g>
            </g>
            <g id="Grupo_1199184" data-name="Grupo 1199184" transform="translate(200.769 367.972)">
              <g id="Grupo_1199171-8" data-name="Grupo 1199171" transform="translate(0 0)" clip-path="url(#clip-path-3)">
                <path id="Trazado_1030897-8" data-name="Trazado 1030897" d="M5.194,15.067c.027.007.106.019.212.044H7.789c.318-1,1.035-3.408,1.6-6.006C10.264,5.082,10.769.591,8.857.046,6.846-.531,5.878,4.392,5.446,8.757a40.325,40.325,0,0,0-.252,6.31" transform="translate(5.616 0)" fill="#607a17"/>
                <path id="Trazado_1030898-8" data-name="Trazado 1030898" d="M19.465,15.205h1.467a69.342,69.342,0,0,0-3.75-6.367c0-.006-.007-.012-.007-.019-2.3-3.433-5.2-6.873-7.512-6.753-4.1.216,7.373,10.916,9.8,13.14" transform="translate(-8.785 -0.093)" fill="#607a17"/>
                <path id="Trazado_1030899-8" data-name="Trazado 1030899" d="M0,15.284H2.98c1.818-2.23,7.366-9.446,4.9-11.258C6.364,2.911,4.247,6.015,2.575,9.278c-.869,1.7-1.613,3.453-2.091,4.669-.232.6-.4,1.07-.484,1.336" transform="translate(12.429 -0.172)" fill="#89b62e"/>
                <path id="Trazado_1030900-8" data-name="Trazado 1030900" d="M8.8,10.7s0,.009,0,.013c.768,2.066,1.646,3.923,1.944,4.553h3.106c-.029-.186-.081-.516-.158-.956-.157-.874-.407-2.183-.753-3.587-.859-3.439-2.3-7.474-4.347-7.3C6.6,3.594,7.57,7.4,8.8,10.7" transform="translate(-0.372 -0.155)" fill="#89b62e"/>
              </g>
            </g>
            <g id="Grupo_1199176" data-name="Grupo 1199176" transform="translate(170.963 417.451)">
              <g id="Grupo_1199171-9" data-name="Grupo 1199171" transform="translate(0 0)" clip-path="url(#clip-path-3)">
                <path id="Trazado_1030897-9" data-name="Trazado 1030897" d="M5.194,15.067c.027.007.106.019.212.044H7.789c.318-1,1.035-3.408,1.6-6.006C10.264,5.082,10.769.591,8.857.046,6.846-.531,5.878,4.392,5.446,8.757a40.325,40.325,0,0,0-.252,6.31" transform="translate(5.616 0)" fill="#607a17"/>
                <path id="Trazado_1030898-9" data-name="Trazado 1030898" d="M19.465,15.205h1.467a69.342,69.342,0,0,0-3.75-6.367c0-.006-.007-.012-.007-.019-2.3-3.433-5.2-6.873-7.512-6.753-4.1.216,7.373,10.916,9.8,13.14" transform="translate(-8.785 -0.093)" fill="#607a17"/>
                <path id="Trazado_1030899-9" data-name="Trazado 1030899" d="M0,15.284H2.98c1.818-2.23,7.366-9.446,4.9-11.258C6.364,2.911,4.247,6.015,2.575,9.278c-.869,1.7-1.613,3.453-2.091,4.669-.232.6-.4,1.07-.484,1.336" transform="translate(12.429 -0.172)" fill="#89b62e"/>
                <path id="Trazado_1030900-9" data-name="Trazado 1030900" d="M8.8,10.7s0,.009,0,.013c.768,2.066,1.646,3.923,1.944,4.553h3.106c-.029-.186-.081-.516-.158-.956-.157-.874-.407-2.183-.753-3.587-.859-3.439-2.3-7.474-4.347-7.3C6.6,3.594,7.57,7.4,8.8,10.7" transform="translate(-0.372 -0.155)" fill="#89b62e"/>
              </g>
            </g>
            <g id="Grupo_1199182" data-name="Grupo 1199182" transform="translate(157.77 346.808)">
              <g id="Grupo_1199171-10" data-name="Grupo 1199171" transform="translate(0 0)" clip-path="url(#clip-path-3)">
                <path id="Trazado_1030897-10" data-name="Trazado 1030897" d="M5.194,15.067c.027.007.106.019.212.044H7.789c.318-1,1.035-3.408,1.6-6.006C10.264,5.082,10.769.591,8.857.046,6.846-.531,5.878,4.392,5.446,8.757a40.325,40.325,0,0,0-.252,6.31" transform="translate(5.616 0)" fill="#607a17"/>
                <path id="Trazado_1030898-10" data-name="Trazado 1030898" d="M19.465,15.205h1.467a69.342,69.342,0,0,0-3.75-6.367c0-.006-.007-.012-.007-.019-2.3-3.433-5.2-6.873-7.512-6.753-4.1.216,7.373,10.916,9.8,13.14" transform="translate(-8.785 -0.093)" fill="#607a17"/>
                <path id="Trazado_1030899-10" data-name="Trazado 1030899" d="M0,15.284H2.98c1.818-2.23,7.366-9.446,4.9-11.258C6.364,2.911,4.247,6.015,2.575,9.278c-.869,1.7-1.613,3.453-2.091,4.669-.232.6-.4,1.07-.484,1.336" transform="translate(12.429 -0.172)" fill="#89b62e"/>
                <path id="Trazado_1030900-10" data-name="Trazado 1030900" d="M8.8,10.7s0,.009,0,.013c.768,2.066,1.646,3.923,1.944,4.553h3.106c-.029-.186-.081-.516-.158-.956-.157-.874-.407-2.183-.753-3.587-.859-3.439-2.3-7.474-4.347-7.3C6.6,3.594,7.57,7.4,8.8,10.7" transform="translate(-0.372 -0.155)" fill="#89b62e"/>
              </g>
            </g>
            <g id="Grupo_1199177" data-name="Grupo 1199177" transform="translate(176.963 444.262)">
              <g id="Grupo_1199171-11" data-name="Grupo 1199171" transform="translate(0 0)" clip-path="url(#clip-path-3)">
                <path id="Trazado_1030897-11" data-name="Trazado 1030897" d="M5.194,15.067c.027.007.106.019.212.044H7.789c.318-1,1.035-3.408,1.6-6.006C10.264,5.082,10.769.591,8.857.046,6.846-.531,5.878,4.392,5.446,8.757a40.325,40.325,0,0,0-.252,6.31" transform="translate(5.616 0)" fill="#607a17"/>
                <path id="Trazado_1030898-11" data-name="Trazado 1030898" d="M19.465,15.205h1.467a69.342,69.342,0,0,0-3.75-6.367c0-.006-.007-.012-.007-.019-2.3-3.433-5.2-6.873-7.512-6.753-4.1.216,7.373,10.916,9.8,13.14" transform="translate(-8.785 -0.093)" fill="#607a17"/>
                <path id="Trazado_1030899-11" data-name="Trazado 1030899" d="M0,15.284H2.98c1.818-2.23,7.366-9.446,4.9-11.258C6.364,2.911,4.247,6.015,2.575,9.278c-.869,1.7-1.613,3.453-2.091,4.669-.232.6-.4,1.07-.484,1.336" transform="translate(12.429 -0.172)" fill="#89b62e"/>
                <path id="Trazado_1030900-11" data-name="Trazado 1030900" d="M8.8,10.7s0,.009,0,.013c.768,2.066,1.646,3.923,1.944,4.553h3.106c-.029-.186-.081-.516-.158-.956-.157-.874-.407-2.183-.753-3.587-.859-3.439-2.3-7.474-4.347-7.3C6.6,3.594,7.57,7.4,8.8,10.7" transform="translate(-0.372 -0.155)" fill="#89b62e"/>
              </g>
            </g>
            <g id="Grupo_1199183" data-name="Grupo 1199183" transform="translate(163.77 373.619)">
              <g id="Grupo_1199171-12" data-name="Grupo 1199171" transform="translate(0 0)" clip-path="url(#clip-path-3)">
                <path id="Trazado_1030897-12" data-name="Trazado 1030897" d="M5.194,15.067c.027.007.106.019.212.044H7.789c.318-1,1.035-3.408,1.6-6.006C10.264,5.082,10.769.591,8.857.046,6.846-.531,5.878,4.392,5.446,8.757a40.325,40.325,0,0,0-.252,6.31" transform="translate(5.616 0)" fill="#607a17"/>
                <path id="Trazado_1030898-12" data-name="Trazado 1030898" d="M19.465,15.205h1.467a69.342,69.342,0,0,0-3.75-6.367c0-.006-.007-.012-.007-.019-2.3-3.433-5.2-6.873-7.512-6.753-4.1.216,7.373,10.916,9.8,13.14" transform="translate(-8.785 -0.093)" fill="#607a17"/>
                <path id="Trazado_1030899-12" data-name="Trazado 1030899" d="M0,15.284H2.98c1.818-2.23,7.366-9.446,4.9-11.258C6.364,2.911,4.247,6.015,2.575,9.278c-.869,1.7-1.613,3.453-2.091,4.669-.232.6-.4,1.07-.484,1.336" transform="translate(12.429 -0.172)" fill="#89b62e"/>
                <path id="Trazado_1030900-12" data-name="Trazado 1030900" d="M8.8,10.7s0,.009,0,.013c.768,2.066,1.646,3.923,1.944,4.553h3.106c-.029-.186-.081-.516-.158-.956-.157-.874-.407-2.183-.753-3.587-.859-3.439-2.3-7.474-4.347-7.3C6.6,3.594,7.57,7.4,8.8,10.7" transform="translate(-0.372 -0.155)" fill="#89b62e"/>
              </g>
            </g>
            <g id="Grupo_1199178" data-name="Grupo 1199178" transform="translate(134.963 425.007)">
              <g id="Grupo_1199171-13" data-name="Grupo 1199171" transform="translate(0 0)" clip-path="url(#clip-path-3)">
                <path id="Trazado_1030897-13" data-name="Trazado 1030897" d="M5.194,15.067c.027.007.106.019.212.044H7.789c.318-1,1.035-3.408,1.6-6.006C10.264,5.082,10.769.591,8.857.046,6.846-.531,5.878,4.392,5.446,8.757a40.325,40.325,0,0,0-.252,6.31" transform="translate(5.616 0)" fill="#607a17"/>
                <path id="Trazado_1030898-13" data-name="Trazado 1030898" d="M19.465,15.205h1.467a69.342,69.342,0,0,0-3.75-6.367c0-.006-.007-.012-.007-.019-2.3-3.433-5.2-6.873-7.512-6.753-4.1.216,7.373,10.916,9.8,13.14" transform="translate(-8.785 -0.093)" fill="#607a17"/>
                <path id="Trazado_1030899-13" data-name="Trazado 1030899" d="M0,15.284H2.98c1.818-2.23,7.366-9.446,4.9-11.258C6.364,2.911,4.247,6.015,2.575,9.278c-.869,1.7-1.613,3.453-2.091,4.669-.232.6-.4,1.07-.484,1.336" transform="translate(12.429 -0.172)" fill="#89b62e"/>
                <path id="Trazado_1030900-13" data-name="Trazado 1030900" d="M8.8,10.7s0,.009,0,.013c.768,2.066,1.646,3.923,1.944,4.553h3.106c-.029-.186-.081-.516-.158-.956-.157-.874-.407-2.183-.753-3.587-.859-3.439-2.3-7.474-4.347-7.3C6.6,3.594,7.57,7.4,8.8,10.7" transform="translate(-0.372 -0.155)" fill="#89b62e"/>
              </g>
            </g>
            <g id="Grupo_1199181" data-name="Grupo 1199181" transform="translate(121.77 354.364)">
              <g id="Grupo_1199171-14" data-name="Grupo 1199171" transform="translate(0 0)" clip-path="url(#clip-path-3)">
                <path id="Trazado_1030897-14" data-name="Trazado 1030897" d="M5.194,15.067c.027.007.106.019.212.044H7.789c.318-1,1.035-3.408,1.6-6.006C10.264,5.082,10.769.591,8.857.046,6.846-.531,5.878,4.392,5.446,8.757a40.325,40.325,0,0,0-.252,6.31" transform="translate(5.616 0)" fill="#607a17"/>
                <path id="Trazado_1030898-14" data-name="Trazado 1030898" d="M19.465,15.205h1.467a69.342,69.342,0,0,0-3.75-6.367c0-.006-.007-.012-.007-.019-2.3-3.433-5.2-6.873-7.512-6.753-4.1.216,7.373,10.916,9.8,13.14" transform="translate(-8.785 -0.093)" fill="#607a17"/>
                <path id="Trazado_1030899-14" data-name="Trazado 1030899" d="M0,15.284H2.98c1.818-2.23,7.366-9.446,4.9-11.258C6.364,2.911,4.247,6.015,2.575,9.278c-.869,1.7-1.613,3.453-2.091,4.669-.232.6-.4,1.07-.484,1.336" transform="translate(12.429 -0.172)" fill="#89b62e"/>
                <path id="Trazado_1030900-14" data-name="Trazado 1030900" d="M8.8,10.7s0,.009,0,.013c.768,2.066,1.646,3.923,1.944,4.553h3.106c-.029-.186-.081-.516-.158-.956-.157-.874-.407-2.183-.753-3.587-.859-3.439-2.3-7.474-4.347-7.3C6.6,3.594,7.57,7.4,8.8,10.7" transform="translate(-0.372 -0.155)" fill="#89b62e"/>
              </g>
            </g>
            <g id="Grupo_1199179" data-name="Grupo 1199179" transform="translate(142.121 453.037)">
              <g id="Grupo_1199171-15" data-name="Grupo 1199171" transform="translate(0 0)" clip-path="url(#clip-path-3)">
                <path id="Trazado_1030897-15" data-name="Trazado 1030897" d="M5.194,15.067c.027.007.106.019.212.044H7.789c.318-1,1.035-3.408,1.6-6.006C10.264,5.082,10.769.591,8.857.046,6.846-.531,5.878,4.392,5.446,8.757a40.325,40.325,0,0,0-.252,6.31" transform="translate(5.616 0)" fill="#607a17"/>
                <path id="Trazado_1030898-15" data-name="Trazado 1030898" d="M19.465,15.205h1.467a69.342,69.342,0,0,0-3.75-6.367c0-.006-.007-.012-.007-.019-2.3-3.433-5.2-6.873-7.512-6.753-4.1.216,7.373,10.916,9.8,13.14" transform="translate(-8.785 -0.093)" fill="#607a17"/>
                <path id="Trazado_1030899-15" data-name="Trazado 1030899" d="M0,15.284H2.98c1.818-2.23,7.366-9.446,4.9-11.258C6.364,2.911,4.247,6.015,2.575,9.278c-.869,1.7-1.613,3.453-2.091,4.669-.232.6-.4,1.07-.484,1.336" transform="translate(12.429 -0.172)" fill="#89b62e"/>
                <path id="Trazado_1030900-15" data-name="Trazado 1030900" d="M8.8,10.7s0,.009,0,.013c.768,2.066,1.646,3.923,1.944,4.553h3.106c-.029-.186-.081-.516-.158-.956-.157-.874-.407-2.183-.753-3.587-.859-3.439-2.3-7.474-4.347-7.3C6.6,3.594,7.57,7.4,8.8,10.7" transform="translate(-0.372 -0.155)" fill="#89b62e"/>
              </g>
              <g id="Grupo_1199188" data-name="Grupo 1199188" transform="translate(27 26.73)" clip-path="url(#clip-path-18)">
                <path id="Trazado_1030901" data-name="Trazado 1030901" d="M5.194,15.067c.027.007.106.019.212.044H7.789c.318-1,1.035-3.408,1.6-6.006C10.264,5.082,10.769.591,8.857.046,6.846-.531,5.878,4.392,5.446,8.757a40.325,40.325,0,0,0-.252,6.31" transform="translate(5.616 0)" fill="#607a17"/>
                <path id="Trazado_1030902" data-name="Trazado 1030902" d="M19.465,15.205h1.467a69.342,69.342,0,0,0-3.75-6.367c0-.006-.007-.012-.007-.019-2.3-3.433-5.2-6.873-7.512-6.753-4.1.216,7.373,10.916,9.8,13.14" transform="translate(-8.785 -0.093)" fill="#607a17"/>
                <path id="Trazado_1030903" data-name="Trazado 1030903" d="M0,15.284H2.98c1.818-2.23,7.366-9.446,4.9-11.258C6.364,2.911,4.247,6.015,2.575,9.278c-.869,1.7-1.613,3.453-2.091,4.669-.232.6-.4,1.07-.484,1.336" transform="translate(12.429 -0.172)" fill="#89b62e"/>
                <path id="Trazado_1030904" data-name="Trazado 1030904" d="M8.8,10.7s0,.009,0,.013c.768,2.066,1.646,3.923,1.944,4.553h3.106c-.029-.186-.081-.516-.158-.956-.157-.874-.407-2.183-.753-3.587-.859-3.439-2.3-7.474-4.347-7.3C6.6,3.594,7.57,7.4,8.8,10.7" transform="translate(-0.372 -0.155)" fill="#89b62e"/>
              </g>
              <g id="Grupo_1199189" data-name="Grupo 1199189" transform="translate(84 15.112)" clip-path="url(#clip-path-18)">
                <path id="Trazado_1030905" data-name="Trazado 1030905" d="M5.194,15.067c.027.007.106.019.212.044H7.789c.318-1,1.035-3.408,1.6-6.006C10.264,5.082,10.769.591,8.857.046,6.846-.531,5.878,4.392,5.446,8.757a40.325,40.325,0,0,0-.252,6.31" transform="translate(5.616 0)" fill="#607a17"/>
                <path id="Trazado_1030906" data-name="Trazado 1030906" d="M19.465,15.205h1.467a69.342,69.342,0,0,0-3.75-6.367c0-.006-.007-.012-.007-.019-2.3-3.433-5.2-6.873-7.512-6.753-4.1.216,7.373,10.916,9.8,13.14" transform="translate(-8.785 -0.093)" fill="#607a17"/>
                <path id="Trazado_1030907" data-name="Trazado 1030907" d="M0,15.284H2.98c1.818-2.23,7.366-9.446,4.9-11.258C6.364,2.911,4.247,6.015,2.575,9.278c-.869,1.7-1.613,3.453-2.091,4.669-.232.6-.4,1.07-.484,1.336" transform="translate(12.429 -0.172)" fill="#89b62e"/>
                <path id="Trazado_1030908" data-name="Trazado 1030908" d="M8.8,10.7s0,.009,0,.013c.768,2.066,1.646,3.923,1.944,4.553h3.106c-.029-.186-.081-.516-.158-.956-.157-.874-.407-2.183-.753-3.587-.859-3.439-2.3-7.474-4.347-7.3C6.6,3.594,7.57,7.4,8.8,10.7" transform="translate(-0.372 -0.155)" fill="#89b62e"/>
              </g>
              <g id="Grupo_1199190" data-name="Grupo 1199190" transform="translate(118 13.203)" clip-path="url(#clip-path-18)">
                <path id="Trazado_1030909" data-name="Trazado 1030909" d="M5.194,15.067c.027.007.106.019.212.044H7.789c.318-1,1.035-3.408,1.6-6.006C10.264,5.082,10.769.591,8.857.046,6.846-.531,5.878,4.392,5.446,8.757a40.325,40.325,0,0,0-.252,6.31" transform="translate(5.616 0)" fill="#607a17"/>
                <path id="Trazado_1030910" data-name="Trazado 1030910" d="M19.465,15.205h1.467a69.342,69.342,0,0,0-3.75-6.367c0-.006-.007-.012-.007-.019-2.3-3.433-5.2-6.873-7.512-6.753-4.1.216,7.373,10.916,9.8,13.14" transform="translate(-8.785 -0.093)" fill="#607a17"/>
                <path id="Trazado_1030911" data-name="Trazado 1030911" d="M0,15.284H2.98c1.818-2.23,7.366-9.446,4.9-11.258C6.364,2.911,4.247,6.015,2.575,9.278c-.869,1.7-1.613,3.453-2.091,4.669-.232.6-.4,1.07-.484,1.336" transform="translate(12.429 -0.172)" fill="#89b62e"/>
                <path id="Trazado_1030912" data-name="Trazado 1030912" d="M8.8,10.7s0,.009,0,.013c.768,2.066,1.646,3.923,1.944,4.553h3.106c-.029-.186-.081-.516-.158-.956-.157-.874-.407-2.183-.753-3.587-.859-3.439-2.3-7.474-4.347-7.3C6.6,3.594,7.57,7.4,8.8,10.7" transform="translate(-0.372 -0.155)" fill="#89b62e"/>
              </g>
            </g>
            <g id="Grupo_1199180" data-name="Grupo 1199180" transform="translate(128.928 382.394)">
              <g id="Grupo_1199171-16" data-name="Grupo 1199171" transform="translate(0 0)" clip-path="url(#clip-path-3)">
                <path id="Trazado_1030897-16" data-name="Trazado 1030897" d="M5.194,15.067c.027.007.106.019.212.044H7.789c.318-1,1.035-3.408,1.6-6.006C10.264,5.082,10.769.591,8.857.046,6.846-.531,5.878,4.392,5.446,8.757a40.325,40.325,0,0,0-.252,6.31" transform="translate(5.616 0)" fill="#607a17"/>
                <path id="Trazado_1030898-16" data-name="Trazado 1030898" d="M19.465,15.205h1.467a69.342,69.342,0,0,0-3.75-6.367c0-.006-.007-.012-.007-.019-2.3-3.433-5.2-6.873-7.512-6.753-4.1.216,7.373,10.916,9.8,13.14" transform="translate(-8.785 -0.093)" fill="#607a17"/>
                <path id="Trazado_1030899-16" data-name="Trazado 1030899" d="M0,15.284H2.98c1.818-2.23,7.366-9.446,4.9-11.258C6.364,2.911,4.247,6.015,2.575,9.278c-.869,1.7-1.613,3.453-2.091,4.669-.232.6-.4,1.07-.484,1.336" transform="translate(12.429 -0.172)" fill="#89b62e"/>
                <path id="Trazado_1030900-16" data-name="Trazado 1030900" d="M8.8,10.7s0,.009,0,.013c.768,2.066,1.646,3.923,1.944,4.553h3.106c-.029-.186-.081-.516-.158-.956-.157-.874-.407-2.183-.753-3.587-.859-3.439-2.3-7.474-4.347-7.3C6.6,3.594,7.57,7.4,8.8,10.7" transform="translate(-0.372 -0.155)" fill="#89b62e"/>
              </g>
            </g>
          </g>
        </g>
      </g>
      <g id="Grupo_1199163" data-name="Grupo 1199163" transform="translate(12.122 42.861)">
        <g id="Grupo_1199163-2" data-name="Grupo 1199163" clip-path="url(#clip-path-22)">
          <path id="Trazado_1030838" data-name="Trazado 1030838" d="M35.171,71.021S37.832,86.9,38.536,87.648s40.241-23.8,40.241-23.8l9.038,9.644s-55.6,50.71-58.6,43.028S15.626,70.111,15.626,70.111Z" transform="translate(60.029 15.518)" fill="#df867f"/>
          <path id="Trazado_1030839" data-name="Trazado 1030839" d="M0,69.785s1.559-6.555,3.128-8.146S6.885,58.2,8.707,56.578s2.678-3.592,4.063-2.1S10.2,60.821,10.2,60.821a24.322,24.322,0,0,0,6.7-4.68c3.323-3.248,6.913-7.344,7.974-6.286a3.669,3.669,0,0,1,1.158,1.687s1.826-1.008,2.655-.2-.073,2.638-.073,2.638,1.615.989,1.62,1.872-3.344,7.307-7.03,10.95c0,0,6.969-5.969,7.292-5.533s.159,2.975-5.08,7.484-15.166,8.18-15.166,8.18Z" transform="translate(137.59 12.076)" fill="#df867f"/>
          <path id="Trazado_1030840" data-name="Trazado 1030840" d="M12.354,53.141a56.308,56.308,0,0,1-4.662,6.1c-2.55,2.84-6.169,6.566-6.169,6.566" transform="translate(153.853 12.916)" fill="none" stroke="#1f3542" stroke-linecap="round" stroke-miterlimit="10" stroke-width="0.379"/>
          <path id="Trazado_1030841" data-name="Trazado 1030841" d="M14.644,51.179S8.595,57.893,3.506,63.092" transform="translate(148.981 12.439)" fill="none" stroke="#1f3542" stroke-linecap="round" stroke-miterlimit="10" stroke-width="0.379"/>
          <path id="Trazado_1030842" data-name="Trazado 1030842" d="M59.2,51.848A12.053,12.053,0,0,1,68.921,61.3a127,127,0,0,1,2.406,12.636l-7.313,1.237-7.96-13.342Z" transform="translate(23.872 12.601)" fill="#f7e83e"/>
          <path id="Trazado_1030843" data-name="Trazado 1030843" d="M97.308,221.225a44.755,44.755,0,0,1-.491,5.423H55.546l-.359-17.267L54.8,191.165l-.216-9.806-.1-4.714q2.535.067,5.034.034A138.081,138.081,0,0,0,77.794,175.1a151.1,151.1,0,0,0,17.165-3.594s.012.114.023.344c.8,12.427,1.582,25.574,2.014,35.678.1,2.506.18,4.818.24,6.889.072,2.735.1,5.058.072,6.808" transform="translate(-0.081 41.684)" fill="#df867f"/>
          <path id="Trazado_1030844" data-name="Trazado 1030844" d="M97.52,178.808c-5.466,1.5-22.449,5.672-40.473,5.13L56.3,147.8l33.263-6.316a141.171,141.171,0,0,1,7.959,37.326" transform="translate(-2.638 34.387)" fill="#1f3542"/>
          <path id="Trazado_1030845" data-name="Trazado 1030845" d="M97.25,228.275H54.373l.6-17.267.216-6.454L57.2,191.681l1.534-9.772.576-3.6,2.109-13.491,10.093,2.517,23.23,5.8s.012.114.023.343c.216,2.506,1.51,18.56,2.146,35.954.085,2.288.156,4.6.216,6.911.1,4.039.143,8.067.12,11.934" transform="translate(0.133 40.057)" fill="#1f3542"/>
          <path id="Trazado_1030846" data-name="Trazado 1030846" d="M123.9,225.689H76.265c-7.576-8.171-16.842-18.628-24.621-28.722A108.936,108.936,0,0,0,77.679,190.2c.9-.367,1.762-.732,2.613-1.11,11.818-5.206,18.615-11.168,21.132-13.64a.049.049,0,0,1,.012.035c.624,1.04,1.234,2.071,1.822,3.089a226.7,226.7,0,0,1,16.853,34.877c.036.1.072.2.108.3a115.8,115.8,0,0,1,3.68,11.935" transform="translate(-22.956 42.644)" fill="#df867f"/>
          <path id="Trazado_1030847" data-name="Trazado 1030847" d="M135.78,183.262c-4.1,4.031-19.615,17.382-49.778,21.517-3.327-4.293-6.361-8.516-8.884-12.46C62.2,169,72.164,143.334,72.164,143.334l45.444,12.024c7.112,10.069,13.125,19.37,18.171,27.9" transform="translate(-57.314 34.837)" fill="#1f3542"/>
          <path id="Trazado_1030848" data-name="Trazado 1030848" d="M63.691,55.113c8.545,8.85,45.188,5.932,46.813-1.444,4.288-19.465,7.077-35.422-4.486-48.4C101.375.051,92.516-.484,85.818.28c-16.579,1.87-19.8,8.327-21.633,24.215-.831,7.177-5.159,25.786-.493,30.619" transform="translate(-26.191 0)" fill="#1f3542"/>
          <path id="Trazado_1030849" data-name="Trazado 1030849" d="M73.2,56.4l2.857,5.175S82.9,69.83,83.066,69.8s15.516-4.817,15.516-4.817l.134-8.638L96.188,34.792,76,31.149l-.193-.041a79.464,79.464,0,0,1-.525,15.675c-.273,1.646-1.217,6.4-1.217,6.4Z" transform="translate(-25.835 7.561)" fill="#df867f"/>
          <path id="Trazado_1030850" data-name="Trazado 1030850" d="M65.665,20.83S69.381,55.237,86.456,55.8c7.606.25,12.412-9.605,13.625-19.583,1.425-11.723-1.492-23.878-1.492-23.878l-24.8-9.01Z" transform="translate(-17.787 0.809)" fill="#df867f"/>
          <path id="Trazado_1030851" data-name="Trazado 1030851" d="M74.37,41.418c2.663,2.987,5.939,4.99,9.953,5.121a8.294,8.294,0,0,0,2.682-.349" transform="translate(-15.655 10.066)" fill="none" stroke="#1f3542" stroke-linecap="round" stroke-linejoin="round" stroke-width="0.485"/>
          <path id="Trazado_1030852" data-name="Trazado 1030852" d="M68.683,25.723a1.364,1.364,0,0,0,1.026,1.739,1.631,1.631,0,0,0,1.7-1.354,1.363,1.363,0,0,0-1.026-1.739,1.63,1.63,0,0,0-1.7,1.354" transform="translate(7.36 5.92)" fill="#1f3542"/>
          <path id="Trazado_1030853" data-name="Trazado 1030853" d="M66.856,30.467c1.311-4.734,6.817-6.445,11.395-7.617A15.928,15.928,0,0,0,89.643,12.838s3.94,14.271,13.873,11.757c0,0-.156-28.323-20.436-23.071C57.442,8.164,66.856,30.467,66.856,30.467" transform="translate(-20.183 0.213)" fill="#1f3542"/>
          <path id="Trazado_1030854" data-name="Trazado 1030854" d="M75.184,30.733l.38,1.856A1.326,1.326,0,0,1,74.2,34.145l-.411-.006" transform="translate(-3.482 7.47)" fill="none" stroke="#1f3542" stroke-linecap="round" stroke-linejoin="round" stroke-width="0.485"/>
          <path id="Trazado_1030855" data-name="Trazado 1030855" d="M84.9,22.349s-3.849-1.146-6.548.958Z" transform="translate(-18.723 5.356)" fill="#1f3542"/>
          <path id="Trazado_1030856" data-name="Trazado 1030856" d="M66.925,22.626a6.755,6.755,0,0,1,5.994,1.067Z" transform="translate(8.127 5.43)" fill="#1f3542"/>
          <path id="Trazado_1030857" data-name="Trazado 1030857" d="M94.729,23.149s-6.5-.112-5.251,4.786,8.469,7.391,8.469,7.391Z" transform="translate(-46.059 5.626)" fill="#df867f"/>
          <path id="Trazado_1030858" data-name="Trazado 1030858" d="M92.424,25.753s-3.374,1.434,1.5,4.27Z" transform="translate(-44.596 6.259)" fill="#1f3542"/>
          <path id="Trazado_1030859" data-name="Trazado 1030859" d="M83.255,24.706a6.213,6.213,0,0,1,2.119,1.8c1.318,1.513,3.742,9.231,4.287,9.119S87.916,24.34,95.244,17.937s-5.469-5.246-5.469-5.246-6.008,5.432-5.969,5.967-.551,6.049-.551,6.049" transform="translate(-37.728 3.065)" fill="#1f3542"/>
          <path id="Trazado_1030860" data-name="Trazado 1030860" d="M67.071,24.359a3.879,3.879,0,0,1,3.5,1.457,6.975,6.975,0,0,0-2.872-.643Z" transform="translate(10.288 5.914)" fill="#1f3542"/>
          <path id="Trazado_1030861" data-name="Trazado 1030861" d="M81.482,26.824a1.377,1.377,0,0,1-1.2,1.632,1.611,1.611,0,0,1-1.55-1.51,1.376,1.376,0,0,1,1.2-1.632,1.611,1.611,0,0,1,1.55,1.51" transform="translate(-15.805 6.152)" fill="#1f3542"/>
          <path id="Trazado_1030862" data-name="Trazado 1030862" d="M83.254,25.347a3.906,3.906,0,0,0-3.632,1.115,7.008,7.008,0,0,1,2.926-.364Z" transform="translate(-18.741 6.14)" fill="#1f3542"/>
          <path id="Trazado_1030863" data-name="Trazado 1030863" d="M71.873,36.829s4.654,8.931,9.193-.329Z" transform="translate(-6.463 8.871)" fill="#fff"/>
          <path id="Trazado_1030864" data-name="Trazado 1030864" d="M115.175,67.942c.555,7.827,3.121,18.07-9.719,20.076S86.946,83.708,84.21,75.871,66.828,52.8,66.828,52.8L85,47.919S98.576,62.491,108.064,50.3l8.729,2.054a53.856,53.856,0,0,0-1.619,15.587" transform="translate(-35.621 11.647)" fill="#df867f"/>
          <path id="Trazado_1030865" data-name="Trazado 1030865" d="M125.743,164.118C115,178.612,99.287,178.3,79.472,178.656s-24.6-9.9-24.6-9.9.135-1.341,1.216-11.7c1.819-17.435,8.017-39.521,10.431-66.384s-3.4-36.114-3.4-36.114l23.065-6.21s5.75,17.475,18.581,15.461,7.06-11.489,7.534-13.366l9.6,2.255a95.961,95.961,0,0,0,2.432,10c2.646,9.09,8.951,14.92,10.891,28.039s-4.9,17.891-9.344,32.736-.133,40.644-.133,40.644" transform="translate(-38.82 11.75)" fill="#f7e83e"/>
          <path id="Trazado_1030866" data-name="Trazado 1030866" d="M88.642,91.2l37.647,3.8s9.237,12.788,8.718,14.866c-5.9,23.52-3.287,41.126-2.326,43.831S115.842,171.1,115.842,171.1l-47.208,3.392L60.609,156l4.416-22.709S84.919,97.989,88.642,91.2" transform="translate(-45.758 22.167)" fill="#1f3542"/>
          <path id="Trazado_1030867" data-name="Trazado 1030867" d="M72.91,128.792s4.514-69.254,4.05-76.672c0,0-3.917-1.577-4.856-1.388s-1.279,17.253-1.533,21.807-5.232,58.428-5.232,58.428Z" transform="translate(6.117 12.326)" fill="#1f3542"/>
          <path id="Trazado_1030868" data-name="Trazado 1030868" d="M96.886,128.95s1.505-20.96,1.655-31.894-8.47-45.619-8.47-45.619,6.405-1.841,7.005-1.886,7.978,24.6,9,41.149c.612,9.87-1.523,39.255-1.523,39.255Z" transform="translate(-55.283 12.043)" fill="#1f3542"/>
          <path id="Trazado_1030869" data-name="Trazado 1030869" d="M96.833,116.258s-1.085,9.985-1.085,14.913c0,0-8.671,4.926-12.49,5.32s-12.077-5.814-12.386-6.8,1.7-14.417,1.7-14.417Z" transform="translate(-20.885 28.017)" fill="#2f4956"/>
          <line id="Línea_818" data-name="Línea 818" y1="12.125" x2="1.365" transform="translate(33.009 85.628)" fill="none" stroke="#1f3542" stroke-linecap="round" stroke-miterlimit="10" stroke-width="0.379"/>
          <path id="Trazado_1030870" data-name="Trazado 1030870" d="M64.092,72.312s-4.24-7.861-5.07-11.081" transform="translate(27.244 14.882)" fill="none" stroke="#1f3542" stroke-linecap="round" stroke-miterlimit="10" stroke-width="0.379"/>
          <path id="Trazado_1030871" data-name="Trazado 1030871" d="M75.195,88.312A13.385,13.385,0,0,1,78.853,83.7c2.328-1.7,9.746-3.215,11.091-3.447s2.447,3.786,2.447,3.786L78.314,91.371Z" transform="translate(-22.114 19.504)" fill="#df867f"/>
          <path id="Trazado_1030872" data-name="Trazado 1030872" d="M101.443,72.9,92.6,113.191a2.379,2.379,0,0,1-2.353,1.825H31.8a2.327,2.327,0,0,1-2.359-2.735l8.206-40.127a2.371,2.371,0,0,1,2.33-1.856c9.2-.086,48.242-.43,59.179-.167a2.321,2.321,0,0,1,2.292,2.766" transform="translate(28.425 17.022)" fill="#fff"/>
          <path id="Trazado_1030873" data-name="Trazado 1030873" d="M52.306,88.606a3.254,3.254,0,0,0,2.319,4.018,3.4,3.4,0,0,0,3.733-2.886,3.255,3.255,0,0,0-2.319-4.018,3.394,3.394,0,0,0-3.733,2.886" transform="translate(41.748 20.823)" fill="#d9eaa7"/>
          <path id="Trazado_1030874" data-name="Trazado 1030874" d="M73.223,88.277c11.44,5.364,23.213,1.277,25.955.718L92.854,114.3a133.157,133.157,0,0,1,23.434-19.322,24.967,24.967,0,0,1,1.986-3.425c1.371-1.971,3.556-4.334,6.219-4.894a77.636,77.636,0,0,0,9.291-2.844,71.95,71.95,0,0,1,10.348-2.276c1.49-.147,5.948,1.993-.206,5.108,0,0,1.086,4.077-1.551,5.952,0,0,2.49,2.6-.022,5.155,0,0,1.757,2.415-1.664,5.139s-6.317,2.866-8.65,3.262a44.7,44.7,0,0,1-7.686.917c-1.789,3.106-7.214,13.268-16.67,22.006-28.92,26.728-36.431,9.448-37.2,4.013-1.582-11.251-.112-25.3,2.736-44.817" transform="translate(-69.839 19.817)" fill="#df867f"/>
          <path id="Trazado_1030875" data-name="Trazado 1030875" d="M88.54,85.652s-3.583,1.149-8.03,2.864a50.411,50.411,0,0,1-8.241,2.4" transform="translate(-14.453 20.817)" fill="none" stroke="#1f3542" stroke-miterlimit="10" stroke-width="0.411"/>
          <path id="Trazado_1030876" data-name="Trazado 1030876" d="M84.025,90.44A55.789,55.789,0,0,1,73.46,95.192" transform="translate(-11.489 21.981)" fill="none" stroke="#1f3542" stroke-miterlimit="10" stroke-width="0.411"/>
          <path id="Trazado_1030877" data-name="Trazado 1030877" d="M81.952,94.587a38.337,38.337,0,0,1-8.474,4.932" transform="translate(-9.44 22.989)" fill="none" stroke="#1f3542" stroke-miterlimit="10" stroke-width="0.411"/>
          <path id="Trazado_1030878" data-name="Trazado 1030878" d="M123.727,108.678s-8.552,6.133-11.806,11.805" transform="translate(-101.272 26.414)" fill="none" stroke="#1f3542" stroke-miterlimit="10" stroke-width="0.411"/>
          <path id="Trazado_1030879" data-name="Trazado 1030879" d="M102.45,95.13c11.44,5.364,25.55,3.338,28.291,2.779l3.112-24.292L129.4,61.026l-6.041-7.685s-14.3,6.684-18.334,26.728c-.882,4.4-1.775,9.564-2.577,15.061" transform="translate(-99.066 12.964)" fill="#f7e83e"/>
          <line id="Línea_819" data-name="Línea 819" y1="17.281" x2="3.376" transform="translate(28.712 94.04)" fill="none" stroke="#1f3542" stroke-linecap="round" stroke-miterlimit="10" stroke-width="0.379"/>
          <path id="Trazado_1030880" data-name="Trazado 1030880" d="M125.555,225.689H73.449c-8.319-9.76-18.519-21.97-23.338-28.722-4.9-6.877,10.776-12.724,25.82-16.569,1.462-.378,2.925-.732,4.362-1.075,10.489-2.461,19.6-3.868,19.6-3.868a.049.049,0,0,1,.012.035c.1.1.4.537.9,1.247a.308.308,0,0,1,.036.057,224.28,224.28,0,0,1,14.395,23.6c.624,1.144,1.163,2.185,1.607,3.1.5,1.019,1.007,2.037,1.5,3.079.048.091.085.183.133.275a109.487,109.487,0,0,1,7.084,18.846" transform="translate(-21.424 42.644)" fill="#1f3542"/>
          <path id="Trazado_1030881" data-name="Trazado 1030881" d="M86,207.535c-5.638-11.685-27.872-44.649-30.113-48.709" transform="translate(9.414 38.602)" fill="none" stroke="#2f4956" stroke-linecap="round" stroke-linejoin="round" stroke-width="0.686"/>
          <path id="Trazado_1030882" data-name="Trazado 1030882" d="M73.235,165.855s1.673-6.19,2.745-9.626" transform="translate(-3.151 37.971)" fill="none" stroke="#2f4956" stroke-linecap="round" stroke-linejoin="round" stroke-width="0.686"/>
        </g>
      </g>
      <g id="Grupo_1199164" data-name="Grupo 1199164" transform="translate(123.094 7.351)">
        <g id="Grupo_1199170" data-name="Grupo 1199170" clip-path="url(#clip-path-23)">
          <g id="Grupo_1199169" data-name="Grupo 1199169" transform="translate(0 0)">
            <g id="Grupo_1199168" data-name="Grupo 1199168" clip-path="url(#clip-path-24)">
              <g id="Grupo_1199167" data-name="Grupo 1199167" transform="translate(0 0)" opacity="0.7">
                <g id="Grupo_1199166" data-name="Grupo 1199166" transform="translate(0 0)">
                  <g id="Grupo_1199165" data-name="Grupo 1199165" clip-path="url(#clip-path-23)">
                    <path id="Trazado_1030883" data-name="Trazado 1030883" d="M7.213,83.448H127.222a6.59,6.59,0,0,0,6.738-6.431V6.907A6.591,6.591,0,0,0,127.222.476H7.213A6.59,6.59,0,0,0,.476,6.907V77.016a6.589,6.589,0,0,0,6.737,6.431" transform="translate(0 -0.022)" fill="#fff"/>
                    <path id="Rectángulo_408720" data-name="Rectángulo 408720" d="M6.738,0H126.747a6.737,6.737,0,0,1,6.737,6.737v69.5a6.737,6.737,0,0,1-6.737,6.737H6.738A6.738,6.738,0,0,1,0,76.234V6.738A6.738,6.738,0,0,1,6.738,0Z" transform="translate(0.476 0.454)" fill="none" stroke="#607a17" stroke-miterlimit="10" stroke-width="0.952"/>
                  </g>
                </g>
              </g>
              <path id="Trazado_1030884" data-name="Trazado 1030884" d="M6.118,7.259a1.254,1.254,0,1,0,1.253-1.2,1.226,1.226,0,0,0-1.253,1.2" transform="translate(119.695 -0.275)" fill="#89b62e"/>
              <path id="Trazado_1030885" data-name="Trazado 1030885" d="M11.151,7.259a1.254,1.254,0,1,0,1.253-1.2,1.226,1.226,0,0,0-1.253,1.2" transform="translate(109.629 -0.275)" fill="#89b62e"/>
              <path id="Trazado_1030886" data-name="Trazado 1030886" d="M16.184,7.259a1.254,1.254,0,1,0,1.253-1.2,1.226,1.226,0,0,0-1.253,1.2" transform="translate(99.563 -0.275)" fill="#89b62e"/>
              <path id="Trazado_1030887" data-name="Trazado 1030887" d="M14.2,43.764H52.949A1.561,1.561,0,0,0,54.578,42.2l-.28-21.91a1.962,1.962,0,0,0-1.966-1.848H13.585a1.561,1.561,0,0,0-1.629,1.568l.28,21.91A1.962,1.962,0,0,0,14.2,43.764" transform="translate(67.902 -0.837)" fill="#89b62e"/>
              <path id="Trazado_1030888" data-name="Trazado 1030888" d="M14.57,35.929l3.161,2.981a9.529,9.529,0,0,0,3.02-7.069H16.335a5.477,5.477,0,0,1-1.765,4.088" transform="translate(99.114 -1.445)" fill="#1f3542"/>
              <path id="Trazado_1030889" data-name="Trazado 1030889" d="M14.571,21.462l.054,4.217A5.923,5.923,0,0,1,20.66,31.37h4.416a10.31,10.31,0,0,0-10.5-9.908" transform="translate(94.789 -0.974)" fill="#fff"/>
              <path id="Trazado_1030890" data-name="Trazado 1030890" d="M25.022,24.432l3.161,2.981a6,6,0,0,1,4.263-1.735l-.054-4.217a10.454,10.454,0,0,0-7.37,2.97" transform="translate(76.968 -0.974)" fill="#d9eaa7"/>
              <path id="Trazado_1030891" data-name="Trazado 1030891" d="M17.593,31.51a10.308,10.308,0,0,0,10.5,9.907,10.457,10.457,0,0,0,7.231-2.838L32.169,35.6a6,6,0,0,1-4.125,1.6,5.923,5.923,0,0,1-6.037-5.691,5.462,5.462,0,0,1,1.629-3.957l-3.161-2.981a9.527,9.527,0,0,0-2.882,6.938" transform="translate(81.515 -1.115)" fill="#f7e83e"/>
              <path id="Trazado_1030892" data-name="Trazado 1030892" d="M38.69,25.049H51.68l-.015-1.181H38.675Z" transform="translate(44.081 -1.083)" fill="#fff"/>
              <path id="Trazado_1030893" data-name="Trazado 1030893" d="M44.514,27.574h7.135l-.015-1.181H44.5Z" transform="translate(38.288 -1.198)" fill="#d9eaa7"/>
              <path id="Trazado_1030894" data-name="Trazado 1030894" d="M38.553,36.234h12.99l-.015-1.181H38.538Z" transform="translate(44.354 -1.591)" fill="#fff"/>
              <path id="Trazado_1030895" data-name="Trazado 1030895" d="M44.377,38.76h7.135L51.5,37.58H44.362Z" transform="translate(38.561 -1.705)" fill="#d9eaa7"/>
              <rect id="Rectángulo_408722" data-name="Rectángulo 408722" width="56.359" height="1.54" transform="translate(12.935 23.013)" fill="#d9eaa7"/>
              <rect id="Rectángulo_408723" data-name="Rectángulo 408723" width="56.359" height="1.54" transform="translate(12.935 29.841)" fill="#d9eaa7"/>
              <rect id="Rectángulo_408724" data-name="Rectángulo 408724" width="45.828" height="1.54" transform="translate(12.935 35.976)" fill="#d9eaa7"/>
              <rect id="Rectángulo_408725" data-name="Rectángulo 408725" width="32.712" height="1.54" transform="translate(12.935 23.013)" fill="#89b62e"/>
              <rect id="Rectángulo_408726" data-name="Rectángulo 408726" width="27.553" height="1.54" transform="translate(12.935 29.841)" fill="#89b62e"/>
              <rect id="Rectángulo_408727" data-name="Rectángulo 408727" width="22.405" height="1.54" transform="translate(12.935 35.976)" fill="#89b62e"/>
              <path id="Trazado_1030896" data-name="Trazado 1030896" d="M13.467,76.872l107.8-.324a1.64,1.64,0,0,0,1.672-1.606l-.079-24.028a1.64,1.64,0,0,0-1.682-1.6l-107.8.324a1.638,1.638,0,0,0-1.671,1.606l.079,24.027a1.641,1.641,0,0,0,1.682,1.6" transform="translate(-0.21 -2.238)" fill="#1f3542"/>
              <rect id="Rectángulo_408728" data-name="Rectángulo 408728" width="8.437" height="6.707" transform="translate(103.561 70.392) rotate(-90.179)" fill="#89b62e"/>
              <rect id="Rectángulo_408729" data-name="Rectángulo 408729" width="11.559" height="6.707" transform="translate(89.995 70.433) rotate(-90.179)" fill="#f7e83e"/>
              <rect id="Rectángulo_408730" data-name="Rectángulo 408730" width="16.16" height="6.707" transform="translate(76.43 70.473) rotate(-90.179)" fill="#89b62e"/>
              <rect id="Rectángulo_408731" data-name="Rectángulo 408731" width="11.34" height="6.707" transform="translate(62.866 70.514) rotate(-90.179)" fill="#f7e83e"/>
              <rect id="Rectángulo_408732" data-name="Rectángulo 408732" width="5.588" height="6.706" transform="translate(49.302 70.555) rotate(-90.179)" fill="#89b62e"/>
              <rect id="Rectángulo_408733" data-name="Rectángulo 408733" width="19.501" height="6.708" transform="translate(22.169 70.636) rotate(-90.179)" fill="#89b62e"/>
              <rect id="Rectángulo_408734" data-name="Rectángulo 408734" width="15.12" height="6.708" transform="translate(35.735 70.596) rotate(-90.179)" fill="#f7e83e"/>
            </g>
          </g>
        </g>
      </g>
    </g>
  </g>
</svg>
