<svg xmlns="http://www.w3.org/2000/svg" xmlns:xlink="http://www.w3.org/1999/xlink" width="118" height="118" viewBox="0 0 118 118">
  <defs>
    <filter id="Trazado_896985" x="0" y="0" width="118" height="118" filterUnits="userSpaceOnUse">
      <feOffset dy="3" input="SourceAlpha"/>
      <feGaussianBlur stdDeviation="3" result="blur"/>
      <feFlood flood-opacity="0.161"/>
      <feComposite operator="in" in2="blur"/>
      <feComposite in="SourceGraphic"/>
    </filter>
  </defs>
  <g id="Grupo_1199927" data-name="Grupo 1199927" transform="translate(-264.95 -8294.95)">
    <g id="Grupo_1198709" data-name="Grupo 1198709" transform="translate(-3.05 4671.476)">
      <g id="Grupo_1198134" data-name="Grupo 1198134" transform="translate(-0.051 -705)">
        <g id="Grupo_1181844" data-name="Grupo 1181844" transform="translate(277.051 4334.475)">
          <g id="Grupo_1111318" data-name="Grupo 1111318" transform="translate(0)">
            <g id="Grupo_1109826" data-name="Grupo 1109826" transform="translate(0 0)">
              <g id="Grupo_1098742" data-name="Grupo 1098742">
                <g transform="matrix(1, 0, 0, 1, -9, -6)" filter="url(#Trazado_896985)">
                  <g id="Trazado_896985-2" data-name="Trazado 896985" transform="translate(9 6)" fill="#9ad354" opacity="0.859">
                    <path d="M 49.99993515014648 99.5 C 43.31726837158203 99.5 36.83476257324219 98.19129943847656 30.73248100280762 95.61025238037109 C 24.83812141418457 93.11714172363281 19.54434776306152 89.54795837402344 14.99820137023926 85.00179290771484 C 10.45204162597656 80.45565032958984 6.88285493850708 75.16187286376953 4.389748573303223 69.26751708984375 C 1.808695197105408 63.16523742675781 0.5000017881393433 56.6827278137207 0.5000017881393433 50.00006103515625 C 0.5000017881393433 43.31726455688477 1.808695197105408 36.83475494384766 4.389748573303223 30.73247528076172 C 6.88285493850708 24.83811569213867 10.45204162597656 19.54434204101562 14.99820137023926 14.99819660186768 C 19.54434776306152 10.45203590393066 24.83812141418457 6.88284969329834 30.73248100280762 4.389742851257324 C 36.83476257324219 1.808689475059509 43.31726837158203 0.4999961853027344 49.99993515014648 0.4999961853027344 C 56.68260192871094 0.4999961853027344 63.16510772705078 1.808689475059509 69.26738739013672 4.389742851257324 C 75.16175079345703 6.88284969329834 80.45552062988281 10.45203590393066 85.00167083740234 14.99819660186768 C 89.54782867431641 19.54434204101562 93.11701202392578 24.83811569213867 95.61012268066406 30.73247528076172 C 98.19117736816406 36.83475494384766 99.49987030029297 43.31726455688477 99.49987030029297 49.99993133544922 C 99.49987030029297 56.6827278137207 98.19117736816406 63.16523742675781 95.61012268066406 69.26751708984375 C 93.11701202392578 75.16187286376953 89.54782867431641 80.45565032958984 85.00167083740234 85.00179290771484 C 80.45552062988281 89.54795837402344 75.16175079345703 93.11714172363281 69.26738739013672 95.61025238037109 C 63.16510772705078 98.19129943847656 56.68260192871094 99.5 49.99993515014648 99.5 Z" stroke="none"/>
                    <path d="M 49.99993515014648 0.9999923706054688 C 43.38454818725586 0.9999923706054688 36.96757507324219 2.29541015625 30.92725372314453 4.850250244140625 C 25.09249877929688 7.318145751953125 19.85213470458984 10.85135650634766 15.35174560546875 15.35174560546875 C 10.85136413574219 19.85212707519531 7.318145751953125 25.09249114990234 4.850257873535156 30.92724609375 C 2.295417785644531 36.96757125854492 1 43.38454437255859 1 50.00006103515625 C 1 56.61544799804688 2.295417785644531 63.03242111206055 4.850257873535156 69.07273864746094 C 7.318145751953125 74.90750122070312 10.85136413574219 80.14786529541016 15.35174560546875 84.64824676513672 C 19.85213470458984 89.14863586425781 25.09249877929688 92.68184661865234 30.92725372314453 95.14974212646484 C 36.96757507324219 97.70458221435547 43.38454818725586 99 49.99993515014648 99 C 56.61532211303711 99 63.03229522705078 97.70458221435547 69.07261657714844 95.14974212646484 C 74.90737915039062 92.68184661865234 80.14773559570312 89.14863586425781 84.64812469482422 84.64824676513672 C 89.14850616455078 80.14786529541016 92.68172454833984 74.90750122070312 95.14961242675781 69.07273864746094 C 97.70445251464844 63.03242111206055 98.99987030029297 56.61544799804688 98.99987030029297 49.99993133544922 C 98.99987030029297 43.38454437255859 97.70445251464844 36.96757125854492 95.14961242675781 30.92724609375 C 92.68172454833984 25.09249114990234 89.14850616455078 19.85212707519531 84.64812469482422 15.35174560546875 C 80.14773559570312 10.85135650634766 74.90737915039062 7.318145751953125 69.07261657714844 4.850250244140625 C 63.03229522705078 2.29541015625 56.61532211303711 0.9999923706054688 49.99993515014648 0.9999923706054688 M 49.99993515014648 -7.62939453125e-06 C 77.6141357421875 -7.62939453125e-06 99.99987030029297 22.38572692871094 99.99987030029297 49.99993133544922 L 99.99987030029297 50.00006103515625 C 99.99987030029297 77.61426544189453 77.6141357421875 100 49.99993515014648 100 C 22.38573455810547 100 0 77.61426544189453 0 50.00006103515625 L 0 49.99993133544922 C 0 22.38572692871094 22.38573455810547 -7.62939453125e-06 49.99993515014648 -7.62939453125e-06 Z" stroke="none" fill="#fff"/>
                  </g>
                </g>
                <g id="Rectángulo_400907" data-name="Rectángulo 400907" transform="translate(0)" fill="none" stroke="#fff" stroke-width="1">
                  <rect width="100" height="100" rx="50" stroke="none"/>
                  <rect x="0.5" y="0.5" width="99" height="99" rx="49.5" fill="none"/>
                </g>
              </g>
            </g>
          </g>
        </g>
      </g>
    </g>
    <g id="ley_11_" data-name="ley (11)" transform="translate(287.973 8305.937)">
      <g id="Grupo_1199918" data-name="Grupo 1199918" transform="translate(13.952 51.22)">
        <g id="Grupo_1199913" data-name="Grupo 1199913" transform="translate(0 3.42)">
          <path id="Trazado_1031910" data-name="Trazado 1031910" d="M150.914,357.756a10.889,10.889,0,0,0,2.614,7.171h-39.4a1.247,1.247,0,0,1-1.017-.521,12.694,12.694,0,0,1,0-13.3,1.247,1.247,0,0,1,1.017-.521h39.4A10.89,10.89,0,0,0,150.914,357.756Z" transform="translate(-111.226 -350.585)" fill="#fb3a82"/>
          <path id="Trazado_1031911" data-name="Trazado 1031911" d="M123.251,350.587l-11.111,12.036a12.591,12.591,0,0,1-.909-4.865,11.38,11.38,0,0,1,1.882-6.651,1.245,1.245,0,0,1,1.017-.521Z" transform="translate(-111.229 -350.587)" fill="#fb1466"/>
          <path id="Trazado_1031912" data-name="Trazado 1031912" d="M185.479,357.756a10.889,10.889,0,0,0,2.614,7.171h-40s-2.3-2.328-2.3-7.171,2.3-7.171,2.3-7.171h40A10.89,10.89,0,0,0,185.479,357.756Z" transform="translate(-141.455 -350.585)" fill="#e0d3ce"/>
          <g id="Grupo_1199912" data-name="Grupo 1199912" transform="translate(4.336 0)">
            <path id="Trazado_1031913" data-name="Trazado 1031913" d="M153.476,350.587l-7.644,8.28c-.026-.354-.041-.724-.041-1.109,0-4.843,2.3-7.171,2.3-7.171Z" transform="translate(-145.79 -350.587)" fill="#cdbfbb"/>
            <path id="Trazado_1031914" data-name="Trazado 1031914" d="M429.139,357.763a10.887,10.887,0,0,0,2.614,7.171h-4.74a11.141,11.141,0,0,1,0-14.341h4.74A10.884,10.884,0,0,0,429.139,357.763Z" transform="translate(-389.45 -350.591)" fill="#cdbfbb"/>
          </g>
        </g>
        <g id="Grupo_1199917" data-name="Grupo 1199917" transform="translate(5.398)">
          <g id="Grupo_1199915" data-name="Grupo 1199915" transform="translate(0)">
            <path id="Trazado_1031915" data-name="Trazado 1031915" d="M198.193,325.4a2.081,2.081,0,0,1-2.081,2.081H156.341a2.082,2.082,0,0,1,0-4.163h39.771A2.082,2.082,0,0,1,198.193,325.4Z" transform="translate(-154.26 -323.317)" fill="#fb3a82"/>
            <g id="Grupo_1199914" data-name="Grupo 1199914">
              <path id="Trazado_1031916" data-name="Trazado 1031916" d="M164.041,323.317,160.2,327.48h-3.857a2.082,2.082,0,0,1,0-4.163Z" transform="translate(-154.26 -323.317)" fill="#fb1466"/>
              <path id="Trazado_1031917" data-name="Trazado 1031917" d="M461.833,325.4a2.084,2.084,0,0,1-2.083,2.083h-4.037a2.082,2.082,0,0,0,0-4.164h4.037A2.082,2.082,0,0,1,461.833,325.4Z" transform="translate(-417.899 -323.321)" fill="#fb1466"/>
            </g>
          </g>
          <g id="Grupo_1199916" data-name="Grupo 1199916" transform="translate(0 17.02)">
            <path id="Trazado_1031918" data-name="Trazado 1031918" d="M196.109,463.159H156.339a2.082,2.082,0,1,1,0-4.163h39.771a2.082,2.082,0,0,1,0,4.163Z" transform="translate(-154.257 -458.996)" fill="#fb3a82"/>
            <path id="Trazado_1031919" data-name="Trazado 1031919" d="M461.833,461.081a2.081,2.081,0,0,1-2.083,2.081h-4.037a2.081,2.081,0,1,0,0-4.162h4.037A2.082,2.082,0,0,1,461.833,461.081Z" transform="translate(-417.898 -459)" fill="#fb1466"/>
          </g>
        </g>
      </g>
      <g id="Grupo_1199926" data-name="Grupo 1199926" transform="translate(-0.001 12.193)">
        <g id="Grupo_1199921" data-name="Grupo 1199921" transform="translate(0.941 24.861)">
          <g id="Grupo_1199919" data-name="Grupo 1199919" transform="translate(0 7.962)">
            <path id="Trazado_1031920" data-name="Trazado 1031920" d="M34.9,277.217l-3.36-3.36L8.666,294.974a3.622,3.622,0,1,0,5.119,5.119Z" transform="translate(-7.5 -273.857)" fill="#873f30"/>
            <path id="Trazado_1031921" data-name="Trazado 1031921" d="M14.923,307.4a3.624,3.624,0,0,1-5.122,0,3.586,3.586,0,0,1-.883-1.443,3.617,3.617,0,0,0,3.676-.88c.035-.035.069-.072.1-.107L33.815,282.1l2.327,2.327L15.024,307.3C14.99,307.335,14.957,307.37,14.923,307.4Z" transform="translate(-8.74 -281.063)" fill="#6c3328"/>
          </g>
          <path id="Trazado_1031922" data-name="Trazado 1031922" d="M198.374,210.382l-7.738,9.23,3.161,3.161,9.23-7.738Z" transform="translate(-167.663 -210.382)" fill="#873f30"/>
          <path id="Trazado_1031923" data-name="Trazado 1031923" d="M207.055,210.382l-2.5,2.983.75.75a1.414,1.414,0,0,1,0,2l-4.743,4.743,1.916,1.916,9.23-7.738Z" transform="translate(-176.344 -210.382)" fill="#6c3328"/>
          <g id="Grupo_1199920" data-name="Grupo 1199920" transform="translate(20.412 7.34)">
            <path id="Trazado_1031924" data-name="Trazado 1031924" d="M173.956,275.845l-3.069-3.069a2.272,2.272,0,0,1,3.213-3.213l3.069,3.069a2.272,2.272,0,0,1-3.212,3.212Z" transform="translate(-170.222 -268.899)" fill="#ba5d4f"/>
            <path id="Trazado_1031925" data-name="Trazado 1031925" d="M186.979,285.661a2.271,2.271,0,0,1-3.212,0l-2.326-2.326a2.272,2.272,0,1,0,3.213-3.212l2.326,2.326A2.271,2.271,0,0,1,186.979,285.661Z" transform="translate(-180.034 -278.715)" fill="#a34f41"/>
          </g>
        </g>
        <g id="Grupo_1199922" data-name="Grupo 1199922" transform="translate(24.964 3.764)">
          <path id="Trazado_1031926" data-name="Trazado 1031926" d="M0,0H9.637V15.13H0Z" transform="translate(10.697 0) rotate(45)" fill="#ba5d4f"/>
          <path id="Trazado_1031927" data-name="Trazado 1031927" d="M0,0H9.637V15.13H0Z" transform="translate(21.738 32.443) rotate(-135)" fill="#a34f41"/>
        </g>
        <g id="Grupo_1199925" data-name="Grupo 1199925" transform="translate(0 0)">
          <path id="Trazado_1031928" data-name="Trazado 1031928" d="M177.39,35.562l-.237-.237a2.3,2.3,0,0,1,0-3.25l11.708-11.708a2.3,2.3,0,0,1,3.25,0l.237.237a2.3,2.3,0,0,1,0,3.25L180.64,35.562a2.3,2.3,0,0,1-3.25,0Z" transform="translate(-154.342 -18.753)" fill="#873f30"/>
          <path id="Trazado_1031929" data-name="Trazado 1031929" d="M348.917,207.088l.237.237a2.3,2.3,0,0,0,3.25,0l11.708-11.708a2.3,2.3,0,0,0,0-3.25l-.237-.237a2.3,2.3,0,0,0-3.25,0l-11.708,11.708A2.3,2.3,0,0,0,348.917,207.088Z" transform="translate(-304.56 -168.97)" fill="#6c3328"/>
          <g id="Grupo_1199924" data-name="Grupo 1199924">
            <path id="Trazado_1031930" data-name="Trazado 1031930" d="M0,0H10.822V22.85H0Z" transform="translate(45.431 8.075) rotate(45)" fill="#fcc16d"/>
            <path id="Trazado_1031931" data-name="Trazado 1031931" d="M0,0H22.85V5.477H0Z" transform="translate(33.05 28.017) rotate(-45)" fill="#fca62f"/>
            <path id="Trazado_1031932" data-name="Trazado 1031932" d="M241.065,67.76l-1.875-.766a1.724,1.724,0,0,0-1.871.377L224.157,80.534a1.724,1.724,0,0,0-.377,1.871l.766,1.875a1.149,1.149,0,0,0,1.876.378l15.02-15.02a1.149,1.149,0,0,0-.378-1.876Z" transform="translate(-195.597 -60.008)" fill="#873f30"/>
            <path id="Trazado_1031933" data-name="Trazado 1031933" d="M305.654,132.35l.766,1.875a1.724,1.724,0,0,1-.377,1.871l-13.163,13.163a1.724,1.724,0,0,1-1.871.377l-1.875-.766a1.149,1.149,0,0,1-.378-1.876l15.02-15.02A1.149,1.149,0,0,1,305.654,132.35Z" transform="translate(-252.241 -116.652)" fill="#6c3328"/>
            <g id="Grupo_1199923" data-name="Grupo 1199923">
              <path id="Trazado_1031934" data-name="Trazado 1031934" d="M61.2,67.3h-.7a9.73,9.73,0,0,1-.81-1.545.941.941,0,1,0-1.739.72c.116.281.246.555.383.825h-36.9a3.01,3.01,0,0,0-.82.114,10.936,10.936,0,0,1-1.383-5.6c0-.41.018-.815.054-1.211H37.307a.941.941,0,0,0,0-1.882H20.074l2.211-2.395H58.331a11.744,11.744,0,0,0-.906,2.395H45.059a.941.941,0,1,0,0,1.882H57.1c-.037.382-.058.768-.06,1.158a.941.941,0,0,0,.937.945h0a.941.941,0,0,0,.941-.937A10.067,10.067,0,0,1,60.5,56.325h.7a3.022,3.022,0,1,0,0-6.045H49.441L60.216,39.5a3.239,3.239,0,0,0,0-4.58l-.237-.237a3.237,3.237,0,0,0-4.414-.154L53.9,32.868l.567-.567a2.658,2.658,0,0,0,.582-2.892l-.766-1.875a2.085,2.085,0,0,0-1.514-1.256L51.461,24.97a.941.941,0,1,0-1.331,1.33l.644.644L35.947,41.771l-4.36-4.36L46.414,22.584l.577.577a.941.941,0,1,0,1.33-1.33L47.08,20.588a2.086,2.086,0,0,0-1.256-1.514h0l-1.874-.766a2.659,2.659,0,0,0-2.892.582l-.567.567-1.666-1.665a3.237,3.237,0,0,0-.154-4.414l-.237-.237a3.239,3.239,0,0,0-4.581,0L22.145,24.85a3.239,3.239,0,0,0,0,4.58l.237.237a3.237,3.237,0,0,0,4.414.154l1.665,1.666-.567.567a2.658,2.658,0,0,0-.582,2.892l.766,1.874a2.084,2.084,0,0,0,1.492,1.251L24.853,43.7a3.214,3.214,0,0,0-4.246,4.075l-2.139,1.975a.941.941,0,0,0,1.276,1.383l1.977-1.825,2.331,2.331L6.533,70.614a2.682,2.682,0,1,1-3.789-3.789L16.485,54.139a.941.941,0,1,0-1.276-1.382L1.467,65.442a4.563,4.563,0,0,0,3.092,7.916h.094A4.524,4.524,0,0,0,7.915,71.89l5.639-6.108a10.843,10.843,0,0,0,1.513,3.225,2.191,2.191,0,0,0,1.784.916h1.585a3.017,3.017,0,0,0,3,3.42H61.2a3.022,3.022,0,0,0,0-6.045Zm1.141-14A1.142,1.142,0,0,1,61.2,54.443H24.022l1.564-1.694a3.215,3.215,0,0,0,3.209-.587H61.2A1.142,1.142,0,0,1,62.342,53.3ZM33.96,42.445l-5.447,4.567-2.166-2.166L30.913,39.4Zm-4.1,7.835a3.231,3.231,0,0,0-.2-1.775l5.627-4.717a2.085,2.085,0,0,0,1.251,1.492l1.875.766a2.659,2.659,0,0,0,2.892-.582l.567-.567,1.665,1.665a3.245,3.245,0,0,0-.374,3.718H29.856ZM57.689,35.621a1.349,1.349,0,0,1,.96.4l.237.237a1.357,1.357,0,0,1,0,1.919L47.177,49.882a1.357,1.357,0,0,1-1.919,0l-.237-.237a1.359,1.359,0,0,1,0-1.919L56.73,36.018a1.348,1.348,0,0,1,.96-.4Zm-3.461.237-9.368,9.368L43.2,43.566,52.57,34.2ZM37.181,43.2,52.2,28.178a.2.2,0,0,1,.144-.061.23.23,0,0,1,.045,0,.2.2,0,0,1,.152.125l.766,1.875a.781.781,0,0,1-.171.85L39.974,44.134a.781.781,0,0,1-.85.171l-1.874-.766a.208.208,0,0,1-.069-.34ZM24.672,28.734a1.348,1.348,0,0,1-.96-.4l-.237-.237a1.357,1.357,0,0,1,0-1.919L35.184,14.473a1.357,1.357,0,0,1,1.919,0l.237.237a1.357,1.357,0,0,1,0,1.919L25.632,28.337A1.35,1.35,0,0,1,24.672,28.734Zm3.46-.237L37.5,19.129l1.659,1.659-9.368,9.368Zm1.092,4.887L42.387,20.221a.781.781,0,0,1,.85-.171l1.874.766a.208.208,0,0,1,.068.34L30.16,36.177a.208.208,0,0,1-.34-.068l-.766-1.875a.781.781,0,0,1,.171-.85ZM22.293,46.666a1.331,1.331,0,0,1,2.272-.941l3.068,3.068a1.331,1.331,0,0,1-1.882,1.882l-3.068-3.068a1.322,1.322,0,0,1-.39-.941ZM16.6,67.917a9.491,9.491,0,0,1-1.507-3.8l2.255-2.443c0,.047,0,.093,0,.14a13.053,13.053,0,0,0,1.459,6.23H16.851A.306.306,0,0,1,16.6,67.917Zm44.6,3.545H21.431a1.141,1.141,0,1,1,0-2.281H61.2a1.141,1.141,0,1,1,0,2.281Z" transform="translate(0.001 -12.193)"/>
              <path id="Trazado_1031935" data-name="Trazado 1031935" d="M203.268,417.166a.941.941,0,0,0,0,1.882h21.918a.941.941,0,0,0,0-1.882Z" transform="translate(-176.947 -366.366)"/>
            </g>
          </g>
        </g>
      </g>
    </g>
  </g>
</svg>
