<svg xmlns="http://www.w3.org/2000/svg" xmlns:xlink="http://www.w3.org/1999/xlink" width="118" height="118" viewBox="0 0 118 118">
  <defs>
    <filter id="Trazado_896985" x="0" y="0" width="118" height="118" filterUnits="userSpaceOnUse">
      <feOffset dy="3" input="SourceAlpha"/>
      <feGaussianBlur stdDeviation="3" result="blur"/>
      <feFlood flood-opacity="0.161"/>
      <feComposite operator="in" in2="blur"/>
      <feComposite in="SourceGraphic"/>
    </filter>
    <clipPath id="clip-path">
      <path id="path8451" d="M0-682.665H69.634v69.634H0Z" transform="translate(0 682.665)"/>
    </clipPath>
  </defs>
  <g id="Grupo_1199928" data-name="Grupo 1199928" transform="translate(-579.95 -8294.95)">
    <g id="Grupo_1198710" data-name="Grupo 1198710" transform="translate(-3.05 4671.476)">
      <g id="Grupo_1198135" data-name="Grupo 1198135" transform="translate(-0.051 -705)">
        <g id="Grupo_1181847" data-name="Grupo 1181847" transform="translate(592.051 4334.475)">
          <g id="Grupo_1111318" data-name="Grupo 1111318" transform="translate(0)">
            <g id="Grupo_1109826" data-name="Grupo 1109826" transform="translate(0 0)">
              <g id="Grupo_1098742" data-name="Grupo 1098742">
                <g transform="matrix(1, 0, 0, 1, -9, -6)" filter="url(#Trazado_896985)">
                  <g id="Trazado_896985-2" data-name="Trazado 896985" transform="translate(9 6)" fill="#9ad354" opacity="0.859">
                    <path d="M 49.99993515014648 99.5 C 43.31726837158203 99.5 36.83476257324219 98.19129943847656 30.73248100280762 95.61025238037109 C 24.83812141418457 93.11714172363281 19.54434776306152 89.54795837402344 14.99820137023926 85.00179290771484 C 10.45204162597656 80.45565032958984 6.88285493850708 75.16187286376953 4.389748573303223 69.26751708984375 C 1.808695197105408 63.16523742675781 0.5000017881393433 56.6827278137207 0.5000017881393433 50.00006103515625 C 0.5000017881393433 43.31726455688477 1.808695197105408 36.83475494384766 4.389748573303223 30.73247528076172 C 6.88285493850708 24.83811569213867 10.45204162597656 19.54434204101562 14.99820137023926 14.99819660186768 C 19.54434776306152 10.45203590393066 24.83812141418457 6.88284969329834 30.73248100280762 4.389742851257324 C 36.83476257324219 1.808689475059509 43.31726837158203 0.4999961853027344 49.99993515014648 0.4999961853027344 C 56.68260192871094 0.4999961853027344 63.16510772705078 1.808689475059509 69.26738739013672 4.389742851257324 C 75.16175079345703 6.88284969329834 80.45552062988281 10.45203590393066 85.00167083740234 14.99819660186768 C 89.54782867431641 19.54434204101562 93.11701202392578 24.83811569213867 95.61012268066406 30.73247528076172 C 98.19117736816406 36.83475494384766 99.49987030029297 43.31726455688477 99.49987030029297 49.99993133544922 C 99.49987030029297 56.6827278137207 98.19117736816406 63.16523742675781 95.61012268066406 69.26751708984375 C 93.11701202392578 75.16187286376953 89.54782867431641 80.45565032958984 85.00167083740234 85.00179290771484 C 80.45552062988281 89.54795837402344 75.16175079345703 93.11714172363281 69.26738739013672 95.61025238037109 C 63.16510772705078 98.19129943847656 56.68260192871094 99.5 49.99993515014648 99.5 Z" stroke="none"/>
                    <path d="M 49.99993515014648 0.9999923706054688 C 43.38454818725586 0.9999923706054688 36.96757507324219 2.29541015625 30.92725372314453 4.850250244140625 C 25.09249877929688 7.318145751953125 19.85213470458984 10.85135650634766 15.35174560546875 15.35174560546875 C 10.85136413574219 19.85212707519531 7.318145751953125 25.09249114990234 4.850257873535156 30.92724609375 C 2.295417785644531 36.96757125854492 1 43.38454437255859 1 50.00006103515625 C 1 56.61544799804688 2.295417785644531 63.03242111206055 4.850257873535156 69.07273864746094 C 7.318145751953125 74.90750122070312 10.85136413574219 80.14786529541016 15.35174560546875 84.64824676513672 C 19.85213470458984 89.14863586425781 25.09249877929688 92.68184661865234 30.92725372314453 95.14974212646484 C 36.96757507324219 97.70458221435547 43.38454818725586 99 49.99993515014648 99 C 56.61532211303711 99 63.03229522705078 97.70458221435547 69.07261657714844 95.14974212646484 C 74.90737915039062 92.68184661865234 80.14773559570312 89.14863586425781 84.64812469482422 84.64824676513672 C 89.14850616455078 80.14786529541016 92.68172454833984 74.90750122070312 95.14961242675781 69.07273864746094 C 97.70445251464844 63.03242111206055 98.99987030029297 56.61544799804688 98.99987030029297 49.99993133544922 C 98.99987030029297 43.38454437255859 97.70445251464844 36.96757125854492 95.14961242675781 30.92724609375 C 92.68172454833984 25.09249114990234 89.14850616455078 19.85212707519531 84.64812469482422 15.35174560546875 C 80.14773559570312 10.85135650634766 74.90737915039062 7.318145751953125 69.07261657714844 4.850250244140625 C 63.03229522705078 2.29541015625 56.61532211303711 0.9999923706054688 49.99993515014648 0.9999923706054688 M 49.99993515014648 -7.62939453125e-06 C 77.6141357421875 -7.62939453125e-06 99.99987030029297 22.38572692871094 99.99987030029297 49.99993133544922 L 99.99987030029297 50.00006103515625 C 99.99987030029297 77.61426544189453 77.6141357421875 100 49.99993515014648 100 C 22.38573455810547 100 0 77.61426544189453 0 50.00006103515625 L 0 49.99993133544922 C 0 22.38572692871094 22.38573455810547 -7.62939453125e-06 49.99993515014648 -7.62939453125e-06 Z" stroke="none" fill="#fff"/>
                  </g>
                </g>
                <g id="Rectángulo_400907" data-name="Rectángulo 400907" transform="translate(0)" fill="none" stroke="#fff" stroke-width="1">
                  <rect width="100" height="100" rx="50" stroke="none"/>
                  <rect x="0.5" y="0.5" width="99" height="99" rx="49.5" fill="none"/>
                </g>
              </g>
            </g>
          </g>
        </g>
      </g>
    </g>
    <g id="g8445" transform="translate(604.133 8998.798)">
      <g id="g8447" transform="translate(0 -682.665)">
        <g id="g8449" clip-path="url(#clip-path)">
          <g id="g8455" transform="translate(13.021 30.13)">
            <path id="path8457" d="M-191.959-211.154a11.481,11.481,0,0,1-.207,2.148,10.922,10.922,0,0,1-10.7,8.754,10.922,10.922,0,0,1-10.7-8.754,11.481,11.481,0,0,1-.207-2.148,10.894,10.894,0,0,1,7.632-10.4v-13.584h6.541v13.584a10.894,10.894,0,0,1,7.632,10.4" transform="translate(213.763 235.139)" fill="#f18ba1"/>
          </g>
          <g id="g8459" transform="translate(20.653 13.776)">
            <path id="path8461" d="M-57.588-42.327v11.546h-6.541V-47.135h6.541Z" transform="translate(64.129 47.135)" fill="#fff"/>
          </g>
          <g id="g8463" transform="translate(37.988 9.415)">
            <path id="path8465" d="M-166.62-26.3a11.943,11.943,0,0,1,4.077,9.005,12,12,0,0,1-6.988,10.9l-.044.011a19.61,19.61,0,0,0-15.972-15.013l.2-1.079a11.789,11.789,0,0,1,2.9-3.827,11.9,11.9,0,0,1,7.915-2.987A11.923,11.923,0,0,1-166.62-26.3" transform="translate(185.546 29.285)" fill="#fee94f"/>
          </g>
          <g id="g8467" transform="translate(27.194 17.047)">
            <path id="path8469" d="M0-234.764v-25.13a19.548,19.548,0,0,1,7.632-1.537,18.845,18.845,0,0,1,3.162.262,19.61,19.61,0,0,1,15.972,15.012,19.062,19.062,0,0,1,.491,4.35c0,.36-.033.709-.055,1.058a9.7,9.7,0,0,1,4.415-1.058A9.813,9.813,0,0,1,41.429-232a9.813,9.813,0,0,1-9.812,9.812H7.632l-.207-.033a11.48,11.48,0,0,0,.207-2.148A10.894,10.894,0,0,0,0-234.764" transform="translate(0 261.431)" fill="#a3fdf0"/>
          </g>
          <g id="g8471" transform="translate(1.029 23.098)">
            <path id="path8473" d="M-105.577-273.062a11.491,11.491,0,0,0,.207,2.148l-.207.033h-2.18a9.813,9.813,0,0,1-9.812-9.812,9.813,9.813,0,0,1,9.812-9.812,9.7,9.7,0,0,1,4.415,1.058c-.022-.349-.055-.7-.055-1.058a19.54,19.54,0,0,1,5.451-13.573v20.616a10.894,10.894,0,0,0-7.632,10.4" transform="translate(117.569 304.079)" fill="#a3fdf0"/>
          </g>
          <g id="g8475" transform="translate(47.363 9.415)">
            <path id="path8477" d="M-84.083-26.3A11.923,11.923,0,0,0-92-29.285a12.07,12.07,0,0,0-1.636.123,11.915,11.915,0,0,1,6.28,2.864,11.943,11.943,0,0,1,4.078,9.005,11.962,11.962,0,0,1-4.255,9.157c.188.575.359,1.158.494,1.756l.044-.011a12,12,0,0,0,6.988-10.9A11.943,11.943,0,0,0-84.083-26.3" transform="translate(93.634 29.285)" fill="#fbac42"/>
          </g>
          <g id="g8479" transform="translate(22.288 30.13)">
            <path id="path8481" d="M-43.191-119.59v-13.584h-3.271v13.584a10.894,10.894,0,0,1,7.631,10.4,11.491,11.491,0,0,1-.207,2.148,10.925,10.925,0,0,1-9.06,8.623,10.916,10.916,0,0,0,1.635.132,10.922,10.922,0,0,0,10.7-8.755,11.479,11.479,0,0,0,.207-2.148,10.894,10.894,0,0,0-7.632-10.4" transform="translate(48.097 133.174)" fill="#ea5172"/>
          </g>
          <g id="g8483" transform="translate(23.924 13.776)">
            <path id="path8485" d="M0-143.968H3.271v-16.353H0v16.353Z" transform="translate(0 160.321)" fill="#c5d1db"/>
          </g>
          <g id="g8487" transform="translate(33.262 17.047)">
            <path id="path8489" d="M-153.422-134.468a19.078,19.078,0,0,1,.491,4.35c0,.36-.033.709-.055,1.058a9.7,9.7,0,0,1,3.322-.992c0-.022,0-.043,0-.065a19.069,19.069,0,0,0-.491-4.35,19.61,19.61,0,0,0-15.972-15.013,18.852,18.852,0,0,0-3.162-.262c-.528,0-1.047.038-1.564.079.491.044.977.1,1.455.183a19.61,19.61,0,0,1,15.972,15.013" transform="translate(170.849 149.742)" fill="#1fdcc6"/>
          </g>
          <g id="g8491" transform="translate(55.54 36.671)">
            <path id="path8493" d="M-28.793,0a9.718,9.718,0,0,0-1.616.15,9.808,9.808,0,0,1,8.157,9.662,9.813,9.813,0,0,1-9.812,9.812h3.271a9.813,9.813,0,0,0,9.812-9.812A9.813,9.813,0,0,0-28.793,0" transform="translate(32.064 0)" fill="#1fdcc6"/>
          </g>
          <g id="g8495" transform="translate(27.194 17.047)">
            <path id="path8497" d="M-191.959-345.526h9.812a9.813,9.813,0,0,0,9.812-9.812,9.813,9.813,0,0,0-9.812-9.812,9.7,9.7,0,0,0-4.415,1.058c.022-.349.054-.7.054-1.058A19.069,19.069,0,0,0-187-369.5a19.61,19.61,0,0,0-15.972-15.013,18.853,18.853,0,0,0-3.162-.262,19.548,19.548,0,0,0-7.632,1.537" transform="translate(213.763 384.774)" fill="none" stroke="#231f20" stroke-miterlimit="10" stroke-width="2"/>
          </g>
          <g id="g8499" transform="translate(34.826 56.295)">
            <path id="path8501" d="M0,0H11.993" fill="none" stroke="#231f20" stroke-miterlimit="10" stroke-width="2"/>
          </g>
          <g id="g8503" transform="translate(1.029 23.098)">
            <path id="path8505" d="M-172.763,0a19.54,19.54,0,0,0-5.451,13.573c0,.36.033.709.055,1.058a9.7,9.7,0,0,0-4.415-1.058,9.813,9.813,0,0,0-9.812,9.812,9.813,9.813,0,0,0,9.812,9.812h2.181" transform="translate(192.388)" fill="none" stroke="#231f20" stroke-miterlimit="10" stroke-width="2"/>
          </g>
          <g id="g8507" transform="translate(13.022 13.776)">
            <path id="path8509" d="M-67.186-47.989V-23.5a10.894,10.894,0,0,0-7.632,10.4,11.48,11.48,0,0,0,.207,2.148A10.922,10.922,0,0,0-63.915-2.2a10.922,10.922,0,0,0,10.7-8.754,11.492,11.492,0,0,0,.207-2.148,10.894,10.894,0,0,0-7.631-10.4V-53.44h-6.541v3.271" transform="translate(74.817 53.44)" fill="none" stroke="#231f20" stroke-miterlimit="10" stroke-width="2"/>
          </g>
          <g id="g8511" transform="translate(20.653 30.13)">
            <path id="path8513" d="M0,0H6.541" fill="none" stroke="#231f20" stroke-miterlimit="10" stroke-width="2"/>
          </g>
          <g id="g8515" transform="translate(17.382 47.573)">
            <path id="path8517" d="M0-57.588a6.547,6.547,0,0,1,6.541-6.541" transform="translate(0 64.129)" fill="none" stroke="#fff" stroke-miterlimit="10" stroke-width="2"/>
          </g>
          <g id="g8519" transform="translate(30.465 39.942)">
            <path id="path8521" d="M0,0H2.18" fill="none" stroke="#231f20" stroke-miterlimit="10" stroke-width="2"/>
          </g>
          <g id="g8523" transform="translate(34.826 39.942)">
            <path id="path8525" d="M0,0H2.18" fill="none" stroke="#fff" stroke-miterlimit="10" stroke-width="2"/>
          </g>
          <g id="g8527" transform="translate(30.465 35.581)">
            <path id="path8529" d="M0,0H9.812" fill="none" stroke="#231f20" stroke-miterlimit="10" stroke-width="2"/>
          </g>
          <g id="g8531" transform="translate(37.824 9.416)">
            <path id="path8533" d="M0-67.184Q.164-67.61.36-68a11.787,11.787,0,0,1,2.9-3.827,11.9,11.9,0,0,1,7.915-2.987,11.923,11.923,0,0,1,7.915,2.987,11.942,11.942,0,0,1,4.077,9.005,12,12,0,0,1-6.988,10.9" transform="translate(0 74.816)" fill="none" stroke="#231f20" stroke-miterlimit="10" stroke-width="2"/>
          </g>
          <g id="g8535" transform="translate(48.999 3.964)">
            <path id="path8537" d="M0-47.99v-5.451" transform="translate(0 53.441)" fill="none" stroke="#231f20" stroke-miterlimit="10" stroke-width="2"/>
          </g>
          <g id="g8539" transform="translate(60.991 20.318)">
            <path id="path8541" d="M0,0H6.541" fill="none" stroke="#231f20" stroke-miterlimit="10" stroke-width="2"/>
          </g>
          <g id="g8543" transform="translate(56.631 8.325)">
            <path id="path8545" d="M0-38.391l.284-.283,4.077-4.077" transform="translate(0 42.752)" fill="none" stroke="#231f20" stroke-miterlimit="10" stroke-width="2"/>
          </g>
          <g id="g8547" transform="translate(37.007 8.325)">
            <path id="path8549" d="M-38.391-38.391l-.283-.283-4.077-4.077" transform="translate(42.752 42.752)" fill="none" stroke="#231f20" stroke-miterlimit="10" stroke-width="2"/>
          </g>
          <g id="g8551" transform="translate(48.999 13.776)">
            <path id="path8553" d="M0,0A7.626,7.626,0,0,1,7.631,7.631" fill="none" stroke="#fff" stroke-miterlimit="10" stroke-width="2"/>
          </g>
        </g>
      </g>
    </g>
  </g>
</svg>
