<svg xmlns="http://www.w3.org/2000/svg" xmlns:xlink="http://www.w3.org/1999/xlink" width="117.999" height="118" viewBox="0 0 117.999 118">
  <defs>
    <filter id="Trazado_874925" x="0" y="0" width="117.999" height="118" filterUnits="userSpaceOnUse">
      <feOffset dy="3" input="SourceAlpha"/>
      <feGaussianBlur stdDeviation="3" result="blur"/>
      <feFlood flood-opacity="0.161"/>
      <feComposite operator="in" in2="blur"/>
      <feComposite in="SourceGraphic"/>
    </filter>
  </defs>
  <g id="Grupo_1200194" data-name="Grupo 1200194" transform="translate(-2108.781 514.037)">
    <g id="Grupo_1198819" data-name="Grupo 1198819" transform="translate(1309.281 -3025.194)">
      <g id="Grupo_1111316" data-name="Grupo 1111316" transform="translate(808.5 2517.157)">
        <g id="Grupo_1109835" data-name="Grupo 1109835" transform="translate(0 0)">
          <g id="Grupo_1107913" data-name="Grupo 1107913" transform="translate(0 0)">
            <g transform="matrix(1, 0, 0, 1, -9, -6)" filter="url(#Trazado_874925)">
              <g id="Trazado_874925-2" data-name="Trazado 874925" transform="translate(9 6)" fill="#9ad354" opacity="0.859">
                <path d="M 49.99972534179688 98.4998779296875 C 43.45164108276367 98.4998779296875 37.10022354125977 97.21776580810547 31.12189674377441 94.68914794921875 C 25.34676742553711 92.24647521972656 20.15985298156738 88.74925994873047 15.70523929595947 84.29464721679688 C 11.25062561035156 79.84004974365234 7.753411293029785 74.65313720703125 5.310725212097168 68.87800598144531 C 2.782111167907715 62.89969253540039 1.499996781349182 56.54829406738281 1.499996781349182 50.00022125244141 C 1.499996781349182 43.45157623291016 2.782111167907715 37.10017776489258 5.310725212097168 31.12186431884766 C 7.753411293029785 25.34673500061035 11.25062561035156 20.15983581542969 15.70523929595947 15.70522117614746 C 20.15985298156738 11.25062084197998 25.34676742553711 7.753406524658203 31.12189674377441 5.31073522567749 C 37.10022354125977 2.782120943069458 43.45164108276367 1.500006556510925 49.99972534179688 1.500006556510925 C 56.54780960083008 1.500006556510925 62.89922714233398 2.782120943069458 68.87755584716797 5.31073522567749 C 74.65267944335938 7.753406524658203 79.839599609375 11.25062084197998 84.29421234130859 15.70522117614746 C 88.74882507324219 20.15983581542969 92.24604034423828 25.34673500061035 94.68872833251953 31.12186431884766 C 97.21733856201172 37.10017776489258 98.49945068359375 43.45157623291016 98.49945068359375 49.99964904785156 C 98.49945068359375 56.54829406738281 97.21733856201172 62.89969253540039 94.68872833251953 68.87800598144531 C 92.24604034423828 74.65313720703125 88.74882507324219 79.84004974365234 84.29421234130859 84.29464721679688 C 79.839599609375 88.74925994873047 74.65267944335938 92.24647521972656 68.87755584716797 94.68914794921875 C 62.89922714233398 97.21776580810547 56.54780960083008 98.4998779296875 49.99972534179688 98.4998779296875 Z" stroke="none"/>
                <path d="M 49.99972534179688 3 C 43.65348052978516 3 37.49866485595703 4.242240905761719 31.70623016357422 6.692230224609375 C 26.10989379882812 9.059272766113281 21.08323669433594 12.44853210449219 16.76589202880859 16.76587677001953 C 12.44855499267578 21.08321380615234 9.059295654296875 26.10985565185547 6.692230224609375 31.70618438720703 C 4.24224853515625 37.49859619140625 3 43.65341186523438 3 50.00022888183594 C 3 56.34645843505859 4.24224853515625 62.50127410888672 6.692230224609375 68.29368591308594 C 9.059295654296875 73.8900146484375 12.44855499267578 78.91665649414062 16.76589202880859 83.23399353027344 C 21.08323669433594 87.55132293701172 26.10989379882812 90.94059753417969 31.70623016357422 93.30764007568359 C 37.49866485595703 95.75762939453125 43.65348052978516 96.99987030029297 49.99972534179688 96.99987030029297 C 56.34597015380859 96.99987030029297 62.50078582763672 95.75762939453125 68.293212890625 93.30764007568359 C 73.88955688476562 90.94059753417969 78.91621398925781 87.55132293701172 83.23355865478516 83.23399353027344 C 87.55089569091797 78.91665649414062 90.94015502929688 73.8900146484375 93.30722045898438 68.29368591308594 C 95.7572021484375 62.50127410888672 96.99945068359375 56.34645843505859 96.99945068359375 49.99964141845703 C 96.99945068359375 43.65341186523438 95.7572021484375 37.49859619140625 93.30722045898438 31.70618438720703 C 90.94015502929688 26.10985565185547 87.55089569091797 21.08321380615234 83.23355865478516 16.76587677001953 C 78.91621398925781 12.44853210449219 73.88955688476562 9.059272766113281 68.293212890625 6.692230224609375 C 62.50078582763672 4.242240905761719 56.34597015380859 3 49.99972534179688 3 M 49.99972534179688 0 C 77.61381530761719 0 99.99945068359375 22.38559722900391 99.99945068359375 49.99964141845703 L 99.99945068359375 50.00022888183594 C 99.99945068359375 77.6142578125 77.61381530761719 99.99987030029297 49.99972534179688 99.99987030029297 C 22.38563537597656 99.99987030029297 0 77.6142578125 0 50.00022888183594 L 0 49.99964141845703 C 0 22.38559722900391 22.38563537597656 0 49.99972534179688 0 Z" stroke="none" fill="#fff"/>
              </g>
            </g>
            <g id="Trazado_874923" data-name="Trazado 874923" transform="translate(0 0)" fill="none">
              <path d="M50,0a50,50,0,0,1,50,50h0A50,50,0,0,1,0,50H0A50,50,0,0,1,50,0Z" stroke="none"/>
              <path d="M 49.99972534179688 3 C 43.65348052978516 3 37.49866485595703 4.242240905761719 31.70623016357422 6.692230224609375 C 26.10989379882812 9.059272766113281 21.08323669433594 12.44853210449219 16.76589202880859 16.76587677001953 C 12.44855499267578 21.08321380615234 9.059295654296875 26.10985565185547 6.692230224609375 31.70618438720703 C 4.24224853515625 37.49859619140625 3 43.65341186523438 3 50.00022888183594 C 3 56.34645843505859 4.24224853515625 62.50127410888672 6.692230224609375 68.29368591308594 C 9.059295654296875 73.8900146484375 12.44855499267578 78.91665649414062 16.76589202880859 83.23399353027344 C 21.08323669433594 87.55132293701172 26.10989379882812 90.94059753417969 31.70623016357422 93.30764007568359 C 37.49866485595703 95.75762939453125 43.65348052978516 96.99987030029297 49.99972534179688 96.99987030029297 C 56.34597015380859 96.99987030029297 62.50078582763672 95.75762939453125 68.293212890625 93.30764007568359 C 73.88955688476562 90.94059753417969 78.91621398925781 87.55132293701172 83.23355865478516 83.23399353027344 C 87.55089569091797 78.91665649414062 90.94015502929688 73.8900146484375 93.30722045898438 68.29368591308594 C 95.7572021484375 62.50127410888672 96.99945068359375 56.34645843505859 96.99945068359375 49.99964141845703 C 96.99945068359375 43.65341186523438 95.7572021484375 37.49859619140625 93.30722045898438 31.70618438720703 C 90.94015502929688 26.10985565185547 87.55089569091797 21.08321380615234 83.23355865478516 16.76587677001953 C 78.91621398925781 12.44853210449219 73.88955688476562 9.059272766113281 68.293212890625 6.692230224609375 C 62.50078582763672 4.242240905761719 56.34597015380859 3 49.99972534179688 3 M 49.99972534179688 0 C 77.61381530761719 0 99.99945068359375 22.38559722900391 99.99945068359375 49.99964141845703 L 99.99945068359375 50.00022888183594 C 99.99945068359375 77.6142578125 77.61381530761719 99.99987030029297 49.99972534179688 99.99987030029297 C 22.38563537597656 99.99987030029297 0 77.6142578125 0 50.00022888183594 L 0 49.99964141845703 C 0 22.38559722900391 22.38563537597656 0 49.99972534179688 0 Z" stroke="none" fill="#fff"/>
            </g>
          </g>
        </g>
      </g>
    </g>
    <g id="earthquake_1284637" transform="translate(2136.736 -489.081)">
      <path id="Trazado_1034439" data-name="Trazado 1034439" d="M8,376H68.085v14.02H8Zm0,0" transform="translate(-6.999 -328.933)" fill="#656665"/>
      <path id="Trazado_1034440" data-name="Trazado 1034440" d="M40.046,376l2,4.006-3,4.006,2,5.007-7.01-4.006,3-4.006-3-5.007H8v14.02H68.085V376Zm0,0" transform="translate(-6.999 -328.933)" fill="#bc8f6f"/>
      <path id="Trazado_1034441" data-name="Trazado 1034441" d="M136,232h28.04v18.026H136Zm0,0" transform="translate(-118.976 -202.959)" fill="#bab8b9"/>
      <path id="Trazado_1034442" data-name="Trazado 1034442" d="M136,232h24.034v18.026H136Zm0,0" transform="translate(-118.976 -202.959)" fill="#d9d7d8"/>
      <path id="Trazado_1034443" data-name="Trazado 1034443" d="M208,306.014V296h10.014v10.014" transform="translate(-181.963 -258.947)" fill="#dcb29c"/>
      <path id="Trazado_1034444" data-name="Trazado 1034444" d="M208,306.014V296h8.011v10.014" transform="translate(-181.963 -258.947)" fill="#f3c6b0"/>
      <path id="Trazado_1034445" data-name="Trazado 1034445" d="M328,130.014V120h6.009v10.014" transform="translate(-286.942 -104.979)" fill="#bc8f6f"/>
      <path id="Trazado_1034446" data-name="Trazado 1034446" d="M328,136h4.006v8.011H328Zm0,0" transform="translate(-286.942 -118.976)" fill="#cb9e78"/>
      <path id="Trazado_1034447" data-name="Trazado 1034447" d="M88,106.026,108.029,88l20.029,18.026Zm0,0" transform="translate(-76.984 -76.984)" fill="#bc8f6f"/>
      <path id="Trazado_1034448" data-name="Trazado 1034448" d="M88,118.621h36.051L106.026,102.4Zm0,0" transform="translate(-76.984 -89.58)" fill="#cb9e78"/>
      <path id="Trazado_1034449" data-name="Trazado 1034449" d="M363,18.014a3,3,0,1,1,1.02-5.818c0-.065-.019-.125-.019-.19a4.006,4.006,0,1,1,8.011,0c0,.065-.016.125-.019.19a3,3,0,1,1,1.02,5.818Zm0,0" transform="translate(-314.936 -6.999)" fill="#85b6cf"/>
      <path id="Trazado_1034450" data-name="Trazado 1034450" d="M374.02,16a3,3,0,0,0-2-2.82.119.119,0,0,0-.02.006s0-.008,0-.011a2.932,2.932,0,0,0-.983-.179,2.98,2.98,0,0,0-1.021.19c0-.065.019-.125.019-.19a3.1,3.1,0,1,0-6.009,0c0,.065.016.125.019.19a2.816,2.816,0,0,0-2-.012s0,.008,0,.011a.154.154,0,0,1-.02-.006A3,3,0,0,0,363,19h8.011a3,3,0,0,0,3-3Zm0,0" transform="translate(-314.936 -7.986)" fill="#94cce7"/>
      <path id="Trazado_1034451" data-name="Trazado 1034451" d="M11,18.014a3,3,0,1,1,1.02-5.818c0-.065-.019-.125-.019-.19a4.006,4.006,0,1,1,8.011,0c0,.065-.016.125-.019.19a3,3,0,1,1,1.02,5.818Zm0,0" transform="translate(-6.999 -6.999)" fill="#85b6cf"/>
      <path id="Trazado_1034452" data-name="Trazado 1034452" d="M22.02,16a3,3,0,0,0-2-2.82.12.12,0,0,0-.02.006s0-.008,0-.011a2.932,2.932,0,0,0-.983-.179,2.98,2.98,0,0,0-1.02.19c0-.065.019-.125.019-.19a4,4,0,0,0-3-3.864,4,4,0,0,0-3,3.864c0,.065.016.125.019.19a2.816,2.816,0,0,0-2-.012s0,.008,0,.011a.155.155,0,0,1-.02-.006A3,3,0,0,0,11,19h8.011a3,3,0,0,0,3-3Zm0,0" transform="translate(-6.999 -7.986)" fill="#94cce7"/>
      <path id="Trazado_1034453" data-name="Trazado 1034453" d="M121.056,100.02H81a1,1,0,0,1-.67-1.747l20.029-18.026a1,1,0,0,1,1.34,0l20.029,18.026a1,1,0,0,1-.67,1.747Zm-37.447-2h34.838L101.028,82.34Zm0,0" transform="translate(-69.984 -69.977)"/>
      <path id="Trazado_1034454" data-name="Trazado 1034454" d="M328.011,123.016h-2V114H322v4.006h-2V113a1,1,0,0,1,1-1h6.009a1,1,0,0,1,1,1Zm0,0" transform="translate(-279.943 -97.98)"/>
      <path id="Trazado_1034455" data-name="Trazado 1034455" d="M128,232h2v18.026h-2Zm0,0" transform="translate(-111.977 -202.959)"/>
      <path id="Trazado_1034456" data-name="Trazado 1034456" d="M352,232h2v18.026h-2Zm0,0" transform="translate(-307.937 -202.959)"/>
      <path id="Trazado_1034457" data-name="Trazado 1034457" d="M212.017,299.016h-2V290H202v9.013h-2V289a1,1,0,0,1,1-1h10.014a1,1,0,0,1,1,1Zm0,0" transform="translate(-174.964 -251.949)"/>
      <path id="Trazado_1034458" data-name="Trazado 1034458" d="M232,336h2v2h-2Zm0,0" transform="translate(-202.959 -293.94)"/>
      <path id="Trazado_1034459" data-name="Trazado 1034459" d="M14.02,12.017H4.006a4.006,4.006,0,1,1,.1-8.01,5.008,5.008,0,0,1,9.814,0,4.006,4.006,0,1,1,.1,8.01ZM4.006,6.009a2,2,0,1,0,0,4.006H14.02a2,2,0,0,0,0-4.006,1.98,1.98,0,0,0-.679.129A1,1,0,0,1,12,5.15c0-.032.014-.148.018-.18a3,3,0,0,0-6.009.037c0,.031.017.112.018.144a1,1,0,0,1-1.342.987,1.959,1.959,0,0,0-.679-.13Zm0,0"/>
      <path id="Trazado_1034460" data-name="Trazado 1034460" d="M366.02,12.017H356.006a4.006,4.006,0,1,1,.1-8.01,5.008,5.008,0,0,1,9.814,0,4.006,4.006,0,1,1,.1,8.01ZM356.006,6.009a2,2,0,0,0,0,4.006H366.02a2,2,0,0,0,0-4.006,1.98,1.98,0,0,0-.679.129A1,1,0,0,1,364,5.15c0-.032.014-.148.018-.18a3,3,0,0,0-6.009.037c0,.031.017.112.018.144a1,1,0,0,1-1.342.987,1.959,1.959,0,0,0-.679-.13Zm0,0" transform="translate(-307.937)"/>
      <path id="Trazado_1034461" data-name="Trazado 1034461" d="M61.087,384.023H1a1,1,0,0,1-1-1V369a1,1,0,0,1,1-1H27.038a1,1,0,0,1,.858.486l3,5.007a1,1,0,0,1-.058,1.117l-2.323,3.1,3.532,2.018-.937-2.34a1,1,0,0,1,.13-.974l2.633-3.51L32.15,369.45a1,1,0,0,1,.9-1.45h28.04a1,1,0,0,1,1,1v14.02A1,1,0,0,1,61.087,384.023Zm-26.037-2H60.085V370H34.667l1.278,2.557a1,1,0,0,1-.1,1.048l-2.666,3.555,1.795,4.484a1,1,0,0,1,.072.373ZM2,382.02H32.029l-5.488-3.136a1,1,0,0,1-.3-1.471l2.6-3.467L26.472,370H2Zm0,0" transform="translate(0 -321.934)"/>
      <path id="Trazado_1034462" data-name="Trazado 1034462" d="M398.087,306.281h-2v-6.255l-6.284-1.8.551-1.926,7.01,2a1,1,0,0,1,.726.963Zm0,0" transform="translate(-341.006 -259.214)"/>
      <path id="Trazado_1034463" data-name="Trazado 1034463" d="M416.16,270.834l1.964-.393,1,5.007-1.964.393Zm0,0" transform="translate(-364.066 -236.588)"/>
      <path id="Trazado_1034464" data-name="Trazado 1034464" d="M435.526,219.537l-1.926-.551,1.9-6.668-2.864-6.682,1.841-.789,3,7.01a1,1,0,0,1,.042.67Zm0,0" transform="translate(-378.484 -179.205)"/>
      <path id="Trazado_1034465" data-name="Trazado 1034465" d="M457.621,231.208l3.005-4.005,1.6,1.2-3.005,4.005Zm0,0" transform="translate(-400.337 -198.762)"/>
      <path id="Trazado_1034466" data-name="Trazado 1034466" d="M42,306.288H40v-7.01a1,1,0,0,1,.726-.962l7.01-2,.551,1.926L42,300.033Zm0,0" transform="translate(-34.993 -259.221)"/>
      <path id="Trazado_1034467" data-name="Trazado 1034467" d="M56.137,275.445l1-5.007,1.964.393-1,5.007Zm0,0" transform="translate(-49.11 -236.585)"/>
      <path id="Trazado_1034468" data-name="Trazado 1034468" d="M26.047,219.537l-2-7.01a1.008,1.008,0,0,1,.042-.67l3-7.01,1.841.789-2.864,6.682,1.9,6.668Zm0,0" transform="translate(-21.001 -179.205)"/>
      <path id="Trazado_1034469" data-name="Trazado 1034469" d="M1.6,228.4l1.6-1.2,3,4.006-1.6,1.2Zm0,0" transform="translate(-1.401 -198.759)"/>
    </g>
  </g>
</svg>
