<svg xmlns="http://www.w3.org/2000/svg" xmlns:xlink="http://www.w3.org/1999/xlink" width="118" height="118" viewBox="0 0 118 118">
  <defs>
    <filter id="Trazado_874925" x="0" y="0" width="118" height="118" filterUnits="userSpaceOnUse">
      <feOffset dy="3" input="SourceAlpha"/>
      <feGaussianBlur stdDeviation="3" result="blur"/>
      <feFlood flood-opacity="0.161"/>
      <feComposite operator="in" in2="blur"/>
      <feComposite in="SourceGraphic"/>
    </filter>
    <clipPath id="clip-path">
      <path id="path582" d="M0-682.665H69.158v69.158H0Z" transform="translate(0 682.665)"/>
    </clipPath>
  </defs>
  <g id="Grupo_1200195" data-name="Grupo 1200195" transform="translate(-2423.781 514.037)">
    <g id="Grupo_1198820" data-name="Grupo 1198820" transform="translate(1624.281 -3025.194)">
      <g id="Grupo_1111316" data-name="Grupo 1111316" transform="translate(808.5 2517.157)">
        <g id="Grupo_1109835" data-name="Grupo 1109835" transform="translate(0 0)">
          <g id="Grupo_1107913" data-name="Grupo 1107913" transform="translate(0 0)">
            <g transform="matrix(1, 0, 0, 1, -9, -6)" filter="url(#Trazado_874925)">
              <g id="Trazado_874925-2" data-name="Trazado 874925" transform="translate(9 6)" fill="#9ad354" opacity="0.859">
                <path d="M 49.99972534179688 98.4998779296875 C 43.45164108276367 98.4998779296875 37.10022354125977 97.21776580810547 31.12189674377441 94.68914794921875 C 25.34676742553711 92.24647521972656 20.15985298156738 88.74925994873047 15.70523929595947 84.29464721679688 C 11.25062561035156 79.84004974365234 7.753411293029785 74.65313720703125 5.310725212097168 68.87800598144531 C 2.782111167907715 62.89969253540039 1.499996781349182 56.54829406738281 1.499996781349182 50.00022125244141 C 1.499996781349182 43.45157623291016 2.782111167907715 37.10017776489258 5.310725212097168 31.12186431884766 C 7.753411293029785 25.34673500061035 11.25062561035156 20.15983581542969 15.70523929595947 15.70522117614746 C 20.15985298156738 11.25062084197998 25.34676742553711 7.753406524658203 31.12189674377441 5.31073522567749 C 37.10022354125977 2.782120943069458 43.45164108276367 1.500006556510925 49.99972534179688 1.500006556510925 C 56.54780960083008 1.500006556510925 62.89922714233398 2.782120943069458 68.87755584716797 5.31073522567749 C 74.65267944335938 7.753406524658203 79.839599609375 11.25062084197998 84.29421234130859 15.70522117614746 C 88.74882507324219 20.15983581542969 92.24604034423828 25.34673500061035 94.68872833251953 31.12186431884766 C 97.21733856201172 37.10017776489258 98.49945068359375 43.45157623291016 98.49945068359375 49.99964904785156 C 98.49945068359375 56.54829406738281 97.21733856201172 62.89969253540039 94.68872833251953 68.87800598144531 C 92.24604034423828 74.65313720703125 88.74882507324219 79.84004974365234 84.29421234130859 84.29464721679688 C 79.839599609375 88.74925994873047 74.65267944335938 92.24647521972656 68.87755584716797 94.68914794921875 C 62.89922714233398 97.21776580810547 56.54780960083008 98.4998779296875 49.99972534179688 98.4998779296875 Z" stroke="none"/>
                <path d="M 49.99972534179688 3 C 43.65348052978516 3 37.49866485595703 4.242240905761719 31.70623016357422 6.692230224609375 C 26.10989379882812 9.059272766113281 21.08323669433594 12.44853210449219 16.76589202880859 16.76587677001953 C 12.44855499267578 21.08321380615234 9.059295654296875 26.10985565185547 6.692230224609375 31.70618438720703 C 4.24224853515625 37.49859619140625 3 43.65341186523438 3 50.00022888183594 C 3 56.34645843505859 4.24224853515625 62.50127410888672 6.692230224609375 68.29368591308594 C 9.059295654296875 73.8900146484375 12.44855499267578 78.91665649414062 16.76589202880859 83.23399353027344 C 21.08323669433594 87.55132293701172 26.10989379882812 90.94059753417969 31.70623016357422 93.30764007568359 C 37.49866485595703 95.75762939453125 43.65348052978516 96.99987030029297 49.99972534179688 96.99987030029297 C 56.34597015380859 96.99987030029297 62.50078582763672 95.75762939453125 68.293212890625 93.30764007568359 C 73.88955688476562 90.94059753417969 78.91621398925781 87.55132293701172 83.23355865478516 83.23399353027344 C 87.55089569091797 78.91665649414062 90.94015502929688 73.8900146484375 93.30722045898438 68.29368591308594 C 95.7572021484375 62.50127410888672 96.99945068359375 56.34645843505859 96.99945068359375 49.99964141845703 C 96.99945068359375 43.65341186523438 95.7572021484375 37.49859619140625 93.30722045898438 31.70618438720703 C 90.94015502929688 26.10985565185547 87.55089569091797 21.08321380615234 83.23355865478516 16.76587677001953 C 78.91621398925781 12.44853210449219 73.88955688476562 9.059272766113281 68.293212890625 6.692230224609375 C 62.50078582763672 4.242240905761719 56.34597015380859 3 49.99972534179688 3 M 49.99972534179688 0 C 77.61381530761719 0 99.99945068359375 22.38559722900391 99.99945068359375 49.99964141845703 L 99.99945068359375 50.00022888183594 C 99.99945068359375 77.6142578125 77.61381530761719 99.99987030029297 49.99972534179688 99.99987030029297 C 22.38563537597656 99.99987030029297 0 77.6142578125 0 50.00022888183594 L 0 49.99964141845703 C 0 22.38559722900391 22.38563537597656 0 49.99972534179688 0 Z" stroke="none" fill="#fff"/>
              </g>
            </g>
            <g id="Trazado_874923" data-name="Trazado 874923" transform="translate(0 0)" fill="none">
              <path d="M50,0a50,50,0,0,1,50,50h0A50,50,0,0,1,0,50H0A50,50,0,0,1,50,0Z" stroke="none"/>
              <path d="M 49.99972534179688 3 C 43.65348052978516 3 37.49866485595703 4.242240905761719 31.70623016357422 6.692230224609375 C 26.10989379882812 9.059272766113281 21.08323669433594 12.44853210449219 16.76589202880859 16.76587677001953 C 12.44855499267578 21.08321380615234 9.059295654296875 26.10985565185547 6.692230224609375 31.70618438720703 C 4.24224853515625 37.49859619140625 3 43.65341186523438 3 50.00022888183594 C 3 56.34645843505859 4.24224853515625 62.50127410888672 6.692230224609375 68.29368591308594 C 9.059295654296875 73.8900146484375 12.44855499267578 78.91665649414062 16.76589202880859 83.23399353027344 C 21.08323669433594 87.55132293701172 26.10989379882812 90.94059753417969 31.70623016357422 93.30764007568359 C 37.49866485595703 95.75762939453125 43.65348052978516 96.99987030029297 49.99972534179688 96.99987030029297 C 56.34597015380859 96.99987030029297 62.50078582763672 95.75762939453125 68.293212890625 93.30764007568359 C 73.88955688476562 90.94059753417969 78.91621398925781 87.55132293701172 83.23355865478516 83.23399353027344 C 87.55089569091797 78.91665649414062 90.94015502929688 73.8900146484375 93.30722045898438 68.29368591308594 C 95.7572021484375 62.50127410888672 96.99945068359375 56.34645843505859 96.99945068359375 49.99964141845703 C 96.99945068359375 43.65341186523438 95.7572021484375 37.49859619140625 93.30722045898438 31.70618438720703 C 90.94015502929688 26.10985565185547 87.55089569091797 21.08321380615234 83.23355865478516 16.76587677001953 C 78.91621398925781 12.44853210449219 73.88955688476562 9.059272766113281 68.293212890625 6.692230224609375 C 62.50078582763672 4.242240905761719 56.34597015380859 3 49.99972534179688 3 M 49.99972534179688 0 C 77.61381530761719 0 99.99945068359375 22.38559722900391 99.99945068359375 49.99964141845703 L 99.99945068359375 50.00022888183594 C 99.99945068359375 77.6142578125 77.61381530761719 99.99987030029297 49.99972534179688 99.99987030029297 C 22.38563537597656 99.99987030029297 0 77.6142578125 0 50.00022888183594 L 0 49.99964141845703 C 0 22.38559722900391 22.38563537597656 0 49.99972534179688 0 Z" stroke="none" fill="#fff"/>
            </g>
          </g>
        </g>
      </g>
    </g>
    <g id="g576" transform="translate(2448.054 190.049)">
      <g id="g578" transform="translate(0 -682.665)">
        <g id="g580" clip-path="url(#clip-path)">
          <g id="g586" transform="translate(55.474 26.943)">
            <path id="path588" d="M0-22.461l2.911-2.532s1.6,3.439-1.1,5.784" transform="translate(0 24.993)" fill="#fcb143"/>
          </g>
          <g id="g590" transform="translate(5.479 43.846)">
            <path id="path592" d="M-113.91-115.49l-11.756,5.077s-3.473-10.419,2.011-18.1l9.557,3.758" transform="translate(126.75 128.509)" fill="#b6c1cc"/>
          </g>
          <g id="g594" transform="translate(17.551 26.378)">
            <path id="path596" d="M-328.539-140.706a9.028,9.028,0,0,1-2.389,1.5,4.318,4.318,0,0,0-2.529,4.86,16.267,16.267,0,0,1,.34,3.317,16.188,16.188,0,0,1-5.407,12.094h0a16.164,16.164,0,0,1-11.011,4.133,16.278,16.278,0,0,1-16.035-15.92,16.207,16.207,0,0,1,.578-4.62,16.139,16.139,0,0,0,7.21,1.687,16.2,16.2,0,0,0,12.975-6.482,7.549,7.549,0,0,0,1.418-5.831,9.04,9.04,0,0,1,3.159-8.549,9.078,9.078,0,0,1,8.962-1.467h0a8.964,8.964,0,0,1,3.527,2.411,9.047,9.047,0,0,1-.8,12.866" transform="translate(365.574 156.567)" fill="#e5ecf1"/>
          </g>
          <g id="g598" transform="translate(17.551 26.378)">
            <path id="path600" d="M-304.335-5.184C-309.6-6.271-313.3.769-312.419,6.051s-7.744,9.681-7.744,9.681l-9.308,8.519s1.807,9.138,17.878,7.614A16.164,16.164,0,0,1-322.6,36a16.278,16.278,0,0,1-16.035-15.92,16.208,16.208,0,0,1,.578-4.62,16.138,16.138,0,0,0,7.21,1.687,16.2,16.2,0,0,0,12.975-6.482,7.55,7.55,0,0,0,1.418-5.831A9.04,9.04,0,0,1-313.3-3.717a9.078,9.078,0,0,1,8.962-1.467" transform="translate(338.641 5.768)" fill="#b6c1cc"/>
          </g>
          <g id="g602" transform="translate(14.677 23.836)">
            <path id="path604" d="M-215.837-272.357h0a10.466,10.466,0,0,1-14.8,0l-8.539-8.539a3.371,3.371,0,0,1-.99-2.392,3.371,3.371,0,0,1,.99-2.391,3.382,3.382,0,0,1,4.782,0l-2.685-2.685a3.366,3.366,0,0,1-.99-2.39,3.372,3.372,0,0,1,.99-2.392,3.384,3.384,0,0,1,4.783,0l-4.087-4.087a3.444,3.444,0,0,1-.009-4.881,3.382,3.382,0,0,1,4.737.044l9.333,9.333c5.026,5.027,7.949,14.986,6.487,20.379" transform="translate(240.167 303.058)" fill="#e5ecf1"/>
          </g>
          <g id="g606" transform="translate(14.677 23.836)">
            <path id="path608" d="M-172.7-296.8a10.46,10.46,0,0,1-9.939-2.754l-8.539-8.539a3.371,3.371,0,0,1-.99-2.391,3.371,3.371,0,0,1,.99-2.391,3.382,3.382,0,0,1,4.782,0l-2.685-2.685a3.366,3.366,0,0,1-.99-2.39,3.371,3.371,0,0,1,.99-2.391,3.384,3.384,0,0,1,4.783,0l-4.087-4.087a3.444,3.444,0,0,1-.009-4.881,3.382,3.382,0,0,1,4.737.044l9.333,9.332c3.74,3.741,6.315,10.213,6.786,15.5" transform="translate(192.168 330.255)" fill="none" stroke="#000" stroke-linecap="round" stroke-linejoin="round" stroke-miterlimit="10" stroke-width="2"/>
          </g>
          <g id="g610" transform="translate(22.547 33.75)">
            <path id="path612" d="M0,0,6.909,6.909" fill="none" stroke="#000" stroke-linecap="round" stroke-linejoin="round" stroke-miterlimit="10" stroke-width="2"/>
          </g>
          <g id="g614" transform="translate(20.449 41.216)">
            <path id="path616" d="M0,0,2.986,2.986" fill="none" stroke="#000" stroke-linecap="round" stroke-linejoin="round" stroke-miterlimit="10" stroke-width="2"/>
          </g>
          <g id="g618" transform="translate(55.474 26.943)">
            <path id="path620" d="M0-22.461l2.911-2.532s1.6,3.439-1.1,5.784" transform="translate(0 24.993)" fill="none" stroke="#000" stroke-linecap="round" stroke-linejoin="round" stroke-miterlimit="10" stroke-width="2"/>
          </g>
          <g id="g622" transform="translate(5.479 43.847)">
            <path id="path624" d="M-99.67-28.4l-8.14-3.2c-5.484,7.677-2.011,18.1-2.011,18.1l11.757-5.078" transform="translate(110.906 31.596)" fill="none" stroke="#000" stroke-linecap="round" stroke-linejoin="round" stroke-miterlimit="10" stroke-width="2"/>
          </g>
          <g id="g626" transform="translate(29.059 8.528)">
            <path id="path628" d="M-307.117-225.089s-11.476-21.647-34.62-25.373" transform="translate(341.737 250.462)" fill="none" stroke="#000" stroke-linecap="round" stroke-linejoin="round" stroke-miterlimit="10" stroke-width="2"/>
          </g>
          <g id="g630" transform="translate(55.197 12.696)">
            <path id="path632" d="M-.622-50.913A7.926,7.926,0,0,0,1.5-44.394a7.925,7.925,0,0,0,3.748-5.739,7.926,7.926,0,0,0-2.118-6.519A7.926,7.926,0,0,0-.622-50.913" transform="translate(0.692 56.652)" fill="#49cb8b"/>
          </g>
          <g id="g634" transform="translate(55.197 12.696)">
            <path id="path636" d="M-.622-50.913A7.926,7.926,0,0,0,1.5-44.394a7.925,7.925,0,0,0,3.748-5.739,7.926,7.926,0,0,0-2.118-6.519A7.926,7.926,0,0,0-.622-50.913Z" transform="translate(0.692 56.652)" fill="none" stroke="#000" stroke-linecap="round" stroke-linejoin="round" stroke-miterlimit="10" stroke-width="2"/>
          </g>
          <g id="g638" transform="translate(36.661 1.013)">
            <path id="path640" d="M-6.1-60.784A7.926,7.926,0,0,0-.881-56.338a7.926,7.926,0,0,0,.19-6.852,7.926,7.926,0,0,0-5.217-4.446,7.927,7.927,0,0,0-.19,6.852" transform="translate(6.786 67.636)" fill="#49cb8b"/>
          </g>
          <g id="g642" transform="translate(36.66 1.013)">
            <path id="path644" d="M-59.595-76.832a7.94,7.94,0,0,1-.813,2.637,7.924,7.924,0,0,1-5.217-4.445,7.923,7.923,0,0,1,.189-6.852,7.927,7.927,0,0,1,5.217,4.445c.031.069.061.139.089.208" transform="translate(66.313 85.493)" fill="none" stroke="#000" stroke-linecap="round" stroke-linejoin="round" stroke-miterlimit="10" stroke-width="2"/>
          </g>
          <g id="g646" transform="translate(38.639 17.154)">
            <path id="path648" d="M-35-9.009A7.927,7.927,0,0,0-38.947-3.4a7.927,7.927,0,0,0,6.84-.443,7.927,7.927,0,0,0,3.945-5.605A7.926,7.926,0,0,0-35-9.009" transform="translate(38.947 10.024)" fill="#49cb8b"/>
          </g>
          <g id="g650" transform="translate(38.639 17.154)">
            <path id="path652" d="M-35-9.009A7.927,7.927,0,0,0-38.947-3.4a7.927,7.927,0,0,0,6.84-.443,7.927,7.927,0,0,0,3.945-5.605A7.926,7.926,0,0,0-35-9.009Z" transform="translate(38.947 10.024)" fill="none" stroke="#000" stroke-linecap="round" stroke-linejoin="round" stroke-miterlimit="10" stroke-width="2"/>
          </g>
          <g id="g654" transform="translate(25.576 10.014)">
            <path id="path656" d="M-23.288-18.1A7.926,7.926,0,0,0-25.9-11.762a7.926,7.926,0,0,0,6.574-1.94,7.926,7.926,0,0,0,2.613-6.337,7.926,7.926,0,0,0-6.574,1.94" transform="translate(25.913 20.138)" fill="#49cb8b"/>
          </g>
          <g id="g658" transform="translate(25.576 10.014)">
            <path id="path660" d="M-23.288-18.1A7.926,7.926,0,0,0-25.9-11.762a7.926,7.926,0,0,0,6.574-1.94,7.926,7.926,0,0,0,2.613-6.337A7.926,7.926,0,0,0-23.288-18.1Z" transform="translate(25.913 20.138)" fill="none" stroke="#000" stroke-linecap="round" stroke-linejoin="round" stroke-miterlimit="10" stroke-width="2"/>
          </g>
          <g id="g662" transform="translate(17.551 48.292)">
            <path id="path664" d="M-3.621,0A16.184,16.184,0,0,0,.185,14.506" transform="translate(4.029)" fill="none" stroke="#000" stroke-linecap="round" stroke-linejoin="round" stroke-miterlimit="10" stroke-width="2"/>
          </g>
          <g id="g666" transform="translate(24.823 26.378)">
            <path id="path668" d="M0-346.435a16.088,16.088,0,0,0,8.765,2.714,16.228,16.228,0,0,0,16.42-16.228,16.267,16.267,0,0,0-.34-3.317,4.318,4.318,0,0,1,2.529-4.86,9.028,9.028,0,0,0,2.389-1.5,9.047,9.047,0,0,0,.8-12.866,9.084,9.084,0,0,0-12.49-.944,9.04,9.04,0,0,0-3.159,8.549,7.55,7.55,0,0,1-1.418,5.831c-.132.176-.269.35-.409.52" transform="translate(0 385.487)" fill="none" stroke="#000" stroke-linecap="round" stroke-linejoin="round" stroke-miterlimit="10" stroke-width="2"/>
          </g>
          <g id="g670" transform="translate(48.382 31.398)">
            <path id="path672" d="M-22.423-7.469c.68.8.8,1.813.267,2.267s-1.515.174-2.2-.625-.8-1.813-.267-2.267,1.515-.174,2.2.625" transform="translate(24.951 8.311)"/>
          </g>
          <g id="g674" transform="translate(48.382 31.398)">
            <path id="path676" d="M-22.423-7.469c.68.8.8,1.813.267,2.267s-1.515.174-2.2-.625-.8-1.813-.267-2.267S-23.1-8.268-22.423-7.469Z" transform="translate(24.951 8.311)" fill="none" stroke="#000" stroke-miterlimit="10" stroke-width="2"/>
          </g>
        </g>
      </g>
    </g>
  </g>
</svg>
