<svg xmlns="http://www.w3.org/2000/svg" xmlns:xlink="http://www.w3.org/1999/xlink" width="118" height="118" viewBox="0 0 118 118">
  <defs>
    <filter id="Trazado_896985" x="0" y="0" width="118" height="118" filterUnits="userSpaceOnUse">
      <feOffset dy="3" input="SourceAlpha"/>
      <feGaussianBlur stdDeviation="3" result="blur"/>
      <feFlood flood-opacity="0.161"/>
      <feComposite operator="in" in2="blur"/>
      <feComposite in="SourceGraphic"/>
    </filter>
  </defs>
  <g id="Grupo_1199955" data-name="Grupo 1199955" transform="translate(-267.949 -1651.404)">
    <g id="Grupo_1198733" data-name="Grupo 1198733" transform="translate(-0.051 -1972.07)">
      <g id="Grupo_1198134" data-name="Grupo 1198134" transform="translate(-0.051 -705)">
        <g id="Grupo_1181844" data-name="Grupo 1181844" transform="translate(277.051 4334.475)">
          <g id="Grupo_1111318" data-name="Grupo 1111318" transform="translate(0)">
            <g id="Grupo_1109826" data-name="Grupo 1109826" transform="translate(0 0)">
              <g id="Grupo_1098742" data-name="Grupo 1098742">
                <g transform="matrix(1, 0, 0, 1, -9, -6)" filter="url(#Trazado_896985)">
                  <g id="Trazado_896985-2" data-name="Trazado 896985" transform="translate(9 6)" fill="#9ad354" opacity="0.859">
                    <path d="M 49.99993515014648 99.5 C 43.31726837158203 99.5 36.83476257324219 98.19129943847656 30.73248100280762 95.61025238037109 C 24.83812141418457 93.11714172363281 19.54434776306152 89.54795837402344 14.99820137023926 85.00179290771484 C 10.45204162597656 80.45565032958984 6.88285493850708 75.16187286376953 4.389748573303223 69.26751708984375 C 1.808695197105408 63.16523742675781 0.5000017881393433 56.6827278137207 0.5000017881393433 50.00006103515625 C 0.5000017881393433 43.31726455688477 1.808695197105408 36.83475494384766 4.389748573303223 30.73247528076172 C 6.88285493850708 24.83811569213867 10.45204162597656 19.54434204101562 14.99820137023926 14.99819660186768 C 19.54434776306152 10.45203590393066 24.83812141418457 6.88284969329834 30.73248100280762 4.389742851257324 C 36.83476257324219 1.808689475059509 43.31726837158203 0.4999961853027344 49.99993515014648 0.4999961853027344 C 56.68260192871094 0.4999961853027344 63.16510772705078 1.808689475059509 69.26738739013672 4.389742851257324 C 75.16175079345703 6.88284969329834 80.45552062988281 10.45203590393066 85.00167083740234 14.99819660186768 C 89.54782867431641 19.54434204101562 93.11701202392578 24.83811569213867 95.61012268066406 30.73247528076172 C 98.19117736816406 36.83475494384766 99.49987030029297 43.31726455688477 99.49987030029297 49.99993133544922 C 99.49987030029297 56.6827278137207 98.19117736816406 63.16523742675781 95.61012268066406 69.26751708984375 C 93.11701202392578 75.16187286376953 89.54782867431641 80.45565032958984 85.00167083740234 85.00179290771484 C 80.45552062988281 89.54795837402344 75.16175079345703 93.11714172363281 69.26738739013672 95.61025238037109 C 63.16510772705078 98.19129943847656 56.68260192871094 99.5 49.99993515014648 99.5 Z" stroke="none"/>
                    <path d="M 49.99993515014648 0.9999923706054688 C 43.38454818725586 0.9999923706054688 36.96757507324219 2.29541015625 30.92725372314453 4.850250244140625 C 25.09249877929688 7.318145751953125 19.85213470458984 10.85135650634766 15.35174560546875 15.35174560546875 C 10.85136413574219 19.85212707519531 7.318145751953125 25.09249114990234 4.850257873535156 30.92724609375 C 2.295417785644531 36.96757125854492 1 43.38454437255859 1 50.00006103515625 C 1 56.61544799804688 2.295417785644531 63.03242111206055 4.850257873535156 69.07273864746094 C 7.318145751953125 74.90750122070312 10.85136413574219 80.14786529541016 15.35174560546875 84.64824676513672 C 19.85213470458984 89.14863586425781 25.09249877929688 92.68184661865234 30.92725372314453 95.14974212646484 C 36.96757507324219 97.70458221435547 43.38454818725586 99 49.99993515014648 99 C 56.61532211303711 99 63.03229522705078 97.70458221435547 69.07261657714844 95.14974212646484 C 74.90737915039062 92.68184661865234 80.14773559570312 89.14863586425781 84.64812469482422 84.64824676513672 C 89.14850616455078 80.14786529541016 92.68172454833984 74.90750122070312 95.14961242675781 69.07273864746094 C 97.70445251464844 63.03242111206055 98.99987030029297 56.61544799804688 98.99987030029297 49.99993133544922 C 98.99987030029297 43.38454437255859 97.70445251464844 36.96757125854492 95.14961242675781 30.92724609375 C 92.68172454833984 25.09249114990234 89.14850616455078 19.85212707519531 84.64812469482422 15.35174560546875 C 80.14773559570312 10.85135650634766 74.90737915039062 7.318145751953125 69.07261657714844 4.850250244140625 C 63.03229522705078 2.29541015625 56.61532211303711 0.9999923706054688 49.99993515014648 0.9999923706054688 M 49.99993515014648 -7.62939453125e-06 C 77.6141357421875 -7.62939453125e-06 99.99987030029297 22.38572692871094 99.99987030029297 49.99993133544922 L 99.99987030029297 50.00006103515625 C 99.99987030029297 77.61426544189453 77.6141357421875 100 49.99993515014648 100 C 22.38573455810547 100 0 77.61426544189453 0 50.00006103515625 L 0 49.99993133544922 C 0 22.38572692871094 22.38573455810547 -7.62939453125e-06 49.99993515014648 -7.62939453125e-06 Z" stroke="none" fill="#fff"/>
                  </g>
                </g>
                <g id="Rectángulo_400907" data-name="Rectángulo 400907" transform="translate(0)" fill="none" stroke="#fff" stroke-width="1">
                  <rect width="100" height="100" rx="50" stroke="none"/>
                  <rect x="0.5" y="0.5" width="99" height="99" rx="49.5" fill="none"/>
                </g>
              </g>
            </g>
          </g>
        </g>
      </g>
    </g>
    <g id="regulations_18092074" transform="translate(265.298 1646.112)">
      <g id="Grupo_1199954" data-name="Grupo 1199954" transform="translate(27.861 26.881)">
        <path id="Trazado_1032086" data-name="Trazado 1032086" d="M203.059,233.819H190.07c-.347,0-6.312-.083-9.85,3.963l-13.7,14.016a4.163,4.163,0,1,0,5.969,5.8l12.369-12.655v15.239h28.934V244.553A10.762,10.762,0,0,0,203.059,233.819Z" transform="translate(-145.22 -203.076)" fill="#bbbfe0" fill-rule="evenodd"/>
        <path id="Trazado_1032087" data-name="Trazado 1032087" d="M298.268,233.819H285.279a15.235,15.235,0,0,0-7.539,2.02v.078c0,7.895,8.654,15.239,19.327,16.4A22.4,22.4,0,0,0,309,250.576v-6.023A10.764,10.764,0,0,0,298.268,233.819Z" transform="translate(-240.429 -203.076)" fill="#dfe2f2" fill-rule="evenodd"/>
        <path id="Trazado_1032088" data-name="Trazado 1032088" d="M346.121,192.26h-10.3v5.723a5.151,5.151,0,0,0,10.3,0V192.26Z" transform="translate(-289.627 -167.873)" fill="#f598a2" fill-rule="evenodd"/>
        <path id="Trazado_1032089" data-name="Trazado 1032089" d="M322.028,139.811c-8.271,0-8.488-12.439-8.488-12.439,3.658-6.1,16.948-1.283,16.955-1.283.177.2.161.139.161.485C330.656,133.884,326.794,139.811,322.028,139.811Z" transform="translate(-270.754 -110.291)" fill="#f598a2" fill-rule="evenodd"/>
        <path id="Trazado_1032090" data-name="Trazado 1032090" d="M342.367,124.3a32.7,32.7,0,0,1,9.954,1.8c.177.2.161.139.161.485,0,6.061-2.654,11.168-6.274,12.737-7.435-2.784-7.543-11.541-6.317-12.911a5.239,5.239,0,0,1,2.476-2.114Z" transform="translate(-292.58 -110.304)" fill="#f9b5b2" fill-rule="evenodd"/>
        <path id="Trazado_1032091" data-name="Trazado 1032091" d="M376.231,239.963l-.849-7.023-6.083,4.23Z" transform="translate(-317.986 -202.331)" fill="#fdb614" fill-rule="evenodd"/>
        <path id="Trazado_1032092" data-name="Trazado 1032092" d="M323.97,239.6l.858-7.089,6.075,4.3Z" transform="translate(-279.589 -201.967)" fill="#fdb614" fill-rule="evenodd"/>
        <path id="Trazado_1032093" data-name="Trazado 1032093" d="M353.758,257.6H349.9l-1.439,15.369h.018l1.678,2.623,1.673,2.623,1.673-2.623,1.678-2.623h.017Z" transform="translate(-300.333 -223.22)" fill="#fdb614" fill-rule="evenodd"/>
        <path id="Trazado_1032094" data-name="Trazado 1032094" d="M351.1,257.6h-1.2l-1.439,15.369h.018l1.678,2.623.164.26.482-.751,1.673-2.618h.018Z" transform="translate(-300.333 -223.22)" fill="#ffd05a" fill-rule="evenodd"/>
        <path id="Trazado_1032095" data-name="Trazado 1032095" d="M359.28,238.64h-1.6a1.373,1.373,0,0,0-1.366,1.37v2.982a1.373,1.373,0,0,0,1.366,1.37h1.6a1.373,1.373,0,0,0,1.366-1.37V240.01A1.371,1.371,0,0,0,359.28,238.64Z" transform="translate(-306.983 -207.16)" fill="#fdb614" fill-rule="evenodd"/>
        <path id="Trazado_1032096" data-name="Trazado 1032096" d="M321.276,72.342a7.582,7.582,0,0,1-2.4-3.226q-5.639,2.524-9.816-.78a2.4,2.4,0,0,0-2.441-.347,6.985,6.985,0,0,0-4.266,5.35c-1.378-2.949-2.6-14.107,3.209-12.338C307.464,53.7,326.213,56.687,321.276,72.342Z" transform="translate(-260.311 -53.483)" fill="#724776" fill-rule="evenodd"/>
        <path id="Trazado_1032097" data-name="Trazado 1032097" d="M328.826,92.323a7.582,7.582,0,0,1-2.4-3.226q-5.639,2.524-9.816-.78a2.4,2.4,0,0,0-2.441-.347,6.977,6.977,0,0,0-3.963,4.166c-.364-4.076.359-8.741,4.266-7.548,1.349-5.185,11.185-5.177,15.013.858A14.688,14.688,0,0,1,328.826,92.323Z" transform="translate(-267.861 -73.464)" fill="#511c55" fill-rule="evenodd"/>
        <path id="Trazado_1032098" data-name="Trazado 1032098" d="M294.491,147.161c-3.854.655-5.246-4.44-2.462-4.422a1.68,1.68,0,0,1,1.4.664A9.413,9.413,0,0,0,294.491,147.161Z" transform="translate(-251.294 -125.927)" fill="#f9b5b2" fill-rule="evenodd"/>
        <path id="Trazado_1032099" data-name="Trazado 1032099" d="M420.32,148.835c3.9.17,4.653-5.059,1.89-4.7a1.689,1.689,0,0,0-1.309.837A9.478,9.478,0,0,1,420.32,148.835Z" transform="translate(-361.203 -127.097)" fill="#f9b5b2" fill-rule="evenodd"/>
        <path id="Trazado_1032100" data-name="Trazado 1032100" d="M102.564,276.65h20.1a2.387,2.387,0,0,1,2.384,2.38V305.8a2.388,2.388,0,0,1-2.384,2.384h-20.1a2.391,2.391,0,0,1-2.384-2.384V279.03A2.39,2.39,0,0,1,102.564,276.65Z" transform="translate(-90.026 -239.356)" fill="#96d1a9" fill-rule="evenodd"/>
        <path id="Trazado_1032101" data-name="Trazado 1032101" d="M102.556,276.65h20.1a2.387,2.387,0,0,1,2.384,2.38v19.41a16.716,16.716,0,0,1-9.495.841,21.846,21.846,0,0,1-15.374-11.523v-8.727A2.393,2.393,0,0,1,102.556,276.65Z" transform="translate(-90.018 -239.356)" fill="#c1e2c2" fill-rule="evenodd"/>
        <path id="Trazado_1032102" data-name="Trazado 1032102" d="M152.068,262.17a1.573,1.573,0,1,1-3.131,0,1.574,1.574,0,1,1-3.134,0c-.113,2.358-3.134,2.264-3.134-.1v-4.847c0-4.079,12.538-4.206,12.538-.13v3.625C155.208,263.9,152.13,263.4,152.068,262.17Z" transform="translate(-126.018 -220.251)" fill="#f9b5b2" fill-rule="evenodd"/>
        <path id="Trazado_1032103" data-name="Trazado 1032103" d="M49.653,32.81A15.863,15.863,0,1,1,33.79,48.673,15.865,15.865,0,0,1,49.653,32.81Z" transform="translate(-33.79 -32.81)" fill="#69cad3" fill-rule="evenodd"/>
        <path id="Trazado_1032104" data-name="Trazado 1032104" d="M89.3,62.883A15.867,15.867,0,0,1,68.789,86.2,15.865,15.865,0,0,1,89.3,62.883Z" transform="translate(-60.752 -56.536)" fill="#9bd9e5" fill-rule="evenodd"/>
        <path id="Trazado_1032105" data-name="Trazado 1032105" d="M64.93,145.37a3.839,3.839,0,0,0,3.837-3.84H61.09A3.84,3.84,0,0,0,64.93,145.37Z" transform="translate(-56.915 -124.902)" fill="#feea3a" fill-rule="evenodd"/>
        <path id="Trazado_1032106" data-name="Trazado 1032106" d="M167.542,145.37a3.842,3.842,0,0,0,3.84-3.84H163.7A3.841,3.841,0,0,0,167.542,145.37Z" transform="translate(-143.831 -124.902)" fill="#feea3a" fill-rule="evenodd"/>
      </g>
      <path id="Trazado_1032107" data-name="Trazado 1032107" d="M51.571,46.277a2.77,2.77,0,0,0,2.554-1.7H49.014A2.768,2.768,0,0,0,51.571,46.277Zm3.472.7a4.912,4.912,0,0,1-8.384-3.473,1.07,1.07,0,0,1,1.08-1.071l2.228-5.362H44.794v13.67h3.811a1.068,1.068,0,1,1,0,2.137H38.842a1.068,1.068,0,1,1,0-2.137h3.811V37.073H37.58c.742,1.682,1.482,3.724,2.137,5.362a1.069,1.069,0,0,1,1.066,1.071,4.91,4.91,0,1,1-9.82,0,1.069,1.069,0,0,1,1.075-1.071l2.822-6.777a1.07,1.07,0,0,1,1.014-.723H51.567a1.066,1.066,0,0,1,.971.619c.971,1.808,2,4.7,2.871,6.881a1.069,1.069,0,0,1,1.066,1.071,4.882,4.882,0,0,1-1.432,3.475ZM50.05,42.437h3.039l-1.517-3.651Zm-14.173,3.84a2.77,2.77,0,0,0,2.554-1.7H33.319A2.771,2.771,0,0,0,35.876,46.277Zm-1.522-3.84h3.039l-1.517-3.651ZM52.845,68.813l0-3.551a1.071,1.071,0,0,1,2.141,0v3.507c.009-.012.026-.13.052-.121.593.2.945-.373.945-1.3v-3.62c0-.827-1.2-1.409-2.741-1.718a12.633,12.633,0,0,0-4.721.012c-1.638.329-2.935.954-2.935,1.829v4.847c0,.98.95,1.032,1,.057a1.021,1.021,0,0,1,.066-.326V65.26a1.071,1.071,0,0,1,2.141,0V68.8a1.07,1.07,0,0,1-.031.243.505.505,0,0,0,.456.416v0c.317,0,.5-.333.5-.655V65.26a1.071,1.071,0,0,1,2.141,0V68.8c-.008.791.912.965.994.015Zm-9.122-43A16.934,16.934,0,1,1,26.79,42.744,16.936,16.936,0,0,1,43.724,25.81Zm10.457,6.477a14.791,14.791,0,1,0,0,20.918A14.785,14.785,0,0,0,54.181,32.287Zm.144,38.372a2.563,2.563,0,0,1-3.542.395,2.6,2.6,0,0,1-1.569.541v0a2.546,2.546,0,0,1-1.565-.538,2.639,2.639,0,0,1-4.2-2.358v-3.45H40.4a1.321,1.321,0,0,0-1.314,1.314V93.324A1.317,1.317,0,0,0,40.4,94.633H60.5a1.318,1.318,0,0,0,1.314-1.309V66.559A1.321,1.321,0,0,0,60.5,65.245H58.122v2.1c0,2.68-1.947,3.958-3.8,3.316ZM43.537,63.1c.668-2.632,4.617-3.438,7.349-3.447,2.7,0,6.621.763,7.175,3.447h1.822l2.212-2.259c3.521-3.984,9.122-4.266,10.379-4.284a1.071,1.071,0,0,1,.511-.2v-1.77a13.567,13.567,0,0,1-2.6-5.345c-3.056,0-4.946-3.048-4.131-5.125a2.238,2.238,0,0,1,1.6-1.413c-.3-2.592-.307-6.385,1.392-8.337a3.54,3.54,0,0,1,3.186-1.205c3.308-7.019,20.315-3.915,18.087,10.067,2.137,1.427.993,5.957-2.722,6.421a14.82,14.82,0,0,1-2.368,4.431v2.349a1.012,1.012,0,0,1,.352.121A11.828,11.828,0,0,1,97.5,68.36V83.99a1.068,1.068,0,0,1-1.071,1.071H67.5a1.068,1.068,0,0,1-1.071-1.071V71.378l-2.476,2.531V93.324a3.46,3.46,0,0,1-3.455,3.45H40.4a3.457,3.457,0,0,1-3.45-3.45V66.559A3.458,3.458,0,0,1,40.4,63.1ZM42.15,90.265a1.07,1.07,0,0,1,1.513-1.513l1.014,1.014,2.479-4.3a1.069,1.069,0,0,1,1.851,1.071l-3.138,5.44a1.07,1.07,0,0,1-1.721.286Zm0-11.433a1.07,1.07,0,0,1,1.513-1.513l1.014,1.014,2.479-4.3A1.068,1.068,0,0,1,49.007,75.1l-3.138,5.44a1.07,1.07,0,0,1-1.721.286Zm24.529-10.77,2.306-2.311A1.07,1.07,0,0,1,70.5,67.264L68.57,69.2V82.922H79.156a1.07,1.07,0,0,1-.7-.477L75.2,77.35a1.061,1.061,0,0,1-.277-.815l1.162-12.421L72.641,65.5a1.076,1.076,0,0,1-1.461-1.118l.685-5.667c-1.725.113-5.676.681-8.2,3.568-.012.012-.026.031-.038.043l-1.279,1.309a3.462,3.462,0,0,1,1.609,2.918v4.3Zm-14.245,23.6a1.071,1.071,0,0,1,0-2.141H58.72a1.071,1.071,0,1,1,0,2.141Zm0-11.319a1.071,1.071,0,0,1,0-2.141H58.72a1.071,1.071,0,0,1,0,2.141Zm0-4.275a1.068,1.068,0,1,1,0-2.137H58.72a1.068,1.068,0,1,1,0,2.137Zm0,11.324a1.071,1.071,0,0,1,0-2.141H58.72a1.071,1.071,0,0,1,0,2.141ZM68.522,46.121a2.19,2.19,0,0,0,.876.763l-.269-1.006-.165-1.035c-.213-.1-.645-.135-.723.061A1.61,1.61,0,0,0,68.522,46.121Zm5.905-12.165a7.907,7.907,0,0,1,3.334,7.3c2.5,1.7,5.345,1.6,8.195.3a1.07,1.07,0,0,1,1.435.494,12.967,12.967,0,0,0,.879,1.578c2.505-12.078-11.329-14.38-13.843-9.672Zm1.591,8.672a1.431,1.431,0,0,0-.728-.347,1.411,1.411,0,0,0-.72.1,5.994,5.994,0,0,0-2.089,1.435,6.155,6.155,0,0,0-.72.941,19.9,19.9,0,0,0,1.465,6.165c1.04,2.337,2.836,4.414,5.91,4.414a5.6,5.6,0,0,0,3.92-1.8l.541-.586a12.788,12.788,0,0,0,2.32-4.431.868.868,0,0,1,.057-.26h0a10.2,10.2,0,0,0,.546-2.8l-.021-.65-.564-.931C82.386,45.2,79.009,44.951,76.018,42.628Zm-.359-2.45a5.783,5.783,0,0,0-2.953-4.786,2.378,2.378,0,0,0-1.045-.087c-.8.139-1.219.962-1.453,1.744a14.8,14.8,0,0,0-.165,5.943l.234.147a8.023,8.023,0,0,1,3.49-2.741,3.493,3.493,0,0,1,1.892-.22ZM88.443,47.21c1.118-.7,1.193-2.167.78-2.228A1.037,1.037,0,0,1,88.7,44.8a1.046,1.046,0,0,1-.057.2s0,1.045-.047,1.366C88.552,46.633,88.5,46.915,88.443,47.21ZM80.158,59.435h-1.6a.3.3,0,0,0-.3.3v2.987a.3.3,0,0,0,.3.3h1.6a.3.3,0,0,0,.3-.3V59.73A.3.3,0,0,0,80.158,59.435Zm.395-2.111a2.444,2.444,0,0,1,1.609,1.019l1.084-.754a11.719,11.719,0,0,0,.043-1.47A7.539,7.539,0,0,1,80.553,57.324Zm2.042,3.32v1.3l2.233.9-.421-3.464Zm-2.02,4.475a17.507,17.507,0,0,1-2.436,0L77.084,76.344,79.355,79.9l2.271-3.551ZM76.117,61.8v-.936l-2.172-1.534-.425,3.516Zm.338-3.308a2.445,2.445,0,0,1,1.427-1.11,7.451,7.451,0,0,1-2.758-.95,8.686,8.686,0,0,0,.038,1.149Zm6.184,5.775,1.141,12.17a1.049,1.049,0,0,1-.277.931l-3.235,5.064a1.081,1.081,0,0,1-.707.489h7.682V68.755a1.071,1.071,0,1,1,2.141,0V82.924h5.979V68.36a9.7,9.7,0,0,0-8.878-9.634l.685,5.657A1.075,1.075,0,0,1,85.71,65.5Z" transform="translate(0)"/>
    </g>
  </g>
</svg>
