<svg xmlns="http://www.w3.org/2000/svg" xmlns:xlink="http://www.w3.org/1999/xlink" width="118" height="118" viewBox="0 0 118 118">
  <defs>
    <filter id="Trazado_874925" x="0" y="0" width="118" height="118" filterUnits="userSpaceOnUse">
      <feOffset dy="3" input="SourceAlpha"/>
      <feGaussianBlur stdDeviation="3" result="blur"/>
      <feFlood flood-opacity="0.161"/>
      <feComposite operator="in" in2="blur"/>
      <feComposite in="SourceGraphic"/>
    </filter>
  </defs>
  <g id="Grupo_1200692" data-name="Grupo 1200692" transform="translate(-7262.781 10088.062)">
    <g id="Grupo_1198899" data-name="Grupo 1198899" transform="translate(6463.281 -12599.219)">
      <g id="Grupo_1111316" data-name="Grupo 1111316" transform="translate(808.5 2517.157)">
        <g id="Grupo_1109835" data-name="Grupo 1109835" transform="translate(0 0)">
          <g id="Grupo_1107913" data-name="Grupo 1107913" transform="translate(0 0)">
            <g transform="matrix(1, 0, 0, 1, -9, -6)" filter="url(#Trazado_874925)">
              <g id="Trazado_874925-2" data-name="Trazado 874925" transform="translate(9 6)" fill="#9ad354" opacity="0.859">
                <path d="M 49.99972534179688 98.4998779296875 C 43.45164108276367 98.4998779296875 37.10022354125977 97.21776580810547 31.12189674377441 94.68914794921875 C 25.34676742553711 92.24647521972656 20.15985298156738 88.74925994873047 15.70523929595947 84.29464721679688 C 11.25062561035156 79.84004974365234 7.753411293029785 74.65313720703125 5.310725212097168 68.87800598144531 C 2.782111167907715 62.89969253540039 1.499996781349182 56.54829406738281 1.499996781349182 50.00022125244141 C 1.499996781349182 43.45157623291016 2.782111167907715 37.10017776489258 5.310725212097168 31.12186431884766 C 7.753411293029785 25.34673500061035 11.25062561035156 20.15983581542969 15.70523929595947 15.70522117614746 C 20.15985298156738 11.25062084197998 25.34676742553711 7.753406524658203 31.12189674377441 5.31073522567749 C 37.10022354125977 2.782120943069458 43.45164108276367 1.500006556510925 49.99972534179688 1.500006556510925 C 56.54780960083008 1.500006556510925 62.89922714233398 2.782120943069458 68.87755584716797 5.31073522567749 C 74.65267944335938 7.753406524658203 79.839599609375 11.25062084197998 84.29421234130859 15.70522117614746 C 88.74882507324219 20.15983581542969 92.24604034423828 25.34673500061035 94.68872833251953 31.12186431884766 C 97.21733856201172 37.10017776489258 98.49945068359375 43.45157623291016 98.49945068359375 49.99964904785156 C 98.49945068359375 56.54829406738281 97.21733856201172 62.89969253540039 94.68872833251953 68.87800598144531 C 92.24604034423828 74.65313720703125 88.74882507324219 79.84004974365234 84.29421234130859 84.29464721679688 C 79.839599609375 88.74925994873047 74.65267944335938 92.24647521972656 68.87755584716797 94.68914794921875 C 62.89922714233398 97.21776580810547 56.54780960083008 98.4998779296875 49.99972534179688 98.4998779296875 Z" stroke="none"/>
                <path d="M 49.99972534179688 3 C 43.65348052978516 3 37.49866485595703 4.242240905761719 31.70623016357422 6.692230224609375 C 26.10989379882812 9.059272766113281 21.08323669433594 12.44853210449219 16.76589202880859 16.76587677001953 C 12.44855499267578 21.08321380615234 9.059295654296875 26.10985565185547 6.692230224609375 31.70618438720703 C 4.24224853515625 37.49859619140625 3 43.65341186523438 3 50.00022888183594 C 3 56.34645843505859 4.24224853515625 62.50127410888672 6.692230224609375 68.29368591308594 C 9.059295654296875 73.8900146484375 12.44855499267578 78.91665649414062 16.76589202880859 83.23399353027344 C 21.08323669433594 87.55132293701172 26.10989379882812 90.94059753417969 31.70623016357422 93.30764007568359 C 37.49866485595703 95.75762939453125 43.65348052978516 96.99987030029297 49.99972534179688 96.99987030029297 C 56.34597015380859 96.99987030029297 62.50078582763672 95.75762939453125 68.293212890625 93.30764007568359 C 73.88955688476562 90.94059753417969 78.91621398925781 87.55132293701172 83.23355865478516 83.23399353027344 C 87.55089569091797 78.91665649414062 90.94015502929688 73.8900146484375 93.30722045898438 68.29368591308594 C 95.7572021484375 62.50127410888672 96.99945068359375 56.34645843505859 96.99945068359375 49.99964141845703 C 96.99945068359375 43.65341186523438 95.7572021484375 37.49859619140625 93.30722045898438 31.70618438720703 C 90.94015502929688 26.10985565185547 87.55089569091797 21.08321380615234 83.23355865478516 16.76587677001953 C 78.91621398925781 12.44853210449219 73.88955688476562 9.059272766113281 68.293212890625 6.692230224609375 C 62.50078582763672 4.242240905761719 56.34597015380859 3 49.99972534179688 3 M 49.99972534179688 0 C 77.61381530761719 0 99.99945068359375 22.38559722900391 99.99945068359375 49.99964141845703 L 99.99945068359375 50.00022888183594 C 99.99945068359375 77.6142578125 77.61381530761719 99.99987030029297 49.99972534179688 99.99987030029297 C 22.38563537597656 99.99987030029297 0 77.6142578125 0 50.00022888183594 L 0 49.99964141845703 C 0 22.38559722900391 22.38563537597656 0 49.99972534179688 0 Z" stroke="none" fill="#fff"/>
              </g>
            </g>
            <g id="Trazado_874923" data-name="Trazado 874923" transform="translate(0 0)" fill="none">
              <path d="M50,0a50,50,0,0,1,50,50h0A50,50,0,0,1,0,50H0A50,50,0,0,1,50,0Z" stroke="none"/>
              <path d="M 49.99972534179688 3 C 43.65348052978516 3 37.49866485595703 4.242240905761719 31.70623016357422 6.692230224609375 C 26.10989379882812 9.059272766113281 21.08323669433594 12.44853210449219 16.76589202880859 16.76587677001953 C 12.44855499267578 21.08321380615234 9.059295654296875 26.10985565185547 6.692230224609375 31.70618438720703 C 4.24224853515625 37.49859619140625 3 43.65341186523438 3 50.00022888183594 C 3 56.34645843505859 4.24224853515625 62.50127410888672 6.692230224609375 68.29368591308594 C 9.059295654296875 73.8900146484375 12.44855499267578 78.91665649414062 16.76589202880859 83.23399353027344 C 21.08323669433594 87.55132293701172 26.10989379882812 90.94059753417969 31.70623016357422 93.30764007568359 C 37.49866485595703 95.75762939453125 43.65348052978516 96.99987030029297 49.99972534179688 96.99987030029297 C 56.34597015380859 96.99987030029297 62.50078582763672 95.75762939453125 68.293212890625 93.30764007568359 C 73.88955688476562 90.94059753417969 78.91621398925781 87.55132293701172 83.23355865478516 83.23399353027344 C 87.55089569091797 78.91665649414062 90.94015502929688 73.8900146484375 93.30722045898438 68.29368591308594 C 95.7572021484375 62.50127410888672 96.99945068359375 56.34645843505859 96.99945068359375 49.99964141845703 C 96.99945068359375 43.65341186523438 95.7572021484375 37.49859619140625 93.30722045898438 31.70618438720703 C 90.94015502929688 26.10985565185547 87.55089569091797 21.08321380615234 83.23355865478516 16.76587677001953 C 78.91621398925781 12.44853210449219 73.88955688476562 9.059272766113281 68.293212890625 6.692230224609375 C 62.50078582763672 4.242240905761719 56.34597015380859 3 49.99972534179688 3 M 49.99972534179688 0 C 77.61381530761719 0 99.99945068359375 22.38559722900391 99.99945068359375 49.99964141845703 L 99.99945068359375 50.00022888183594 C 99.99945068359375 77.6142578125 77.61381530761719 99.99987030029297 49.99972534179688 99.99987030029297 C 22.38563537597656 99.99987030029297 0 77.6142578125 0 50.00022888183594 L 0 49.99964141845703 C 0 22.38559722900391 22.38563537597656 0 49.99972534179688 0 Z" stroke="none" fill="#fff"/>
            </g>
          </g>
        </g>
      </g>
    </g>
    <g id="ley_12_" data-name="ley (12)" transform="translate(7288.879 -10067.494)">
      <g id="Grupo_1200672" data-name="Grupo 1200672" transform="translate(7.017 4.737)">
        <g id="Grupo_1200650" data-name="Grupo 1200650" transform="translate(0 30.963)">
          <g id="Grupo_1200648" data-name="Grupo 1200648">
            <path id="Trazado_1037076" data-name="Trazado 1037076" d="M42.646,34.94H8.769a1.774,1.774,0,0,0,0,3.548H42.646a3.885,3.885,0,0,1,3.865,4.264,4,4,0,0,1-4.029,3.5H40.172V49.8h2.219a7.6,7.6,0,0,0,7.669-6.933,7.436,7.436,0,0,0-7.414-7.925Z" transform="translate(-7 -34.94)" fill="#ffab03"/>
          </g>
          <g id="Grupo_1200649" data-name="Grupo 1200649" transform="translate(0 11.31)">
            <path id="Trazado_1037077" data-name="Trazado 1037077" d="M31.49,46H8.769a1.774,1.774,0,0,0,0,3.548H31.48V46Z" transform="translate(-7 -46)" fill="#ffab03"/>
          </g>
        </g>
        <g id="Grupo_1200651" data-name="Grupo 1200651" transform="translate(34.113 30.963)" opacity="0.3">
          <path id="Trazado_1037078" data-name="Trazado 1037078" d="M41.894,34.94H40.36a1.532,1.532,0,0,0,1.534,1.534,5.882,5.882,0,0,1,5.88,6.289,1.528,1.528,0,0,0,1.268,1.605,6.61,6.61,0,0,0,.266-1.5,7.436,7.436,0,0,0-7.414-7.925Z" transform="translate(-40.36 -34.94)" fill="#fff"/>
        </g>
        <g id="Grupo_1200652" data-name="Grupo 1200652" transform="translate(1.769 34.511)">
          <path id="Trazado_1037079" data-name="Trazado 1037079" d="M42.607,38.41H8.73a5.48,5.48,0,0,1,0,7.761H42.607a3.881,3.881,0,1,0,0-7.761Z" transform="translate(-8.73 -38.41)" fill="#e2e2e2"/>
        </g>
        <g id="Grupo_1200653" data-name="Grupo 1200653" transform="translate(12.557 34.511)" opacity="0.5">
          <path id="Trazado_1037080" data-name="Trazado 1037080" d="M42.369,38.41H19.28A3.884,3.884,0,0,0,23.166,42.3H46.255A3.884,3.884,0,0,0,42.369,38.41Z" transform="translate(-19.28 -38.41)" fill="#fff"/>
        </g>
        <g id="Grupo_1200656" data-name="Grupo 1200656" transform="translate(2.734 45.821)">
          <g id="Grupo_1200654" data-name="Grupo 1200654">
            <path id="Trazado_1037081" data-name="Trazado 1037081" d="M58.344,60.78H17.1a3.885,3.885,0,0,1-3.865-4.264,4,4,0,0,1,4.029-3.5H31.43V49.47H17.36A7.6,7.6,0,0,0,9.69,56.4,7.43,7.43,0,0,0,17.1,64.328h41.24a1.774,1.774,0,0,0,0-3.548Z" transform="translate(-9.674 -49.47)" fill="#7cb5e8"/>
          </g>
          <g id="Grupo_1200655" data-name="Grupo 1200655" transform="translate(30.438)">
            <path id="Trazado_1037082" data-name="Trazado 1037082" d="M57.672,49.47H39.44v3.548H57.672a1.774,1.774,0,0,0,0-3.548Z" transform="translate(-39.44 -49.47)" fill="#7cb5e8"/>
          </g>
        </g>
        <g id="Grupo_1200657" data-name="Grupo 1200657" transform="translate(6.279 49.369)">
          <path id="Trazado_1037083" data-name="Trazado 1037083" d="M58.266,52.94H17.026a3.886,3.886,0,0,0,0,7.771h41.24a5.493,5.493,0,0,1,0-7.771Z" transform="translate(-13.14 -52.94)" fill="#e2e2e2"/>
        </g>
        <g id="Grupo_1200658" data-name="Grupo 1200658" transform="translate(10.318 49.369)" opacity="0.5">
          <path id="Trazado_1037084" data-name="Trazado 1037084" d="M58.177,52.94H17.213a4,4,0,0,0-.123.931,3.884,3.884,0,0,0,3.886,3.886H56.663A5.434,5.434,0,0,1,58.177,52.94Z" transform="translate(-17.09 -52.94)" fill="#fff"/>
        </g>
        <g id="Grupo_1200659" data-name="Grupo 1200659" transform="translate(26.566 17.118)">
          <path id="Trazado_1037085" data-name="Trazado 1037085" d="M32.98,21.4a7.075,7.075,0,0,0,14.111,0Z" transform="translate(-32.98 -21.4)" fill="#ffab03"/>
        </g>
        <g id="Grupo_1200660" data-name="Grupo 1200660" transform="translate(1.166 17.118)">
          <path id="Trazado_1037086" data-name="Trazado 1037086" d="M8.14,21.4a7.075,7.075,0,0,0,14.111,0Z" transform="translate(-8.14 -21.4)" fill="#ffab03"/>
        </g>
        <g id="Grupo_1200661" data-name="Grupo 1200661" transform="translate(11.177 25.912)">
          <path id="Trazado_1037087" data-name="Trazado 1037087" d="M33.135,30H22.981a5.049,5.049,0,0,0-5.051,5.051H38.2A5.065,5.065,0,0,0,33.135,30Z" transform="translate(-17.93 -30)" fill="#ef4a51"/>
        </g>
        <g id="Grupo_1200662" data-name="Grupo 1200662" transform="translate(17.496 0)">
          <path id="Trazado_1037088" data-name="Trazado 1037088" d="M31.718,8.464a3.8,3.8,0,1,1-3.8-3.8A3.81,3.81,0,0,1,31.718,8.464Z" transform="translate(-24.11 -4.66)" fill="#ef4a51"/>
        </g>
        <g id="Grupo_1200663" data-name="Grupo 1200663" transform="translate(19.531)" opacity="0.3">
          <path id="Trazado_1037089" data-name="Trazado 1037089" d="M27.869,4.66a3.713,3.713,0,0,0-1.472.3,3.713,3.713,0,0,0-.3,1.472,3.81,3.81,0,0,0,3.8,3.8,3.713,3.713,0,0,0,1.472-.3,3.713,3.713,0,0,0,.3-1.472,3.8,3.8,0,0,0-3.8-3.8Z" transform="translate(-26.1 -4.66)" fill="#fff"/>
        </g>
        <g id="Grupo_1200664" data-name="Grupo 1200664" transform="translate(29.665 17.128)" opacity="0.3">
          <path id="Trazado_1037090" data-name="Trazado 1037090" d="M42.421,25.5a7.022,7.022,0,0,0,3.62-1,7.075,7.075,0,0,0,.971-3.088h-11a7.07,7.07,0,0,0,6.411,4.09Z" transform="translate(-36.01 -21.41)" fill="#fff"/>
        </g>
        <g id="Grupo_1200665" data-name="Grupo 1200665" transform="translate(4.264 17.128)" opacity="0.3">
          <path id="Trazado_1037091" data-name="Trazado 1037091" d="M17.592,25.5a7.022,7.022,0,0,0,3.62-1,7.075,7.075,0,0,0,.971-3.088H11.17a7.1,7.1,0,0,0,6.422,4.09Z" transform="translate(-11.17 -21.41)" fill="#fff"/>
        </g>
        <g id="Grupo_1200666" data-name="Grupo 1200666" transform="translate(18.181 25.912)" opacity="0.3">
          <path id="Trazado_1037092" data-name="Trazado 1037092" d="M32.981,30h-8.2v1.023a2.051,2.051,0,0,0,2.045,2.045H37.634A5.073,5.073,0,0,0,32.981,30Z" transform="translate(-24.78 -30)" fill="#fff"/>
        </g>
        <g id="Grupo_1200667" data-name="Grupo 1200667" transform="translate(24.49 40.166)">
          <path id="Trazado_1037093" data-name="Trazado 1037093" d="M39.632,57.029l-4.346-2.771L30.95,57.029V43.94h8.682Z" transform="translate(-30.95 -43.94)" fill="#4e6575"/>
        </g>
        <g id="Grupo_1200668" data-name="Grupo 1200668" transform="translate(27.374 40.166)" opacity="0.3">
          <path id="Trazado_1037094" data-name="Trazado 1037094" d="M33.77,48.715a3.064,3.064,0,0,0,3.068,3.068h2.73V43.94h-5.8Z" transform="translate(-33.77 -43.94)" fill="#e2e2e2"/>
        </g>
        <g id="Grupo_1200671" data-name="Grupo 1200671" transform="translate(48.336 45.821)" opacity="0.3">
          <g id="Grupo_1200669" data-name="Grupo 1200669">
            <path id="Trazado_1037095" data-name="Trazado 1037095" d="M57.338,49.47H54.27a1.769,1.769,0,0,1,0,3.538h3.068a1.769,1.769,0,1,0,0-3.538Z" transform="translate(-54.27 -49.47)" fill="#fff"/>
          </g>
          <g id="Grupo_1200670" data-name="Grupo 1200670" transform="translate(0 11.31)">
            <path id="Trazado_1037096" data-name="Trazado 1037096" d="M57.338,60.53H54.27a1.769,1.769,0,0,1,0,3.538h3.068a1.769,1.769,0,1,0,0-3.538Z" transform="translate(-54.27 -60.53)" fill="#fff"/>
          </g>
        </g>
      </g>
      <g id="Grupo_1200691" data-name="Grupo 1200691" transform="translate(6.25 1.25)">
        <g id="Grupo_1200673" data-name="Grupo 1200673" transform="translate(0 33.693)">
          <path id="Trazado_1037097" data-name="Trazado 1037097" d="M42.408,50.581H40.189a.773.773,0,0,1-.767-.767V46.266a.773.773,0,0,1,.767-.767H42.5a3.228,3.228,0,0,0,3.262-2.8,3.086,3.086,0,0,0-.8-2.4,3.146,3.146,0,0,0-2.3-1.023H8.786a2.536,2.536,0,1,1,0-5.072H42.663a8.19,8.19,0,0,1,8.18,8.733,8.352,8.352,0,0,1-8.436,7.649Zm-1.452-1.534h1.452a6.812,6.812,0,0,0,6.9-6.217,6.667,6.667,0,0,0-6.647-7.107H8.786a1,1,0,1,0,0,2H42.663A4.632,4.632,0,0,1,46.1,39.251a4.68,4.68,0,0,1,1.186,3.579,4.776,4.776,0,0,1-4.8,4.192H40.946v2.025Z" transform="translate(-6.25 -34.2)"/>
        </g>
        <g id="Grupo_1200674" data-name="Grupo 1200674" transform="translate(0 45.003)">
          <path id="Trazado_1037098" data-name="Trazado 1037098" d="M31.507,50.332H8.786a2.536,2.536,0,1,1,0-5.072H31.5a.767.767,0,1,1,0,1.534H8.786a1,1,0,0,0,0,2H31.5a.773.773,0,0,1,.767.767A.764.764,0,0,1,31.507,50.332Z" transform="translate(-6.25 -45.26)"/>
        </g>
        <g id="Grupo_1200675" data-name="Grupo 1200675" transform="translate(1.772 37.224)">
          <path id="Trazado_1037099" data-name="Trazado 1037099" d="M8.747,46.955A.758.758,0,0,1,8.2,46.73a.772.772,0,0,1,0-1.084,4.74,4.74,0,0,0,0-6.688.766.766,0,0,1,1.084-1.084,6.27,6.27,0,0,1,0,8.855.726.726,0,0,1-.542.225Z" transform="translate(-7.983 -37.652)"/>
        </g>
        <g id="Grupo_1200676" data-name="Grupo 1200676" transform="translate(24.501 42.886)">
          <path id="Trazado_1037100" data-name="Trazado 1037100" d="M39.648,57.813a.737.737,0,0,1-.409-.123l-3.927-2.505L31.386,57.69a.762.762,0,0,1-1.176-.644V43.957a.773.773,0,0,1,.767-.767h8.682a.773.773,0,0,1,.767.767V57.035a.774.774,0,0,1-.4.675A.875.875,0,0,1,39.648,57.813Zm-4.346-4.3a.737.737,0,0,1,.409.123l3.16,2.014V44.724H31.734V55.645l3.16-2.014a.664.664,0,0,1,.409-.123Z" transform="translate(-30.21 -43.19)"/>
        </g>
        <g id="Grupo_1200677" data-name="Grupo 1200677" transform="translate(6.289 52.099)">
          <path id="Trazado_1037101" data-name="Trazado 1037101" d="M58.282,65.033H17.042a.767.767,0,1,1,0-1.534h41.24a1,1,0,1,0,0-2H17.042a4.632,4.632,0,0,1-3.436-1.524,4.68,4.68,0,0,1-1.186-3.579,4.776,4.776,0,0,1,4.8-4.192H31.379a.767.767,0,1,1,0,1.534H17.206a3.228,3.228,0,0,0-3.262,2.8,3.086,3.086,0,0,0,.8,2.4,3.146,3.146,0,0,0,2.3,1.023h41.24a2.536,2.536,0,1,1,0,5.072Z" transform="translate(-12.4 -52.2)"/>
        </g>
        <g id="Grupo_1200678" data-name="Grupo 1200678" transform="translate(2.733 48.541)">
          <path id="Trazado_1037102" data-name="Trazado 1037102" d="M13.828,64.345a.685.685,0,0,1-.337-.082,8.2,8.2,0,0,1-4.55-7.894,8.337,8.337,0,0,1,8.436-7.649h14.07a.767.767,0,1,1,0,1.534H17.377a6.812,6.812,0,0,0-6.9,6.217,6.665,6.665,0,0,0,3.7,6.422.765.765,0,0,1,.348,1.023.776.776,0,0,1-.7.429Z" transform="translate(-8.923 -48.72)"/>
        </g>
        <g id="Grupo_1200679" data-name="Grupo 1200679" transform="translate(33.172 48.541)">
          <path id="Trazado_1037103" data-name="Trazado 1037103" d="M57.689,53.8H39.457a.773.773,0,0,1-.767-.767V49.487a.773.773,0,0,1,.767-.767H57.689a2.541,2.541,0,0,1,0,5.082ZM40.224,52.268H57.689a1,1,0,1,0,0-2H40.224Z" transform="translate(-38.69 -48.72)"/>
        </g>
        <g id="Grupo_1200680" data-name="Grupo 1200680" transform="translate(49.796 52.092)">
          <path id="Trazado_1037104" data-name="Trazado 1037104" d="M57.322,61.485a.758.758,0,0,1-.542-.225,6.252,6.252,0,0,1,0-8.845A.766.766,0,1,1,57.864,53.5a4.728,4.728,0,0,0,0,6.677.772.772,0,0,1,0,1.084.758.758,0,0,1-.542.225Z" transform="translate(-54.948 -52.192)"/>
        </g>
        <g id="Grupo_1200681" data-name="Grupo 1200681" transform="translate(21.3 10.328)">
          <path id="Trazado_1037105" data-name="Trazado 1037105" d="M27.847,31.188a.773.773,0,0,1-.767-.767v-18.3a.767.767,0,1,1,1.534,0v18.3A.773.773,0,0,1,27.847,31.188Z" transform="translate(-27.08 -11.35)"/>
        </g>
        <g id="Grupo_1200682" data-name="Grupo 1200682" transform="translate(21.3)">
          <path id="Trazado_1037106" data-name="Trazado 1037106" d="M27.847,5.5a.773.773,0,0,1-.767-.767V2.017a.767.767,0,1,1,1.534,0v2.72A.773.773,0,0,1,27.847,5.5Z" transform="translate(-27.08 -1.25)"/>
        </g>
        <g id="Grupo_1200683" data-name="Grupo 1200683" transform="translate(26.555 6.523)">
          <path id="Trazado_1037107" data-name="Trazado 1037107" d="M47.109,22.478a.774.774,0,0,1-.7-.44l-5.634-12L33.652,22.1a.775.775,0,0,1-1.053.266.757.757,0,0,1-.266-1.053L40.2,8.008a.768.768,0,0,1,.7-.378.746.746,0,0,1,.654.44l6.248,13.314a.773.773,0,0,1-.368,1.023.685.685,0,0,1-.317.072Z" transform="translate(-32.22 -7.629)"/>
        </g>
        <g id="Grupo_1200684" data-name="Grupo 1200684" transform="translate(26.565 19.848)">
          <path id="Trazado_1037108" data-name="Trazado 1037108" d="M40.053,28.748a7.868,7.868,0,0,1-7.823-7.27A.769.769,0,0,1,33,20.66H47.108a.773.773,0,0,1,.562.245.793.793,0,0,1,.2.573,7.876,7.876,0,0,1-7.823,7.27Zm-6.176-6.565a6.309,6.309,0,0,0,12.353,0Z" transform="translate(-32.229 -20.66)"/>
        </g>
        <g id="Grupo_1200685" data-name="Grupo 1200685" transform="translate(1.16 6.523)">
          <path id="Trazado_1037109" data-name="Trazado 1037109" d="M22.268,22.478a.774.774,0,0,1-.7-.44l-5.634-12L8.811,22.1a.775.775,0,0,1-1.053.266.766.766,0,0,1-.266-1.053l7.863-13.3a.779.779,0,0,1,.7-.378.746.746,0,0,1,.654.44l6.248,13.314a.773.773,0,0,1-.368,1.023.657.657,0,0,1-.317.072Z" transform="translate(-7.384 -7.629)"/>
        </g>
        <g id="Grupo_1200686" data-name="Grupo 1200686" transform="translate(1.165 19.838)">
          <path id="Trazado_1037110" data-name="Trazado 1037110" d="M15.213,28.749a7.868,7.868,0,0,1-7.823-7.27.817.817,0,0,1,.2-.583.773.773,0,0,1,.562-.245H22.268a.773.773,0,0,1,.562.245.8.8,0,0,1,.2.583,7.876,7.876,0,0,1-7.823,7.27ZM9.036,22.184a6.309,6.309,0,0,0,12.353,0Z" transform="translate(-7.389 -20.65)"/>
        </g>
        <g id="Grupo_1200687" data-name="Grupo 1200687" transform="translate(11.166 28.632)">
          <path id="Trazado_1037111" data-name="Trazado 1037111" d="M38.2,35.835H17.937a.773.773,0,0,1-.767-.767,5.822,5.822,0,0,1,5.818-5.818H33.142a.767.767,0,1,1,0,1.534H22.988A4.3,4.3,0,0,0,18.765,34.3h18.6a4.29,4.29,0,0,0-1.718-2.72.768.768,0,0,1-.174-1.074.777.777,0,0,1,1.074-.174,5.857,5.857,0,0,1,2.423,4.724.768.768,0,0,1-.767.777Z" transform="translate(-17.17 -29.25)"/>
        </g>
        <g id="Grupo_1200688" data-name="Grupo 1200688" transform="translate(17.496 2.72)">
          <path id="Trazado_1037112" data-name="Trazado 1037112" d="M27.931,13.052A4.571,4.571,0,1,1,32.5,8.481,4.582,4.582,0,0,1,27.931,13.052Zm0-7.608a3.037,3.037,0,1,0,3.037,3.037,3.037,3.037,0,0,0-3.037-3.037Z" transform="translate(-23.36 -3.91)"/>
        </g>
        <g id="Grupo_1200689" data-name="Grupo 1200689" transform="translate(9.029 6.524)">
          <path id="Trazado_1037113" data-name="Trazado 1037113" d="M24.314,9.164H15.847a.767.767,0,0,1,0-1.534h8.467a.767.767,0,1,1,0,1.534Z" transform="translate(-15.08 -7.63)"/>
        </g>
        <g id="Grupo_1200690" data-name="Grupo 1200690" transform="translate(25.104 6.524)">
          <path id="Trazado_1037114" data-name="Trazado 1037114" d="M40.893,9.164H31.567a.767.767,0,1,1,0-1.534h9.326a.767.767,0,1,1,0,1.534Z" transform="translate(-30.8 -7.63)"/>
        </g>
      </g>
    </g>
  </g>
</svg>
