<svg xmlns="http://www.w3.org/2000/svg" xmlns:xlink="http://www.w3.org/1999/xlink" width="118" height="118" viewBox="0 0 118 118">
  <defs>
    <filter id="Trazado_874925" x="0" y="0" width="118" height="118" filterUnits="userSpaceOnUse">
      <feOffset dy="3" input="SourceAlpha"/>
      <feGaussianBlur stdDeviation="3" result="blur"/>
      <feFlood flood-opacity="0.161"/>
      <feComposite operator="in" in2="blur"/>
      <feComposite in="SourceGraphic"/>
    </filter>
  </defs>
  <g id="Grupo_1200693" data-name="Grupo 1200693" transform="translate(-6939.781 9690.062)">
    <g id="Grupo_1198900" data-name="Grupo 1198900" transform="translate(6140.281 -12201.219)">
      <g id="Grupo_1111316" data-name="Grupo 1111316" transform="translate(808.5 2517.157)">
        <g id="Grupo_1109835" data-name="Grupo 1109835" transform="translate(0 0)">
          <g id="Grupo_1107913" data-name="Grupo 1107913" transform="translate(0 0)">
            <g transform="matrix(1, 0, 0, 1, -9, -6)" filter="url(#Trazado_874925)">
              <g id="Trazado_874925-2" data-name="Trazado 874925" transform="translate(9 6)" fill="#9ad354" opacity="0.859">
                <path d="M 49.99972534179688 98.4998779296875 C 43.45164108276367 98.4998779296875 37.10022354125977 97.21776580810547 31.12189674377441 94.68914794921875 C 25.34676742553711 92.24647521972656 20.15985298156738 88.74925994873047 15.70523929595947 84.29464721679688 C 11.25062561035156 79.84004974365234 7.753411293029785 74.65313720703125 5.310725212097168 68.87800598144531 C 2.782111167907715 62.89969253540039 1.499996781349182 56.54829406738281 1.499996781349182 50.00022125244141 C 1.499996781349182 43.45157623291016 2.782111167907715 37.10017776489258 5.310725212097168 31.12186431884766 C 7.753411293029785 25.34673500061035 11.25062561035156 20.15983581542969 15.70523929595947 15.70522117614746 C 20.15985298156738 11.25062084197998 25.34676742553711 7.753406524658203 31.12189674377441 5.31073522567749 C 37.10022354125977 2.782120943069458 43.45164108276367 1.500006556510925 49.99972534179688 1.500006556510925 C 56.54780960083008 1.500006556510925 62.89922714233398 2.782120943069458 68.87755584716797 5.31073522567749 C 74.65267944335938 7.753406524658203 79.839599609375 11.25062084197998 84.29421234130859 15.70522117614746 C 88.74882507324219 20.15983581542969 92.24604034423828 25.34673500061035 94.68872833251953 31.12186431884766 C 97.21733856201172 37.10017776489258 98.49945068359375 43.45157623291016 98.49945068359375 49.99964904785156 C 98.49945068359375 56.54829406738281 97.21733856201172 62.89969253540039 94.68872833251953 68.87800598144531 C 92.24604034423828 74.65313720703125 88.74882507324219 79.84004974365234 84.29421234130859 84.29464721679688 C 79.839599609375 88.74925994873047 74.65267944335938 92.24647521972656 68.87755584716797 94.68914794921875 C 62.89922714233398 97.21776580810547 56.54780960083008 98.4998779296875 49.99972534179688 98.4998779296875 Z" stroke="none"/>
                <path d="M 49.99972534179688 3 C 43.65348052978516 3 37.49866485595703 4.242240905761719 31.70623016357422 6.692230224609375 C 26.10989379882812 9.059272766113281 21.08323669433594 12.44853210449219 16.76589202880859 16.76587677001953 C 12.44855499267578 21.08321380615234 9.059295654296875 26.10985565185547 6.692230224609375 31.70618438720703 C 4.24224853515625 37.49859619140625 3 43.65341186523438 3 50.00022888183594 C 3 56.34645843505859 4.24224853515625 62.50127410888672 6.692230224609375 68.29368591308594 C 9.059295654296875 73.8900146484375 12.44855499267578 78.91665649414062 16.76589202880859 83.23399353027344 C 21.08323669433594 87.55132293701172 26.10989379882812 90.94059753417969 31.70623016357422 93.30764007568359 C 37.49866485595703 95.75762939453125 43.65348052978516 96.99987030029297 49.99972534179688 96.99987030029297 C 56.34597015380859 96.99987030029297 62.50078582763672 95.75762939453125 68.293212890625 93.30764007568359 C 73.88955688476562 90.94059753417969 78.91621398925781 87.55132293701172 83.23355865478516 83.23399353027344 C 87.55089569091797 78.91665649414062 90.94015502929688 73.8900146484375 93.30722045898438 68.29368591308594 C 95.7572021484375 62.50127410888672 96.99945068359375 56.34645843505859 96.99945068359375 49.99964141845703 C 96.99945068359375 43.65341186523438 95.7572021484375 37.49859619140625 93.30722045898438 31.70618438720703 C 90.94015502929688 26.10985565185547 87.55089569091797 21.08321380615234 83.23355865478516 16.76587677001953 C 78.91621398925781 12.44853210449219 73.88955688476562 9.059272766113281 68.293212890625 6.692230224609375 C 62.50078582763672 4.242240905761719 56.34597015380859 3 49.99972534179688 3 M 49.99972534179688 0 C 77.61381530761719 0 99.99945068359375 22.38559722900391 99.99945068359375 49.99964141845703 L 99.99945068359375 50.00022888183594 C 99.99945068359375 77.6142578125 77.61381530761719 99.99987030029297 49.99972534179688 99.99987030029297 C 22.38563537597656 99.99987030029297 0 77.6142578125 0 50.00022888183594 L 0 49.99964141845703 C 0 22.38559722900391 22.38563537597656 0 49.99972534179688 0 Z" stroke="none" fill="#fff"/>
              </g>
            </g>
            <g id="Trazado_874923" data-name="Trazado 874923" transform="translate(0 0)" fill="none">
              <path d="M50,0a50,50,0,0,1,50,50h0A50,50,0,0,1,0,50H0A50,50,0,0,1,50,0Z" stroke="none"/>
              <path d="M 49.99972534179688 3 C 43.65348052978516 3 37.49866485595703 4.242240905761719 31.70623016357422 6.692230224609375 C 26.10989379882812 9.059272766113281 21.08323669433594 12.44853210449219 16.76589202880859 16.76587677001953 C 12.44855499267578 21.08321380615234 9.059295654296875 26.10985565185547 6.692230224609375 31.70618438720703 C 4.24224853515625 37.49859619140625 3 43.65341186523438 3 50.00022888183594 C 3 56.34645843505859 4.24224853515625 62.50127410888672 6.692230224609375 68.29368591308594 C 9.059295654296875 73.8900146484375 12.44855499267578 78.91665649414062 16.76589202880859 83.23399353027344 C 21.08323669433594 87.55132293701172 26.10989379882812 90.94059753417969 31.70623016357422 93.30764007568359 C 37.49866485595703 95.75762939453125 43.65348052978516 96.99987030029297 49.99972534179688 96.99987030029297 C 56.34597015380859 96.99987030029297 62.50078582763672 95.75762939453125 68.293212890625 93.30764007568359 C 73.88955688476562 90.94059753417969 78.91621398925781 87.55132293701172 83.23355865478516 83.23399353027344 C 87.55089569091797 78.91665649414062 90.94015502929688 73.8900146484375 93.30722045898438 68.29368591308594 C 95.7572021484375 62.50127410888672 96.99945068359375 56.34645843505859 96.99945068359375 49.99964141845703 C 96.99945068359375 43.65341186523438 95.7572021484375 37.49859619140625 93.30722045898438 31.70618438720703 C 90.94015502929688 26.10985565185547 87.55089569091797 21.08321380615234 83.23355865478516 16.76587677001953 C 78.91621398925781 12.44853210449219 73.88955688476562 9.059272766113281 68.293212890625 6.692230224609375 C 62.50078582763672 4.242240905761719 56.34597015380859 3 49.99972534179688 3 M 49.99972534179688 0 C 77.61381530761719 0 99.99945068359375 22.38559722900391 99.99945068359375 49.99964141845703 L 99.99945068359375 50.00022888183594 C 99.99945068359375 77.6142578125 77.61381530761719 99.99987030029297 49.99972534179688 99.99987030029297 C 22.38563537597656 99.99987030029297 0 77.6142578125 0 50.00022888183594 L 0 49.99964141845703 C 0 22.38559722900391 22.38563537597656 0 49.99972534179688 0 Z" stroke="none" fill="#fff"/>
            </g>
          </g>
        </g>
      </g>
    </g>
    <g id="derechos-civiles_3_" data-name="derechos-civiles (3)" transform="translate(6966.405 -9666.29)">
      <path id="Trazado_1037115" data-name="Trazado 1037115" d="M196,85.582v8.487l1.574,4.178v40.073h8.183l1.888-37.5,4.784-8.95V85.582Z" transform="translate(-171.325 -74.808)" fill="#fdbba8"/>
      <path id="Trazado_1037116" data-name="Trazado 1037116" d="M265.171,85.582v6.284a6.983,6.983,0,0,1-3.108,5.812,3.777,3.777,0,0,0-1.676,3.139l-1.888.794,1.888.793v35.917h3.777v-37.5a10.752,10.752,0,0,0,4.784-8.95V85.582Z" transform="translate(-225.956 -74.808)" fill="#fc9e8d"/>
      <path id="Trazado_1037117" data-name="Trazado 1037117" d="M292.78,37.5a2.392,2.392,0,0,0-2.392,2.392L288.5,41.78l1.888,1.888a2.392,2.392,0,0,0,4.784,0V39.892A2.392,2.392,0,0,0,292.78,37.5Z" transform="translate(-252.18 -32.779)" fill="#fc8071"/>
      <path id="Trazado_1037118" data-name="Trazado 1037118" d="M254.78,22.5a2.392,2.392,0,0,0-2.392,2.392L250.5,27.725l1.888,2.833a2.392,2.392,0,1,0,4.784,0V24.892A2.392,2.392,0,0,0,254.78,22.5Z" transform="translate(-218.964 -19.667)" fill="#fc9e8d"/>
      <path id="Trazado_1037119" data-name="Trazado 1037119" d="M216.78,7.5a2.392,2.392,0,0,0-2.392,2.392L212.5,17.446h6.672V9.892A2.392,2.392,0,0,0,216.78,7.5Z" transform="translate(-185.748 -6.556)" fill="#fc8071"/>
      <path id="Trazado_1037120" data-name="Trazado 1037120" d="M191.892,7.5A2.392,2.392,0,0,0,189.5,9.892v7.554h4.784V9.892A2.392,2.392,0,0,0,191.892,7.5Z" transform="translate(-165.643 -6.556)" fill="#fc9e8d"/>
      <path id="Trazado_1037121" data-name="Trazado 1037121" d="M175.284,76.061V72.284h4.784a2.392,2.392,0,0,0,2.389-2.508A2.436,2.436,0,0,0,180,67.5h-4.716a4.784,4.784,0,0,0-4.784,4.784v3.777A10.77,10.77,0,0,0,183.467,86.6V84.244A8.183,8.183,0,0,0,175.284,76.061Z" transform="translate(-149.035 -59.002)" fill="#fdd9c4"/>
      <path id="Trazado_1037122" data-name="Trazado 1037122" d="M33,269.082v8.487l1.574,4.178v16.972h8.183l1.888-14.4,4.784-8.95v-6.284Z" transform="translate(-28.846 -235.207)" fill="#f6d76f"/>
      <path id="Trazado_1037123" data-name="Trazado 1037123" d="M102.171,269.082v6.284a6.983,6.983,0,0,1-3.108,5.812,3.777,3.777,0,0,0-1.676,3.139l-1.888.794,1.888.793v12.816h3.777v-14.4a10.752,10.752,0,0,0,4.784-8.95v-6.284Z" transform="translate(-83.476 -235.207)" fill="#f9bb69"/>
      <path id="Trazado_1037124" data-name="Trazado 1037124" d="M129.78,221a2.392,2.392,0,0,0-2.392,2.392L125.5,225.28l1.888,1.888a2.392,2.392,0,1,0,4.784,0v-3.777A2.392,2.392,0,0,0,129.78,221Z" transform="translate(-109.7 -193.178)" fill="#fc9f63"/>
      <path id="Trazado_1037125" data-name="Trazado 1037125" d="M91.78,206a2.392,2.392,0,0,0-2.392,2.392L87.5,211.225l1.888,2.833a2.392,2.392,0,1,0,4.784,0v-5.665A2.392,2.392,0,0,0,91.78,206Z" transform="translate(-76.484 -180.066)" fill="#f9bb69"/>
      <path id="Trazado_1037126" data-name="Trazado 1037126" d="M53.78,191a2.392,2.392,0,0,0-2.392,2.392L49.5,200.946h6.672v-7.554A2.392,2.392,0,0,0,53.78,191Z" transform="translate(-43.268 -166.954)" fill="#fc9f63"/>
      <path id="Trazado_1037127" data-name="Trazado 1037127" d="M28.892,191a2.392,2.392,0,0,0-2.392,2.392v7.554h4.784v-7.554A2.392,2.392,0,0,0,28.892,191Z" transform="translate(-23.164 -166.954)" fill="#f9bb69"/>
      <path id="Trazado_1037128" data-name="Trazado 1037128" d="M12.284,259.561v-3.777h4.784a2.392,2.392,0,0,0,2.389-2.508A2.436,2.436,0,0,0,17,251H12.284A4.784,4.784,0,0,0,7.5,255.784v3.777A10.77,10.77,0,0,0,20.467,270.1v-2.354A8.183,8.183,0,0,0,12.284,259.561Z" transform="translate(-6.556 -219.401)" fill="#fae8ac"/>
      <path id="Trazado_1037129" data-name="Trazado 1037129" d="M359,269.082v8.487l1.574,4.178v16.972h8.183l1.888-14.4,4.784-8.95v-6.284Z" transform="translate(-313.805 -235.207)" fill="#ae6e5a"/>
      <path id="Trazado_1037130" data-name="Trazado 1037130" d="M428.171,269.082v6.284a6.983,6.983,0,0,1-3.108,5.812,3.777,3.777,0,0,0-1.676,3.139l-1.888.794,1.888.793v12.816h3.777v-14.4a10.752,10.752,0,0,0,4.784-8.95v-6.284Z" transform="translate(-368.435 -235.207)" fill="#8d5d4d"/>
      <path id="Trazado_1037131" data-name="Trazado 1037131" d="M455.78,221a2.392,2.392,0,0,0-2.392,2.392L451.5,225.28l1.888,1.888a2.392,2.392,0,0,0,4.784,0v-3.777A2.392,2.392,0,0,0,455.78,221Z" transform="translate(-394.659 -193.178)" fill="#6c4b41"/>
      <path id="Trazado_1037132" data-name="Trazado 1037132" d="M417.78,206a2.392,2.392,0,0,0-2.392,2.392l-1.888,2.833,1.888,2.833a2.392,2.392,0,0,0,4.784,0v-5.665A2.392,2.392,0,0,0,417.78,206Z" transform="translate(-361.443 -180.066)" fill="#8d5d4d"/>
      <path id="Trazado_1037133" data-name="Trazado 1037133" d="M379.78,191a2.392,2.392,0,0,0-2.392,2.392l-1.888,7.554h6.672v-7.554A2.392,2.392,0,0,0,379.78,191Z" transform="translate(-328.227 -166.954)" fill="#6c4b41"/>
      <path id="Trazado_1037134" data-name="Trazado 1037134" d="M354.892,191a2.392,2.392,0,0,0-2.392,2.392v7.554h4.784v-7.554A2.392,2.392,0,0,0,354.892,191Z" transform="translate(-308.123 -166.954)" fill="#8d5d4d"/>
      <path id="Trazado_1037135" data-name="Trazado 1037135" d="M338.284,259.561v-3.777h4.784a2.392,2.392,0,0,0,2.389-2.508A2.436,2.436,0,0,0,343,251h-4.716a4.784,4.784,0,0,0-4.784,4.784v3.777A10.77,10.77,0,0,0,346.467,270.1v-2.354A8.183,8.183,0,0,0,338.284,259.561Z" transform="translate(-291.515 -219.401)" fill="#d7795c"/>
      <path id="Trazado_1037136" data-name="Trazado 1037136" d="M186.416,7.113a3.334,3.334,0,0,0-4.948-2.92A3.333,3.333,0,0,0,176.684,2.3a3.333,3.333,0,0,0-5.564-1.291,3.334,3.334,0,0,0-5.728,2.322V8.63A5.723,5.723,0,0,0,163,13.282v3.777a11.694,11.694,0,0,0,4.784,9.441V63.513a.944.944,0,0,0,.944.944h11.96a.944.944,0,0,0,.944-.944V26.5a11.693,11.693,0,0,0,4.784-9.441ZM183.08,5.665a1.449,1.449,0,0,1,1.448,1.448V10.89a1.448,1.448,0,1,1-2.9,0V7.113A1.449,1.449,0,0,1,183.08,5.665ZM178.3,3.777a1.449,1.449,0,0,1,1.448,1.448V10.89a1.448,1.448,0,1,1-2.9,0V5.225A1.449,1.449,0,0,1,178.3,3.777Zm-4.784-1.888a1.449,1.449,0,0,1,1.448,1.448V7.9a3.458,3.458,0,0,0-1.515-.347h-1.38V3.336A1.449,1.449,0,0,1,173.512,1.888ZM167.28,3.336a1.448,1.448,0,1,1,2.9,0V7.554h-1.448a5.721,5.721,0,0,0-1.448.186Zm12.882,21.888a.944.944,0,0,0-.419.785v36.56H169.672V26.009a.944.944,0,0,0-.419-.785,9.812,9.812,0,0,1-4.365-8.166V13.282a3.844,3.844,0,0,1,3.84-3.84h4.716a1.5,1.5,0,0,1,1.514,1.377,1.448,1.448,0,0,1-1.446,1.519h-4.784a.944.944,0,0,0-.944.944v3.777a.944.944,0,0,0,.944.944,7.245,7.245,0,0,1,6.348,3.759.944.944,0,0,0,1.655-.909,9.136,9.136,0,0,0-7.059-4.689V14.226h3.84a3.352,3.352,0,0,0,2.393-1.013,3.328,3.328,0,0,0,4.783,0,3.33,3.33,0,0,0,3.84.683v3.163a9.811,9.811,0,0,1-4.365,8.166Z" transform="translate(-142.479)"/>
      <path id="Trazado_1037137" data-name="Trazado 1037137" d="M20.08,187.277a3.316,3.316,0,0,0-1.612.416,3.333,3.333,0,0,0-4.784-1.888,3.333,3.333,0,0,0-5.564-1.291,3.334,3.334,0,0,0-5.728,2.322v5.294A5.723,5.723,0,0,0,0,196.782v3.777A11.694,11.694,0,0,0,4.784,210v1.323a.944.944,0,1,0,1.888,0v-1.814a.944.944,0,0,0-.419-.785,9.812,9.812,0,0,1-4.365-8.166v-3.777a3.844,3.844,0,0,1,3.84-3.84h4.716a1.5,1.5,0,0,1,1.513,1.377,1.448,1.448,0,0,1-1.446,1.519H5.728a.944.944,0,0,0-.944.944v3.777a.944.944,0,0,0,.944.944,7.245,7.245,0,0,1,6.348,3.759.944.944,0,0,0,1.655-.909,9.136,9.136,0,0,0-7.059-4.689v-1.937h3.84a3.352,3.352,0,0,0,2.393-1.013,3.328,3.328,0,0,0,4.783,0,3.33,3.33,0,0,0,3.84.683v3.163a9.811,9.811,0,0,1-4.365,8.166.944.944,0,0,0-.419.785v13.459H6.672V215.1a.944.944,0,0,0-1.888,0v8.812a.944.944,0,0,0,.944.944h11.96a.944.944,0,0,0,.944-.944V210a11.693,11.693,0,0,0,4.784-9.441v-9.946A3.34,3.34,0,0,0,20.08,187.277Zm-15.8,3.962v-4.4a1.448,1.448,0,1,1,2.9,0v4.217H5.728A5.721,5.721,0,0,0,4.28,191.239Zm6.164-.186H9.064v-4.217a1.448,1.448,0,1,1,2.9,0V191.4A3.459,3.459,0,0,0,10.444,191.054Zm4.852,4.784a1.449,1.449,0,0,1-1.448-1.448v-5.665a1.448,1.448,0,1,1,2.9,0v5.665A1.449,1.449,0,0,1,15.3,195.837Zm4.784,0a1.449,1.449,0,0,1-1.448-1.448v-3.777a1.448,1.448,0,1,1,2.9,0v3.777A1.449,1.449,0,0,1,20.08,195.837Z" transform="translate(0 -160.399)"/>
      <path id="Trazado_1037138" data-name="Trazado 1037138" d="M346.08,187.277a3.316,3.316,0,0,0-1.612.416,3.333,3.333,0,0,0-4.784-1.888,3.333,3.333,0,0,0-5.564-1.291,3.334,3.334,0,0,0-5.728,2.322v5.294A5.723,5.723,0,0,0,326,196.782v3.777A11.694,11.694,0,0,0,330.784,210v13.912a.944.944,0,0,0,.944.944h11.96a.944.944,0,0,0,.944-.944V210a11.693,11.693,0,0,0,4.784-9.441v-9.946A3.34,3.34,0,0,0,346.08,187.277Zm-4.784,0a1.449,1.449,0,0,1,1.448,1.448v5.665a1.448,1.448,0,1,1-2.9,0v-5.665A1.449,1.449,0,0,1,341.3,187.277Zm-4.784-1.888a1.449,1.449,0,0,1,1.448,1.448V191.4a3.459,3.459,0,0,0-1.515-.347h-1.38v-4.217A1.449,1.449,0,0,1,336.512,185.388Zm-6.232,1.448a1.448,1.448,0,1,1,2.9,0v4.217h-1.448a5.721,5.721,0,0,0-1.448.186Zm12.882,21.888a.944.944,0,0,0-.419.785v13.459H332.672V209.509a.944.944,0,0,0-.419-.785,9.812,9.812,0,0,1-4.365-8.166v-3.777a3.844,3.844,0,0,1,3.84-3.84h4.716a1.5,1.5,0,0,1,1.514,1.377,1.448,1.448,0,0,1-1.446,1.519h-4.784a.944.944,0,0,0-.944.944v3.777a.944.944,0,0,0,.944.944,7.245,7.245,0,0,1,6.348,3.759.944.944,0,0,0,1.655-.909,9.136,9.136,0,0,0-7.059-4.689v-1.937h3.84a3.351,3.351,0,0,0,2.393-1.013,3.328,3.328,0,0,0,4.783,0,3.33,3.33,0,0,0,3.84.683v3.163A9.811,9.811,0,0,1,343.163,208.724Zm2.917-12.887a1.449,1.449,0,0,1-1.448-1.448v-3.777a1.448,1.448,0,1,1,2.9,0v3.777A1.449,1.449,0,0,1,346.08,195.837Z" transform="translate(-284.959 -160.399)"/>
    </g>
  </g>
</svg>
