<svg xmlns="http://www.w3.org/2000/svg" xmlns:xlink="http://www.w3.org/1999/xlink" width="118" height="118" viewBox="0 0 118 118">
  <defs>
    <filter id="Trazado_896985" x="0" y="0" width="118" height="118" filterUnits="userSpaceOnUse">
      <feOffset dy="3" input="SourceAlpha"/>
      <feGaussianBlur stdDeviation="3" result="blur"/>
      <feFlood flood-opacity="0.161"/>
      <feComposite operator="in" in2="blur"/>
      <feComposite in="SourceGraphic"/>
    </filter>
  </defs>
  <g id="Grupo_1200627" data-name="Grupo 1200627" transform="translate(-741 -20088.611)">
    <g id="Grupo_1198862" data-name="Grupo 1198862" transform="translate(750 20094.611)">
      <g id="Grupo_1198135" data-name="Grupo 1198135">
        <g id="Grupo_1181847" data-name="Grupo 1181847" transform="translate(0)">
          <g id="Grupo_1111318" data-name="Grupo 1111318" transform="translate(0 0)">
            <g id="Grupo_1109826" data-name="Grupo 1109826" transform="translate(0)">
              <g id="Grupo_1098742" data-name="Grupo 1098742">
                <g transform="matrix(1, 0, 0, 1, -9, -6)" filter="url(#Trazado_896985)">
                  <g id="Trazado_896985-2" data-name="Trazado 896985" transform="translate(9 6)" fill="#9ad354" opacity="0.859">
                    <path d="M 49.99993133544922 99.49999237060547 C 43.31726455688477 99.49999237060547 36.83475875854492 98.19129943847656 30.73247718811035 95.61024475097656 C 24.8381175994873 93.11714172363281 19.54434394836426 89.54795074462891 14.99819755554199 85.00179290771484 C 10.4520378112793 80.45564270019531 6.882851123809814 75.16187286376953 4.389744758605957 69.26750946044922 C 1.808691382408142 63.16523361206055 0.4999980032444 56.68272399902344 0.4999980032444 50.00005722045898 C 0.4999980032444 43.3172607421875 1.808691382408142 36.83475112915039 4.389744758605957 30.73247146606445 C 6.882851123809814 24.83811187744141 10.4520378112793 19.54433822631836 14.99819755554199 14.99819278717041 C 19.54434394836426 10.45204544067383 24.8381175994873 6.882845878601074 30.73247718811035 4.389752388000488 C 36.83475875854492 1.808699011802673 43.31726455688477 0.5000057220458984 49.99993133544922 0.5000057220458984 C 56.68259811401367 0.5000057220458984 63.16510391235352 1.808699011802673 69.26738739013672 4.389752388000488 C 75.1617431640625 6.882845878601074 80.45552062988281 10.45204544067383 85.00166320800781 14.99819278717041 C 89.54782104492188 19.54433822631836 93.11701202392578 24.83811187744141 95.61011505126953 30.73247146606445 C 98.19116973876953 36.83475112915039 99.49986267089844 43.3172607421875 99.49986267089844 49.99992752075195 C 99.49986267089844 56.68272399902344 98.19116973876953 63.16523361206055 95.61011505126953 69.26750946044922 C 93.11701202392578 75.16187286376953 89.54782104492188 80.45564270019531 85.00166320800781 85.00179290771484 C 80.45552062988281 89.54795074462891 75.1617431640625 93.11714172363281 69.26738739013672 95.61024475097656 C 63.16510391235352 98.19129943847656 56.68259811401367 99.49999237060547 49.99993133544922 99.49999237060547 Z" stroke="none"/>
                    <path d="M 49.99993133544922 0.9999923706054688 C 43.38454437255859 0.9999923706054688 36.96757125854492 2.295402526855469 30.92725372314453 4.850242614746094 C 25.09249114990234 7.318138122558594 19.85213470458984 10.85134887695312 15.35174560546875 15.35173797607422 C 10.85135650634766 19.85212707519531 7.318145751953125 25.09248352050781 4.850250244140625 30.92724609375 C 2.29541015625 36.96756744384766 1 43.38454055786133 1 50.00005722045898 C 1 56.61544418334961 2.29541015625 63.03241729736328 4.850250244140625 69.07273864746094 C 7.318145751953125 74.90748596191406 10.85135650634766 80.14784240722656 15.35174560546875 84.64823150634766 C 19.85213470458984 89.14863586425781 25.09249114990234 92.68184661865234 30.92725372314453 95.14974212646484 C 36.96757125854492 97.70456695556641 43.38454437255859 98.99997711181641 49.99993133544922 98.99997711181641 C 56.61531829833984 98.99997711181641 63.03229141235352 97.70456695556641 69.07260894775391 95.14974212646484 C 74.90737152099609 92.68184661865234 80.14773559570312 89.14863586425781 84.64811706542969 84.64823150634766 C 89.14850616455078 80.14784240722656 92.68171691894531 74.90748596191406 95.14961242675781 69.07273864746094 C 97.70445251464844 63.03241729736328 98.99986267089844 56.61544418334961 98.99986267089844 49.99992752075195 C 98.99986267089844 43.38454055786133 97.70445251464844 36.96756744384766 95.14961242675781 30.92724609375 C 92.68171691894531 25.09248352050781 89.14850616455078 19.85212707519531 84.64811706542969 15.35173797607422 C 80.14773559570312 10.85134887695312 74.90737152099609 7.318138122558594 69.07260894775391 4.850242614746094 C 63.03229141235352 2.295402526855469 56.61531829833984 0.9999923706054688 49.99993133544922 0.9999923706054688 M 49.99993133544922 -7.62939453125e-06 C 77.6141357421875 -7.62939453125e-06 99.99986267089844 22.38572692871094 99.99986267089844 49.99992752075195 L 99.99986267089844 50.00005722045898 C 99.99986267089844 77.6142578125 77.6141357421875 99.99997711181641 49.99993133544922 99.99997711181641 C 22.38573455810547 99.99997711181641 0 77.6142578125 0 50.00005722045898 L 0 49.99992752075195 C 0 22.38572692871094 22.38573455810547 -7.62939453125e-06 49.99993133544922 -7.62939453125e-06 Z" stroke="none" fill="#fff"/>
                  </g>
                </g>
                <g id="Rectángulo_400907" data-name="Rectángulo 400907" transform="translate(0)" fill="none" stroke="#fff" stroke-width="1">
                  <rect width="100" height="100" rx="50" stroke="none"/>
                  <rect x="0.5" y="0.5" width="99" height="99" rx="49.5" fill="none"/>
                </g>
              </g>
            </g>
          </g>
        </g>
      </g>
    </g>
    <g id="city-hall_2278459" transform="translate(768.225 20112.836)">
      <g id="Grupo_1200625" data-name="Grupo 1200625" transform="translate(0.931 0.931)">
        <path id="Trazado_1036845" data-name="Trazado 1036845" d="M96.42,72.493a22.26,22.26,0,0,1,39.616,0l-20.062,6.174" transform="translate(-85.383 -53.825)" fill="#ffece7"/>
        <path id="Trazado_1036846" data-name="Trazado 1036846" d="M116.228,60.39c-3.776,0-7.049,4.918-8.663,12.1H96.42A22.251,22.251,0,0,1,116.228,60.39Z" transform="translate(-85.383 -53.825)" fill="#eacec8"/>
        <path id="Trazado_1036847" data-name="Trazado 1036847" d="M113.317,157.9h-42.2a2.111,2.111,0,0,0-2.111,2.111v6.89h46.421v-6.89A2.111,2.111,0,0,0,113.317,157.9Z" transform="translate(-61.372 -139.228)" fill="#ffece7"/>
        <path id="Trazado_1036848" data-name="Trazado 1036848" d="M82.35,157.9a2.11,2.11,0,0,0-2.11,2.11v6.89H69.008v-6.89a2.11,2.11,0,0,1,2.11-2.11Z" transform="translate(-61.373 -139.233)" fill="#eacec8"/>
        <path id="Trazado_1036849" data-name="Trazado 1036849" d="M88.786,207.641H38.853a2.268,2.268,0,0,0-2.268,2.268v31.744H91.054V209.909A2.268,2.268,0,0,0,88.786,207.641Z" transform="translate(-32.975 -182.799)" fill="#ffece7"/>
        <path id="Trazado_1036850" data-name="Trazado 1036850" d="M41.1,207.644a2.268,2.268,0,0,0-2.268,2.268v31.744H36.585V209.912a2.268,2.268,0,0,1,2.268-2.268Z" transform="translate(-32.975 -182.801)" fill="#eacec8"/>
        <path id="Trazado_1036851" data-name="Trazado 1036851" d="M180.463,314.054h18.9v19.565h-18.9Z" transform="translate(-158.994 -276.003)" fill="#cba59d"/>
        <g id="Grupo_1200618" data-name="Grupo 1200618" transform="translate(19.391 37.968)">
          <path id="Trazado_1036852" data-name="Trazado 1036852" d="M163.72,313.39h3.894v19.327H163.72Z" transform="translate(-163.72 -313.39)" fill="#eacec8"/>
          <path id="Trazado_1036853" data-name="Trazado 1036853" d="M163.72,313.389h1.552v19.328H163.72Z" transform="translate(-163.72 -313.389)" fill="#e2c1b9"/>
          <path id="Trazado_1036854" data-name="Trazado 1036854" d="M240.31,314.56h3.9v19.327h-3.9Z" transform="translate(-230.803 -314.415)" fill="#eacec8"/>
          <path id="Trazado_1036855" data-name="Trazado 1036855" d="M316.91,313.39H320.8v19.327H316.91Z" transform="translate(-297.895 -313.39)" fill="#eacec8"/>
          <g id="Grupo_1200617" data-name="Grupo 1200617">
            <path id="Trazado_1036856" data-name="Trazado 1036856" d="M240.313,314.559h1.552v19.328h-1.552Z" transform="translate(-230.806 -314.414)" fill="#e2c1b9"/>
            <path id="Trazado_1036857" data-name="Trazado 1036857" d="M316.9,313.389h1.552v19.328H316.9Z" transform="translate(-297.891 -313.389)" fill="#e2c1b9"/>
            <path id="Trazado_1036858" data-name="Trazado 1036858" d="M163.72,313.39h3.894v3.617H163.72Z" transform="translate(-163.72 -313.39)" fill="#e2c1b9"/>
            <path id="Trazado_1036859" data-name="Trazado 1036859" d="M240.31,314.56h3.9v3.472h-3.9Z" transform="translate(-230.803 -314.415)" fill="#e2c1b9"/>
            <path id="Trazado_1036860" data-name="Trazado 1036860" d="M316.91,313.39H320.8v3.617H316.91Z" transform="translate(-297.895 -313.39)" fill="#e2c1b9"/>
          </g>
        </g>
        <path id="Trazado_1036861" data-name="Trazado 1036861" d="M170.9,293.928H147.992a2.229,2.229,0,1,1,0-4.458H170.9a2.229,2.229,0,1,1,0,4.458Z" transform="translate(-128.601 -254.471)" fill="#eacec8"/>
        <g id="Grupo_1200619" data-name="Grupo 1200619" transform="translate(7.812 39.33)">
          <path id="Trazado_1036862" data-name="Trazado 1036862" d="M388.369,335.137h-4.034A1.636,1.636,0,0,1,382.7,333.5V326a1.636,1.636,0,0,1,1.636-1.636h4.034A1.636,1.636,0,0,1,390,326v7.5A1.636,1.636,0,0,1,388.369,335.137Z" transform="translate(-343.94 -324.364)" fill="#daf1f4"/>
          <path id="Trazado_1036863" data-name="Trazado 1036863" d="M77.746,326v7.5a1.637,1.637,0,0,1-1.636,1.637H72.076a1.546,1.546,0,0,1-.228-.016A1.64,1.64,0,0,1,70.44,333.5V326a1.636,1.636,0,0,1,1.636-1.636H76.11a1.217,1.217,0,0,1,.134.006A1.635,1.635,0,0,1,77.746,326Z" transform="translate(-70.44 -324.36)" fill="#daf1f4"/>
        </g>
        <g id="Grupo_1200620" data-name="Grupo 1200620" transform="translate(7.812 39.33)">
          <path id="Trazado_1036864" data-name="Trazado 1036864" d="M74.952,324.36,70.8,334.518a1.625,1.625,0,0,1-.359-1.022V326a1.636,1.636,0,0,1,1.636-1.636Z" transform="translate(-70.44 -324.36)" fill="#fff"/>
          <path id="Trazado_1036865" data-name="Trazado 1036865" d="M87.678,326.04v.359l-3.59,8.779h-2.08a1.546,1.546,0,0,1-.228-.016l4.4-10.752A1.635,1.635,0,0,1,87.678,326.04Z" transform="translate(-80.372 -324.404)" fill="#fff"/>
        </g>
        <g id="Grupo_1200621" data-name="Grupo 1200621" transform="translate(46.571 39.331)">
          <path id="Trazado_1036866" data-name="Trazado 1036866" d="M387.21,324.365l-4.153,10.158a1.626,1.626,0,0,1-.359-1.022V326a1.636,1.636,0,0,1,1.636-1.636Z" transform="translate(-382.698 -324.365)" fill="#fff"/>
          <path id="Trazado_1036867" data-name="Trazado 1036867" d="M399.936,326.045v.359l-3.59,8.779h-2.08a1.542,1.542,0,0,1-.228-.016l4.4-10.752A1.634,1.634,0,0,1,399.936,326.045Z" transform="translate(-392.63 -324.409)" fill="#fff"/>
        </g>
        <g id="Grupo_1200622" data-name="Grupo 1200622" transform="translate(7.813 27.963)">
          <path id="Trazado_1036868" data-name="Trazado 1036868" d="M76.386,236.742H72.423a1.981,1.981,0,0,1,0-3.963h3.963a1.981,1.981,0,0,1,0,3.963Z" transform="translate(-70.442 -232.779)" fill="#daf1f4"/>
          <path id="Trazado_1036869" data-name="Trazado 1036869" d="M178.809,236.742h-3.963a1.981,1.981,0,0,1,0-3.963h3.963a1.981,1.981,0,0,1,0,3.963Z" transform="translate(-160.152 -232.779)" fill="#daf1f4"/>
          <path id="Trazado_1036870" data-name="Trazado 1036870" d="M281.231,236.742h-3.963a1.981,1.981,0,0,1,0-3.963h3.963a1.981,1.981,0,1,1,0,3.963Z" transform="translate(-249.861 -232.779)" fill="#daf1f4"/>
          <path id="Trazado_1036871" data-name="Trazado 1036871" d="M383.654,236.742h-3.963a1.981,1.981,0,1,1,0-3.963h3.963a1.981,1.981,0,1,1,0,3.963Z" transform="translate(-339.57 -232.779)" fill="#daf1f4"/>
        </g>
        <g id="Grupo_1200623" data-name="Grupo 1200623" transform="translate(0.567 46.787)">
          <path id="Trazado_1036872" data-name="Trazado 1036872" d="M392.574,386.374a2.785,2.785,0,0,0-.358.023,4.365,4.365,0,0,0-7.277,0,2.784,2.784,0,0,0-.358-.023c-1.862,0-3.371,1.847-3.371,4.126s1.509,4.126,3.371,4.126a2.78,2.78,0,0,0,.358-.023,4.365,4.365,0,0,0,7.277,0,2.778,2.778,0,0,0,.358.023c1.862,0,3.371-1.847,3.371-4.126S394.436,386.374,392.574,386.374Z" transform="translate(-335.39 -384.443)" fill="#bcdf95"/>
          <path id="Trazado_1036873" data-name="Trazado 1036873" d="M390.436,396.106a4.162,4.162,0,0,1-1.858.442,4.582,4.582,0,0,1-3.638-1.954,2.844,2.844,0,0,1-.359.024c-1.862,0-3.371-1.848-3.371-4.126s1.509-4.127,3.371-4.127a2.855,2.855,0,0,1,.359.024,4.582,4.582,0,0,1,3.638-1.954,4.162,4.162,0,0,1,1.858.442,5.078,5.078,0,0,0-1.781,1.512,2.871,2.871,0,0,0-.359-.024c-1.862,0-3.371,1.848-3.371,4.127s1.509,4.126,3.371,4.126a2.859,2.859,0,0,0,.359-.024A5.076,5.076,0,0,0,390.436,396.106Z" transform="translate(-335.391 -384.435)" fill="#93c8a5"/>
          <path id="Trazado_1036874" data-name="Trazado 1036874" d="M23.437,386.374a2.786,2.786,0,0,0-.358.023,4.581,4.581,0,0,0-3.639-1.954A4.581,4.581,0,0,0,15.8,386.4a2.784,2.784,0,0,0-.358-.023c-1.862,0-3.371,1.847-3.371,4.126s1.509,4.126,3.371,4.126a2.78,2.78,0,0,0,.358-.023,4.581,4.581,0,0,0,3.639,1.954,4.581,4.581,0,0,0,3.639-1.954,2.779,2.779,0,0,0,.358.023c1.862,0,3.371-1.847,3.371-4.126S25.3,386.374,23.437,386.374Z" transform="translate(-12.072 -384.443)" fill="#bcdf95"/>
          <path id="Trazado_1036875" data-name="Trazado 1036875" d="M21.3,396.106a4.163,4.163,0,0,1-1.858.442,4.582,4.582,0,0,1-3.638-1.954,2.843,2.843,0,0,1-.359.024c-1.862,0-3.371-1.848-3.371-4.126s1.509-4.127,3.371-4.127a2.855,2.855,0,0,1,.359.024,4.582,4.582,0,0,1,3.638-1.954,4.163,4.163,0,0,1,1.858.442,5.078,5.078,0,0,0-1.781,1.512,2.87,2.87,0,0,0-.359-.024c-1.862,0-3.371,1.848-3.371,4.127s1.509,4.126,3.371,4.126a2.859,2.859,0,0,0,.359-.024A5.076,5.076,0,0,0,21.3,396.106Z" transform="translate(-12.073 -384.435)" fill="#93c8a5"/>
        </g>
        <g id="Grupo_1200624" data-name="Grupo 1200624" transform="translate(0 55.952)">
          <path id="Trazado_1036876" data-name="Trazado 1036876" d="M66.321,458.277H10.369a2.869,2.869,0,0,0,0,5.738H66.321a2.869,2.869,0,1,0,0-5.738Z" transform="translate(-7.5 -458.277)" fill="#bcdf95"/>
          <path id="Trazado_1036877" data-name="Trazado 1036877" d="M19.4,463.175a2.86,2.86,0,0,0,2.028.84H10.369a2.869,2.869,0,0,1,0-5.737H21.43a2.868,2.868,0,0,0-2.028,4.9Z" transform="translate(-7.5 -458.278)" fill="#93c8a5"/>
        </g>
        <path id="Trazado_1036878" data-name="Trazado 1036878" d="M256,7.5h4.576v2.925H256Z" transform="translate(-225.155 -7.5)" fill="#df75a5"/>
        <path id="Trazado_1036879" data-name="Trazado 1036879" d="M406.7,10.153a3.264,3.264,0,0,0-1.231.24A4.6,4.6,0,1,0,401.2,16.7h5.5a3.274,3.274,0,1,0,0-6.548Z" transform="translate(-348.304 -7.5)" fill="#b1e4f9"/>
        <path id="Trazado_1036880" data-name="Trazado 1036880" d="M402.859,16.7H401.2a4.6,4.6,0,0,1,0-9.2,4.682,4.682,0,0,1,.829.074,4.6,4.6,0,0,0,.829,9.126Z" transform="translate(-348.304 -7.503)" fill="#93d8e4"/>
        <path id="Trazado_1036881" data-name="Trazado 1036881" d="M10.234,45.548a2.724,2.724,0,0,1,1.028.2,3.841,3.841,0,1,1,3.566,5.266H10.234a2.733,2.733,0,0,1,0-5.467Z" transform="translate(-7.501 -38.885)" fill="#b1e4f9"/>
        <path id="Trazado_1036882" data-name="Trazado 1036882" d="M17.238,44.18a3.839,3.839,0,0,0-4.953,2.156A2.733,2.733,0,0,0,9.41,50.882a2.734,2.734,0,1,1,1.851-5.14,3.838,3.838,0,0,1,5.977-1.563Z" transform="translate(-7.5 -38.88)" fill="#93d8e4"/>
      </g>
      <g id="Grupo_1200626" data-name="Grupo 1200626" transform="translate(0 0)">
        <path id="Trazado_1036883" data-name="Trazado 1036883" d="M65.854,231.1h3.963a2.912,2.912,0,0,0,0-5.824H65.854a2.912,2.912,0,1,0,0,5.824Zm0-3.963h3.963a1.05,1.05,0,1,1,0,2.1H65.854a1.05,1.05,0,1,1,0-2.1Z" transform="translate(-55.129 -197.316)"/>
        <path id="Trazado_1036884" data-name="Trazado 1036884" d="M168.276,231.1h3.963a2.912,2.912,0,0,0,0-5.824h-3.963a2.912,2.912,0,1,0,0,5.824Zm0-3.963h3.963a1.05,1.05,0,1,1,0,2.1h-3.963a1.05,1.05,0,1,1,0-2.1Z" transform="translate(-144.838 -197.316)"/>
        <path id="Trazado_1036885" data-name="Trazado 1036885" d="M270.7,231.1h3.963a2.912,2.912,0,1,0,0-5.824H270.7a2.912,2.912,0,0,0,0,5.824Zm0-3.963h3.963a1.05,1.05,0,1,1,0,2.1H270.7a1.05,1.05,0,0,1,0-2.1Z" transform="translate(-234.548 -197.316)"/>
        <path id="Trazado_1036886" data-name="Trazado 1036886" d="M373.122,231.1h3.963a2.912,2.912,0,0,0,0-5.824h-3.963a2.912,2.912,0,1,0,0,5.824Zm0-3.963h3.963a1.05,1.05,0,1,1,0,2.1h-3.963a1.05,1.05,0,0,1,0-2.1Z" transform="translate(-324.258 -197.316)"/>
        <path id="Trazado_1036887" data-name="Trazado 1036887" d="M62.136,56.8a5.646,5.646,0,0,0,.848-3.021,5.035,5.035,0,0,0-3.044-4.836v-20.9a3.2,3.2,0,0,0-3.2-3.2h-.825V21.71a3.045,3.045,0,0,0-3.042-3.042h-.734a23.276,23.276,0,0,0-7.892-8.462.931.931,0,0,0-1,1.569,21.419,21.419,0,0,1,6.746,6.894H13.556a21.344,21.344,0,0,1,26.535-8.559A.931.931,0,1,0,40.818,8.4a23,23,0,0,0-8.111-1.81v-1.8h3.644a.931.931,0,0,0,.931-.931V.931A.931.931,0,0,0,36.351,0H31.776a.931.931,0,0,0-.931.931V6.584A23.167,23.167,0,0,0,11.411,18.668h-.734A3.045,3.045,0,0,0,7.635,21.71v3.133H6.809a3.2,3.2,0,0,0-3.2,3.2v20.9A5.036,5.036,0,0,0,.567,53.776,5.646,5.646,0,0,0,1.415,56.8,3.8,3.8,0,0,0,3.8,63.552H59.752A3.8,3.8,0,0,0,62.136,56.8ZM35.42,2.925H32.707V1.862H35.42Zm25.7,50.851a3.754,3.754,0,0,1-.706,2.236,3.808,3.808,0,0,0-.665-.059H48.911a3.751,3.751,0,0,1-.662-2.177c0-1.762,1.095-3.2,2.44-3.2a1.913,1.913,0,0,1,.24.016.931.931,0,0,0,.861-.363,3.439,3.439,0,0,1,5.79,0,.931.931,0,0,0,.86.364,1.926,1.926,0,0,1,.242-.016,1.9,1.9,0,0,1,.229.015h.007c1.235.156,2.2,1.523,2.2,3.181ZM48.433,49.4V41.9a.706.706,0,0,1,.705-.705h4.034a.706.706,0,0,1,.705.705v4.958a5.573,5.573,0,0,0-3.254,1.863,3.821,3.821,0,0,0-2.186.749.673.673,0,0,1,0-.069ZM9.5,21.71a1.181,1.181,0,0,1,1.18-1.18h42.2a1.181,1.181,0,0,1,1.18,1.18v3.133H9.5ZM6.809,26.7H56.742a1.338,1.338,0,0,1,1.337,1.337V48.067a5.436,5.436,0,0,0-2.34-1.165V41.9a2.57,2.57,0,0,0-2.567-2.567H49.138A2.57,2.57,0,0,0,46.571,41.9v7.5a2.571,2.571,0,0,0,.539,1.573,5.674,5.674,0,0,0-.724,2.805,5.828,5.828,0,0,0,.419,2.177H44.161V41.179A3.16,3.16,0,0,0,43.23,35H20.322a3.16,3.16,0,0,0-.931,6.18V55.952H16.746a5.828,5.828,0,0,0,.419-2.177,5.674,5.674,0,0,0-.724-2.805A2.572,2.572,0,0,0,16.98,49.4V41.9a2.57,2.57,0,0,0-2.567-2.567H10.379A2.57,2.57,0,0,0,7.812,41.9V46.9a5.439,5.439,0,0,0-2.34,1.165V28.041A1.339,1.339,0,0,1,6.809,26.7ZM25.146,55.952V48.261a.931.931,0,1,0-1.862,0V55.83H21.253V41.319h2.032v3.218a.931.931,0,0,0,1.862,0V41.319H28.9V55.952Zm15.12-14.633H42.3v14.51H40.267Zm2.963-1.862H20.316a1.3,1.3,0,0,1,.006-2.6H43.23a1.3,1.3,0,0,1,0,2.6ZM30.76,41.442h2.033v14.51H30.76Zm3.894-.123H38.4V55.952H34.654ZM15.118,49.4c0,.023,0,.046,0,.069a3.821,3.821,0,0,0-2.186-.749,5.573,5.573,0,0,0-3.254-1.863V41.9a.706.706,0,0,1,.705-.705h4.034a.706.706,0,0,1,.705.705v7.5ZM2.429,53.776c0-1.658.969-3.025,2.2-3.181H4.64a1.872,1.872,0,0,1,.229-.015,1.927,1.927,0,0,1,.242.016.931.931,0,0,0,.86-.364,3.634,3.634,0,0,1,2.894-1.583,3.638,3.638,0,0,1,2.9,1.583.931.931,0,0,0,.861.363,1.912,1.912,0,0,1,.24-.016c1.346,0,2.44,1.434,2.44,3.2a3.752,3.752,0,0,1-.662,2.177H3.8a3.808,3.808,0,0,0-.665.059,3.755,3.755,0,0,1-.706-2.236ZM59.752,61.69H3.8a1.938,1.938,0,0,1,0-3.876H59.752a1.938,1.938,0,0,1,0,3.876Z" transform="translate(0 0)"/>
        <path id="Trazado_1036888" data-name="Trazado 1036888" d="M394.632,11.063h5.5a4.205,4.205,0,1,0-.739-8.345,5.532,5.532,0,1,0-4.764,8.345Zm0-9.2A3.653,3.653,0,0,1,398.04,4.17a.931.931,0,0,0,1.215.517,2.343,2.343,0,1,1,.88,4.515h-5.5a3.67,3.67,0,0,1,0-7.339Z" transform="translate(-340.804 0)"/>
        <path id="Trazado_1036889" data-name="Trazado 1036889" d="M3.664,45.376H8.258A4.772,4.772,0,1,0,4.2,38.087a3.665,3.665,0,1,0-.539,7.289Zm0-5.467a1.791,1.791,0,0,1,.677.132.931.931,0,0,0,1.214-.517,2.91,2.91,0,1,1,2.7,3.99H3.664a1.8,1.8,0,0,1,0-3.605Z" transform="translate(0 -31.385)"/>
      </g>
    </g>
  </g>
</svg>
