<svg xmlns="http://www.w3.org/2000/svg" xmlns:xlink="http://www.w3.org/1999/xlink" width="118" height="118" viewBox="0 0 118 118">
  <defs>
    <filter id="Trazado_896985" x="0" y="0" width="118" height="118" filterUnits="userSpaceOnUse">
      <feOffset dy="3" input="SourceAlpha"/>
      <feGaussianBlur stdDeviation="3" result="blur"/>
      <feFlood flood-opacity="0.161"/>
      <feComposite operator="in" in2="blur"/>
      <feComposite in="SourceGraphic"/>
    </filter>
  </defs>
  <g id="Grupo_1200630" data-name="Grupo 1200630" transform="translate(-1161 -20092.934)">
    <g id="Grupo_1198863" data-name="Grupo 1198863" transform="translate(1170 20098.934)">
      <g id="Grupo_1198135" data-name="Grupo 1198135">
        <g id="Grupo_1181847" data-name="Grupo 1181847" transform="translate(0)">
          <g id="Grupo_1111318" data-name="Grupo 1111318" transform="translate(0 0)">
            <g id="Grupo_1109826" data-name="Grupo 1109826" transform="translate(0)">
              <g id="Grupo_1098742" data-name="Grupo 1098742">
                <g transform="matrix(1, 0, 0, 1, -9, -6)" filter="url(#Trazado_896985)">
                  <g id="Trazado_896985-2" data-name="Trazado 896985" transform="translate(9 6)" fill="#9ad354" opacity="0.859">
                    <path d="M 49.99993133544922 99.49999237060547 C 43.31726455688477 99.49999237060547 36.83475875854492 98.19129943847656 30.73247718811035 95.61024475097656 C 24.8381175994873 93.11714172363281 19.54434394836426 89.54795074462891 14.99819755554199 85.00179290771484 C 10.4520378112793 80.45564270019531 6.882851123809814 75.16187286376953 4.389744758605957 69.26750946044922 C 1.808691382408142 63.16523361206055 0.4999980032444 56.68272399902344 0.4999980032444 50.00005722045898 C 0.4999980032444 43.3172607421875 1.808691382408142 36.83475112915039 4.389744758605957 30.73247146606445 C 6.882851123809814 24.83811187744141 10.4520378112793 19.54433822631836 14.99819755554199 14.99819278717041 C 19.54434394836426 10.45204544067383 24.8381175994873 6.882845878601074 30.73247718811035 4.389752388000488 C 36.83475875854492 1.808699011802673 43.31726455688477 0.5000057220458984 49.99993133544922 0.5000057220458984 C 56.68259811401367 0.5000057220458984 63.16510391235352 1.808699011802673 69.26738739013672 4.389752388000488 C 75.1617431640625 6.882845878601074 80.45552062988281 10.45204544067383 85.00166320800781 14.99819278717041 C 89.54782104492188 19.54433822631836 93.11701202392578 24.83811187744141 95.61011505126953 30.73247146606445 C 98.19116973876953 36.83475112915039 99.49986267089844 43.3172607421875 99.49986267089844 49.99992752075195 C 99.49986267089844 56.68272399902344 98.19116973876953 63.16523361206055 95.61011505126953 69.26750946044922 C 93.11701202392578 75.16187286376953 89.54782104492188 80.45564270019531 85.00166320800781 85.00179290771484 C 80.45552062988281 89.54795074462891 75.1617431640625 93.11714172363281 69.26738739013672 95.61024475097656 C 63.16510391235352 98.19129943847656 56.68259811401367 99.49999237060547 49.99993133544922 99.49999237060547 Z" stroke="none"/>
                    <path d="M 49.99993133544922 0.9999923706054688 C 43.38454437255859 0.9999923706054688 36.96757125854492 2.295402526855469 30.92725372314453 4.850242614746094 C 25.09249114990234 7.318138122558594 19.85213470458984 10.85134887695312 15.35174560546875 15.35173797607422 C 10.85135650634766 19.85212707519531 7.318145751953125 25.09248352050781 4.850250244140625 30.92724609375 C 2.29541015625 36.96756744384766 1 43.38454055786133 1 50.00005722045898 C 1 56.61544418334961 2.29541015625 63.03241729736328 4.850250244140625 69.07273864746094 C 7.318145751953125 74.90748596191406 10.85135650634766 80.14784240722656 15.35174560546875 84.64823150634766 C 19.85213470458984 89.14863586425781 25.09249114990234 92.68184661865234 30.92725372314453 95.14974212646484 C 36.96757125854492 97.70456695556641 43.38454437255859 98.99997711181641 49.99993133544922 98.99997711181641 C 56.61531829833984 98.99997711181641 63.03229141235352 97.70456695556641 69.07260894775391 95.14974212646484 C 74.90737152099609 92.68184661865234 80.14773559570312 89.14863586425781 84.64811706542969 84.64823150634766 C 89.14850616455078 80.14784240722656 92.68171691894531 74.90748596191406 95.14961242675781 69.07273864746094 C 97.70445251464844 63.03241729736328 98.99986267089844 56.61544418334961 98.99986267089844 49.99992752075195 C 98.99986267089844 43.38454055786133 97.70445251464844 36.96756744384766 95.14961242675781 30.92724609375 C 92.68171691894531 25.09248352050781 89.14850616455078 19.85212707519531 84.64811706542969 15.35173797607422 C 80.14773559570312 10.85134887695312 74.90737152099609 7.318138122558594 69.07260894775391 4.850242614746094 C 63.03229141235352 2.295402526855469 56.61531829833984 0.9999923706054688 49.99993133544922 0.9999923706054688 M 49.99993133544922 -7.62939453125e-06 C 77.6141357421875 -7.62939453125e-06 99.99986267089844 22.38572692871094 99.99986267089844 49.99992752075195 L 99.99986267089844 50.00005722045898 C 99.99986267089844 77.6142578125 77.6141357421875 99.99997711181641 49.99993133544922 99.99997711181641 C 22.38573455810547 99.99997711181641 0 77.6142578125 0 50.00005722045898 L 0 49.99992752075195 C 0 22.38572692871094 22.38573455810547 -7.62939453125e-06 49.99993133544922 -7.62939453125e-06 Z" stroke="none" fill="#fff"/>
                  </g>
                </g>
                <g id="Rectángulo_400907" data-name="Rectángulo 400907" transform="translate(0)" fill="none" stroke="#fff" stroke-width="1">
                  <rect width="100" height="100" rx="50" stroke="none"/>
                  <rect x="0.5" y="0.5" width="99" height="99" rx="49.5" fill="none"/>
                </g>
              </g>
            </g>
          </g>
        </g>
      </g>
    </g>
    <g id="flags_9531199" transform="translate(1179.951 20111.979)">
      <g id="Grupo_1200628" data-name="Grupo 1200628" transform="translate(7.5 7.5)">
        <rect id="Rectángulo_408857" data-name="Rectángulo 408857" width="17.683" height="10.806" transform="translate(8.973 3.93)" fill="#fdef8e"/>
        <path id="Trazado_1036890" data-name="Trazado 1036890" d="M171.9,69.861v6.567H166v4.239h17.683V76.428H177.79V69.861Z" transform="translate(-145.24 -61.693)" fill="#5ceaee" fill-rule="evenodd"/>
        <rect id="Rectángulo_408858" data-name="Rectángulo 408858" width="17.683" height="10.806" transform="translate(32.55 3.93)" fill="#69a2ff"/>
        <path id="Trazado_1036891" data-name="Trazado 1036891" d="M346,74.377v3.929h17.683V67.5H351.893v6.877Z" transform="translate(-301.661 -59.641)" fill="#6bd24d" fill-rule="evenodd"/>
        <path id="Trazado_1036892" data-name="Trazado 1036892" d="M61.888,259.929a2.956,2.956,0,0,0-2.947,2.947v9.467a4.912,4.912,0,1,1-9.824,0V266.66a2.956,2.956,0,0,0-2.947-2.947H43.585a2.956,2.956,0,0,0-2.947,2.947v5.591A32.571,32.571,0,0,0,84.887,284.33a2.956,2.956,0,0,0-2.943-2.787,2.947,2.947,0,0,1,0-5.894H83.86a2.947,2.947,0,1,0,0-5.894H81.124a4.912,4.912,0,1,1,0-9.824h7.5a2.956,2.956,0,0,0,2.947-2.947V256H67.733c0,2.6-1.441,3.93-3.144,3.93h-2.7Z" transform="translate(-36.297 -223.45)" fill="#acf3f9" fill-rule="evenodd"/>
        <path id="Trazado_1036893" data-name="Trazado 1036893" d="M52.326,259.929a4.912,4.912,0,0,0,0,9.824h2.737a2.947,2.947,0,1,1,0,5.894H53.147a2.947,2.947,0,0,0,0,5.894,2.956,2.956,0,0,1,2.943,2.788A32.539,32.539,0,0,0,72.6,256H62.776v.982a2.956,2.956,0,0,1-2.947,2.947h-7.5ZM7.5,256a32.4,32.4,0,0,0,4.341,16.251v-5.591a2.956,2.956,0,0,1,2.947-2.947h2.585a2.956,2.956,0,0,1,2.947,2.947v5.684a4.912,4.912,0,1,0,9.824,0v-9.467a2.956,2.956,0,0,1,2.947-2.947h2.7c1.7,0,3.144-1.326,3.144-3.93H7.5Z" transform="translate(-7.5 -223.449)" fill="#a9e899" fill-rule="evenodd"/>
        <path id="Trazado_1036894" data-name="Trazado 1036894" d="M62.967,11.43A1.965,1.965,0,1,0,61,9.465a1.965,1.965,0,0,0,1.965,1.965ZM84.579,9.465A1.965,1.965,0,1,0,86.544,7.5,1.965,1.965,0,0,0,84.579,9.465Z" transform="translate(-53.994 -7.5)" fill="#fdef8e" fill-rule="evenodd"/>
        <path id="Trazado_1036895" data-name="Trazado 1036895" d="M64.932,227.965a1.965,1.965,0,0,0-3.93,0v1.965h3.93v-1.965Zm31.436,0v1.965h3.93v-1.965a1.965,1.965,0,0,0-3.93,0Zm-11.788,0v1.965h3.93v-1.965a1.965,1.965,0,0,0-3.93,0Zm-11.789,0v1.965h3.93v-1.965a1.965,1.965,0,0,0-3.93,0Z" transform="translate(-53.994 -197.38)" fill="#fee026" fill-rule="evenodd"/>
        <path id="Trazado_1036896" data-name="Trazado 1036896" d="M7.5,256a32.4,32.4,0,0,0,4.341,16.251V266.66a2.921,2.921,0,0,1,.121-.833A32.509,32.509,0,0,1,10.447,256Z" transform="translate(-7.5 -223.45)" fill="#6bd24d" fill-rule="evenodd"/>
        <path id="Trazado_1036897" data-name="Trazado 1036897" d="M40.759,331.025a2.922,2.922,0,0,0-.121.833v5.591a32.537,32.537,0,0,0,28.209,16.3q.751,0,1.493-.034A32.552,32.552,0,0,1,40.759,331.025Z" transform="translate(-36.297 -288.648)" fill="#5ceaee" fill-rule="evenodd"/>
        <rect id="Rectángulo_408859" data-name="Rectángulo 408859" width="2.947" height="10.806" transform="translate(8.973 3.93)" fill="#fee026"/>
        <rect id="Rectángulo_408860" data-name="Rectángulo 408860" width="2.947" height="10.806" transform="translate(32.55 3.93)" fill="#3469f5"/>
        <path id="Trazado_1036898" data-name="Trazado 1036898" d="M327.429,67.5h1.965m-5.894,0h1.965" transform="translate(-282.108 -59.641)" fill="none" stroke="#fff" stroke-miterlimit="22.926" stroke-width="2" fill-rule="evenodd"/>
      </g>
      <g id="Grupo_1200629" data-name="Grupo 1200629" transform="translate(7.5 7.5)">
        <path id="Trazado_1036899" data-name="Trazado 1036899" d="M63.771,278.286A32.433,32.433,0,0,0,72.6,256H7.5a32.548,32.548,0,0,0,54.836,23.721" transform="translate(-7.5 -223.45)" fill="none" stroke="#000" stroke-miterlimit="22.926" stroke-width="2" fill-rule="evenodd"/>
        <path id="Trazado_1036900" data-name="Trazado 1036900" d="M67.733,256c0,2.6-1.441,3.93-3.144,3.93h-2.7a2.956,2.956,0,0,0-2.947,2.947v9.467a4.912,4.912,0,1,1-9.824,0V266.66a2.956,2.956,0,0,0-2.947-2.947H43.585a2.956,2.956,0,0,0-2.947,2.947v5.591" transform="translate(-36.297 -223.45)" fill="none" stroke="#000" stroke-miterlimit="22.926" stroke-width="2" fill-rule="evenodd"/>
        <path id="Trazado_1036901" data-name="Trazado 1036901" d="M320.9,284.329a2.956,2.956,0,0,0-2.943-2.788,2.947,2.947,0,1,1,0-5.894h1.916a2.947,2.947,0,0,0,0-5.894h-2.737a4.912,4.912,0,0,1,0-9.824h7.5a2.956,2.956,0,0,0,2.947-2.947V256" transform="translate(-272.31 -223.45)" fill="none" stroke="#000" stroke-miterlimit="22.926" stroke-width="2" fill-rule="evenodd"/>
        <path id="Trazado_1036902" data-name="Trazado 1036902" d="M241,229.93v-1.965a1.965,1.965,0,1,1,3.93,0v1.965" transform="translate(-210.415 -197.38)" fill="none" stroke="#000" stroke-miterlimit="22.926" stroke-width="2" fill-rule="evenodd"/>
        <line id="Línea_851" data-name="Línea 851" y1="24.691" transform="translate(32.55 3.93)" fill="none" stroke="#000" stroke-miterlimit="22.926" stroke-width="2"/>
        <circle id="Elipse_12248" data-name="Elipse 12248" cx="1.965" cy="1.965" r="1.965" transform="translate(30.585 0)" fill="none" stroke="#000" stroke-miterlimit="22.926" stroke-width="2"/>
        <path id="Trazado_1036903" data-name="Trazado 1036903" d="M256,37.5h17.683V48.306H256" transform="translate(-223.45 -33.57)" fill="none" stroke="#000" stroke-miterlimit="22.926" stroke-width="2" fill-rule="evenodd"/>
        <path id="Trazado_1036904" data-name="Trazado 1036904" d="M331,229.93v-1.965a1.965,1.965,0,1,1,3.93,0v1.965" transform="translate(-288.626 -197.38)" fill="none" stroke="#000" stroke-miterlimit="22.926" stroke-width="2" fill-rule="evenodd"/>
        <path id="Trazado_1036905" data-name="Trazado 1036905" d="M346,88.261V74.377m5.894-6.877h11.789V78.306H346" transform="translate(-301.661 -59.641)" fill="none" stroke="#000" stroke-miterlimit="22.926" stroke-width="2" fill-rule="evenodd"/>
        <path id="Trazado_1036906" data-name="Trazado 1036906" d="M151,229.93v-1.965a1.965,1.965,0,0,1,3.93,0v1.965" transform="translate(-132.205 -197.38)" fill="none" stroke="#000" stroke-miterlimit="22.926" stroke-width="2" fill-rule="evenodd"/>
        <path id="Trazado_1036907" data-name="Trazado 1036907" d="M241,229.93v-1.965a1.965,1.965,0,1,1,3.93,0v1.965" transform="translate(-210.415 -197.38)" fill="none" stroke="#000" stroke-miterlimit="22.926" stroke-width="2" fill-rule="evenodd"/>
        <path id="Trazado_1036908" data-name="Trazado 1036908" d="M166,90.622V76.428m5.894-6.567h5.894m5.894,6.567v4.239H166" transform="translate(-145.24 -61.693)" fill="none" stroke="#000" stroke-miterlimit="22.926" stroke-width="2" fill-rule="evenodd"/>
        <path id="Trazado_1036909" data-name="Trazado 1036909" d="M61,229.93v-1.965a1.965,1.965,0,0,1,3.93,0v1.965" transform="translate(-53.994 -197.38)" fill="none" stroke="#000" stroke-miterlimit="22.926" stroke-width="2" fill-rule="evenodd"/>
        <path id="Trazado_1036910" data-name="Trazado 1036910" d="M76,62.191V43.886m0-1.965V37.5" transform="translate(-67.029 -33.57)" fill="none" stroke="#000" stroke-miterlimit="22.926" stroke-width="2" fill-rule="evenodd"/>
        <circle id="Elipse_12249" data-name="Elipse 12249" cx="1.965" cy="1.965" r="1.965" transform="translate(7.008 0)" fill="none" stroke="#000" stroke-miterlimit="22.926" stroke-width="2"/>
        <path id="Trazado_1036911" data-name="Trazado 1036911" d="M76,37.5H93.685V48.306H76" transform="translate(-67.029 -33.57)" fill="none" stroke="#000" stroke-miterlimit="22.926" stroke-width="2" fill-rule="evenodd"/>
        <path id="Trazado_1036912" data-name="Trazado 1036912" d="M61,229.93v-1.965a1.965,1.965,0,0,1,3.93,0v1.965" transform="translate(-53.994 -197.38)" fill="none" stroke="#000" stroke-miterlimit="22.926" stroke-width="2" fill-rule="evenodd"/>
      </g>
    </g>
  </g>
</svg>
