<svg xmlns="http://www.w3.org/2000/svg" xmlns:xlink="http://www.w3.org/1999/xlink" width="220" height="203.742" viewBox="0 0 220 203.742">
  <defs>
    <filter id="Rect치ngulo_404858" x="0" y="0" width="220" height="203.742" filterUnits="userSpaceOnUse">
      <feOffset dx="3" dy="6" input="SourceAlpha"/>
      <feGaussianBlur stdDeviation="5" result="blur"/>
      <feFlood flood-opacity="0.161"/>
      <feComposite operator="in" in2="blur"/>
      <feComposite in="SourceGraphic"/>
    </filter>
  </defs>
  <g id="Grupo_1200631" data-name="Grupo 1200631" transform="translate(-624.301 -21758)">
    <g id="Grupo_1198866" data-name="Grupo 1198866" transform="translate(636.301 21767)">
      <g id="Grupo_1197899" data-name="Grupo 1197899" transform="translate(0 0)">
        <g id="Grupo_1113681" data-name="Grupo 1113681" transform="translate(0 0)">
          <g transform="matrix(1, 0, 0, 1, -12, -9)" filter="url(#Rect치ngulo_404858)">
            <rect id="Rect치ngulo_404858-2" data-name="Rect치ngulo 404858" width="190" height="173.742" rx="8" transform="translate(12 9)" fill="#6b9339"/>
          </g>
        </g>
      </g>
    </g>
    <g id="bitcoin_8601622" transform="translate(670.248 21792.662)">
      <path id="Trazado_1036913" data-name="Trazado 1036913" d="M60.5,26.575A15.848,15.848,0,0,1,42.871,23a15.873,15.873,0,0,1-3.55-17.675A15.838,15.838,0,0,1,57,8.875,16.56,16.56,0,0,1,60.5,14" transform="translate(55.506 1.504)" fill="#39b54a"/>
      <path id="Trazado_1036914" data-name="Trazado 1036914" d="M51.314,8.864a15.837,15.837,0,0,0-3.525,17.675,15.829,15.829,0,0,0,17.675-3.525A15.837,15.837,0,0,0,68.989,5.339,15.829,15.829,0,0,0,51.314,8.864Z" transform="translate(68.189 1.515)" fill="#006837"/>
      <path id="Trazado_1036915" data-name="Trazado 1036915" d="M56,74.5v-30L46,27,31,22,16,27,6,44.5v30" transform="translate(7.502 28.504)" fill="#a32a1f"/>
      <path id="Trazado_1036916" data-name="Trazado 1036916" d="M112.5,43.02V87.97H58.35a74.187,74.187,0,0,0-9.4-28.225C43.525,50.62,36.775,45.12,30,43.42v-.4Z" transform="translate(43.503 60.034)" fill="#6acc72"/>
      <path id="Trazado_1036917" data-name="Trazado 1036917" d="M1,88V43H71c7.8.75,15.75,5.475,22.025,13.975A55.842,55.842,0,0,1,103.451,88Z" transform="translate(0.002 60.004)" fill="#006837"/>
      <path id="Trazado_1036918" data-name="Trazado 1036918" d="M33.37,71.495A37.483,37.483,0,0,1,34.82,47.22a36.872,36.872,0,0,1,8.15-12.25,37.291,37.291,0,0,1,12.1-8.1,37.667,37.667,0,0,1,28.7-.05,37.408,37.408,0,0,1,20.35,20.25,37.614,37.614,0,0,1,1.5,24.425" transform="translate(46.508 31.509)" fill="#ffc843"/>
      <path id="Trazado_1036919" data-name="Trazado 1036919" d="M91,55.5a27.664,27.664,0,0,1-1.875,10H37.875A27.5,27.5,0,1,1,91,55.5Z" transform="translate(52.503 37.504)" fill="#f7931b"/>
      <path id="Trazado_1036920" data-name="Trazado 1036920" d="M59.45,27.275,37,18,14.55,27.275,2,50.5H12L22,33l15-5,15,5L62,50.5H72Z" transform="translate(1.502 22.504)" fill="#5e430d"/>
      <path id="Trazado_1036921" data-name="Trazado 1036921" d="M13,27H28V37H13Z" transform="translate(18.002 36.004)" fill="#5e430d"/>
      <circle id="Elipse_12250" data-name="Elipse 12250" cx="2.5" cy="2.5" r="2.5" transform="translate(133.503 70.504)"/>
      <path id="Trazado_1036922" data-name="Trazado 1036922" d="M3.01,50.95a53.2,53.2,0,0,1,9.95,29.625l5-.15A57.738,57.738,0,0,0,7.035,48L3.01,50.975Z" transform="translate(3.017 67.504)"/>
      <path id="Trazado_1036923" data-name="Trazado 1036923" d="M152.928,77.629a39.671,39.671,0,0,0-8.65-12.925A39.27,39.27,0,0,0,131.2,56a39.893,39.893,0,0,0-12.725-2.875V31.5a17.428,17.428,0,0,0,3.6.375,18.927,18.927,0,0,0,13.3-5.6,18.359,18.359,0,0,0,4.05-20.5A2.438,2.438,0,0,0,138.2,4.554,18.359,18.359,0,0,0,117.7,8.6a18.93,18.93,0,0,0-1.725,2.025,18.667,18.667,0,0,0-1.725-2,18.328,18.328,0,0,0-20.475-4.05A2.438,2.438,0,0,0,92.553,5.8,18.32,18.32,0,0,0,96.6,26.279a18.941,18.941,0,0,0,13.325,5.6A17.19,17.19,0,0,0,113.5,31.5v21.65a40.181,40.181,0,0,0-12.875,2.925A39.671,39.671,0,0,0,87.7,64.729,39.27,39.27,0,0,0,79,77.8a40.192,40.192,0,0,0-2.3,22.725H65.978v-25h7.5a2.529,2.529,0,0,0,2.15-1.225,2.5,2.5,0,0,0,.05-2.475L63.128,48.6a2.606,2.606,0,0,0-1.25-1.125L39.427,38.2a2.5,2.5,0,0,0-1.9,0l-22.45,9.275a2.606,2.606,0,0,0-1.25,1.125L1.3,71.8a2.5,2.5,0,0,0,.05,2.475A2.529,2.529,0,0,0,3.5,75.5H11v25H1v5h4.85c7.375.725,14.55,5.325,20.175,12.975a53.184,53.184,0,0,1,9.95,29.6l5-.15A57.738,57.738,0,0,0,30.052,115.5a41.452,41.452,0,0,0-10.325-10h8.625c7.375.725,14.55,5.325,20.175,12.975a53.184,53.184,0,0,1,9.95,29.6l5-.15A57.738,57.738,0,0,0,52.553,115.5a41.452,41.452,0,0,0-10.325-10h6.125c7.375.725,14.55,5.325,20.175,12.975a53.184,53.184,0,0,1,9.95,29.6l5-.15A57.738,57.738,0,0,0,72.553,115.5a41.452,41.452,0,0,0-10.325-10h8.625c7.375.725,14.55,5.325,20.175,12.975a53.184,53.184,0,0,1,9.95,29.6l5-.15c-.05-1.65-.2-3.3-.375-4.925h50.425v-5H104.8a57.994,57.994,0,0,0-1.975-7.5h53.2v-5H100.853a56.967,56.967,0,0,0-4.075-7.5h59.275v-5H93.078a39.487,39.487,0,0,0-8.325-7.5h71.3v-5h-.725A40.455,40.455,0,0,0,153,77.629Zm-5.675-.35-6.825,2.85,1.925,4.625,6.85-2.85a35.18,35.18,0,0,1,.975,18.625h-5.125a30.256,30.256,0,0,0,.975-7.5h-5a24.618,24.618,0,0,1-1.175,7.5H128.078a7.628,7.628,0,0,0,.45-2.5,7.435,7.435,0,0,0-1.95-5,7.435,7.435,0,0,0,1.95-5,7.522,7.522,0,0,0-7.5-7.5v-5h-5v5h-2.5v-5h-5v5h-10v5h5v15H92.2A24.862,24.862,0,0,1,92.9,83.5a25.114,25.114,0,0,1,13.5-13.575,24.756,24.756,0,0,1,9.625-1.9v-5a30.124,30.124,0,0,0-9.2,1.45l-1.925-4.6a35.442,35.442,0,0,1,22.075-.05l-2.8,6.825,4.625,1.9,2.8-6.825a34.445,34.445,0,0,1,9.175,6.55,34.835,34.835,0,0,1,6.5,9.025ZM121,85.5a2.5,2.5,0,0,1,0,5H108.5v-5Zm14.25-76.75a13.4,13.4,0,0,1-3.4,14,13.5,13.5,0,0,1-14,3.4,13.4,13.4,0,0,1,3.4-14A13.5,13.5,0,0,1,135.253,8.754Zm-24.525,3.4a13.6,13.6,0,0,1,2.5,3.5,19.357,19.357,0,0,0-1.05,5.025L99.6,8.1a13.718,13.718,0,0,1,11.1,4.05Zm-10.6,10.575a13.8,13.8,0,0,1-4.05-11.1L111.253,26.8A13.791,13.791,0,0,1,100.128,22.729Zm-8.9,45.5a34.834,34.834,0,0,1,9.025-6.5l1.925,4.625A30.442,30.442,0,0,0,89.3,79.279l-4.65-1.9A34.446,34.446,0,0,1,91.2,68.2ZM82.778,82,87.4,83.9a29.826,29.826,0,0,0-1.425,9.075,30.256,30.256,0,0,0,.975,7.5H81.828A35.161,35.161,0,0,1,82.753,82Zm-64.95-30.25L38.5,43.2l20.675,8.55L69.3,70.5h-4.35l-9.275-16.25A2.448,2.448,0,0,0,54.3,53.129l-15-5a2.428,2.428,0,0,0-1.575,0l-15,5a2.551,2.551,0,0,0-1.375,1.125L12.077,70.5H7.727l10.125-18.75ZM16,73.679l9.2-16.1,13.3-4.425,13.3,4.425,9.2,16.1V100.5H53.5V83A2.507,2.507,0,0,0,51,80.5H26A2.507,2.507,0,0,0,23.5,83v17.5H16ZM38.5,89.8l-5.375-4.3h10.75Zm10-1.6v9.6l-6-4.8ZM34.5,93l-6,4.8V88.2Zm4,3.2,5.375,4.3H33.127Zm70,4.3v-5H121a2.507,2.507,0,0,1,2.5,2.5,2.371,2.371,0,0,1-.775,1.775A2.463,2.463,0,0,1,121,100.5Z" transform="translate(0)"/>
      <path id="Trazado_1036924" data-name="Trazado 1036924" d="M14.5,41h15A2.507,2.507,0,0,0,32,38.5v-10A2.507,2.507,0,0,0,29.5,26h-15A2.507,2.507,0,0,0,12,28.5v10A2.507,2.507,0,0,0,14.5,41ZM17,31H27v5H17Z" transform="translate(16.502 34.504)"/>
    </g>
  </g>
</svg>
