<svg xmlns="http://www.w3.org/2000/svg" xmlns:xlink="http://www.w3.org/1999/xlink" width="118" height="118" viewBox="0 0 118 118">
  <defs>
    <filter id="Elipse_12115" x="0" y="0" width="118" height="118" filterUnits="userSpaceOnUse">
      <feOffset dy="3" input="SourceAlpha"/>
      <feGaussianBlur stdDeviation="3" result="blur"/>
      <feFlood flood-opacity="0.161"/>
      <feComposite operator="in" in2="blur"/>
      <feComposite in="SourceGraphic"/>
    </filter>
  </defs>
  <g id="Grupo_1199977" data-name="Grupo 1199977" transform="translate(-161.949 -1998.396)">
    <g id="Grupo_1198372" data-name="Grupo 1198372" transform="translate(-44 -4087.069)">
      <g id="Grupo_1198119" data-name="Grupo 1198119" transform="translate(214.949 6091.466)">
        <g id="Grupo_1182334" data-name="Grupo 1182334">
          <g id="Grupo_1181949" data-name="Grupo 1181949">
            <g transform="matrix(1, 0, 0, 1, -9, -6)" filter="url(#Elipse_12115)">
              <g id="Elipse_12115-2" data-name="Elipse 12115" transform="translate(9 6)" fill="#f4f9ff" stroke="#4d637e" stroke-width="4">
                <circle cx="50" cy="50" r="50" stroke="none"/>
                <circle cx="50" cy="50" r="48" fill="none"/>
              </g>
            </g>
          </g>
        </g>
      </g>
    </g>
    <g id="gardener_2814069" transform="translate(148.28 2018.263)">
      <g id="Grupo_1199975" data-name="Grupo 1199975" transform="translate(45.169 1.005)">
        <g id="Grupo_1199973" data-name="Grupo 1199973" transform="translate(1.312 15.591)">
          <g id="XMLID_1172_">
            <g id="Grupo_1199972" data-name="Grupo 1199972">
              <path id="Trazado_1032199" data-name="Trazado 1032199" d="M110.784,158.66l1.914,2.209a5.173,5.173,0,0,1-6.262,7.994l-.144-.074a1.147,1.147,0,0,0-.523-.126h-36.4l-.39.2a5.173,5.173,0,0,1-6.262-7.994l1.914-2.209a3.365,3.365,0,0,1,1.46-6.107l.562-.075a2.042,2.042,0,0,0,1.755-1.786l.961-8.248-.408-7.53V128.67l4.059-4.862,33.538.894.031,3.968v6.244l-.542,7.53.961,8.248a2.042,2.042,0,0,0,1.755,1.786l.562.075a3.363,3.363,0,0,1,2.906,3.074c.007.088.011.177.011.264A3.366,3.366,0,0,1,110.784,158.66Z" transform="translate(-61.453 -123.808)" fill="#7a6d79"/>
            </g>
          </g>
        </g>
        <path id="Trazado_1032200" data-name="Trazado 1032200" d="M155.05,375.21,141.018,366.5H136.41l-13.921,8.712a4.268,4.268,0,0,0-1.992,3.61v5.252a1.142,1.142,0,0,0,1.142,1.142h4.272v-.567h25.718v.567H155.9a1.142,1.142,0,0,0,1.142-1.142V378.82A4.268,4.268,0,0,0,155.05,375.21Z" transform="translate(-111.27 -318.374)" fill="#97da7b"/>
        <path id="Trazado_1032201" data-name="Trazado 1032201" d="M184.169,7.5a11.879,11.879,0,0,0-11.322,8.29l4.338,2.875h17.163l1.145-2.873A11.879,11.879,0,0,0,184.169,7.5Z" transform="translate(-156.602 -7.499)" fill="#fec165"/>
        <path id="Trazado_1032202" data-name="Trazado 1032202" d="M181.327,18.573a11.878,11.878,0,0,1,7.344-10.189,11.878,11.878,0,0,0-15.824,7.4l4.338,2.875h4.141Z" transform="translate(-156.602 -7.498)" fill="#fdb441"/>
        <path id="Trazado_1032203" data-name="Trazado 1032203" d="M179.053,74.271h17.115l-.153-6.838a11.9,11.9,0,0,0-.524-2.783,88.488,88.488,0,0,0-22.645,0l6.7,1.364Z" transform="translate(-156.601 -56.358)" fill="#d77f4a"/>
        <path id="Trazado_1032204" data-name="Trazado 1032204" d="M177.471,64.823q.112-.355.246-.7a89.229,89.229,0,0,0-9.251.7,11.913,11.913,0,0,0-.525,2.786l-.153,6.838h9.006l.153-6.838A11.91,11.91,0,0,1,177.471,64.823Z" transform="translate(-152.22 -56.533)" fill="#c86d36"/>
        <path id="Trazado_1032205" data-name="Trazado 1032205" d="M328.676,211.21a2.99,2.99,0,0,0,2.99-2.99v-2.2a2.99,2.99,0,0,0-2.99-2.99H319.96v8.178h8.716Z" transform="translate(-283.994 -176.82)" fill="#eb9c8d"/>
        <path id="Trazado_1032206" data-name="Trazado 1032206" d="M111.321,211.21a2.99,2.99,0,0,1-2.99-2.99v-2.2a2.99,2.99,0,0,1,2.99-2.99H118.9v8.178h-7.575Z" transform="translate(-100.735 -176.82)" fill="#d78878"/>
        <g id="Grupo_1199974" data-name="Grupo 1199974" transform="translate(0 12.518)">
          <path id="Trazado_1032207" data-name="Trazado 1032207" d="M142.84,367.63l-1.823-1.132h-4.607l-13.921,8.712a4.267,4.267,0,0,0-1.992,3.61v5.252a1.142,1.142,0,0,0,1.142,1.142h2.947v-3.861a4.268,4.268,0,0,1,1.992-3.61l4.7-2.943a2.186,2.186,0,0,1,2.634.254,7.2,7.2,0,0,0,5.435,1.858A7.292,7.292,0,0,0,146,369.605v-.016Z" transform="translate(-111.269 -330.892)" fill="#80d261"/>
          <path id="Trazado_1032208" data-name="Trazado 1032208" d="M231.979,325.252a4.547,4.547,0,0,1-9.094,0v-10.09h9.094v10.09Z" transform="translate(-199.932 -286.437)" fill="#f1b0a2"/>
          <path id="Trazado_1032209" data-name="Trazado 1032209" d="M222.886,353.646v4.931a4.547,4.547,0,0,0,4.6,4.547h0a4.526,4.526,0,0,1-.514-2.1v-.7A2.234,2.234,0,0,1,229,358.1a21.184,21.184,0,0,0,2.976-.435v-4.017h-9.094Z" transform="translate(-199.933 -319.762)" fill="#eb9c8d"/>
          <path id="Trazado_1032210" data-name="Trazado 1032210" d="M147.977,131.417v17.058a14.591,14.591,0,0,0,1.641,6.743l1.9-2.276,2.721,6.137c1,1.683,8.863,3.591,8.863,3.591.679.545,3.164,0,3.182,0a14.662,14.662,0,0,0,11-14.2V131.417H147.977Z" transform="translate(-135.066 -127.323)" fill="#f1b0a2"/>
          <path id="Trazado_1032211" data-name="Trazado 1032211" d="M159.578,158.841a14.614,14.614,0,0,1-4.292-10.363V131.419h-7.31v17.058a14.668,14.668,0,0,0,18.311,14.2A14.647,14.647,0,0,1,159.578,158.841Z" transform="translate(-135.065 -127.325)" fill="#eb9c8d"/>
          <path id="Trazado_1032212" data-name="Trazado 1032212" d="M313.925,400.751h4.5v-9.986a.732.732,0,0,0-.34-.618l-3.033-1.923a.732.732,0,0,0-1.124.618Z" transform="translate(-278.768 -349.605)" fill="#2ed1e2"/>
          <path id="Trazado_1032213" data-name="Trazado 1032213" d="M170.64,400.617h-4.5v-9.852a.732.732,0,0,1,.34-.618l3.033-1.923a.732.732,0,0,1,1.124.618Z" transform="translate(-150.797 -349.605)" fill="#2ed1e2"/>
          <path id="Trazado_1032214" data-name="Trazado 1032214" d="M186.6,470.874v-4.528a.927.927,0,0,0-.927-.927H161.806a.927.927,0,0,0-.927.927v4.528Z" transform="translate(-146.238 -416.552)" fill="#6bd9e7"/>
          <path id="Trazado_1032215" data-name="Trazado 1032215" d="M201.451,128.672v3.735a.679.679,0,0,1-.679.679h-1.481a9.189,9.189,0,0,1-6.625-2.822l-1.53-1.593-3.99-4.862h14.306v4.862Z" transform="translate(-168.983 -120.736)" fill="#7a6d79"/>
          <path id="Trazado_1032216" data-name="Trazado 1032216" d="M298.934,147.009a.607.607,0,0,1-.607.607h-2.108a2.353,2.353,0,0,1-2.353-2.353v-4.135h5.068Z" transform="translate(-261.398 -135.733)" fill="#7a6d79"/>
          <path id="Trazado_1032217" data-name="Trazado 1032217" d="M105.956,108.816H52.37a.707.707,0,0,1-.707-.707v-1.19a2.345,2.345,0,0,1,1.682-2.253,89.964,89.964,0,0,1,51.641,0,2.344,2.344,0,0,1,1.676,2.251v1.194A.707.707,0,0,1,105.956,108.816Z" transform="translate(-51.663 -100.88)" fill="#fec165"/>
          <path id="Trazado_1032218" data-name="Trazado 1032218" d="M62.842,108.736a2.345,2.345,0,0,1,1.682-2.253,90.593,90.593,0,0,1,34.525-3.361,89.861,89.861,0,0,0-45.7,1.548,2.345,2.345,0,0,0-1.682,2.253v1.19a.707.707,0,0,0,.707.707H62.842Z" transform="translate(-51.663 -100.884)" fill="#fdb441"/>
          <path id="Trazado_1032219" data-name="Trazado 1032219" d="M232.108,307.232h-1.559a3.242,3.242,0,0,1-3.242-3.242v-.816a.411.411,0,0,1,.411-.411h7.221a.411.411,0,0,1,.411.411v.816A3.242,3.242,0,0,1,232.108,307.232Z" transform="translate(-203.762 -275.7)" fill="#f47c7c"/>
        </g>
      </g>
      <g id="Grupo_1199976" data-name="Grupo 1199976" transform="translate(44.164 0)">
        <path id="Trazado_1032220" data-name="Trazado 1032220" d="M184.193,484.267a1,1,0,0,0-1.005,1.005v.591a1.005,1.005,0,1,0,2.011,0v-.591A1,1,0,0,0,184.193,484.267Z" transform="translate(-164.552 -419.35)"/>
        <path id="Trazado_1032221" data-name="Trazado 1032221" d="M317.43,484.267a1,1,0,0,0-1.005,1.005v.591a1.005,1.005,0,1,0,2.011,0v-.591A1,1,0,0,0,317.43,484.267Z" transform="translate(-279.928 -419.35)"/>
        <path id="Trazado_1032222" data-name="Trazado 1032222" d="M98.776,16.342c-1.736-.511-3.53-.984-5.331-1.4a1.005,1.005,0,0,0-.458,1.958c1.765.412,3.521.875,5.221,1.376a1.345,1.345,0,0,1,.955,1.287v.9H64.557a1.005,1.005,0,1,0,0,2.011h2.336l1.234,1.284a10.244,10.244,0,0,0,7.35,3.13h1.481a1.685,1.685,0,0,0,1.465-.856,3.336,3.336,0,0,0,1.568.39H82.1A1.614,1.614,0,0,0,83.71,24.8V22.464h2.676v12.21a13.65,13.65,0,0,1-27.3,0V22.464h1.187a1.005,1.005,0,0,0,0-2.011h-14.1v-.891a1.345,1.345,0,0,1,.958-1.288A89.349,89.349,0,0,1,88.822,16.02a1.005,1.005,0,0,0,.367-1.977q-1.75-.325-3.5-.577l-.1-1.453a12.8,12.8,0,0,0-.551-2.948,1,1,0,0,0-.045-.143,12.877,12.877,0,0,0-24.508,0,1,1,0,0,0-.046.146,12.8,12.8,0,0,0-.551,2.95l-.1,1.454A96.062,96.062,0,0,0,46.57,16.344a3.366,3.366,0,0,0-2.406,3.218v1.19a1.714,1.714,0,0,0,1.712,1.712h7.108v4.869a3.983,3.983,0,0,0-1.223,2.873v2.2a3.99,3.99,0,0,0,1.583,3.182l-.907,7.777a1.033,1.033,0,0,1-.89.905l-.561.075a4.375,4.375,0,0,0-2.731,7.189L46.985,53a6.181,6.181,0,0,0,6.406,9.971v4.875a1.005,1.005,0,1,0,2.011,0V61.452a3.246,3.246,0,0,1,1.523-2.76l2.585-1.629v4.763a1.929,1.929,0,0,0-.706,1.492v4.528a1.005,1.005,0,0,0,2.011,0V63.4h7.966a1.005,1.005,0,1,0,0-2.011H66.017V52.961l1.1-.693v.069a5.553,5.553,0,1,0,11.105,0v-.069l1.1.693v8.423H73.066a1.005,1.005,0,1,0,0,2.011H84.523v4.45a1.005,1.005,0,0,0,2.011,0V63.317a1.93,1.93,0,0,0-.706-1.492V57.063l2.585,1.629a3.245,3.245,0,0,1,1.523,2.76v6.393a1.005,1.005,0,0,0,2.011,0V62.929A6.175,6.175,0,0,0,98.486,53l-1.27-1.465a4.375,4.375,0,0,0-2.73-7.189l-.561-.075a1.033,1.033,0,0,1-.89-.905l-.9-7.687A3.992,3.992,0,0,0,93.845,32.4v-2.2a3.983,3.983,0,0,0-1.223-2.873V22.464h6.839a1.714,1.714,0,0,0,1.712-1.712V19.558a3.366,3.366,0,0,0-2.4-3.216ZM72.736,2.011A10.9,10.9,0,0,1,82.492,8.1a89.878,89.878,0,0,0-19.511,0A10.9,10.9,0,0,1,72.736,2.011ZM61.892,12.148a10.805,10.805,0,0,1,.31-1.934,87.849,87.849,0,0,1,21.069,0,10.82,10.82,0,0,1,.31,1.932l.071,1.045a89.98,89.98,0,0,0-21.83,0Zm14.74,12.72H75.477a8.223,8.223,0,0,1-5.789-2.4h6.944v2.4ZM81.7,24.4H79.99a1.35,1.35,0,0,1-1.348-1.348v-.589H81.7Zm10.135,5.805v2.2a1.987,1.987,0,0,1-1.984,1.984H88.4V28.222h1.454a1.987,1.987,0,0,1,1.984,1.984Zm-36.08,4.183A1.987,1.987,0,0,1,53.771,32.4v-2.2a1.987,1.987,0,0,1,1.984-1.984h1.32v6.167Zm-.761-11.925h2.081v3.747h-1.32a4,4,0,0,0-.761.074V22.464Zm9.012,30.792v8.128H61.521V54.833ZM65.043,51.2a1.736,1.736,0,0,0-1.693.093l-3.033,1.923a1.729,1.729,0,0,0-.807,1.467v0l-3.657,2.3a5.24,5.24,0,0,0-2.422,3.819,4.165,4.165,0,0,1-4.926-6.494l1.389-1.6a4.407,4.407,0,0,0,.9.263l.216.039a1.023,1.023,0,0,0,.179.016,1.006,1.006,0,0,0,.177-2L51.149,51a2.359,2.359,0,0,1,.1-4.661l.561-.075A3.043,3.043,0,0,0,54.434,43.6l.843-7.227a4.005,4.005,0,0,0,.479.03h1.415a15.7,15.7,0,0,0,9.946,12.892v.6Zm7.627,4.68a3.546,3.546,0,0,1-3.542-3.542V49.915a15.7,15.7,0,0,0,7.084.031v2.391a3.546,3.546,0,0,1-3.542,3.542Zm8.662-2.623,2.486,1.576v6.552H81.331ZM91.039,43.6a3.043,3.043,0,0,0,2.619,2.665l.561.075a2.359,2.359,0,0,1,.1,4.661l-.216.039a1.005,1.005,0,0,0,.177,2,1.024,1.024,0,0,0,.179-.016l.216-.039a4.42,4.42,0,0,0,.9-.263l1.389,1.6a4.167,4.167,0,0,1-5.044,6.44l-.025-.013a5.241,5.241,0,0,0-2.414-3.752l-3.657-2.3v0a1.729,1.729,0,0,0-.807-1.467l-3.033-1.923A1.736,1.736,0,0,0,80.3,51.2l-2.074-1.307v-.549A15.7,15.7,0,0,0,88.3,36.4h1.549c.117,0,.232-.006.347-.016Zm-.427-17.312a4,4,0,0,0-.761-.074H88.4V22.464h2.215v3.821Z" transform="translate(-44.164 0)"/>
        <path id="Trazado_1032223" data-name="Trazado 1032223" d="M196.94,225.319a1.005,1.005,0,0,0,2.011,0v-1.576a1.005,1.005,0,0,0-2.011,0Z" transform="translate(-176.46 -192.88)"/>
        <path id="Trazado_1032224" data-name="Trazado 1032224" d="M302.673,223.743v1.576a1.005,1.005,0,0,0,2.011,0v-1.576a1.005,1.005,0,1,0-2.011,0Z" transform="translate(-268.02 -192.88)"/>
        <path id="Trazado_1032225" data-name="Trazado 1032225" d="M237.789,247.914a.808.808,0,0,1,1.616,0,1.005,1.005,0,0,0,2.011,0,2.819,2.819,0,1,0-5.638,0,1.005,1.005,0,0,0,2.011,0Z" transform="translate(-210.092 -212.24)"/>
        <path id="Trazado_1032226" data-name="Trazado 1032226" d="M219.808,296.679v.816a4.252,4.252,0,0,0,4.247,4.247h1.559a4.252,4.252,0,0,0,4.247-4.247v-.816a1.418,1.418,0,0,0-1.416-1.417h-7.221A1.418,1.418,0,0,0,219.808,296.679Zm2.011.594h6.032v.222a2.239,2.239,0,0,1-2.237,2.237h-1.559a2.239,2.239,0,0,1-2.237-2.237v-.222Z" transform="translate(-196.263 -255.683)"/>
        <path id="Trazado_1032227" data-name="Trazado 1032227" d="M176.7,201.476a2.548,2.548,0,0,0-2.253,2.1,1.005,1.005,0,1,0,1.958.457c.109-.466.3-.527.549-.558a1.005,1.005,0,1,0-.254-1.995Z" transform="translate(-156.956 -174.461)"/>
        <path id="Trazado_1032228" data-name="Trazado 1032228" d="M315.621,203.471c.245.031.44.092.549.558a1.005,1.005,0,1,0,1.958-.456,2.548,2.548,0,0,0-2.253-2.1,1.005,1.005,0,0,0-.254,1.995Z" transform="translate(-278.472 -174.461)"/>
      </g>
    </g>
  </g>
</svg>
