<svg xmlns="http://www.w3.org/2000/svg" xmlns:xlink="http://www.w3.org/1999/xlink" width="118" height="118" viewBox="0 0 118 118">
  <defs>
    <filter id="Trazado_874925" x="0" y="0" width="118" height="118" filterUnits="userSpaceOnUse">
      <feOffset dy="3" input="SourceAlpha"/>
      <feGaussianBlur stdDeviation="3" result="blur"/>
      <feFlood flood-opacity="0.161"/>
      <feComposite operator="in" in2="blur"/>
      <feComposite in="SourceGraphic"/>
    </filter>
  </defs>
  <g id="Grupo_1200694" data-name="Grupo 1200694" transform="translate(-7262.781 9690.062)">
    <g id="Grupo_1198901" data-name="Grupo 1198901" transform="translate(6463.281 -12201.219)">
      <g id="Grupo_1111316" data-name="Grupo 1111316" transform="translate(808.5 2517.157)">
        <g id="Grupo_1109835" data-name="Grupo 1109835" transform="translate(0 0)">
          <g id="Grupo_1107913" data-name="Grupo 1107913" transform="translate(0 0)">
            <g transform="matrix(1, 0, 0, 1, -9, -6)" filter="url(#Trazado_874925)">
              <g id="Trazado_874925-2" data-name="Trazado 874925" transform="translate(9 6)" fill="#9ad354" opacity="0.859">
                <path d="M 49.99972534179688 98.4998779296875 C 43.45164108276367 98.4998779296875 37.10022354125977 97.21776580810547 31.12189674377441 94.68914794921875 C 25.34676742553711 92.24647521972656 20.15985298156738 88.74925994873047 15.70523929595947 84.29464721679688 C 11.25062561035156 79.84004974365234 7.753411293029785 74.65313720703125 5.310725212097168 68.87800598144531 C 2.782111167907715 62.89969253540039 1.499996781349182 56.54829406738281 1.499996781349182 50.00022125244141 C 1.499996781349182 43.45157623291016 2.782111167907715 37.10017776489258 5.310725212097168 31.12186431884766 C 7.753411293029785 25.34673500061035 11.25062561035156 20.15983581542969 15.70523929595947 15.70522117614746 C 20.15985298156738 11.25062084197998 25.34676742553711 7.753406524658203 31.12189674377441 5.31073522567749 C 37.10022354125977 2.782120943069458 43.45164108276367 1.500006556510925 49.99972534179688 1.500006556510925 C 56.54780960083008 1.500006556510925 62.89922714233398 2.782120943069458 68.87755584716797 5.31073522567749 C 74.65267944335938 7.753406524658203 79.839599609375 11.25062084197998 84.29421234130859 15.70522117614746 C 88.74882507324219 20.15983581542969 92.24604034423828 25.34673500061035 94.68872833251953 31.12186431884766 C 97.21733856201172 37.10017776489258 98.49945068359375 43.45157623291016 98.49945068359375 49.99964904785156 C 98.49945068359375 56.54829406738281 97.21733856201172 62.89969253540039 94.68872833251953 68.87800598144531 C 92.24604034423828 74.65313720703125 88.74882507324219 79.84004974365234 84.29421234130859 84.29464721679688 C 79.839599609375 88.74925994873047 74.65267944335938 92.24647521972656 68.87755584716797 94.68914794921875 C 62.89922714233398 97.21776580810547 56.54780960083008 98.4998779296875 49.99972534179688 98.4998779296875 Z" stroke="none"/>
                <path d="M 49.99972534179688 3 C 43.65348052978516 3 37.49866485595703 4.242240905761719 31.70623016357422 6.692230224609375 C 26.10989379882812 9.059272766113281 21.08323669433594 12.44853210449219 16.76589202880859 16.76587677001953 C 12.44855499267578 21.08321380615234 9.059295654296875 26.10985565185547 6.692230224609375 31.70618438720703 C 4.24224853515625 37.49859619140625 3 43.65341186523438 3 50.00022888183594 C 3 56.34645843505859 4.24224853515625 62.50127410888672 6.692230224609375 68.29368591308594 C 9.059295654296875 73.8900146484375 12.44855499267578 78.91665649414062 16.76589202880859 83.23399353027344 C 21.08323669433594 87.55132293701172 26.10989379882812 90.94059753417969 31.70623016357422 93.30764007568359 C 37.49866485595703 95.75762939453125 43.65348052978516 96.99987030029297 49.99972534179688 96.99987030029297 C 56.34597015380859 96.99987030029297 62.50078582763672 95.75762939453125 68.293212890625 93.30764007568359 C 73.88955688476562 90.94059753417969 78.91621398925781 87.55132293701172 83.23355865478516 83.23399353027344 C 87.55089569091797 78.91665649414062 90.94015502929688 73.8900146484375 93.30722045898438 68.29368591308594 C 95.7572021484375 62.50127410888672 96.99945068359375 56.34645843505859 96.99945068359375 49.99964141845703 C 96.99945068359375 43.65341186523438 95.7572021484375 37.49859619140625 93.30722045898438 31.70618438720703 C 90.94015502929688 26.10985565185547 87.55089569091797 21.08321380615234 83.23355865478516 16.76587677001953 C 78.91621398925781 12.44853210449219 73.88955688476562 9.059272766113281 68.293212890625 6.692230224609375 C 62.50078582763672 4.242240905761719 56.34597015380859 3 49.99972534179688 3 M 49.99972534179688 0 C 77.61381530761719 0 99.99945068359375 22.38559722900391 99.99945068359375 49.99964141845703 L 99.99945068359375 50.00022888183594 C 99.99945068359375 77.6142578125 77.61381530761719 99.99987030029297 49.99972534179688 99.99987030029297 C 22.38563537597656 99.99987030029297 0 77.6142578125 0 50.00022888183594 L 0 49.99964141845703 C 0 22.38559722900391 22.38563537597656 0 49.99972534179688 0 Z" stroke="none" fill="#fff"/>
              </g>
            </g>
            <g id="Trazado_874923" data-name="Trazado 874923" transform="translate(0 0)" fill="none">
              <path d="M50,0a50,50,0,0,1,50,50h0A50,50,0,0,1,0,50H0A50,50,0,0,1,50,0Z" stroke="none"/>
              <path d="M 49.99972534179688 3 C 43.65348052978516 3 37.49866485595703 4.242240905761719 31.70623016357422 6.692230224609375 C 26.10989379882812 9.059272766113281 21.08323669433594 12.44853210449219 16.76589202880859 16.76587677001953 C 12.44855499267578 21.08321380615234 9.059295654296875 26.10985565185547 6.692230224609375 31.70618438720703 C 4.24224853515625 37.49859619140625 3 43.65341186523438 3 50.00022888183594 C 3 56.34645843505859 4.24224853515625 62.50127410888672 6.692230224609375 68.29368591308594 C 9.059295654296875 73.8900146484375 12.44855499267578 78.91665649414062 16.76589202880859 83.23399353027344 C 21.08323669433594 87.55132293701172 26.10989379882812 90.94059753417969 31.70623016357422 93.30764007568359 C 37.49866485595703 95.75762939453125 43.65348052978516 96.99987030029297 49.99972534179688 96.99987030029297 C 56.34597015380859 96.99987030029297 62.50078582763672 95.75762939453125 68.293212890625 93.30764007568359 C 73.88955688476562 90.94059753417969 78.91621398925781 87.55132293701172 83.23355865478516 83.23399353027344 C 87.55089569091797 78.91665649414062 90.94015502929688 73.8900146484375 93.30722045898438 68.29368591308594 C 95.7572021484375 62.50127410888672 96.99945068359375 56.34645843505859 96.99945068359375 49.99964141845703 C 96.99945068359375 43.65341186523438 95.7572021484375 37.49859619140625 93.30722045898438 31.70618438720703 C 90.94015502929688 26.10985565185547 87.55089569091797 21.08321380615234 83.23355865478516 16.76587677001953 C 78.91621398925781 12.44853210449219 73.88955688476562 9.059272766113281 68.293212890625 6.692230224609375 C 62.50078582763672 4.242240905761719 56.34597015380859 3 49.99972534179688 3 M 49.99972534179688 0 C 77.61381530761719 0 99.99945068359375 22.38559722900391 99.99945068359375 49.99964141845703 L 99.99945068359375 50.00022888183594 C 99.99945068359375 77.6142578125 77.61381530761719 99.99987030029297 49.99972534179688 99.99987030029297 C 22.38563537597656 99.99987030029297 0 77.6142578125 0 50.00022888183594 L 0 49.99964141845703 C 0 22.38559722900391 22.38563537597656 0 49.99972534179688 0 Z" stroke="none" fill="#fff"/>
            </g>
          </g>
        </g>
      </g>
    </g>
    <g id="justicia_2_" data-name="justicia (2)" transform="translate(7292.312 -9663.531)">
      <path id="Trazado_1037139" data-name="Trazado 1037139" d="M434.68,294.5l-5.18,5.18h3.453a5.18,5.18,0,0,0,5.18-5.18Z" transform="translate(-380.058 -260.599)" fill="#ffbb6e"/>
      <path id="Trazado_1037140" data-name="Trazado 1037140" d="M334.246,294.5H316a5.18,5.18,0,0,0,5.18,5.18h7.885A5.18,5.18,0,0,0,334.246,294.5Z" transform="translate(-279.624 -260.599)" fill="#ffd478"/>
      <path id="Trazado_1037141" data-name="Trazado 1037141" d="M126.18,294.5,121,299.68h3.453a5.18,5.18,0,0,0,5.18-5.18Z" transform="translate(-107.071 -260.599)" fill="#ffbb6e"/>
      <path id="Trazado_1037142" data-name="Trazado 1037142" d="M25.746,294.5H7.5a5.18,5.18,0,0,0,5.18,5.18h7.885A5.18,5.18,0,0,0,25.746,294.5Z" transform="translate(-6.637 -260.599)" fill="#ffd478"/>
      <path id="Trazado_1037143" data-name="Trazado 1037143" d="M301,384.5h5.18v8.634H301Z" transform="translate(-266.351 -340.239)" fill="#ff8053"/>
      <path id="Trazado_1037144" data-name="Trazado 1037144" d="M166,384.5h17.267v8.634H166Z" transform="translate(-146.891 -340.239)" fill="#ffa061"/>
      <path id="Trazado_1037145" data-name="Trazado 1037145" d="M93.292,429.5H61.93l-2.5,3.743a3.226,3.226,0,0,1-2.684,1.437v1.727h43.8Z" transform="translate(-50.217 -380.058)" fill="#ffd478"/>
      <path id="Trazado_1037146" data-name="Trazado 1037146" d="M380.841,433.243l-2.5-3.743H374.2l2.5,3.743a3.226,3.226,0,0,0,2.684,1.437l2.075,1.727,2.075-1.727A3.226,3.226,0,0,1,380.841,433.243Z" transform="translate(-331.12 -380.058)" fill="#ffbb6e"/>
      <path id="Trazado_1037147" data-name="Trazado 1037147" d="M241,67.5h5.18v8.634H241Z" transform="translate(-213.257 -59.73)" fill="#ff8053"/>
      <path id="Trazado_1037148" data-name="Trazado 1037148" d="M226,67.5h3.453v8.634H226Z" transform="translate(-199.984 -59.73)" fill="#ffa061"/>
      <path id="Trazado_1037149" data-name="Trazado 1037149" d="M241,142.5h5.18v27.858H241Z" transform="translate(-213.257 -126.096)" fill="#ffe7ad"/>
      <path id="Trazado_1037150" data-name="Trazado 1037150" d="M226,142.5h3.453v27.858H226Z" transform="translate(-199.984 -126.096)" fill="#fff5de"/>
      <path id="Trazado_1037151" data-name="Trazado 1037151" d="M259.453,127.5H256v3.453h3.453a1.727,1.727,0,0,0,0-3.453Z" transform="translate(-226.531 -112.823)" fill="#ffbb6e"/>
      <path id="Trazado_1037152" data-name="Trazado 1037152" d="M217.907,129.227a1.727,1.727,0,0,0-1.727-1.727h-3.453a1.727,1.727,0,0,0,0,3.453h3.453A1.727,1.727,0,0,0,217.907,129.227Z" transform="translate(-186.711 -112.823)" fill="#ffd478"/>
      <path id="Trazado_1037153" data-name="Trazado 1037153" d="M319.453,369.5H316v3.453h3.453a1.727,1.727,0,1,0,0-3.453Z" transform="translate(-279.624 -326.965)" fill="#ffbb6e"/>
      <path id="Trazado_1037154" data-name="Trazado 1037154" d="M171.721,371.227a1.727,1.727,0,0,0-1.727-1.727H152.727a1.727,1.727,0,0,0,0,3.453h17.267A1.727,1.727,0,0,0,171.721,371.227Z" transform="translate(-133.618 -326.965)" fill="#ffd478"/>
      <path id="Trazado_1037155" data-name="Trazado 1037155" d="M383.7,37.5H380.25v3.453H383.7a1.727,1.727,0,1,0,0-3.453Z" transform="translate(-336.478 -33.183)" fill="#ffbb6e"/>
      <path id="Trazado_1037156" data-name="Trazado 1037156" d="M122.263,39.227a1.727,1.727,0,0,0-1.727-1.727H88.477a1.727,1.727,0,1,0,0,3.453h32.059A1.727,1.727,0,0,0,122.263,39.227Z" transform="translate(-76.764 -33.183)" fill="#ffd478"/>
      <path id="Trazado_1037157" data-name="Trazado 1037157" d="M428.7,474.5H425.25l3.453,3.453h3.453A3.453,3.453,0,0,0,428.7,474.5Z" transform="translate(-376.298 -419.878)" fill="#ffd478"/>
      <path id="Trazado_1037158" data-name="Trazado 1037158" d="M72.623,474.5H30.2a3.453,3.453,0,0,0-3.453,3.453H76.076A3.453,3.453,0,0,0,72.623,474.5Z" transform="translate(-23.671 -419.878)" fill="#ffe7ad"/>
      <circle id="Elipse_12257" data-name="Elipse 12257" cx="5.18" cy="5.18" r="5.18" transform="translate(24.289 0.863)" fill="#ffe7ad"/>
      <circle id="Elipse_12258" data-name="Elipse 12258" cx="1.727" cy="1.727" r="1.727" transform="translate(27.743 4.317)" fill="#ffd478"/>
      <circle id="Elipse_12259" data-name="Elipse 12259" cx="1.727" cy="1.727" r="1.727" transform="translate(9.986 7.77)" fill="#ffe7ad"/>
      <circle id="Elipse_12260" data-name="Elipse 12260" cx="1.727" cy="1.727" r="1.727" transform="translate(45.499 7.77)" fill="#ffe7ad"/>
      <path id="Trazado_1037159" data-name="Trazado 1037159" d="M35.513,33.9a6.05,6.05,0,0,0,6.043,6.043H52.895A6.05,6.05,0,0,0,58.938,33.9a.864.864,0,0,0-.084-.373L48.449,11.779a2.587,2.587,0,0,0,.706-4.009,2.588,2.588,0,0,0-1.929-4.317h-12.3a6.042,6.042,0,0,0-10.918,0h-12.3A2.588,2.588,0,0,0,9.784,7.77a2.587,2.587,0,0,0,.706,4.009L.085,33.529A.864.864,0,0,0,0,33.9a6.05,6.05,0,0,0,6.043,6.043H17.382A6.05,6.05,0,0,0,23.426,33.9a.864.864,0,0,0-.084-.373L12.936,11.779a2.588,2.588,0,0,0,1.219-3.146H24.01a6.067,6.067,0,0,0,1.142,1.634v3.695a2.59,2.59,0,0,0,0,4.883V41.671H19.109a2.59,2.59,0,0,0-.863,5.032v1.875H11.713a.863.863,0,0,0-.718.384L8.5,52.706a2.358,2.358,0,0,1-1.966,1.052,4.322,4.322,0,0,0-4.317,4.317.863.863,0,0,0,.863.863h52.78a.863.863,0,0,0,.863-.863,4.322,4.322,0,0,0-4.317-4.317,2.358,2.358,0,0,1-1.966-1.052l-2.5-3.743a.863.863,0,0,0-.718-.384H40.693V46.7a2.59,2.59,0,0,0-.863-5.032H33.786V18.845a2.59,2.59,0,0,0,0-4.883V10.267a6.07,6.07,0,0,0,1.142-1.634h9.856A2.588,2.588,0,0,0,46,11.779L35.6,33.529a.864.864,0,0,0-.084.373Zm17.382,4.317H41.556a4.323,4.323,0,0,1-4.229-3.453h19.8A4.324,4.324,0,0,1,52.895,38.218Zm-15.149-5.18,9.479-19.814,9.479,19.814ZM11.713,13.224l9.479,19.814H2.233Zm5.669,24.994H6.044a4.323,4.323,0,0,1-4.229-3.453h19.8A4.324,4.324,0,0,1,17.382,38.218ZM12.576,9.5a.863.863,0,1,1-.863-.863A.864.864,0,0,1,12.576,9.5Zm-.863-2.59a.863.863,0,0,1,0-1.727H23.488a5.983,5.983,0,0,0,0,1.727Zm15.166,6.907V11.5a6.033,6.033,0,0,0,5.18,0v2.311Zm27.969,43.4H4.091a2.6,2.6,0,0,1,2.442-1.727H52.406A2.6,2.6,0,0,1,54.848,57.212ZM49,53.664c.022.032.045.063.067.095H9.868c.022-.032.046-.062.067-.095L12.175,50.3H46.764Zm-8.31-9.4a.864.864,0,0,1-.863.863H22.562a.863.863,0,1,0,0,1.727h16.4v1.727H19.972v-2.59a.863.863,0,0,0-.863-.863.863.863,0,0,1,0-1.727H39.83A.864.864,0,0,1,40.693,44.261Zm-13.814-2.59V18.994h5.18V41.671Zm6.043-24.4H26.016a.863.863,0,1,1,0-1.727h6.907a.863.863,0,1,1,0,1.727ZM29.469,10.36a4.317,4.317,0,1,1,4.317-4.317A4.322,4.322,0,0,1,29.469,10.36ZM35.45,5.18H47.226a.863.863,0,1,1,0,1.727H35.45a5.982,5.982,0,0,0,0-1.727ZM48.089,9.5a.863.863,0,1,1-.863-.863A.864.864,0,0,1,48.089,9.5Z" transform="translate(0)"/>
      <path id="Trazado_1037160" data-name="Trazado 1037160" d="M236.09,30a2.59,2.59,0,1,0,2.59,2.59A2.593,2.593,0,0,0,236.09,30Zm0,3.453a.863.863,0,1,1,.863-.863A.864.864,0,0,1,236.09,33.453Z" transform="translate(-206.621 -26.547)"/>
    </g>
  </g>
</svg>
